<svg xmlns="http://www.w3.org/2000/svg" width="24" height="24" fill="currentcolor" class="icon-activity" viewBox="0 0 24 24">
  <path d="M8.99976 2.4375C9.24185 2.4375 9.45711 2.59237 9.53369 2.82202L14.9998 19.2209L17.4666 11.822L17.5017 11.74C17.5974 11.5565 17.788 11.4376 17.9998 11.4375H22.0002C22.3108 11.4376 22.5627 11.6894 22.5627 12C22.5627 12.3106 22.3108 12.5624 22.0002 12.5625H18.4055L15.5337 21.178C15.4571 21.4076 15.2418 21.5625 14.9998 21.5625C14.7578 21.5624 14.5431 21.4075 14.4666 21.178L8.99976 4.77832L6.53369 12.178C6.45711 12.4076 6.24185 12.5625 5.99976 12.5625H2C1.68934 12.5625 1.4375 12.3107 1.4375 12C1.4375 11.6893 1.68934 11.4375 2 11.4375H5.59473L8.46655 2.82202L8.50171 2.73999C8.5974 2.55646 8.78795 2.43759 8.99976 2.4375Z"/>
</svg>