<svg xmlns="http://www.w3.org/2000/svg" width="24" height="24" fill="currentcolor" class="icon-airplay" viewBox="0 0 24 24">
  <path d="M11.9998 14.4375C12.1666 14.4375 12.325 14.5116 12.4319 14.6396L17.4321 20.6396C17.5719 20.8073 17.6016 21.0411 17.509 21.2388C17.4164 21.4363 17.2182 21.5625 17 21.5625H7.00024C6.78202 21.5625 6.58307 21.4364 6.49048 21.2388C6.3979 21.0411 6.42839 20.8073 6.56812 20.6396L11.5676 14.6396C11.6744 14.5115 11.8329 14.4376 11.9998 14.4375ZM8.20142 20.4375H15.7988L11.9998 15.8789L8.20142 20.4375ZM21.4377 15V5.00024C21.4377 4.61905 21.2861 4.25321 21.0166 3.98364C20.7807 3.74777 20.4712 3.60251 20.1421 3.56982L20 3.5625H4.00024C3.619 3.5625 3.25323 3.71406 2.98364 3.98364C2.71406 4.25323 2.5625 4.619 2.5625 5.00024V15C2.5625 15.3812 2.71406 15.747 2.98364 16.0166C3.25321 16.2861 3.61905 16.4377 4.00024 16.4377H5C5.31066 16.4377 5.5625 16.6896 5.5625 17.0002C5.56237 17.3108 5.31058 17.5627 5 17.5627H4.00024C3.32068 17.5627 2.66878 17.2925 2.18823 16.812C1.70767 16.3314 1.4375 15.6796 1.4375 15V5.00024C1.4375 4.32063 1.70767 3.66879 2.18823 3.18823C2.66879 2.70767 3.32063 2.4375 4.00024 2.4375H20L20.1267 2.44043C20.7602 2.47177 21.3614 2.73762 21.812 3.18823C22.2925 3.66878 22.5627 4.32068 22.5627 5.00024V15C22.5627 15.6796 22.2926 16.3315 21.812 16.812C21.3315 17.2926 20.6796 17.5627 20 17.5627H19.0002C18.6897 17.5627 18.4379 17.3108 18.4377 17.0002C18.4377 16.6896 18.6896 16.4377 19.0002 16.4377H20C20.3812 16.4377 20.747 16.2862 21.0166 16.0166C21.2862 15.747 21.4377 15.3812 21.4377 15Z"/>
</svg>