<svg xmlns="http://www.w3.org/2000/svg" width="24" height="24" fill="currentcolor" class="icon-alert-triangle" viewBox="0 0 24 24">
  <path d="M11.9998 2.33476C12.4401 2.33476 12.8729 2.44838 13.2566 2.66435C13.6403 2.88038 13.962 3.1917 14.1904 3.56816L14.1926 3.57109L22.6668 17.7186C22.8905 18.106 23.009 18.5455 23.0103 18.993C23.0115 19.4403 22.8956 19.8802 22.6741 20.2688C22.4525 20.6575 22.1331 20.9816 21.7476 21.2085C21.362 21.4354 20.9235 21.5574 20.4761 21.5623H3.52345C3.07609 21.5574 2.63755 21.4354 2.25196 21.2085C1.86644 20.9816 1.54698 20.6575 1.32545 20.2688C1.10396 19.8802 0.988018 19.4403 0.989268 18.993C0.990521 18.5455 1.10903 18.106 1.33277 17.7186L9.80689 3.57109L9.80909 3.56816C10.0375 3.1917 10.3592 2.88038 10.7429 2.66435C11.1266 2.44837 11.5594 2.33477 11.9998 2.33476ZM11.9998 3.45976C11.7527 3.45977 11.5097 3.52315 11.2944 3.64433C11.0792 3.76554 10.8989 3.94067 10.7708 4.1519L2.3025 18.2891C2.17991 18.5045 2.115 18.748 2.11427 18.9959C2.11356 19.2469 2.17894 19.4941 2.30323 19.7122C2.42747 19.93 2.60642 20.1116 2.82252 20.2388C3.03883 20.3661 3.28494 20.4345 3.5359 20.4373H20.4636C20.7146 20.4345 20.9607 20.3661 21.177 20.2388C21.3932 20.1115 21.5728 19.9302 21.697 19.7122C21.8213 19.4941 21.886 19.2469 21.8853 18.9959C21.8845 18.7479 21.8196 18.5045 21.697 18.2891L13.2288 4.1519L13.1782 4.07426C13.0549 3.8977 12.8934 3.75037 12.7051 3.64433C12.4898 3.52316 12.2468 3.45976 11.9998 3.45976ZM12.01 16.4375C12.3206 16.4377 12.5725 16.6895 12.5725 17C12.5725 17.3106 12.3206 17.5624 12.01 17.5625H11.9998C11.6891 17.5625 11.4373 17.3107 11.4373 17C11.4373 16.6894 11.6891 16.4376 11.9998 16.4375H12.01ZM11.4373 13.0003V8.9998C11.4374 8.68924 11.6892 8.43731 11.9998 8.4373C12.3104 8.4373 12.5622 8.68924 12.5623 8.9998V13.0003C12.5621 13.3108 12.3103 13.5628 11.9998 13.5628C11.6892 13.5628 11.4374 13.3108 11.4373 13.0003Z"/>
</svg>