<svg xmlns="http://www.w3.org/2000/svg" width="24" height="24" fill="currentcolor" class="icon-alert-circle" viewBox="0 0 24 24">
  <path d="M21.4377 11.9998C21.4376 6.78768 17.2119 2.5625 11.9998 2.5625C6.78776 2.56263 2.56263 6.78776 2.5625 11.9998C2.5625 17.2119 6.78768 21.4376 11.9998 21.4377C17.2119 21.4377 21.4377 17.2119 21.4377 11.9998ZM12.01 15.4377C12.3207 15.4377 12.5725 15.6896 12.5725 16.0002C12.5724 16.3108 12.3206 16.5627 12.01 16.5627H11.9998C11.6893 16.5626 11.4374 16.3107 11.4373 16.0002C11.4373 15.6897 11.6892 15.4379 11.9998 15.4377H12.01ZM11.4373 11.9998V8C11.4373 7.68942 11.6892 7.43763 11.9998 7.4375C12.3104 7.4375 12.5623 7.68934 12.5623 8V11.9998C12.5623 12.3104 12.3104 12.5623 11.9998 12.5623C11.6892 12.5621 11.4373 12.3103 11.4373 11.9998ZM22.5627 11.9998C22.5627 17.8333 17.8333 22.5627 11.9998 22.5627C6.16636 22.5626 1.4375 17.8332 1.4375 11.9998C1.43763 6.16644 6.16644 1.43763 11.9998 1.4375C17.8332 1.4375 22.5626 6.16636 22.5627 11.9998Z"/>
</svg>