<svg xmlns="http://www.w3.org/2000/svg" width="24" height="24" fill="currentcolor" class="icon-alert-triangle" viewBox="0 0 24 24">
  <path d="M12 2.33476C12.4403 2.33476 12.8731 2.44838 13.2568 2.66435C13.6405 2.88038 13.9623 3.1917 14.1907 3.56816L14.1928 3.57109L22.667 17.7186C22.8907 18.106 23.0092 18.5455 23.0105 18.993C23.0117 19.4403 22.8958 19.8802 22.6743 20.2688C22.4528 20.6575 22.1333 20.9816 21.7478 21.2085C21.3622 21.4354 20.9237 21.5574 20.4763 21.5623H3.52366C3.0763 21.5574 2.63776 21.4354 2.25218 21.2085C1.86665 20.9816 1.54719 20.6575 1.32566 20.2688C1.10417 19.8802 0.988231 19.4403 0.989481 18.993C0.990734 18.5455 1.10924 18.106 1.33299 17.7186L9.80711 3.57109L9.8093 3.56816C10.0377 3.1917 10.3594 2.88038 10.7431 2.66435C11.1268 2.44837 11.5597 2.33477 12 2.33476ZM12 3.45976C11.7529 3.45977 11.5099 3.52315 11.2947 3.64433C11.0794 3.76554 10.8991 3.94067 10.771 4.1519L2.30271 18.2891C2.18012 18.5045 2.11521 18.748 2.11448 18.9959C2.11378 19.2469 2.17915 19.4941 2.30345 19.7122C2.42768 19.93 2.60663 20.1116 2.82273 20.2388C3.03905 20.3661 3.28515 20.4345 3.53611 20.4373H20.4638C20.7148 20.4345 20.9609 20.3661 21.1772 20.2388C21.3934 20.1115 21.573 19.9302 21.6972 19.7122C21.8215 19.4941 21.8862 19.2469 21.8855 18.9959C21.8847 18.7479 21.8198 18.5045 21.6972 18.2891L13.229 4.1519L13.1784 4.07426C13.0551 3.8977 12.8936 3.75037 12.7053 3.64433C12.49 3.52316 12.247 3.45976 12 3.45976ZM12.0102 16.4375C12.3208 16.4377 12.5727 16.6895 12.5727 17C12.5727 17.3106 12.3208 17.5624 12.0102 17.5625H12C11.6893 17.5625 11.4375 17.3107 11.4375 17C11.4375 16.6894 11.6893 16.4376 12 16.4375H12.0102ZM11.4375 13.0003V8.9998C11.4376 8.68924 11.6894 8.43731 12 8.4373C12.3106 8.4373 12.5624 8.68924 12.5625 8.9998V13.0003C12.5623 13.3108 12.3105 13.5628 12 13.5628C11.6894 13.5628 11.4376 13.3108 11.4375 13.0003Z"/>
</svg>