<svg xmlns="http://www.w3.org/2000/svg" width="24" height="24" fill="currentcolor" class="icon-align-center" viewBox="0 0 24 24">
  <path d="M18 17.4375C18.3107 17.4375 18.5625 17.6893 18.5625 18C18.5625 18.3107 18.3107 18.5625 18 18.5625H6C5.68934 18.5625 5.4375 18.3107 5.4375 18C5.4375 17.6893 5.68934 17.4375 6 17.4375H18ZM21 13.4377C21.3107 13.4377 21.5625 13.6896 21.5625 14.0002C21.5624 14.3108 21.3106 14.5627 21 14.5627H3C2.68942 14.5627 2.43763 14.3108 2.4375 14.0002C2.4375 13.6896 2.68934 13.4377 3 13.4377H21ZM18 9.43726C18.3106 9.43726 18.5624 9.68921 18.5625 9.99976C18.5625 10.3104 18.3107 10.5623 18 10.5623H6C5.68934 10.5623 5.4375 10.3104 5.4375 9.99976C5.43763 9.68921 5.68942 9.43726 6 9.43726H18ZM21 5.4375C21.3107 5.4375 21.5625 5.68934 21.5625 6C21.5625 6.31066 21.3107 6.5625 21 6.5625H3C2.68934 6.5625 2.4375 6.31066 2.4375 6C2.4375 5.68934 2.68934 5.4375 3 5.4375H21Z"/>
</svg>