<svg xmlns="http://www.w3.org/2000/svg" width="24" height="24" fill="currentcolor" class="icon-align-left" viewBox="0 0 24 24">
  <path d="M17.0002 17.4375C17.3108 17.4376 17.5627 17.6894 17.5627 18C17.5627 18.3106 17.3108 18.5624 17.0002 18.5625H3C2.68934 18.5625 2.4375 18.3107 2.4375 18C2.4375 17.6893 2.68934 17.4375 3 17.4375H17.0002ZM21 13.4377C21.3107 13.4377 21.5625 13.6896 21.5625 14.0002C21.5624 14.3108 21.3106 14.5627 21 14.5627H3C2.68942 14.5627 2.43763 14.3108 2.4375 14.0002C2.4375 13.6896 2.68934 13.4377 3 13.4377H21ZM17.0002 9.43726C17.3107 9.43739 17.5626 9.68929 17.5627 9.99976C17.5627 10.3103 17.3108 10.5621 17.0002 10.5623H3C2.68934 10.5623 2.4375 10.3104 2.4375 9.99976C2.43763 9.68921 2.68942 9.43726 3 9.43726H17.0002ZM21 5.4375C21.3107 5.4375 21.5625 5.68934 21.5625 6C21.5625 6.31066 21.3107 6.5625 21 6.5625H3C2.68934 6.5625 2.4375 6.31066 2.4375 6C2.4375 5.68934 2.68934 5.4375 3 5.4375H21Z"/>
</svg>