<svg xmlns="http://www.w3.org/2000/svg" width="24" height="24" fill="currentcolor" class="icon-anchor" viewBox="0 0 24 24">
  <path d="M14.4373 5C14.4373 3.65381 13.3459 2.5625 11.9998 2.5625C10.6537 2.56263 9.56226 3.65389 9.56226 5C9.56226 6.34611 10.6537 7.43737 11.9998 7.4375C13.3459 7.4375 14.4373 6.34619 14.4373 5ZM15.5623 5C15.5623 6.77617 14.2626 8.2482 12.5623 8.51782V21.4194C14.8601 21.2824 17.0367 20.3105 18.6736 18.6736C20.3105 17.0367 21.2831 14.8601 21.4202 12.5623H19.0002C18.6896 12.5623 18.4377 12.3104 18.4377 11.9998C18.4379 11.6892 18.6897 11.4373 19.0002 11.4373H22.0002C22.3107 11.4374 22.5626 11.6893 22.5627 11.9998C22.5627 14.8011 21.4498 17.4881 19.469 19.469C17.4881 21.4498 14.8011 22.5627 11.9998 22.5627C9.19855 22.5627 6.51203 21.4497 4.53125 19.469C2.5504 17.4881 1.4375 14.8011 1.4375 11.9998L1.44849 11.8899C1.47008 11.7817 1.52315 11.6812 1.60229 11.6021C1.70777 11.4966 1.85087 11.4373 2 11.4373H5C5.31058 11.4373 5.56237 11.6892 5.5625 11.9998C5.5625 12.3104 5.31066 12.5623 5 12.5623H2.58008C2.71714 14.8601 3.68978 17.0367 5.32666 18.6736C6.9634 20.3103 9.13962 21.2823 11.4373 21.4194V8.51709C9.73723 8.24722 8.43726 6.77596 8.43726 5C8.43726 3.03257 10.0324 1.43763 11.9998 1.4375C13.9673 1.4375 15.5623 3.03249 15.5623 5Z"/>
</svg>