<svg xmlns="http://www.w3.org/2000/svg" width="24" height="24" fill="currentcolor" class="icon-aperture" viewBox="0 0 24 24">
  <path d="M21.4377 11.9998C21.4377 10.7869 21.2085 9.62764 20.7917 8.5625H15.2839L20.0828 16.8726C20.9421 15.4501 21.4377 13.7828 21.4377 11.9998ZM11.8203 21.4348C11.88 21.4359 11.9398 21.4377 11.9998 21.4377C14.9834 21.4377 17.6414 20.0509 19.3708 17.8892L16.6191 13.124L11.8203 21.4348ZM3.73877 16.5627C5.12932 19.0751 7.63102 20.8861 10.5818 21.3308L13.3357 16.5627H3.73877ZM8.0293 11.9998L10.0142 15.4377H13.9854L15.9702 11.9998L13.9854 8.5625H10.0149L8.0293 11.9998ZM11.9998 2.5625C9.01624 2.56258 6.35731 3.94805 4.62793 6.10962L7.37964 10.8748L12.1785 2.56396C12.1191 2.56286 12.0594 2.5625 11.9998 2.5625ZM10.6646 7.4375H20.2615C18.871 4.92503 16.3693 3.11274 13.4185 2.66797L10.6646 7.4375ZM2.5625 11.9998C2.5625 13.2128 2.79162 14.3725 3.2085 15.4377H8.71558L3.91602 7.12695C3.05679 8.54928 2.56255 10.2168 2.5625 11.9998ZM22.5627 11.9998C22.5627 14.3319 21.806 16.4874 20.5259 18.2349C20.5104 18.2598 20.4933 18.2834 20.4739 18.3059C18.5483 20.8892 15.4695 22.5627 11.9998 22.5627C11.6092 22.5627 11.2236 22.5403 10.844 22.499C10.8239 22.4977 10.804 22.4952 10.7839 22.4917C6.98832 22.0565 3.80493 19.6107 2.32593 16.2449C2.31856 16.2297 2.31143 16.2146 2.30542 16.1987C1.74728 14.9118 1.4375 13.4919 1.4375 11.9998C1.43755 9.66857 2.19302 7.51393 3.47217 5.76685C3.48793 5.7411 3.50564 5.71675 3.52563 5.6936C5.45114 3.11038 8.53018 1.43758 11.9998 1.4375C12.3923 1.4375 12.78 1.4595 13.1614 1.50122C13.1786 1.50248 13.1955 1.50494 13.2126 1.50781C17.0095 1.94186 20.194 4.38812 21.6736 7.75464C21.6815 7.77095 21.6892 7.78729 21.6956 7.80444C22.2528 9.09051 22.5627 10.5089 22.5627 11.9998Z"/>
</svg>