<svg xmlns="http://www.w3.org/2000/svg" width="24" height="24" fill="currentcolor" class="icon-archive" viewBox="0 0 24 24">
  <path d="M22.9998 2.4375C23.3104 2.4375 23.5623 2.68934 23.5623 3V8.00024C23.5621 8.31079 23.3103 8.56274 22.9998 8.56274H21.5627V21C21.5627 21.3106 21.3108 21.5624 21.0002 21.5625H3.00024C2.68958 21.5625 2.43774 21.3107 2.43774 21V8.56274H1C0.689421 8.56274 0.437632 8.31079 0.4375 8.00024V3C0.4375 2.68934 0.68934 2.4375 1 2.4375H22.9998ZM3.56274 20.4375H20.4377V8.56274H3.56274V20.4375ZM13.9998 11.4375C14.3104 11.4375 14.5623 11.6893 14.5623 12C14.5623 12.3107 14.3104 12.5625 13.9998 12.5625H10C9.68934 12.5625 9.4375 12.3107 9.4375 12C9.4375 11.6893 9.68934 11.4375 10 11.4375H13.9998ZM1.5625 7.43774H22.4373V3.5625H1.5625V7.43774Z"/>
</svg>