<svg xmlns="http://www.w3.org/2000/svg" width="24" height="24" fill="currentcolor" class="icon-arrow-up" viewBox="0 0 24 24">
  <path d="M11.4373 19.0001V6.35779L5.39772 12.3973C5.17805 12.617 4.82198 12.617 4.60231 12.3973C4.38277 12.1777 4.38268 11.8216 4.60231 11.6019L11.6021 4.60217C11.7075 4.49674 11.8507 4.43744 11.9998 4.43738C12.1489 4.43738 12.292 4.49676 12.3975 4.60217L19.398 11.6019C19.6176 11.8215 19.6174 12.1776 19.398 12.3973C19.1783 12.617 18.8222 12.617 18.6026 12.3973L12.5623 6.35706V19.0001C12.5621 19.3107 12.3104 19.5626 11.9998 19.5626C11.6893 19.5625 11.4374 19.3106 11.4373 19.0001Z"/>
</svg>