<svg xmlns="http://www.w3.org/2000/svg" width="24" height="24" fill="currentcolor" class="icon-arrow-right-circle" viewBox="0 0 24 24">
  <path d="M21.4377 11.9998C21.4376 6.78768 17.2119 2.5625 11.9998 2.5625C6.78776 2.56263 2.56263 6.78776 2.5625 11.9998C2.5625 17.2119 6.78768 21.4376 11.9998 21.4377C17.2119 21.4377 21.4377 17.2119 21.4377 11.9998ZM11.6021 7.60229C11.8217 7.38267 12.1778 7.38275 12.3975 7.60229L16.3979 11.6021C16.6175 11.8216 16.6174 12.1778 16.3979 12.3975L12.3975 16.3979C12.1778 16.6174 11.8216 16.6175 11.6021 16.3979C11.3825 16.1784 11.3826 15.8222 11.6021 15.6025L14.6423 12.5623H8C7.68934 12.5623 7.4375 12.3104 7.4375 11.9998C7.43763 11.6892 7.68942 11.4373 8 11.4373H14.6423L11.6021 8.39771C11.3825 8.17807 11.3825 7.82193 11.6021 7.60229ZM22.5627 11.9998C22.5627 17.8333 17.8333 22.5627 11.9998 22.5627C6.16636 22.5626 1.4375 17.8332 1.4375 11.9998C1.43763 6.16644 6.16644 1.43763 11.9998 1.4375C17.8332 1.4375 22.5626 6.16636 22.5627 11.9998Z"/>
</svg>