<svg xmlns="http://www.w3.org/2000/svg" width="24" height="24" fill="currentcolor" class="icon-arrow-up-from-square-outline" viewBox="0 0 24 24">
  <path d="M18.25 8.25C19.6172 8.25 20.75 9.38281 20.75 10.75V19.5C20.75 20.9062 19.6172 22 18.25 22H5.75C4.34375 22 3.25 20.9062 3.25 19.5V10.75C3.25 9.38281 4.34375 8.25 5.75 8.25H6.0625C6.57031 8.25 7 8.67969 7 9.1875C7 9.73438 6.57031 10.125 6.0625 10.125H5.75C5.39844 10.125 5.125 10.3984 5.125 10.75V19.5C5.125 19.8516 5.39844 20.125 5.75 20.125H18.25C18.5625 20.125 18.875 19.8516 18.875 19.5V10.75C18.875 10.3984 18.5625 10.125 18.25 10.125H17.9375C17.3906 10.125 17 9.73438 17 9.1875C17 8.67969 17.3906 8.25 17.9375 8.25H18.25ZM8.25 7.9375C7.70312 7.9375 7.27344 7.54688 7.27344 7C7.27344 6.76562 7.39062 6.57031 7.54688 6.375L11.2969 2.3125C11.4531 2.11719 11.7266 2 12 2C12.2344 2 12.5078 2.11719 12.6641 2.3125L16.4141 6.375C16.5703 6.57031 16.6875 6.76562 16.6875 7C16.6875 7.50781 16.2578 7.9375 15.75 7.9375C15.4766 7.9375 15.2422 7.85938 15.0469 7.66406L12.9375 5.35938V14.5C12.9375 15.0469 12.5078 15.4375 12 15.4375C11.4531 15.4375 11.0625 15.0469 11.0625 14.5V5.35938L8.91406 7.66406C8.71875 7.85938 8.48438 7.9375 8.25 7.9375Z"/>
</svg>