<svg xmlns="http://www.w3.org/2000/svg" width="24" height="24" fill="currentcolor" class="icon-arrow-left" viewBox="0 0 24 24">
  <path d="M11.6021 4.60218C11.8217 4.38255 12.1778 4.38263 12.3975 4.60218C12.6171 4.82185 12.6171 5.17792 12.3975 5.39759L6.35791 11.4379H19.0002C19.3108 11.438 19.5627 11.6898 19.5627 12.0004C19.5625 12.3108 19.3107 12.5627 19.0002 12.5629H6.35864L12.3975 18.6024C12.6171 18.8221 12.6171 19.1782 12.3975 19.3978C12.1778 19.6173 11.8216 19.6174 11.6021 19.3978L4.60229 12.3981C4.49689 12.2927 4.4376 12.1494 4.4375 12.0004C4.4375 11.8512 4.49681 11.7074 4.60229 11.6019L11.6021 4.60218Z"/>
</svg>