<svg xmlns="http://www.w3.org/2000/svg" width="24" height="24" fill="currentcolor" class="icon-arrow-up" viewBox="0 0 24 24">
  <path d="M11.4372 19.0001V6.35779L5.3976 12.3973C5.17793 12.617 4.82186 12.617 4.60219 12.3973C4.38264 12.1777 4.38256 11.8216 4.60219 11.6019L11.6019 4.60217C11.7074 4.49674 11.8506 4.43744 11.9997 4.43738C12.1488 4.43738 12.2919 4.49676 12.3974 4.60217L19.3978 11.6019C19.6174 11.8215 19.6173 12.1776 19.3978 12.3973C19.1782 12.617 18.8221 12.617 18.6024 12.3973L12.5622 6.35706V19.0001C12.562 19.3107 12.3102 19.5626 11.9997 19.5626C11.6892 19.5625 11.4373 19.3106 11.4372 19.0001Z"/>
</svg>