<svg xmlns="http://www.w3.org/2000/svg" width="24" height="24" fill="currentcolor" class="icon-arrow-right" viewBox="0 0 24 24">
  <path d="M11.6021 4.60216C11.8217 4.38253 12.1778 4.38261 12.3975 4.60216L19.3979 11.6019C19.5034 11.7074 19.5627 11.8512 19.5627 12.0004C19.5626 12.1494 19.5034 12.2927 19.3979 12.3981L12.3975 19.3978C12.1778 19.6172 11.8216 19.6174 11.6021 19.3978C11.3825 19.1782 11.3826 18.8221 11.6021 18.6024L17.6416 12.5629H5C4.68946 12.5629 4.4377 12.3108 4.4375 12.0004C4.4375 11.6897 4.68934 11.4379 5 11.4379H17.6423L11.6021 5.39757C11.3825 5.17793 11.3825 4.8218 11.6021 4.60216Z"/>
</svg>