<svg xmlns="http://www.w3.org/2000/svg" width="24" height="24" fill="currentcolor" class="icon-arrow-up-circle" viewBox="0 0 24 24">
  <path d="M21.4377 11.9998C21.4376 6.78768 17.2119 2.5625 11.9998 2.5625C6.78776 2.56263 2.56263 6.78776 2.5625 11.9998C2.5625 17.2119 6.78768 21.4376 11.9998 21.4377C17.2119 21.4377 21.4377 17.2119 21.4377 11.9998ZM11.4373 16.0002V9.35791L8.39771 12.3975C8.17804 12.6171 7.82196 12.6171 7.60229 12.3975C7.38275 12.1778 7.38267 11.8217 7.60229 11.6021L11.6021 7.60229L11.6453 7.56348C11.8662 7.38353 12.1916 7.39655 12.3975 7.60229L16.3979 11.6021C16.6175 11.8216 16.6174 12.1778 16.3979 12.3975C16.1783 12.6171 15.8222 12.6171 15.6025 12.3975L12.5623 9.35718V16.0002C12.5621 16.3108 12.3103 16.5627 11.9998 16.5627C11.6893 16.5626 11.4374 16.3107 11.4373 16.0002ZM22.5627 11.9998C22.5627 17.8333 17.8333 22.5627 11.9998 22.5627C6.16636 22.5626 1.4375 17.8332 1.4375 11.9998C1.43763 6.16644 6.16644 1.43763 11.9998 1.4375C17.8332 1.4375 22.5626 6.16636 22.5627 11.9998Z"/>
</svg>