<svg xmlns="http://www.w3.org/2000/svg" width="24" height="24" fill="currentcolor" class="icon-at-sign" viewBox="0 0 24 24">
  <path d="M11.9998 7.4374C13.3715 7.4374 14.6014 8.04364 15.4377 9.00185V7.9999C15.4378 7.68929 15.6896 7.4374 16.0002 7.4374C16.3108 7.43752 16.5627 7.68937 16.5627 7.9999V13.0001C16.5628 13.6465 16.8191 14.2665 17.2761 14.7235C17.7332 15.1807 18.3538 15.4376 19.0002 15.4376C19.6466 15.4376 20.2666 15.1806 20.7236 14.7235C21.1807 14.2664 21.4377 13.6465 21.4377 13.0001V12.0004L21.429 11.6012C21.3448 9.61309 20.6339 7.69853 19.3928 6.13442C18.0688 4.46597 16.2192 3.29406 14.145 2.80996C12.0708 2.3259 9.89353 2.55766 7.96777 3.46767C6.04197 4.37775 4.48029 5.91272 3.53735 7.82265C2.59446 9.73251 2.32577 11.9053 2.77417 13.9874C3.22264 16.0697 4.36225 17.9392 6.00781 19.2916C7.65339 20.6441 9.70819 21.4003 11.8379 21.4369C13.9675 21.4735 16.0472 20.7881 17.7383 19.4931C17.9848 19.3046 18.3375 19.3515 18.5264 19.5978C18.7152 19.8444 18.6688 20.1977 18.4224 20.3866C16.5297 21.836 14.2017 22.6029 11.8181 22.5619C9.43474 22.5209 7.13532 21.6745 5.2937 20.161C3.452 18.6474 2.17603 16.5552 1.67407 14.2248C1.17214 11.8943 1.47347 9.46221 2.52881 7.32461C3.58415 5.18703 5.33196 3.46963 7.4873 2.45107C9.64264 1.43255 12.0791 1.17248 14.4006 1.71425C16.7221 2.25605 18.7921 3.56759 20.2739 5.43496C21.7557 7.30226 22.5625 9.61587 22.5627 11.9997V13.0001C22.5627 13.9449 22.1871 14.8509 21.519 15.5189C20.851 16.187 19.945 16.5626 19.0002 16.5626C18.0554 16.5626 17.1488 16.187 16.4807 15.5189C16.1938 15.2319 15.9609 14.9009 15.7886 14.5419C14.9694 15.7604 13.5784 16.5626 11.9998 16.5626C9.48007 16.5625 7.4375 14.5194 7.4375 11.9997C7.43769 9.4801 9.48019 7.43754 11.9998 7.4374ZM8.5625 11.9997C8.5625 13.898 10.1014 15.4375 11.9998 15.4376C13.8389 15.4376 15.3413 13.9932 15.4333 12.1769L15.4377 11.9997L15.4333 11.8231C15.3413 10.0069 13.8389 8.5624 11.9998 8.5624C10.1015 8.56254 8.56269 10.1014 8.5625 11.9997Z"/>
</svg>