<svg xmlns="http://www.w3.org/2000/svg" width="24" height="24" fill="currentcolor" class="icon-at-sign" viewBox="0 0 24 24">
  <path d="M11.9999 7.43737C13.3717 7.43737 14.6015 8.04361 15.4379 9.00182V7.99987C15.438 7.68926 15.6898 7.43737 16.0004 7.43737C16.3109 7.43749 16.5629 7.68934 16.5629 7.99987V13.0001C16.563 13.6464 16.8193 14.2664 17.2763 14.7235C17.7334 15.1806 18.354 15.4376 19.0004 15.4376C19.6468 15.4376 20.2668 15.1806 20.7238 14.7235C21.1809 14.2664 21.4379 13.6465 21.4379 13.0001V12.0004L21.4291 11.6012C21.345 9.61306 20.6341 7.6985 19.393 6.13439C18.069 4.46593 16.2194 3.29403 14.1452 2.80993C12.071 2.32587 9.89372 2.55763 7.96796 3.46764C6.04215 4.37772 4.48047 5.91269 3.53754 7.82262C2.59465 9.73248 2.32595 11.9052 2.77435 13.9874C3.22282 16.0697 4.36243 17.9392 6.008 19.2916C7.65357 20.644 9.70837 21.4003 11.8381 21.4369C13.9677 21.4735 16.0474 20.7881 17.7385 19.493C17.985 19.3045 18.3377 19.3515 18.5266 19.5978C18.7154 19.8443 18.669 20.1977 18.4225 20.3866C16.5299 21.836 14.2019 22.6029 11.8183 22.5619C9.43492 22.5208 7.13551 21.6745 5.29388 20.161C3.45219 18.6474 2.17621 16.5552 1.67426 14.2247C1.17232 11.8942 1.47365 9.46218 2.52899 7.32458C3.58434 5.187 5.33214 3.4696 7.48749 2.45104C9.64282 1.43252 12.0793 1.17245 14.4008 1.71422C16.7223 2.25601 18.7923 3.56756 20.2741 5.43493C21.7559 7.30223 22.5627 9.61584 22.5629 11.9996V13.0001C22.5629 13.9449 22.1873 14.8508 21.5192 15.5189C20.8512 16.187 19.9452 16.5626 19.0004 16.5626C18.0556 16.5626 17.149 16.187 16.4809 15.5189C16.1939 15.2319 15.9611 14.9009 15.7888 14.5419C14.9696 15.7604 13.5786 16.5626 11.9999 16.5626C9.48026 16.5625 7.43768 14.5193 7.43768 11.9996C7.43788 9.48007 9.48038 7.43751 11.9999 7.43737ZM8.56268 11.9996C8.56268 13.898 10.1016 15.4375 11.9999 15.4376C13.8391 15.4376 15.3415 13.9932 15.4335 12.1769L15.4379 11.9996L15.4335 11.8231C15.3415 10.0068 13.8391 8.56237 11.9999 8.56237C10.1017 8.56251 8.56288 10.1014 8.56268 11.9996Z"/>
</svg>