<svg xmlns="http://www.w3.org/2000/svg" width="24" height="24" fill="currentcolor" class="icon-award" viewBox="0 0 24 24">
  <path d="M18.4377 7.99976C18.4376 4.44454 15.555 1.5625 11.9998 1.5625C8.44462 1.56263 5.56263 4.44462 5.5625 7.99976C5.5625 11.555 8.44454 14.4376 11.9998 14.4377C13.2752 14.4377 14.4632 14.0647 15.4634 13.4248C15.4838 13.4101 15.5047 13.3964 15.5271 13.3845C17.2795 12.2343 18.4377 10.2526 18.4377 7.99976ZM15.3425 14.7834C14.3344 15.2811 13.2001 15.5627 11.9998 15.5627C10.8 15.5627 9.6662 15.2815 8.65845 14.7842L7.71069 21.9172L11.7104 19.5178L11.7793 19.4827C11.9436 19.4125 12.1332 19.4244 12.2891 19.5178L16.2888 21.9172L15.3425 14.7834ZM19.5627 7.99976C19.5627 10.5375 18.3107 12.7811 16.3928 14.1528L17.5574 22.9258C17.5858 23.1398 17.4894 23.3514 17.3091 23.47C17.1286 23.5885 16.8959 23.5935 16.7107 23.4824L11.9998 20.656L7.28955 23.4824C7.10433 23.5936 6.87169 23.5886 6.69116 23.47C6.51068 23.3514 6.4137 23.1399 6.44214 22.9258L7.60669 14.1536C5.68878 12.7818 4.4375 10.5375 4.4375 7.99976C4.43763 3.8233 7.8233 0.437632 11.9998 0.4375C16.1763 0.4375 19.5626 3.82321 19.5627 7.99976Z"/>
</svg>