<svg xmlns="http://www.w3.org/2000/svg" width="24" height="24" fill="currentcolor" class="icon-bank" viewBox="0 0 24 24">
  <path d="M21.8438 6.98071C22.2129 7.22681 22.5 7.63696 22.5 8.08813C22.5 8.7854 21.9258 9.35962 21.1875 9.35962H2.77148C2.0332 9.35962 1.5 8.7854 1.5 8.08813C1.5 7.63696 1.74609 7.22681 2.11523 6.98071L11.6719 1.60767C11.877 1.48462 12.082 1.48462 12.2871 1.60767L21.8438 6.98071ZM21.0645 8.04712L12 2.92017L2.89453 8.04712C12.4432 8.04712 11.5547 8.04712 21.0645 8.04712ZM4.125 10.6721H5.4375V15.9221H8.71875V10.6721H10.0312V15.9221H13.9688V10.6721H15.2812V15.9221H18.5625V10.6721H19.875V15.9221C20.2031 15.9221 20.5312 16.2502 20.5312 16.5784C20.5312 16.9475 20.2031 17.2346 19.875 17.2346H4.125C3.75586 17.2346 3.46875 16.9475 3.46875 16.5784C3.46875 16.2502 3.75586 15.9221 4.125 15.9221V10.6721ZM20.8594 18.5471C21.1875 18.5471 21.5156 18.8752 21.5156 19.2034C21.5156 19.5725 21.1875 19.8596 20.8594 19.8596H3.14062C2.77148 19.8596 2.48438 19.5725 2.48438 19.2034C2.48438 18.8752 2.77148 18.5471 3.14062 18.5471H20.8594ZM21.8438 21.1721C22.1719 21.1721 22.5 21.5002 22.5 21.8284C22.5 22.1975 22.1719 22.4846 21.8438 22.4846H2.15625C1.78711 22.4846 1.5 22.1975 1.5 21.8284C1.5 21.5002 1.78711 21.1721 2.15625 21.1721H21.8438Z"/>
</svg>