<svg xmlns="http://www.w3.org/2000/svg" width="24" height="24" fill="currentcolor" class="icon-bar-chart" viewBox="0 0 24 24">
  <path d="M5.4375 19.9998V16C5.4375 15.6893 5.68934 15.4375 6 15.4375C6.31066 15.4375 6.5625 15.6893 6.5625 16V19.9998C6.5625 20.3104 6.31066 20.5623 6 20.5623C5.68934 20.5623 5.4375 20.3104 5.4375 19.9998ZM11.4375 19.9998V10C11.4375 9.68934 11.6893 9.4375 12 9.4375C12.3107 9.4375 12.5625 9.68934 12.5625 10V19.9998C12.5625 20.3104 12.3107 20.5623 12 20.5623C11.6893 20.5623 11.4375 20.3104 11.4375 19.9998ZM17.4375 19.9998V4C17.4375 3.68934 17.6893 3.4375 18 3.4375C18.3107 3.4375 18.5625 3.68934 18.5625 4V19.9998C18.5625 20.3104 18.3107 20.5623 18 20.5623C17.6893 20.5623 17.4375 20.3104 17.4375 19.9998Z"/>
</svg>