<svg xmlns="http://www.w3.org/2000/svg" width="24" height="24" fill="currentcolor" class="icon-battery-charging" viewBox="0 0 24 24">
  <path d="M4.99976 5.43752C5.31042 5.43752 5.56226 5.68935 5.56226 6.00002V18C5.56226 18.3107 5.31042 18.5625 4.99976 18.5625H3.00024C2.32063 18.5625 1.66879 18.2923 1.18823 17.8118C0.737734 17.3613 0.471877 16.7605 0.44043 16.1272L0.4375 15.9998V8.00026C0.4375 7.32064 0.707671 6.66881 1.18823 6.18825C1.66879 5.70769 2.32063 5.43752 3.00024 5.43752H4.99976ZM11.5322 5.688C11.7046 5.42961 12.0538 5.3597 12.3123 5.532C12.5706 5.70434 12.6405 6.05361 12.4683 6.31203L9.05078 11.4375H13.9998C14.2072 11.4375 14.3977 11.552 14.4956 11.7349C14.5934 11.9178 14.5828 12.1394 14.4678 12.312L10.468 18.312C10.2957 18.5705 9.94647 18.6404 9.68799 18.468C9.4295 18.2957 9.35966 17.9465 9.53198 17.688L12.9487 12.5625H7.99976C7.7924 12.5624 7.60175 12.448 7.50391 12.2652C7.4062 12.0823 7.4168 11.8605 7.53174 11.688L11.5322 5.688ZM18.4375 15.9998V8.00026C18.4375 7.61901 18.2859 7.25324 18.0164 6.98366C17.7468 6.71407 17.381 6.56252 16.9998 6.56252H15.0002C14.6896 6.56252 14.4377 6.31068 14.4377 6.00002C14.4377 5.68935 14.6896 5.43752 15.0002 5.43752H16.9998C17.6794 5.43752 18.3312 5.70769 18.8118 6.18825C19.2923 6.66881 19.5625 7.32064 19.5625 8.00026V15.9998C19.5625 16.6794 19.2923 17.3312 18.8118 17.8118C18.3312 18.2923 17.6794 18.5625 16.9998 18.5625H15.0002C14.6896 18.5625 14.4377 18.3107 14.4377 18C14.4377 17.6894 14.6896 17.4375 15.0002 17.4375H16.9998C17.381 17.4375 17.7468 17.286 18.0164 17.0164C18.2859 16.7468 18.4375 16.381 18.4375 15.9998ZM22.4373 12.9998V11.0003C22.4373 10.6897 22.6892 10.4379 22.9998 10.4378C23.3104 10.4378 23.5623 10.6896 23.5623 11.0003V12.9998C23.5623 13.3104 23.3104 13.5623 22.9998 13.5623C22.6892 13.5621 22.4373 13.3104 22.4373 12.9998ZM1.5625 15.9998L1.56982 16.1419C1.60246 16.471 1.74771 16.7804 1.98364 17.0164C2.25323 17.286 2.619 17.4375 3.00024 17.4375H4.43726V6.56252H3.00024C2.619 6.56252 2.25323 6.71407 1.98364 6.98366C1.71406 7.25324 1.5625 7.61901 1.5625 8.00026V15.9998Z"/>
</svg>