<svg xmlns="http://www.w3.org/2000/svg" width="24" height="24" fill="currentcolor" class="icon-battery" viewBox="0 0 24 24">
  <path d="M18.4375 8.00024C18.4375 7.20633 17.7937 6.5625 16.9998 6.5625H3.00024C2.20633 6.5625 1.5625 7.20633 1.5625 8.00024V15.9998L1.56982 16.147C1.64343 16.8718 2.25595 17.4375 3.00024 17.4375H16.9998C17.7937 17.4375 18.4375 16.7937 18.4375 15.9998V8.00024ZM22.4373 12.9998V11.0002C22.4373 10.6897 22.6892 10.4379 22.9998 10.4377C23.3104 10.4377 23.5623 10.6896 23.5623 11.0002V12.9998C23.5623 13.3104 23.3104 13.5623 22.9998 13.5623C22.6892 13.5621 22.4373 13.3103 22.4373 12.9998ZM19.5625 15.9998C19.5625 17.415 18.415 18.5625 16.9998 18.5625H3.00024C1.62915 18.5625 0.509665 17.4857 0.441162 16.1316L0.4375 15.9998V8.00024C0.4375 6.58501 1.58501 5.4375 3.00024 5.4375H16.9998C18.415 5.4375 19.5625 6.58501 19.5625 8.00024V15.9998Z"/>
</svg>