<svg xmlns="http://www.w3.org/2000/svg" width="24" height="24" fill="currentcolor" class="icon-bell-off" viewBox="0 0 24 24">
  <g clip-path="url(#a)">
    <path d="M0.602252 0.602283C0.821922 0.382613 1.17799 0.382613 1.39766 0.602283L23.3974 22.602C23.6171 22.8217 23.6171 23.1778 23.3974 23.3974C23.1777 23.6171 22.8217 23.6171 22.602 23.3974L16.7668 17.5622H3.0002C2.75238 17.5622 2.53375 17.4002 2.46187 17.1631C2.39032 16.9268 2.48072 16.6711 2.68526 16.5332L2.68453 16.5347V16.5339C2.68623 16.5327 2.69076 16.5296 2.69771 16.5244C2.71167 16.514 2.7359 16.4954 2.76876 16.468C2.83458 16.4131 2.93554 16.3228 3.06026 16.1911C3.3095 15.9281 3.65519 15.4987 4.00582 14.8559C4.66192 13.6531 5.34599 11.6831 5.42891 8.62596L5.4377 7.99974C5.43658 7.46868 5.5015 6.94007 5.63033 6.42577L0.602252 1.39769C0.382583 1.17802 0.382583 0.821953 0.602252 0.602283ZM13.2431 20.7175C13.399 20.4489 13.7435 20.3574 14.0122 20.5132C14.2809 20.669 14.3724 21.0135 14.2165 21.2822C13.9913 21.6705 13.668 21.9927 13.279 22.2168C12.8901 22.4408 12.449 22.5588 12.0002 22.5588C11.5513 22.5588 11.1097 22.4408 10.7207 22.2168C10.3318 21.9927 10.0084 21.6704 9.78316 21.2822C9.62738 21.0135 9.71886 20.669 9.98751 20.5132C10.2562 20.3573 10.6006 20.4489 10.7565 20.7175C10.8829 20.9353 11.0643 21.1162 11.2824 21.2419C11.5007 21.3676 11.7484 21.4338 12.0002 21.4338C12.2519 21.4338 12.4991 21.3676 12.7172 21.2419C12.9355 21.1162 13.1168 20.9354 13.2431 20.7175ZM6.59566 7.3911C6.57289 7.59253 6.56222 7.79576 6.5627 7.99901V7.99974C6.5627 11.5826 5.794 13.9273 4.99385 15.3943C4.76588 15.8122 4.53555 16.1567 4.32222 16.4372H15.6418L6.59566 7.3911ZM11.6838 1.43651C12.8712 1.37923 14.052 1.64547 15.0998 2.20702C16.1476 2.76857 17.0234 3.60429 17.6333 4.62474C18.243 5.64508 18.5644 6.81185 18.5627 8.00048V8.00927C18.5366 9.64414 18.742 11.2747 19.1728 12.852C19.2545 13.1516 19.0776 13.4609 18.778 13.5427C18.4784 13.6245 18.1692 13.4476 18.0874 13.1479C17.6285 11.4682 17.4099 9.73199 17.4377 7.99096C17.4377 7.00878 17.1711 6.04507 16.6672 5.20189C16.1619 4.35635 15.4363 3.664 14.5681 3.19872C13.6999 2.73348 12.7218 2.51259 11.738 2.56005C10.7541 2.60751 9.80129 2.92155 8.98189 3.46825C8.7235 3.64038 8.3742 3.57055 8.20186 3.31224C8.02948 3.05382 8.09946 2.70462 8.35787 2.53221C9.3468 1.87241 10.4963 1.4938 11.6838 1.43651Z"/>
  </g>
  <defs>
    <clipPath id="a">
      <path d="M0 0H24V24H0z"/>
    </clipPath>
  </defs>
</svg>