<svg xmlns="http://www.w3.org/2000/svg" width="24" height="24" fill="currentcolor" class="icon-bell-off" viewBox="0 0 24 24">
  <g clip-path="url(#a)">
    <path d="M0.602313 0.602283C0.821983 0.382613 1.17805 0.382613 1.39772 0.602283L23.3975 22.602C23.6171 22.8217 23.6171 23.1778 23.3975 23.3974C23.1778 23.6171 22.8217 23.6171 22.6021 23.3974L16.7669 17.5622H3.00026C2.75244 17.5622 2.53381 17.4002 2.46193 17.1631C2.39038 16.9268 2.48078 16.6711 2.68532 16.5332L2.68459 16.5347V16.5339C2.6863 16.5327 2.69082 16.5296 2.69777 16.5244C2.71173 16.514 2.73596 16.4954 2.76882 16.468C2.83464 16.4131 2.93561 16.3228 3.06032 16.1911C3.30956 15.9281 3.65525 15.4987 4.00588 14.8559C4.66198 13.6531 5.34605 11.6831 5.42897 8.62596L5.43776 7.99974C5.43664 7.46868 5.50156 6.94007 5.63039 6.42577L0.602313 1.39769C0.382644 1.17802 0.382644 0.821953 0.602313 0.602283ZM13.2432 20.7175C13.399 20.4489 13.7435 20.3574 14.0122 20.5132C14.2809 20.669 14.3724 21.0135 14.2166 21.2822C13.9913 21.6705 13.668 21.9927 13.2791 22.2168C12.8901 22.4408 12.4491 22.5588 12.0003 22.5588C11.5513 22.5588 11.1097 22.4408 10.7207 22.2168C10.3319 21.9927 10.0084 21.6704 9.78322 21.2822C9.62744 21.0135 9.71892 20.669 9.98757 20.5132C10.2562 20.3573 10.6007 20.4489 10.7566 20.7175C10.883 20.9353 11.0643 21.1162 11.2825 21.2419C11.5007 21.3676 11.7484 21.4338 12.0003 21.4338C12.252 21.4338 12.4992 21.3676 12.7173 21.2419C12.9355 21.1162 13.1168 20.9354 13.2432 20.7175ZM6.59572 7.3911C6.57295 7.59253 6.56228 7.79576 6.56276 7.99901V7.99974C6.56276 11.5826 5.79406 13.9273 4.99391 15.3943C4.76594 15.8122 4.53561 16.1567 4.32228 16.4372H15.6419L6.59572 7.3911ZM11.6839 1.43651C12.8713 1.37923 14.052 1.64547 15.0999 2.20702C16.1477 2.76857 17.0235 3.60429 17.6333 4.62474C18.243 5.64508 18.5645 6.81185 18.5628 8.00048V8.00927C18.5367 9.64414 18.742 11.2747 19.1729 12.852C19.2545 13.1516 19.0777 13.4609 18.7781 13.5427C18.4785 13.6245 18.1693 13.4476 18.0874 13.1479C17.6286 11.4682 17.4099 9.73199 17.4378 7.99096C17.4377 7.00878 17.1711 6.04507 16.6673 5.20189C16.1619 4.35635 15.4364 3.664 14.5681 3.19872C13.6999 2.73348 12.7219 2.51259 11.7381 2.56005C10.7542 2.60751 9.80135 2.92155 8.98195 3.46825C8.72356 3.64038 8.37427 3.57055 8.20192 3.31224C8.02954 3.05382 8.09952 2.70462 8.35793 2.53221C9.34686 1.87241 10.4964 1.4938 11.6839 1.43651Z"/>
  </g>
  <defs>
    <clipPath id="a">
      <path d="M0 0H24V24H0z"/>
    </clipPath>
  </defs>
</svg>