<svg xmlns="http://www.w3.org/2000/svg" width="24" height="24" fill="currentcolor" class="icon-bell-off" viewBox="0 0 24 24">
  <g clip-path="url(#a)">
    <path d="M0.602252 0.602313C0.821922 0.382644 1.17799 0.382644 1.39766 0.602313L23.3974 22.6021C23.6171 22.8217 23.6171 23.1778 23.3974 23.3975C23.1777 23.6171 22.8217 23.6171 22.602 23.3975L16.7668 17.5623H3.0002C2.75238 17.5623 2.53375 17.4003 2.46187 17.1631C2.39032 16.9268 2.48072 16.6711 2.68526 16.5332L2.68453 16.5347V16.534C2.68623 16.5328 2.69076 16.5296 2.69771 16.5244C2.71167 16.514 2.7359 16.4954 2.76876 16.468C2.83458 16.4132 2.93554 16.3228 3.06026 16.1912C3.3095 15.9281 3.65519 15.4987 4.00582 14.856C4.66192 13.6531 5.34599 11.6831 5.42891 8.626L5.4377 7.99977C5.43658 7.46871 5.5015 6.9401 5.63033 6.4258L0.602252 1.39772C0.382583 1.17805 0.382583 0.821983 0.602252 0.602313ZM13.2431 20.7175C13.399 20.4489 13.7435 20.3574 14.0122 20.5132C14.2809 20.6691 14.3724 21.0135 14.2165 21.2822C13.9913 21.6705 13.668 21.9928 13.279 22.2168C12.8901 22.4408 12.449 22.5588 12.0002 22.5589C11.5513 22.5589 11.1097 22.4409 10.7207 22.2168C10.3318 21.9928 10.0084 21.6705 9.78316 21.2822C9.62738 21.0136 9.71886 20.6691 9.98751 20.5132C10.2562 20.3574 10.6006 20.4489 10.7565 20.7175C10.8829 20.9353 11.0643 21.1163 11.2824 21.242C11.5007 21.3677 11.7484 21.4339 12.0002 21.4339C12.2519 21.4338 12.4991 21.3676 12.7172 21.242C12.9355 21.1163 13.1168 20.9354 13.2431 20.7175ZM6.59566 7.39113C6.57289 7.59256 6.56222 7.79579 6.5627 7.99904V7.99977C6.5627 11.5826 5.794 13.9273 4.99385 15.3943C4.76588 15.8123 4.53555 16.1567 4.32222 16.4373H15.6418L6.59566 7.39113ZM11.6838 1.43654C12.8712 1.37926 14.052 1.6455 15.0998 2.20705C16.1476 2.7686 17.0234 3.60432 17.6333 4.62477C18.243 5.64511 18.5644 6.81188 18.5627 8.00051V8.0093C18.5366 9.64417 18.742 11.2748 19.1728 12.8521C19.2545 13.1517 19.0776 13.4609 18.778 13.5427C18.4784 13.6245 18.1692 13.4476 18.0874 13.148C17.6285 11.4682 17.4099 9.73202 17.4377 7.99099C17.4377 7.00881 17.1711 6.0451 16.6672 5.20192C16.1619 4.35638 15.4363 3.66403 14.5681 3.19875C13.6999 2.73351 12.7218 2.51262 11.738 2.56008C10.7541 2.60754 9.80129 2.92158 8.98189 3.46828C8.7235 3.64041 8.3742 3.57058 8.20186 3.31227C8.02948 3.05386 8.09946 2.70465 8.35787 2.53225C9.3468 1.87244 10.4963 1.49383 11.6838 1.43654Z"/>
  </g>
  <defs>
    <clipPath id="a">
      <path d="M0 0H24V24H0z"/>
    </clipPath>
  </defs>
</svg>