<svg xmlns="http://www.w3.org/2000/svg" width="24" height="24" fill="currentcolor" class="icon-bell" viewBox="0 0 24 24">
  <path d="M13.2437 20.7178C13.3995 20.4492 13.7433 20.3577 14.012 20.5134C14.2807 20.6693 14.3722 21.0137 14.2163 21.2825C13.9911 21.6707 13.6677 21.993 13.2788 22.217C12.8898 22.441 12.4489 22.5591 12 22.5591C11.5511 22.5591 11.1102 22.441 10.7212 22.217C10.3323 21.993 10.0089 21.6707 9.78369 21.2825C9.62781 21.0137 9.71931 20.6693 9.98804 20.5134C10.2567 20.3577 10.6005 20.4492 10.7563 20.7178C10.8827 20.9355 11.0641 21.1165 11.2822 21.2422C11.5004 21.3679 11.7482 21.4341 12 21.4341C12.2518 21.4341 12.4995 21.3679 12.7178 21.2422C12.9359 21.1165 13.1173 20.9355 13.2437 20.7178ZM17.4375 8C17.4375 6.55788 16.8649 5.17451 15.8452 4.15479C14.8255 3.13506 13.4421 2.5625 12 2.5625C10.5579 2.5625 9.17451 3.13506 8.15478 4.15479C7.13505 5.17451 6.5625 6.55789 6.5625 8C6.5625 11.5829 5.79381 13.9276 4.99365 15.3945C4.76564 15.8125 4.53537 16.1569 4.32202 16.4375H19.678C19.4646 16.1569 19.2344 15.8125 19.0063 15.3945C18.2062 13.9276 17.4375 11.5829 17.4375 8ZM2.68506 16.5342L2.68725 16.5327C2.68634 16.5334 2.68558 16.5338 2.68506 16.5342ZM21.3142 16.5334L21.3157 16.5342C21.3152 16.5338 21.3137 16.5334 21.3127 16.5327L21.3142 16.5334ZM18.5625 8C18.5625 11.4169 19.2938 13.5724 19.9936 14.8555C20.3443 15.4984 20.6907 15.9283 20.9399 16.1914C21.0646 16.323 21.1657 16.4134 21.2314 16.4683C21.2643 16.4956 21.2886 16.5143 21.3025 16.5247C21.3072 16.5282 21.3104 16.5311 21.3127 16.5327C21.5184 16.6703 21.6101 16.9264 21.5383 17.1633C21.4664 17.4004 21.2478 17.5625 21 17.5625H3C2.75223 17.5625 2.53359 17.4004 2.46167 17.1633C2.38994 16.9264 2.4816 16.6703 2.68725 16.5327C2.68955 16.5311 2.69281 16.5282 2.69751 16.5247C2.71143 16.5143 2.73571 16.4956 2.76855 16.4683C2.83434 16.4134 2.93537 16.323 3.06006 16.1914C3.30934 15.9283 3.65565 15.4984 4.00635 14.8555C4.70615 13.5724 5.4375 11.4169 5.4375 8C5.4375 6.25952 6.12867 4.59008 7.35937 3.35938C8.59008 2.12867 10.2595 1.4375 12 1.4375C13.7405 1.4375 15.4099 2.12867 16.6406 3.35938C17.8713 4.59008 18.5625 6.25952 18.5625 8Z"/>
</svg>