<svg xmlns="http://www.w3.org/2000/svg" width="24" height="24" fill="currentcolor" class="icon-bluetooth" viewBox="0 0 24 24">
  <path d="M11.7844 0.479992C11.9946 0.39295 12.2366 0.441531 12.3975 0.602307L17.898 6.10206C18.0034 6.20749 18.0627 6.35067 18.0628 6.49977C18.0628 6.64884 18.0033 6.79201 17.898 6.89747L12.7952 11.9995L17.898 17.1023C18.0034 17.2078 18.0628 17.3509 18.0628 17.5C18.0628 17.6491 18.0034 17.7922 17.898 17.8977L12.3975 23.3975C12.2366 23.5583 11.9946 23.6069 11.7844 23.5198C11.5744 23.4327 11.4373 23.2272 11.4373 22.9998V13.3582L6.89772 17.8977C6.67805 18.1174 6.32198 18.1174 6.10231 17.8977C5.88264 17.678 5.88264 17.322 6.10231 17.1023L11.2044 11.9995L6.10231 6.89747C5.88277 6.67779 5.88268 6.32169 6.10231 6.10206C6.32195 5.88256 6.67808 5.88256 6.89772 6.10206L11.4373 10.6416V1.00001C11.4373 0.772556 11.5743 0.567092 11.7844 0.479992ZM12.5623 21.6419L16.7041 17.4993L12.5623 13.3574V21.6419ZM12.5623 10.6423L16.7041 6.49977L12.5623 2.35719V10.6423Z"/>
</svg>