<svg xmlns="http://www.w3.org/2000/svg" width="24" height="24" fill="currentcolor" class="icon-bluetooth" viewBox="0 0 24 24">
  <path d="M11.7844 0.479992C11.9945 0.39295 12.2365 0.441531 12.3974 0.602307L17.8979 6.10206C18.0033 6.20749 18.0626 6.35067 18.0627 6.49977C18.0627 6.64884 18.0032 6.79201 17.8979 6.89747L12.7951 11.9995L17.8979 17.1023C18.0033 17.2078 18.0627 17.3509 18.0627 17.5C18.0627 17.6491 18.0033 17.7922 17.8979 17.8977L12.3974 23.3975C12.2365 23.5583 11.9946 23.6069 11.7844 23.5198C11.5743 23.4327 11.4372 23.2272 11.4372 22.9998V13.3582L6.89766 17.8977C6.67799 18.1174 6.32192 18.1174 6.10225 17.8977C5.88258 17.678 5.88258 17.322 6.10225 17.1023L11.2043 11.9995L6.10225 6.89747C5.8827 6.67779 5.88262 6.32169 6.10225 6.10206C6.32189 5.88256 6.67802 5.88256 6.89766 6.10206L11.4372 10.6416V1.00001C11.4372 0.772556 11.5743 0.567092 11.7844 0.479992ZM12.5622 21.6419L16.7041 17.4993L12.5622 13.3574V21.6419ZM12.5622 10.6423L16.7041 6.49977L12.5622 2.35719V10.6423Z"/>
</svg>