<svg xmlns="http://www.w3.org/2000/svg" width="24" height="24" fill="currentcolor" class="icon-bluetooth" viewBox="0 0 24 24">
  <path d="M11.7844 0.479962C11.9945 0.392919 12.2365 0.4415 12.3974 0.602276L17.8979 6.10203C18.0033 6.20746 18.0626 6.35064 18.0627 6.49974C18.0627 6.64881 18.0032 6.79198 17.8979 6.89744L12.7951 11.9995L17.8979 17.1023C18.0033 17.2078 18.0627 17.3509 18.0627 17.5C18.0627 17.6491 18.0033 17.7922 17.8979 17.8977L12.3974 23.3974C12.2365 23.5583 11.9946 23.6068 11.7844 23.5198C11.5743 23.4326 11.4372 23.2272 11.4372 22.9997V13.3581L6.89766 17.8977C6.67799 18.1174 6.32192 18.1174 6.10225 17.8977C5.88258 17.678 5.88258 17.3219 6.10225 17.1023L11.2043 11.9995L6.10225 6.89744C5.8827 6.67776 5.88262 6.32166 6.10225 6.10203C6.32189 5.88252 6.67802 5.88252 6.89766 6.10203L11.4372 10.6416V0.999981C11.4372 0.772526 11.5743 0.567062 11.7844 0.479962ZM12.5622 21.6418L16.7041 17.4992L12.5622 13.3574V21.6418ZM12.5622 10.6423L16.7041 6.49974L12.5622 2.35716V10.6423Z"/>
</svg>