<svg xmlns="http://www.w3.org/2000/svg" width="24" height="24" fill="currentcolor" class="icon-bold" viewBox="0 0 24 24">
  <path d="M18.4373 16C18.4373 15.0883 18.0756 14.2137 17.4309 13.5691C16.7863 12.9244 15.9117 12.5627 15 12.5627H6.5625V19.4373H15C15.9117 19.4373 16.7863 19.0756 17.4309 18.4309C18.0756 17.7863 18.4373 16.9117 18.4373 16ZM17.4375 7.99976C17.4374 7.08816 17.075 6.21418 16.4304 5.56958C15.826 4.96515 15.0199 4.60898 14.1702 4.56689L14.0002 4.5625H6.5625V11.4377H14.0002C14.9118 11.4377 15.7858 11.0752 16.4304 10.4307C17.0751 9.78601 17.4375 8.91144 17.4375 7.99976ZM18.5625 7.99976C18.5625 9.20981 18.0815 10.3704 17.2258 11.2261C17.0371 11.4148 16.8328 11.584 16.6172 11.7351C17.2152 11.9619 17.7653 12.3127 18.2263 12.7737C19.082 13.6293 19.5623 14.7899 19.5623 16C19.5623 17.2101 19.082 18.3707 18.2263 19.2263C17.3707 20.082 16.2101 20.5623 15 20.5623H6C5.68934 20.5623 5.4375 20.3104 5.4375 19.9998V4C5.4375 3.68934 5.68934 3.4375 6 3.4375H14.0002L14.2266 3.44336C15.3541 3.49938 16.4238 3.97209 17.2258 4.77417C18.0814 5.62975 18.5624 6.78979 18.5625 7.99976Z"/>
</svg>