<svg xmlns="http://www.w3.org/2000/svg" width="24" height="24" fill="currentcolor" class="icon-book-open" viewBox="0 0 24 24">
  <path d="M11.4373 21C11.4373 20.3536 11.1808 19.7337 10.7239 19.2766C10.2668 18.8195 9.64622 18.5625 8.99976 18.5625H2C1.68934 18.5625 1.4375 18.3107 1.4375 18V3C1.4375 2.68934 1.68934 2.4375 2 2.4375H8C9.21005 2.4375 10.3707 2.91854 11.2263 3.77417C11.5348 4.08266 11.7937 4.43112 11.9998 4.80688C12.2058 4.43099 12.4654 4.08274 12.7739 3.77417C13.6296 2.91854 14.7902 2.4375 16.0002 2.4375H22.0002C22.3108 2.43763 22.5627 2.68942 22.5627 3V18C22.5627 18.3106 22.3108 18.5624 22.0002 18.5625H14.9998C14.3534 18.5626 13.7334 18.8195 13.2764 19.2766C12.8193 19.7337 12.5623 20.3536 12.5623 21C12.5623 21.3107 12.3104 21.5625 11.9998 21.5625C11.6892 21.5624 11.4373 21.3106 11.4373 21ZM2.5625 17.4375H8.99976C9.90682 17.4375 10.7779 17.784 11.4373 18.4028V6.99976C11.4372 6.08828 11.0754 5.21416 10.4309 4.56958C9.78625 3.92492 8.91168 3.5625 8 3.5625H2.5625V17.4375ZM12.5623 18.4036C13.2216 17.7845 14.0925 17.4376 14.9998 17.4375H21.4377V3.5625H16.0002C15.0886 3.5625 14.214 3.92492 13.5693 4.56958C12.9248 5.21417 12.5623 6.08822 12.5623 6.99976V18.4036Z"/>
</svg>