<svg xmlns="http://www.w3.org/2000/svg" width="24" height="24" fill="currentcolor" class="icon-bookmark" viewBox="0 0 24 24">
  <path d="M18.4377 5.00024C18.4377 4.61905 18.2861 4.25321 18.0166 3.98364C17.747 3.71406 17.3812 3.5625 17 3.5625H7.00024C6.619 3.5625 6.25323 3.71406 5.98364 3.98364C5.71406 4.25323 5.5625 4.619 5.5625 5.00024V19.9065L11.6731 15.542L11.7493 15.4966C11.9333 15.4049 12.156 15.4197 12.3271 15.542L18.4377 19.9065V5.00024ZM19.5627 21C19.5627 21.2107 19.4447 21.4038 19.2573 21.5002C19.07 21.5966 18.8443 21.5802 18.6729 21.4578L11.9998 16.6904L5.32666 21.4578C5.15531 21.58 4.93014 21.5965 4.74292 21.5002C4.55557 21.4038 4.4375 21.2107 4.4375 21V5.00024C4.4375 4.32063 4.70767 3.66879 5.18823 3.18823C5.66879 2.70767 6.32063 2.4375 7.00024 2.4375H17C17.6796 2.4375 18.3314 2.70767 18.812 3.18823C19.2925 3.66878 19.5627 4.32068 19.5627 5.00024V21Z"/>
</svg>