<svg xmlns="http://www.w3.org/2000/svg" width="24" height="24" fill="currentcolor" class="icon-book" viewBox="0 0 24 24">
  <path d="M19.9998 1.4375C20.3104 1.4375 20.5623 1.68934 20.5623 2V22.0002C20.5621 22.3108 20.3103 22.5627 19.9998 22.5627H6.49976C5.68768 22.5627 4.90898 22.2397 4.33472 21.6655C3.76039 21.0912 3.4375 20.312 3.4375 19.4998V4.49976C3.43756 3.68762 3.76044 2.90899 4.33472 2.33472C4.90899 1.76044 5.68762 1.43756 6.49976 1.4375H19.9998ZM4.5625 19.4998C4.5625 20.0136 4.76678 20.5068 5.13013 20.8701C5.49341 21.2333 5.98604 21.4377 6.49976 21.4377H19.4373V17.5625H6.49976C5.98599 17.5626 5.49342 17.7668 5.13013 18.1301C4.76683 18.4934 4.56256 18.986 4.5625 19.4998ZM4.5625 17.1282C5.10684 16.6835 5.79064 16.4376 6.49976 16.4375H19.4373V2.5625H6.49976C5.98599 2.56256 5.49342 2.76683 5.13013 3.13013C4.76683 3.49342 4.56256 3.98599 4.5625 4.49976V17.1282Z"/>
</svg>