<svg xmlns="http://www.w3.org/2000/svg" width="24" height="24" fill="currentcolor" class="icon-box" viewBox="0 0 24 24">
  <path d="M12 1.43958C12.4488 1.43958 12.8892 1.55842 13.2781 1.78235L13.2788 1.78162L20.2793 5.78137L20.2815 5.78284C20.6117 5.97352 20.8937 6.23566 21.1091 6.54822C21.1499 6.58576 21.1876 6.6281 21.2168 6.67859C21.2431 6.72405 21.26 6.7722 21.2725 6.82068C21.4615 7.18439 21.562 7.58811 21.5625 7.99915V16.0009C21.562 16.4501 21.4431 16.8914 21.2183 17.2804C20.9934 17.6693 20.6705 17.9925 20.2815 18.2172L20.2793 18.2186L13.2788 22.2184L13.2781 22.2177C12.9829 22.3876 12.6581 22.4966 12.3223 22.5392C12.2308 22.6035 12.1203 22.6425 12 22.6425C11.8795 22.6425 11.7685 22.6037 11.677 22.5392C11.3412 22.4965 11.0163 22.3877 10.7212 22.2177V22.2184L3.7207 18.2186L3.71851 18.2172C3.32947 17.9925 3.00658 17.6693 2.78174 17.2804C2.5569 16.8914 2.43801 16.4501 2.4375 16.0009V7.99915L2.44336 7.83142C2.46691 7.47858 2.56424 7.13478 2.72754 6.82068C2.74002 6.7722 2.75692 6.72405 2.7832 6.67859C2.81241 6.6281 2.85012 6.58576 2.89087 6.54822C3.10632 6.23566 3.38829 5.97352 3.71851 5.78284L3.7207 5.78137L10.7212 1.78162V1.78235C11.1102 1.55821 11.551 1.43958 12 1.43958ZM3.57861 7.78821C3.56807 7.85828 3.56257 7.92926 3.5625 8.00061V15.9994L3.56543 16.0939C3.58007 16.313 3.64487 16.5263 3.75513 16.7172C3.88082 16.9346 4.06157 17.1156 4.27881 17.2416L11.2793 21.2413L11.2815 21.2428C11.332 21.272 11.3842 21.2977 11.4375 21.3204V12.3344L3.57861 7.78821ZM12.5625 12.3344V21.3204C12.6158 21.2977 12.668 21.272 12.7185 21.2428L12.7207 21.2413L19.7212 17.2416C19.9384 17.1156 20.1192 16.9346 20.2449 16.7172C20.3708 16.4992 20.4371 16.2519 20.4375 16.0001V8.00061L20.4346 7.90613C20.4319 7.86655 20.4265 7.82731 20.4207 7.78821L12.5625 12.3344ZM12 2.56458C11.7477 2.56458 11.5 2.6311 11.2815 2.7572L11.2793 2.75867L4.27881 6.75842C4.24097 6.78037 4.20446 6.8043 4.16895 6.82947L12 11.3595L19.8303 6.82947C19.795 6.80443 19.7589 6.78027 19.7212 6.75842L12.7207 2.75867L12.7185 2.7572C12.5 2.6311 12.2523 2.56458 12 2.56458Z"/>
</svg>