<svg xmlns="http://www.w3.org/2000/svg" width="24" height="24" fill="currentcolor" class="icon-briefcase" viewBox="0 0 24 24">
  <path d="M21.4377 9C21.4377 8.20609 20.7939 7.56226 20 7.56226H16.5627V20.4375H20C20.7939 20.4375 21.4377 19.7937 21.4377 18.9998V9ZM8.5625 20.4375H15.4377V7.56226H8.5625V20.4375ZM2.5625 18.9998C2.5625 19.7937 3.20633 20.4375 4.00024 20.4375H7.4375V7.56226H4.00024C3.20633 7.56226 2.5625 8.20609 2.5625 9V18.9998ZM15.4377 5.00024C15.4377 4.61905 15.2861 4.25321 15.0166 3.98364C14.7807 3.74777 14.4712 3.60251 14.1421 3.56982L14 3.5625H10.0002C9.619 3.5625 9.25323 3.71406 8.98364 3.98364C8.71406 4.25323 8.5625 4.619 8.5625 5.00024V6.43726H15.4377V5.00024ZM16.5627 6.43726H20C21.4152 6.43726 22.5627 7.58477 22.5627 9V18.9998C22.5627 20.415 21.4152 21.5625 20 21.5625H4.00024C2.58501 21.5625 1.4375 20.415 1.4375 18.9998V9C1.4375 7.58477 2.58501 6.43726 4.00024 6.43726H7.4375V5.00024C7.4375 4.32063 7.70767 3.66879 8.18823 3.18823C8.66879 2.70767 9.32063 2.4375 10.0002 2.4375H14L14.1267 2.44043C14.7602 2.47177 15.3614 2.73762 15.812 3.18823C16.2925 3.66878 16.5627 4.32068 16.5627 5.00024V6.43726Z"/>
</svg>