<svg xmlns="http://www.w3.org/2000/svg" width="24" height="24" fill="currentcolor" class="icon-calendar-alt" viewBox="0 0 24 24">
  <path d="M7.40625 1.125C7.73438 1.125 8.0625 1.45312 8.0625 1.78125V3.75H15.9375V1.78125C15.9375 1.45312 16.2246 1.125 16.5938 1.125C16.9219 1.125 17.25 1.45312 17.25 1.78125V3.75H18.5625C19.998 3.75 21.1875 4.93945 21.1875 6.375V19.5C21.1875 20.9766 19.998 22.125 18.5625 22.125H5.4375C3.96094 22.125 2.8125 20.9766 2.8125 19.5V6.375C2.8125 4.93945 3.96094 3.75 5.4375 3.75H6.75V1.78125C6.75 1.45312 7.03711 1.125 7.40625 1.125ZM19.875 9H4.125V19.5C4.125 20.2383 4.69922 20.8125 5.4375 20.8125H18.5625C19.2598 20.8125 19.875 20.2383 19.875 19.5V9ZM18.5625 5.0625H5.4375C4.69922 5.0625 4.125 5.67773 4.125 6.375V7.6875H19.875V6.375C19.875 5.67773 19.2598 5.0625 18.5625 5.0625Z"/>
</svg>