<svg xmlns="http://www.w3.org/2000/svg" width="24" height="24" fill="currentcolor" class="icon-calendar" viewBox="0 0 24 24">
  <path d="M20.4375 10.5627H3.5625V19.7502C3.56263 20.544 4.20642 21.1873 5.00024 21.1873H18.9998C19.7936 21.1873 20.4374 20.544 20.4375 19.7502V10.5627ZM20.4375 5.75C20.4375 4.95609 19.7937 4.31226 18.9998 4.31226H16.5623V5.99976C16.5623 6.31042 16.3104 6.56226 15.9998 6.56226C15.6892 6.56212 15.4373 6.31033 15.4373 5.99976V4.31226H8.56274V5.99976C8.56274 6.31033 8.31079 6.56212 8.00024 6.56226C7.68958 6.56226 7.43774 6.31042 7.43774 5.99976V4.31226H5.00024C4.20633 4.31226 3.5625 4.95609 3.5625 5.75V9.43774H20.4375V5.75ZM21.5625 19.7502C21.5624 21.1654 20.4149 22.3123 18.9998 22.3123H5.00024C3.5851 22.3123 2.43763 21.1654 2.4375 19.7502V5.75C2.4375 4.33477 3.58501 3.18726 5.00024 3.18726H7.43774V2C7.43774 1.68934 7.68958 1.4375 8.00024 1.4375C8.31079 1.43763 8.56274 1.68942 8.56274 2V3.18726H15.4373V2C15.4373 1.68942 15.6892 1.43763 15.9998 1.4375C16.3104 1.4375 16.5623 1.68934 16.5623 2V3.18726H18.9998C20.415 3.18726 21.5625 4.33477 21.5625 5.75V19.7502Z"/>
</svg>