<svg xmlns="http://www.w3.org/2000/svg" width="24" height="24" fill="currentcolor" class="icon-calendar-clock" viewBox="0 0 24 24">
  <path d="M4.59375 1.125C4.92188 1.125 5.25 1.45312 5.25 1.78125V3.75H13.125V1.78125C13.125 1.45312 13.4121 1.125 13.7812 1.125C14.1094 1.125 14.4375 1.45312 14.4375 1.78125V3.75H15.75C17.1855 3.75 18.375 4.93945 18.375 6.375V9.04102C18.1289 9.04102 17.9238 9 17.7188 9C17.4727 9 17.2676 9.04102 17.0625 9.04102V9H1.3125V19.5C1.3125 20.2383 1.88672 20.8125 2.625 20.8125H12.1406C12.5508 21.3457 13.002 21.7559 13.5352 22.125H2.625C1.14844 22.125 0 20.9766 0 19.5V6.375C0 4.93945 1.14844 3.75 2.625 3.75H3.9375V1.78125C3.9375 1.45312 4.22461 1.125 4.59375 1.125ZM15.75 5.0625H2.625C1.88672 5.0625 1.3125 5.67773 1.3125 6.375V7.6875H17.0625V6.375C17.0625 5.67773 16.4473 5.0625 15.75 5.0625ZM17.6777 12.9375C18.0469 12.9375 18.334 13.2656 18.334 13.5938V15.5625H19.6875C20.0156 15.5625 20.3438 15.8906 20.3438 16.2188C20.3438 16.5879 20.0156 16.875 19.6875 16.875H17.6777C17.3496 16.875 17.0215 16.5879 17.0215 16.2188V13.5938C17.0215 13.2656 17.3496 12.9375 17.6777 12.9375ZM11.8125 16.2188C11.8125 12.9785 14.4375 10.3125 17.7188 10.3125C20.959 10.3125 23.625 12.9785 23.625 16.2188C23.625 19.5 20.959 22.125 17.7188 22.125C14.4375 22.125 11.8125 19.5 11.8125 16.2188ZM17.7188 20.8125C20.2207 20.8125 22.3125 18.7617 22.3125 16.2188C22.3125 13.7168 20.2207 11.625 17.7188 11.625C15.1758 11.625 13.125 13.7168 13.125 16.2188C13.125 18.7617 15.1758 20.8125 17.7188 20.8125Z"/>
</svg>