<svg xmlns="http://www.w3.org/2000/svg" width="24" height="24" fill="currentcolor" class="icon-camera" viewBox="0 0 24 24">
  <path d="M22.4372 8.00024C22.4372 7.619 22.2856 7.25323 22.0161 6.98364C21.7465 6.71419 21.3813 6.56256 21.0002 6.5625H16.9997C16.8117 6.56242 16.636 6.46843 16.5317 6.31201L14.6992 3.5625H9.30121L7.46796 6.31201C7.36363 6.4685 7.18801 6.5625 6.99994 6.5625H3.00018C2.61893 6.5625 2.25317 6.71406 1.98358 6.98364C1.714 7.25323 1.56244 7.619 1.56244 8.00024V18.9998C1.56244 19.381 1.714 19.7468 1.98358 20.0164C2.25317 20.2859 2.61893 20.4375 3.00018 20.4375H21.0002C21.3813 20.4374 21.7465 20.2858 22.0161 20.0164C22.2856 19.7468 22.4372 19.381 22.4372 18.9998V8.00024ZM15.4374 12.9998C15.4373 11.1015 13.8985 9.56263 12.0002 9.5625C10.1018 9.5625 8.56233 11.1014 8.56219 12.9998C8.56219 14.8982 10.1017 16.4377 12.0002 16.4377C13.8985 16.4376 15.4374 14.8982 15.4374 12.9998ZM16.5624 12.9998C16.5624 15.5195 14.5199 17.5626 12.0002 17.5627C9.48038 17.5627 7.43719 15.5196 7.43719 12.9998C7.43733 10.4801 9.48047 8.4375 12.0002 8.4375C14.5198 8.43763 16.5623 10.4802 16.5624 12.9998ZM23.5622 18.9998C23.5622 19.6793 23.2926 20.3312 22.8122 20.8118C22.3317 21.2923 21.6797 21.5624 21.0002 21.5625H3.00018C2.32057 21.5625 1.66873 21.2923 1.18817 20.8118C0.70761 20.3312 0.437439 19.6794 0.437439 18.9998V8.00024C0.437439 7.32063 0.707609 6.66879 1.18817 6.18823C1.66873 5.70767 2.32057 5.4375 3.00018 5.4375H6.69891L8.53217 2.68799L8.57391 2.63232C8.68 2.50938 8.83553 2.4375 9.00018 2.4375H15.0002L15.0698 2.44189C15.2308 2.46203 15.3769 2.55106 15.4682 2.68799L17.3007 5.4375H21.0002C21.6797 5.43756 22.3317 5.70773 22.8122 6.18823C23.2926 6.66877 23.5622 7.32074 23.5622 8.00024V18.9998Z"/>
</svg>