<svg xmlns="http://www.w3.org/2000/svg" width="24" height="24" fill="currentcolor" class="icon-camera-off" viewBox="0 0 24 24">
  <g clip-path="url(#a)">
    <path d="M0.602295 0.602313C0.821965 0.382644 1.17804 0.382644 1.39771 0.602313L15.6763 14.8809C15.68 14.8845 15.6837 14.8881 15.6873 14.8919L23.3975 22.6021C23.6171 22.8217 23.6171 23.1778 23.3975 23.3975C23.1778 23.6171 22.8217 23.6171 22.6021 23.3975L20.7673 21.5628H3.00024C2.32068 21.5628 1.66878 21.2925 1.18823 20.812C0.707671 20.3315 0.4375 19.6796 0.4375 19V7.99977C0.437565 7.32025 0.707728 6.66827 1.18823 6.18776C1.66877 5.70735 2.32074 5.43776 3.00024 5.43776H4.64233L0.602295 1.39772C0.382625 1.17805 0.382625 0.821983 0.602295 0.602313ZM22.4373 7.99977C22.4372 7.61861 22.2856 7.25343 22.0161 6.98391C21.7466 6.71438 21.3814 6.56283 21.0002 6.56276H16.9998C16.8118 6.56268 16.636 6.46866 16.5317 6.31227L14.6992 3.56276H10.3354L22.4373 15.9583V7.99977ZM9.67554 10.471C9.41677 10.7047 9.19332 10.976 9.01562 11.2781C8.75956 11.7135 8.60313 12.2005 8.5564 12.7034C8.50971 13.2062 8.57397 13.713 8.74536 14.188C8.91683 14.6631 9.19095 15.095 9.5481 15.4522C9.90511 15.8091 10.3367 16.0827 10.8115 16.2542C11.2866 16.4256 11.794 16.4906 12.2969 16.4439C12.7998 16.3971 13.2861 16.24 13.7214 15.9839C14.0236 15.8062 14.2948 15.5828 14.5286 15.324L9.67554 10.471ZM1.5625 19C1.5625 19.3813 1.71406 19.747 1.98364 20.0166C2.25321 20.2861 2.61905 20.4378 3.00024 20.4378H19.6423L15.3247 16.1201C15.0232 16.4456 14.6764 16.7275 14.292 16.9536C13.7142 17.2935 13.0684 17.5017 12.4009 17.5637C11.7334 17.6258 11.0605 17.5401 10.4299 17.3125C9.79945 17.085 9.22668 16.7215 8.75269 16.2476C8.27869 15.7736 7.9146 15.2008 7.68701 14.5703C7.45947 13.9399 7.37383 13.2668 7.43579 12.5994C7.49781 11.932 7.70612 11.286 8.0459 10.7083C8.27205 10.3238 8.55389 9.97631 8.87939 9.67482L5.76733 6.56276H3.00024C2.619 6.56276 2.25323 6.71432 1.98364 6.98391C1.71419 7.25342 1.56256 7.61867 1.5625 7.99977V19ZM23.5623 17.3404C23.5621 17.569 23.4239 17.7749 23.2122 17.8611C23.0003 17.9473 22.7574 17.8965 22.5977 17.7329L8.59741 3.39284C8.4395 3.231 8.39402 2.99042 8.48169 2.782C8.56954 2.57347 8.77396 2.43776 9.00024 2.43776H15.0002L15.0698 2.44216C15.2308 2.4623 15.377 2.55133 15.4683 2.68825L17.3008 5.43776H21.0002C21.6798 5.43783 22.3318 5.70726 22.8123 6.18776C23.2928 6.66827 23.5622 7.32025 23.5623 7.99977V17.3404Z"/>
  </g>
  <defs>
    <clipPath id="a">
      <path d="M0 0H24V24H0z"/>
    </clipPath>
  </defs>
</svg>