<svg xmlns="http://www.w3.org/2000/svg" width="24" height="24" fill="currentcolor" class="icon-camera-off" viewBox="0 0 24 24">
  <g clip-path="url(#a)">
    <path d="M0.602295 0.602283C0.821965 0.382613 1.17804 0.382613 1.39771 0.602283L15.6763 14.8808C15.68 14.8845 15.6837 14.8881 15.6873 14.8918L23.3975 22.602C23.6171 22.8217 23.6171 23.1778 23.3975 23.3974C23.1778 23.6171 22.8217 23.6171 22.6021 23.3974L20.7673 21.5627H3.00024C2.32068 21.5627 1.66878 21.2925 1.18823 20.812C0.707671 20.3314 0.4375 19.6796 0.4375 19V7.99974C0.437565 7.32021 0.707728 6.66824 1.18823 6.18773C1.66877 5.70732 2.32074 5.43773 3.00024 5.43773H4.64233L0.602295 1.39769C0.382625 1.17802 0.382625 0.821953 0.602295 0.602283ZM22.4373 7.99974C22.4372 7.61858 22.2856 7.2534 22.0161 6.98388C21.7466 6.71435 21.3814 6.5628 21.0002 6.56273H16.9998C16.8118 6.56265 16.636 6.46863 16.5317 6.31224L14.6992 3.56273H10.3354L22.4373 15.9582V7.99974ZM9.67554 10.4709C9.41677 10.7046 9.19332 10.976 9.01562 11.2781C8.75956 11.7134 8.60313 12.2004 8.5564 12.7034C8.50971 13.2061 8.57397 13.713 8.74536 14.188C8.91683 14.6631 9.19095 15.095 9.5481 15.4521C9.90511 15.8091 10.3367 16.0827 10.8115 16.2541C11.2866 16.4256 11.794 16.4906 12.2969 16.4438C12.7998 16.3971 13.2861 16.2399 13.7214 15.9839C14.0236 15.8062 14.2948 15.5828 14.5286 15.324L9.67554 10.4709ZM1.5625 19C1.5625 19.3812 1.71406 19.747 1.98364 20.0166C2.25321 20.2861 2.61905 20.4377 3.00024 20.4377H19.6423L15.3247 16.1201C15.0232 16.4456 14.6764 16.7275 14.292 16.9536C13.7142 17.2935 13.0684 17.5017 12.4009 17.5637C11.7334 17.6257 11.0605 17.5401 10.4299 17.3125C9.79945 17.0849 9.22668 16.7215 8.75269 16.2475C8.27869 15.7735 7.9146 15.2008 7.68701 14.5703C7.45947 13.9398 7.37383 13.2667 7.43579 12.5994C7.49781 11.932 7.70612 11.286 8.0459 10.7082C8.27205 10.3237 8.55389 9.97628 8.87939 9.67479L5.76733 6.56273H3.00024C2.619 6.56273 2.25323 6.71429 1.98364 6.98388C1.71419 7.25339 1.56256 7.61864 1.5625 7.99974V19ZM23.5623 17.3403C23.5621 17.5689 23.4239 17.7748 23.2122 17.8611C23.0003 17.9473 22.7574 17.8965 22.5977 17.7329L8.59741 3.39281C8.4395 3.23097 8.39402 2.99039 8.48169 2.78197C8.56954 2.57344 8.77396 2.43773 9.00024 2.43773H15.0002L15.0698 2.44213C15.2308 2.46227 15.377 2.5513 15.4683 2.68822L17.3008 5.43773H21.0002C21.6798 5.4378 22.3318 5.70723 22.8123 6.18773C23.2928 6.66824 23.5622 7.32022 23.5623 7.99974V17.3403Z"/>
  </g>
  <defs>
    <clipPath id="a">
      <path d="M0 0H24V24H0z"/>
    </clipPath>
  </defs>
</svg>