<svg xmlns="http://www.w3.org/2000/svg" width="24" height="24" fill="currentcolor" class="icon-camera" viewBox="0 0 24 24">
  <path d="M22.4373 8.00024C22.4373 7.619 22.2857 7.25323 22.0161 6.98364C21.7466 6.71419 21.3813 6.56256 21.0002 6.5625H16.9998C16.8118 6.56242 16.636 6.46843 16.5317 6.31201L14.6992 3.5625H9.30127L7.46802 6.31201C7.36369 6.4685 7.18807 6.5625 7 6.5625H3.00024C2.619 6.5625 2.25323 6.71406 1.98364 6.98364C1.71406 7.25323 1.5625 7.619 1.5625 8.00024V18.9998C1.5625 19.381 1.71406 19.7468 1.98364 20.0164C2.25323 20.2859 2.619 20.4375 3.00024 20.4375H21.0002C21.3813 20.4374 21.7466 20.2858 22.0161 20.0164C22.2857 19.7468 22.4373 19.381 22.4373 18.9998V8.00024ZM15.4375 12.9998C15.4374 11.1015 13.8985 9.56263 12.0002 9.5625C10.1018 9.5625 8.56239 11.1014 8.56226 12.9998C8.56226 14.8982 10.1018 16.4377 12.0002 16.4377C13.8986 16.4376 15.4375 14.8982 15.4375 12.9998ZM16.5625 12.9998C16.5625 15.5195 14.5199 17.5626 12.0002 17.5627C9.48044 17.5627 7.43726 15.5196 7.43726 12.9998C7.43739 10.4801 9.48053 8.4375 12.0002 8.4375C14.5198 8.43763 16.5624 10.4802 16.5625 12.9998ZM23.5623 18.9998C23.5623 19.6793 23.2927 20.3312 22.8123 20.8118C22.3318 21.2923 21.6798 21.5624 21.0002 21.5625H3.00024C2.32063 21.5625 1.66879 21.2923 1.18823 20.8118C0.707671 20.3312 0.4375 19.6794 0.4375 18.9998V8.00024C0.4375 7.32063 0.70767 6.66879 1.18823 6.18823C1.66879 5.70767 2.32063 5.4375 3.00024 5.4375H6.69897L8.53223 2.68799L8.57397 2.63232C8.68006 2.50938 8.83559 2.4375 9.00024 2.4375H15.0002L15.0698 2.44189C15.2309 2.46203 15.377 2.55106 15.4683 2.68799L17.3008 5.4375H21.0002C21.6798 5.43756 22.3318 5.70773 22.8123 6.18823C23.2927 6.66877 23.5623 7.32074 23.5623 8.00024V18.9998Z"/>
</svg>