<svg xmlns="http://www.w3.org/2000/svg" width="24" height="24" fill="currentcolor" class="icon-cast" viewBox="0 0 24 24">
  <path d="M2.01026 19.4373C2.32072 19.4374 2.57263 19.6893 2.57276 19.9998C2.57276 20.3103 2.3208 20.5621 2.01026 20.5623H2.00001C1.68935 20.5623 1.43751 20.3104 1.43751 19.9998C1.43764 19.6892 1.68943 19.4373 2.00001 19.4373H2.01026ZM1.44849 15.9875C1.51055 15.6833 1.80779 15.487 2.11207 15.5488C3.181 15.7668 4.16266 16.2943 4.93409 17.0657C5.70554 17.8371 6.23292 18.8187 6.45094 19.8877C6.51298 20.1921 6.31659 20.4892 6.01221 20.5513C5.70793 20.6132 5.41075 20.4168 5.34864 20.1125C5.17472 19.2598 4.75411 18.4765 4.13868 17.8611C3.52335 17.2458 2.74056 16.8251 1.88795 16.6511C1.58356 16.589 1.38643 16.2919 1.44849 15.9875ZM2.06226 11.4912C4.21994 11.7312 6.23198 12.6983 7.7671 14.2334C9.30203 15.7684 10.2693 17.78 10.5093 19.9375C10.5436 20.2463 10.3207 20.525 10.012 20.5593C9.70331 20.5935 9.42521 20.3707 9.39088 20.062C9.17911 18.1583 8.32604 16.3833 6.97169 15.0288C5.61715 13.6743 3.84162 12.8206 1.93775 12.6089C1.62904 12.5745 1.40683 12.2965 1.44117 11.9878C1.47554 11.6791 1.75352 11.4569 2.06226 11.4912ZM21.4378 18.0002V6.00024C21.4378 5.61905 21.2861 5.25321 21.0166 4.98364C20.7807 4.74777 20.4712 4.60251 20.1421 4.56982L20 4.5625H4.00025C3.619 4.5625 3.25323 4.71406 2.98365 4.98364C2.71407 5.25323 2.56251 5.619 2.56251 6.00024V7.99976C2.56251 8.31042 2.31067 8.56226 2.00001 8.56226C1.68935 8.56226 1.43751 8.31042 1.43751 7.99976V6.00024C1.43751 5.32063 1.70768 4.66879 2.18824 4.18823C2.6688 3.70767 3.32063 3.4375 4.00025 3.4375H20L20.1267 3.44043C20.7602 3.47177 21.3614 3.73762 21.812 4.18823C22.2925 4.66878 22.5628 5.32068 22.5628 6.00024V18.0002C22.5627 18.6798 22.2925 19.3318 21.812 19.8123C21.3315 20.2927 20.6796 20.5623 20 20.5623H14C13.6893 20.5623 13.4375 20.3104 13.4375 19.9998C13.4376 19.6892 13.6894 19.4373 14 19.4373H20C20.3813 19.4373 20.747 19.2857 21.0166 19.0161C21.286 18.7466 21.4377 18.3813 21.4378 18.0002Z"/>
</svg>