<svg xmlns="http://www.w3.org/2000/svg" width="24" height="24" fill="currentcolor" class="icon-cast" viewBox="0 0 24 24">
  <path d="M2.0102 19.4373C2.32066 19.4374 2.57257 19.6893 2.5727 19.9998C2.5727 20.3103 2.32074 20.5621 2.0102 20.5623H1.99995C1.68929 20.5623 1.43745 20.3104 1.43745 19.9998C1.43758 19.6892 1.68937 19.4373 1.99995 19.4373H2.0102ZM1.44843 15.9875C1.51049 15.6833 1.80773 15.487 2.11201 15.5488C3.18094 15.7668 4.1626 16.2943 4.93403 17.0657C5.70548 17.8371 6.23286 18.8187 6.45087 19.8877C6.51292 20.1921 6.31653 20.4892 6.01215 20.5513C5.70787 20.6132 5.41069 20.4168 5.34858 20.1125C5.17466 19.2598 4.75405 18.4765 4.13862 17.8611C3.52329 17.2458 2.7405 16.8251 1.88789 16.6511C1.5835 16.589 1.38637 16.2919 1.44843 15.9875ZM2.0622 11.4912C4.21988 11.7312 6.23192 12.6983 7.76704 14.2334C9.30197 15.7684 10.2692 17.78 10.5092 19.9375C10.5436 20.2463 10.3207 20.525 10.0119 20.5593C9.70325 20.5935 9.42515 20.3707 9.39082 20.062C9.17905 18.1583 8.32598 16.3833 6.97163 15.0288C5.61709 13.6743 3.84156 12.8206 1.93769 12.6089C1.62898 12.5745 1.40677 12.2965 1.44111 11.9878C1.47547 11.6791 1.75346 11.4569 2.0622 11.4912ZM21.4377 18.0002V6.00024C21.4377 5.61905 21.2861 5.25321 21.0165 4.98364C20.7807 4.74777 20.4711 4.60251 20.142 4.56982L19.9999 4.5625H4.00019C3.61894 4.5625 3.25317 4.71406 2.98359 4.98364C2.71401 5.25323 2.56245 5.619 2.56245 6.00024V7.99976C2.56245 8.31042 2.31061 8.56226 1.99995 8.56226C1.68929 8.56226 1.43745 8.31042 1.43745 7.99976V6.00024C1.43745 5.32063 1.70762 4.66879 2.18818 4.18823C2.66874 3.70767 3.32057 3.4375 4.00019 3.4375H19.9999L20.1267 3.44043C20.7601 3.47177 21.3613 3.73762 21.812 4.18823C22.2924 4.66878 22.5627 5.32068 22.5627 6.00024V18.0002C22.5626 18.6798 22.2925 19.3318 21.812 19.8123C21.3314 20.2927 20.6795 20.5623 19.9999 20.5623H13.9999C13.6893 20.5623 13.4374 20.3104 13.4374 19.9998C13.4376 19.6892 13.6894 19.4373 13.9999 19.4373H19.9999C20.3812 19.4373 20.747 19.2857 21.0165 19.0161C21.2859 18.7466 21.4376 18.3813 21.4377 18.0002Z"/>
</svg>