<svg xmlns="http://www.w3.org/2000/svg" width="24" height="24" fill="currentcolor" class="icon-cast" viewBox="0 0 24 24">
  <path d="M2.01069 19.4373C2.32115 19.4374 2.57306 19.6893 2.57319 19.9998C2.57319 20.3103 2.32123 20.5621 2.01069 20.5623H2.00043C1.68977 20.5623 1.43793 20.3104 1.43793 19.9998C1.43807 19.6892 1.68986 19.4373 2.00043 19.4373H2.01069ZM1.44892 15.9875C1.51098 15.6833 1.80822 15.487 2.1125 15.5488C3.18143 15.7668 4.16308 16.2943 4.93452 17.0657C5.70597 17.8371 6.23335 18.8187 6.45136 19.8877C6.51341 20.1921 6.31702 20.4892 6.01264 20.5513C5.70835 20.6132 5.41118 20.4168 5.34907 20.1125C5.17515 19.2598 4.75453 18.4765 4.13911 17.8611C3.52378 17.2458 2.74098 16.8251 1.88837 16.6511C1.58399 16.589 1.38686 16.2919 1.44892 15.9875ZM2.06269 11.4912C4.22036 11.7312 6.23241 12.6983 7.76752 14.2334C9.30246 15.7684 10.2697 17.78 10.5097 19.9375C10.5441 20.2463 10.3212 20.525 10.0124 20.5593C9.70374 20.5935 9.42563 20.3707 9.3913 20.062C9.17954 18.1583 8.32647 16.3833 6.97211 15.0288C5.61758 13.6743 3.84204 12.8206 1.93818 12.6089C1.62947 12.5745 1.40726 12.2965 1.4416 11.9878C1.47596 11.6791 1.75395 11.4569 2.06269 11.4912ZM21.4382 18.0002V6.00024C21.4382 5.61905 21.2865 5.25321 21.017 4.98364C20.7812 4.74777 20.4716 4.60251 20.1425 4.56982L20.0004 4.5625H4.00068C3.61943 4.5625 3.25366 4.71406 2.98408 4.98364C2.71449 5.25323 2.56293 5.619 2.56293 6.00024V7.99976C2.56293 8.31042 2.31109 8.56226 2.00043 8.56226C1.68977 8.56226 1.43793 8.31042 1.43793 7.99976V6.00024C1.43793 5.32063 1.70811 4.66879 2.18867 4.18823C2.66923 3.70767 3.32106 3.4375 4.00068 3.4375H20.0004L20.1271 3.44043C20.7606 3.47177 21.3618 3.73762 21.8124 4.18823C22.2929 4.66878 22.5632 5.32068 22.5632 6.00024V18.0002C22.5631 18.6798 22.293 19.3318 21.8124 19.8123C21.3319 20.2927 20.68 20.5623 20.0004 20.5623H14.0004C13.6898 20.5623 13.4379 20.3104 13.4379 19.9998C13.4381 19.6892 13.6899 19.4373 14.0004 19.4373H20.0004C20.3817 19.4373 20.7475 19.2857 21.017 19.0161C21.2864 18.7466 21.4381 18.3813 21.4382 18.0002Z"/>
</svg>