<svg xmlns="http://www.w3.org/2000/svg" width="24" height="24" fill="currentcolor" class="icon-check-circle" viewBox="0 0 24 24">
  <path d="M9.67213 1.6918C11.8938 1.18983 14.2186 1.41883 16.2991 2.34585C16.5828 2.47229 16.7104 2.80549 16.584 3.08926C16.4575 3.37278 16.1249 3.50033 15.8413 3.37417C13.9824 2.5459 11.9054 2.34052 9.92042 2.78896C7.93537 3.23746 6.14794 4.31522 4.82569 5.86221C3.50343 7.40925 2.71692 9.34297 2.58301 11.3737C2.44919 13.4043 2.9754 15.4241 4.08301 17.1312C5.19068 18.8384 6.82061 20.1416 8.7295 20.8468C10.6385 21.5521 12.7244 21.6216 14.676 21.0446C16.6276 20.4675 18.3406 19.2746 19.5591 17.6447C20.7013 16.1167 21.3518 14.281 21.4297 12.3808L21.4378 11.9999V11.08C21.4378 10.7693 21.6896 10.5175 22.0003 10.5175C22.3108 10.5176 22.5627 10.7694 22.5628 11.08V12.0006C22.5614 14.2782 21.8236 16.4943 20.46 18.3185C19.0962 20.1428 17.1789 21.4776 14.9946 22.1234C12.8105 22.7691 10.4763 22.6915 8.33985 21.9022C6.20334 21.1129 4.37864 19.6543 3.13892 17.7436C1.89921 15.8328 1.31035 13.5718 1.46021 11.299C1.61014 9.02631 2.49114 6.86263 3.97095 5.13125C5.45077 3.40001 7.45062 2.19375 9.67213 1.6918ZM21.6018 3.60269C21.8213 3.38298 22.1774 3.38262 22.3972 3.60195C22.617 3.82148 22.6174 4.17758 22.398 4.39736L12.3982 14.4074C12.2928 14.5129 12.1496 14.572 12.0005 14.5722C11.8513 14.5722 11.7076 14.5136 11.6021 14.4081L8.60206 11.4081C8.38239 11.1884 8.38239 10.8316 8.60206 10.612C8.82163 10.3924 9.17779 10.3926 9.39747 10.612L11.9998 13.2143L21.6018 3.60269Z"/>
</svg>