<svg xmlns="http://www.w3.org/2000/svg" width="24" height="24" fill="currentcolor" class="icon-check-circle" viewBox="0 0 24 24">
  <path d="M9.67231 1.6918C11.894 1.18983 14.2187 1.41883 16.2993 2.34585C16.583 2.47229 16.7106 2.80549 16.5842 3.08926C16.4577 3.37278 16.1251 3.50033 15.8415 3.37417C13.9826 2.5459 11.9056 2.34052 9.9206 2.78896C7.93556 3.23746 6.14813 4.31522 4.82587 5.86221C3.50361 7.40925 2.7171 9.34297 2.5832 11.3737C2.44937 13.4043 2.97559 15.4241 4.0832 17.1312C5.19087 18.8384 6.82079 20.1416 8.72968 20.8468C10.6387 21.5521 12.7246 21.6216 14.6762 21.0446C16.6278 20.4675 18.3408 19.2746 19.5593 17.6447C20.7014 16.1167 21.352 14.281 21.4299 12.3808L21.4379 11.9999V11.08C21.438 10.7693 21.6898 10.5175 22.0004 10.5175C22.311 10.5176 22.5629 10.7694 22.5629 11.08V12.0006C22.5616 14.2782 21.8238 16.4943 20.4602 18.3185C19.0964 20.1428 17.1791 21.4776 14.9948 22.1234C12.8107 22.7691 10.4765 22.6915 8.34003 21.9022C6.20352 21.1129 4.37882 19.6543 3.13911 17.7436C1.89939 15.8328 1.31053 13.5718 1.4604 11.299C1.61032 9.02631 2.49132 6.86263 3.97114 5.13125C5.45095 3.40001 7.4508 2.19375 9.67231 1.6918ZM21.602 3.60269C21.8215 3.38298 22.1776 3.38262 22.3974 3.60195C22.6172 3.82148 22.6176 4.17758 22.3981 4.39736L12.3984 14.4074C12.293 14.5129 12.1498 14.572 12.0007 14.5722C11.8515 14.5722 11.7078 14.5136 11.6022 14.4081L8.60224 11.4081C8.38257 11.1884 8.38257 10.8316 8.60224 10.612C8.82182 10.3924 9.17797 10.3926 9.39765 10.612L11.9999 13.2143L21.602 3.60269Z"/>
</svg>