<svg xmlns="http://www.w3.org/2000/svg" width="24" height="24" fill="currentcolor" class="icon-check-circle" viewBox="0 0 24 24">
  <path d="M9.67231 1.69177C11.894 1.1898 14.2187 1.4188 16.2993 2.34582C16.583 2.47226 16.7106 2.80546 16.5842 3.08923C16.4577 3.37275 16.1251 3.5003 15.8415 3.37414C13.9826 2.54587 11.9056 2.34049 9.9206 2.78893C7.93556 3.23743 6.14813 4.31519 4.82587 5.86218C3.50361 7.40922 2.7171 9.34294 2.5832 11.3737C2.44937 13.4042 2.97559 15.424 4.0832 17.1312C5.19087 18.8383 6.82079 20.1416 8.72968 20.8468C10.6387 21.5521 12.7246 21.6216 14.6762 21.0445C16.6278 20.4675 18.3408 19.2746 19.5593 17.6446C20.7014 16.1166 21.352 14.2809 21.4299 12.3807L21.4379 11.9999V11.0799C21.438 10.7693 21.6898 10.5174 22.0004 10.5174C22.311 10.5176 22.5629 10.7694 22.5629 11.0799V12.0006C22.5616 14.2782 21.8238 16.4943 20.4602 18.3185C19.0964 20.1428 17.1791 21.4776 14.9948 22.1234C12.8107 22.7691 10.4765 22.6914 8.34003 21.9022C6.20352 21.1129 4.37882 19.6542 3.13911 17.7435C1.89939 15.8327 1.31053 13.5717 1.4604 11.2989C1.61032 9.02628 2.49132 6.8626 3.97114 5.13122C5.45095 3.39998 7.4508 2.19372 9.67231 1.69177ZM21.602 3.60265C21.8215 3.38295 22.1776 3.38259 22.3974 3.60192C22.6172 3.82145 22.6176 4.17755 22.3981 4.39733L12.3984 14.4073C12.293 14.5128 12.1498 14.572 12.0007 14.5721C11.8515 14.5722 11.7078 14.5136 11.6022 14.4081L8.60224 11.4081C8.38257 11.1884 8.38257 10.8316 8.60224 10.6119C8.82182 10.3924 9.17797 10.3926 9.39765 10.6119L11.9999 13.2142L21.602 3.60265Z"/>
</svg>