<svg xmlns="http://www.w3.org/2000/svg" width="24" height="24" fill="currentcolor" class="icon-check-square" viewBox="0 0 24 24">
  <path d="M2.4375 18.9998V5.00024C2.4375 4.32063 2.70767 3.66879 3.18823 3.18823C3.66879 2.70767 4.32063 2.4375 5.00024 2.4375H15.9998C16.3104 2.4375 16.5623 2.68934 16.5623 3C16.5623 3.31066 16.3104 3.5625 15.9998 3.5625H5.00024C4.619 3.5625 4.25323 3.71406 3.98364 3.98364C3.71406 4.25323 3.5625 4.619 3.5625 5.00024V18.9998C3.5625 19.381 3.71406 19.7468 3.98364 20.0164C4.25323 20.2859 4.619 20.4375 5.00024 20.4375H18.9998C19.381 20.4375 19.7468 20.2859 20.0164 20.0164C20.2859 19.7468 20.4375 19.381 20.4375 18.9998V12C20.4375 11.6893 20.6893 11.4375 21 11.4375C21.3107 11.4375 21.5625 11.6893 21.5625 12V18.9998C21.5625 19.6794 21.2923 20.3312 20.8118 20.8118C20.3312 21.2923 19.6794 21.5625 18.9998 21.5625H5.00024C4.32063 21.5625 3.66879 21.2923 3.18823 20.8118C2.70767 20.3312 2.4375 19.6794 2.4375 18.9998ZM21.6021 3.60205C21.8216 3.38246 22.1778 3.38263 22.3975 3.60205C22.6171 3.82172 22.6171 4.17779 22.3975 4.39746L12.3977 14.3979C12.1781 14.6175 11.8219 14.6175 11.6023 14.3979L8.6023 11.3979C8.38267 11.1783 8.38275 10.8222 8.6023 10.6025C8.82197 10.3829 9.17804 10.3829 9.39771 10.6025L11.9993 13.2041L21.6021 3.60205Z"/>
</svg>