<svg xmlns="http://www.w3.org/2000/svg" width="24" height="24" fill="currentcolor" class="icon-chevrons-up" viewBox="0 0 24 24">
  <path d="M12.0003 12.4373C12.1494 12.4373 12.2925 12.4966 12.398 12.6021L17.3975 17.6023C17.6171 17.822 17.6171 18.178 17.3975 18.3977C17.1778 18.6173 16.8217 18.6173 16.6021 18.3977L11.9995 13.7952L7.39772 18.3977C7.17805 18.6174 6.82198 18.6174 6.60231 18.3977C6.38264 18.178 6.38264 17.822 6.60231 17.6023L11.6026 12.6021L11.6883 12.5317C11.7799 12.4707 11.8885 12.4373 12.0003 12.4373ZM12.0003 5.4375C12.1494 5.43756 12.2925 5.49686 12.398 5.60229L17.3975 10.6025C17.6171 10.8222 17.6171 11.1783 17.3975 11.3979C17.1778 11.6174 16.8217 11.6175 16.6021 11.3979L11.9995 6.79541L7.39772 11.3979C7.17808 11.6175 6.82195 11.6175 6.60231 11.3979C6.38268 11.1783 6.38277 10.8222 6.60231 10.6025L11.6026 5.60229L11.6883 5.53198C11.7799 5.47091 11.8885 5.4375 12.0003 5.4375Z"/>
</svg>