<svg xmlns="http://www.w3.org/2000/svg" width="24" height="24" fill="currentcolor" class="icon-chevrons-left" viewBox="0 0 24 24">
  <path d="M10.6025 6.60228C10.8222 6.38273 11.1783 6.38265 11.3979 6.60228C11.6175 6.82192 11.6175 7.17805 11.3979 7.39769L6.79541 11.9995L11.3979 16.602C11.6175 16.8216 11.6174 17.1778 11.3979 17.3974C11.1783 17.6171 10.8222 17.6171 10.6025 17.3974L5.60229 12.3979C5.49686 12.2925 5.43756 12.1493 5.4375 12.0002C5.4375 11.8511 5.49688 11.708 5.60229 11.6025L10.6025 6.60228ZM17.6023 6.60228C17.822 6.38261 18.178 6.38261 18.3977 6.60228C18.6174 6.82195 18.6174 7.17802 18.3977 7.39769L13.7952 11.9995L18.3977 16.602C18.6173 16.8217 18.6173 17.1778 18.3977 17.3974C18.178 17.6171 17.822 17.6171 17.6023 17.3974L12.6021 12.3979C12.4966 12.2925 12.4373 12.1493 12.4373 12.0002C12.4373 11.8512 12.4967 11.708 12.6021 11.6025L17.6023 6.60228Z"/>
</svg>