<svg xmlns="http://www.w3.org/2000/svg" width="24" height="24" fill="currentcolor" class="icon-chevrons-down" viewBox="0 0 24 24">
  <path d="M16.602 12.602C16.8216 12.3825 17.1777 12.3826 17.3974 12.602C17.6171 12.8217 17.6171 13.1778 17.3974 13.3974L12.3979 18.3977C12.2925 18.5031 12.1493 18.5624 12.0002 18.5625C11.8511 18.5625 11.708 18.5031 11.6025 18.3977L6.60225 13.3974C6.3827 13.1778 6.38262 12.8217 6.60225 12.602C6.82189 12.3825 7.17802 12.3825 7.39766 12.602L11.9995 17.2038L16.602 12.602ZM16.602 5.60228C16.8216 5.38265 17.1777 5.38273 17.3974 5.60228C17.6171 5.82195 17.6171 6.17802 17.3974 6.39769L12.3979 11.3979C12.2925 11.5034 12.1493 11.5627 12.0002 11.5627C11.8511 11.5627 11.708 11.5033 11.6025 11.3979L6.60225 6.39769C6.38258 6.17802 6.38258 5.82195 6.60225 5.60228C6.82192 5.38261 7.17799 5.38261 7.39766 5.60228L11.9995 10.2041L16.602 5.60228Z"/>
</svg>