<svg xmlns="http://www.w3.org/2000/svg" width="24" height="24" fill="currentcolor" class="icon-chevron-up-down" viewBox="0 0 24 24">
  <path d="M11.6447 20.689C11.8657 20.8692 12.1917 20.8561 12.3977 20.6502L18.3977 14.6502C18.6173 14.4305 18.6173 14.0744 18.3977 13.8547 18.178 13.6351 17.8219 13.6351 17.6023 13.8547L12 19.457 6.39766 13.8547C6.17799 13.6351 5.82192 13.6351 5.60225 13.8547 5.38258 14.0744 5.38258 14.4305 5.60225 14.6502L11.6023 20.6502 11.6447 20.689ZM11.6447 3.31607C11.8657 3.13584 12.1917 3.14893 12.3977 3.35489L18.3977 9.35489C18.6173 9.57456 18.6173 9.93063 18.3977 10.1503 18.178 10.37 17.8219 10.37 17.6023 10.1503L12 4.548 6.39766 10.1503C6.17799 10.37 5.82192 10.37 5.60225 10.1503 5.38258 9.93063 5.38258 9.57456 5.60225 9.35489L11.6023 3.35489 11.6447 3.31607Z"/>
</svg>