<svg xmlns="http://www.w3.org/2000/svg" width="24" height="24" fill="currentcolor" class="icon-chevrons-right" viewBox="0 0 24 24">
  <path d="M5.60225 6.60228C5.82192 6.38261 6.17799 6.38261 6.39766 6.60228L11.3979 11.6025C11.5032 11.708 11.5627 11.8512 11.5627 12.0002C11.5626 12.1493 11.5033 12.2925 11.3979 12.3979L6.39766 17.3974C6.17799 17.6171 5.82192 17.6171 5.60225 17.3974C5.3827 17.1778 5.38262 16.8217 5.60225 16.602L10.2041 11.9995L5.60225 7.39769C5.38258 7.17802 5.38258 6.82195 5.60225 6.60228ZM12.602 6.60228C12.8216 6.38265 13.1777 6.38274 13.3974 6.60228L18.3977 11.6025C18.5031 11.708 18.5625 11.8511 18.5625 12.0002C18.5624 12.1493 18.5031 12.2925 18.3977 12.3979L13.3974 17.3974C13.1777 17.6171 12.8217 17.6171 12.602 17.3974C12.3826 17.1778 12.3824 16.8216 12.602 16.602L17.2038 11.9995L12.602 7.39769C12.3825 7.17805 12.3825 6.82192 12.602 6.60228Z"/>
</svg>