<svg xmlns="http://www.w3.org/2000/svg" width="24" height="24" fill="currentcolor" class="icon-chevrons-right" viewBox="0 0 24 24">
  <path d="M5.60225 6.60231C5.82192 6.38264 6.17799 6.38264 6.39766 6.60231L11.3979 11.6026C11.5032 11.708 11.5627 11.8512 11.5627 12.0003C11.5626 12.1494 11.5033 12.2925 11.3979 12.398L6.39766 17.3975C6.17799 17.6171 5.82192 17.6171 5.60225 17.3975C5.3827 17.1778 5.38262 16.8217 5.60225 16.6021L10.2041 11.9995L5.60225 7.39772C5.38258 7.17805 5.38258 6.82198 5.60225 6.60231ZM12.602 6.60231C12.8216 6.38268 13.1777 6.38277 13.3974 6.60231L18.3977 11.6026C18.5031 11.708 18.5625 11.8511 18.5625 12.0003C18.5624 12.1494 18.5031 12.2925 18.3977 12.398L13.3974 17.3975C13.1777 17.6171 12.8217 17.6171 12.602 17.3975C12.3826 17.1778 12.3824 16.8217 12.602 16.6021L17.2038 11.9995L12.602 7.39772C12.3825 7.17808 12.3825 6.82195 12.602 6.60231Z"/>
</svg>