<svg xmlns="http://www.w3.org/2000/svg" width="24" height="24" fill="currentcolor" class="icon-chevrons-right" viewBox="0 0 24 24">
  <path d="M5.60231 6.60228C5.82198 6.38261 6.17805 6.38261 6.39772 6.60228L11.398 11.6025C11.5033 11.708 11.5628 11.8512 11.5628 12.0002C11.5627 12.1493 11.5034 12.2925 11.398 12.3979L6.39772 17.3974C6.17805 17.6171 5.82198 17.6171 5.60231 17.3974C5.38277 17.1778 5.38268 16.8217 5.60231 16.602L10.2041 11.9995L5.60231 7.39769C5.38264 7.17802 5.38264 6.82195 5.60231 6.60228ZM12.6021 6.60228C12.8217 6.38265 13.1778 6.38274 13.3975 6.60228L18.3977 11.6025C18.5031 11.708 18.5625 11.8511 18.5625 12.0002C18.5625 12.1493 18.5032 12.2925 18.3977 12.3979L13.3975 17.3974C13.1778 17.6171 12.8217 17.6171 12.6021 17.3974C12.3826 17.1778 12.3825 16.8216 12.6021 16.602L17.2039 11.9995L12.6021 7.39769C12.3826 7.17805 12.3826 6.82192 12.6021 6.60228Z"/>
</svg>