<svg xmlns="http://www.w3.org/2000/svg" width="24" height="24" fill="currentcolor" class="icon-chevrons-up" viewBox="0 0 24 24">
  <path d="M12.0002 12.4373C12.1493 12.4373 12.2925 12.4966 12.3979 12.6021L17.3974 17.6023C17.6171 17.822 17.6171 18.178 17.3974 18.3977C17.1777 18.6173 16.8216 18.6173 16.602 18.3977L11.9995 13.7952L7.39766 18.3977C7.17799 18.6174 6.82192 18.6174 6.60225 18.3977C6.38258 18.178 6.38258 17.822 6.60225 17.6023L11.6025 12.6021L11.6882 12.5317C11.7799 12.4707 11.8885 12.4373 12.0002 12.4373ZM12.0002 5.4375C12.1493 5.43756 12.2925 5.49686 12.3979 5.60229L17.3974 10.6025C17.6171 10.8222 17.6171 11.1783 17.3974 11.3979C17.1777 11.6174 16.8216 11.6175 16.602 11.3979L11.9995 6.79541L7.39766 11.3979C7.17802 11.6175 6.82189 11.6175 6.60225 11.3979C6.38262 11.1783 6.3827 10.8222 6.60225 10.6025L11.6025 5.60229L11.6882 5.53198C11.7799 5.47091 11.8884 5.4375 12.0002 5.4375Z"/>
</svg>