<svg xmlns="http://www.w3.org/2000/svg" width="24" height="24" fill="currentcolor" class="icon-chevrons-left" viewBox="0 0 24 24">
  <path d="M10.6025 6.60231C10.8222 6.38277 11.1783 6.38268 11.3979 6.60231C11.6175 6.82195 11.6175 7.17808 11.3979 7.39772L6.79541 11.9995L11.3979 16.6021C11.6175 16.8217 11.6174 17.1778 11.3979 17.3975C11.1783 17.6171 10.8222 17.6171 10.6025 17.3975L5.60229 12.398C5.49686 12.2925 5.43756 12.1494 5.4375 12.0003C5.4375 11.8511 5.49688 11.708 5.60229 11.6026L10.6025 6.60231ZM17.6023 6.60231C17.822 6.38264 18.178 6.38264 18.3977 6.60231C18.6174 6.82198 18.6174 7.17805 18.3977 7.39772L13.7952 11.9995L18.3977 16.6021C18.6173 16.8217 18.6173 17.1778 18.3977 17.3975C18.178 17.6171 17.822 17.6171 17.6023 17.3975L12.6021 12.398C12.4966 12.2925 12.4373 12.1494 12.4373 12.0003C12.4373 11.8512 12.4967 11.708 12.6021 11.6026L17.6023 6.60231Z"/>
</svg>