<svg xmlns="http://www.w3.org/2000/svg" width="24" height="24" fill="currentcolor" class="icon-chrome" viewBox="0 0 24 24">
  <path d="M15.4377 11.9998C15.4376 10.1014 13.8982 8.5625 11.9998 8.5625C10.1015 8.56263 8.56263 10.1015 8.5625 11.9998C8.5625 12.5738 8.70405 13.1149 8.95288 13.5906L9.02686 13.7188C9.03709 13.7365 9.04585 13.7547 9.05396 13.7729C9.65558 14.7705 10.7499 15.4377 11.9998 15.4377C13.221 15.4377 14.2926 14.8 14.9023 13.8403L14.9727 13.7188C14.9824 13.7019 14.993 13.6859 15.0042 13.6704C15.2798 13.1758 15.4377 12.6062 15.4377 11.9998ZM11.9998 2.5625C9.01624 2.56258 6.35731 3.94805 4.62793 6.10962L7.52319 11.1179C7.93412 9.02036 9.78186 7.43762 11.9998 7.4375H20.2615C18.653 4.53112 15.5568 2.5625 11.9998 2.5625ZM2.5625 11.9998C2.5625 16.7299 6.04248 20.6466 10.5818 21.3308L13.4727 16.3181C13.0105 16.4757 12.5152 16.5627 11.9998 16.5627C10.2484 16.5627 8.72806 15.5754 7.96338 14.1274L3.91675 7.12622C3.0572 8.54874 2.56255 10.2165 2.5625 11.9998ZM16.5627 11.9998C16.5627 12.887 16.3081 13.7147 15.8699 14.4153L11.8196 21.4348C11.8795 21.4359 11.9396 21.4377 11.9998 21.4377C17.2119 21.4377 21.4377 17.2119 21.4377 11.9998C21.4377 10.7869 21.2085 9.62764 20.7917 8.5625H14.9983C15.9563 9.39883 16.5627 10.6282 16.5627 11.9998ZM22.5627 11.9998C22.5627 17.8333 17.8333 22.5627 11.9998 22.5627C11.6089 22.5627 11.2231 22.5404 10.8433 22.499C10.8236 22.4977 10.8042 22.4958 10.7847 22.4924C5.52363 21.8897 1.4375 17.4222 1.4375 11.9998C1.43755 9.66893 2.19265 7.51452 3.47144 5.76758C3.48778 5.74078 3.50619 5.71539 3.5271 5.69141C5.4527 3.10938 8.53112 1.43758 11.9998 1.4375C16.323 1.4375 20.0389 4.03526 21.6736 7.75464C21.6815 7.77095 21.6892 7.78729 21.6956 7.80444C22.2528 9.09051 22.5627 10.5089 22.5627 11.9998Z"/>
</svg>