<svg xmlns="http://www.w3.org/2000/svg" width="24" height="24" fill="currentcolor" class="icon-clipboard" viewBox="0 0 24 24">
  <path d="M15.4375 2.99976C15.4374 2.75833 15.2417 2.56263 15.0002 2.5625H9.00024C8.7587 2.5625 8.56239 2.75824 8.56226 2.99976V5C8.56226 5.24162 8.75862 5.43726 9.00024 5.43726H15.0002C15.2418 5.43712 15.4375 5.24154 15.4375 5V2.99976ZM16.5625 5C16.5625 5.86286 15.8631 6.56212 15.0002 6.56226H9.00024C8.1373 6.56226 7.43726 5.86294 7.43726 5V4.56274H6.00024C5.619 4.56274 5.25323 4.7143 4.98364 4.98389C4.71419 5.2534 4.56256 5.61865 4.5625 5.99976V20C4.5625 20.3812 4.71406 20.747 4.98364 21.0166C5.25321 21.2861 5.61905 21.4377 6.00024 21.4377H18.0002C18.3813 21.4377 18.7466 21.286 19.0161 21.0166C19.2857 20.747 19.4373 20.3812 19.4373 20V5.99976C19.4372 5.6186 19.2856 5.25341 19.0161 4.98389C18.7466 4.71436 18.3814 4.56281 18.0002 4.56274H16.5625V5ZM16.5625 3.43774H18.0002C18.6798 3.43781 19.3318 3.70724 19.8123 4.18774C20.2928 4.66825 20.5622 5.32023 20.5623 5.99976V20C20.5623 20.6796 20.2927 21.3315 19.8123 21.812C19.3318 22.2925 18.6798 22.5627 18.0002 22.5627H6.00024C5.32068 22.5627 4.66878 22.2925 4.18823 21.812C3.70767 21.3314 3.4375 20.6796 3.4375 20V5.99976C3.43756 5.32023 3.70773 4.66825 4.18823 4.18774C4.66877 3.70733 5.32074 3.43774 6.00024 3.43774H7.43726V2.99976C7.43739 2.13692 8.13738 1.4375 9.00024 1.4375H15.0002C15.863 1.43763 16.5624 2.137 16.5625 2.99976V3.43774Z"/>
</svg>