<svg xmlns="http://www.w3.org/2000/svg" width="24" height="24" fill="currentcolor" class="icon-clock-back" viewBox="0 0 24 24">
  <path d="M12 1.125C17.7832 1.125 22.5 5.8418 22.5 11.625C22.5 17.4492 17.7832 22.125 12 22.125C8.55469 22.125 5.47852 20.4844 3.5918 17.9414C3.3457 17.6543 3.42773 17.2441 3.71484 17.0391C4.00195 16.793 4.41211 16.875 4.61719 17.1621C6.29883 19.377 8.96484 20.8125 12 20.8125C17.0449 20.8125 21.1875 16.7109 21.1875 11.625C21.1875 6.58008 17.0449 2.4375 12 2.4375C8.30859 2.4375 5.15039 4.61133 3.67383 7.6875H7.40625C7.73438 7.6875 8.0625 8.01562 8.0625 8.34375C8.0625 8.71289 7.73438 9 7.40625 9H2.15625C1.78711 9 1.5 8.71289 1.5 8.34375V3.09375C1.5 2.76562 1.78711 2.4375 2.15625 2.4375C2.48438 2.4375 2.8125 2.76562 2.8125 3.09375V6.53906C4.57617 3.33984 8.02148 1.125 12 1.125ZM12 6.375C12.3281 6.375 12.6562 6.70312 12.6562 7.03125V11.3789L15.7324 14.4551C15.9785 14.7012 15.9785 15.1523 15.7324 15.3984C15.4863 15.6445 15.0352 15.6445 14.7891 15.3984L11.5078 12.1172C11.3848 11.9941 11.3027 11.8301 11.3027 11.625V7.03125C11.3027 6.70312 11.6309 6.375 11.959 6.375H12Z"/>
</svg>