<svg xmlns="http://www.w3.org/2000/svg" width="24" height="24" fill="currentcolor" class="icon-clock" viewBox="0 0 24 24">
  <path d="M21.4377 11.9998C21.4376 6.78768 17.2119 2.5625 11.9998 2.5625C6.78776 2.56263 2.56263 6.78776 2.5625 11.9998C2.5625 17.2119 6.78768 21.4376 11.9998 21.4377C17.2119 21.4377 21.4377 17.2119 21.4377 11.9998ZM11.4373 5.99976C11.4374 5.68929 11.6893 5.43739 11.9998 5.43726C12.3103 5.43726 12.5621 5.68921 12.5623 5.99976V11.6519L16.2515 13.4968C16.5292 13.6357 16.642 13.9734 16.5034 14.2512C16.3645 14.5291 16.0262 14.6421 15.7483 14.5032L11.7485 12.5029C11.558 12.4076 11.4373 12.2128 11.4373 11.9998V5.99976ZM22.5627 11.9998C22.5627 17.8333 17.8333 22.5627 11.9998 22.5627C6.16636 22.5626 1.4375 17.8332 1.4375 11.9998C1.43763 6.16644 6.16644 1.43763 11.9998 1.4375C17.8332 1.4375 22.5626 6.16636 22.5627 11.9998Z"/>
</svg>