<svg xmlns="http://www.w3.org/2000/svg" width="24" height="24" fill="currentcolor" class="icon-close" viewBox="0 0 24 24">
  <path d="M17.6023 5.60228C17.8219 5.38261 18.178 5.38261 18.3977 5.60228C18.6173 5.82195 18.6173 6.17802 18.3977 6.39769L12.7954 12L18.3977 17.6023C18.6173 17.822 18.6173 18.178 18.3977 18.3977C18.178 18.6174 17.8219 18.6174 17.6023 18.3977L12 12.7954L6.39766 18.3977C6.17799 18.6174 5.82192 18.6174 5.60225 18.3977C5.38258 18.178 5.38258 17.822 5.60225 17.6023L11.2045 12L5.60225 6.39769C5.38258 6.17802 5.38258 5.82195 5.60225 5.60228C5.82192 5.38261 6.17799 5.38261 6.39766 5.60228L12 11.2046L17.6023 5.60228Z"/>
</svg>