<svg xmlns="http://www.w3.org/2000/svg" width="24" height="24" fill="currentcolor" class="icon-close" viewBox="0 0 24 24">
  <path d="M17.6023 5.60228C17.822 5.38261 18.178 5.38261 18.3977 5.60228C18.6174 5.82195 18.6174 6.17802 18.3977 6.39769L12.7954 12L18.3977 17.6023C18.6174 17.822 18.6174 18.178 18.3977 18.3977C18.178 18.6174 17.822 18.6174 17.6023 18.3977L12 12.7954L6.39769 18.3977C6.17802 18.6174 5.82195 18.6174 5.60228 18.3977C5.38261 18.178 5.38261 17.822 5.60228 17.6023L11.2046 12L5.60228 6.39769C5.38261 6.17802 5.38261 5.82195 5.60228 5.60228C5.82195 5.38261 6.17802 5.38261 6.39769 5.60228L12 11.2046L17.6023 5.60228Z"/>
</svg>