<svg xmlns="http://www.w3.org/2000/svg" width="24" height="24" fill="currentcolor" class="icon-cloud-off" viewBox="0 0 24 24">
  <g clip-path="url(#a)">
    <path d="M0.602319 0.602281C0.82199 0.382615 1.17806 0.382612 1.39773 0.602281L23.3975 22.602C23.6172 22.8217 23.6172 23.1778 23.3975 23.3974C23.1778 23.6171 22.8217 23.6171 22.6021 23.3974L19.5442 20.3396C19.0431 20.4851 18.524 20.5616 18.001 20.5622H9.00027V20.5615C7.0933 20.5903 5.23107 19.9828 3.70925 18.833C2.18509 17.6814 1.09013 16.0528 0.597925 14.207C0.105773 12.3613 0.245072 10.404 0.993433 8.64647C1.64501 7.11635 2.72552 5.81413 4.09744 4.89281L0.602319 1.39769C0.382649 1.17802 0.382649 0.821951 0.602319 0.602281ZM4.91116 5.70653C3.63104 6.51184 2.62344 7.68981 2.02834 9.08739C1.3783 10.614 1.2573 12.3145 1.68484 13.9177C2.1124 15.5208 3.06373 16.9348 4.38748 17.935C5.71133 18.9353 7.33173 19.4639 8.99075 19.4372H17.9995C18.2006 19.437 18.4009 19.4221 18.5994 19.3948L4.91116 5.70653ZM9.73928 3.43968C11.5075 3.59588 13.1841 4.29748 14.5359 5.44798C15.7756 6.50304 16.685 7.88818 17.1646 9.43749H18.0003C18.919 9.43655 19.8235 9.66342 20.6333 10.0974C21.4434 10.5315 22.1336 11.1596 22.6416 11.9255C23.1495 12.6913 23.4598 13.5711 23.5447 14.4861C23.6296 15.4012 23.4864 16.3234 23.128 17.1697C23.0067 17.4555 22.6764 17.5889 22.3904 17.4678C22.1046 17.3465 21.9713 17.0169 22.0923 16.7309C22.3782 16.0559 22.4925 15.3201 22.4248 14.5901C22.3571 13.8601 22.1093 13.1583 21.7041 12.5473C21.2989 11.9365 20.7484 11.4354 20.1023 11.0891C19.4562 10.7428 18.7341 10.5617 18.001 10.5625H16.7398C16.4825 10.5624 16.2582 10.3878 16.1948 10.1384C15.8153 8.64393 14.9806 7.30426 13.8064 6.30492C12.6322 5.30562 11.1763 4.69596 9.6404 4.56029C9.33101 4.5329 9.10258 4.2596 9.12991 3.95018C9.1574 3.64097 9.43003 3.41249 9.73928 3.43968Z"/>
  </g>
  <defs>
    <clipPath id="a">
      <path d="M0 0H24V24H0z"/>
    </clipPath>
  </defs>
</svg>