<svg xmlns="http://www.w3.org/2000/svg" width="24" height="24" fill="currentcolor" class="icon-cloud-snow" viewBox="0 0 24 24">
  <path d="M12.0101 21.4373C12.3207 21.4373 12.5725 21.6893 12.5726 21.9998C12.5726 22.3105 12.3208 22.5623 12.0101 22.5623H12.0006C11.6899 22.5623 11.4381 22.3105 11.4381 21.9998C11.4382 21.6893 11.69 21.4373 12.0006 21.4373H12.0101ZM8.01035 19.4378C8.32101 19.4378 8.57285 19.6896 8.57285 20.0003C8.5727 20.3108 8.32092 20.5628 8.01035 20.5628H8.0001C7.68966 20.5627 7.43775 20.3107 7.4376 20.0003C7.4376 19.6897 7.68957 19.438 8.0001 19.4378H8.01035ZM16.0106 19.4378C16.3212 19.4379 16.5731 19.6897 16.5731 20.0003C16.5729 20.3108 16.3211 20.5627 16.0106 20.5628H16.0003C15.6898 20.5628 15.438 20.3108 15.4378 20.0003C15.4378 19.6897 15.6897 19.4378 16.0003 19.4378H16.0106ZM12.0101 17.4376C12.3208 17.4376 12.5726 17.6894 12.5726 18.0001C12.5726 18.3107 12.3208 18.5626 12.0101 18.5626H12.0006C11.6899 18.5626 11.4381 18.3107 11.4381 18.0001C11.4381 17.6894 11.6899 17.4376 12.0006 17.4376H12.0101ZM8.12681 1.48175C9.47671 1.3443 10.8404 1.52945 12.1046 2.02228C13.3687 2.51509 14.4976 3.3015 15.3983 4.31623C16.2018 5.22149 16.8021 6.28605 17.1634 7.43781H18.0013C19.278 7.43938 20.515 7.88005 21.5052 8.68586C22.4955 9.49169 23.1786 10.6134 23.4396 11.8631C23.7005 13.1129 23.5237 14.4146 22.9386 15.5494C22.3534 16.6842 21.3952 17.5831 20.2257 18.0953C19.9413 18.2196 19.6099 18.0902 19.4852 17.806C19.3606 17.5215 19.4901 17.1894 19.7745 17.0648C20.7075 16.6561 21.472 15.939 21.9388 15.0338C22.4056 14.1285 22.5461 13.0901 22.338 12.0931C22.1298 11.0961 21.5854 10.201 20.7955 9.55817C20.0549 8.95546 19.1409 8.60843 18.1903 8.56647L17.9999 8.56281H16.7401C16.4838 8.56268 16.2601 8.38903 16.1959 8.14093C15.9012 6.99976 15.3391 5.94478 14.5567 5.0633C13.7744 4.18185 12.794 3.49844 11.6959 3.07038C10.5978 2.64232 9.41357 2.48151 8.24107 2.60089C7.06852 2.72029 5.94105 3.11675 4.95176 3.75739C3.96247 4.39802 3.13952 5.26463 2.55088 6.28571C1.96225 7.30679 1.62513 8.45354 1.5665 9.63068C1.50793 10.8077 1.72974 11.9818 2.21397 13.0562C2.69822 14.1307 3.43048 15.0751 4.35117 15.8109C4.59386 16.0048 4.63372 16.3584 4.4398 16.6011C4.24595 16.8437 3.8922 16.8834 3.64951 16.6898C2.5895 15.8427 1.74536 14.7554 1.18784 13.5184C0.63039 12.2814 0.374747 10.9294 0.442237 9.57428C0.509741 8.21918 0.89843 6.89941 1.57603 5.72394C2.25367 4.54846 3.20132 3.55082 4.34019 2.8133C5.47905 2.07581 6.77699 1.61924 8.12681 1.48175ZM8.01035 15.4373C8.32095 15.4373 8.57274 15.6893 8.57285 15.9998C8.57285 16.3105 8.32101 16.5623 8.01035 16.5623H8.0001C7.68957 16.5622 7.4376 16.3104 7.4376 15.9998C7.43771 15.6893 7.68963 15.4375 8.0001 15.4373H8.01035ZM16.0106 15.4373C16.3211 15.4374 16.573 15.6893 16.5731 15.9998C16.5731 16.3104 16.3212 16.5622 16.0106 16.5623H16.0003C15.6897 16.5623 15.4378 16.3105 15.4378 15.9998C15.438 15.6893 15.6898 15.4373 16.0003 15.4373H16.0106Z"/>
</svg>