<svg xmlns="http://www.w3.org/2000/svg" width="24" height="24" fill="currentcolor" class="icon-cloud-rain" viewBox="0 0 24 24">
  <g clip-path="url(#a)">
    <path d="M11.4381 23.0001V14.9998C11.4382 14.6893 11.69 14.4373 12.0006 14.4373C12.3111 14.4374 12.563 14.6893 12.5631 14.9998V23.0001C12.5631 23.3106 12.3111 23.5625 12.0006 23.5626C11.6899 23.5626 11.4381 23.3107 11.4381 23.0001ZM7.4376 20.9998V13.0003C7.4376 12.6897 7.68957 12.438 8.0001 12.4378C8.31076 12.4378 8.5626 12.6896 8.5626 13.0003V20.9998C8.5626 21.3105 8.31076 21.5623 8.0001 21.5623C7.68957 21.5622 7.4376 21.3104 7.4376 20.9998ZM15.4378 20.9998V13.0003C15.4378 12.6897 15.6897 12.4378 16.0003 12.4378C16.311 12.4378 16.5628 12.6896 16.5628 13.0003V20.9998C16.5628 21.3105 16.311 21.5623 16.0003 21.5623C15.6897 21.5623 15.4378 21.3105 15.4378 20.9998ZM8.12681 0.481754C9.47671 0.344297 10.8404 0.529451 12.1046 1.02228C13.3687 1.51509 14.4976 2.3015 15.3983 3.31623C16.2018 4.22149 16.8021 5.28605 17.1634 6.43781H18.0013C19.278 6.43938 20.515 6.88005 21.5052 7.68586C22.4955 8.49169 23.1786 9.61335 23.4396 10.8631C23.7005 12.1129 23.5237 13.4146 22.9386 14.5494C22.3534 15.6842 21.3952 16.5831 20.2257 17.0953C19.9413 17.2196 19.6099 17.0902 19.4852 16.806C19.3606 16.5215 19.4901 16.1894 19.7745 16.0648C20.7075 15.6561 21.472 14.939 21.9388 14.0338C22.4056 13.1285 22.5461 12.0901 22.338 11.0931C22.1298 10.0961 21.5854 9.20102 20.7955 8.55817C20.0549 7.95546 19.1409 7.60843 18.1903 7.56647L17.9999 7.56281H16.7401C16.4838 7.56268 16.2601 7.38903 16.1959 7.14093C15.9012 5.99976 15.3391 4.94478 14.5567 4.0633C13.7744 3.18185 12.794 2.49844 11.6959 2.07038C10.5978 1.64232 9.41357 1.48151 8.24107 1.60089C7.06852 1.72029 5.94105 2.11675 4.95176 2.75739C3.96247 3.39802 3.13952 4.26463 2.55088 5.28571C1.96225 6.30679 1.62513 7.45354 1.5665 8.63068C1.50793 9.80773 1.72974 10.9818 2.21397 12.0562C2.69822 13.1307 3.43048 14.0751 4.35117 14.8109C4.59386 15.0048 4.63372 15.3584 4.4398 15.6011C4.24595 15.8437 3.8922 15.8834 3.64951 15.6898C2.5895 14.8427 1.74536 13.7554 1.18784 12.5184C0.63039 11.2814 0.374747 9.92941 0.442237 8.57428C0.509741 7.21918 0.89843 5.89941 1.57603 4.72394C2.25367 3.54846 3.20132 2.55082 4.34019 1.8133C5.47905 1.07581 6.77699 0.619242 8.12681 0.481754Z"/>
  </g>
  <defs>
    <clipPath id="a">
      <path d="M0 0H24V24H0z"/>
    </clipPath>
  </defs>
</svg>