<svg xmlns="http://www.w3.org/2000/svg" width="24" height="24" fill="currentcolor" class="icon-cloud-lightning" viewBox="0 0 24 24">
  <g clip-path="url(#a)">
    <path d="M12.532 10.6877C12.7044 10.4294 13.0537 10.3595 13.3121 10.5317C13.5705 10.704 13.6402 11.0533 13.4681 11.3117L10.0513 16.4372H15.0003C15.2076 16.4373 15.3983 16.5518 15.4961 16.7346C15.5939 16.9173 15.5831 17.1392 15.4683 17.3117L11.4678 23.3117C11.2955 23.5702 10.9463 23.64 10.6878 23.4677C10.4295 23.2953 10.3595 22.9461 10.5318 22.6877L13.9493 17.5622H9.00029C8.79285 17.5622 8.6016 17.4485 8.50371 17.2656C8.40584 17.0827 8.41721 16.8603 8.53227 16.6877L12.532 10.6877ZM7.58965 0.553899C8.98827 0.321364 10.4229 0.44015 11.7645 0.89887C13.106 1.35765 14.313 2.14232 15.2764 3.18256C16.1402 4.11536 16.7836 5.2279 17.1631 6.43744H18.0003C19.3794 6.43628 20.7099 6.94786 21.7334 7.87226C22.757 8.79676 23.4009 10.0684 23.5396 11.4406C23.6782 12.8131 23.3016 14.1884 22.4834 15.299C21.6653 16.4096 20.4639 17.1771 19.1121 17.4516C18.8077 17.5134 18.5104 17.3165 18.4485 17.0122C18.3867 16.7077 18.5836 16.4104 18.888 16.3486C19.9664 16.1296 20.9248 15.5177 21.5774 14.6318C22.2301 13.7458 22.5303 12.649 22.4197 11.5541C22.3091 10.4593 21.7957 9.44408 20.9791 8.70649C20.2134 8.01509 19.2324 7.61337 18.2061 7.56684L18.0003 7.56244H16.7398C16.4834 7.56236 16.2597 7.38884 16.1956 7.14057C15.8876 5.94809 15.2878 4.85086 14.451 3.94721C13.6141 3.04359 12.5658 2.36159 11.4004 1.96308C10.2352 1.56466 8.98904 1.46227 7.77422 1.66425C6.55949 1.86625 5.41383 2.36632 4.44023 3.12031C3.46651 3.87448 2.69478 4.85898 2.19536 5.98481C1.69599 7.11058 1.48426 8.34281 1.57866 9.57074C1.67308 10.7987 2.07096 11.9842 2.73662 13.0205C3.40227 14.0567 4.31484 14.9113 5.39238 15.5078C5.66418 15.6582 5.76255 16.0006 5.61211 16.2724C5.46166 16.5442 5.11926 16.6426 4.84746 16.4921C3.60695 15.8055 2.55666 14.8213 1.79033 13.6284C1.02399 12.4354 0.5653 11.0709 0.456591 9.65717C0.347887 8.24342 0.592077 6.82463 1.16704 5.52851C1.742 4.23239 2.63002 3.09939 3.75102 2.23115C4.87198 1.36294 6.19099 0.78647 7.58965 0.553899Z"/>
  </g>
  <defs>
    <clipPath id="a">
      <path d="M0 0H24V24H0z"/>
    </clipPath>
  </defs>
</svg>