<svg xmlns="http://www.w3.org/2000/svg" width="24" height="24" fill="currentcolor" class="icon-cloud" viewBox="0 0 24 24">
  <path d="M22.4371 15.0002C22.4371 13.8234 21.9698 12.6947 21.1377 11.8625C20.3056 11.0304 19.1769 10.5625 18 10.5625H16.7395C16.4832 10.5623 16.2595 10.3888 16.1954 10.1406C15.8475 8.79356 15.129 7.57086 14.1211 6.61182C13.1132 5.65278 11.8561 4.99609 10.4935 4.71558C9.13073 4.43507 7.71643 4.54237 6.41167 5.02539C5.10701 5.50843 3.96363 6.34734 3.11211 7.44751C2.26062 8.54764 1.73504 9.86474 1.59453 11.2488C1.45407 12.633 1.70497 14.029 2.31816 15.2778C2.93134 16.5266 3.88224 17.5784 5.06328 18.3137C6.24436 19.049 7.60808 19.4383 8.99931 19.4373H18C19.1769 19.4372 20.3056 18.9701 21.1377 18.1379C21.9699 17.3058 22.437 16.1771 22.4371 15.0002ZM23.5621 15.0002C23.562 16.4754 22.9763 17.8902 21.9332 18.9333C20.89 19.9765 19.4752 20.5622 18 20.5623H9.00005C7.3984 20.5634 5.82827 20.1152 4.46855 19.2688C3.10891 18.4223 2.01406 17.2113 1.30815 15.7737C0.602223 14.3359 0.313687 12.7288 0.475389 11.1353C0.637145 9.54181 1.24262 8.0256 2.22295 6.75903C3.20333 5.49244 4.51922 4.52603 6.02129 3.96997C7.5234 3.4139 9.15166 3.29035 10.7205 3.61328C12.2891 3.93621 13.7358 4.6927 14.896 5.79663C15.9502 6.79968 16.7288 8.05366 17.1629 9.4375H18C19.4752 9.43753 20.89 10.0234 21.9332 11.0664C22.9763 12.1096 23.5621 13.525 23.5621 15.0002Z"/>
</svg>