<svg xmlns="http://www.w3.org/2000/svg" width="24" height="24" fill="currentcolor" class="icon-cloud-snow" viewBox="0 0 24 24">
  <path d="M12.0097 21.4373C12.3203 21.4373 12.5721 21.6892 12.5722 21.9998C12.5722 22.3105 12.3204 22.5623 12.0097 22.5623H12.0002C11.6896 22.5623 11.4377 22.3105 11.4377 21.9998C11.4378 21.6892 11.6896 21.4373 12.0002 21.4373H12.0097ZM8.00999 19.4378C8.32065 19.4378 8.57249 19.6896 8.57249 20.0003C8.57233 20.3108 8.32055 20.5628 8.00999 20.5628H7.99973C7.6893 20.5626 7.43739 20.3107 7.43723 20.0003C7.43723 19.6897 7.6892 19.4379 7.99973 19.4378H8.00999ZM16.0102 19.4378C16.3208 19.4379 16.5727 19.6897 16.5727 20.0003C16.5726 20.3107 16.3207 20.5627 16.0102 20.5628H16C15.6894 20.5628 15.4376 20.3108 15.4375 20.0003C15.4375 19.6896 15.6893 19.4378 16 19.4378H16.0102ZM12.0097 17.4375C12.3204 17.4375 12.5722 17.6894 12.5722 18C12.5722 18.3107 12.3204 18.5625 12.0097 18.5625H12.0002C11.6896 18.5625 11.4377 18.3107 11.4377 18C11.4377 17.6894 11.6896 17.4375 12.0002 17.4375H12.0097ZM8.12644 1.48172C9.47635 1.34427 10.84 1.52942 12.1042 2.02225C13.3684 2.51506 14.4972 3.30147 15.3979 4.3162C16.2014 5.22146 16.8018 6.28602 17.1631 7.43778H18.001C19.2776 7.43935 20.5146 7.88002 21.5049 8.68583C22.4951 9.49166 23.1782 10.6133 23.4392 11.8631C23.7001 13.1129 23.5233 14.4146 22.9382 15.5494C22.3531 16.6841 21.3948 17.583 20.2253 18.0952C19.9409 18.2196 19.6095 18.0902 19.4848 17.8059C19.3602 17.5214 19.4897 17.1894 19.7741 17.0647C20.7071 16.6561 21.4717 15.939 21.9385 15.0337C22.4052 14.1285 22.5458 13.09 22.3376 12.0931C22.1295 11.0961 21.5851 10.201 20.7951 9.55814C20.0545 8.95543 19.1405 8.6084 18.1899 8.56644L17.9995 8.56278H16.7397C16.4835 8.56265 16.2597 8.389 16.1955 8.1409C15.9008 6.99973 15.3387 5.94475 14.5564 5.06327C13.774 4.18182 12.7936 3.49841 11.6955 3.07035C10.5974 2.64229 9.41321 2.48148 8.2407 2.60086C7.06815 2.72026 5.94069 3.11672 4.95139 3.75736C3.9621 4.39799 3.13915 5.26459 2.55051 6.28568C1.96188 7.30676 1.62476 8.45351 1.56614 9.63065C1.50757 10.8077 1.72937 11.9818 2.2136 13.0562C2.69786 14.1307 3.43011 15.0751 4.35081 15.8108C4.59349 16.0048 4.63335 16.3584 4.43943 16.6011C4.24558 16.8437 3.89183 16.8834 3.64915 16.6897C2.58913 15.8427 1.745 14.7554 1.18748 13.5183C0.630024 12.2813 0.37438 10.9294 0.441871 9.57425C0.509375 8.21915 0.898063 6.89938 1.57566 5.72391C2.25331 4.54843 3.20096 3.55079 4.33982 2.81327C5.47869 2.07578 6.77663 1.61921 8.12644 1.48172ZM8.00999 15.4373C8.32058 15.4373 8.57238 15.6892 8.57249 15.9998C8.57249 16.3105 8.32065 16.5623 8.00999 16.5623H7.99973C7.6892 16.5621 7.43723 16.3104 7.43723 15.9998C7.43734 15.6893 7.68927 15.4374 7.99973 15.4373H8.00999ZM16.0102 15.4373C16.3207 15.4374 16.5726 15.6893 16.5727 15.9998C16.5727 16.3104 16.3208 16.5622 16.0102 16.5623H16C15.6893 16.5623 15.4375 16.3104 15.4375 15.9998C15.4376 15.6892 15.6894 15.4373 16 15.4373H16.0102Z"/>
</svg>