<svg xmlns="http://www.w3.org/2000/svg" width="24" height="24" fill="currentcolor" class="icon-cloud-rain" viewBox="0 0 24 24">
  <g clip-path="url(#a)">
    <path d="M11.4377 23V14.9998C11.4378 14.6892 11.6896 14.4373 12.0002 14.4373C12.3107 14.4374 12.5626 14.6893 12.5627 14.9998V23C12.5627 23.3106 12.3108 23.5624 12.0002 23.5625C11.6896 23.5625 11.4377 23.3107 11.4377 23ZM7.43723 20.9998V13.0003C7.43723 12.6897 7.6892 12.4379 7.99973 12.4378C8.31039 12.4378 8.56223 12.6896 8.56223 13.0003V20.9998C8.56223 21.3105 8.31039 21.5623 7.99973 21.5623C7.6892 21.5621 7.43723 21.3104 7.43723 20.9998ZM15.4375 20.9998V13.0003C15.4375 12.6896 15.6893 12.4378 16 12.4378C16.3106 12.4378 16.5625 12.6896 16.5625 13.0003V20.9998C16.5625 21.3105 16.3106 21.5623 16 21.5623C15.6893 21.5623 15.4375 21.3104 15.4375 20.9998ZM8.12644 0.481723C9.47635 0.344267 10.84 0.52942 12.1042 1.02225C13.3684 1.51506 14.4972 2.30147 15.3979 3.3162C16.2014 4.22146 16.8018 5.28602 17.1631 6.43778H18.001C19.2776 6.43935 20.5146 6.88002 21.5049 7.68583C22.4951 8.49166 23.1782 9.61332 23.4392 10.8631C23.7001 12.1129 23.5233 13.4146 22.9382 14.5494C22.3531 15.6841 21.3948 16.583 20.2253 17.0952C19.9409 17.2196 19.6095 17.0902 19.4848 16.8059C19.3602 16.5214 19.4897 16.1894 19.7741 16.0647C20.7071 15.6561 21.4717 14.939 21.9385 14.0337C22.4052 13.1285 22.5458 12.09 22.3376 11.0931C22.1295 10.0961 21.5851 9.20099 20.7951 8.55814C20.0545 7.95543 19.1405 7.6084 18.1899 7.56644L17.9995 7.56278H16.7397C16.4835 7.56265 16.2597 7.389 16.1955 7.1409C15.9008 5.99973 15.3387 4.94475 14.5564 4.06327C13.774 3.18182 12.7936 2.49841 11.6955 2.07035C10.5974 1.64229 9.41321 1.48148 8.2407 1.60086C7.06815 1.72026 5.94069 2.11672 4.95139 2.75736C3.9621 3.39799 3.13915 4.26459 2.55051 5.28568C1.96188 6.30676 1.62476 7.45351 1.56614 8.63065C1.50757 9.80769 1.72937 10.9818 2.2136 12.0562C2.69785 13.1307 3.43011 14.0751 4.35081 14.8108C4.59349 15.0048 4.63335 15.3584 4.43943 15.6011C4.24558 15.8437 3.89183 15.8834 3.64915 15.6897C2.58913 14.8427 1.745 13.7554 1.18748 12.5183C0.630024 11.2813 0.37438 9.92938 0.441871 8.57425C0.509375 7.21915 0.898063 5.89938 1.57566 4.72391C2.25331 3.54843 3.20096 2.55079 4.33982 1.81327C5.47869 1.07578 6.77663 0.619212 8.12644 0.481723Z"/>
  </g>
  <defs>
    <clipPath id="a">
      <path d="M0 0H24V24H0z"/>
    </clipPath>
  </defs>
</svg>