<svg xmlns="http://www.w3.org/2000/svg" width="24" height="24" fill="currentcolor" class="icon-cloud" viewBox="0 0 24 24">
  <path d="M22.4371 15.0002C22.4371 13.8234 21.9699 12.6947 21.1378 11.8625C20.3057 11.0304 19.177 10.5625 18.0001 10.5625H16.7396C16.4833 10.5623 16.2596 10.3888 16.1954 10.1406C15.8476 8.79356 15.1291 7.57086 14.1212 6.61182C13.1133 5.65278 11.8562 4.99609 10.4935 4.71558C9.13082 4.43507 7.71652 4.54237 6.41176 5.02539C5.1071 5.50843 3.96373 6.34734 3.1122 7.44751C2.26071 8.54764 1.73514 9.86474 1.59462 11.2488C1.45416 12.633 1.70506 14.029 2.31825 15.2778C2.93143 16.5266 3.88233 17.5784 5.06337 18.3137C6.24446 19.049 7.60817 19.4383 8.99941 19.4373H18.0001C19.177 19.4372 20.3057 18.9701 21.1378 18.1379C21.97 17.3058 22.4371 16.1771 22.4371 15.0002ZM23.5621 15.0002C23.5621 16.4754 22.9764 17.8902 21.9332 18.9333C20.8901 19.9765 19.4753 20.5622 18.0001 20.5623H9.00014C7.39849 20.5634 5.82836 20.1152 4.46864 19.2688C3.109 18.4223 2.01415 17.2113 1.30824 15.7737C0.602314 14.3359 0.313778 12.7288 0.475481 11.1353C0.637236 9.54181 1.24271 8.0256 2.22304 6.75903C3.20342 5.49244 4.51931 4.52603 6.02138 3.96997C7.52349 3.4139 9.15175 3.29035 10.7206 3.61328C12.2892 3.93621 13.7359 4.6927 14.8961 5.79663C15.9503 6.79968 16.7289 8.05366 17.163 9.4375H18.0001C19.4753 9.43753 20.8901 10.0234 21.9332 11.0664C22.9764 12.1096 23.5621 13.525 23.5621 15.0002Z"/>
</svg>