<svg xmlns="http://www.w3.org/2000/svg" width="24" height="24" fill="currentcolor" class="icon-cloud-snow" viewBox="0 0 24 24">
  <path d="M12.0096 21.4373C12.3202 21.4373 12.572 21.6892 12.5721 21.9998C12.5721 22.3105 12.3203 22.5623 12.0096 22.5623H12.0001C11.6894 22.5623 11.4376 22.3105 11.4376 21.9998C11.4377 21.6892 11.6895 21.4373 12.0001 21.4373H12.0096ZM8.00986 19.4378C8.32052 19.4378 8.57236 19.6896 8.57236 20.0003C8.57221 20.3108 8.32043 20.5628 8.00986 20.5628H7.99961C7.68917 20.5626 7.43727 20.3107 7.43711 20.0003C7.43711 19.6897 7.68908 19.4379 7.99961 19.4378H8.00986ZM16.0101 19.4378C16.3207 19.4379 16.5726 19.6897 16.5726 20.0003C16.5725 20.3107 16.3206 20.5627 16.0101 20.5628H15.9999C15.6893 20.5628 15.4375 20.3108 15.4374 20.0003C15.4374 19.6896 15.6892 19.4378 15.9999 19.4378H16.0101ZM12.0096 17.4375C12.3203 17.4375 12.5721 17.6894 12.5721 18C12.5721 18.3107 12.3203 18.5625 12.0096 18.5625H12.0001C11.6895 18.5625 11.4376 18.3107 11.4376 18C11.4376 17.6894 11.6894 17.4375 12.0001 17.4375H12.0096ZM8.12632 1.48172C9.47622 1.34427 10.8399 1.52942 12.1041 2.02225C13.3682 2.51506 14.4971 3.30147 15.3978 4.3162C16.2013 5.22146 16.8017 6.28602 17.1629 7.43778H18.0008C19.2775 7.43935 20.5145 7.88002 21.5047 8.68583C22.495 9.49166 23.1781 10.6133 23.4391 11.8631C23.7 13.1129 23.5232 14.4146 22.9381 15.5494C22.3529 16.6841 21.3947 17.583 20.2252 18.0952C19.9408 18.2196 19.6094 18.0902 19.4847 17.8059C19.3601 17.5214 19.4896 17.1894 19.774 17.0647C20.707 16.6561 21.4715 15.939 21.9383 15.0337C22.4051 14.1285 22.5456 13.09 22.3375 12.0931C22.1293 11.0961 21.5849 10.201 20.795 9.55814C20.0544 8.95543 19.1404 8.6084 18.1898 8.56644L17.9994 8.56278H16.7396C16.4833 8.56265 16.2596 8.389 16.1954 8.1409C15.9007 6.99973 15.3386 5.94475 14.5563 5.06327C13.7739 4.18182 12.7935 3.49841 11.6954 3.07035C10.5973 2.64229 9.41308 2.48148 8.24058 2.60086C7.06803 2.72026 5.94057 3.11672 4.95127 3.75736C3.96198 4.39799 3.13903 5.26459 2.55039 6.28568C1.96176 7.30676 1.62464 8.45351 1.56602 9.63065C1.50744 10.8077 1.72925 11.9818 2.21348 13.0562C2.69773 14.1307 3.42999 15.0751 4.35068 15.8108C4.59337 16.0048 4.63323 16.3584 4.43931 16.6011C4.24546 16.8437 3.89171 16.8834 3.64902 16.6897C2.58901 15.8427 1.74488 14.7554 1.18735 13.5183C0.629902 12.2813 0.374258 10.9294 0.441749 9.57425C0.509253 8.21915 0.897941 6.89938 1.57554 5.72391C2.25318 4.54843 3.20083 3.55079 4.3397 2.81327C5.47856 2.07578 6.77651 1.61921 8.12632 1.48172ZM8.00986 15.4373C8.32046 15.4373 8.57226 15.6892 8.57236 15.9998C8.57236 16.3105 8.32052 16.5623 8.00986 16.5623H7.99961C7.68908 16.5621 7.43711 16.3104 7.43711 15.9998C7.43722 15.6893 7.68914 15.4374 7.99961 15.4373H8.00986ZM16.0101 15.4373C16.3206 15.4374 16.5725 15.6893 16.5726 15.9998C16.5726 16.3104 16.3207 16.5622 16.0101 16.5623H15.9999C15.6892 16.5623 15.4374 16.3104 15.4374 15.9998C15.4375 15.6892 15.6893 15.4373 15.9999 15.4373H16.0101Z"/>
</svg>