<svg xmlns="http://www.w3.org/2000/svg" width="24" height="24" fill="currentcolor" class="icon-cloud-rain" viewBox="0 0 24 24">
  <g clip-path="url(#a)">
    <path d="M11.4376 23V14.9998C11.4377 14.6892 11.6895 14.4373 12.0001 14.4373C12.3106 14.4374 12.5625 14.6893 12.5626 14.9998V23C12.5626 23.3106 12.3106 23.5624 12.0001 23.5625C11.6895 23.5625 11.4376 23.3107 11.4376 23ZM7.43711 20.9998V13.0003C7.43711 12.6897 7.68908 12.4379 7.99961 12.4378C8.31027 12.4378 8.56211 12.6896 8.56211 13.0003V20.9998C8.56211 21.3105 8.31027 21.5623 7.99961 21.5623C7.68908 21.5621 7.43711 21.3104 7.43711 20.9998ZM15.4374 20.9998V13.0003C15.4374 12.6896 15.6892 12.4378 15.9999 12.4378C16.3105 12.4378 16.5624 12.6896 16.5624 13.0003V20.9998C16.5624 21.3105 16.3105 21.5623 15.9999 21.5623C15.6892 21.5623 15.4374 21.3104 15.4374 20.9998ZM8.12632 0.481723C9.47622 0.344267 10.8399 0.52942 12.1041 1.02225C13.3682 1.51506 14.4971 2.30147 15.3978 3.3162C16.2013 4.22146 16.8017 5.28602 17.1629 6.43778H18.0008C19.2775 6.43935 20.5145 6.88002 21.5047 7.68583C22.495 8.49166 23.1781 9.61332 23.4391 10.8631C23.7 12.1129 23.5232 13.4146 22.9381 14.5494C22.3529 15.6841 21.3947 16.583 20.2252 17.0952C19.9408 17.2196 19.6094 17.0902 19.4847 16.8059C19.3601 16.5214 19.4896 16.1894 19.774 16.0647C20.707 15.6561 21.4715 14.939 21.9383 14.0337C22.4051 13.1285 22.5456 12.09 22.3375 11.0931C22.1293 10.0961 21.5849 9.20099 20.795 8.55814C20.0544 7.95543 19.1404 7.6084 18.1898 7.56644L17.9994 7.56278H16.7396C16.4833 7.56265 16.2596 7.389 16.1954 7.1409C15.9007 5.99973 15.3386 4.94475 14.5563 4.06327C13.7739 3.18182 12.7935 2.49841 11.6954 2.07035C10.5973 1.64229 9.41308 1.48148 8.24058 1.60086C7.06803 1.72026 5.94057 2.11672 4.95127 2.75736C3.96198 3.39799 3.13903 4.26459 2.55039 5.28568C1.96176 6.30676 1.62464 7.45351 1.56602 8.63065C1.50744 9.80769 1.72925 10.9818 2.21348 12.0562C2.69773 13.1307 3.42999 14.0751 4.35068 14.8108C4.59337 15.0048 4.63323 15.3584 4.43931 15.6011C4.24546 15.8437 3.89171 15.8834 3.64902 15.6897C2.58901 14.8427 1.74488 13.7554 1.18735 12.5183C0.629902 11.2813 0.374258 9.92938 0.441749 8.57425C0.509253 7.21915 0.897941 5.89938 1.57554 4.72391C2.25318 3.54843 3.20083 2.55079 4.3397 1.81327C5.47856 1.07578 6.77651 0.619212 8.12632 0.481723Z"/>
  </g>
  <defs>
    <clipPath id="a">
      <path d="M0 0H24V24H0z"/>
    </clipPath>
  </defs>
</svg>