<svg xmlns="http://www.w3.org/2000/svg" width="24" height="24" fill="currentcolor" class="icon-cloud-off" viewBox="0 0 24 24">
  <g clip-path="url(#a)">
    <path d="M0.602502 0.602281C0.822173 0.382615 1.17824 0.382612 1.39791 0.602281L23.3977 22.602C23.6173 22.8217 23.6173 23.1778 23.3977 23.3974C23.178 23.6171 22.8219 23.6171 22.6023 23.3974L19.5444 20.3396C19.0433 20.4851 18.5242 20.5616 18.0012 20.5622H9.00045V20.5615C7.09348 20.5903 5.23126 19.9828 3.70944 18.833C2.18528 17.6814 1.09032 16.0528 0.598108 14.207C0.105956 12.3613 0.245255 10.404 0.993616 8.64647C1.64519 7.11635 2.7257 5.81413 4.09762 4.89281L0.602502 1.39769C0.382833 1.17802 0.382833 0.821951 0.602502 0.602281ZM4.91134 5.70653C3.63122 6.51184 2.62362 7.68981 2.02853 9.08739C1.37848 10.614 1.25749 12.3145 1.68502 13.9177C2.11259 15.5208 3.06392 16.9348 4.38766 17.935C5.71151 18.9353 7.33192 19.4639 8.99093 19.4372H17.9997C18.2008 19.437 18.4011 19.4221 18.5996 19.3948L4.91134 5.70653ZM9.73946 3.43968C11.5077 3.59588 13.1843 4.29748 14.5361 5.44798C15.7758 6.50304 16.6852 7.88818 17.1648 9.43749H18.0005C18.9192 9.43655 19.8237 9.66342 20.6335 10.0974C21.4436 10.5315 22.1338 11.1596 22.6418 11.9255C23.1497 12.6913 23.46 13.5711 23.5449 14.4861C23.6298 15.4012 23.4866 16.3234 23.1281 17.1697C23.0069 17.4555 22.6766 17.5889 22.3906 17.4678C22.1048 17.3465 21.9715 17.0169 22.0925 16.7309C22.3784 16.0559 22.4927 15.3201 22.425 14.5901C22.3573 13.8601 22.1095 13.1583 21.7043 12.5473C21.2991 11.9365 20.7486 11.4354 20.1025 11.0891C19.4564 10.7428 18.7342 10.5617 18.0012 10.5625H16.74C16.4827 10.5624 16.2583 10.3878 16.195 10.1384C15.8155 8.64393 14.9808 7.30426 13.8066 6.30492C12.6324 5.30562 11.1765 4.69596 9.64059 4.56029C9.33119 4.5329 9.10276 4.2596 9.13009 3.95018C9.15758 3.64097 9.43021 3.41249 9.73946 3.43968Z"/>
  </g>
  <defs>
    <clipPath id="a">
      <path d="M0 0H24V24H0z"/>
    </clipPath>
  </defs>
</svg>