<svg xmlns="http://www.w3.org/2000/svg" width="24" height="24" fill="currentcolor" class="icon-cloud-lightning" viewBox="0 0 24 24">
  <g clip-path="url(#a)">
    <path d="M12.5323 10.6877C12.7046 10.4294 13.0539 10.3595 13.3123 10.5317C13.5707 10.704 13.6404 11.0533 13.4683 11.3117L10.0516 16.4372H15.0005C15.2079 16.4373 15.3985 16.5518 15.4964 16.7346C15.5942 16.9173 15.5834 17.1392 15.4686 17.3117L11.4681 23.3117C11.2957 23.5702 10.9465 23.64 10.688 23.4677C10.4298 23.2953 10.3598 22.9461 10.532 22.6877L13.9495 17.5622H9.00054C8.79309 17.5622 8.60184 17.4485 8.50395 17.2656C8.40608 17.0827 8.41745 16.8603 8.53252 16.6877L12.5323 10.6877ZM7.58989 0.553899C8.98851 0.321364 10.4231 0.44015 11.7647 0.89887C13.1063 1.35765 14.3133 2.14232 15.2767 3.18256C16.1405 4.11536 16.7839 5.2279 17.1634 6.43744H18.0005C19.3797 6.43628 20.7102 6.94786 21.7337 7.87226C22.7572 8.79676 23.4012 10.0684 23.5398 11.4406C23.6785 12.8131 23.3018 14.1884 22.4837 15.299C21.6656 16.4096 20.4642 17.1771 19.1124 17.4516C18.808 17.5134 18.5107 17.3165 18.4488 17.0122C18.387 16.7077 18.5838 16.4104 18.8882 16.3486C19.9666 16.1296 20.925 15.5177 21.5777 14.6318C22.2303 13.7458 22.5305 12.649 22.42 11.5541C22.3094 10.4593 21.796 9.44408 20.9793 8.70649C20.2136 8.01509 19.2327 7.61337 18.2063 7.56684L18.0005 7.56244H16.74C16.4836 7.56236 16.26 7.38884 16.1958 7.14057C15.8878 5.94809 15.2881 4.85086 14.4512 3.94721C13.6144 3.04359 12.566 2.36159 11.4007 1.96308C10.2354 1.56466 8.98928 1.46227 7.77446 1.66425C6.55973 1.86625 5.41407 2.36632 4.44048 3.12031C3.46676 3.87448 2.69503 4.85898 2.19561 5.98481C1.69623 7.11058 1.48451 8.34281 1.57891 9.57074C1.67333 10.7987 2.0712 11.9842 2.73686 13.0205C3.40252 14.0567 4.31508 14.9113 5.39263 15.5078C5.66443 15.6582 5.7628 16.0006 5.61235 16.2724C5.46191 16.5442 5.1195 16.6426 4.8477 16.4921C3.6072 15.8055 2.55691 14.8213 1.79058 13.6284C1.02423 12.4354 0.565544 11.0709 0.456836 9.65717C0.348132 8.24342 0.592321 6.82463 1.16728 5.52851C1.74225 4.23239 2.63027 3.09939 3.75127 2.23115C4.87223 1.36294 6.19123 0.78647 7.58989 0.553899Z"/>
  </g>
  <defs>
    <clipPath id="a">
      <path d="M0 0H24V24H0z"/>
    </clipPath>
  </defs>
</svg>