<svg xmlns="http://www.w3.org/2000/svg" width="24" height="24" fill="currentcolor" class="icon-cloud-off" viewBox="0 0 24 24">
  <g clip-path="url(#a)">
    <path d="M0.602014 0.602311C0.821684 0.382646 1.17776 0.382643 1.39742 0.602311L23.3972 22.6021C23.6168 22.8217 23.6168 23.1778 23.3972 23.3975C23.1775 23.6171 22.8214 23.6171 22.6018 23.3975L19.5439 20.3396C19.0428 20.4851 18.5237 20.5616 18.0007 20.5623H8.99996V20.5615C7.093 20.5903 5.23077 19.9828 3.70895 18.833C2.18479 17.6815 1.08983 16.0528 0.59762 14.207C0.105468 12.3613 0.244766 10.404 0.993127 8.6465C1.6447 7.11638 2.72521 5.81416 4.09713 4.89284L0.602014 1.39772C0.382344 1.17805 0.382344 0.821981 0.602014 0.602311ZM4.91085 5.70656C3.63074 6.51187 2.62313 7.68984 2.02804 9.08742C1.378 10.6141 1.257 12.3145 1.68453 13.9177C2.1121 15.5208 3.06343 16.9349 4.38717 17.9351C5.71102 18.9353 7.33143 19.464 8.99044 19.4373H17.9992C18.2003 19.437 18.4006 19.4221 18.5991 19.3948L4.91085 5.70656ZM9.73898 3.43971C11.5072 3.59591 13.1838 4.29751 14.5356 5.44801C15.7753 6.50307 16.6847 7.88821 17.1643 9.43752H18C18.9187 9.43658 19.8232 9.66345 20.633 10.0974C21.4431 10.5316 22.1333 11.1597 22.6413 11.9256C23.1492 12.6914 23.4595 13.5711 23.5444 14.4861C23.6293 15.4012 23.4861 16.3234 23.1276 17.1697C23.0064 17.4556 22.6761 17.5889 22.3901 17.4678C22.1043 17.3466 21.971 17.0169 22.092 16.731C22.3779 16.0559 22.4922 15.3201 22.4245 14.5901C22.3568 13.8602 22.109 13.1583 21.7038 12.5474C21.2986 11.9365 20.7481 11.4354 20.102 11.0891C19.4559 10.7429 18.7338 10.5617 18.0007 10.5625H16.7395C16.4822 10.5624 16.2579 10.3878 16.1945 10.1384C15.815 8.64396 14.9803 7.30429 13.8061 6.30495C12.6319 5.30565 11.176 4.69599 9.6401 4.56032C9.3307 4.53293 9.10227 4.25963 9.1296 3.95021C9.15709 3.641 9.42972 3.41252 9.73898 3.43971Z"/>
  </g>
  <defs>
    <clipPath id="a">
      <path d="M0 0H24V24H0z"/>
    </clipPath>
  </defs>
</svg>