<svg xmlns="http://www.w3.org/2000/svg" width="24" height="24" fill="currentcolor" class="icon-code" viewBox="0 0 24 24">
  <path d="M7.60231 5.60228C7.82198 5.38261 8.17805 5.38261 8.39772 5.60228C8.61739 5.82195 8.61739 6.17802 8.39772 6.39769L2.79543 12L8.39772 17.6023C8.61739 17.822 8.61739 18.178 8.39772 18.3977C8.17805 18.6174 7.82198 18.6174 7.60231 18.3977L1.60231 12.3977C1.38264 12.178 1.38264 11.822 1.60231 11.6023L7.60231 5.60228ZM15.6026 5.60228C15.8222 5.38273 16.1783 5.38265 16.398 5.60228L22.398 11.6023C22.6175 11.8219 22.6175 12.1781 22.398 12.3977L16.398 18.3977C16.1783 18.6173 15.8222 18.6172 15.6026 18.3977C15.3829 18.178 15.3829 17.822 15.6026 17.6023L21.2049 12L15.6026 6.39769C15.3829 6.17802 15.3829 5.82195 15.6026 5.60228Z"/>
</svg>