<svg xmlns="http://www.w3.org/2000/svg" width="24" height="24" fill="currentcolor" class="icon-code" viewBox="0 0 24 24">
  <path d="M7.60225 5.60231C7.82192 5.38264 8.17799 5.38264 8.39766 5.60231C8.61733 5.82198 8.61733 6.17805 8.39766 6.39772L2.79537 12L8.39766 17.6023C8.61733 17.822 8.61733 18.1781 8.39766 18.3977C8.17799 18.6174 7.82192 18.6174 7.60225 18.3977L1.60225 12.3977C1.38258 12.1781 1.38258 11.822 1.60225 11.6023L7.60225 5.60231ZM15.6025 5.60231C15.8222 5.38277 16.1783 5.38268 16.3979 5.60231L22.3979 11.6023C22.6174 11.822 22.6174 12.1781 22.3979 12.3977L16.3979 18.3977C16.1783 18.6174 15.8222 18.6173 15.6025 18.3977C15.3828 18.1781 15.3828 17.822 15.6025 17.6023L21.2048 12L15.6025 6.39772C15.3828 6.17805 15.3828 5.82198 15.6025 5.60231Z"/>
</svg>