<svg xmlns="http://www.w3.org/2000/svg" width="24" height="24" fill="currentcolor" class="icon-codesandbox" viewBox="0 0 24 24">
  <path d="M12 1.43954C12.4488 1.43954 12.8892 1.55839 13.2781 1.78232L13.2788 1.78159L16.5491 3.64999C16.7087 3.66412 16.8598 3.74589 16.9578 3.88364L20.2793 5.78134L20.2815 5.78281C20.6117 5.97349 20.8937 6.23563 21.1091 6.54819C21.1499 6.58573 21.1876 6.62807 21.2168 6.67856C21.2431 6.72402 21.26 6.77217 21.2725 6.82065C21.4615 7.18436 21.562 7.58808 21.5625 7.99911V16.0008C21.562 16.4501 21.4431 16.8914 21.2183 17.2804C20.9934 17.6693 20.6705 17.9925 20.2815 18.2171L20.2793 18.2186L16.9556 20.117C16.8622 20.2469 16.7161 20.3358 16.5476 20.3499L13.2788 22.2184L13.2781 22.2176C12.9829 22.3876 12.6581 22.4966 12.3223 22.5392C12.2308 22.6035 12.1203 22.6424 12 22.6424C11.8795 22.6424 11.7685 22.6037 11.677 22.5392C11.3412 22.4965 11.0163 22.3877 10.7212 22.2176V22.2184L7.45166 20.3499C7.28328 20.3356 7.13695 20.2469 7.0437 20.117L3.7207 18.2186L3.71851 18.2171C3.32947 17.9925 3.00658 17.6693 2.78174 17.2804C2.5569 16.8914 2.43801 16.4501 2.4375 16.0008V7.99911L2.44336 7.83139C2.46691 7.47855 2.56424 7.13475 2.72754 6.82065C2.74002 6.77217 2.75692 6.72402 2.7832 6.67856C2.81241 6.62807 2.85012 6.58573 2.89087 6.54819C3.10632 6.23563 3.38829 5.97349 3.71851 5.78281L3.7207 5.78134L7.0415 3.88364C7.1393 3.74589 7.29069 3.66432 7.4502 3.64999L10.7212 1.78159V1.78232C11.1102 1.55818 11.551 1.43954 12 1.43954ZM3.57861 7.78818C3.56807 7.85824 3.56257 7.92923 3.5625 8.00058V11.6751L7.78125 14.1126C7.95512 14.2131 8.0624 14.3989 8.0625 14.5997V19.4029L11.2793 21.2413L11.2815 21.2428C11.332 21.2719 11.3842 21.2977 11.4375 21.3204V12.3343L3.57861 7.78818ZM12.5625 12.3343V21.3204C12.6158 21.2977 12.668 21.2719 12.7185 21.2428L12.7207 21.2413L15.9375 19.4029V14.5997C15.9376 14.3989 16.0449 14.2131 16.2188 14.1126L20.4375 11.6751V8.00058L20.4346 7.9061C20.4319 7.86652 20.4265 7.82728 20.4207 7.78818L12.5625 12.3343ZM3.5625 15.9994L3.56543 16.0938C3.58007 16.3129 3.64487 16.5263 3.75513 16.7171C3.88082 16.9346 4.06157 17.1156 4.27881 17.2415L6.9375 18.7606V14.9242L3.5625 12.9745V15.9994ZM17.0625 14.9242V18.7606L19.7212 17.2415C19.9384 17.1156 20.1192 16.9346 20.2449 16.7171C20.3708 16.4992 20.4371 16.2518 20.4375 16.0001V12.9745L17.0625 14.9242ZM12.2812 7.29672C12.1071 7.39732 11.8929 7.39732 11.7188 7.29672L7.55054 4.88852L4.27881 6.75839C4.24097 6.78034 4.20446 6.80427 4.16895 6.82944L12 11.3595L19.8303 6.82944C19.795 6.8044 19.7589 6.78024 19.7212 6.75839L16.4487 4.88852L12.2812 7.29672ZM12 2.56454C11.7477 2.56454 11.5 2.63107 11.2815 2.75717L11.2793 2.75864L8.68066 4.24252L12 6.16L15.3186 4.24252L12.7207 2.75864L12.7185 2.75717C12.5 2.63107 12.2523 2.56454 12 2.56454Z"/>
</svg>