<svg xmlns="http://www.w3.org/2000/svg" width="24" height="24" fill="currentcolor" class="icon-codepen" viewBox="0 0 24 24">
  <path d="M12.5623 15.793V20.9639L20.9939 15.4824L17 12.686L12.5623 15.793ZM3.00488 15.4824L11.4373 20.9631V15.7922L6.99951 12.686L3.00488 15.4824ZM7.98022 11.9998L11.9998 14.813L16.0186 11.9998L11.9998 9.18653L7.98022 11.9998ZM2.5625 14.4197L6.0188 11.9998L2.5625 9.57984V14.4197ZM17.9807 11.9998L21.4377 14.4197V9.57984L17.9807 11.9998ZM3.00562 8.5171L6.99951 11.3128L11.4373 8.20655V3.03639L3.00562 8.5171ZM12.5623 8.20582L17 11.3128L20.9932 8.5171L12.5623 3.03566V8.20582ZM22.5627 15.5C22.5627 15.6904 22.466 15.8679 22.3064 15.9717L12.3066 22.4719C12.1203 22.593 11.88 22.5929 11.6936 22.4719L1.69312 15.9717C1.5336 15.8679 1.4375 15.6903 1.4375 15.5V8.50025C1.4375 8.30999 1.53367 8.13237 1.69312 8.02858L11.6936 1.52833L11.7654 1.48878C11.9389 1.40912 12.1434 1.42225 12.3066 1.52833L22.3064 8.02858C22.466 8.13234 22.5627 8.30986 22.5627 8.50025V15.5Z"/>
</svg>