<svg xmlns="http://www.w3.org/2000/svg" width="24" height="24" fill="currentcolor" class="icon-coffee" viewBox="0 0 24 24">
  <path d="M17.4373 8.56226H2.5625V16.9998C2.5625 17.9114 2.92492 18.786 3.56958 19.4307C4.21417 20.0752 5.08822 20.4377 5.99976 20.4377H14C14.9117 20.4377 15.7863 20.0753 16.4309 19.4307C17.0755 18.786 17.4373 17.9114 17.4373 16.9998V8.56226ZM5.43726 4V1C5.43726 0.689421 5.68921 0.437632 5.99976 0.4375C6.31042 0.4375 6.56226 0.68934 6.56226 1V4C6.56226 4.31066 6.31042 4.5625 5.99976 4.5625C5.68921 4.56237 5.43726 4.31058 5.43726 4ZM9.43774 4V1C9.43774 0.68934 9.68958 0.4375 10.0002 0.4375C10.3108 0.437632 10.5627 0.689421 10.5627 1V4C10.5627 4.31058 10.3108 4.56237 10.0002 4.5625C9.68958 4.5625 9.43774 4.31066 9.43774 4ZM13.4375 4V1C13.4375 0.68934 13.6893 0.4375 14 0.4375C14.3107 0.4375 14.5625 0.68934 14.5625 1V4C14.5625 4.31066 14.3107 4.5625 14 4.5625C13.6893 4.5625 13.4375 4.31066 13.4375 4ZM22.4375 12.0002C22.4375 11.0886 22.0751 10.214 21.4304 9.56934C20.7858 8.92481 19.9118 8.56232 19.0002 8.56226H18.5623V15.4375H19.0002C19.9118 15.4374 20.7858 15.075 21.4304 14.4304C22.075 13.7858 22.4374 12.9118 22.4375 12.0002ZM23.5625 12.0002C23.5624 13.2102 23.0814 14.3703 22.2258 15.2258C21.3703 16.0814 20.2102 16.5624 19.0002 16.5625H18.5623V16.9998C18.5623 18.2097 18.0819 19.3705 17.2263 20.2261C16.3707 21.0817 15.2101 21.5627 14 21.5627H5.99976C4.78985 21.5627 3.62974 21.0816 2.77417 20.2261C1.91854 19.3704 1.4375 18.2098 1.4375 16.9998V7.99976C1.43763 7.68921 1.68942 7.43726 2 7.43726H19.0002C20.2101 7.43732 21.3703 7.91842 22.2258 8.77393C23.0815 9.62956 23.5625 10.7902 23.5625 12.0002Z"/>
</svg>