<svg xmlns="http://www.w3.org/2000/svg" width="24" height="24" fill="currentcolor" class="icon-columns" viewBox="0 0 24 24">
  <path d="M20.4375 5.00024C20.4375 4.619 20.2859 4.25323 20.0164 3.98364C19.7468 3.71406 19.381 3.5625 18.9998 3.5625H12.5625V20.4375H18.9998C19.381 20.4375 19.7468 20.2859 20.0164 20.0164C20.2859 19.7468 20.4375 19.381 20.4375 18.9998V5.00024ZM3.5625 18.9998C3.5625 19.381 3.71406 19.7468 3.98364 20.0164C4.25323 20.2859 4.619 20.4375 5.00024 20.4375H11.4375V3.5625H5.00024C4.619 3.5625 4.25323 3.71406 3.98364 3.98364C3.71406 4.25323 3.5625 4.619 3.5625 5.00024V18.9998ZM21.5625 18.9998C21.5625 19.6794 21.2923 20.3312 20.8118 20.8118C20.3312 21.2923 19.6794 21.5625 18.9998 21.5625H5.00024C4.32063 21.5625 3.66879 21.2923 3.18823 20.8118C2.70767 20.3312 2.4375 19.6794 2.4375 18.9998V5.00024C2.4375 4.32063 2.70767 3.66879 3.18823 3.18823C3.66879 2.70767 4.32063 2.4375 5.00024 2.4375H18.9998C19.6794 2.4375 20.3312 2.70767 20.8118 3.18823C21.2923 3.66879 21.5625 4.32063 21.5625 5.00024V18.9998Z"/>
</svg>