<svg xmlns="http://www.w3.org/2000/svg" width="24" height="24" fill="currentcolor" class="icon-command" viewBox="0 0 24 24">
  <path d="M8.4375 15.5625H6C5.35353 15.5625 4.73373 15.8195 4.27661 16.2766C3.81949 16.7337 3.5625 17.3535 3.5625 18C3.5625 18.6465 3.81949 19.2663 4.27661 19.7234C4.73373 20.1805 5.35353 20.4375 6 20.4375C6.64647 20.4375 7.26627 20.1805 7.72339 19.7234C8.18051 19.2663 8.4375 18.6465 8.4375 18V15.5625ZM20.4375 18C20.4375 17.3535 20.1805 16.7337 19.7234 16.2766C19.2663 15.8195 18.6465 15.5625 18 15.5625H15.5625V18C15.5625 18.6465 15.8195 19.2663 16.2766 19.7234C16.7337 20.1805 17.3535 20.4375 18 20.4375C18.6465 20.4375 19.2663 20.1805 19.7234 19.7234C20.1805 19.2663 20.4375 18.6465 20.4375 18ZM9.5625 14.4375H14.4375V9.5625H9.5625V14.4375ZM8.4375 6C8.4375 5.35353 8.18051 4.73373 7.72339 4.27661C7.26627 3.81949 6.64647 3.5625 6 3.5625C5.35353 3.5625 4.73373 3.81949 4.27661 4.27661C3.81949 4.73373 3.5625 5.35353 3.5625 6C3.5625 6.64647 3.81949 7.26627 4.27661 7.72339C4.73373 8.18051 5.35353 8.4375 6 8.4375H8.4375V6ZM20.4375 6C20.4375 5.35353 20.1805 4.73373 19.7234 4.27661C19.2663 3.81949 18.6465 3.5625 18 3.5625C17.3535 3.5625 16.7337 3.81949 16.2766 4.27661C15.8195 4.73373 15.5625 5.35353 15.5625 6V8.4375H18C18.6465 8.4375 19.2663 8.18051 19.7234 7.72339C20.1805 7.26627 20.4375 6.64647 20.4375 6ZM21.5625 6C21.5625 6.94483 21.1869 7.8507 20.5188 8.5188C19.8507 9.1869 18.9448 9.5625 18 9.5625H15.5625V14.4375H18C18.9448 14.4375 19.8507 14.8131 20.5188 15.4812C21.1869 16.1493 21.5625 17.0552 21.5625 18C21.5625 18.9448 21.1869 19.8507 20.5188 20.5188C19.8507 21.1869 18.9448 21.5625 18 21.5625C17.0552 21.5625 16.1493 21.1869 15.4812 20.5188C14.8131 19.8507 14.4375 18.9448 14.4375 18V15.5625H9.5625V18C9.5625 18.9448 9.1869 19.8507 8.5188 20.5188C7.8507 21.1869 6.94483 21.5625 6 21.5625C5.05517 21.5625 4.1493 21.1869 3.4812 20.5188C2.8131 19.8507 2.4375 18.9448 2.4375 18C2.4375 17.0552 2.8131 16.1493 3.4812 15.4812C4.1493 14.8131 5.05517 14.4375 6 14.4375H8.4375V9.5625H6C5.05517 9.5625 4.1493 9.1869 3.4812 8.5188C2.8131 7.8507 2.4375 6.94483 2.4375 6C2.4375 5.05517 2.8131 4.1493 3.4812 3.4812C4.1493 2.8131 5.05517 2.4375 6 2.4375C6.94483 2.4375 7.8507 2.8131 8.5188 3.4812C9.1869 4.1493 9.5625 5.05517 9.5625 6V8.4375H14.4375V6C14.4375 5.05517 14.8131 4.1493 15.4812 3.4812C16.1493 2.8131 17.0552 2.4375 18 2.4375C18.9448 2.4375 19.8507 2.8131 20.5188 3.4812C21.1869 4.1493 21.5625 5.05517 21.5625 6Z"/>
</svg>