<svg xmlns="http://www.w3.org/2000/svg" width="24" height="24" fill="currentcolor" class="icon-compass" viewBox="0 0 24 24">
  <path d="M21.4377 11.9998C21.4376 6.78768 17.2119 2.5625 11.9998 2.5625C6.78776 2.56263 2.56263 6.78776 2.5625 11.9998C2.5625 17.2119 6.78768 21.4376 11.9998 21.4377C17.2119 21.4377 21.4377 17.2119 21.4377 11.9998ZM16.0618 7.22656C16.2638 7.15922 16.4868 7.21159 16.6375 7.36206C16.7881 7.51268 16.841 7.73565 16.7737 7.93774L14.6533 14.2981C14.5973 14.4658 14.4658 14.5973 14.2981 14.6533L7.93774 16.7737C7.73565 16.841 7.51268 16.7881 7.36206 16.6375C7.21159 16.4868 7.15922 16.2638 7.22656 16.0618L9.34619 9.70215L9.37109 9.64062C9.43616 9.50227 9.5553 9.39514 9.70215 9.34619L16.0618 7.22656ZM10.324 10.324L8.64893 15.3506L13.6748 13.6748L15.3506 8.64893L10.324 10.324ZM22.5627 11.9998C22.5627 17.8333 17.8333 22.5627 11.9998 22.5627C6.16636 22.5626 1.4375 17.8332 1.4375 11.9998C1.43763 6.16644 6.16644 1.43763 11.9998 1.4375C17.8332 1.4375 22.5626 6.16636 22.5627 11.9998Z"/>
</svg>