<svg xmlns="http://www.w3.org/2000/svg" width="24" height="24" fill="currentcolor" class="icon-copy" viewBox="0 0 24 24">
  <path d="M21.4377 11C21.4377 10.2061 20.7939 9.56226 20 9.56226H11C10.2061 9.56226 9.56226 10.2061 9.56226 11V20C9.56226 20.7939 10.2061 21.4377 11 21.4377H20C20.7939 21.4377 21.4377 20.7939 21.4377 20V11ZM14.4373 5V4.00024C14.4373 3.619 14.2857 3.25323 14.0161 2.98364C13.7466 2.71419 13.3813 2.56256 13.0002 2.5625H4.00024C3.619 2.5625 3.25323 2.71406 2.98364 2.98364C2.71406 3.25323 2.5625 3.619 2.5625 4.00024V13.0002C2.56256 13.3813 2.71419 13.7466 2.98364 14.0161C3.25323 14.2857 3.619 14.4373 4.00024 14.4373H5C5.31058 14.4373 5.56237 14.6892 5.5625 14.9998C5.5625 15.3104 5.31066 15.5623 5 15.5623H4.00024C3.32074 15.5623 2.66877 15.2927 2.18823 14.8123C1.70773 14.3318 1.43756 13.6798 1.4375 13.0002V4.00024C1.4375 3.32063 1.70767 2.66879 2.18823 2.18823C2.66879 1.70767 3.32063 1.4375 4.00024 1.4375H13.0002C13.6798 1.43756 14.3318 1.70773 14.8123 2.18823C15.2927 2.66877 15.5623 3.32074 15.5623 4.00024V5C15.5623 5.31066 15.3104 5.5625 14.9998 5.5625C14.6892 5.56237 14.4373 5.31058 14.4373 5ZM22.5627 20C22.5627 21.4152 21.4152 22.5627 20 22.5627H11C9.58477 22.5627 8.43726 21.4152 8.43726 20V11C8.43726 9.58477 9.58477 8.43726 11 8.43726H20C21.4152 8.43726 22.5627 9.58477 22.5627 11V20Z"/>
</svg>