<svg xmlns="http://www.w3.org/2000/svg" width="24" height="24" fill="currentcolor" class="icon-corner-up-left" viewBox="0 0 24 24">
  <path d="M19.4372 19.9998V13C19.4372 12.0883 19.0755 11.2138 18.4308 10.5691C17.7861 9.92445 16.9116 9.56276 15.9999 9.56276H5.35781L9.39785 13.6021C9.61743 13.8217 9.61727 14.1778 9.39785 14.3975C9.17818 14.6171 8.82211 14.6171 8.60244 14.3975L3.60219 9.39797C3.38256 9.17834 3.38264 8.82224 3.60219 8.60256L8.60244 3.60231C8.82212 3.38277 9.17822 3.38268 9.39785 3.60231C9.61735 3.82195 9.61735 4.17808 9.39785 4.39772L5.35781 8.43776H15.9999C17.2099 8.43776 18.3706 8.91807 19.2262 9.7737C20.0818 10.6293 20.5622 11.79 20.5622 13V19.9998C20.5622 20.3104 20.3103 20.5623 19.9997 20.5623C19.6891 20.5621 19.4372 20.3104 19.4372 19.9998Z"/>
</svg>