<svg xmlns="http://www.w3.org/2000/svg" width="24" height="24" fill="currentcolor" class="icon-corner-left-up" viewBox="0 0 24 24">
  <path d="M8.43776 16V5.3579L4.39772 9.39794C4.17808 9.61745 3.82195 9.61745 3.60231 9.39794C3.38268 9.17831 3.38277 8.82221 3.60231 8.60253L8.60256 3.60229L8.64504 3.56347C8.86597 3.38336 9.19206 3.39638 9.39797 3.60229L14.3975 8.60253C14.6171 8.8222 14.6171 9.17827 14.3975 9.39794C14.1778 9.61737 13.8217 9.61753 13.6021 9.39794L9.56276 5.3579V16C9.56276 16.9117 9.92445 17.7862 10.5691 18.4309C11.2138 19.0756 12.0883 19.4372 13 19.4372H19.9998C20.3104 19.4372 20.5621 19.6892 20.5623 19.9997C20.5623 20.3104 20.3104 20.5622 19.9998 20.5622H13C11.79 20.5622 10.6293 20.0819 9.7737 19.2263C8.91807 18.3707 8.43776 17.21 8.43776 16Z"/>
</svg>