<svg xmlns="http://www.w3.org/2000/svg" width="24" height="24" fill="currentcolor" class="icon-corner-right-down" viewBox="0 0 24 24">
  <path d="M14.4377 7.99976C14.4377 7.08822 14.0752 6.21417 13.4307 5.56958C12.786 4.92492 11.9114 4.5625 10.9998 4.5625H4C3.68934 4.5625 3.4375 4.31066 3.4375 4C3.4375 3.68934 3.68934 3.4375 4 3.4375H10.9998C12.2098 3.4375 13.3704 3.91854 14.2261 4.77417C15.0816 5.62974 15.5627 6.78985 15.5627 7.99976V18.6418L19.6021 14.6025C19.8217 14.3829 20.1778 14.3829 20.3975 14.6025C20.6171 14.8222 20.6171 15.1783 20.3975 15.398L15.398 20.3975C15.1783 20.6171 14.8222 20.6171 14.6025 20.3975L9.6023 15.398C9.38267 15.1783 9.38275 14.8222 9.6023 14.6025C9.82197 14.3829 10.178 14.3829 10.3977 14.6025L14.4377 18.6418V7.99976Z"/>
</svg>