<svg xmlns="http://www.w3.org/2000/svg" width="24" height="24" fill="currentcolor" class="icon-corner-left-down" viewBox="0 0 24 24">
  <path d="M8.43764 7.99976C8.43771 6.78991 8.91815 5.62972 9.77358 4.77417C10.6292 3.91854 11.7898 3.4375 12.9999 3.4375H19.9997C20.3103 3.4375 20.5622 3.68934 20.5622 4C20.5622 4.31066 20.3103 4.5625 19.9997 4.5625H12.9999C12.0882 4.5625 11.2136 4.92492 10.569 5.56958C9.92454 6.21416 9.56271 7.08828 9.56264 7.99976V18.6418L13.6019 14.6025C13.8216 14.3829 14.1777 14.3829 14.3974 14.6025C14.617 14.8222 14.617 15.1783 14.3974 15.398L9.39785 20.3975C9.17818 20.6171 8.82211 20.6171 8.60244 20.3975L3.60219 15.398C3.38256 15.1783 3.38264 14.8222 3.60219 14.6025C3.82186 14.3829 4.17793 14.3829 4.3976 14.6025L8.43764 18.6418V7.99976Z"/>
</svg>