<svg xmlns="http://www.w3.org/2000/svg" width="24" height="24" fill="currentcolor" class="icon-corner-down-left" viewBox="0 0 24 24">
  <path d="M8.60256 9.6023C8.82224 9.38275 9.17834 9.38267 9.39797 9.6023C9.61747 9.82193 9.61747 10.1781 9.39797 10.3977L5.35793 14.4377H16C16.9117 14.4377 17.7863 14.0753 18.4309 13.4307C19.0755 12.786 19.4373 11.9114 19.4373 10.9998V4C19.4373 3.68942 19.6892 3.43763 19.9998 3.4375C20.3104 3.4375 20.5623 3.68934 20.5623 4V10.9998C20.5623 12.2097 20.0819 13.3705 19.2263 14.2261C18.3707 15.0817 17.2101 15.5627 16 15.5627H5.35793L9.39797 19.6021C9.61756 19.8216 9.61739 20.1778 9.39797 20.3975C9.1783 20.6171 8.82223 20.6171 8.60256 20.3975L3.60231 15.398C3.38268 15.1783 3.38277 14.8222 3.60231 14.6025L8.60256 9.6023Z"/>
</svg>