<svg xmlns="http://www.w3.org/2000/svg" width="24" height="24" fill="currentcolor" class="icon-corner-up-left" viewBox="0 0 24 24">
  <path d="M19.4372 19.9998V13C19.4372 12.0883 19.0756 11.2138 18.4309 10.5691C17.7862 9.92445 16.9117 9.56276 16 9.56276H5.3579L9.39794 13.6021C9.61753 13.8217 9.61736 14.1778 9.39794 14.3975C9.17827 14.6171 8.8222 14.6171 8.60253 14.3975L3.60228 9.39797C3.38265 9.17834 3.38274 8.82224 3.60228 8.60256L8.60253 3.60231C8.82221 3.38277 9.17831 3.38268 9.39794 3.60231C9.61744 3.82195 9.61744 4.17808 9.39794 4.39772L5.3579 8.43776H16C17.21 8.43776 18.3707 8.91807 19.2263 9.7737C20.0819 10.6293 20.5622 11.79 20.5622 13V19.9998C20.5622 20.3104 20.3104 20.5623 19.9997 20.5623C19.6892 20.5621 19.4372 20.3104 19.4372 19.9998Z"/>
</svg>