<svg xmlns="http://www.w3.org/2000/svg" width="24" height="24" fill="currentcolor" class="icon-corner-down-right" viewBox="0 0 24 24">
  <path d="M14.6025 9.6023C14.8222 9.38275 15.1783 9.38267 15.398 9.6023L20.3975 14.6025C20.6171 14.8222 20.6171 15.1783 20.3975 15.398L15.398 20.3975C15.1783 20.6171 14.8222 20.6171 14.6025 20.3975C14.3829 20.1778 14.3829 19.8217 14.6025 19.6021L18.6418 15.5627H7.99976C6.78985 15.5627 5.62974 15.0816 4.77417 14.2261C3.91854 13.3704 3.4375 12.2098 3.4375 10.9998V4C3.4375 3.68934 3.68934 3.4375 4 3.4375C4.31066 3.4375 4.5625 3.68934 4.5625 4V10.9998C4.5625 11.9114 4.92492 12.786 5.56958 13.4307C6.21417 14.0752 7.08822 14.4377 7.99976 14.4377H18.6418L14.6025 10.3977C14.3829 10.178 14.3829 9.82197 14.6025 9.6023Z"/>
</svg>