<svg xmlns="http://www.w3.org/2000/svg" width="24" height="24" fill="currentcolor" class="icon-corner-right-up" viewBox="0 0 24 24">
  <path d="M14.4377 16V5.3579L10.3977 9.39794C10.1781 9.61745 9.82193 9.61745 9.6023 9.39794C9.38267 9.17831 9.38275 8.82221 9.6023 8.60253L14.6025 3.60229L14.645 3.56347C14.866 3.38336 15.192 3.39638 15.398 3.60229L20.3975 8.60253C20.6171 8.8222 20.6171 9.17827 20.3975 9.39794C20.1778 9.61737 19.8216 9.61753 19.6021 9.39794L15.5627 5.3579V16C15.5627 17.21 15.0817 18.3707 14.2261 19.2263C13.3705 20.0819 12.2097 20.5622 10.9998 20.5622H4C3.68934 20.5622 3.4375 20.3104 3.4375 19.9997C3.43763 19.6892 3.68942 19.4372 4 19.4372H10.9998C11.9114 19.4372 12.786 19.0755 13.4307 18.4309C14.0753 17.7862 14.4377 16.9117 14.4377 16Z"/>
</svg>