<svg xmlns="http://www.w3.org/2000/svg" width="24" height="24" fill="currentcolor" class="icon-corner-up-right" viewBox="0 0 24 24">
  <path d="M3.4375 19.9998V13C3.4375 11.79 3.91854 10.6293 4.77417 9.7737C5.62972 8.91828 6.78991 8.43783 7.99976 8.43776H18.6418L14.6025 4.39772C14.3829 4.17805 14.3829 3.82198 14.6025 3.60231C14.8222 3.38277 15.1783 3.38268 15.398 3.60231L20.3975 8.60256C20.6171 8.82223 20.6171 9.1783 20.3975 9.39797L15.398 14.3975C15.1783 14.6171 14.8222 14.6171 14.6025 14.3975C14.3829 14.1778 14.3829 13.8217 14.6025 13.6021L18.6418 9.56276H7.99976C7.08828 9.56283 6.21416 9.92466 5.56958 10.5691C4.92492 11.2138 4.5625 12.0883 4.5625 13V19.9998C4.5625 20.3104 4.31066 20.5623 4 20.5623C3.68934 20.5623 3.4375 20.3104 3.4375 19.9998Z"/>
</svg>