<svg xmlns="http://www.w3.org/2000/svg" width="24" height="24" fill="currentcolor" class="icon-corner-left-down" viewBox="0 0 24 24">
  <path d="M8.43776 7.99976C8.43783 6.78991 8.91828 5.62972 9.7737 4.77417C10.6293 3.91854 11.79 3.4375 13 3.4375H19.9998C20.3104 3.4375 20.5623 3.68934 20.5623 4C20.5623 4.31066 20.3104 4.5625 19.9998 4.5625H13C12.0883 4.5625 11.2138 4.92492 10.5691 5.56958C9.92466 6.21416 9.56283 7.08828 9.56276 7.99976V18.6418L13.6021 14.6025C13.8217 14.3829 14.1778 14.3829 14.3975 14.6025C14.6171 14.8222 14.6171 15.1783 14.3975 15.398L9.39797 20.3975C9.1783 20.6171 8.82223 20.6171 8.60256 20.3975L3.60231 15.398C3.38268 15.1783 3.38277 14.8222 3.60231 14.6025C3.82198 14.3829 4.17805 14.3829 4.39772 14.6025L8.43776 18.6418V7.99976Z"/>
</svg>