<svg xmlns="http://www.w3.org/2000/svg" width="24" height="24" fill="currentcolor" class="icon-corner-down-left" viewBox="0 0 24 24">
  <path d="M8.60244 9.6023C8.82212 9.38275 9.17822 9.38267 9.39785 9.6023C9.61735 9.82193 9.61735 10.1781 9.39785 10.3977L5.35781 14.4377H15.9999C16.9116 14.4377 17.7861 14.0753 18.4308 13.4307C19.0754 12.786 19.4372 11.9114 19.4372 10.9998V4C19.4372 3.68942 19.6891 3.43763 19.9997 3.4375C20.3103 3.4375 20.5622 3.68934 20.5622 4V10.9998C20.5622 12.2097 20.0818 13.3705 19.2262 14.2261C18.3706 15.0817 17.2099 15.5627 15.9999 15.5627H5.35781L9.39785 19.6021C9.61743 19.8216 9.61727 20.1778 9.39785 20.3975C9.17818 20.6171 8.82211 20.6171 8.60244 20.3975L3.60219 15.398C3.38256 15.1783 3.38264 14.8222 3.60219 14.6025L8.60244 9.6023Z"/>
</svg>