<svg xmlns="http://www.w3.org/2000/svg" width="24" height="24" fill="currentcolor" class="icon-corner-right-up" viewBox="0 0 24 24">
  <path d="M14.4377 16V5.35793L10.3977 9.39797C10.1781 9.61748 9.82193 9.61748 9.6023 9.39797C9.38267 9.17834 9.38275 8.82224 9.6023 8.60256L14.6025 3.60232L14.645 3.5635C14.866 3.38339 15.192 3.39641 15.398 3.60232L20.3975 8.60256C20.6171 8.82223 20.6171 9.1783 20.3975 9.39797C20.1778 9.6174 19.8216 9.61756 19.6021 9.39797L15.5627 5.35793V16C15.5627 17.2101 15.0817 18.3707 14.2261 19.2263C13.3705 20.0819 12.2097 20.5623 10.9998 20.5623H4C3.68934 20.5623 3.4375 20.3104 3.4375 19.9998C3.43763 19.6892 3.68942 19.4373 4 19.4373H10.9998C11.9114 19.4373 12.786 19.0755 13.4307 18.4309C14.0753 17.7863 14.4377 16.9117 14.4377 16Z"/>
</svg>