<svg xmlns="http://www.w3.org/2000/svg" width="24" height="24" fill="currentcolor" class="icon-corner-left-up" viewBox="0 0 24 24">
  <path d="M8.43764 16V5.35793L4.3976 9.39797C4.17796 9.61748 3.82183 9.61748 3.60219 9.39797C3.38256 9.17834 3.38264 8.82224 3.60219 8.60256L8.60244 3.60232L8.64492 3.5635C8.86585 3.38339 9.19194 3.39641 9.39785 3.60232L14.3974 8.60256C14.617 8.82223 14.617 9.1783 14.3974 9.39797C14.1777 9.6174 13.8215 9.61756 13.6019 9.39797L9.56264 5.35793V16C9.56264 16.9117 9.92433 17.7863 10.569 18.4309C11.2136 19.0756 12.0882 19.4373 12.9999 19.4373H19.9997C20.3102 19.4373 20.562 19.6892 20.5622 19.9998C20.5622 20.3104 20.3103 20.5623 19.9997 20.5623H12.9999C11.7898 20.5623 10.6292 20.082 9.77358 19.2263C8.91794 18.3707 8.43764 17.2101 8.43764 16Z"/>
</svg>