<svg xmlns="http://www.w3.org/2000/svg" width="24" height="24" fill="currentcolor" class="icon-cpu" viewBox="0 0 24 24">
  <g clip-path="url(#a)">
    <path d="M19.4373 6.00024C19.4373 5.20642 18.794 4.56263 18.0002 4.5625H6.00024C5.20633 4.5625 4.5625 5.20633 4.5625 6.00024V18.0002C4.56263 18.794 5.20642 19.4373 6.00024 19.4373H18.0002C18.794 19.4371 19.4371 18.794 19.4373 18.0002V6.00024ZM15.0002 8.43774C15.3108 8.43788 15.5627 8.68967 15.5627 9.00024V15.0002C15.5626 15.3107 15.3107 15.5626 15.0002 15.5627H9.00024C8.68967 15.5627 8.43788 15.3108 8.43774 15.0002V9.00024C8.43774 8.68958 8.68958 8.43774 9.00024 8.43774H15.0002ZM9.56274 14.4377H14.4377V9.56274H9.56274V14.4377ZM20.5623 8.43774H22.9998C23.3104 8.43774 23.5623 8.68958 23.5623 9.00024C23.5621 9.31079 23.3103 9.56274 22.9998 9.56274H20.5623V13.4373H22.9998C23.3103 13.4373 23.5621 13.6892 23.5623 13.9998C23.5623 14.3104 23.3104 14.5623 22.9998 14.5623H20.5623V18.0002C20.5621 19.4153 19.4153 20.5621 18.0002 20.5623H15.5627V22.9998C15.5627 23.3103 15.3108 23.5621 15.0002 23.5623C14.6896 23.5623 14.4377 23.3104 14.4377 22.9998V20.5623H9.56274V22.9998C9.56274 23.3103 9.31079 23.5621 9.00024 23.5623C8.68958 23.5623 8.43774 23.3104 8.43774 22.9998V20.5623H6.00024C4.5851 20.5623 3.43763 19.4154 3.4375 18.0002V14.5623H1C0.68934 14.5623 0.4375 14.3104 0.4375 13.9998C0.437631 13.6892 0.689421 13.4373 1 13.4373H3.4375V9.56274H1C0.689421 9.56274 0.437632 9.31079 0.4375 9.00024C0.4375 8.68958 0.68934 8.43774 1 8.43774H3.4375V6.00024C3.4375 4.58501 4.58501 3.4375 6.00024 3.4375H8.43774V1C8.43774 0.68934 8.68958 0.4375 9.00024 0.4375C9.31079 0.437632 9.56274 0.689421 9.56274 1V3.4375H14.4377V1C14.4377 0.68934 14.6896 0.4375 15.0002 0.4375C15.3108 0.437632 15.5627 0.689421 15.5627 1V3.4375H18.0002C19.4154 3.43763 20.5623 4.5851 20.5623 6.00024V8.43774Z"/>
  </g>
  <defs>
    <clipPath id="a">
      <path d="M0 0H24V24H0z"/>
    </clipPath>
  </defs>
</svg>