<svg xmlns="http://www.w3.org/2000/svg" width="24" height="24" fill="currentcolor" class="icon-credit-card" viewBox="0 0 24 24">
  <path d="M22.4373 10.5625H1.5625V18.0002C1.56263 18.794 2.20642 19.4373 3.00024 19.4373H21.0002C21.794 19.4371 22.4371 18.794 22.4373 18.0002V10.5625ZM22.4373 6.00024C22.4373 5.20642 21.794 4.56263 21.0002 4.5625H3.00024C2.20633 4.5625 1.5625 5.20633 1.5625 6.00024V9.4375H22.4373V6.00024ZM23.5623 18.0002C23.5621 19.4153 22.4153 20.5621 21.0002 20.5623H3.00024C1.5851 20.5623 0.437631 19.4154 0.4375 18.0002V6.00024C0.4375 4.58501 1.58501 3.4375 3.00024 3.4375H21.0002C22.4154 3.43763 23.5623 4.5851 23.5623 6.00024V18.0002Z"/>
</svg>