<svg xmlns="http://www.w3.org/2000/svg" width="24" height="24" fill="currentcolor" class="icon-crop" viewBox="0 0 24 24">
  <g clip-path="url(#a)">
    <path d="M17.4378 7.99978C17.4377 7.61873 17.286 7.25341 17.0166 6.98391C16.7472 6.7145 16.3817 6.56296 16.0008 6.56277L6.64333 6.64333L6.56277 16.0051C6.56412 16.3845 6.71553 16.7482 6.98391 17.0166C7.25341 17.286 7.61873 17.4377 7.99978 17.4378H17.4378V7.99978ZM18.5628 17.4378H22.9998C23.3104 17.4378 23.5623 17.6896 23.5623 18.0003C23.5621 18.3108 23.3104 18.5628 22.9998 18.5628H18.5628V22.9998C18.5628 23.3104 18.3108 23.5621 18.0003 23.5623C17.6896 23.5623 17.4378 23.3104 17.4378 22.9998V18.5628H7.99978C7.32025 18.5627 6.66827 18.2925 6.18777 17.812C5.70728 17.3315 5.43777 16.6796 5.43777 16V15.9949L5.51833 6.65285L1.00515 6.6924C0.694545 6.6951 0.440286 6.44562 0.437522 6.13503C0.43483 5.82447 0.684363 5.57023 0.994895 5.5674L5.52785 5.52785L5.5674 0.994895C5.57023 0.684363 5.82447 0.43483 6.13503 0.437522C6.44562 0.440286 6.6951 0.694545 6.6924 1.00515L6.65285 5.51833L15.9949 5.43777H16C16.6796 5.43777 17.3315 5.70728 17.812 6.18777C18.2925 6.66827 18.5627 7.32025 18.5628 7.99978V17.4378Z"/>
  </g>
  <defs>
    <clipPath id="a">
      <path d="M0 0H24V24H0z"/>
    </clipPath>
  </defs>
</svg>