<svg xmlns="http://www.w3.org/2000/svg" width="24" height="24" fill="currentcolor" class="icon-crop" viewBox="0 0 24 24">
  <g clip-path="url(#a)">
    <path d="M17.4377 7.99978C17.4377 7.61873 17.286 7.25341 17.0166 6.98391C16.7472 6.7145 16.3817 6.56296 16.0007 6.56277L6.6433 6.64333L6.56274 16.0051C6.56409 16.3845 6.7155 16.7482 6.98388 17.0166C7.25338 17.286 7.6187 17.4377 7.99975 17.4378H17.4377V7.99978ZM18.5627 17.4378H22.9997C23.3104 17.4378 23.5622 17.6896 23.5622 18.0003C23.5621 18.3108 23.3103 18.5628 22.9997 18.5628H18.5627V22.9998C18.5627 23.3104 18.3108 23.5621 18.0002 23.5623C17.6896 23.5623 17.4377 23.3104 17.4377 22.9998V18.5628H7.99975C7.32022 18.5627 6.66824 18.2925 6.18774 17.812C5.70725 17.3315 5.43774 16.6796 5.43774 16V15.9949L5.5183 6.65285L1.00512 6.6924C0.694515 6.6951 0.440256 6.44562 0.437491 6.13503C0.434799 5.82447 0.684332 5.57023 0.994864 5.5674L5.52782 5.52785L5.56737 0.994895C5.5702 0.684363 5.82444 0.43483 6.135 0.437522C6.44559 0.440286 6.69507 0.694545 6.69237 1.00515L6.65282 5.51833L15.9949 5.43777H16C16.6796 5.43777 17.3315 5.70728 17.812 6.18777C18.2925 6.66827 18.5627 7.32025 18.5627 7.99978V17.4378Z"/>
  </g>
  <defs>
    <clipPath id="a">
      <path d="M0 0H24V24H0z"/>
    </clipPath>
  </defs>
</svg>