<svg xmlns="http://www.w3.org/2000/svg" width="24" height="24" fill="currentcolor" class="icon-crosshair" viewBox="0 0 24 24">
  <path d="M11.9998 1.4375C17.8332 1.4375 22.5626 6.16636 22.5627 11.9998C22.5627 17.8333 17.8333 22.5627 11.9998 22.5627C6.16636 22.5626 1.4375 17.8332 1.4375 11.9998C1.43763 6.16644 6.16644 1.43763 11.9998 1.4375ZM11.4373 5.99976V2.57935C6.67326 2.85952 2.86027 6.67327 2.58008 11.4373H5.99976C6.31033 11.4373 6.56212 11.6892 6.56226 11.9998C6.56226 12.3104 6.31042 12.5623 5.99976 12.5623H2.58008C2.86004 17.3265 6.67311 21.14 11.4373 21.4202V17.9998C11.4374 17.6893 11.6893 17.4374 11.9998 17.4373C12.3103 17.4373 12.5621 17.6892 12.5623 17.9998V21.4202C17.3266 21.1402 21.1402 17.3266 21.4202 12.5623H17.9998C17.6892 12.5621 17.4373 12.3103 17.4373 11.9998C17.4374 11.6893 17.6893 11.4374 17.9998 11.4373H21.4202C21.14 6.6731 17.3265 2.85929 12.5623 2.57935V5.99976C12.5623 6.31042 12.3104 6.56226 11.9998 6.56226C11.6892 6.56212 11.4373 6.31033 11.4373 5.99976Z"/>
</svg>