<svg xmlns="http://www.w3.org/2000/svg" width="24" height="24" fill="currentcolor" class="icon-cut-solid" viewBox="0 0 24 24">
  <path d="M17.4688 4.03125C18.6016 2.89844 20.3594 2.89844 21.4922 4.03125C21.7656 4.30469 21.7656 4.73438 21.4922 5.00781L10.4375 16.0625C10.6328 16.5703 10.75 17.0781 10.75 17.625C10.75 20.0469 8.75781 22 6.375 22C3.95312 22 2 20.0469 2 17.625C2 15.2422 3.95312 13.25 6.375 13.25C6.92188 13.25 7.42969 13.3672 7.9375 13.5625L9.46094 12L7.9375 10.4766C7.42969 10.6719 6.92188 10.75 6.375 10.75C3.95312 10.75 2 8.79688 2 6.375C2 3.99219 3.95312 2 6.375 2C8.75781 2 10.75 3.99219 10.75 6.375C10.75 6.96094 10.6328 7.46875 10.4375 7.97656L11.9609 9.5L17.4688 4.03125ZM8.25 6.375C8.25 5.35938 7.39062 4.5 6.375 4.5C5.32031 4.5 4.5 5.35938 4.5 6.375C4.5 7.42969 5.32031 8.25 6.375 8.25C7.39062 8.25 8.25 7.42969 8.25 6.375ZM6.375 19.5C7.39062 19.5 8.25 18.6797 8.25 17.625C8.25 16.6094 7.39062 15.75 6.375 15.75C5.32031 15.75 4.5 16.6094 4.5 17.625C4.5 18.6797 5.32031 19.5 6.375 19.5ZM12.8594 15.3984L15.3594 12.8984L21.4922 19.0312C21.7656 19.3047 21.7656 19.7344 21.4922 20.0078C20.3594 21.1406 18.6016 21.1406 17.4688 20.0078L12.8594 15.3984Z"/>
</svg>