<svg xmlns="http://www.w3.org/2000/svg" width="24" height="24" fill="currentcolor" class="icon-cut-outline" viewBox="0 0 24 24">
  <path d="M20.4375 19.3047L14.1875 14.0703L15.6328 12.8203L21.6484 17.8594C22.0391 18.2109 22.0781 18.7969 21.7656 19.1875C21.4141 19.5781 20.8281 19.6172 20.4375 19.3047ZM6.375 2C8.75781 2 10.75 3.99219 10.75 6.375C10.75 7.07812 10.5547 7.74219 10.2812 8.32812L13.2109 10.7891L20.4375 4.73438C20.8281 4.42188 21.4141 4.46094 21.7656 4.85156C22.0781 5.24219 22.0391 5.82812 21.6484 6.17969L10.2812 15.7109C10.5547 16.2969 10.75 16.9609 10.75 17.625C10.75 20.0469 8.75781 22 6.375 22C3.95312 22 2 20.0469 2 17.625C2 15.2422 3.95312 13.25 6.375 13.25C7.39062 13.25 8.36719 13.6406 9.10938 14.2266L11.7656 12L9.10938 9.8125C8.36719 10.3984 7.39062 10.75 6.375 10.75C3.95312 10.75 2 8.79688 2 6.375C2 3.99219 3.95312 2 6.375 2ZM3.875 6.375C3.875 7.78125 4.96875 8.875 6.375 8.875C7.74219 8.875 8.875 7.78125 8.875 6.375C8.875 5.00781 7.74219 3.875 6.375 3.875C4.96875 3.875 3.875 5.00781 3.875 6.375ZM6.375 15.125C4.96875 15.125 3.875 16.2578 3.875 17.625C3.875 19.0312 4.96875 20.125 6.375 20.125C7.74219 20.125 8.875 19.0312 8.875 17.625C8.875 16.2578 7.74219 15.125 6.375 15.125Z"/>
</svg>