<svg xmlns="http://www.w3.org/2000/svg" width="24" height="24" fill="currentcolor" class="icon-database" viewBox="0 0 24 24">
  <path d="M20.4375 13.7642C19.9369 14.112 19.2914 14.4097 18.553 14.6562C16.8561 15.2227 14.5431 15.5623 12 15.5623C9.45692 15.5623 7.14387 15.2227 5.44702 14.6562C4.70859 14.4097 4.06312 14.112 3.5625 13.7642V19.0002C3.5626 19.1709 3.66466 19.4209 4.05249 19.7283C4.43487 20.0313 5.02361 20.3287 5.80298 20.5889C7.35612 21.1074 9.54318 21.4377 12 21.4377C14.4568 21.4377 16.6439 21.1074 18.197 20.5889C18.9764 20.3287 19.5651 20.0313 19.9475 19.7283C20.3353 19.4209 20.4374 19.1709 20.4375 19.0002V13.7642ZM20.4375 6.76001C19.9343 7.10909 19.2846 7.40749 18.542 7.65503C16.8419 8.22172 14.5289 8.5625 12 8.5625C9.47108 8.5625 7.15808 8.22172 5.45801 7.65503C4.71542 7.40749 4.06574 7.10909 3.5625 6.76001V11.9998C3.5625 12.1704 3.66447 12.421 4.05249 12.7285C4.43489 13.0315 5.02366 13.3289 5.80298 13.5891C7.35612 14.1076 9.54318 14.4373 12 14.4373C14.4568 14.4373 16.6439 14.1076 18.197 13.5891C18.9763 13.3289 19.5651 13.0315 19.9475 12.7285C20.3355 12.421 20.4375 12.1704 20.4375 11.9998V6.76001ZM20.4375 5C20.4375 4.83202 20.3358 4.58254 19.9446 4.27417C19.5596 3.97078 18.9676 3.67264 18.186 3.41211C16.6288 2.89303 14.4416 2.5625 12 2.5625C9.55841 2.5625 7.37124 2.89303 5.81396 3.41211C5.03238 3.67264 4.44039 3.97078 4.05542 4.27417C3.66416 4.58254 3.5625 4.83202 3.5625 5C3.5625 5.16798 3.66416 5.41746 4.05542 5.72583C4.44039 6.02922 5.03238 6.32736 5.81396 6.58789C7.37124 7.10697 9.55841 7.4375 12 7.4375C14.4416 7.4375 16.6288 7.10697 18.186 6.58789C18.9676 6.32736 19.5596 6.02922 19.9446 5.72583C20.3358 5.41746 20.4375 5.16798 20.4375 5ZM21.5625 19.0002C21.5624 19.6595 21.1644 20.1995 20.6462 20.6101C20.1224 21.0252 19.3985 21.3737 18.553 21.656C16.8561 22.2225 14.5431 22.5627 12 22.5627C9.45688 22.5627 7.14387 22.2225 5.44702 21.656C4.60154 21.3737 3.8776 21.0252 3.35376 20.6101C2.83559 20.1995 2.4376 19.6595 2.4375 19.0002V5C2.4375 4.33956 2.83935 3.79958 3.35889 3.39014C3.88474 2.97573 4.61098 2.62732 5.45801 2.34497C7.15808 1.77828 9.47108 1.4375 12 1.4375C14.5289 1.4375 16.8419 1.77828 18.542 2.34497C19.389 2.62732 20.1153 2.97573 20.6411 3.39014C21.1606 3.79958 21.5625 4.33956 21.5625 5V19.0002Z"/>
</svg>