<svg xmlns="http://www.w3.org/2000/svg" width="24" height="24" fill="currentcolor" class="icon-delete" viewBox="0 0 24 24">
  <path d="M22.4372 6.00024C22.4372 5.619 22.2856 5.25323 22.016 4.98364C21.7802 4.7479 21.4712 4.60255 21.1423 4.56982L21.0002 4.5625H8.2553L1.747 11.9995L8.25456 19.4373H21.0002C21.3813 19.4372 21.7465 19.2856 22.016 19.0161C22.2856 18.7466 22.4371 18.3814 22.4372 18.0002V6.00024ZM17.6025 8.60254C17.8221 8.38287 18.1782 8.38287 18.3979 8.60254C18.6173 8.82223 18.6175 9.17836 18.3979 9.39795L15.7956 12.0002L18.3979 14.6025C18.6173 14.8222 18.6175 15.1784 18.3979 15.3979C18.1783 15.6175 17.8222 15.6174 17.6025 15.3979L15.0002 12.7957L12.3979 15.3979C12.1783 15.6175 11.8222 15.6174 11.6025 15.3979C11.3828 15.1783 11.3828 14.8222 11.6025 14.6025L14.2048 12.0002L11.6025 9.39795C11.3828 9.17828 11.3828 8.82221 11.6025 8.60254C11.8221 8.38287 12.1782 8.38287 12.3979 8.60254L15.0002 11.2048L17.6025 8.60254ZM23.5622 18.0002C23.5621 18.6798 23.2927 19.3318 22.8122 19.8123C22.3317 20.2928 21.6797 20.5622 21.0002 20.5623H7.99968C7.83757 20.5622 7.6831 20.4924 7.57634 20.3704L0.576585 12.3701C0.391179 12.1581 0.391098 11.8417 0.576585 11.6296L7.57634 3.62939L7.61882 3.58618C7.72206 3.49109 7.85787 3.43756 7.99968 3.4375H21.0002L21.1269 3.44043C21.7603 3.47182 22.3616 3.73768 22.8122 4.18823C23.2926 4.66877 23.5622 5.32074 23.5622 6.00024V18.0002Z"/>
</svg>