<svg xmlns="http://www.w3.org/2000/svg" width="24" height="24" fill="currentcolor" class="icon-delete" viewBox="0 0 24 24">
  <path d="M22.4372 6.00024C22.4372 5.619 22.2857 5.25323 22.0161 4.98364C21.7803 4.7479 21.4712 4.60255 21.1423 4.56982L21.0002 4.5625H8.25536L1.74706 11.9995L8.25462 19.4373H21.0002C21.3814 19.4372 21.7466 19.2856 22.0161 19.0161C22.2856 18.7466 22.4372 18.3814 22.4372 18.0002V6.00024ZM17.6025 8.60254C17.8222 8.38287 18.1783 8.38287 18.3979 8.60254C18.6174 8.82223 18.6175 9.17836 18.3979 9.39795L15.7956 12.0002L18.3979 14.6025C18.6174 14.8222 18.6175 15.1784 18.3979 15.3979C18.1783 15.6175 17.8222 15.6174 17.6025 15.3979L15.0002 12.7957L12.3979 15.3979C12.1783 15.6175 11.8222 15.6174 11.6025 15.3979C11.3829 15.1783 11.3829 14.8222 11.6025 14.6025L14.2048 12.0002L11.6025 9.39795C11.3829 9.17828 11.3829 8.82221 11.6025 8.60254C11.8222 8.38287 12.1783 8.38287 12.3979 8.60254L15.0002 11.2048L17.6025 8.60254ZM23.5622 18.0002C23.5622 18.6798 23.2927 19.3318 22.8122 19.8123C22.3317 20.2928 21.6798 20.5622 21.0002 20.5623H7.99974C7.83763 20.5622 7.68316 20.4924 7.5764 20.3704L0.576646 12.3701C0.39124 12.1581 0.391159 11.8417 0.576646 11.6296L7.5764 3.62939L7.61888 3.58618C7.72212 3.49109 7.85793 3.43756 7.99974 3.4375H21.0002L21.1269 3.44043C21.7603 3.47182 22.3617 3.73768 22.8122 4.18823C23.2926 4.66877 23.5622 5.32074 23.5622 6.00024V18.0002Z"/>
</svg>