<svg xmlns="http://www.w3.org/2000/svg" width="24" height="24" fill="currentcolor" class="icon-disc" viewBox="0 0 24 24">
  <path d="M21.4377 11.9998C21.4376 6.78768 17.2119 2.5625 11.9998 2.5625C6.78776 2.56263 2.56263 6.78776 2.5625 11.9998C2.5625 17.2119 6.78768 21.4376 11.9998 21.4377C17.2119 21.4377 21.4377 17.2119 21.4377 11.9998ZM14.4373 11.9998C14.4371 10.6537 13.3459 9.56226 11.9998 9.56226C10.6538 9.56239 9.56239 10.6538 9.56226 11.9998C9.56226 13.3459 10.6537 14.4371 11.9998 14.4373C13.3459 14.4373 14.4373 13.3459 14.4373 11.9998ZM15.5623 11.9998C15.5623 13.9673 13.9673 15.5623 11.9998 15.5623C10.0324 15.5621 8.43726 13.9672 8.43726 11.9998C8.43739 10.0324 10.0324 8.43739 11.9998 8.43726C13.9672 8.43726 15.5621 10.0324 15.5623 11.9998ZM22.5627 11.9998C22.5627 17.8333 17.8333 22.5627 11.9998 22.5627C6.16636 22.5626 1.4375 17.8332 1.4375 11.9998C1.43763 6.16644 6.16644 1.43763 11.9998 1.4375C17.8332 1.4375 22.5626 6.16636 22.5627 11.9998Z"/>
</svg>