<svg xmlns="http://www.w3.org/2000/svg" width="24" height="24" fill="currentcolor" class="icon-divide" viewBox="0 0 24 24">
  <path d="M13.4375 18.0002C13.4375 17.2063 12.7937 16.5625 11.9998 16.5625C11.206 16.5626 10.5627 17.2064 10.5627 18.0002C10.5629 18.794 11.206 19.4371 11.9998 19.4373C12.7936 19.4373 13.4374 18.794 13.4375 18.0002ZM19.0002 11.4377C19.3108 11.4379 19.5627 11.6897 19.5627 12.0002C19.5626 12.3107 19.3107 12.5626 19.0002 12.5627H5C4.68942 12.5627 4.43763 12.3108 4.4375 12.0002C4.4375 11.6896 4.68934 11.4377 5 11.4377H19.0002ZM13.4375 6.00024C13.4375 5.20633 12.7937 4.5625 11.9998 4.5625C11.206 4.56263 10.5627 5.20642 10.5627 6.00024C10.5629 6.79396 11.206 7.43712 11.9998 7.43726C12.7936 7.43726 13.4374 6.79404 13.4375 6.00024ZM14.5625 18.0002C14.5624 19.4154 13.4149 20.5623 11.9998 20.5623C10.5847 20.5621 9.43788 19.4153 9.43774 18.0002C9.43774 16.5851 10.5846 15.4376 11.9998 15.4375C13.415 15.4375 14.5625 16.585 14.5625 18.0002ZM14.5625 6.00024C14.5624 7.41536 13.4149 8.56226 11.9998 8.56226C10.5847 8.56212 9.43788 7.41528 9.43774 6.00024C9.43774 4.5851 10.5846 3.43763 11.9998 3.4375C13.415 3.4375 14.5625 4.58501 14.5625 6.00024Z"/>
</svg>