<svg xmlns="http://www.w3.org/2000/svg" width="24" height="24" fill="currentcolor" class="icon-dollar-sign" viewBox="0 0 24 24">
  <path d="M17.4375 15.4998C17.4374 14.7208 17.1277 13.9734 16.5769 13.4226C16.026 12.8719 15.2787 12.5627 14.4998 12.5627H12.5625V18.4375H14.4998C15.2788 18.4375 16.026 18.1278 16.5769 17.5769C17.1278 17.026 17.4375 16.2788 17.4375 15.4998ZM18.5625 15.4998C18.5625 16.5772 18.1342 17.6104 17.3723 18.3723C16.6104 19.1342 15.5772 19.5625 14.4998 19.5625H12.5625V22.9998C12.5625 23.3104 12.3107 23.5623 12 23.5623C11.6893 23.5623 11.4375 23.3104 11.4375 22.9998V19.5625H6C5.68934 19.5625 5.4375 19.3107 5.4375 19C5.4375 18.6893 5.68934 18.4375 6 18.4375H11.4375V12.5627H9.50024C8.42286 12.5627 7.38954 12.1343 6.62769 11.3726C5.86582 10.6107 5.4375 9.57744 5.4375 8.5C5.4375 7.42256 5.86582 6.38931 6.62769 5.62744C7.38954 4.86565 8.42286 4.43726 9.50024 4.43726H11.4375V1C11.4375 0.68934 11.6893 0.4375 12 0.4375C12.3107 0.4375 12.5625 0.68934 12.5625 1V4.43726H17.0002C17.3107 4.43739 17.5626 4.68929 17.5627 4.99976C17.5627 5.31033 17.3108 5.56212 17.0002 5.56226H12.5625V11.4377H14.4998C15.5771 11.4377 16.6105 11.8655 17.3723 12.6272C18.1341 13.389 18.5624 14.4224 18.5625 15.4998ZM6.5625 8.5C6.5625 9.27907 6.87221 10.0263 7.4231 10.5771C7.97397 11.128 8.72123 11.4377 9.50024 11.4377H11.4375V5.56226H9.50024C8.72123 5.56226 7.97397 5.87204 7.4231 6.42285C6.87221 6.97374 6.5625 7.72093 6.5625 8.5Z"/>
</svg>