<svg xmlns="http://www.w3.org/2000/svg" width="24" height="24" fill="currentcolor" class="icon-dollar-sign-2" viewBox="0 0 24 24">
  <path d="M12.1563 3.79102C13.4277 3.91406 14.6582 4.16016 15.5605 4.40625C15.9297 4.48828 16.1348 4.81641 16.0527 5.18555C15.9707 5.55469 15.6016 5.75977 15.2734 5.67773C13.9199 5.34961 11.9102 4.93945 10.1465 5.10352C9.28516 5.18555 8.54688 5.34961 8.01367 5.71875C7.48047 6.08789 7.11133 6.58008 6.94727 7.35938C6.82422 7.97461 6.90625 8.42578 7.07031 8.75391C7.23438 9.12305 7.52149 9.41016 7.97266 9.69727C8.875 10.2715 10.1875 10.5996 11.6641 11.0098H11.7051C13.0996 11.3789 14.6172 11.7891 15.6836 12.4863C16.2578 12.8555 16.75 13.3066 17.0781 13.9219C17.3652 14.5781 17.4473 15.3164 17.3242 16.1367C17.0371 17.5312 16.0527 18.4746 14.7402 19.0078C13.9609 19.2949 13.0996 19.459 12.1563 19.5V21.4688C12.1563 21.8379 11.8281 22.125 11.5 22.125C11.1309 22.125 10.8438 21.8379 10.8438 21.4688V19.459C10.5566 19.418 10.3105 19.418 10.0645 19.377C8.95703 19.2129 7.35742 18.8438 5.96289 18.2285C5.63477 18.1055 5.4707 17.6953 5.63477 17.3672C5.75781 17.0391 6.16797 16.875 6.49609 17.0391C7.72656 17.5723 9.24414 17.9004 10.2285 18.0645C11.8281 18.3105 13.2227 18.1875 14.248 17.7773C15.2734 17.3672 15.8477 16.752 16.0117 15.8906C16.1348 15.2754 16.0527 14.8652 15.8887 14.4961C15.7246 14.168 15.4375 13.8398 14.9863 13.5938C14.084 13.0195 12.7715 12.6504 11.2949 12.2812L11.2539 12.2402C9.85938 11.8711 8.3418 11.502 7.27539 10.8047C6.70117 10.4355 6.20899 9.94336 5.88086 9.32812C5.59375 8.71289 5.51172 7.97461 5.63477 7.11328C5.88086 5.96484 6.45508 5.18555 7.27539 4.61133C8.0957 4.11914 9.08008 3.87305 10.0645 3.79102C10.3105 3.75 10.5566 3.75 10.8438 3.75V1.78125C10.8438 1.45312 11.1309 1.125 11.5 1.125C11.8281 1.125 12.1563 1.45312 12.1563 1.78125V3.79102Z"/>
</svg>