<svg xmlns="http://www.w3.org/2000/svg" width="24" height="24" fill="currentcolor" class="icon-dollar-sign-2" viewBox="0 0 24 24">
  <path d="M12.1562 3.79102C13.4276 3.91406 14.6581 4.16016 15.5605 4.40625C15.9296 4.48828 16.1347 4.81641 16.0526 5.18555C15.9706 5.55469 15.6015 5.75977 15.2733 5.67773C13.9198 5.34961 11.9101 4.93945 10.1464 5.10352C9.28507 5.18555 8.54678 5.34961 8.01358 5.71875C7.48038 6.08789 7.11124 6.58008 6.94718 7.35938C6.82413 7.97461 6.90616 8.42578 7.07022 8.75391C7.23428 9.12305 7.52139 9.41016 7.97257 9.69727C8.87491 10.2715 10.1874 10.5996 11.664 11.0098H11.705C13.0995 11.3789 14.6171 11.7891 15.6835 12.4863C16.2577 12.8555 16.7499 13.3066 17.078 13.9219C17.3651 14.5781 17.4472 15.3164 17.3241 16.1367C17.037 17.5312 16.0526 18.4746 14.7401 19.0078C13.9608 19.2949 13.0995 19.459 12.1562 19.5V21.4688C12.1562 21.8379 11.828 22.125 11.4999 22.125C11.1308 22.125 10.8437 21.8379 10.8437 21.4688V19.459C10.5566 19.418 10.3105 19.418 10.0644 19.377C8.95694 19.2129 7.35733 18.8438 5.9628 18.2285C5.63468 18.1055 5.47061 17.6953 5.63468 17.3672C5.75772 17.0391 6.16788 16.875 6.496 17.0391C7.72647 17.5723 9.24405 17.9004 10.2284 18.0645C11.828 18.3105 13.2226 18.1875 14.248 17.7773C15.2733 17.3672 15.8476 16.752 16.0116 15.8906C16.1347 15.2754 16.0526 14.8652 15.8886 14.4961C15.7245 14.168 15.4374 13.8398 14.9862 13.5938C14.0839 13.0195 12.7714 12.6504 11.2948 12.2812L11.2538 12.2402C9.85928 11.8711 8.34171 11.502 7.2753 10.8047C6.70108 10.4355 6.20889 9.94336 5.88077 9.32812C5.59366 8.71289 5.51163 7.97461 5.63468 7.11328C5.88077 5.96484 6.45499 5.18555 7.2753 4.61133C8.09561 4.11914 9.07999 3.87305 10.0644 3.79102C10.3105 3.75 10.5566 3.75 10.8437 3.75V1.78125C10.8437 1.45312 11.1308 1.125 11.4999 1.125C11.828 1.125 12.1562 1.45312 12.1562 1.78125V3.79102Z"/>
</svg>