<svg xmlns="http://www.w3.org/2000/svg" width="24" height="24" fill="currentcolor" class="icon-download-cloud" viewBox="0 0 24 24">
  <path d="M11.4378 12C11.4378 11.6894 11.6897 11.4375 12.0003 11.4375C12.3109 11.4376 12.5628 11.6894 12.5628 12V19.6421L15.6024 16.6026C15.822 16.3829 16.1781 16.3829 16.3978 16.6026C16.6174 16.8222 16.6174 17.1783 16.3978 17.398L12.398 21.3977C12.1784 21.6174 11.8223 21.6173 11.6026 21.3977L7.60285 17.398C7.38318 17.1783 7.38318 16.8222 7.60285 16.6026C7.82252 16.3829 8.17859 16.3829 8.39826 16.6026L11.4378 19.6421V12ZM8.68391 2.43167C9.97814 2.38518 11.2661 2.6328 12.4508 3.15603C13.6354 3.67928 14.6859 4.46424 15.5233 5.45218C16.2658 6.32833 16.8234 7.34404 17.1646 8.43753H18.0003C19.1825 8.43671 20.334 8.81259 21.2882 9.51053C22.2425 10.2087 22.9496 11.1929 23.3067 12.3201C23.6638 13.4472 23.6526 14.6591 23.2745 15.7793C22.8963 16.8995 22.171 17.87 21.2039 18.5501C20.9499 18.7287 20.599 18.6677 20.4202 18.4138C20.2416 18.1598 20.3026 17.8089 20.5565 17.6302C21.3281 17.0876 21.9071 16.3127 22.2088 15.419C22.5104 14.5254 22.5192 13.559 22.2344 12.6599C21.9495 11.7607 21.3851 10.9757 20.6238 10.4187C19.8627 9.86193 18.9441 9.56187 18.001 9.56253H16.7405C16.4838 9.56253 16.2595 9.38857 16.1956 9.13992C15.916 8.05022 15.3929 7.03772 14.6656 6.17947C13.9382 5.32121 13.025 4.63962 11.9959 4.18509C10.9669 3.73063 9.84836 3.51554 8.72419 3.55594C7.5999 3.59637 6.49899 3.89072 5.5052 4.418C4.51143 4.94527 3.65021 5.69162 2.9864 6.59988C2.32265 7.50812 1.87377 8.55524 1.67317 9.66214C1.47258 10.769 1.52564 11.9069 1.82844 12.9903C2.13129 14.0737 2.67595 15.0745 3.42146 15.917C3.62728 16.1496 3.6056 16.5051 3.37312 16.711C3.14048 16.9168 2.78505 16.8953 2.57917 16.6626C1.72088 15.6927 1.09387 14.5408 0.745187 13.2935C0.39652 12.0461 0.334801 10.7358 0.565743 9.46145C0.796707 8.18703 1.31395 6.98125 2.07819 5.93557C2.84234 4.89008 3.83395 4.03183 4.97785 3.42483C6.12197 2.8178 7.38956 2.47822 8.68391 2.43167Z"/>
</svg>