<svg xmlns="http://www.w3.org/2000/svg" width="24" height="24" fill="currentcolor" class="icon-download-cloud" viewBox="0 0 24 24">
  <path d="M11.4378 12.0001C11.4378 11.6894 11.6897 11.4376 12.0003 11.4376C12.3109 11.4376 12.5628 11.6895 12.5628 12.0001V19.6422L15.6024 16.6026C15.822 16.383 16.1781 16.383 16.3978 16.6026C16.6174 16.8223 16.6174 17.1784 16.3978 17.398L12.398 21.3978C12.1784 21.6174 11.8223 21.6174 11.6026 21.3978L7.60285 17.398C7.38318 17.1784 7.38318 16.8223 7.60285 16.6026C7.82252 16.383 8.17859 16.383 8.39826 16.6026L11.4378 19.6422V12.0001ZM8.68391 2.43173C9.97814 2.38524 11.2661 2.63286 12.4508 3.15609C13.6354 3.67934 14.6859 4.4643 15.5233 5.45224C16.2658 6.32839 16.8234 7.3441 17.1646 8.43759H18.0003C19.1825 8.43677 20.334 8.81265 21.2882 9.51059C22.2425 10.2087 22.9496 11.193 23.3067 12.3202C23.6638 13.4473 23.6526 14.6591 23.2745 15.7794C22.8963 16.8995 22.171 17.8701 21.2039 18.5501C20.9499 18.7288 20.599 18.6678 20.4202 18.4139C20.2416 18.1599 20.3026 17.809 20.5565 17.6302C21.3281 17.0876 21.9071 16.3128 22.2088 15.419C22.5104 14.5255 22.5192 13.559 22.2344 12.66C21.9495 11.7608 21.3851 10.9757 20.6238 10.4188C19.8627 9.86199 18.9441 9.56193 18.001 9.56259H16.7405C16.4838 9.56259 16.2595 9.38863 16.1956 9.13998C15.916 8.05028 15.3929 7.03778 14.6656 6.17953C13.9382 5.32127 13.025 4.63968 11.9959 4.18515C10.9669 3.73069 9.84836 3.5156 8.72419 3.556C7.5999 3.59643 6.49899 3.89078 5.5052 4.41806C4.51143 4.94533 3.65021 5.69168 2.9864 6.59994C2.32265 7.50818 1.87377 8.5553 1.67317 9.6622C1.47258 10.7691 1.52564 11.9069 1.82844 12.9903C2.13129 14.0738 2.67595 15.0746 3.42146 15.9171C3.62728 16.1497 3.6056 16.5051 3.37312 16.711C3.14048 16.9169 2.78505 16.8953 2.57917 16.6627C1.72088 15.6928 1.09387 14.5409 0.745187 13.2935C0.39652 12.0462 0.334801 10.7359 0.565743 9.46151C0.796707 8.18709 1.31395 6.98131 2.07819 5.93564C2.84234 4.89015 3.83395 4.03189 4.97785 3.42489C6.12197 2.81786 7.38956 2.47828 8.68391 2.43173Z"/>
</svg>