<svg xmlns="http://www.w3.org/2000/svg" width="24" height="24" fill="currentcolor" class="icon-download-cloud" viewBox="0 0 24 24">
  <path d="M11.4376 12.0001C11.4376 11.6894 11.6894 11.4376 12.0001 11.4376C12.3107 11.4376 12.5626 11.6895 12.5626 12.0001V19.6422L15.6021 16.6026C15.8218 16.383 16.1779 16.383 16.3975 16.6026C16.6171 16.8223 16.6172 17.1784 16.3975 17.398L12.3978 21.3978C12.1781 21.6174 11.822 21.6174 11.6024 21.3978L7.60261 17.398C7.38294 17.1784 7.38294 16.8223 7.60261 16.6026C7.82228 16.383 8.17835 16.383 8.39802 16.6026L11.4376 19.6422V12.0001ZM8.68366 2.43173C9.9779 2.38524 11.2658 2.63286 12.4505 3.15609C13.6351 3.67934 14.6857 4.4643 15.523 5.45224C16.2655 6.32839 16.8231 7.3441 17.1644 8.43759H18.0001C19.1822 8.43677 20.3338 8.81265 21.2879 9.51059C22.2422 10.2087 22.9493 11.193 23.3065 12.3202C23.6635 13.4473 23.6524 14.6591 23.2742 15.7794C22.8961 16.8995 22.1708 17.8701 21.2037 18.5501C20.9497 18.7288 20.5987 18.6678 20.42 18.4139C20.2414 18.1599 20.3024 17.809 20.5562 17.6302C21.3278 17.0876 21.9069 16.3128 22.2086 15.419C22.5101 14.5255 22.519 13.559 22.2342 12.66C21.9493 11.7608 21.3849 10.9757 20.6236 10.4188C19.8624 9.86199 18.9439 9.56193 18.0008 9.56259H16.7403C16.4836 9.56259 16.2593 9.38863 16.1954 9.13998C15.9158 8.05028 15.3927 7.03778 14.6654 6.17953C13.938 5.32127 13.0248 4.63968 11.9957 4.18515C10.9667 3.73069 9.84812 3.5156 8.72395 3.556C7.59966 3.59643 6.49875 3.89078 5.50495 4.41806C4.51118 4.94533 3.64997 5.69168 2.98615 6.59994C2.3224 7.50818 1.87352 8.5553 1.67292 9.6622C1.47234 10.7691 1.5254 11.9069 1.82819 12.9903C2.13105 14.0738 2.67571 15.0746 3.42121 15.9171C3.62704 16.1497 3.60536 16.5051 3.37287 16.711C3.14023 16.9169 2.78481 16.8953 2.57893 16.6627C1.72063 15.6928 1.09363 14.5409 0.744943 13.2935C0.396276 12.0462 0.334557 10.7359 0.565499 9.46151C0.796463 8.18709 1.31371 6.98131 2.07795 5.93564C2.84209 4.89015 3.8337 4.03189 4.97761 3.42489C6.12173 2.81786 7.38932 2.47828 8.68366 2.43173Z"/>
</svg>