<svg xmlns="http://www.w3.org/2000/svg" width="24" height="24" fill="currentcolor" class="icon-download" viewBox="0 0 24 24">
  <path d="M2.4375 18.9998V15C2.4375 14.6893 2.68934 14.4375 3 14.4375C3.31066 14.4375 3.5625 14.6893 3.5625 15V18.9998L3.56982 19.1418C3.60246 19.471 3.74771 19.7804 3.98364 20.0164C4.25323 20.2859 4.619 20.4375 5.00024 20.4375H18.9998C19.381 20.4375 19.7468 20.2859 20.0164 20.0164C20.2859 19.7468 20.4375 19.381 20.4375 18.9998V15C20.4375 14.6893 20.6893 14.4375 21 14.4375C21.3107 14.4375 21.5625 14.6893 21.5625 15V18.9998C21.5625 19.6794 21.2923 20.3312 20.8118 20.8118C20.3312 21.2923 19.6794 21.5625 18.9998 21.5625H5.00024C4.32063 21.5625 3.66879 21.2923 3.18823 20.8118C2.73773 20.3613 2.47188 19.7605 2.44043 19.1272L2.4375 18.9998ZM11.4375 3C11.4375 2.68934 11.6893 2.4375 12 2.4375C12.3107 2.4375 12.5625 2.68934 12.5625 3V13.6421L16.6025 9.60205C16.8222 9.38262 17.1784 9.38246 17.3979 9.60205C17.6175 9.82164 17.6174 10.1778 17.3979 10.3975L12.3977 15.3977C12.178 15.6174 11.822 15.6174 11.6023 15.3977L6.60205 10.3975C6.38263 10.1778 6.38246 9.82164 6.60205 9.60205C6.82164 9.38246 7.17777 9.38263 7.39746 9.60205L11.4375 13.6421V3Z"/>
</svg>