<svg xmlns="http://www.w3.org/2000/svg" width="24" height="24" fill="currentcolor" class="icon-dribbble" viewBox="0 0 24 24">
  <path d="M21.4377 11.9998C21.4377 9.66366 20.5865 7.52764 19.1804 5.87964C17.5875 7.61415 15.7414 8.84212 13.5789 9.70068C13.7128 9.97278 13.8442 10.2465 13.9714 10.5239C14.1658 10.9477 14.3512 11.3792 14.5317 11.8203C16.5357 11.4788 18.8941 11.5648 21.4348 12.1814C21.436 12.1211 21.4377 12.0604 21.4377 11.9998ZM13.833 13.116C13.5429 13.1903 13.2642 13.2749 12.998 13.3694L12.9988 13.3701C10.612 14.2213 8.3169 16.01 5.98364 19.2705C7.61693 20.6236 9.71312 21.4377 11.9998 21.4377C13.4405 21.4377 14.8051 21.1127 16.0266 20.5354C15.2948 17.5203 14.6126 15.1728 13.833 13.116ZM21.3447 13.3181C18.959 12.7169 16.7791 12.6185 14.9514 12.8933C15.7002 14.8982 16.3559 17.1577 17.0461 19.9729C19.3328 18.5226 20.9533 16.1185 21.3447 13.3181ZM8.27979 3.32495C5.39964 4.5617 3.25855 7.18994 2.70386 10.3643C6.39059 10.2534 9.43442 9.8845 11.9895 9.07373C11.0084 7.26045 9.82151 5.46345 8.27979 3.32495ZM11.9998 2.5625C11.091 2.56252 10.2122 2.69115 9.38062 2.93091C10.8897 5.03683 12.0734 6.84526 13.0625 8.6958C15.1598 7.8787 16.9051 6.70906 18.3997 5.06592C16.7175 3.51265 14.4699 2.5625 11.9998 2.5625ZM2.5625 11.9998C2.5625 14.517 3.54971 16.8028 5.15601 18.4949C7.55171 15.1821 9.98906 13.2488 12.6208 12.3103L12.6216 12.3096C12.8774 12.2188 13.1425 12.1371 13.4155 12.0635C13.2643 11.7 13.1097 11.3438 12.949 10.9934C12.8088 10.6878 12.6644 10.3856 12.5154 10.0859C9.73377 10.9984 6.46001 11.3845 2.57568 11.4929C2.5668 11.6607 2.5625 11.8297 2.5625 11.9998ZM22.5627 11.9998C22.5627 17.8333 17.8333 22.5627 11.9998 22.5627C6.16636 22.5626 1.4375 17.8332 1.4375 11.9998C1.43763 6.16644 6.16644 1.43763 11.9998 1.4375C17.8332 1.4375 22.5626 6.16636 22.5627 11.9998Z"/>
</svg>