<svg xmlns="http://www.w3.org/2000/svg" width="24" height="24" fill="currentcolor" class="icon-droplet" viewBox="0 0 24 24">
  <path d="M12.0001 2.1275C12.1493 2.12753 12.2924 2.18683 12.3978 2.2923L18.058 7.95245C19.2558 9.14962 20.0716 10.6751 20.4025 12.336C20.7333 13.9971 20.5641 15.7193 19.9162 17.2842C19.2682 18.8491 18.1705 20.1869 16.7623 21.128C15.3543 22.0689 13.6988 22.5708 12.0053 22.5709C10.3116 22.5709 8.65564 22.069 7.24746 21.128C5.83925 20.1869 4.74156 18.8491 4.09365 17.2842C3.44574 15.7193 3.27648 13.9971 3.60732 12.336C3.93814 10.6752 4.75404 9.14961 5.9518 7.95245L11.6017 2.2923L11.6874 2.22198C11.7791 2.1607 11.8882 2.12755 12.0001 2.1275ZM6.74794 8.74713V8.74786C5.70736 9.78776 4.99848 11.113 4.71108 12.5557C4.42372 13.9985 4.57026 15.4943 5.13295 16.8536C5.69573 18.2129 6.64904 19.3752 7.87221 20.1927C9.09541 21.0101 10.5341 21.4459 12.0053 21.4459C13.4763 21.4458 14.9145 21.0101 16.1376 20.1927C17.3608 19.3752 18.3141 18.2129 18.8768 16.8536C19.4396 15.4943 19.5868 13.9985 19.2995 12.5557C19.03 11.2032 18.39 9.95406 17.4538 8.94635L17.2626 8.74786L12.0001 3.48541L6.74794 8.74713Z"/>
</svg>