<svg xmlns="http://www.w3.org/2000/svg" width="24" height="24" fill="currentcolor" class="icon-droplet" viewBox="0 0 24 24">
  <path d="M12.0001 2.12744C12.1493 2.12747 12.2924 2.18677 12.3978 2.29224L18.058 7.95239C19.2558 9.14956 20.0716 10.6751 20.4025 12.3359C20.7333 13.9971 20.5641 15.7193 19.9162 17.2842C19.2682 18.849 18.1705 20.1868 16.7623 21.1279C15.3543 22.0689 13.6988 22.5708 12.0053 22.5708C10.3116 22.5708 8.65564 22.069 7.24746 21.1279C5.83925 20.1868 4.74156 18.8491 4.09365 17.2842C3.44574 15.7193 3.27648 13.9971 3.60732 12.3359C3.93814 10.6751 4.75404 9.14955 5.9518 7.95239L11.6017 2.29224L11.6874 2.22192C11.7791 2.16064 11.8882 2.12749 12.0001 2.12744ZM6.74794 8.74707V8.7478C5.70736 9.7877 4.99848 11.1129 4.71108 12.5557C4.42372 13.9984 4.57026 15.4943 5.13295 16.8535C5.69573 18.2128 6.64904 19.3752 7.87221 20.1926C9.09541 21.0101 10.5341 21.4458 12.0053 21.4458C13.4763 21.4458 14.9145 21.01 16.1376 20.1926C17.3608 19.3752 18.3141 18.2128 18.8768 16.8535C19.4396 15.4943 19.5868 13.9985 19.2995 12.5557C19.03 11.2031 18.39 9.954 17.4538 8.94629L17.2626 8.7478L12.0001 3.48535L6.74794 8.74707Z"/>
</svg>