<svg xmlns="http://www.w3.org/2000/svg" width="24" height="24" fill="currentcolor" class="icon-edit-3" viewBox="0 0 24 24">
  <path d="M19.5586 4.99976C19.5586 4.79513 19.5183 4.59261 19.4399 4.40356C19.3616 4.21444 19.2471 4.04221 19.1023 3.89746C18.9576 3.75276 18.7853 3.63813 18.5962 3.55981C18.4072 3.48156 18.2046 3.44116 18 3.44116C17.5866 3.44116 17.19 3.6052 16.8977 3.89746L4.50733 16.2871L3.77271 19.2263L6.71192 18.4917L19.1023 6.10205C19.2469 5.95738 19.3616 5.78567 19.4399 5.59668C19.5183 5.40755 19.5586 5.20446 19.5586 4.99976ZM21 19.4373C21.3106 19.4373 21.5624 19.6892 21.5625 19.9998C21.5625 20.3104 21.3107 20.5623 21 20.5623H12C11.6893 20.5623 11.4375 20.3104 11.4375 19.9998C11.4376 19.6892 11.6894 19.4373 12 19.4373H21ZM20.6836 4.99976C20.6836 5.3522 20.6141 5.70173 20.4793 6.02734C20.3444 6.35277 20.1468 6.64836 19.8977 6.89746L7.39747 19.3977C7.32547 19.4697 7.23546 19.5209 7.13673 19.5457L3.13624 20.5454C2.94459 20.5933 2.74199 20.5371 2.6023 20.3975C2.46267 20.2578 2.40644 20.0552 2.45435 19.8635L3.45411 15.8638L3.47755 15.7913C3.50572 15.7207 3.54801 15.6564 3.60206 15.6023L16.1023 3.10205C16.6056 2.59881 17.2883 2.31616 18 2.31616C18.3524 2.31616 18.7013 2.38567 19.0269 2.52051C19.3524 2.65536 19.6485 2.85289 19.8977 3.10205C20.1469 3.35124 20.3444 3.64733 20.4793 3.9729C20.6141 4.29845 20.6836 4.64739 20.6836 4.99976Z"/>
</svg>