<svg xmlns="http://www.w3.org/2000/svg" width="24" height="24" fill="currentcolor" class="icon-edit-2" viewBox="0 0 24 24">
  <path d="M21.2656 5.00024C21.2656 4.70272 21.2074 4.40793 21.0935 4.13306C20.9797 3.85814 20.8125 3.60812 20.6021 3.39771C20.3917 3.1874 20.1422 3.0201 19.8675 2.90625C19.5926 2.79241 19.2977 2.73416 19.0003 2.73413C18.7028 2.73413 18.4079 2.79246 18.1331 2.90625C17.8582 3.02012 17.6081 3.18731 17.3977 3.39771L4.00319 16.7915L2.80129 21.1978L7.20754 19.9958L20.6021 6.60205C20.8124 6.39169 20.9797 6.14226 21.0935 5.86743C21.2074 5.59258 21.2656 5.29775 21.2656 5.00024ZM22.3906 5.00024C22.3906 5.44538 22.3031 5.8861 22.1328 6.29736C21.9624 6.70876 21.7123 7.08259 21.3975 7.39746L7.89748 20.8975C7.82826 20.9667 7.74217 21.0167 7.64773 21.0425L2.14797 22.5425C1.95323 22.5956 1.74505 22.5402 1.60232 22.3975C1.45969 22.2547 1.4042 22.0465 1.4573 21.8518L2.9573 16.3521C2.98305 16.2576 3.0331 16.1715 3.10232 16.1023L16.6023 2.60229C16.9172 2.28743 17.291 2.03735 17.7024 1.86694C18.1138 1.69657 18.555 1.60913 19.0003 1.60913C19.4454 1.60916 19.8862 1.69666 20.2974 1.86694C20.7087 2.03733 21.0826 2.28749 21.3975 2.60229C21.7124 2.91717 21.9624 3.29099 22.1328 3.70239C22.3032 4.1138 22.3906 4.55494 22.3906 5.00024Z"/>
</svg>