<svg xmlns="http://www.w3.org/2000/svg" width="24" height="24" fill="currentcolor" class="icon-edit" viewBox="0 0 24 24">
  <path d="M1.4375 20.0002V6C1.4375 5.32038 1.70767 4.66855 2.18823 4.18799C2.66878 3.7075 3.32068 3.43726 4.00024 3.43726H11C11.3106 3.43726 11.5624 3.6892 11.5625 3.99976C11.5625 4.31042 11.3107 4.56226 11 4.56226H4.00024C3.61905 4.56226 3.25322 4.71389 2.98364 4.9834C2.71406 5.25298 2.5625 5.61875 2.5625 6V20.0002C2.56257 20.3813 2.71419 20.7466 2.98364 21.0161C3.25323 21.2857 3.619 21.4373 4.00024 21.4373H17.9998C18.381 21.4373 18.7468 21.2857 19.0164 21.0161C19.2858 20.7466 19.4374 20.3813 19.4375 20.0002V12.9998C19.4376 12.6892 19.6894 12.4373 20 12.4373C20.3106 12.4373 20.5624 12.6892 20.5625 12.9998V20.0002C20.5624 20.6798 20.2923 21.3318 19.8118 21.8123C19.3312 22.2927 18.6793 22.5623 17.9998 22.5623H4.00024C3.32075 22.5623 2.66877 22.2927 2.18823 21.8123C1.70773 21.3318 1.43757 20.6798 1.4375 20.0002ZM21.5586 3.99976C21.5585 3.58641 21.3946 3.18974 21.1023 2.89746C20.81 2.6052 20.4134 2.44116 20 2.44116C19.5866 2.44116 19.19 2.6052 18.8977 2.89746L9.50732 12.2871L8.77271 15.2263L11.7119 14.4917L21.1023 5.10205C21.3946 4.80973 21.5586 4.41313 21.5586 3.99976ZM22.6836 3.99976C22.6836 4.7115 22.4009 5.39416 21.8977 5.89746L12.3975 15.3977C12.3255 15.4697 12.2355 15.5209 12.1367 15.5457L8.13623 16.5454C7.94458 16.5933 7.74198 16.5371 7.60229 16.3975C7.46266 16.2578 7.40644 16.0552 7.45435 15.8635L8.4541 11.8638L8.47754 11.7913C8.50571 11.7207 8.548 11.6564 8.60205 11.6023L18.1023 2.10205C18.6056 1.59881 19.2883 1.31616 20 1.31616C20.7117 1.31616 21.3944 1.59881 21.8977 2.10205C22.401 2.60531 22.6835 3.28804 22.6836 3.99976Z"/>
</svg>