<svg xmlns="http://www.w3.org/2000/svg" width="24" height="24" fill="currentcolor" class="icon-edit-2" viewBox="0 0 24 24">
  <path d="M21.2656 5.00018C21.2656 4.70266 21.2074 4.40787 21.0935 4.133C20.9797 3.85808 20.8125 3.60806 20.6021 3.39764C20.3917 3.18734 20.1422 3.02003 19.8675 2.90619C19.5926 2.79235 19.2977 2.7341 19.0003 2.73407C18.7028 2.73407 18.4079 2.79239 18.1331 2.90619C17.8582 3.02006 17.6081 3.18725 17.3977 3.39764L4.00319 16.7914L2.80129 21.1977L7.20754 19.9958L20.6021 6.60199C20.8124 6.39163 20.9797 6.1422 21.0935 5.86737C21.2074 5.59251 21.2656 5.29769 21.2656 5.00018ZM22.3906 5.00018C22.3906 5.44531 22.3031 5.88604 22.1328 6.2973C21.9624 6.7087 21.7123 7.08253 21.3975 7.3974L7.89748 20.8974C7.82826 20.9666 7.74217 21.0167 7.64773 21.0424L2.14797 22.5424C1.95323 22.5955 1.74505 22.5401 1.60232 22.3974C1.45969 22.2547 1.4042 22.0464 1.4573 21.8517L2.9573 16.352C2.98305 16.2575 3.0331 16.1715 3.10232 16.1022L16.6023 2.60223C16.9172 2.28737 17.291 2.03729 17.7024 1.86688C18.1138 1.69651 18.555 1.60907 19.0003 1.60907C19.4454 1.6091 19.8862 1.6966 20.2974 1.86688C20.7087 2.03727 21.0826 2.28743 21.3975 2.60223C21.7124 2.91711 21.9624 3.29093 22.1328 3.70233C22.3032 4.11374 22.3906 4.55488 22.3906 5.00018Z"/>
</svg>