<svg xmlns="http://www.w3.org/2000/svg" width="24" height="24" fill="currentcolor" class="icon-edit-3" viewBox="0 0 24 24">
  <path d="M19.5585 4.99976C19.5585 4.79513 19.5182 4.59261 19.4399 4.40356C19.3616 4.21444 19.247 4.04221 19.1022 3.89746C18.9575 3.75276 18.7852 3.63813 18.5961 3.55981C18.4071 3.48156 18.2045 3.44116 17.9999 3.44116C17.5866 3.44116 17.19 3.6052 16.8977 3.89746L4.50727 16.2871L3.77265 19.2263L6.71186 18.4917L19.1022 6.10205C19.2469 5.95738 19.3616 5.78567 19.4399 5.59668C19.5182 5.40755 19.5585 5.20446 19.5585 4.99976ZM20.9999 19.4373C21.3105 19.4373 21.5623 19.6892 21.5624 19.9998C21.5624 20.3104 21.3106 20.5623 20.9999 20.5623H11.9999C11.6893 20.5623 11.4374 20.3104 11.4374 19.9998C11.4376 19.6892 11.6894 19.4373 11.9999 19.4373H20.9999ZM20.6835 4.99976C20.6835 5.3522 20.6141 5.70173 20.4792 6.02734C20.3443 6.35277 20.1467 6.64836 19.8977 6.89746L7.39741 19.3977C7.32541 19.4697 7.2354 19.5209 7.13667 19.5457L3.13618 20.5454C2.94453 20.5933 2.74193 20.5371 2.60224 20.3975C2.46261 20.2578 2.40638 20.0552 2.45429 19.8635L3.45405 15.8638L3.47749 15.7913C3.50566 15.7207 3.54795 15.6564 3.602 15.6023L16.1022 3.10205C16.6055 2.59881 17.2882 2.31616 17.9999 2.31616C18.3523 2.31616 18.7012 2.38567 19.0268 2.52051C19.3524 2.65536 19.6485 2.85289 19.8977 3.10205C20.1468 3.35124 20.3443 3.64733 20.4792 3.9729C20.614 4.29845 20.6835 4.64739 20.6835 4.99976Z"/>
</svg>