<svg xmlns="http://www.w3.org/2000/svg" width="24" height="24" fill="currentcolor" class="icon-euro" viewBox="0 0 24 24">
  <path d="M5.59375 10.3125C5.22461 10.3125 4.9375 10.0254 4.9375 9.65625C4.9375 9.32812 5.22461 9 5.59375 9H6.61914C7.72656 5.22656 11.2539 2.4375 15.4375 2.4375H17.4062C17.7754 2.4375 18.0625 2.76562 18.0625 3.09375C18.0625 3.46289 17.7754 3.75 17.4062 3.75H15.4375C11.9922 3.75 9.08008 5.96484 7.97266 9H16.0938C16.4219 9 16.75 9.32812 16.75 9.65625C16.75 10.0254 16.4219 10.3125 16.0938 10.3125H7.64453C7.5625 10.7637 7.5625 11.2148 7.5625 11.625C7.5625 12.0762 7.5625 12.5273 7.64453 12.9375H16.0938C16.4219 12.9375 16.75 13.2656 16.75 13.5938C16.75 13.9629 16.4219 14.25 16.0938 14.25H7.97266C9.08008 17.3262 11.9922 19.5 15.4375 19.5H17.4062C17.7754 19.5 18.0625 19.8281 18.0625 20.1562C18.0625 20.5254 17.7754 20.8125 17.4062 20.8125H15.4375C11.2539 20.8125 7.72656 18.0645 6.61914 14.25H5.59375C5.22461 14.25 4.9375 13.9629 4.9375 13.5938C4.9375 13.2656 5.22461 12.9375 5.59375 12.9375H6.33203C6.25 12.5273 6.25 12.0762 6.25 11.625C6.25 11.2148 6.25 10.7637 6.33203 10.3125H5.59375Z"/>
</svg>