<svg xmlns="http://www.w3.org/2000/svg" width="24" height="24" fill="currentcolor" class="icon-external-link" viewBox="0 0 24 24">
  <path d="M2.4375 18.9998V8.00024C2.4375 7.32063 2.70767 6.66879 3.18823 6.18823C3.66879 5.70767 4.32063 5.4375 5.00024 5.4375H11.0002C11.3108 5.43763 11.5627 5.68942 11.5627 6C11.5627 6.31058 11.3108 6.56237 11.0002 6.5625H5.00024C4.619 6.5625 4.25323 6.71406 3.98364 6.98364C3.71406 7.25323 3.5625 7.619 3.5625 8.00024V18.9998C3.5625 19.381 3.71406 19.7468 3.98364 20.0164C4.25323 20.2859 4.619 20.4375 5.00024 20.4375H15.9998C16.381 20.4375 16.7468 20.2859 17.0164 20.0164C17.2859 19.7468 17.4375 19.381 17.4375 18.9998V12.9998C17.4376 12.6892 17.6894 12.4373 18 12.4373C18.3106 12.4373 18.5624 12.6892 18.5625 12.9998V18.9998C18.5625 19.6794 18.2923 20.3312 17.8118 20.8118C17.3312 21.2923 16.6794 21.5625 15.9998 21.5625H5.00024C4.32063 21.5625 3.66879 21.2923 3.18823 20.8118C2.70767 20.3312 2.4375 19.6794 2.4375 18.9998ZM21.5625 9C21.5625 9.31066 21.3107 9.5625 21 9.5625C20.6893 9.5625 20.4375 9.31066 20.4375 9V4.35791L10.3975 14.3979C10.1778 14.6174 9.82164 14.6175 9.60205 14.3979C9.38246 14.1784 9.38263 13.8222 9.60205 13.6025L19.6421 3.5625H15C14.6893 3.5625 14.4375 3.31066 14.4375 3C14.4375 2.68934 14.6893 2.4375 15 2.4375H21C21.3107 2.4375 21.5625 2.68934 21.5625 3V9Z"/>
</svg>