<svg xmlns="http://www.w3.org/2000/svg" width="24" height="24" fill="currentcolor" class="icon-eye-off" viewBox="0 0 24 24">
  <g clip-path="url(#a)">
    <path d="M0.602306 0.602313C0.821976 0.382644 1.17805 0.382644 1.39772 0.602313L23.3975 22.6021C23.6171 22.8217 23.6171 23.1778 23.3975 23.3975C23.1778 23.6171 22.8217 23.6171 22.6021 23.3975L17.8809 18.6763C16.1557 19.8689 14.1134 20.5279 12.009 20.5623H12.0003C8.27553 20.5623 5.38687 18.435 3.46461 16.3845C2.49848 15.354 1.75971 14.3255 1.26222 13.5552C1.01321 13.1696 0.823304 12.8474 0.695324 12.6199C0.631415 12.5063 0.582701 12.4159 0.549572 12.3533C0.533004 12.322 0.520255 12.2971 0.511486 12.28C0.507147 12.2716 0.503647 12.265 0.501232 12.2603L0.49757 12.2529L0.496838 12.2522V12.2515C0.41521 12.0881 0.417941 11.8953 0.504162 11.7344C1.68479 9.53419 3.28678 7.59009 5.21583 6.01125L0.602306 1.39772C0.382637 1.17805 0.382637 0.821983 0.602306 0.602313ZM6.0149 6.81032C4.23886 8.24542 2.75472 10.0086 1.64088 12.0032C1.65213 12.0235 1.66341 12.0452 1.67604 12.0676C1.79415 12.2776 1.97177 12.5808 2.20704 12.9451C2.67828 13.6747 3.37701 14.6463 4.28566 15.6155C6.1122 17.5637 8.7215 19.4341 11.9937 19.4365C13.8054 19.4064 15.565 18.8585 17.0701 17.8655L14.0994 14.8948C13.8762 15.0669 13.6337 15.2138 13.375 15.3291C12.9381 15.5238 12.4661 15.6283 11.9878 15.6367C11.5096 15.6451 11.0346 15.5573 10.5911 15.3782C10.1475 15.199 9.74431 14.9321 9.40602 14.5938C9.06783 14.2556 8.80075 13.8529 8.62159 13.4094C8.44242 12.9658 8.35461 12.4903 8.36305 12.012C8.37149 11.5337 8.47669 11.0618 8.6714 10.6248C8.78668 10.3661 8.93217 10.1229 9.10426 9.89968L6.0149 6.81032ZM12.0003 3.43752C15.7248 3.43761 18.6129 5.56493 20.5352 7.61525C21.5014 8.64588 22.2408 9.67427 22.7383 10.4446C22.9874 10.8303 23.1765 11.1531 23.3045 11.3806C23.3685 11.4944 23.4171 11.5846 23.4502 11.6472C23.4667 11.6784 23.4795 11.7027 23.4883 11.7197C23.4926 11.728 23.4961 11.7348 23.4985 11.7395C23.4997 11.7418 23.5008 11.744 23.5015 11.7454C23.5018 11.7461 23.5027 11.7471 23.5029 11.7476V11.7483L23.53 11.8106C23.5831 11.959 23.5716 12.1245 23.4963 12.2654C22.8709 13.4355 22.1248 14.5373 21.2705 15.5525C21.169 15.673 21.0214 15.745 20.864 15.7517C20.7066 15.7585 20.5535 15.6991 20.4422 15.5877L9.50196 4.63723C9.35788 4.49284 9.30317 4.28188 9.35914 4.08571C9.41512 3.88953 9.57289 3.73901 9.7715 3.6924C10.5019 3.52143 11.2501 3.43584 12.0003 3.43752ZM9.90919 10.7046C9.8282 10.8238 9.75794 10.9503 9.69899 11.0825C9.56578 11.3815 9.49384 11.7045 9.48805 12.0318C9.48227 12.359 9.54272 12.6841 9.66529 12.9876C9.78787 13.291 9.97003 13.5669 10.2014 13.7984C10.4329 14.0298 10.7087 14.2126 11.0122 14.3352C11.3157 14.4578 11.6408 14.5175 11.968 14.5117C12.2953 14.506 12.6183 14.4347 12.9172 14.3015C13.0495 14.2426 13.1752 14.1709 13.2944 14.0899L9.90919 10.7046ZM11.9988 4.56252C11.6871 4.56179 11.3758 4.57842 11.0664 4.61159L20.7959 14.3499C21.3782 13.6077 21.9003 12.8205 22.3589 11.9959C22.3478 11.9759 22.3369 11.9543 22.3245 11.9321C22.2064 11.7222 22.0286 11.4196 21.7935 11.0554C21.3223 10.3258 20.6235 9.35427 19.7149 8.38503C17.8872 6.43549 15.2754 4.56261 12.0003 4.56252H11.9988Z"/>
  </g>
  <defs>
    <clipPath id="a">
      <path d="M0 0H24V24H0z"/>
    </clipPath>
  </defs>
</svg>