<svg xmlns="http://www.w3.org/2000/svg" width="24" height="24" fill="currentcolor" class="icon-eye-off" viewBox="0 0 24 24">
  <g clip-path="url(#a)">
    <path d="M0.602306 0.602252C0.821976 0.382583 1.17805 0.382583 1.39772 0.602252L23.3975 22.602C23.6171 22.8217 23.6171 23.1777 23.3975 23.3974C23.1778 23.6171 22.8217 23.6171 22.6021 23.3974L17.8809 18.6762C16.1557 19.8689 14.1134 20.5278 12.009 20.5622H12.0003C8.27553 20.5622 5.38687 18.4349 3.46461 16.3845C2.49848 15.3539 1.75971 14.3254 1.26222 13.5551C1.01321 13.1696 0.823304 12.8473 0.695324 12.6198C0.631415 12.5062 0.582701 12.4158 0.549572 12.3532C0.533004 12.3219 0.520255 12.297 0.511486 12.28C0.507147 12.2715 0.503647 12.265 0.501232 12.2602L0.49757 12.2529L0.496838 12.2522V12.2514C0.41521 12.0881 0.417941 11.8953 0.504162 11.7343C1.68479 9.53413 3.28678 7.59003 5.21583 6.01119L0.602306 1.39766C0.382637 1.17799 0.382637 0.821922 0.602306 0.602252ZM6.0149 6.81026C4.23886 8.24536 2.75472 10.0085 1.64088 12.0031C1.65213 12.0234 1.66341 12.0451 1.67604 12.0676C1.79415 12.2776 1.97177 12.5807 2.20704 12.945C2.67828 13.6747 3.37701 14.6462 4.28566 15.6154C6.1122 17.5637 8.7215 19.4341 11.9937 19.4365C13.8054 19.4063 15.565 18.8585 17.0701 17.8654L14.0994 14.8947C13.8762 15.0668 13.6337 15.2138 13.375 15.3291C12.9381 15.5237 12.4661 15.6282 11.9878 15.6367C11.5096 15.6451 11.0346 15.5572 10.5911 15.3781C10.1475 15.199 9.74431 14.932 9.40602 14.5937C9.06783 14.2555 8.80075 13.8528 8.62159 13.4094C8.44242 12.9658 8.35461 12.4903 8.36305 12.0119C8.37149 11.5336 8.47669 11.0617 8.6714 10.6247C8.78668 10.366 8.93217 10.1228 9.10426 9.89962L6.0149 6.81026ZM12.0003 3.43746C15.7248 3.43755 18.6129 5.56487 20.5352 7.61519C21.5014 8.64582 22.2408 9.67421 22.7383 10.4445C22.9874 10.8302 23.1765 11.1531 23.3045 11.3806C23.3685 11.4944 23.4171 11.5846 23.4502 11.6472C23.4667 11.6783 23.4795 11.7026 23.4883 11.7197C23.4926 11.728 23.4961 11.7347 23.4985 11.7395C23.4997 11.7417 23.5008 11.7439 23.5015 11.7453C23.5018 11.746 23.5027 11.747 23.5029 11.7475V11.7482L23.53 11.8105C23.5831 11.959 23.5716 12.1245 23.4963 12.2653C22.8709 13.4355 22.1248 14.5372 21.2705 15.5524C21.169 15.673 21.0214 15.7449 20.864 15.7517C20.7066 15.7584 20.5535 15.6991 20.4422 15.5876L9.50196 4.63716C9.35788 4.49277 9.30317 4.28182 9.35914 4.08565C9.41512 3.88947 9.57289 3.73895 9.7715 3.69234C10.5019 3.52136 11.2501 3.43578 12.0003 3.43746ZM9.90919 10.7045C9.8282 10.8237 9.75794 10.9502 9.69899 11.0825C9.56578 11.3814 9.49384 11.7044 9.48805 12.0317C9.48227 12.359 9.54272 12.684 9.66529 12.9875C9.78787 13.291 9.97003 13.5669 10.2014 13.7983C10.4329 14.0298 10.7087 14.2126 11.0122 14.3352C11.3157 14.4577 11.6408 14.5174 11.968 14.5117C12.2953 14.5059 12.6183 14.4347 12.9172 14.3015C13.0495 14.2425 13.1752 14.1708 13.2944 14.0898L9.90919 10.7045ZM11.9988 4.56246C11.6871 4.56172 11.3758 4.57836 11.0664 4.61153L20.7959 14.3498C21.3782 13.6077 21.9003 12.8205 22.3589 11.9958C22.3478 11.9758 22.3369 11.9542 22.3245 11.9321C22.2064 11.7222 22.0286 11.4195 21.7935 11.0554C21.3223 10.3258 20.6235 9.35421 19.7149 8.38497C17.8872 6.43543 15.2754 4.56255 12.0003 4.56246H11.9988Z"/>
  </g>
  <defs>
    <clipPath id="a">
      <path d="M0 0H24V24H0z"/>
    </clipPath>
  </defs>
</svg>