<svg xmlns="http://www.w3.org/2000/svg" width="24" height="24" fill="currentcolor" class="icon-eye" viewBox="0 0 24 24">
  <path d="M12.0003 3.43762C15.7248 3.43772 18.613 5.56503 20.5352 7.61536C21.5014 8.64598 22.2408 9.67437 22.7383 10.4447C22.9874 10.8304 23.1765 11.1532 23.3045 11.3807C23.3685 11.4945 23.4171 11.5847 23.4502 11.6473C23.4667 11.6785 23.4796 11.7028 23.4883 11.7198C23.4926 11.7282 23.4962 11.7349 23.4986 11.7396C23.4997 11.7419 23.5008 11.7441 23.5015 11.7455C23.5019 11.7462 23.5027 11.7472 23.503 11.7477V11.7484L23.5293 11.8092C23.5812 11.9531 23.5722 12.1131 23.503 12.2516L22.9998 12.0004L23.503 12.2523V12.2531L23.5015 12.2545C23.5008 12.2559 23.4998 12.258 23.4986 12.2604C23.4962 12.2651 23.4926 12.2717 23.4883 12.2802C23.4795 12.2972 23.4668 12.3221 23.4502 12.3534C23.4171 12.416 23.3684 12.5064 23.3045 12.62C23.1765 12.8475 22.9873 13.1698 22.7383 13.5553C22.2408 14.3256 21.5015 15.354 20.5352 16.3846C18.613 18.435 15.7249 20.5623 12.0003 20.5624C8.27556 20.5624 5.38689 18.4351 3.46463 16.3846C2.4985 15.3541 1.75973 14.3256 1.26224 13.5553C1.01324 13.1697 0.823327 12.8475 0.695347 12.62C0.63144 12.5064 0.582724 12.416 0.549595 12.3534C0.533027 12.3221 0.520278 12.2972 0.511509 12.2802C0.50717 12.2717 0.50367 12.2651 0.501255 12.2604L0.497593 12.2531L0.49686 12.2523V12.2516C0.417729 12.0932 0.417697 11.9067 0.49686 11.7484L0.497593 11.7477C0.497831 11.7472 0.497965 11.7462 0.498325 11.7455C0.499036 11.7441 0.500093 11.7419 0.501255 11.7396C0.50367 11.7349 0.507211 11.7282 0.511509 11.7198C0.520269 11.7028 0.533086 11.6785 0.549595 11.6473C0.582718 11.5847 0.63136 11.4945 0.695347 11.3807C0.823329 11.1532 1.01314 10.8304 1.26224 10.4447C1.75975 9.6744 2.49852 8.64588 3.46463 7.61536C5.38689 5.56495 8.27556 3.43762 12.0003 3.43762ZM12.0003 4.56262C8.725 4.56262 6.11342 6.43554 4.28568 8.38513C3.37695 9.35445 2.6783 10.3259 2.20707 11.0555C1.97184 11.4198 1.79416 11.7223 1.67606 11.9323C1.66278 11.9559 1.65047 11.9784 1.63871 11.9996C1.65056 12.021 1.66266 12.0439 1.67606 12.0677C1.79417 12.2777 1.9718 12.5809 2.20707 12.9452C2.6783 13.6748 3.37703 14.6464 4.28568 15.6156C6.11341 17.5651 8.72514 19.4374 12.0003 19.4374C15.2754 19.4373 17.8872 17.5651 19.7149 15.6156C20.6236 14.6463 21.3223 13.6748 21.7935 12.9452C22.0288 12.5809 22.2064 12.2777 22.3245 12.0677C22.3378 12.044 22.3493 12.0209 22.3611 11.9996C22.3494 11.9785 22.3377 11.9557 22.3245 11.9323C22.2064 11.7223 22.0287 11.4197 21.7935 11.0555C21.3223 10.3259 20.6235 9.35437 19.7149 8.38513C17.8872 6.43559 15.2754 4.56272 12.0003 4.56262ZM14.4378 12.0004C14.4378 10.6543 13.3464 9.563 12.0003 9.56287C10.6541 9.56287 9.56278 10.6542 9.56278 12.0004C9.56298 13.3464 10.6542 14.4379 12.0003 14.4379C13.3462 14.4377 14.4376 13.3463 14.4378 12.0004ZM15.5628 12.0004C15.5626 13.9676 13.9676 15.5627 12.0003 15.5629C10.0329 15.5629 8.43798 13.9677 8.43778 12.0004C8.43778 10.0329 10.0328 8.43787 12.0003 8.43787C13.9677 8.438 15.5628 10.0329 15.5628 12.0004Z"/>
</svg>