<svg xmlns="http://www.w3.org/2000/svg" width="24" height="24" fill="currentcolor" class="icon-face-id" viewBox="0 0 24 24">
  <path d="M1.74902 16.1299C2.16254 16.1299 2.49799 16.4654 2.49805 16.8789V19.2881C2.49846 20.5413 3.45963 21.5026 4.71289 21.5029H7.12207C7.53552 21.503 7.87109 21.8385 7.87109 22.252C7.8709 22.6653 7.5354 22.9999 7.12207 23H4.71289C2.63252 22.9996 1.00042 21.3684 1 19.2881V16.8789C1.00006 16.4655 1.33563 16.13 1.74902 16.1299ZM22.2529 16.1299C22.6663 16.13 23.0019 16.4655 23.002 16.8789V19.2881C23.0015 21.3684 21.3694 22.9996 19.2891 23H16.8799C16.4666 22.9999 16.1311 22.6653 16.1309 22.252C16.1309 21.8385 16.4664 21.503 16.8799 21.5029H19.2891C20.5423 21.5026 21.5035 20.5413 21.5039 19.2881V16.8789C21.504 16.4654 21.8394 16.1299 22.2529 16.1299ZM14.8936 16.1836C15.2011 15.8965 15.6836 15.9131 15.9707 16.2207C16.2575 16.5283 16.2401 17.0099 15.9326 17.2969C14.8421 18.3145 13.5188 18.829 12.001 18.8291C10.483 18.8291 9.15894 18.3147 8.06836 17.2969C7.76094 17.0098 7.74434 16.5282 8.03125 16.2207C8.31833 15.9132 8.79988 15.8966 9.10742 16.1836C9.91266 16.9351 10.8644 17.3057 12.001 17.3057C13.1373 17.3056 14.0884 16.9349 14.8936 16.1836ZM12.5703 8.58398C12.9908 8.5842 13.3319 8.92521 13.332 9.3457V13.3271C13.332 14.3171 12.6113 15.0368 11.6211 15.0371H11.2432C10.8225 15.0371 10.4815 14.696 10.4814 14.2754C10.4815 13.8547 10.8225 13.5137 11.2432 13.5137H11.6211C11.72 13.5136 11.7569 13.4891 11.7705 13.4756C11.784 13.4621 11.8086 13.4255 11.8086 13.3271V9.3457C11.8087 8.9251 12.1497 8.58402 12.5703 8.58398ZM7.61133 8.58398C8.02851 8.58407 8.34459 8.94205 8.34473 9.35547V10.9004C8.34473 11.3139 8.0286 11.6718 7.61133 11.6719C7.19404 11.6718 6.87793 11.3139 6.87793 10.9004V9.35547C6.87806 8.94203 7.19412 8.58405 7.61133 8.58398ZM16.5244 8.58398C16.9416 8.58407 17.2577 8.94205 17.2578 9.35547V10.9004C17.2578 11.3139 16.9417 11.6718 16.5244 11.6719C16.1071 11.6718 15.791 11.3139 15.791 10.9004V9.35547C15.7911 8.94203 16.1072 8.58405 16.5244 8.58398ZM7.12207 1C7.53544 1.00008 7.87091 1.3347 7.87109 1.74805C7.87109 2.16155 7.53556 2.49699 7.12207 2.49707H4.71289C3.45965 2.49747 2.49844 3.45868 2.49805 4.71191V7.12109C2.49797 7.53458 2.16253 7.87012 1.74902 7.87012C1.33567 7.86994 1.00105 7.53447 1.00098 7.12109V4.71191C1.00138 2.63157 2.63255 1.00041 4.71289 1H7.12207ZM19.2891 1C21.3694 1.00039 23.0006 2.63156 23.001 4.71191V7.12109C23.0009 7.53447 22.6663 7.86995 22.2529 7.87012C21.8394 7.87012 21.504 7.53457 21.5039 7.12109V4.71191C21.5035 3.45867 20.5423 2.49746 19.2891 2.49707H16.8799C16.4664 2.49698 16.1309 2.16154 16.1309 1.74805C16.131 1.3347 16.4665 1.00009 16.8799 1H19.2891Z"/>
</svg>