<svg xmlns="http://www.w3.org/2000/svg" width="24" height="24" fill="currentcolor" class="icon-facebook" viewBox="0 0 24 24">
  <path d="M13.4373 7.00024C13.4373 6.58584 13.602 6.18804 13.895 5.89502C14.188 5.60199 14.5858 5.43726 15.0002 5.43726H17.4377V2.5625H15.0002C13.8233 2.5625 12.6947 3.03036 11.8625 3.86255C11.0304 4.69474 10.5625 5.82335 10.5625 7.00024V10.0002C10.5624 10.3108 10.3106 10.5627 10 10.5627H7.5625V13.4375H10C10.3107 13.4375 10.5625 13.6893 10.5625 14V21.4377H13.4373V14C13.4373 13.6894 13.6892 13.4376 13.9998 13.4375H16.561L17.2795 10.5627H13.9998C13.6893 10.5626 13.4374 10.3107 13.4373 10.0002V7.00024ZM14.5623 9.43774H18.0002C18.1734 9.43782 18.3368 9.51736 18.4434 9.65381C18.55 9.79034 18.5879 9.96843 18.5459 10.1365L17.5454 14.1362C17.4828 14.3866 17.2579 14.5625 16.9998 14.5625H14.5623V22.0002C14.5621 22.3108 14.3103 22.5627 13.9998 22.5627H10C9.68942 22.5627 9.43763 22.3108 9.4375 22.0002V14.5625H7C6.68934 14.5625 6.4375 14.3107 6.4375 14V10.0002L6.44043 9.94238C6.46928 9.65879 6.70879 9.43774 7 9.43774H9.4375V7.00024C9.4375 5.52498 10.0232 4.10958 11.0664 3.06641C12.1096 2.02324 13.525 1.4375 15.0002 1.4375H18.0002C18.3108 1.43763 18.5627 1.68942 18.5627 2V5.99976C18.5627 6.31033 18.3108 6.56212 18.0002 6.56226H15.0002C14.8842 6.56226 14.7725 6.60838 14.6904 6.69043C14.6084 6.77248 14.5623 6.88421 14.5623 7.00024V9.43774Z"/>
</svg>