<svg xmlns="http://www.w3.org/2000/svg" width="24" height="24" fill="currentcolor" class="icon-fast-forward" viewBox="0 0 24 24">
  <path d="M1.75317 4.49462C1.94611 4.40039 2.1762 4.42431 2.3457 4.55614L11.3457 11.5559C11.4825 11.6624 11.5624 11.8263 11.5625 11.9997C11.5625 12.1733 11.4827 12.3378 11.3457 12.4443L2.3457 19.4441C2.17623 19.5759 1.94609 19.5998 1.75317 19.5056C1.56025 19.4113 1.43759 19.215 1.4375 19.0002V4.99999C1.4375 4.78515 1.56018 4.58901 1.75317 4.49462ZM12.7527 4.49462C12.9457 4.40023 13.1756 4.42424 13.3452 4.55614L22.3452 11.5559C22.4822 11.6624 22.5627 11.8263 22.5627 11.9997C22.5627 12.1733 22.4822 12.3378 22.3452 12.4443L13.3452 19.4441C13.1756 19.5759 12.9456 19.6 12.7527 19.5056C12.5598 19.4112 12.4378 19.215 12.4377 19.0002V4.99999C12.4377 4.7852 12.5598 4.58903 12.7527 4.49462ZM2.5625 17.8489L10.083 11.9997L2.5625 6.14989V17.8489ZM13.5627 17.8489L21.0833 11.9997L13.5627 6.14989V17.8489Z"/>
</svg>