<svg xmlns="http://www.w3.org/2000/svg" width="24" height="24" fill="currentcolor" class="icon-feather" viewBox="0 0 24 24">
  <path d="M21.4355 7.99536C21.4355 6.55247 20.8627 5.16828 19.8425 4.14795C18.8222 3.12762 17.438 2.55423 15.9951 2.5542C14.5521 2.5542 13.168 3.12759 12.1477 4.14795L5.56245 10.7332V17.6421L15.6025 7.60205C15.8222 7.38265 16.1783 7.38249 16.3979 7.60205C16.6175 7.82163 16.6173 8.17777 16.3979 8.39746L10.3576 14.4377H17.2541L19.8417 11.8428L19.8425 11.842C20.8626 10.8218 21.4354 9.43812 21.4355 7.99536ZM6.35786 18.4375H13.2661L16.1328 15.5627H9.23261L6.35786 18.4375ZM22.5605 7.99536C22.5604 9.73632 21.8688 11.4055 20.6379 12.6367L17.955 15.3284C17.9202 15.3765 17.8778 15.4179 17.8298 15.4529L13.8981 19.397C13.7926 19.5028 13.6492 19.5625 13.4997 19.5625H5.23286L2.39765 22.3977C2.17798 22.6174 1.82191 22.6174 1.60224 22.3977C1.38259 22.178 1.38258 21.822 1.60224 21.6023L4.43745 18.7671V10.5002C4.43745 10.3511 4.49682 10.208 4.60224 10.1025L11.3522 3.35254C12.5836 2.12121 14.2537 1.4292 15.9951 1.4292C17.7364 1.42923 19.4066 2.12123 20.6379 3.35254C21.8691 4.58385 22.5605 6.2541 22.5605 7.99536Z"/>
</svg>