<svg xmlns="http://www.w3.org/2000/svg" width="24" height="24" fill="currentcolor" class="icon-feather" viewBox="0 0 24 24">
  <path d="M21.4356 7.9953C21.4356 6.55241 20.8628 5.16822 19.8425 4.14789C18.8222 3.12756 17.4381 2.55417 15.9951 2.55414C14.5521 2.55414 13.1681 3.12753 12.1477 4.14789L5.56251 10.7331V17.642L15.6025 7.60199C15.8222 7.38259 16.1784 7.38243 16.398 7.60199C16.6175 7.82157 16.6174 8.17771 16.398 8.3974L10.3577 14.4377H17.2542L19.8418 11.8427L19.8425 11.842C20.8627 10.8217 21.4355 9.43806 21.4356 7.9953ZM6.35792 18.4374H13.2661L16.1328 15.5627H9.23268L6.35792 18.4374ZM22.5606 7.9953C22.5605 9.73626 21.8688 11.4055 20.6379 12.6367L17.9551 15.3283C17.9203 15.3765 17.8778 15.4178 17.8298 15.4528L13.8982 19.3969C13.7927 19.5028 13.6492 19.5624 13.4998 19.5624H5.23292L2.39771 22.3976C2.17804 22.6173 1.82197 22.6173 1.6023 22.3976C1.38265 22.178 1.38264 21.8219 1.6023 21.6022L4.43751 18.767V10.5002C4.43751 10.351 4.49688 10.208 4.6023 10.1025L11.3523 3.35248C12.5836 2.12114 14.2538 1.42914 15.9951 1.42914C17.7365 1.42917 19.4066 2.12117 20.6379 3.35248C21.8691 4.58379 22.5606 6.25404 22.5606 7.9953Z"/>
</svg>