<svg xmlns="http://www.w3.org/2000/svg" width="24" height="24" fill="currentcolor" class="icon-feather" viewBox="0 0 24 24">
  <path d="M21.4355 7.9953C21.4355 6.55241 20.8627 5.16822 19.8425 4.14789C18.8222 3.12756 17.438 2.55417 15.9951 2.55414C14.5521 2.55414 13.168 3.12753 12.1477 4.14789L5.56245 10.7331V17.642L15.6025 7.60199C15.8222 7.38259 16.1783 7.38243 16.3979 7.60199C16.6175 7.82157 16.6173 8.17771 16.3979 8.3974L10.3576 14.4377H17.2541L19.8417 11.8427L19.8425 11.842C20.8626 10.8217 21.4354 9.43806 21.4355 7.9953ZM6.35786 18.4374H13.2661L16.1328 15.5627H9.23261L6.35786 18.4374ZM22.5605 7.9953C22.5604 9.73626 21.8688 11.4055 20.6379 12.6367L17.955 15.3283C17.9202 15.3765 17.8778 15.4178 17.8298 15.4528L13.8981 19.3969C13.7926 19.5028 13.6492 19.5624 13.4997 19.5624H5.23286L2.39765 22.3976C2.17798 22.6173 1.82191 22.6173 1.60224 22.3976C1.38259 22.178 1.38258 21.8219 1.60224 21.6022L4.43745 18.767V10.5002C4.43745 10.351 4.49682 10.208 4.60224 10.1025L11.3522 3.35248C12.5836 2.12114 14.2537 1.42914 15.9951 1.42914C17.7364 1.42917 19.4066 2.12117 20.6379 3.35248C21.8691 4.58379 22.5605 6.25404 22.5605 7.9953Z"/>
</svg>