<svg xmlns="http://www.w3.org/2000/svg" width="24" height="24" fill="currentcolor" class="icon-figma" viewBox="0 0 24 24">
  <path d="M11.4373 16.5627H8.50024C7.72129 16.5627 6.97396 16.8719 6.4231 17.4226C5.87227 17.9734 5.56256 18.7208 5.5625 19.4998C5.5625 20.2788 5.87221 21.026 6.4231 21.5769C6.97398 22.1278 7.72117 22.4375 8.50024 22.4375C9.27923 22.4374 10.0266 22.1277 10.5774 21.5769C11.1281 21.026 11.4373 20.2787 11.4373 19.4998V16.5627ZM12.5623 9.69556C12.5839 9.67283 12.6052 9.64968 12.6274 9.62744C12.6498 9.60508 12.6734 9.58407 12.6963 9.56226H12.5623V9.69556ZM18.4377 12.5C18.4377 12.1142 18.3612 11.7321 18.2136 11.3757C18.066 11.0194 17.8499 10.6956 17.5771 10.4229C17.3044 10.1501 16.9806 9.934 16.6243 9.78638C16.2679 9.63875 15.8858 9.56226 15.5 9.56226C15.1142 9.56226 14.7321 9.63875 14.3757 9.78638C14.0194 9.934 13.6956 10.1501 13.4229 10.4229C13.1501 10.6956 12.934 11.0194 12.7864 11.3757C12.6388 11.7321 12.5623 12.1142 12.5623 12.5C12.5623 12.8858 12.6388 13.2679 12.7864 13.6243C12.934 13.9806 13.1501 14.3044 13.4229 14.5771C13.6956 14.8499 14.0194 15.066 14.3757 15.2136C14.7321 15.3612 15.1142 15.4377 15.5 15.4377C15.8858 15.4377 16.2679 15.3612 16.6243 15.2136C16.9806 15.066 17.3044 14.8499 17.5771 14.5771C17.8499 14.3044 18.066 13.9806 18.2136 13.6243C18.3612 13.2679 18.4377 12.8858 18.4377 12.5ZM5.5625 12.5C5.5625 13.2791 5.87221 14.0263 6.4231 14.5771C6.97397 15.128 7.72123 15.4377 8.50024 15.4377H11.4373V9.56226H8.50024C7.72123 9.56226 6.97397 9.87204 6.4231 10.4229C5.87221 10.9737 5.5625 11.7209 5.5625 12.5ZM18.4377 5.50024C18.4377 5.11449 18.3612 4.73237 18.2136 4.37598C18.066 4.01964 17.8499 3.69584 17.5771 3.4231C17.3044 3.15033 16.9806 2.93351 16.6243 2.78589C16.3124 2.6567 15.9808 2.58271 15.6443 2.56616L15.5 2.5625H12.5623V8.43726H15.5C15.8858 8.43726 16.2679 8.36149 16.6243 8.21387C16.9806 8.06627 17.3044 7.85007 17.5771 7.57739C17.8499 7.30462 18.066 6.98017 18.2136 6.62378C18.3612 6.26752 18.4377 5.88584 18.4377 5.50024ZM5.5625 5.50024C5.56256 6.27923 5.87227 7.02656 6.4231 7.57739C6.97396 8.12813 7.72129 8.43726 8.50024 8.43726H11.4373V2.5625H8.50024C7.72117 2.5625 6.97398 2.87221 6.4231 3.4231C5.87221 3.97398 5.5625 4.72117 5.5625 5.50024ZM19.5627 5.50024C19.5627 6.03363 19.457 6.56165 19.2529 7.05444C19.0488 7.54733 18.7498 7.99556 18.3726 8.3728C18.1292 8.61619 17.8556 8.8259 17.5603 8.99976C17.8558 9.17366 18.1291 9.38395 18.3726 9.62744C18.7497 10.0046 19.0488 10.4523 19.2529 10.9451C19.4571 11.438 19.5627 11.9665 19.5627 12.5C19.5627 13.0335 19.4571 13.562 19.2529 14.0549C19.0488 14.5477 18.7497 14.9954 18.3726 15.3726C17.9954 15.7497 17.5477 16.0488 17.0549 16.2529C16.562 16.4571 16.0335 16.5627 15.5 16.5627C14.9665 16.5627 14.438 16.4571 13.9451 16.2529C13.4523 16.0488 13.0046 15.7497 12.6274 15.3726C12.6051 15.3502 12.5841 15.3266 12.5623 15.3037V19.4998C12.5623 20.5771 12.1345 21.6105 11.3728 22.3723C10.611 23.1341 9.5776 23.5624 8.50024 23.5625C7.4228 23.5625 6.38955 23.1342 5.62769 22.3723C4.86582 21.6104 4.4375 20.5772 4.4375 19.4998C4.43756 18.4224 4.86588 17.389 5.62769 16.6272C5.87246 16.3825 6.14522 16.1722 6.43848 15.9995C6.14533 15.8268 5.87237 15.6172 5.62769 15.3726C4.86582 14.6107 4.4375 13.5774 4.4375 12.5C4.4375 11.4226 4.86582 10.3893 5.62769 9.62744C5.87246 9.38269 6.14521 9.17247 6.43848 8.99976C6.14534 8.8271 5.87237 8.61744 5.62769 8.3728C4.86588 7.61099 4.43756 6.5776 4.4375 5.50024C4.4375 4.4228 4.86582 3.38955 5.62769 2.62769C6.38955 1.86582 7.4228 1.4375 8.50024 1.4375H15.5L15.7 1.44263C16.1651 1.46555 16.6237 1.56797 17.0549 1.74658C17.5477 1.95074 17.9954 2.25049 18.3726 2.62769C18.7497 3.00486 19.0488 3.45254 19.2529 3.94531C19.4571 4.4382 19.5627 4.96675 19.5627 5.50024Z"/>
</svg>