<svg xmlns="http://www.w3.org/2000/svg" width="24" height="24" fill="currentcolor" class="icon-file-plus" viewBox="0 0 24 24">
  <path d="M11.4377 17.9998V15.5623H9.00024C8.68958 15.5623 8.43774 15.3104 8.43774 14.9998C8.43788 14.6892 8.68967 14.4373 9.00024 14.4373H11.4377V11.9998C11.4379 11.6892 11.6897 11.4373 12.0002 11.4373C12.3107 11.4374 12.5626 11.6893 12.5627 11.9998V14.4373H15.0002C15.3107 14.4374 15.5626 14.6893 15.5627 14.9998C15.5627 15.3103 15.3108 15.5621 15.0002 15.5623H12.5627V17.9998C12.5627 18.3103 12.3108 18.5621 12.0002 18.5623C11.6896 18.5623 11.4377 18.3104 11.4377 17.9998ZM14.5623 7.4375H18.6418L14.5623 3.35791V7.4375ZM20.5623 20C20.5623 20.6796 20.2927 21.3315 19.8123 21.812C19.3318 22.2925 18.6798 22.5627 18.0002 22.5627H6.00024C5.32068 22.5627 4.66878 22.2925 4.18823 21.812C3.73762 21.3614 3.47177 20.7602 3.44043 20.1267L3.4375 20V4.00024C3.4375 3.32063 3.70767 2.66879 4.18823 2.18823C4.66879 1.70767 5.32063 1.4375 6.00024 1.4375H13.9998C14.1489 1.4375 14.292 1.49688 14.3975 1.60229L20.3975 7.60229C20.503 7.70778 20.5623 7.85082 20.5623 8V20ZM4.5625 20L4.56982 20.1421C4.60251 20.4712 4.74777 20.7807 4.98364 21.0166C5.25321 21.2861 5.61905 21.4377 6.00024 21.4377H18.0002C18.3813 21.4377 18.7466 21.286 19.0161 21.0166C19.2857 20.747 19.4373 20.3812 19.4373 20V8.5625H13.9998C13.6892 8.56237 13.4373 8.31058 13.4373 8V2.5625H6.00024C5.619 2.5625 5.25323 2.71406 4.98364 2.98364C4.71406 3.25323 4.5625 3.619 4.5625 4.00024V20Z"/>
</svg>