<svg xmlns="http://www.w3.org/2000/svg" width="24" height="24" fill="currentcolor" class="icon-file-text" viewBox="0 0 24 24">
  <path d="M16 16.4375C16.3107 16.4375 16.5625 16.6893 16.5625 17C16.5625 17.3107 16.3107 17.5625 16 17.5625H7.99976C7.68921 17.5624 7.43726 17.3106 7.43726 17C7.43726 16.6894 7.68921 16.4376 7.99976 16.4375H16ZM16 12.4377C16.3107 12.4377 16.5625 12.6896 16.5625 13.0002C16.5624 13.3108 16.3106 13.5627 16 13.5627H7.99976C7.68929 13.5626 7.43739 13.3107 7.43726 13.0002C7.43726 12.6897 7.68921 12.4379 7.99976 12.4377H16ZM10 8.43726C10.3106 8.43726 10.5624 8.68921 10.5625 8.99976C10.5625 9.31042 10.3107 9.56226 10 9.56226H7.99976C7.68921 9.56212 7.43726 9.31033 7.43726 8.99976C7.43739 8.68929 7.68929 8.43739 7.99976 8.43726H10ZM14.5623 7.4375H18.6418L14.5623 3.35791V7.4375ZM20.5623 20C20.5623 20.6796 20.2927 21.3315 19.8123 21.812C19.3318 22.2925 18.6798 22.5627 18.0002 22.5627H6.00024C5.32068 22.5627 4.66878 22.2925 4.18823 21.812C3.73762 21.3614 3.47177 20.7602 3.44043 20.1267L3.4375 20V4.00024C3.4375 3.32063 3.70767 2.66879 4.18823 2.18823C4.66879 1.70767 5.32063 1.4375 6.00024 1.4375H13.9998C14.1489 1.4375 14.292 1.49688 14.3975 1.60229L20.3975 7.60229C20.503 7.70778 20.5623 7.85082 20.5623 8V20ZM4.5625 20L4.56982 20.1421C4.60251 20.4712 4.74777 20.7807 4.98364 21.0166C5.25321 21.2861 5.61905 21.4377 6.00024 21.4377H18.0002C18.3813 21.4377 18.7466 21.286 19.0161 21.0166C19.2857 20.747 19.4373 20.3812 19.4373 20V8.5625H13.9998C13.6892 8.56237 13.4373 8.31058 13.4373 8V2.5625H6.00024C5.619 2.5625 5.25323 2.71406 4.98364 2.98364C4.71406 3.25323 4.5625 3.619 4.5625 4.00024V20Z"/>
</svg>