<svg xmlns="http://www.w3.org/2000/svg" width="24" height="24" fill="currentcolor" class="icon-file" viewBox="0 0 24 24">
  <path d="M13.5625 8.43726H18.6418L13.5625 3.35791V8.43726ZM20.5623 20C20.5623 20.6796 20.2927 21.3315 19.8123 21.812C19.3318 22.2925 18.6798 22.5627 18.0002 22.5627H6.00024C5.32068 22.5627 4.66878 22.2925 4.18823 21.812C3.73762 21.3614 3.47177 20.7602 3.44043 20.1267L3.4375 20V4.00024C3.4375 3.32063 3.70767 2.66879 4.18823 2.18823C4.66879 1.70767 5.32063 1.4375 6.00024 1.4375H13L13.1106 1.44849C13.2186 1.47014 13.3187 1.52326 13.3977 1.60229L20.3975 8.60205C20.5029 8.70748 20.5622 8.85066 20.5623 8.99976V20ZM4.5625 20L4.56982 20.1421C4.60251 20.4712 4.74777 20.7807 4.98364 21.0166C5.25321 21.2861 5.61905 21.4377 6.00024 21.4377H18.0002C18.3813 21.4377 18.7466 21.286 19.0161 21.0166C19.2857 20.747 19.4373 20.3812 19.4373 20V9.56226H13C12.6893 9.56226 12.4375 9.31042 12.4375 8.99976V2.5625H6.00024C5.619 2.5625 5.25323 2.71406 4.98364 2.98364C4.71406 3.25323 4.5625 3.619 4.5625 4.00024V20Z"/>
</svg>