<svg xmlns="http://www.w3.org/2000/svg" width="24" height="24" fill="currentcolor" class="icon-file-csv" viewBox="0 0 24 24">
  <path d="M19.375 19.5C19.375 20.9766 18.1855 22.125 16.75 22.125H6.25C4.77344 22.125 3.625 20.9766 3.625 19.5H4.9375C4.9375 20.2383 5.51172 20.8125 6.25 20.8125H16.75C17.4473 20.8125 18.0625 20.2383 18.0625 19.5H19.375ZM13.4688 9C12.3613 9 11.5 8.13867 11.5 7.03125V2.4375H6.25C5.51172 2.4375 4.9375 3.05273 4.9375 3.75V10.3125H3.625V3.75C3.625 2.31445 4.77344 1.125 6.25 1.125H12.6484C13.1406 1.125 13.6738 1.37109 14.043 1.74023L18.7598 6.45703C19.1289 6.82617 19.375 7.35938 19.375 7.85156V10.3125H18.0625V9H13.4688ZM17.8574 7.40039L13.0996 2.64258C13.0176 2.56055 12.8945 2.51953 12.8125 2.47852V7.03125C12.8125 7.40039 13.0996 7.6875 13.4688 7.6875H18.0215C17.9805 7.60547 17.9395 7.48242 17.8574 7.40039ZM7.5625 11.625C8.46484 11.625 9.20312 12.3633 9.20312 13.2656V13.5938C9.20312 13.9629 8.875 14.25 8.54688 14.25C8.17773 14.25 7.89062 13.9629 7.89062 13.5938V13.2656C7.89062 13.1016 7.72656 12.9375 7.5625 12.9375H6.90625C6.70117 12.9375 6.57812 13.1016 6.57812 13.2656V16.5469C6.57812 16.752 6.70117 16.875 6.90625 16.875H7.5625C7.72656 16.875 7.89062 16.752 7.89062 16.5469V16.2188C7.89062 15.8906 8.17773 15.5625 8.54688 15.5625C8.875 15.5625 9.20312 15.8906 9.20312 16.2188V16.5469C9.20312 17.4902 8.46484 18.1875 7.5625 18.1875H6.90625C5.96289 18.1875 5.26562 17.4902 5.26562 16.5469V13.2656C5.26562 12.3633 5.96289 11.625 6.90625 11.625H7.5625ZM9.85938 13.5527C9.85938 12.4863 10.6797 11.625 11.7461 11.625H12.4844C12.8125 11.625 13.1406 11.9531 13.1406 12.2812C13.1406 12.6504 12.8125 12.9375 12.4844 12.9375H11.7461C11.418 12.9375 11.1719 13.2246 11.1719 13.5527C11.1719 13.7578 11.2539 13.9629 11.459 14.0449L12.4844 14.6602C13.0996 14.9883 13.4688 15.6035 13.4688 16.3008C13.4688 17.3672 12.6074 18.1875 11.541 18.1875H10.5156C10.1465 18.1875 9.85938 17.9004 9.85938 17.5312C9.85938 17.2031 10.1465 16.875 10.5156 16.875H11.541C11.8691 16.875 12.1562 16.6289 12.1562 16.3008C12.1562 16.0957 12.0332 15.8906 11.8281 15.8086L10.8027 15.1934C10.1875 14.8652 9.85938 14.209 9.85938 13.5527ZM15.1094 13.5938C15.1094 14.5371 15.3145 15.4805 15.7656 16.3008C16.1758 15.4805 16.4219 14.5371 16.4219 13.5938V12.2812C16.4219 11.9531 16.709 11.625 17.0781 11.625C17.4062 11.625 17.7344 11.9531 17.7344 12.2812V13.5938C17.7344 15.0293 17.2832 16.4238 16.5039 17.6133L16.2988 17.9004C16.1758 18.1055 15.9707 18.1875 15.7656 18.1875C15.5195 18.1875 15.3145 18.1055 15.1914 17.9004L14.9863 17.6133C14.207 16.4238 13.7969 15.0293 13.7969 13.5938V12.2812C13.7969 11.9531 14.084 11.625 14.4531 11.625C14.7812 11.625 15.1094 11.9531 15.1094 12.2812V13.5938Z"/>
</svg>