<svg xmlns="http://www.w3.org/2000/svg" width="24" height="24" fill="currentcolor" class="icon-file-pdf" viewBox="0 0 24 24">
  <path d="M19.375 19.5C19.375 20.9766 18.1855 22.125 16.75 22.125H6.25C4.77344 22.125 3.625 20.9766 3.625 19.5H4.9375C4.9375 20.2383 5.51172 20.8125 6.25 20.8125H16.75C17.4473 20.8125 18.0625 20.2383 18.0625 19.5H19.375ZM13.4688 9C12.3613 9 11.5 8.13867 11.5 7.03125V2.4375H6.25C5.51172 2.4375 4.9375 3.05273 4.9375 3.75V10.3125H3.625V3.75C3.625 2.31445 4.77344 1.125 6.25 1.125H12.6484C13.1406 1.125 13.6738 1.37109 14.043 1.74023L18.7598 6.45703C19.1289 6.82617 19.375 7.35938 19.375 7.85156V10.3125H18.0625V9H13.4688ZM17.8574 7.40039L13.0996 2.64258C13.0176 2.56055 12.8945 2.51953 12.8125 2.47852V7.03125C12.8125 7.40039 13.0996 7.6875 13.4688 7.6875H18.0215C17.9805 7.60547 17.9395 7.48242 17.8574 7.40039ZM7.23438 11.625C8.46484 11.625 9.53125 12.6914 9.53125 13.9219C9.53125 15.1934 8.46484 16.2188 7.23438 16.2188H6.90625V17.5312C6.90625 17.9004 6.57812 18.1875 6.25 18.1875C5.88086 18.1875 5.59375 17.9004 5.59375 17.5312V12.2812C5.59375 11.9531 5.88086 11.625 6.25 11.625H7.23438ZM8.21875 13.9219C8.21875 13.3887 7.76758 12.9375 7.23438 12.9375H6.90625V14.9062H7.23438C7.76758 14.9062 8.21875 14.4961 8.21875 13.9219ZM10.1875 12.2812C10.1875 11.9531 10.4746 11.625 10.8438 11.625H11.8281C12.8945 11.625 13.7969 12.5273 13.7969 13.5938V16.2188C13.7969 17.3262 12.8945 18.1875 11.8281 18.1875H10.8438C10.4746 18.1875 10.1875 17.9004 10.1875 17.5312V12.2812ZM11.5 16.875H11.8281C12.1562 16.875 12.4844 16.5879 12.4844 16.2188V13.5938C12.4844 13.2656 12.1562 12.9375 11.8281 12.9375H11.5V16.875ZM17.4062 11.625C17.7344 11.625 18.0625 11.9531 18.0625 12.2812C18.0625 12.6504 17.7344 12.9375 17.4062 12.9375H16.0938V14.25H17.4062C17.7344 14.25 18.0625 14.5781 18.0625 14.9062C18.0625 15.2754 17.7344 15.5625 17.4062 15.5625H16.0938V17.5312C16.0938 17.9004 15.7656 18.1875 15.4375 18.1875C15.0684 18.1875 14.7812 17.9004 14.7812 17.5312V12.2812C14.7812 11.9531 15.0684 11.625 15.4375 11.625H17.4062Z"/>
</svg>