<svg xmlns="http://www.w3.org/2000/svg" width="24" height="24" fill="currentcolor" class="icon-file-report" viewBox="0 0 24 24">
  <path d="M15.4375 11.9998C15.4375 11.6891 15.6893 11.4373 16 11.4373C16.3107 11.4373 16.5625 11.6891 16.5625 11.9998V19C16.5624 19.3105 16.3106 19.5625 16 19.5625C15.6894 19.5625 15.4376 19.3105 15.4375 19V11.9998ZM11.4377 9.99976C11.4377 9.6891 11.6896 9.43726 12.0002 9.43726C12.3108 9.43739 12.5627 9.68918 12.5627 9.99976V19C12.5626 19.3105 12.3107 19.5624 12.0002 19.5625C11.6897 19.5625 11.4379 19.3105 11.4377 19V9.99976ZM7.43726 14.9998C7.43726 14.6892 7.68921 14.4374 7.99976 14.4373C8.31042 14.4373 8.56226 14.6891 8.56226 14.9998V19C8.56212 19.3105 8.31033 19.5625 7.99976 19.5625C7.68929 19.5624 7.43739 19.3105 7.43726 19V14.9998ZM14.5623 7.4375H18.6418L14.5623 3.35791V7.4375ZM20.5623 20C20.5623 20.6796 20.2927 21.3315 19.8123 21.812C19.3318 22.2925 18.6798 22.5627 18.0002 22.5627H6.00024C5.32068 22.5627 4.66878 22.2925 4.18823 21.812C3.73762 21.3614 3.47177 20.7602 3.44043 20.1267L3.4375 20V4.00024C3.4375 3.32063 3.70767 2.66879 4.18823 2.18823C4.66879 1.70767 5.32063 1.4375 6.00024 1.4375H13.9998C14.1489 1.4375 14.292 1.49688 14.3975 1.60229L20.3975 7.60229C20.503 7.70778 20.5623 7.85082 20.5623 8V20ZM4.5625 20L4.56982 20.1421C4.60251 20.4712 4.74777 20.7807 4.98364 21.0166C5.25321 21.2861 5.61905 21.4377 6.00024 21.4377H18.0002C18.3813 21.4377 18.7466 21.286 19.0161 21.0166C19.2857 20.747 19.4373 20.3812 19.4373 20V8.5625H13.9998C13.6892 8.56237 13.4373 8.31058 13.4373 8V2.5625H6.00024C5.619 2.5625 5.25323 2.71406 4.98364 2.98364C4.71406 3.25323 4.5625 3.619 4.5625 4.00024V20Z"/>
</svg>