<svg xmlns="http://www.w3.org/2000/svg" width="24" height="24" fill="currentcolor" class="icon-file-excel" viewBox="0 0 24 24">
  <path d="M18.5957 6.29297C19.0879 6.78516 19.375 7.44141 19.375 8.13867V19.5C19.375 20.9766 18.1855 22.125 16.75 22.125H6.25C4.77344 22.125 3.625 20.9766 3.625 19.5V3.75C3.625 2.31445 4.77344 1.125 6.25 1.125H12.3613C13.0586 1.125 13.7148 1.41211 14.207 1.9043L18.5957 6.29297ZM12.8125 2.56055V7.03125C12.8125 7.40039 13.0996 7.6875 13.4688 7.6875H17.9395C17.8984 7.52344 17.8164 7.35938 17.6523 7.19531L13.3047 2.84766C13.1406 2.68359 12.9766 2.60156 12.8125 2.56055ZM18.0625 19.5V9H13.4688C12.3613 9 11.5 8.13867 11.5 7.03125V2.4375H6.25C5.51172 2.4375 4.9375 3.05273 4.9375 3.75V19.5C4.9375 20.2383 5.51172 20.8125 6.25 20.8125H16.75C17.4473 20.8125 18.0625 20.2383 18.0625 19.5ZM11.5 13.7988L13.2227 11.2559C13.4277 10.9688 13.8379 10.8867 14.166 11.0918C14.4531 11.2969 14.5352 11.707 14.3301 12.0352L12.2793 14.9062L14.3301 17.8184C14.5352 18.1465 14.4531 18.5566 14.166 18.7617C14.043 18.8438 13.9199 18.8438 13.7969 18.8438C13.5508 18.8438 13.3457 18.7617 13.2227 18.5977L11.5 16.0547L9.69531 18.5977C9.57227 18.7617 9.36719 18.8438 9.16211 18.8438C9.03906 18.8438 8.91602 18.8438 8.79297 18.7617C8.50586 18.5566 8.42383 18.1465 8.62891 17.8184L10.6797 14.9062L8.62891 12.0352C8.42383 11.707 8.50586 11.2969 8.79297 11.0918C9.12109 10.8867 9.53125 10.9688 9.73633 11.2559L11.5 13.7988Z"/>
</svg>