<svg xmlns="http://www.w3.org/2000/svg" width="24" height="24" fill="currentcolor" class="icon-film" viewBox="0 0 24 24">
  <path d="M21.4377 17.5625H17.5625V21.4377H19.8198C20.7131 21.4377 21.4377 20.7131 21.4377 19.8198V17.5625ZM7.56274 21.4377H16.4375V12.5623H7.56274V21.4377ZM17.5625 16.4375H21.4377V12.5623H17.5625V16.4375ZM2.5625 16.4375H6.43774V12.5623H2.5625V16.4375ZM17.5625 11.4373H21.4377V7.56274H17.5625V11.4373ZM7.56274 11.4373H16.4375V2.5625H7.56274V11.4373ZM2.5625 11.4373H6.43774V7.56274H2.5625V11.4373ZM2.5625 19.8198C2.5625 20.713 3.28651 21.4376 4.17969 21.4377H6.43774V17.5625H2.5625V19.8198ZM21.4377 4.17969C21.4376 3.28651 20.713 2.5625 19.8198 2.5625H17.5625V6.43774H21.4377V4.17969ZM2.5625 6.43774H6.43774V2.5625H4.17969C3.28661 2.56267 2.56267 3.28661 2.5625 4.17969V6.43774ZM22.5627 19.8198C22.5627 21.3345 21.3345 22.5627 19.8198 22.5627H4.17969C2.66519 22.5626 1.4375 21.3344 1.4375 19.8198V4.17969C1.43767 2.66529 2.66529 1.43767 4.17969 1.4375H19.8198C21.3344 1.4375 22.5626 2.66519 22.5627 4.17969V19.8198Z"/>
</svg>