<svg xmlns="http://www.w3.org/2000/svg" width="24" height="24" fill="currentcolor" class="icon-filter" viewBox="0 0 24 24">
  <path d="M22.0002 2.4375L22.0808 2.44336C22.267 2.47035 22.4293 2.58954 22.51 2.76343C22.6022 2.96207 22.5708 3.19608 22.4294 3.36328L14.5625 12.665V21C14.5625 21.1949 14.4616 21.3758 14.2959 21.4783C14.1302 21.5807 13.9231 21.5902 13.7488 21.5032L9.74829 19.5029C9.55784 19.4076 9.43774 19.2127 9.43774 18.9998V12.6658L1.5708 3.36328C1.42944 3.19613 1.39746 2.96203 1.4895 2.76343C1.58167 2.56477 1.781 2.4375 2 2.4375H22.0002ZM10.4294 12.0967C10.5153 12.1982 10.5627 12.327 10.5627 12.46V18.6519L13.4375 20.0896V12.46C13.4375 12.327 13.4849 12.1982 13.5708 12.0967L20.7874 3.5625H3.21216L10.4294 12.0967Z"/>
</svg>