<svg xmlns="http://www.w3.org/2000/svg" width="24" height="24" fill="currentcolor" class="icon-flag" viewBox="0 0 24 24">
  <path d="M7.99976 2.5625C6.5633 2.56253 5.63533 2.80192 5.08398 3.02246C4.84438 3.1183 4.67419 3.21159 4.5625 3.28174V14.022C4.59611 14.0077 4.63019 13.9923 4.66577 13.978C5.36435 13.6986 6.43648 13.4375 7.99976 13.4375C9.62312 13.4375 10.9692 13.9816 12.209 14.4775C13.4692 14.9816 14.6234 15.4377 16 15.4377C17.4363 15.4377 18.3644 15.1983 18.9158 14.9778C19.1554 14.8819 19.3256 14.7879 19.4373 14.7178V3.97754C19.4036 3.99185 19.3697 4.00795 19.334 4.02222C18.6354 4.30166 17.5634 4.56274 16 4.56274C14.3766 4.56274 13.0306 4.0179 11.7908 3.52197C10.5307 3.01796 9.37626 2.5625 7.99976 2.5625ZM19.9998 14.9998C20.3824 15.3824 20.3972 15.3974 20.3975 15.3982L20.3923 15.4033C20.3903 15.4053 20.3876 15.4075 20.385 15.4099C20.3799 15.4148 20.3739 15.4209 20.3667 15.4275C20.3519 15.4409 20.3326 15.4577 20.3088 15.4773C20.2613 15.5165 20.1952 15.567 20.1089 15.6245C19.936 15.7397 19.6827 15.8827 19.334 16.0222C18.6354 16.3017 17.5634 16.5627 16 16.5627C14.3766 16.5627 13.0306 16.0179 11.7908 15.522C10.5307 15.018 9.37626 14.5625 7.99976 14.5625C6.5633 14.5625 5.63533 14.8019 5.08398 15.0225C4.84438 15.1183 4.67419 15.2116 4.5625 15.2817V22.0002C4.56237 22.3108 4.31058 22.5627 4 22.5627C3.68942 22.5627 3.43763 22.3108 3.4375 22.0002V2.99976C3.43756 2.85066 3.49686 2.70748 3.60229 2.60205L4 2.99976C3.60237 2.60213 3.60273 2.60162 3.60303 2.60132H3.60376L3.60449 2.59985C3.60535 2.599 3.60645 2.59788 3.60742 2.59692C3.60947 2.59492 3.61218 2.59278 3.61475 2.59033C3.61996 2.58536 3.62641 2.57946 3.63379 2.57275C3.64849 2.55939 3.66728 2.54243 3.69092 2.52295C3.73844 2.48382 3.80461 2.43325 3.89087 2.37573C4.06369 2.26052 4.31716 2.1175 4.66577 1.97803C5.36435 1.69859 6.43648 1.43753 7.99976 1.4375C9.62312 1.4375 10.9692 1.98161 12.209 2.47754C13.4692 2.98161 14.6234 3.43774 16 3.43774C17.4363 3.43774 18.3644 3.1983 18.9158 2.97778C19.1919 2.86735 19.3765 2.76072 19.4849 2.68848C19.539 2.65237 19.5744 2.62419 19.5933 2.60864C19.6027 2.60089 19.608 2.59598 19.6094 2.59473C19.6101 2.59411 19.6099 2.595 19.6086 2.59619C19.6081 2.59674 19.6074 2.5975 19.6064 2.59839C19.6059 2.59891 19.6049 2.59922 19.6042 2.59985H19.6035C19.7644 2.44046 20.0057 2.39379 20.2151 2.48047C20.4252 2.5675 20.5622 2.77234 20.5623 2.99976V14.9998C20.5623 15.1489 20.5029 15.292 20.3975 15.3975L19.9998 14.9998Z"/>
</svg>