<svg xmlns="http://www.w3.org/2000/svg" width="24" height="24" fill="currentcolor" class="icon-folder" viewBox="0 0 24 24">
  <path d="M1.4375 18.9998V5.00024C1.4375 4.32063 1.70767 3.66879 2.18823 3.18823C2.66879 2.70767 3.32063 2.4375 4.00024 2.4375H8.99976C9.18778 2.4375 9.36344 2.53157 9.46777 2.68799L11.301 5.4375H20C20.6796 5.4375 21.3314 5.70767 21.812 6.18823C22.2925 6.66878 22.5627 7.32068 22.5627 8.00024V18.9998C22.5627 19.6793 22.2925 20.3312 21.812 20.8118C21.3315 21.2923 20.6796 21.5625 20 21.5625H4.00024C3.32063 21.5625 2.66879 21.2923 2.18823 20.8118C1.70767 20.3312 1.4375 19.6794 1.4375 18.9998ZM2.5625 18.9998C2.5625 19.381 2.71406 19.7468 2.98364 20.0164C3.25323 20.2859 3.619 20.4375 4.00024 20.4375H20C20.3812 20.4375 20.747 20.2859 21.0166 20.0164C21.2861 19.7468 21.4377 19.3809 21.4377 18.9998V8.00024C21.4377 7.61905 21.2861 7.25321 21.0166 6.98364C20.747 6.71406 20.3812 6.5625 20 6.5625H11C10.8119 6.5625 10.6363 6.4685 10.532 6.31201L8.69873 3.5625H4.00024C3.619 3.5625 3.25323 3.71406 2.98364 3.98364C2.71406 4.25323 2.5625 4.619 2.5625 5.00024V18.9998Z"/>
</svg>