<svg xmlns="http://www.w3.org/2000/svg" width="24" height="24" fill="currentcolor" class="icon-framer" viewBox="0 0 24 24">
  <path d="M19.0002 1.4375C19.3108 1.43763 19.5627 1.68942 19.5627 2V8.99976C19.5627 9.31034 19.3108 9.56212 19.0002 9.56226H13.3577L19.3979 15.6025C19.5586 15.7634 19.6065 16.0055 19.5195 16.2156C19.4324 16.4255 19.2275 16.5626 19.0002 16.5627H12.5623V23C12.5623 23.2275 12.4253 23.433 12.2151 23.52C12.005 23.6069 11.7629 23.5585 11.602 23.3977L4.60229 16.398C4.49686 16.2925 4.43756 16.1493 4.43749 16.0002V8.99976C4.43763 8.68921 4.68942 8.43726 4.99999 8.43726H10.6418L4.60229 2.39771C4.44143 2.23685 4.39294 1.99485 4.47998 1.78467C4.56704 1.57448 4.77248 1.4375 4.99999 1.4375H19.0002ZM11.4373 21.6421V16.5627H6.3579L11.4373 21.6421ZM5.56249 15.4377H17.6423L11.7668 9.56226H5.56249V15.4377ZM12.2327 8.43726H18.4377V2.5625H6.3579L12.2327 8.43726Z"/>
</svg>