<svg xmlns="http://www.w3.org/2000/svg" width="24" height="24" fill="currentcolor" class="icon-framer" viewBox="0 0 24 24">
  <path d="M19.0005 1.4375C19.311 1.43763 19.563 1.68942 19.563 2V8.99976C19.563 9.31034 19.311 9.56212 19.0005 9.56226H13.3579L19.3982 15.6025C19.5589 15.7634 19.6068 16.0055 19.5198 16.2156C19.4327 16.4255 19.2278 16.5626 19.0005 16.5627H12.5625V23C12.5625 23.2275 12.4255 23.433 12.2153 23.52C12.0052 23.6069 11.7631 23.5585 11.6023 23.3977L4.60253 16.398C4.4971 16.2925 4.4378 16.1493 4.43774 16.0002V8.99976C4.43787 8.68921 4.68966 8.43726 5.00024 8.43726H10.6421L4.60253 2.39771C4.44167 2.23685 4.39319 1.99485 4.48022 1.78467C4.56728 1.57448 4.77273 1.4375 5.00024 1.4375H19.0005ZM11.4375 21.6421V16.5627H6.35815L11.4375 21.6421ZM5.56274 15.4377H17.6426L11.7671 9.56226H5.56274V15.4377ZM12.2329 8.43726H18.438V2.5625H6.35815L12.2329 8.43726Z"/>
</svg>