<svg xmlns="http://www.w3.org/2000/svg" width="24" height="24" fill="currentcolor" class="icon-frown" viewBox="0 0 24 24">
  <path d="M21.4377 11.9998C21.4376 6.78768 17.2119 2.5625 11.9998 2.5625C6.78776 2.56263 2.56263 6.78776 2.5625 11.9998C2.5625 17.2119 6.78768 21.4376 11.9998 21.4377C17.2119 21.4377 21.4377 17.2119 21.4377 11.9998ZM11.9998 13.4375C13.4047 13.4375 14.5189 13.9997 15.2686 14.5449C15.6444 14.8183 15.9349 15.0921 16.1328 15.2986C16.2319 15.402 16.3083 15.4895 16.3613 15.5527C16.3878 15.5843 16.4088 15.6095 16.4236 15.6282C16.4309 15.6374 16.4368 15.6452 16.4412 15.6509C16.4434 15.6537 16.4456 15.6563 16.447 15.6582C16.4476 15.659 16.448 15.6598 16.4485 15.6604L16.4492 15.6619C16.4494 15.662 16.4501 15.6626 16.0801 15.9402L16.45 15.6626C16.6363 15.9111 16.5857 16.2636 16.3372 16.45C16.1043 16.6245 15.7804 16.5912 15.5872 16.3818L15.5513 16.3386L15.5498 16.3372C15.5483 16.3353 15.5456 16.3318 15.5417 16.3269C15.5333 16.3163 15.5193 16.2986 15.5 16.2756C15.4613 16.2295 15.4011 16.1604 15.3206 16.0764C15.1591 15.9079 14.918 15.6812 14.6064 15.4546C13.9811 14.9998 13.0946 14.5625 11.9998 14.5625C10.9049 14.5626 10.0184 14.9998 9.39307 15.4546C9.08161 15.6811 8.84115 15.908 8.67969 16.0764C8.59921 16.1604 8.53897 16.2295 8.50024 16.2756C8.4809 16.2987 8.46692 16.3163 8.4585 16.3269C8.45438 16.3321 8.45113 16.3353 8.44971 16.3372C8.26331 16.5857 7.91088 16.6363 7.66235 16.45C7.41393 16.2635 7.36393 15.9111 7.55029 15.6626L7.55103 15.6604C7.55156 15.6597 7.55251 15.6591 7.55322 15.6582C7.55468 15.6563 7.55688 15.6537 7.55908 15.6509C7.56347 15.6452 7.56939 15.6374 7.57666 15.6282C7.59137 15.6096 7.61187 15.5841 7.63818 15.5527C7.69124 15.4895 7.76829 15.402 7.86743 15.2986C8.06534 15.0921 8.3558 14.8183 8.73169 14.5449C9.48127 13.9998 10.5949 13.4376 11.9998 13.4375ZM9.01001 8.43726C9.32058 8.43726 9.57238 8.68921 9.57251 8.99976C9.57251 9.31041 9.32067 9.56225 9.01001 9.56226H8.99976C8.68921 9.56212 8.43726 9.31033 8.43726 8.99976C8.43739 8.68929 8.68929 8.43739 8.99976 8.43726H9.01001ZM15.01 8.43726C15.3206 8.43726 15.5724 8.68921 15.5725 8.99976C15.5725 9.31041 15.3207 9.56225 15.01 9.56226H14.9998C14.6892 9.56212 14.4373 9.31033 14.4373 8.99976C14.4374 8.68929 14.6893 8.43739 14.9998 8.43726H15.01ZM22.5627 11.9998C22.5627 17.8333 17.8333 22.5627 11.9998 22.5627C6.16636 22.5626 1.4375 17.8332 1.4375 11.9998C1.43763 6.16644 6.16644 1.43763 11.9998 1.4375C17.8332 1.4375 22.5626 6.16636 22.5627 11.9998Z"/>
</svg>