<svg xmlns="http://www.w3.org/2000/svg" width="24" height="24" fill="currentcolor" class="icon-gift" viewBox="0 0 24 24">
  <path d="M18.4377 4.49976C18.4377 3.98604 18.2333 3.49341 17.8701 3.13013C17.5068 2.76678 17.0136 2.5625 16.4998 2.5625C15.0628 2.56262 14.0847 3.58076 13.4302 4.77075C13.1094 5.35398 12.8887 5.94287 12.7476 6.38867C12.7423 6.40517 12.7379 6.42167 12.7329 6.43774H16.4998C17.0136 6.43774 17.5068 6.23347 17.8701 5.87012C18.2335 5.50677 18.4377 5.01361 18.4377 4.49976ZM12.5623 21.4377H19.4375V12.5623H12.5623V21.4377ZM4.56274 21.4377H11.4373V12.5623H4.56274V21.4377ZM12.5623 11.4373H21.4377V7.56274H12.5623V11.4373ZM2.5625 11.4373H11.4373V7.56274H2.5625V11.4373ZM5.5625 4.49976C5.5625 5.01361 5.76678 5.50677 6.13013 5.87012C6.49341 6.23334 6.98604 6.43768 7.49976 6.43774H11.2673C11.2623 6.42167 11.2579 6.40517 11.2527 6.38867C11.1115 5.94287 10.8901 5.35398 10.5693 4.77075C9.91476 3.58078 8.9368 2.5625 7.49976 2.5625C6.98599 2.56256 6.49342 2.76683 6.13013 3.13013C5.76683 3.49342 5.56256 3.98599 5.5625 4.49976ZM19.5627 4.49976C19.5627 5.20913 19.3163 5.89328 18.8713 6.43774H22.0002C22.3108 6.43788 22.5627 6.68967 22.5627 7.00024V11.9998C22.5627 12.3103 22.3108 12.5621 22.0002 12.5623H20.5625V22.0002C20.5624 22.3108 20.3106 22.5627 20 22.5627H4.00024C3.68967 22.5627 3.43788 22.3108 3.43774 22.0002V12.5623H2C1.68934 12.5623 1.4375 12.3104 1.4375 11.9998V7.00024C1.4375 6.68958 1.68934 6.43774 2 6.43774H5.12891C4.68391 5.89326 4.4375 5.20918 4.4375 4.49976C4.43756 3.68762 4.76044 2.90899 5.33472 2.33472C5.90899 1.76044 6.68762 1.43756 7.49976 1.4375C9.56245 1.4375 10.8347 2.91895 11.5552 4.22876C11.7294 4.54552 11.8764 4.86146 11.9998 5.1582C12.1231 4.86141 12.2701 4.54558 12.4443 4.22876C13.1647 2.91895 14.4371 1.43762 16.4998 1.4375C17.312 1.4375 18.0912 1.76039 18.6655 2.33472C19.2397 2.90898 19.5627 3.68768 19.5627 4.49976Z"/>
</svg>