<svg xmlns="http://www.w3.org/2000/svg" width="24" height="24" fill="currentcolor" class="icon-git-commit" viewBox="0 0 24 24">
  <path d="M11.9997 7.4375C14.411 7.4375 16.384 9.30824 16.5495 11.6775C16.6512 11.5325 16.8196 11.4373 17.0102 11.4373H22.9597C23.2702 11.4373 23.522 11.6892 23.5222 11.9998C23.5222 12.3104 23.2703 12.5623 22.9597 12.5623H17.0102C16.8195 12.5623 16.6512 12.4672 16.5495 12.322C16.3842 14.6915 14.4112 16.5627 11.9997 16.5627C9.59229 16.5626 7.62156 14.6976 7.45062 12.3337C7.34817 12.4719 7.18534 12.5622 7.00018 12.5623H1.04999C0.739328 12.5623 0.487488 12.3104 0.487488 11.9998C0.48762 11.6892 0.739409 11.4373 1.04999 11.4373H7.00018C7.1852 11.4373 7.34815 11.5278 7.45062 11.6658C7.62179 9.30215 9.59246 7.43765 11.9997 7.4375ZM11.9997 8.5625C10.1014 8.56266 8.56257 10.1015 8.56244 11.9998C8.56244 13.8981 10.1014 15.4376 11.9997 15.4377C13.8982 15.4377 15.4377 13.8982 15.4377 11.9998C15.4376 10.1014 13.8981 8.5625 11.9997 8.5625Z"/>
</svg>