<svg xmlns="http://www.w3.org/2000/svg" width="24" height="24" fill="currentcolor" class="icon-git-branch" viewBox="0 0 24 24">
  <path d="M20.4375 6C20.4375 4.65381 19.3462 3.5625 18 3.5625C16.6538 3.5625 15.5625 4.65381 15.5625 6C15.5625 7.34619 16.6538 8.4375 18 8.4375C19.3462 8.4375 20.4375 7.34619 20.4375 6ZM3.5625 18C3.5625 19.3462 4.65381 20.4375 6 20.4375C7.34619 20.4375 8.4375 19.3462 8.4375 18C8.4375 16.6538 7.34619 15.5625 6 15.5625C4.65381 15.5625 3.5625 16.6538 3.5625 18ZM21.5625 6C21.5625 7.78118 20.2552 9.25645 18.5479 9.52002C18.4201 11.8666 17.4321 14.0914 15.7617 15.7617C14.0914 17.4321 11.8666 18.4201 9.52002 18.5479C9.25645 20.2552 7.78118 21.5625 6 21.5625C4.03249 21.5625 2.4375 19.9675 2.4375 18C2.4375 16.2239 3.73724 14.7511 5.4375 14.4814V3C5.4375 2.68934 5.68934 2.4375 6 2.4375C6.31066 2.4375 6.5625 2.68934 6.5625 3V14.4814C8.0736 14.7211 9.26702 15.9113 9.51416 17.4199C11.5643 17.2948 13.5056 16.427 14.9663 14.9663C16.427 13.5056 17.2948 11.5643 17.4199 9.51416C15.7284 9.23705 14.4375 7.76991 14.4375 6C14.4375 4.03249 16.0325 2.4375 18 2.4375C19.9675 2.4375 21.5625 4.03249 21.5625 6Z"/>
</svg>