<svg xmlns="http://www.w3.org/2000/svg" width="24" height="24" fill="currentcolor" class="icon-git-commit" viewBox="0 0 24 24">
  <path d="M11.9995 7.4375C14.4108 7.4375 16.3838 9.30824 16.5493 11.6775C16.6511 11.5325 16.8194 11.4373 17.01 11.4373H22.9595C23.2701 11.4373 23.5218 11.6892 23.522 11.9998C23.522 12.3104 23.2701 12.5623 22.9595 12.5623H17.01C16.8193 12.5623 16.651 12.4672 16.5493 12.322C16.384 14.6915 14.411 16.5627 11.9995 16.5627C9.59211 16.5626 7.62137 14.6976 7.45044 12.3337C7.34798 12.4719 7.18516 12.5622 7 12.5623H1.0498C0.739145 12.5623 0.487305 12.3104 0.487305 11.9998C0.487437 11.6892 0.739226 11.4373 1.0498 11.4373H7C7.18502 11.4373 7.34797 11.5278 7.45044 11.6658C7.62161 9.30215 9.59228 7.43765 11.9995 7.4375ZM11.9995 8.5625C10.1012 8.56266 8.56239 10.1015 8.56226 11.9998C8.56226 13.8981 10.1012 15.4376 11.9995 15.4377C13.898 15.4377 15.4375 13.8982 15.4375 11.9998C15.4374 10.1014 13.8979 8.5625 11.9995 8.5625Z"/>
</svg>