<svg xmlns="http://www.w3.org/2000/svg" width="24" height="24" fill="currentcolor" class="icon-git-merge" viewBox="0 0 24 24">
  <path d="M20.4375 18C20.4375 16.6538 19.3462 15.5625 18 15.5625C16.6538 15.5625 15.5625 16.6538 15.5625 18C15.5625 19.3462 16.6538 20.4375 18 20.4375C19.3462 20.4375 20.4375 19.3462 20.4375 18ZM8.4375 6C8.4375 4.65381 7.34619 3.5625 6 3.5625C4.65381 3.5625 3.5625 4.65381 3.5625 6C3.5625 7.34619 4.65381 8.4375 6 8.4375C7.34619 8.4375 8.4375 7.34619 8.4375 6ZM9.5625 6C9.5625 7.77016 8.2712 9.23735 6.57935 9.51416C6.70444 11.5643 7.57299 13.5056 9.03369 14.9663C10.4942 16.4268 12.4352 17.2947 14.4851 17.4199C14.7622 15.7284 16.23 14.4375 18 14.4375C19.9675 14.4375 21.5625 16.0325 21.5625 18C21.5625 19.9675 19.9675 21.5625 18 21.5625C16.2188 21.5625 14.7428 20.2553 14.4792 18.5479C12.1329 18.42 9.90846 17.4319 8.23828 15.7617C7.565 15.0884 7.00252 14.3251 6.5625 13.5V21C6.5625 21.3107 6.31066 21.5625 6 21.5625C5.68934 21.5625 5.4375 21.3107 5.4375 21V9.51782C3.7373 9.2481 2.4375 7.77609 2.4375 6C2.4375 4.03249 4.03249 2.4375 6 2.4375C7.96751 2.4375 9.5625 4.03249 9.5625 6Z"/>
</svg>