<svg xmlns="http://www.w3.org/2000/svg" width="24" height="24" fill="currentcolor" class="icon-git-pull-request" viewBox="0 0 24 24">
  <path d="M8.4375 6C8.4375 4.65381 7.34619 3.5625 6 3.5625C4.65381 3.5625 3.5625 4.65381 3.5625 6C3.5625 7.34619 4.65381 8.4375 6 8.4375C7.34619 8.4375 8.4375 7.34619 8.4375 6ZM20.4375 18C20.4375 16.6538 19.3462 15.5625 18 15.5625C16.6538 15.5625 15.5625 16.6538 15.5625 18C15.5625 19.3462 16.6538 20.4375 18 20.4375C19.3462 20.4375 20.4375 19.3462 20.4375 18ZM21.5625 18C21.5625 19.9675 19.9675 21.5625 18 21.5625C16.0325 21.5625 14.4375 19.9675 14.4375 18C14.4375 16.2239 15.7372 14.7511 17.4375 14.4814V8.00024C17.4375 7.619 17.2859 7.25323 17.0164 6.98364C16.7468 6.71406 16.381 6.5625 15.9998 6.5625H12.9998C12.6892 6.56237 12.4373 6.31058 12.4373 6C12.4373 5.68942 12.6892 5.43763 12.9998 5.4375H15.9998C16.6794 5.4375 17.3312 5.70767 17.8118 6.18823C18.2923 6.66879 18.5625 7.32063 18.5625 8.00024V14.4814C20.2628 14.7511 21.5625 16.2239 21.5625 18ZM9.5625 6C9.5625 7.77609 8.2627 9.2481 6.5625 9.51782V21C6.5625 21.3107 6.31066 21.5625 6 21.5625C5.68934 21.5625 5.4375 21.3107 5.4375 21V9.51782C3.7373 9.2481 2.4375 7.77609 2.4375 6C2.4375 4.03249 4.03249 2.4375 6 2.4375C7.96751 2.4375 9.5625 4.03249 9.5625 6Z"/>
</svg>