<svg xmlns="http://www.w3.org/2000/svg" width="24" height="24" fill="currentcolor" class="icon-github" viewBox="0 0 24 24">
  <path d="M15.4378 22.0003V18.1302C15.4378 18.1156 15.4381 18.1008 15.4392 18.0862C15.4705 17.689 15.4168 17.2893 15.2818 16.9144C15.1467 16.5395 14.9335 16.1977 14.6563 15.9117C14.507 15.7577 14.4579 15.532 14.5303 15.3301C14.6028 15.1282 14.7843 14.9848 14.9976 14.961C16.536 14.7895 18.0082 14.4199 19.0955 13.5057C20.0891 12.6701 20.8389 11.3118 20.9287 8.99615L20.9375 8.52007C20.9373 7.26827 20.4559 6.06416 19.5928 5.15752C19.4444 5.00162 19.3974 4.77469 19.4727 4.57305C19.8381 3.59389 19.8495 2.52245 19.5137 1.54009C19.4095 1.54727 19.2723 1.56497 19.1006 1.60308C18.5479 1.7258 17.6343 2.06134 16.313 2.94707C16.1778 3.03765 16.0101 3.06574 15.853 3.02325C13.6574 2.42818 11.3426 2.42818 9.14698 3.02325C8.98992 3.06574 8.8222 3.03765 8.68702 2.94707C7.36568 2.06134 6.45215 1.7258 5.89943 1.60308C5.72737 1.56488 5.58993 1.54724 5.48561 1.54009C5.14991 2.52238 5.162 3.59397 5.52736 4.57305C5.60261 4.77469 5.5556 5.00162 5.40724 5.15752C4.53765 6.07089 4.05581 7.28607 4.06251 8.54717V8.5501C4.06253 11.1366 4.84354 12.6135 5.90455 13.5057C6.99373 14.4215 8.46795 14.8003 10.009 14.9918C10.2207 15.018 10.3995 15.162 10.4705 15.3631C10.5413 15.5641 10.4926 15.7878 10.3445 15.941C10.0704 16.2242 9.85906 16.5624 9.72413 16.9327C9.58923 17.303 9.53315 17.6975 9.5608 18.0906C9.56172 18.1037 9.56227 18.117 9.56227 18.1302V22.0003C9.5621 22.3108 9.31033 22.5628 8.99977 22.5628C8.68932 22.5627 8.43743 22.3107 8.43727 22.0003V19.7269C7.45626 19.9419 6.64293 19.944 5.94996 19.7818C5.08618 19.5796 4.46621 19.1366 3.97755 18.648C3.73643 18.4069 3.52539 18.1529 3.33595 17.9156C3.13962 17.6696 2.97844 17.4576 2.80641 17.2557C2.46474 16.8546 2.186 16.6266 1.86378 16.546C1.5624 16.4706 1.37901 16.1647 1.45436 15.8633C1.52979 15.5621 1.83497 15.3794 2.13624 15.4546C2.81392 15.6241 3.28561 16.0836 3.66261 16.5262C3.84973 16.7459 4.04029 16.9945 4.21486 17.2132C4.39647 17.4407 4.57665 17.6563 4.77296 17.8526C5.15919 18.2388 5.60168 18.5453 6.20631 18.6868C6.74694 18.8133 7.46057 18.817 8.43727 18.5711V18.1302C8.40485 17.5925 8.48205 17.0538 8.66652 16.5474C8.73988 16.346 8.83006 16.1517 8.93458 15.9659C7.6144 15.7242 6.26677 15.2807 5.18019 14.367C3.89211 13.2839 3.04824 11.6092 2.94777 9.06939L2.93751 8.5501C2.93057 7.11418 3.43868 5.72753 4.36281 4.63824C3.97662 3.37054 4.04803 2.00321 4.57301 0.778372L4.60084 0.722708C4.67217 0.596864 4.78952 0.502156 4.9297 0.460501L5.0901 1.0003C4.93874 0.489994 4.93108 0.462128 4.93116 0.460501L4.93263 0.459769L4.93483 0.459036C4.93633 0.458603 4.93831 0.458762 4.93995 0.458304C4.94338 0.457347 4.94693 0.455692 4.95094 0.454642C4.95913 0.452497 4.96889 0.450464 4.9795 0.44805C5.00061 0.443257 5.02648 0.438299 5.05714 0.433402C5.1191 0.42352 5.20081 0.414208 5.30177 0.411429C5.50399 0.405881 5.78305 0.424464 6.14332 0.504446C6.82659 0.656151 7.79976 1.02837 9.10157 1.87334C11.3324 1.31261 13.6668 1.31273 15.8977 1.87334C17.1998 1.02814 18.1733 0.656171 18.8567 0.504446C19.217 0.424464 19.496 0.405881 19.6983 0.411429C19.7992 0.414208 19.8809 0.42352 19.9429 0.433402C19.9735 0.438299 19.9994 0.443257 20.0205 0.44805C20.0311 0.450464 20.0409 0.452497 20.0491 0.454642C20.0531 0.455692 20.0566 0.457347 20.0601 0.458304C20.0617 0.458762 20.0637 0.458603 20.0652 0.459036L20.0674 0.459769L20.0689 0.460501C20.0689 0.462127 20.0613 0.48999 19.9099 1.0003L20.0703 0.460501C20.2305 0.508103 20.3612 0.624765 20.427 0.778372C20.952 2.00327 21.0227 3.37049 20.6365 4.63824C21.5541 5.71969 22.0622 7.0944 22.0625 8.52007C22.0625 11.3716 21.1949 13.2108 19.8198 14.367C18.7348 15.2794 17.3899 15.7156 16.0713 15.9446C16.1766 16.1327 16.2667 16.3297 16.3401 16.5335C16.5242 17.0448 16.5993 17.5883 16.5628 18.1302V22.0003C16.5626 22.3107 16.3107 22.5627 16.0003 22.5628C15.6897 22.5628 15.4379 22.3108 15.4378 22.0003Z"/>
</svg>