<svg xmlns="http://www.w3.org/2000/svg" width="24" height="24" fill="currentcolor" class="icon-github" viewBox="0 0 24 24">
  <path d="M15.4378 22.0003V18.1302C15.4378 18.1156 15.4381 18.1008 15.4393 18.0862C15.4705 17.689 15.4168 17.2893 15.2818 16.9144C15.1468 16.5395 14.9336 16.1977 14.6563 15.9117C14.507 15.7577 14.458 15.532 14.5303 15.3301C14.6029 15.1282 14.7844 14.9848 14.9976 14.961C16.536 14.7895 18.0083 14.4199 19.0955 13.5057C20.0892 12.6701 20.839 11.3118 20.9288 8.99615L20.9376 8.52007C20.9373 7.26827 20.456 6.06416 19.5928 5.15752C19.4445 5.00162 19.3975 4.77469 19.4727 4.57305C19.8381 3.59389 19.8495 2.52245 19.5137 1.54009C19.4095 1.54727 19.2723 1.56497 19.1007 1.60308C18.5479 1.7258 17.6344 2.06134 16.3131 2.94707C16.1779 3.03765 16.0102 3.06574 15.8531 3.02325C13.6575 2.42818 11.3427 2.42818 9.14705 3.02325C8.98998 3.06574 8.82226 3.03765 8.68708 2.94707C7.36574 2.06134 6.45221 1.7258 5.89949 1.60308C5.72743 1.56488 5.58999 1.54724 5.48567 1.54009C5.14997 2.52238 5.16206 3.59397 5.52742 4.57305C5.60267 4.77469 5.55567 5.00162 5.4073 5.15752C4.53771 6.07089 4.05587 7.28607 4.06257 8.54717V8.5501C4.0626 11.1366 4.8436 12.6135 5.90461 13.5057C6.99379 14.4215 8.46801 14.8003 10.0091 14.9918C10.2207 15.018 10.3996 15.162 10.4705 15.3631C10.5413 15.5641 10.4926 15.7878 10.3446 15.941C10.0705 16.2242 9.85912 16.5624 9.72419 16.9327C9.58929 17.303 9.53321 17.6975 9.56086 18.0906C9.56178 18.1037 9.56233 18.117 9.56233 18.1302V22.0003C9.56216 22.3108 9.31039 22.5628 8.99983 22.5628C8.68938 22.5627 8.4375 22.3107 8.43733 22.0003V19.7269C7.45632 19.9419 6.64299 19.944 5.95002 19.7818C5.08624 19.5796 4.46627 19.1366 3.97761 18.648C3.73649 18.4069 3.52546 18.1529 3.33601 17.9156C3.13968 17.6696 2.97851 17.4576 2.80647 17.2557C2.4648 16.8546 2.18606 16.6266 1.86384 16.546C1.56246 16.4706 1.37907 16.1647 1.45442 15.8633C1.52985 15.5621 1.83503 15.3794 2.1363 15.4546C2.81398 15.6241 3.28567 16.0836 3.66267 16.5262C3.84979 16.7459 4.04036 16.9945 4.21492 17.2132C4.39653 17.4407 4.57671 17.6563 4.77302 17.8526C5.15925 18.2388 5.60174 18.5453 6.20637 18.6868C6.747 18.8133 7.46064 18.817 8.43733 18.5711V18.1302C8.40491 17.5925 8.48211 17.0538 8.66658 16.5474C8.73994 16.346 8.83012 16.1517 8.93464 15.9659C7.61446 15.7242 6.26683 15.2807 5.18025 14.367C3.89217 13.2839 3.0483 11.6092 2.94783 9.06939L2.93757 8.5501C2.93063 7.11418 3.43874 5.72753 4.36287 4.63824C3.97668 3.37054 4.0481 2.00321 4.57307 0.778372L4.6009 0.722708C4.67223 0.596864 4.78958 0.502156 4.92976 0.460501L5.09016 1.0003C4.9388 0.489994 4.93114 0.462128 4.93123 0.460501L4.93269 0.459769L4.93489 0.459036C4.9364 0.458603 4.93837 0.458762 4.94001 0.458304C4.94345 0.457347 4.94699 0.455692 4.951 0.454642C4.95919 0.452497 4.96895 0.450464 4.97957 0.44805C5.00067 0.443257 5.02654 0.438299 5.0572 0.433402C5.11916 0.42352 5.20087 0.414208 5.30183 0.411429C5.50405 0.405881 5.78311 0.424464 6.14338 0.504446C6.82665 0.656151 7.79982 1.02837 9.10164 1.87334C11.3325 1.31261 13.6669 1.31273 15.8978 1.87334C17.1999 1.02814 18.1734 0.656171 18.8568 0.504446C19.217 0.424464 19.4961 0.405881 19.6983 0.411429C19.7993 0.414208 19.881 0.42352 19.9429 0.433402C19.9736 0.438299 19.9995 0.443257 20.0206 0.44805C20.0312 0.450464 20.041 0.452497 20.0491 0.454642C20.0532 0.455692 20.0567 0.457347 20.0601 0.458304C20.0618 0.458762 20.0638 0.458603 20.0653 0.459036L20.0675 0.459769L20.0689 0.460501C20.069 0.462127 20.0613 0.48999 19.91 1.0003L20.0704 0.460501C20.2306 0.508103 20.3612 0.624765 20.4271 0.778372C20.9521 2.00327 21.0228 3.37049 20.6365 4.63824C21.5541 5.71969 22.0623 7.0944 22.0626 8.52007C22.0626 11.3716 21.1949 13.2108 19.8199 14.367C18.7348 15.2794 17.39 15.7156 16.0714 15.9446C16.1766 16.1327 16.2667 16.3297 16.3402 16.5335C16.5243 17.0448 16.5994 17.5883 16.5628 18.1302V22.0003C16.5627 22.3107 16.3108 22.5627 16.0003 22.5628C15.6898 22.5628 15.438 22.3108 15.4378 22.0003Z"/>
</svg>