<svg xmlns="http://www.w3.org/2000/svg" width="24" height="24" fill="currentcolor" class="icon-github-square-brand" viewBox="0 0 24 24">
  <path d="M20.75 5.75V18.25C20.75 19.6562 19.6172 20.75 18.25 20.75H5.75C4.34375 20.75 3.25 19.6562 3.25 18.25V5.75C3.25 4.38281 4.34375 3.25 5.75 3.25H18.25C19.6172 3.25 20.75 4.38281 20.75 5.75ZM13.6016 17.9375C13.6016 18.0938 13.7188 18.3281 14.0703 18.25C16.6484 17.3906 18.4062 14.9297 18.4062 12.0781C18.4062 8.48438 15.4766 5.75 11.8828 5.75C8.32812 5.75 5.55469 8.48438 5.55469 12.0781C5.55469 14.9297 7.39062 17.3906 9.96875 18.25C10.2812 18.3281 10.3984 18.0938 10.3984 17.9375C10.3984 17.8984 10.3984 17.7422 10.3984 17.5469C10.3984 17.1953 10.3984 16.7266 10.3984 16.375C10.3984 16.375 8.5625 16.7656 8.21094 15.5938C8.21094 15.5938 7.89844 14.8516 7.46875 14.6562C7.46875 14.6562 6.88281 14.2266 7.50781 14.2266C7.50781 14.2266 8.17188 14.3047 8.52344 14.9297C9.07031 15.9062 10.0469 15.6328 10.3984 15.4375C10.4766 15.0469 10.6328 14.7344 10.8281 14.5781C9.38281 14.4219 7.9375 14.2266 7.9375 11.7266C7.9375 11.0234 8.13281 10.6719 8.52344 10.2031C8.44531 10.0469 8.25 9.34375 8.60156 8.44531C9.14844 8.28906 10.3984 9.14844 10.3984 9.14844C10.9062 8.99219 11.4531 8.91406 12 8.91406C12.5469 8.91406 13.1328 8.99219 13.6406 9.14844C13.6406 9.14844 14.8906 8.28906 15.3984 8.44531C15.7891 9.34375 15.5547 10.0469 15.4766 10.2031C15.9062 10.6719 16.1406 11.0234 16.1406 11.7266C16.1406 14.2266 14.6172 14.4219 13.1719 14.5781C13.4062 14.7734 13.6406 15.1641 13.6406 15.7891C13.6406 16.375 13.6406 17.0391 13.6016 17.5078C13.6016 17.7031 13.6016 17.8594 13.6016 17.9375ZM10.0859 15.7891C10.0859 15.8672 10.1641 15.8672 10.2422 15.8672C10.3203 15.8672 10.3594 15.7891 10.3594 15.75C10.3594 15.7109 10.2812 15.6719 10.2031 15.6719C10.125 15.7109 10.0859 15.75 10.0859 15.7891ZM9.73438 15.9453C9.8125 15.9453 9.85156 15.8672 9.85156 15.8281C9.85156 15.7891 9.77344 15.75 9.73438 15.75C9.65625 15.75 9.57812 15.7891 9.57812 15.8281C9.57812 15.9062 9.65625 15.9453 9.73438 15.9453ZM9.14844 15.8281C9.22656 15.8672 9.30469 15.8281 9.34375 15.7891C9.34375 15.75 9.30469 15.6719 9.22656 15.6719C9.14844 15.6328 9.07031 15.6719 9.07031 15.7109C9.03125 15.75 9.10938 15.8281 9.14844 15.8281ZM8.67969 15.5547C8.71875 15.6328 8.79688 15.6328 8.83594 15.5938C8.875 15.5547 8.875 15.4766 8.79688 15.4375C8.75781 15.3594 8.67969 15.3594 8.64062 15.3984C8.60156 15.4375 8.60156 15.5156 8.67969 15.5547ZM8.32812 15.1641C8.40625 15.2422 8.44531 15.2422 8.48438 15.2422C8.52344 15.2031 8.52344 15.125 8.48438 15.0469C8.44531 15.0078 8.40625 14.9688 8.32812 15.0078C8.28906 15.0469 8.28906 15.125 8.32812 15.1641ZM8.09375 14.8125C8.13281 14.8516 8.21094 14.8906 8.25 14.8516C8.28906 14.8125 8.25 14.7734 8.21094 14.6953C8.17188 14.6562 8.13281 14.6562 8.09375 14.6953C8.05469 14.6953 8.05469 14.7734 8.09375 14.8125ZM7.85938 14.5781C7.89844 14.6172 7.97656 14.5781 7.97656 14.5391C7.97656 14.5391 7.97656 14.5 7.89844 14.4609C7.85938 14.4219 7.82031 14.4609 7.82031 14.4609C7.78125 14.5 7.82031 14.5391 7.85938 14.5781Z"/>
</svg>