<svg xmlns="http://www.w3.org/2000/svg" width="24" height="24" fill="currentcolor" class="icon-gitlab" viewBox="0 0 24 24">
  <path d="M18.8898 1.32501C19.1375 1.32501 19.3763 1.41796 19.5592 1.58502C19.563 1.58852 19.5672 1.59167 19.5709 1.59528C19.6884 1.70881 19.7744 1.85051 19.8236 2.00616H19.8251L22.2626 9.50983H22.2633L23.5326 13.2701L23.5399 13.2928C23.6243 13.5824 23.6129 13.8919 23.5077 14.1746C23.4059 14.4476 23.221 14.6807 22.9803 14.8441L22.9811 14.8448L12.3309 22.585C12.1338 22.7283 11.8667 22.7282 11.6695 22.585L1.01939 14.8448L1.01646 14.8433C0.778137 14.668 0.60178 14.4213 0.511826 14.1395C0.422281 13.8588 0.423877 13.5574 0.515488 13.2774H0.514756L1.73497 9.49738V9.49591L4.1754 1.98639L4.18565 1.95709C4.24102 1.81399 4.32894 1.68575 4.44273 1.58282V1.58356C4.6254 1.41749 4.86305 1.32502 5.10997 1.32501C5.32677 1.32501 5.53672 1.39599 5.70836 1.5257L5.7794 1.58502L5.79112 1.59528C5.90844 1.70867 5.99455 1.85002 6.04381 2.00543H6.04454L8.35826 9.10773H15.6407L17.9552 1.98639L17.9654 1.95709C18.0208 1.814 18.1087 1.68575 18.2225 1.58282V1.58356C18.4051 1.41747 18.6429 1.32507 18.8898 1.32501ZM2.80504 9.84381L1.58556 13.6231L1.58409 13.626C1.56576 13.6816 1.56563 13.7417 1.58336 13.7974C1.60112 13.8531 1.63597 13.9019 1.68297 13.9366L11.9999 21.4344L22.319 13.9351L22.3446 13.9175C22.3945 13.8852 22.4329 13.8378 22.4537 13.782C22.4746 13.7261 22.4763 13.6643 22.4596 13.607H22.4588L21.1969 9.87018L21.1947 9.86359L18.8861 2.75909L16.5848 9.84381C16.5095 10.0755 16.2938 10.2327 16.0502 10.2327H7.9503C7.70684 10.2327 7.49039 10.076 7.4149 9.84454L5.10631 2.75763L2.80504 9.84381Z"/>
</svg>