<svg xmlns="http://www.w3.org/2000/svg" width="24" height="24" fill="currentcolor" class="icon-gitlab" viewBox="0 0 24 24">
  <path d="M18.8894 1.32495C19.1371 1.32495 19.3759 1.4179 19.5588 1.58496C19.5626 1.58846 19.5668 1.59161 19.5705 1.59521C19.688 1.70875 19.774 1.85045 19.8232 2.0061H19.8247L22.2622 9.50977H22.2629L23.5322 13.27L23.5395 13.2927C23.6239 13.5824 23.6126 13.8918 23.5073 14.1746C23.4055 14.4476 23.2206 14.6806 22.9799 14.844L22.9807 14.8447L12.3305 22.585C12.1334 22.7282 11.8663 22.7282 11.6691 22.585L1.019 14.8447L1.01607 14.8433C0.777741 14.668 0.601383 14.4213 0.511429 14.1394C0.421884 13.8587 0.42348 13.5573 0.515092 13.2773H0.514359L1.73457 9.49731V9.49585L4.175 1.98633L4.18526 1.95703C4.24062 1.81393 4.32854 1.68569 4.44234 1.58276V1.5835C4.625 1.41743 4.86265 1.32496 5.10957 1.32495C5.32637 1.32495 5.53633 1.39593 5.70796 1.52563L5.77901 1.58496L5.79073 1.59521C5.90804 1.70861 5.99415 1.84996 6.04341 2.00537H6.04414L8.35786 9.10767H15.6403L17.9548 1.98633L17.965 1.95703C18.0204 1.81394 18.1084 1.68569 18.2221 1.58276V1.5835C18.4047 1.41741 18.6425 1.32501 18.8894 1.32495ZM2.80464 9.84375L1.58516 13.623L1.5837 13.626C1.56537 13.6815 1.56523 13.7417 1.58296 13.7974C1.60072 13.853 1.63557 13.9019 1.68257 13.9365L11.9995 21.4343L22.3186 13.9351L22.3442 13.9175C22.3941 13.8851 22.4325 13.8377 22.4533 13.782C22.4742 13.726 22.4759 13.6642 22.4592 13.6069H22.4585L21.1965 9.87012L21.1943 9.86353L18.8857 2.75903L16.5844 9.84375C16.5091 10.0755 16.2934 10.2326 16.0498 10.2327H7.94991C7.70644 10.2327 7.48999 10.0759 7.41451 9.84448L5.10591 2.75757L2.80464 9.84375Z"/>
</svg>