<svg xmlns="http://www.w3.org/2000/svg" width="24" height="24" fill="currentcolor" class="icon-gitlab" viewBox="0 0 24 24">
  <path d="M18.8898 1.32501C19.1376 1.32501 19.3764 1.41796 19.5593 1.58502C19.5631 1.58852 19.5673 1.59167 19.571 1.59528C19.6885 1.70881 19.7745 1.85051 19.8237 2.00616H19.8252L22.2627 9.50983H22.2634L23.5327 13.2701L23.54 13.2928C23.6243 13.5824 23.613 13.8919 23.5078 14.1746C23.406 14.4476 23.2211 14.6807 22.9804 14.8441L22.9812 14.8448L12.331 22.585C12.1339 22.7283 11.8668 22.7282 11.6696 22.585L1.01949 14.8448L1.01656 14.8433C0.778229 14.668 0.601871 14.4213 0.511918 14.1395C0.422373 13.8588 0.423968 13.5574 0.51558 13.2774H0.514847L1.73506 9.49738V9.49591L4.17549 1.98639L4.18575 1.95709C4.24111 1.81399 4.32903 1.68575 4.44283 1.58282V1.58356C4.62549 1.41749 4.86314 1.32502 5.11006 1.32501C5.32686 1.32501 5.53682 1.39599 5.70845 1.5257L5.7795 1.58502L5.79121 1.59528C5.90853 1.70867 5.99464 1.85002 6.0439 2.00543H6.04463L8.35835 9.10773H15.6408L17.9553 1.98639L17.9655 1.95709C18.0209 1.814 18.1088 1.68575 18.2226 1.58282V1.58356C18.4052 1.41747 18.6429 1.32507 18.8898 1.32501ZM2.80513 9.84381L1.58565 13.6231L1.58418 13.626C1.56586 13.6816 1.56572 13.7417 1.58345 13.7974C1.60121 13.8531 1.63606 13.9019 1.68306 13.9366L12 21.4344L22.319 13.9351L22.3447 13.9175C22.3946 13.8852 22.433 13.8378 22.4538 13.782C22.4746 13.7261 22.4764 13.6643 22.4597 13.607H22.4589L21.197 9.87018L21.1948 9.86359L18.8862 2.75909L16.5849 9.84381C16.5096 10.0755 16.2939 10.2327 16.0502 10.2327H7.95039C7.70693 10.2327 7.49048 10.076 7.41499 9.84454L5.1064 2.75763L2.80513 9.84381Z"/>
</svg>