<svg xmlns="http://www.w3.org/2000/svg" width="24" height="24" fill="currentcolor" class="icon-globe" viewBox="0 0 24 24">
  <path d="M11.9998 1.4375C17.8332 1.4375 22.5626 6.16636 22.5627 11.9998C22.5627 17.8333 17.8333 22.5627 11.9998 22.5627C6.16636 22.5626 1.4375 17.8332 1.4375 11.9998C1.43763 6.16644 6.16644 1.43763 11.9998 1.4375ZM2.58008 12.5623C2.8459 17.0858 6.29698 20.7519 10.7231 21.3506C8.77839 18.8218 7.63725 15.7596 7.45947 12.5623H2.58008ZM16.5408 12.5623C16.363 15.7595 15.2218 18.8218 13.2771 21.3506C17.7031 20.7518 21.1544 17.0858 21.4202 12.5623H16.5408ZM8.58667 12.5623C8.77542 15.7153 9.97194 18.7242 11.9998 21.1448C14.0277 18.7242 15.2248 15.7154 15.4136 12.5623H8.58667ZM13.2764 2.64893C15.2213 5.17767 16.3629 8.23989 16.5408 11.4373H21.4202C21.1541 6.9137 17.7026 3.24741 13.2764 2.64893ZM11.9998 2.85474C9.9719 5.27523 8.77552 8.28423 8.58667 11.4373H15.4136C15.2247 8.28412 14.0277 5.27528 11.9998 2.85474ZM10.7231 2.64819C6.29707 3.24683 2.84612 6.91383 2.58008 11.4373H7.45947C7.63735 8.2398 8.77813 5.17698 10.7231 2.64819Z"/>
</svg>