<svg xmlns="http://www.w3.org/2000/svg" width="24" height="24" fill="currentcolor" class="icon-grid" viewBox="0 0 24 24">
  <path d="M9.99976 13.4377C10.3104 13.4377 10.5623 13.6896 10.5623 14.0002V21C10.5623 21.3107 10.3104 21.5625 9.99976 21.5625H3C2.68934 21.5625 2.4375 21.3107 2.4375 21V14.0002C2.4375 13.6896 2.68934 13.4377 3 13.4377H9.99976ZM21 13.4377C21.3107 13.4377 21.5625 13.6896 21.5625 14.0002V21C21.5625 21.3107 21.3107 21.5625 21 21.5625H14.0002C13.6896 21.5625 13.4377 21.3107 13.4377 21V14.0002C13.4377 13.6896 13.6896 13.4377 14.0002 13.4377H21ZM14.5627 20.4375H20.4375V14.5627H14.5627V20.4375ZM3.5625 20.4375H9.43726V14.5627H3.5625V20.4375ZM9.99976 2.4375C10.3104 2.4375 10.5623 2.68934 10.5623 3V9.99976C10.5623 10.3104 10.3104 10.5623 9.99976 10.5623H3C2.68934 10.5623 2.4375 10.3104 2.4375 9.99976V3C2.4375 2.68934 2.68934 2.4375 3 2.4375H9.99976ZM21 2.4375C21.3107 2.4375 21.5625 2.68934 21.5625 3V9.99976C21.5625 10.3104 21.3107 10.5623 21 10.5623H14.0002C13.6896 10.5623 13.4377 10.3104 13.4377 9.99976V3C13.4377 2.68934 13.6896 2.4375 14.0002 2.4375H21ZM14.5627 9.43726H20.4375V3.5625H14.5627V9.43726ZM3.5625 9.43726H9.43726V3.5625H3.5625V9.43726Z"/>
</svg>