<svg xmlns="http://www.w3.org/2000/svg" width="24" height="24" fill="currentcolor" class="icon-hash" viewBox="0 0 24 24">
  <path d="M16.0623 2.44118C16.3709 2.47556 16.5931 2.75356 16.5588 3.06227L15.9619 8.43751H19.9998C20.3104 8.43751 20.5623 8.68935 20.5623 9.00001C20.5623 9.31067 20.3104 9.56251 19.9998 9.56251H15.8367L15.2954 14.4375H19.9998C20.3104 14.4375 20.5623 14.6894 20.5623 15C20.5623 15.3107 20.3104 15.5625 19.9998 15.5625H15.1702L14.5593 21.0623C14.525 21.3709 14.2468 21.593 13.9382 21.5589C13.6295 21.5245 13.4066 21.2465 13.4409 20.9378L14.0386 15.5625H9.17017L8.55933 21.0623C8.52498 21.3709 8.24683 21.593 7.93823 21.5589C7.62947 21.5245 7.40661 21.2465 7.44092 20.9378L8.03857 15.5625H4C3.68934 15.5625 3.4375 15.3107 3.4375 15C3.4375 14.6894 3.68934 14.4375 4 14.4375H8.16309L8.70508 9.56251H4C3.68934 9.56251 3.4375 9.31067 3.4375 9.00001C3.4375 8.68935 3.68934 8.43751 4 8.43751H8.83032L9.44116 2.93776C9.47555 2.62908 9.75355 2.40688 10.0623 2.44118C10.3709 2.47556 10.5931 2.75356 10.5588 3.06227L9.96191 8.43751H14.8303L15.4412 2.93776C15.4755 2.62908 15.7535 2.40688 16.0623 2.44118ZM9.29541 14.4375H14.1631L14.7051 9.56251H9.83667L9.29541 14.4375Z"/>
</svg>