<svg xmlns="http://www.w3.org/2000/svg" width="24" height="24" fill="currentcolor" class="icon-hash" viewBox="0 0 24 24">
  <path d="M16.0623 2.44111C16.3709 2.4755 16.5931 2.7535 16.5588 3.06221L15.9619 8.43745H19.9998C20.3104 8.43745 20.5623 8.68929 20.5623 8.99995C20.5623 9.31061 20.3104 9.56245 19.9998 9.56245H15.8367L15.2954 14.4375H19.9998C20.3104 14.4375 20.5623 14.6893 20.5623 15C20.5623 15.3106 20.3104 15.5625 19.9998 15.5625H15.1702L14.5593 21.0622C14.525 21.3708 14.2468 21.5929 13.9382 21.5588C13.6295 21.5245 13.4066 21.2465 13.4409 20.9377L14.0386 15.5625H9.17017L8.55933 21.0622C8.52498 21.3708 8.24683 21.5929 7.93823 21.5588C7.62947 21.5245 7.40661 21.2465 7.44092 20.9377L8.03857 15.5625H4C3.68934 15.5625 3.4375 15.3106 3.4375 15C3.4375 14.6893 3.68934 14.4375 4 14.4375H8.16309L8.70508 9.56245H4C3.68934 9.56245 3.4375 9.31061 3.4375 8.99995C3.4375 8.68929 3.68934 8.43745 4 8.43745H8.83032L9.44116 2.9377C9.47555 2.62902 9.75355 2.40681 10.0623 2.44111C10.3709 2.4755 10.5931 2.7535 10.5588 3.06221L9.96191 8.43745H14.8303L15.4412 2.9377C15.4755 2.62902 15.7535 2.40681 16.0623 2.44111ZM9.29541 14.4375H14.1631L14.7051 9.56245H9.83667L9.29541 14.4375Z"/>
</svg>