<svg xmlns="http://www.w3.org/2000/svg" width="24" height="24" fill="currentcolor" class="icon-headphones" viewBox="0 0 24 24">
  <path d="M7.43774 15.9998C7.43768 15.6187 7.28598 15.2534 7.0166 14.9839C6.74702 14.7143 6.38125 14.5627 6 14.5627H3.5625V18.9998C3.5625 19.381 3.71406 19.7468 3.98364 20.0164C4.25323 20.2859 4.619 20.4375 5.00024 20.4375H6C6.38125 20.4375 6.74702 20.2859 7.0166 20.0164C7.28611 19.7468 7.43774 19.3809 7.43774 18.9998V15.9998ZM15.4373 18.9998V15.9998C15.4373 15.3202 15.7075 14.6682 16.188 14.1877C16.6685 13.7073 17.3204 13.4377 18 13.4377H20.4375V12C20.4375 9.76224 19.5486 7.61603 17.9663 6.03369C16.384 4.45135 14.2378 3.5625 12 3.5625C9.76224 3.5625 7.61603 4.45135 6.03369 6.03369C4.45135 7.61603 3.5625 9.76224 3.5625 12V13.4377H6C6.67956 13.4377 7.33146 13.7073 7.81201 14.1877C8.29252 14.6682 8.56268 15.3202 8.56274 15.9998V18.9998C8.56274 19.6793 8.2925 20.3312 7.81201 20.8118C7.33145 21.2923 6.67962 21.5625 6 21.5625H5.00024C4.32063 21.5625 3.66879 21.2923 3.18823 20.8118C2.70767 20.3312 2.4375 19.6794 2.4375 18.9998V12C2.4375 9.46387 3.44496 7.0316 5.23828 5.23828C7.0316 3.44496 9.46387 2.4375 12 2.4375C14.5361 2.4375 16.9684 3.44496 18.7617 5.23828C20.555 7.0316 21.5625 9.46387 21.5625 12V18.9998C21.5625 19.6794 21.2923 20.3312 20.8118 20.8118C20.3312 21.2923 19.6794 21.5625 18.9998 21.5625H18C17.3204 21.5625 16.6685 21.2923 16.188 20.8118C15.7075 20.3312 15.4373 19.6793 15.4373 18.9998ZM16.5623 18.9998C16.5623 19.3809 16.7139 19.7468 16.9834 20.0164C17.253 20.2859 17.6188 20.4375 18 20.4375H18.9998C19.381 20.4375 19.7468 20.2859 20.0164 20.0164C20.2859 19.7468 20.4375 19.381 20.4375 18.9998V14.5627H18C17.6188 14.5627 17.253 14.7143 16.9834 14.9839C16.714 15.2534 16.5623 15.6187 16.5623 15.9998V18.9998Z"/>
</svg>