<svg xmlns="http://www.w3.org/2000/svg" width="24" height="24" fill="currentcolor" class="icon-heart" viewBox="0 0 24 24">
  <path d="M21.8896 8.50012C21.8896 7.85153 21.7614 7.20894 21.5131 6.60974C21.2959 6.08556 20.9903 5.60321 20.61 5.18372L20.4423 5.00793C19.9838 4.5492 19.439 4.18468 18.8398 3.9364C18.2407 3.68824 17.5986 3.56068 16.9501 3.56067C16.3015 3.56067 15.6589 3.68812 15.0598 3.9364C14.4606 4.18468 13.9164 4.54923 13.4579 5.00793L12.3981 6.06775C12.1785 6.28742 11.8217 6.28742 11.602 6.06775L10.5422 5.00793C9.61597 4.08173 8.35984 3.5614 7.04999 3.5614C5.74016 3.56142 4.48399 4.08175 3.5578 5.00793C2.63166 5.93413 2.11127 7.19032 2.11127 8.50012C2.1113 9.80993 2.63163 11.0661 3.5578 11.9923L11.9997 20.4335L20.4423 11.9923L20.61 11.8165C20.9905 11.3969 21.2959 10.9141 21.5131 10.3898C21.7613 9.79066 21.8896 9.14862 21.8896 8.50012ZM23.0146 8.50012C23.0146 9.29641 22.8572 10.0848 22.5524 10.8204C22.2857 11.4641 21.9105 12.0565 21.4435 12.5717L21.2377 12.7877L12.3981 21.6281C12.1785 21.8477 11.8217 21.8477 11.602 21.6281L2.76239 12.7877C1.62524 11.6506 0.986301 10.1083 0.986267 8.50012C0.986267 6.89195 1.62527 5.3497 2.76239 4.21252C3.89955 3.07536 5.4418 2.43642 7.04999 2.4364C8.65821 2.4364 10.2004 3.07534 11.3376 4.21252L11.9997 4.8739L12.6625 4.21252C13.2255 3.64933 13.8934 3.20193 14.6291 2.89709C15.3648 2.59225 16.1538 2.43567 16.9501 2.43567C17.7464 2.43568 18.5349 2.59236 19.2704 2.89709C20.0059 3.20181 20.6742 3.64888 21.237 4.21179C21.8002 4.77471 22.2476 5.44347 22.5524 6.17908C22.8573 6.9148 23.0146 7.70374 23.0146 8.50012Z"/>
</svg>