<svg xmlns="http://www.w3.org/2000/svg" width="24" height="24" fill="currentcolor" class="icon-heart" viewBox="0 0 24 24">
  <path d="M21.8896 8.50012C21.8896 7.85153 21.7615 7.20894 21.5132 6.60974C21.296 6.08556 20.9904 5.60321 20.6101 5.18372L20.4424 5.00793C19.9839 4.5492 19.439 4.18468 18.8398 3.9364C18.2408 3.68824 17.5986 3.56068 16.9502 3.56067C16.3016 3.56067 15.659 3.68812 15.0598 3.9364C14.4607 4.18468 13.9165 4.54923 13.458 5.00793L12.3982 6.06775C12.1785 6.28742 11.8217 6.28742 11.6021 6.06775L10.5422 5.00793C9.61603 4.08173 8.3599 3.5614 7.05005 3.5614C5.74023 3.56142 4.48405 4.08175 3.55786 5.00793C2.63172 5.93413 2.11133 7.19032 2.11133 8.50012C2.11136 9.80993 2.63169 11.0661 3.55786 11.9923L11.9998 20.4335L20.4424 11.9923L20.6101 11.8165C20.9905 11.3969 21.2959 10.9141 21.5132 10.3898C21.7614 9.79066 21.8896 9.14862 21.8896 8.50012ZM23.0146 8.50012C23.0146 9.29641 22.8573 10.0848 22.5525 10.8204C22.2858 11.4641 21.9106 12.0565 21.4436 12.5717L21.2378 12.7877L12.3982 21.6281C12.1785 21.8477 11.8217 21.8477 11.6021 21.6281L2.76245 12.7877C1.6253 11.6506 0.986362 10.1083 0.986328 8.50012C0.986328 6.89195 1.62533 5.3497 2.76245 4.21252C3.89962 3.07536 5.44186 2.43642 7.05005 2.4364C8.65827 2.4364 10.2005 3.07534 11.3376 4.21252L11.9998 4.8739L12.6626 4.21252C13.2255 3.64933 13.8935 3.20193 14.6292 2.89709C15.3649 2.59225 16.1538 2.43567 16.9502 2.43567C17.7464 2.43568 18.5349 2.59236 19.2705 2.89709C20.0059 3.20181 20.6742 3.64888 21.2371 4.21179C21.8002 4.77471 22.2476 5.44347 22.5525 6.17908C22.8573 6.9148 23.0146 7.70374 23.0146 8.50012Z"/>
</svg>