<svg xmlns="http://www.w3.org/2000/svg" width="24" height="24" fill="currentcolor" class="icon-help-circle" viewBox="0 0 24 24">
  <path d="M21.4377 11.9998C21.4376 6.78768 17.2119 2.5625 11.9998 2.5625C6.78776 2.56263 2.56263 6.78776 2.5625 11.9998C2.5625 17.2119 6.78768 21.4376 11.9998 21.4377C17.2119 21.4377 21.4377 17.2119 21.4377 11.9998ZM12.01 16.4375C12.3207 16.4375 12.5725 16.6893 12.5725 17C12.5725 17.3107 12.3207 17.5625 12.01 17.5625H11.9998C11.6892 17.5624 11.4373 17.3106 11.4373 17C11.4373 16.6894 11.6892 16.4376 11.9998 16.4375H12.01ZM10.1152 6.92407C10.8404 6.49795 11.6929 6.34248 12.522 6.48462C13.3511 6.62684 14.1035 7.05762 14.6453 7.70117C15.1869 8.34465 15.4835 9.15914 15.4824 10.0002L15.4714 10.239C15.3623 11.4094 14.4669 12.2283 13.7319 12.7183C13.3229 12.9909 12.9177 13.1926 12.6172 13.3262C12.4663 13.3932 12.3397 13.4441 12.2495 13.4785C12.2043 13.4957 12.1675 13.5089 12.1418 13.5181C12.1292 13.5226 12.1192 13.5265 12.1118 13.5291C12.1081 13.5303 12.1046 13.5312 12.1023 13.532C12.1013 13.5323 12.1001 13.5325 12.0994 13.5327L12.0986 13.5334H12.0979C11.8033 13.6316 11.4851 13.4727 11.3867 13.1782C11.2885 12.8836 11.4473 12.5646 11.7419 12.4663L11.7456 12.4648C11.7495 12.4635 11.7563 12.4615 11.7654 12.4583C11.7837 12.4518 11.8121 12.4415 11.8489 12.4275C11.9227 12.3994 12.0302 12.3563 12.1602 12.2986C12.422 12.1822 12.7671 12.0094 13.1079 11.7822C13.8239 11.3049 14.3573 10.7015 14.3574 10.0002V9.99951C14.3583 9.42387 14.1554 8.86592 13.7847 8.42554C13.414 7.98529 12.8995 7.6901 12.3323 7.59277C11.765 7.49547 11.1813 7.60222 10.6851 7.8938C10.1888 8.18543 9.81189 8.64359 9.62085 9.18652C9.51776 9.47958 9.19613 9.63385 8.90308 9.53076C8.61014 9.4276 8.4565 9.10598 8.55957 8.81299C8.8388 8.01951 9.39002 7.35029 10.1152 6.92407ZM22.5627 11.9998C22.5627 17.8333 17.8333 22.5627 11.9998 22.5627C6.16636 22.5626 1.4375 17.8332 1.4375 11.9998C1.43763 6.16644 6.16644 1.43763 11.9998 1.4375C17.8332 1.4375 22.5626 6.16636 22.5627 11.9998Z"/>
</svg>