<svg xmlns="http://www.w3.org/2000/svg" width="24" height="24" fill="currentcolor" class="icon-hexagon" viewBox="0 0 24 24">
  <path d="M12 1.43958C12.4488 1.43958 12.8892 1.55842 13.2781 1.78235L13.2788 1.78162L20.2793 5.78137L20.2815 5.78284C20.6705 6.00748 20.9934 6.33069 21.2183 6.7196C21.4431 7.10857 21.562 7.54988 21.5625 7.99915V16.0009C21.562 16.4501 21.4431 16.8914 21.2183 17.2804C20.9934 17.6693 20.6705 17.9925 20.2815 18.2172L20.2793 18.2186L13.2788 22.2184L13.2781 22.2177C12.8892 22.4416 12.4488 22.5604 12 22.5604C11.551 22.5604 11.1102 22.4418 10.7212 22.2177V22.2184L3.7207 18.2186L3.71851 18.2172C3.32947 17.9925 3.00658 17.6693 2.78174 17.2804C2.5569 16.8914 2.43801 16.4501 2.4375 16.0009V7.99915L2.44336 7.83142C2.46945 7.44058 2.58496 7.06003 2.78174 6.7196C3.00659 6.33069 3.32947 6.00748 3.71851 5.78284L3.7207 5.78137L10.7212 1.78162V1.78235C11.1102 1.55821 11.551 1.43958 12 1.43958ZM12 2.56458C11.7477 2.56458 11.5 2.6311 11.2815 2.7572L11.2793 2.75867L4.27881 6.75842C4.06156 6.88441 3.88082 7.06538 3.75513 7.28284C3.62907 7.50102 3.56276 7.74862 3.5625 8.00061V15.9994L3.56543 16.0939C3.58007 16.313 3.64487 16.5263 3.75513 16.7172C3.88082 16.9346 4.06157 17.1156 4.27881 17.2416L11.2793 21.2413L11.2815 21.2428C11.5 21.3689 11.7477 21.4354 12 21.4354C12.2523 21.4354 12.5 21.3689 12.7185 21.2428L12.7207 21.2413L19.7212 17.2416C19.9384 17.1156 20.1192 16.9346 20.2449 16.7172C20.3708 16.4992 20.4371 16.2519 20.4375 16.0001V8.00061L20.4346 7.90613C20.4199 7.68704 20.3551 7.47368 20.2449 7.28284C20.1192 7.06538 19.9384 6.88441 19.7212 6.75842L12.7207 2.75867L12.7185 2.7572C12.5 2.6311 12.2523 2.56458 12 2.56458Z"/>
</svg>