<svg xmlns="http://www.w3.org/2000/svg" width="24" height="24" fill="currentcolor" class="icon-history" viewBox="0 0 24 24">
  <path d="M19.875 6.375C21.3105 6.375 22.5 7.56445 22.5 9V19.5C22.5 20.9766 21.3105 22.125 19.875 22.125H4.125C2.64844 22.125 1.5 20.9766 1.5 19.5V9C1.5 7.56445 2.64844 6.375 4.125 6.375H19.875ZM19.875 7.6875H4.125C3.38672 7.6875 2.8125 8.30273 2.8125 9V19.5C2.8125 20.2383 3.38672 20.8125 4.125 20.8125H19.875C20.5723 20.8125 21.1875 20.2383 21.1875 19.5V9C21.1875 8.30273 20.5723 7.6875 19.875 7.6875ZM19.875 3.75C20.2031 3.75 20.5312 4.07812 20.5312 4.40625C20.5312 4.77539 20.2031 5.0625 19.875 5.0625H4.125C3.75586 5.0625 3.46875 4.77539 3.46875 4.40625C3.46875 4.07812 3.75586 3.75 4.125 3.75H19.875ZM17.9062 1.125C18.2344 1.125 18.5625 1.45312 18.5625 1.78125C18.5625 2.15039 18.2344 2.4375 17.9062 2.4375H6.09375C5.72461 2.4375 5.4375 2.15039 5.4375 1.78125C5.4375 1.45312 5.72461 1.125 6.09375 1.125H17.9062Z"/>
</svg>