<svg xmlns="http://www.w3.org/2000/svg" width="24" height="24" fill="currentcolor" class="icon-home" viewBox="0 0 24 24">
  <path d="M20.4375 9.27498L12 2.71248L3.5625 9.27498V19.9998C3.5625 20.3811 3.71406 20.7469 3.98364 21.0164C4.25321 21.2859 4.61905 21.4376 5.00024 21.4376H18.9998C19.3809 21.4376 19.7468 21.2859 20.0164 21.0164C20.2859 20.7469 20.4375 20.3811 20.4375 19.9998V9.27498ZM21.5625 19.9998C21.5625 20.6795 21.2923 21.3313 20.8118 21.8118C20.3312 22.2923 19.6793 22.5626 18.9998 22.5626H5.00024C4.32068 22.5626 3.66878 22.2923 3.18823 21.8118C2.70767 21.3313 2.4375 20.6795 2.4375 19.9998V8.99959C2.43758 8.82618 2.51746 8.66227 2.6543 8.55574L11.6543 1.55599C11.8574 1.398 12.1426 1.398 12.3457 1.55599L21.3457 8.55574C21.4825 8.66227 21.5624 8.82618 21.5625 8.99959V19.9998Z"/>
</svg>