<svg xmlns="http://www.w3.org/2000/svg" width="24" height="24" fill="currentcolor" class="icon-id-card" viewBox="0 0 24 24">
  <path d="M21.0002 3.4375C22.4154 3.43763 23.5623 4.5851 23.5623 6.00024V18.0002C23.5621 19.4153 22.4153 20.5621 21.0002 20.5623H3.00024C1.5851 20.5623 0.437632 19.4154 0.4375 18.0002V6.00024C0.4375 4.58501 1.58501 3.4375 3.00024 3.4375H21.0002ZM3.00024 4.5625C2.20633 4.5625 1.5625 5.20633 1.5625 6.00024V18.0002C1.56263 18.794 2.20642 19.4373 3.00024 19.4373H21.0002C21.794 19.4371 22.4371 18.794 22.4373 18.0002V6.00024C22.4373 5.20642 21.794 4.56263 21.0002 4.5625H3.00024ZM8.88892 12.7708C9.50953 12.7708 10.1046 13.0175 10.5435 13.4563C10.9823 13.8951 11.2289 14.4903 11.229 15.1108V16C11.2289 16.3105 10.9771 16.5625 10.6665 16.5625C10.356 16.5624 10.1041 16.3105 10.104 16V15.1108C10.1039 14.7886 9.97589 14.4796 9.74805 14.2517C9.52016 14.0239 9.21116 13.8958 8.88892 13.8958H5.77759C5.4554 13.8958 5.14631 14.0239 4.91846 14.2517C4.69066 14.4795 4.56257 14.7887 4.5625 15.1108V16C4.56237 16.3105 4.31058 16.5625 4 16.5625C3.68942 16.5625 3.43763 16.3105 3.4375 16V15.1108C3.43757 14.4903 3.68427 13.8951 4.12305 13.4563C4.56188 13.0175 5.15703 12.7708 5.77759 12.7708H8.88892ZM19.9998 15.4375C20.3103 15.4375 20.5621 15.6895 20.5623 16C20.5621 16.3105 20.3103 16.5625 19.9998 16.5625H13.9998C13.6893 16.5624 13.4374 16.3105 13.4373 16C13.4374 15.6895 13.6893 15.4376 13.9998 15.4375H19.9998ZM19.9998 11.437C20.3103 11.437 20.562 11.6891 20.5623 11.9995C20.5623 12.3102 20.3104 12.562 19.9998 12.562H13.9998C13.6892 12.5619 13.4373 12.3101 13.4373 11.9995C13.4375 11.6892 13.6894 11.4371 13.9998 11.437H19.9998ZM7.33325 7.43726C8.62561 7.43726 9.67311 8.48504 9.67334 9.77734C9.67334 11.0698 8.62575 12.1182 7.33325 12.1182C6.04079 12.1181 4.99316 11.0698 4.99316 9.77734C4.9934 8.48507 6.04093 7.4373 7.33325 7.43726ZM7.33325 8.56226C6.66225 8.5623 6.1184 9.10639 6.11816 9.77734C6.11816 10.4485 6.66211 10.9931 7.33325 10.9932C8.00443 10.9932 8.54834 10.4485 8.54834 9.77734C8.54811 9.10636 8.00429 8.56226 7.33325 8.56226ZM15.4998 7.43726C15.8103 7.43726 16.0621 7.68921 16.0623 7.99976C16.0623 8.31042 15.8104 8.56226 15.4998 8.56226H13.9998C13.6892 8.56212 13.4373 8.31033 13.4373 7.99976C13.4374 7.68929 13.6893 7.43739 13.9998 7.43726H15.4998Z"/>
</svg>