<svg xmlns="http://www.w3.org/2000/svg" width="24" height="24" fill="currentcolor" class="icon-image" viewBox="0 0 24 24">
  <path d="M20.4375 15.2329L15.9998 10.7952L6.35815 20.4375H18.9998C19.7937 20.4375 20.4375 19.7937 20.4375 18.9998V15.2329ZM9.43726 8.49976C9.43712 7.9821 9.01744 7.56226 8.49976 7.56226C7.98218 7.56239 7.56239 7.98218 7.56226 8.49976C7.56226 9.01744 7.9821 9.43712 8.49976 9.43726C9.01752 9.43726 9.43726 9.01752 9.43726 8.49976ZM20.4375 5.00024C20.4375 4.20633 19.7937 3.5625 18.9998 3.5625H5.00024C4.20633 3.5625 3.5625 4.20633 3.5625 5.00024V18.9998C3.5625 19.7204 4.0932 20.3152 4.78491 20.4192L15.6021 9.60205C15.8216 9.38246 16.1778 9.38263 16.3975 9.60205L20.4375 13.6421V5.00024ZM10.5623 8.49976C10.5623 9.63884 9.63884 10.5623 8.49976 10.5623C7.36078 10.5621 6.43726 9.63876 6.43726 8.49976C6.43739 7.36086 7.36086 6.43739 8.49976 6.43726C9.63876 6.43726 10.5621 7.36078 10.5623 8.49976ZM21.5625 18.9998C21.5625 20.415 20.415 21.5625 18.9998 21.5625H5.00024C3.58501 21.5625 2.4375 20.415 2.4375 18.9998V5.00024C2.4375 3.58501 3.58501 2.4375 5.00024 2.4375H18.9998C20.415 2.4375 21.5625 3.58501 21.5625 5.00024V18.9998Z"/>
</svg>