<svg xmlns="http://www.w3.org/2000/svg" width="24" height="24" fill="currentcolor" class="icon-inbox" viewBox="0 0 24 24">
  <path d="M21.4377 12.5627H16.3013L14.468 15.3123C14.3637 15.4686 14.188 15.5627 14 15.5627H10.0002C9.81228 15.5627 9.63657 15.4686 9.53223 15.3123L7.69897 12.5627H2.5625V18.0002C2.56256 18.3813 2.71419 18.7466 2.98364 19.0161C3.25323 19.2857 3.619 19.4373 4.00024 19.4373H20C20.3812 19.4373 20.747 19.2857 21.0166 19.0161C21.286 18.7466 21.4377 18.3813 21.4377 18.0002V12.5627ZM7.14014 4.56616C6.90777 4.58252 6.68197 4.65527 6.48315 4.77856C6.25607 4.91947 6.07256 5.12078 5.95361 5.36011L2.91113 11.4377H8L8.06958 11.4421C8.2307 11.4622 8.37669 11.5512 8.46802 11.6882L10.3013 14.4377H13.699L15.5322 11.6882L15.574 11.6326C15.6801 11.5095 15.8355 11.4377 16.0002 11.4377H21.0891L18.0474 5.36157L18.0459 5.36011C17.9269 5.12075 17.7435 4.91944 17.5164 4.77856C17.3174 4.65519 17.0919 4.58245 16.8594 4.56616L16.7598 4.5625H7.24048L7.14014 4.56616ZM22.5627 18.0002C22.5627 18.6798 22.2925 19.3318 21.812 19.8123C21.3315 20.2927 20.6796 20.5623 20 20.5623H4.00024C3.32074 20.5623 2.66877 20.2927 2.18823 19.8123C1.70773 19.3318 1.43756 18.6798 1.4375 18.0002V12.0002C1.4375 11.9129 1.45774 11.8264 1.49683 11.7483L4.94727 4.8584C5.15943 4.4321 5.48592 4.07298 5.89062 3.82202C6.29576 3.57082 6.76306 3.43775 7.23975 3.4375H16.7605L16.9385 3.44409C17.3528 3.4732 17.7551 3.60218 18.1096 3.82202C18.5143 4.073 18.8408 4.43208 19.053 4.8584L22.5027 11.7483C22.5418 11.8265 22.5627 11.9128 22.5627 12.0002V18.0002Z"/>
</svg>