<svg xmlns="http://www.w3.org/2000/svg" width="24" height="24" fill="currentcolor" class="icon-info" viewBox="0 0 24 24">
  <path d="M21.4377 11.9998C21.4376 6.78768 17.2119 2.5625 11.9998 2.5625C6.78776 2.56263 2.56263 6.78776 2.5625 11.9998C2.5625 17.2119 6.78768 21.4376 11.9998 21.4377C17.2119 21.4377 21.4377 17.2119 21.4377 11.9998ZM11.4373 16.0002V11.9998C11.4374 11.6893 11.6893 11.4374 11.9998 11.4373C12.3103 11.4373 12.5621 11.6892 12.5623 11.9998V16.0002C12.5621 16.3108 12.3103 16.5627 11.9998 16.5627C11.6893 16.5626 11.4374 16.3107 11.4373 16.0002ZM12.01 7.4375C12.3207 7.4375 12.5725 7.68934 12.5725 8C12.5725 8.31066 12.3207 8.5625 12.01 8.5625H11.9998C11.6892 8.56237 11.4373 8.31058 11.4373 8C11.4373 7.68942 11.6892 7.43763 11.9998 7.4375H12.01ZM22.5627 11.9998C22.5627 17.8333 17.8333 22.5627 11.9998 22.5627C6.16636 22.5626 1.4375 17.8332 1.4375 11.9998C1.43763 6.16644 6.16644 1.43763 11.9998 1.4375C17.8332 1.4375 22.5626 6.16636 22.5627 11.9998Z"/>
</svg>