<svg xmlns="http://www.w3.org/2000/svg" width="24" height="24" fill="currentcolor" class="icon-instagram" viewBox="0 0 24 24">
  <path d="M21.4377 7.00024C21.4377 4.54948 19.4508 2.5625 17 2.5625H7.00024C4.54948 2.5625 2.5625 4.54948 2.5625 7.00024V17C2.5625 19.4508 4.54948 21.4377 7.00024 21.4377H17C19.4508 21.4377 21.4377 19.4508 21.4377 17V7.00024ZM9.94165 7.90698C10.7934 7.46501 11.7632 7.30263 12.7124 7.44336C13.6806 7.58693 14.5771 8.03818 15.2693 8.73022C15.9615 9.42241 16.4126 10.3195 16.5562 11.2878C16.6968 12.2369 16.5351 13.2062 16.0933 14.0579C15.6513 14.9097 14.9517 15.601 14.0945 16.0325C13.2374 16.4638 12.266 16.6134 11.3186 16.4609C10.3712 16.3085 9.49595 15.8614 8.81738 15.1829C8.13881 14.5043 7.69104 13.6291 7.53857 12.6816C7.38613 11.7343 7.53642 10.7629 7.96777 9.90576C8.39919 9.04863 9.08993 8.34898 9.94165 7.90698ZM12.5476 8.55664C11.8325 8.4506 11.1019 8.57235 10.4602 8.90527C9.81845 9.23827 9.29773 9.76532 8.97266 10.4111C8.64759 11.057 8.53479 11.7891 8.64966 12.5029C8.76454 13.2167 9.10156 13.8762 9.61279 14.3875C10.124 14.8986 10.7835 15.2357 11.4973 15.3506C12.211 15.4654 12.9427 15.3525 13.5884 15.0276C14.2342 14.7025 14.7612 14.1817 15.0942 13.54C15.4272 12.8983 15.5496 12.1678 15.4436 11.4526C15.3354 10.7232 14.9953 10.0479 14.4739 9.52637C13.9524 9.0049 13.2771 8.66485 12.5476 8.55664ZM17.5098 5.9375C17.8204 5.9375 18.0723 6.18934 18.0723 6.5C18.0723 6.81066 17.8204 7.0625 17.5098 7.0625H17.5002C17.1896 7.0625 16.9377 6.81066 16.9377 6.5C16.9377 6.18934 17.1896 5.9375 17.5002 5.9375H17.5098ZM22.5627 17C22.5627 20.0721 20.0721 22.5627 17 22.5627H7.00024C3.92816 22.5627 1.4375 20.0721 1.4375 17V7.00024C1.4375 3.92816 3.92816 1.4375 7.00024 1.4375H17C20.0721 1.4375 22.5627 3.92816 22.5627 7.00024V17Z"/>
</svg>