<svg xmlns="http://www.w3.org/2000/svg" width="24" height="24" fill="currentcolor" class="icon-investment-fund" viewBox="0 0 24 24">
  <path d="M15.7324 7.89258C15.9785 8.13867 15.9785 8.58984 15.7324 8.83594L9.16992 15.3984C8.92383 15.6445 8.47266 15.6445 8.22656 15.3984C7.98047 15.1523 7.98047 14.7012 8.22656 14.4551L14.7891 7.89258C15.0352 7.64648 15.4863 7.64648 15.7324 7.89258ZM8.39062 9C8.39062 8.4668 8.80078 8.01562 9.375 8.01562C9.9082 8.01562 10.3594 8.4668 10.3594 9C10.3594 9.57422 9.9082 9.98438 9.375 9.98438C8.80078 9.98438 8.39062 9.57422 8.39062 9ZM13.6406 14.25C13.6406 13.7168 14.0508 13.2656 14.625 13.2656C15.1582 13.2656 15.6094 13.7168 15.6094 14.25C15.6094 14.8242 15.1582 15.2344 14.625 15.2344C14.0508 15.2344 13.6406 14.8242 13.6406 14.25ZM15.5684 3.01172C16.9219 2.76562 18.3574 3.17578 19.4238 4.20117C20.4492 5.26758 20.8594 6.70312 20.6133 8.05664C21.7207 8.83594 22.5 10.1484 22.5 11.625C22.5 13.1426 21.7207 14.4141 20.6133 15.2344C20.8594 16.5879 20.4492 18.0234 19.4238 19.0488C18.3574 20.1152 16.9219 20.5254 15.5684 20.2793C14.7891 21.3867 13.4766 22.125 12 22.125C10.4824 22.125 9.16992 21.3867 8.39062 20.2793C7.03711 20.5254 5.60156 20.1152 4.53516 19.0488C3.50977 18.0234 3.09961 16.5879 3.3457 15.2344C2.23828 14.4141 1.5 13.1426 1.5 11.625C1.5 10.1484 2.23828 8.83594 3.3457 8.05664C3.09961 6.70312 3.50977 5.26758 4.53516 4.20117C5.60156 3.17578 7.03711 2.76562 8.39062 3.01172C9.16992 1.9043 10.4824 1.125 11.959 1.125C13.4766 1.125 14.7891 1.9043 15.5684 3.01172ZM9.04688 4.57031L8.51367 4.40625C7.48828 4.07812 6.29883 4.32422 5.47852 5.14453C4.6582 5.96484 4.41211 7.1543 4.74023 8.17969L4.9043 8.71289L4.41211 8.95898C3.42773 9.45117 2.8125 10.4766 2.8125 11.625C2.8125 12.8145 3.42773 13.7988 4.41211 14.332L4.9043 14.5781L4.74023 15.1113C4.41211 16.1367 4.6582 17.3262 5.47852 18.1465C6.29883 18.9668 7.48828 19.2129 8.51367 18.8848L9.04688 18.7207L9.29297 19.2129C9.82617 20.1973 10.8105 20.8125 12 20.8125C13.1484 20.8125 14.1328 20.1973 14.666 19.2129L14.9121 18.7207L15.4453 18.8848C16.4707 19.2129 17.6602 18.9668 18.4805 18.1465C19.3008 17.3262 19.5469 16.1367 19.2188 15.1113L19.0547 14.5781L19.5469 14.332C20.5312 13.7988 21.1875 12.8145 21.1875 11.625C21.1875 10.4766 20.5312 9.45117 19.5469 8.95898L19.0547 8.71289L19.2188 8.17969C19.5469 7.1543 19.3008 5.96484 18.4805 5.14453C17.6602 4.32422 16.4707 4.07812 15.4453 4.40625L14.9121 4.57031L14.666 4.07812C14.1328 3.09375 13.1484 2.4375 12 2.4375C10.8105 2.4375 9.82617 3.09375 9.29297 4.07812L9.04688 4.57031Z"/>
</svg>