<svg xmlns="http://www.w3.org/2000/svg" width="24" height="24" fill="currentcolor" class="icon-investment-repo" viewBox="0 0 24 24">
  <path d="M15.9375 1.78125C15.9375 1.45312 16.2246 1.125 16.5938 1.125H20.5312C20.8594 1.125 21.1875 1.45312 21.1875 1.78125V5.71875C21.1875 6.08789 20.8594 6.375 20.5312 6.375C20.1621 6.375 19.875 6.08789 19.875 5.71875V3.38086L13.7637 9.49219C13.5176 9.73828 13.1074 9.73828 12.8613 9.5332L8.71875 5.96484L4.53516 9.5332C4.24805 9.73828 3.83789 9.73828 3.5918 9.45117C3.38672 9.16406 3.38672 8.75391 3.67383 8.50781L8.26758 4.57031C8.51367 4.36523 8.88281 4.36523 9.12891 4.57031L13.2715 8.13867L18.9316 2.4375H16.5938C16.2246 2.4375 15.9375 2.15039 15.9375 1.78125ZM14.625 16.875C14.625 18.3516 13.4355 19.5 12 19.5C10.5234 19.5 9.375 18.3516 9.375 16.875C9.375 15.4395 10.5234 14.25 12 14.25C13.4355 14.25 14.625 15.4395 14.625 16.875ZM12 15.5625C11.2617 15.5625 10.6875 16.1777 10.6875 16.875C10.6875 17.6133 11.2617 18.1875 12 18.1875C12.6973 18.1875 13.3125 17.6133 13.3125 16.875C13.3125 16.1777 12.6973 15.5625 12 15.5625ZM20.5312 11.625C21.5977 11.625 22.5 12.5273 22.5 13.5938V20.1562C22.5 21.2637 21.5977 22.125 20.5312 22.125H3.46875C2.36133 22.125 1.5 21.2637 1.5 20.1562V13.5938C1.5 12.5273 2.36133 11.625 3.46875 11.625H20.5312ZM21.1875 13.5938C21.1875 13.2656 20.8594 12.9375 20.5312 12.9375H19.2188C19.2188 14.0449 20.0801 14.9062 21.1875 14.9062V13.5938ZM2.8125 16.2188V17.5312C4.61719 17.5312 6.09375 19.0078 6.09375 20.8125H17.9062C17.9062 19.0078 19.3418 17.5312 21.1875 17.5312V16.2188C19.3418 16.2188 17.9062 14.7832 17.9062 12.9375H6.09375C6.09375 14.7832 4.61719 16.2188 2.8125 16.2188ZM20.5312 20.8125C20.8594 20.8125 21.1875 20.5254 21.1875 20.1562V18.8438C20.0801 18.8438 19.2188 19.7461 19.2188 20.8125H20.5312ZM2.8125 20.1562C2.8125 20.5254 3.09961 20.8125 3.46875 20.8125H4.78125C4.78125 19.7461 3.87891 18.8438 2.8125 18.8438V20.1562ZM3.46875 12.9375C3.09961 12.9375 2.8125 13.2656 2.8125 13.5938V14.9062C3.87891 14.9062 4.78125 14.0449 4.78125 12.9375H3.46875Z"/>
</svg>