<svg xmlns="http://www.w3.org/2000/svg" width="24" height="24" fill="currentcolor" class="icon-investment-deposit" viewBox="0 0 24 24">
  <path d="M22.8867 14.8242C23.3379 15.2754 23.625 15.8906 23.543 16.5059C23.543 17.1621 23.2559 17.7773 22.7637 18.1465L18.6211 21.4688C18.0469 21.9199 17.3906 22.125 16.6934 22.125H0.615234C0.287109 22.125 0 21.7969 0 21.4688C0 21.0996 0.287109 20.8125 0.65625 20.8125H16.6934C17.1035 20.8125 17.4727 20.6484 17.8008 20.4023L21.9434 17.1211C22.3535 16.793 22.3945 16.1367 21.9434 15.7676C21.8203 15.6445 21.6152 15.5625 21.4102 15.5625C21.2051 15.5625 20.959 15.6445 20.7949 15.7676L18.252 17.7773C17.9648 18.0234 17.5547 18.1875 17.1855 18.1875H9.80273C9.43359 18.1875 9.14648 17.8594 9.14648 17.5312C9.14648 17.1621 9.43359 16.875 9.80273 16.875H13.4121C13.9453 16.875 14.3965 16.4238 14.3965 15.8906C14.3965 15.3164 13.9453 14.9062 13.4121 14.9062H7.38281C6.80859 14.9062 6.27539 15.0703 5.7832 15.3984L3.89648 16.875H0.615234C0.287109 16.875 0 16.5879 0 16.2188C0 15.8906 0.287109 15.5625 0.65625 15.5625H3.48633L5.04492 14.4141C5.7832 13.8809 6.5625 13.5938 7.42383 13.5938H13.3301C14.4785 13.5938 15.5449 14.4141 15.709 15.5625C15.791 16.0547 15.709 16.5059 15.5039 16.875H17.2266C17.3086 16.875 17.4316 16.875 17.5137 16.793L20.0156 14.7832C20.4258 14.4551 20.918 14.291 21.4512 14.291C21.9844 14.291 22.4766 14.4551 22.8867 14.8242ZM11.2793 8.95898C12.2637 9.12305 13.2891 8.95898 13.4121 8.26172C13.5352 7.6875 13.166 7.44141 11.6074 7.03125L11.3203 6.94922C10.418 6.70312 8.53125 6.16992 8.85938 4.2832C9.06445 3.29883 9.92578 2.64258 11.1152 2.47852V1.78125C11.1152 1.45312 11.4434 1.125 11.8125 1.125C12.1406 1.125 12.4688 1.45312 12.4688 1.78125V2.51953C12.7969 2.56055 13.207 2.68359 13.7402 2.84766C14.0684 2.9707 14.2734 3.33984 14.1504 3.66797C14.0273 3.99609 13.6582 4.20117 13.3301 4.07812C12.8789 3.95508 12.5508 3.87305 12.2637 3.83203C11.3203 3.66797 10.2949 3.83203 10.1719 4.5293C10.0898 5.02148 10.2539 5.26758 11.6484 5.67773L11.9766 5.75977C13.207 6.08789 15.0527 6.58008 14.7246 8.50781C14.5195 9.49219 13.6582 10.1484 12.4277 10.3125V10.9688C12.4277 11.3379 12.1406 11.625 11.8125 11.625C11.4434 11.625 11.1152 11.3379 11.1152 10.9688V10.2715C10.7871 10.2305 10.5 10.1484 9.26953 9.73828C8.94141 9.61523 8.77734 9.24609 8.85938 8.91797C8.98242 8.58984 9.35156 8.38477 9.7207 8.50781C10.7461 8.87695 10.9922 8.91797 11.2793 8.95898Z"/>
</svg>