<svg xmlns="http://www.w3.org/2000/svg" width="24" height="24" fill="currentcolor" class="icon-italic" viewBox="0 0 24 24">
  <path d="M19.0002 3.4375C19.3108 3.43763 19.5627 3.68942 19.5627 4C19.5627 4.31058 19.3108 4.56237 19.0002 4.5625H15.3894L9.81128 19.4373H14C14.3106 19.4373 14.5624 19.6892 14.5625 19.9998C14.5625 20.3104 14.3107 20.5623 14 20.5623H5C4.68934 20.5623 4.4375 20.3104 4.4375 19.9998C4.43763 19.6892 4.68942 19.4373 5 19.4373H8.61011L14.1882 4.5625H10.0002C9.68958 4.5625 9.43774 4.31066 9.43774 4C9.43774 3.68934 9.68958 3.4375 10.0002 3.4375H19.0002Z"/>
</svg>