<svg xmlns="http://www.w3.org/2000/svg" width="24" height="24" fill="currentcolor" class="icon-key" viewBox="0 0 24 24">
  <path d="M20.6015 1.60231C20.8212 1.38268 21.1773 1.38277 21.397 1.60231C21.6166 1.82198 21.6166 2.17805 21.397 2.39772L19.7944 3.99952L22.3974 6.60255C22.6169 6.82224 22.617 7.17837 22.3974 7.39796L18.8972 10.8975C18.7917 11.003 18.6487 11.0623 18.4995 11.0623C18.3503 11.0623 18.2073 11.003 18.1018 10.8975L15.4995 8.29518L12.1684 11.6262C12.5596 12.0919 12.8798 12.6141 13.1162 13.1768C13.4258 13.9138 13.5866 14.705 13.5893 15.5044C13.592 16.3039 13.4363 17.0965 13.1316 17.8357C12.8268 18.5749 12.3786 19.2464 11.8132 19.8118C11.2479 20.3771 10.5763 20.8254 9.83714 21.1301C9.09806 21.4348 8.30598 21.5898 7.50657 21.5872C6.70702 21.5845 5.91535 21.4237 5.17821 21.114C4.44119 20.8043 3.77241 20.3523 3.21092 19.7832L3.20726 19.7788C2.10298 18.6355 1.49136 17.1041 1.50511 15.5147C1.51892 13.9252 2.15663 12.4045 3.2805 11.2805C4.40447 10.1566 5.92517 9.51903 7.51463 9.50514C8.9185 9.49294 10.2769 9.96839 11.3628 10.8403L20.6015 1.60231ZM7.52488 10.6301C6.23029 10.6414 4.99136 11.1605 4.07591 12.0759C3.16063 12.9914 2.64136 14.2297 2.63011 15.5242C2.61888 16.8167 3.11483 18.0622 4.01146 18.9929C4.46876 19.4564 5.01374 19.8247 5.614 20.0769C6.21435 20.3291 6.85905 20.4607 7.51024 20.4629C8.16135 20.4651 8.8067 20.3383 9.40867 20.0901C10.0106 19.8419 10.5574 19.4768 11.0178 19.0164C11.4782 18.556 11.8433 18.0092 12.0915 17.4072C12.3397 16.8053 12.4665 16.1599 12.4643 15.5088C12.4622 14.8576 12.3306 14.2129 12.0784 13.6126C11.8278 13.0162 11.4624 12.475 11.0032 12.0195C11.0016 12.0181 10.9995 12.0173 10.998 12.0159C10.0668 11.1165 8.81942 10.6189 7.52488 10.6301ZM16.2949 7.49977L18.4995 9.70436L21.2036 6.99952L18.999 4.79493L16.2949 7.49977Z"/>
</svg>