<svg xmlns="http://www.w3.org/2000/svg" width="24" height="24" fill="currentcolor" class="icon-key" viewBox="0 0 24 24">
  <path d="M20.602 1.60231C20.8217 1.38268 21.1778 1.38277 21.3974 1.60231C21.6171 1.82198 21.6171 2.17805 21.3974 2.39772L19.7949 3.99952L22.3979 6.60255C22.6174 6.82224 22.6175 7.17837 22.3979 7.39796L18.8977 10.8975C18.7922 11.003 18.6492 11.0623 18.5 11.0623C18.3508 11.0623 18.2078 11.003 18.1023 10.8975L15.5 8.29518L12.1689 11.6262C12.56 12.0919 12.8803 12.6141 13.1167 13.1768C13.4263 13.9138 13.5871 14.705 13.5898 15.5044C13.5925 16.3039 13.4368 17.0965 13.1321 17.8357C12.8273 18.5749 12.3791 19.2464 11.8137 19.8118C11.2483 20.3771 10.5768 20.8254 9.83763 21.1301C9.09855 21.4348 8.30647 21.5898 7.50706 21.5872C6.70751 21.5845 5.91584 21.4237 5.17869 21.114C4.44167 20.8043 3.7729 20.3523 3.21141 19.7832L3.20775 19.7788C2.10347 18.6355 1.49185 17.1041 1.5056 15.5147C1.51941 13.9252 2.15712 12.4045 3.28099 11.2805C4.40495 10.1566 5.92566 9.51903 7.51512 9.50514C8.91899 9.49294 10.2773 9.96839 11.3633 10.8403L20.602 1.60231ZM7.52537 10.6301C6.23078 10.6414 4.99185 11.1605 4.0764 12.0759C3.16112 12.9914 2.64185 14.2297 2.6306 15.5242C2.61937 16.8167 3.11532 18.0622 4.01195 18.9929C4.46924 19.4564 5.01423 19.8247 5.61448 20.0769C6.21484 20.3291 6.85954 20.4607 7.51072 20.4629C8.16184 20.4651 8.80719 20.3383 9.40916 20.0901C10.0111 19.8419 10.5579 19.4768 11.0183 19.0164C11.4787 18.556 11.8438 18.0092 12.092 17.4072C12.3402 16.8053 12.467 16.1599 12.4648 15.5088C12.4626 14.8576 12.3311 14.2129 12.0788 13.6126C11.8283 13.0162 11.4629 12.475 11.0036 12.0195C11.0021 12.0181 11 12.0173 10.9985 12.0159C10.0673 11.1165 8.81991 10.6189 7.52537 10.6301ZM16.2954 7.49977L18.5 9.70436L21.2041 6.99952L18.9995 4.79493L16.2954 7.49977Z"/>
</svg>