<svg xmlns="http://www.w3.org/2000/svg" width="24" height="24" fill="currentcolor" class="icon-layers" viewBox="0 0 24 24">
  <path d="M21.7483 16.4968C22.0262 16.3579 22.3645 16.4709 22.5034 16.7488C22.642 17.0266 22.5292 17.3643 22.2515 17.5032L12.2517 22.5034C12.0934 22.5826 11.9069 22.5825 11.7485 22.5034L1.74878 17.5032C1.47102 17.3643 1.35812 17.0266 1.49683 16.7488C1.63571 16.471 1.97341 16.3581 2.25122 16.4968L11.9998 21.3711L21.7483 16.4968ZM21.7483 11.4966C22.0262 11.3576 22.3645 11.4707 22.5034 11.7485C22.6422 12.0264 22.5293 12.364 22.2515 12.5029L12.2517 17.5032C12.0934 17.5823 11.9069 17.5823 11.7485 17.5032L1.74878 12.5029C1.47095 12.364 1.35797 12.0264 1.49683 11.7485C1.63569 11.4708 1.97343 11.3579 2.25122 11.4966L11.9998 16.3708L21.7483 11.4966ZM11.8093 1.47119C11.9532 1.41929 12.1132 1.42757 12.2517 1.49682L22.2515 6.49707C22.442 6.59235 22.5627 6.78718 22.5627 7.00024C22.5627 7.2132 22.442 7.40817 22.2515 7.50341L12.2517 12.5029C12.0934 12.5821 11.9069 12.5821 11.7485 12.5029L1.74878 7.50341C1.55829 7.40817 1.43759 7.2132 1.4375 7.00024C1.4375 6.78718 1.55821 6.59235 1.74878 6.49707L11.7485 1.49682L11.8093 1.47119ZM3.25757 6.99951L11.9998 11.3706L20.7419 6.99951L11.9998 2.62841L3.25757 6.99951Z"/>
</svg>