<svg xmlns="http://www.w3.org/2000/svg" width="24" height="24" fill="currentcolor" class="icon-layers" viewBox="0 0 24 24">
  <path d="M21.7484 16.4969C22.0262 16.358 22.3645 16.471 22.5035 16.7488C22.6421 17.0266 22.5293 17.3644 22.2515 17.5032L12.2518 22.5035C12.0935 22.5826 11.9069 22.5826 11.7486 22.5035L1.74884 17.5032C1.47108 17.3643 1.35818 17.0266 1.49689 16.7488C1.63577 16.4711 1.97348 16.3582 2.25128 16.4969L11.9998 21.3712L21.7484 16.4969ZM21.7484 11.4966C22.0262 11.3577 22.3645 11.4707 22.5035 11.7486C22.6423 12.0264 22.5293 12.3641 22.2515 12.503L12.2518 17.5032C12.0934 17.5824 11.9069 17.5824 11.7486 17.5032L1.74884 12.503C1.47101 12.3641 1.35803 12.0264 1.49689 11.7486C1.63575 11.4709 1.97349 11.358 2.25128 11.4966L11.9998 16.3709L21.7484 11.4966ZM11.8094 1.47125C11.9533 1.41935 12.1133 1.42763 12.2518 1.49688L22.2515 6.49713C22.4421 6.59241 22.5628 6.78724 22.5628 7.0003C22.5627 7.21326 22.442 7.40823 22.2515 7.50347L12.2518 12.503C12.0934 12.5822 11.907 12.5822 11.7486 12.503L1.74884 7.50347C1.55835 7.40823 1.43765 7.21326 1.43756 7.0003C1.43756 6.78724 1.55828 6.59241 1.74884 6.49713L11.7486 1.49688L11.8094 1.47125ZM3.25763 6.99957L11.9998 11.3707L20.742 6.99957L11.9998 2.62847L3.25763 6.99957Z"/>
</svg>