<svg xmlns="http://www.w3.org/2000/svg" width="24" height="24" fill="currentcolor" class="icon-layers" viewBox="0 0 24 24">
  <path d="M21.7484 16.4968C22.0262 16.3579 22.3645 16.4709 22.5035 16.7488C22.6421 17.0266 22.5293 17.3643 22.2515 17.5032L12.2518 22.5034C12.0935 22.5826 11.9069 22.5825 11.7486 22.5034L1.74884 17.5032C1.47108 17.3643 1.35818 17.0266 1.49689 16.7488C1.63577 16.471 1.97348 16.3581 2.25128 16.4968L11.9998 21.3711L21.7484 16.4968ZM21.7484 11.4966C22.0262 11.3576 22.3645 11.4707 22.5035 11.7485C22.6423 12.0264 22.5293 12.364 22.2515 12.5029L12.2518 17.5032C12.0934 17.5823 11.9069 17.5823 11.7486 17.5032L1.74884 12.5029C1.47101 12.364 1.35803 12.0264 1.49689 11.7485C1.63575 11.4708 1.97349 11.3579 2.25128 11.4966L11.9998 16.3708L21.7484 11.4966ZM11.8094 1.47119C11.9533 1.41929 12.1133 1.42757 12.2518 1.49682L22.2515 6.49707C22.4421 6.59235 22.5628 6.78718 22.5628 7.00024C22.5627 7.2132 22.442 7.40817 22.2515 7.50341L12.2518 12.5029C12.0934 12.5821 11.907 12.5821 11.7486 12.5029L1.74884 7.50341C1.55835 7.40817 1.43765 7.2132 1.43756 7.00024C1.43756 6.78718 1.55828 6.59235 1.74884 6.49707L11.7486 1.49682L11.8094 1.47119ZM3.25763 6.99951L11.9998 11.3706L20.742 6.99951L11.9998 2.62841L3.25763 6.99951Z"/>
</svg>