<svg xmlns="http://www.w3.org/2000/svg" width="24" height="24" fill="currentcolor" class="icon-life-buoy" viewBox="0 0 24 24">
  <path d="M7.4375 11.9998C7.43756 10.9427 7.79795 9.97031 8.40137 9.19678L4.94214 5.73755C3.4626 7.40379 2.56256 9.59619 2.5625 11.9998C2.5625 14.4031 3.46216 16.5957 4.94141 18.262L8.40063 14.8027C7.79748 14.0293 7.4375 13.0566 7.4375 11.9998ZM14.8027 15.5981C14.0292 16.2016 13.0569 16.5627 11.9998 16.5627C10.9424 16.5627 9.96969 16.2019 9.19604 15.5981L5.73755 19.0566C7.40386 20.5365 9.5959 21.4377 11.9998 21.4377C14.4034 21.4377 16.5957 20.5369 18.262 19.0574L14.8027 15.5981ZM11.9998 2.5625C9.59619 2.56256 7.40379 3.4626 5.73755 4.94214L9.19678 8.40137C9.97031 7.79795 10.9427 7.43756 11.9998 7.4375C13.0568 7.4375 14.0292 7.79805 14.8027 8.40137L18.262 4.94141C16.5957 3.46216 14.4031 2.5625 11.9998 2.5625ZM8.5625 11.9998C8.5625 13.8982 10.1014 15.4376 11.9998 15.4377C13.8982 15.4377 15.4377 13.8982 15.4377 11.9998C15.4376 10.1014 13.8982 8.5625 11.9998 8.5625C10.1015 8.56263 8.56263 10.1015 8.5625 11.9998ZM16.5627 11.9998C16.5627 13.0569 16.2016 14.0292 15.5981 14.8027L19.0574 18.262C20.5369 16.5957 21.4377 14.4034 21.4377 11.9998C21.4377 9.5959 20.5365 7.40386 19.0566 5.73755L18.7578 6.03784L15.5981 9.19604C16.2019 9.96969 16.5627 10.9424 16.5627 11.9998ZM22.5627 11.9998C22.5627 17.8333 17.8333 22.5627 11.9998 22.5627C6.16636 22.5626 1.4375 17.8332 1.4375 11.9998C1.43763 6.16644 6.16644 1.43763 11.9998 1.4375C17.8332 1.4375 22.5626 6.16636 22.5627 11.9998Z"/>
</svg>