<svg xmlns="http://www.w3.org/2000/svg" width="24" height="24" fill="currentcolor" class="icon-link-2" viewBox="0 0 24 24">
  <path d="M0.4375 12.0002C0.4375 10.525 1.02324 9.10958 2.06641 8.06641C3.10958 7.02324 4.52498 6.4375 6.00024 6.4375H9.00024C9.31079 6.43763 9.56274 6.68942 9.56274 7C9.56274 7.31058 9.31079 7.56237 9.00024 7.5625H6.00024C4.82335 7.5625 3.69474 8.03036 2.86255 8.86255C2.03036 9.69474 1.5625 10.8233 1.5625 12.0002C1.56256 13.1771 2.03041 14.3058 2.86255 15.1379C3.27453 15.5499 3.76353 15.8766 4.30176 16.0996C4.84014 16.3226 5.4175 16.4373 6.00024 16.4373H9.00024C9.31071 16.4374 9.56261 16.6893 9.56274 16.9998C9.56274 17.3103 9.31079 17.5621 9.00024 17.5623H6.00024C5.26977 17.5623 4.54597 17.4185 3.87109 17.1389C3.19632 16.8594 2.58287 16.4498 2.06641 15.9333C1.02337 14.8902 0.437565 13.4754 0.4375 12.0002ZM22.4373 12.0002C22.4373 11.4175 22.3226 10.8401 22.0996 10.3018C21.8766 9.76353 21.5499 9.27453 21.1379 8.86255C20.7259 8.45049 20.2364 8.12315 19.698 7.90015C19.1597 7.67722 18.5828 7.56253 18.0002 7.5625H15.5627V11.4377H16C16.3107 11.4377 16.5625 11.6896 16.5625 12.0002C16.5624 12.3108 16.3106 12.5627 16 12.5627H15.5627V16.4373H18.0002C18.5829 16.4372 19.1597 16.3226 19.698 16.0996C20.2364 15.8766 20.7259 15.55 21.1379 15.1379C21.55 14.7259 21.8766 14.2364 22.0996 13.698C22.3226 13.1597 22.4372 12.5829 22.4373 12.0002ZM23.5623 12.0002C23.5622 12.7306 23.4184 13.4539 23.1389 14.1287C22.8594 14.8035 22.4499 15.4168 21.9333 15.9333C21.4168 16.4499 20.8035 16.8594 20.1287 17.1389C19.4539 17.4184 18.7306 17.5622 18.0002 17.5623H15.0002C14.6896 17.5623 14.4377 17.3104 14.4377 16.9998V12.5627H7.99976C7.68929 12.5626 7.43739 12.3107 7.43726 12.0002C7.43726 11.6897 7.68921 11.4379 7.99976 11.4377H14.4377V7C14.4377 6.68934 14.6896 6.4375 15.0002 6.4375H18.0002C18.7306 6.43753 19.4539 6.58134 20.1287 6.86084C20.8035 7.14036 21.4168 7.54994 21.9333 8.06641C22.4498 8.58287 22.8594 9.19632 23.1389 9.87109C23.4185 10.546 23.5623 11.2698 23.5623 12.0002Z"/>
</svg>