<svg xmlns="http://www.w3.org/2000/svg" width="24" height="24" fill="currentcolor" class="icon-link" viewBox="0 0 24 24">
  <path d="M10.3936 8.44656C11.1892 8.50355 11.9634 8.73064 12.6634 9.11306C13.3633 9.49547 13.9727 10.0242 14.4505 10.6629C14.6365 10.9116 14.5856 11.2641 14.3369 11.4502C14.0882 11.6363 13.7357 11.5855 13.5496 11.3367C13.1685 10.8272 12.6819 10.4054 12.1236 10.1004C11.5652 9.79537 10.9476 9.61408 10.313 9.56863C9.67838 9.5232 9.04147 9.61506 8.44534 9.83743C7.92377 10.032 7.44413 10.3226 7.03103 10.6936L6.85745 10.8577L3.86404 13.8504C3.05579 14.6872 2.60886 15.8085 2.61892 16.972C2.62903 18.1354 3.09622 19.2488 3.91897 20.0716C4.74169 20.8941 5.85449 21.3608 7.01785 21.3709C8.17803 21.381 9.29596 20.9363 10.1321 20.1324L11.8423 18.4221C12.062 18.2026 12.4181 18.2026 12.6377 18.4221C12.8574 18.6418 12.8573 18.9979 12.6377 19.2176L10.9209 20.9344C9.87188 21.9476 8.46671 22.5085 7.00833 22.4959C5.54986 22.4832 4.15416 21.8983 3.12283 20.867C2.09163 19.8357 1.50668 18.4405 1.49392 16.9822C1.48125 15.5237 2.04219 14.118 3.05545 13.0689L6.06204 10.0623L6.27884 9.85647C6.79667 9.39133 7.39821 9.02738 8.05203 8.78347C8.79936 8.5047 9.59799 8.38958 10.3936 8.44656ZM16.992 1.50393C18.4503 1.51663 19.8454 2.10165 20.8767 3.13284C21.9081 4.16417 22.493 5.55987 22.5056 7.01834C22.5183 8.4767 21.958 9.8819 20.9449 10.9309L20.9375 10.9375L17.9375 13.9375C17.3737 14.5016 16.6955 14.9383 15.9483 15.2171C15.201 15.4958 14.4022 15.6102 13.6067 15.5532C12.8112 15.4963 12.0369 15.2691 11.3369 14.8867C10.637 14.5043 10.0276 13.9756 9.54983 13.3369C9.36375 13.0882 9.41459 12.7357 9.66336 12.5496C9.91211 12.3637 10.2647 12.4144 10.4507 12.6631C10.8318 13.1725 11.3177 13.5944 11.876 13.8994C12.4343 14.2045 13.052 14.3857 13.6866 14.4312C14.3212 14.4766 14.9588 14.3855 15.555 14.1631C16.1511 13.9407 16.6923 13.5921 17.1421 13.1421L20.1421 10.1421C20.9462 9.30596 21.3907 8.1881 21.3806 7.02786C21.3705 5.86445 20.904 4.75171 20.0813 3.92898C19.2587 3.10632 18.1458 2.63913 16.9824 2.62893C15.819 2.61882 14.6978 3.06646 13.8609 3.87478L12.1463 5.57913C11.926 5.79787 11.5698 5.79708 11.3509 5.57693C11.1318 5.35663 11.1328 4.99982 11.3531 4.78079L13.0735 3.07132L13.0794 3.06546C14.1285 2.05224 15.5335 1.49126 16.992 1.50393Z"/>
</svg>