<svg xmlns="http://www.w3.org/2000/svg" width="24" height="24" fill="currentcolor" class="icon-link" viewBox="0 0 24 24">
  <path d="M10.3935 8.44656C11.1891 8.50355 11.9633 8.73064 12.6633 9.11306C13.3632 9.49547 13.9727 10.0242 14.4504 10.6629C14.6365 10.9116 14.5855 11.2641 14.3369 11.4502C14.0881 11.6363 13.7356 11.5855 13.5495 11.3367C13.1684 10.8272 12.6819 10.4054 12.1235 10.1004C11.5652 9.79537 10.9475 9.61408 10.313 9.56863C9.67832 9.5232 9.04141 9.61506 8.44528 9.83743C7.92371 10.032 7.44407 10.3226 7.03097 10.6936L6.85739 10.8577L3.86398 13.8504C3.05573 14.6872 2.6088 15.8085 2.61886 16.972C2.62897 18.1354 3.09616 19.2488 3.91891 20.0716C4.74163 20.8941 5.85443 21.3608 7.01779 21.3709C8.17797 21.381 9.2959 20.9363 10.132 20.1324L11.8423 18.4221C12.0619 18.2026 12.418 18.2026 12.6377 18.4221C12.8573 18.6418 12.8572 18.9979 12.6377 19.2176L10.9209 20.9344C9.87182 21.9476 8.46665 22.5085 7.00827 22.4959C5.5498 22.4832 4.1541 21.8983 3.12277 20.867C2.09157 19.8357 1.50662 18.4405 1.49386 16.9822C1.48119 15.5237 2.04213 14.118 3.05539 13.0689L6.06198 10.0623L6.27877 9.85647C6.79661 9.39133 7.39815 9.02738 8.05197 8.78347C8.7993 8.5047 9.59792 8.38958 10.3935 8.44656ZM16.9919 1.50393C18.4503 1.51663 19.8454 2.10165 20.8767 3.13284C21.908 4.16417 22.4929 5.55987 22.5056 7.01834C22.5182 8.4767 21.958 9.8819 20.9448 10.9309L20.9375 10.9375L17.9375 13.9375C17.3736 14.5016 16.6954 14.9383 15.9482 15.2171C15.201 15.4958 14.4022 15.6102 13.6067 15.5532C12.8111 15.4963 12.0368 15.2691 11.3369 14.8867C10.637 14.5043 10.0275 13.9756 9.54977 13.3369C9.36369 13.0882 9.41453 12.7357 9.6633 12.5496C9.91205 12.3637 10.2646 12.4144 10.4506 12.6631C10.8317 13.1725 11.3176 13.5944 11.8759 13.8994C12.4343 14.2045 13.0519 14.3857 13.6865 14.4312C14.3212 14.4766 14.9587 14.3855 15.5549 14.1631C16.1511 13.9407 16.6922 13.5921 17.1421 13.1421L20.1421 10.1421C20.9461 9.30596 21.3907 8.1881 21.3806 7.02786C21.3705 5.86445 20.9039 4.75171 20.0813 3.92898C19.2586 3.10632 18.1458 2.63913 16.9824 2.62893C15.8189 2.61882 14.6977 3.06646 13.8608 3.87478L12.1462 5.57913C11.9259 5.79787 11.5697 5.79708 11.3508 5.57693C11.1318 5.35663 11.1327 4.99982 11.353 4.78079L13.0735 3.07132L13.0793 3.06546C14.1284 2.05224 15.5335 1.49126 16.9919 1.50393Z"/>
</svg>