<svg xmlns="http://www.w3.org/2000/svg" width="24" height="24" fill="currentcolor" class="icon-link" viewBox="0 0 24 24">
  <path d="M10.394 8.44662C11.1896 8.50361 11.9638 8.73071 12.6638 9.11313C13.3637 9.49553 13.9731 10.0243 14.4509 10.6629C14.6369 10.9117 14.586 11.2642 14.3374 11.4503C14.0886 11.6364 13.7361 11.5855 13.55 11.3368C13.1689 10.8273 12.6824 10.4055 12.124 10.1004C11.5657 9.79543 10.948 9.61414 10.3134 9.56869C9.67881 9.52326 9.0419 9.61512 8.44577 9.83749C7.9242 10.0321 7.44456 10.3227 7.03146 10.6937L6.85788 10.8578L3.86447 13.8504C3.05622 14.6873 2.60928 15.8086 2.61935 16.972C2.62946 18.1355 3.09665 19.2489 3.9194 20.0716C4.74212 20.8942 5.85492 21.3608 7.01828 21.3709C8.17846 21.381 9.29638 20.9364 10.1325 20.1324L11.8427 18.4222C12.0624 18.2026 12.4185 18.2026 12.6381 18.4222C12.8578 18.6418 12.8577 18.9979 12.6381 19.2176L10.9214 20.9344C9.87231 21.9476 8.46714 22.5085 7.00876 22.4959C5.55029 22.4833 4.15459 21.8984 3.12326 20.867C2.09205 19.8358 1.50711 18.4406 1.49435 16.9823C1.48168 15.5238 2.04262 14.118 3.05587 13.0689L6.06247 10.0623L6.27926 9.85653C6.79709 9.39139 7.39864 9.02744 8.05246 8.78354C8.79979 8.50476 9.59841 8.38964 10.394 8.44662ZM16.9924 1.50399C18.4507 1.51669 19.8459 2.10171 20.8772 3.1329C21.9085 4.16423 22.4934 5.55993 22.5061 7.0184C22.5187 8.47676 21.9584 9.88196 20.9453 10.931L20.938 10.9376L17.938 13.9376C17.3741 14.5016 16.6959 14.9384 15.9487 15.2171C15.2014 15.4959 14.4027 15.6102 13.6071 15.5533C12.8116 15.4963 12.0373 15.2692 11.3374 14.8868C10.6374 14.5044 10.028 13.9757 9.55026 13.337C9.36418 13.0882 9.41502 12.7357 9.66378 12.5496C9.91254 12.3637 10.2651 12.4145 10.4511 12.6632C10.8322 13.1726 11.3181 13.5945 11.8764 13.8995C12.4348 14.2045 13.0524 14.3858 13.687 14.4312C14.3217 14.4767 14.9592 14.3856 15.5554 14.1632C16.1515 13.9408 16.6927 13.5922 17.1425 13.1422L20.1425 10.1422C20.9466 9.30602 21.3912 8.18816 21.3811 7.02792C21.371 5.86451 20.9044 4.75177 20.0818 3.92904C19.2591 3.10638 18.1462 2.6392 16.9829 2.62899C15.8194 2.61888 14.6982 3.06652 13.8613 3.87484L12.1467 5.57919C11.9264 5.79793 11.5702 5.79715 11.3513 5.57699C11.1323 5.35669 11.1332 4.99988 11.3535 4.78085L13.0739 3.07138L13.0798 3.06552C14.1289 2.0523 15.534 1.49132 16.9924 1.50399Z"/>
</svg>