<svg xmlns="http://www.w3.org/2000/svg" width="24" height="24" fill="currentcolor" class="icon-linkedin" viewBox="0 0 24 24">
  <path d="M5.99976 8.43726C6.31033 8.43726 6.56212 8.68921 6.56226 8.99976V20.9998C6.56226 21.3104 6.31042 21.5623 5.99976 21.5623H2C1.68934 21.5623 1.4375 21.3104 1.4375 20.9998V8.99976C1.43763 8.68921 1.68942 8.43726 2 8.43726H5.99976ZM21.4377 14C21.4377 12.5579 20.8645 11.1745 19.8447 10.1548C18.8251 9.13527 17.4422 8.56256 16.0002 8.5625C14.5582 8.5625 13.1747 9.13513 12.155 10.1548C11.1353 11.1745 10.5627 12.5579 10.5627 14V20.4373H13.4375V14C13.4375 13.3204 13.7077 12.6685 14.1882 12.188C14.6688 11.7075 15.3207 11.4373 16.0002 11.4373C16.6798 11.4373 17.3318 11.7075 17.8123 12.188C18.2927 12.6685 18.5623 13.3204 18.5623 14V20.4373H21.4377V14ZM2.5625 20.4373H5.43726V9.56226H2.5625V20.4373ZM5.43726 4.00024C5.43726 3.20642 4.79404 2.56263 4.00024 2.5625C3.20633 2.5625 2.5625 3.20633 2.5625 4.00024C2.56263 4.79404 3.20642 5.43726 4.00024 5.43726C4.79396 5.43712 5.43712 4.79396 5.43726 4.00024ZM22.5627 20.9998C22.5627 21.3103 22.3108 21.5621 22.0002 21.5623H17.9998C17.6892 21.5621 17.4373 21.3103 17.4373 20.9998V14C17.4373 13.6188 17.2857 13.253 17.0161 12.9834C16.7466 12.714 16.3813 12.5623 16.0002 12.5623C15.6191 12.5623 15.2532 12.7139 14.9836 12.9834C14.7141 13.253 14.5625 13.6188 14.5625 14V20.9998C14.5625 21.3104 14.3107 21.5623 14 21.5623H10.0002C9.68958 21.5623 9.43774 21.3104 9.43774 20.9998V14C9.43774 12.2595 10.1289 10.5901 11.3596 9.35938C12.5903 8.12874 14.2598 7.4375 16.0002 7.4375C17.7405 7.43756 19.4095 8.12888 20.6401 9.35938C21.8708 10.5901 22.5627 12.2595 22.5627 14V20.9998ZM6.56226 4.00024C6.56212 5.41528 5.41528 6.56212 4.00024 6.56226C2.5851 6.56226 1.43763 5.41536 1.4375 4.00024C1.4375 2.58501 2.58501 1.4375 4.00024 1.4375C5.41536 1.43763 6.56226 2.5851 6.56226 4.00024Z"/>
</svg>