<svg xmlns="http://www.w3.org/2000/svg" width="24" height="24" fill="currentcolor" class="icon-list" viewBox="0 0 24 24">
  <path d="M3.01025 17.4375C3.3208 17.4376 3.57275 17.6894 3.57275 18C3.57275 18.3106 3.3208 18.5624 3.01025 18.5625H3C2.68934 18.5625 2.4375 18.3107 2.4375 18C2.4375 17.6893 2.68934 17.4375 3 17.4375H3.01025ZM21 17.4375C21.3107 17.4375 21.5625 17.6893 21.5625 18C21.5625 18.3107 21.3107 18.5625 21 18.5625H8.00024C7.68958 18.5625 7.43774 18.3107 7.43774 18C7.43774 17.6893 7.68958 17.4375 8.00024 17.4375H21ZM3.01025 11.4375C3.3208 11.4376 3.57275 11.6894 3.57275 12C3.57275 12.3106 3.3208 12.5624 3.01025 12.5625H3C2.68934 12.5625 2.4375 12.3107 2.4375 12C2.4375 11.6893 2.68934 11.4375 3 11.4375H3.01025ZM21 11.4375C21.3107 11.4375 21.5625 11.6893 21.5625 12C21.5625 12.3107 21.3107 12.5625 21 12.5625H8.00024C7.68958 12.5625 7.43774 12.3107 7.43774 12C7.43774 11.6893 7.68958 11.4375 8.00024 11.4375H21ZM3.01025 5.4375C3.3208 5.43764 3.57275 5.68942 3.57275 6C3.57275 6.31058 3.3208 6.56236 3.01025 6.5625H3C2.68934 6.5625 2.4375 6.31066 2.4375 6C2.4375 5.68934 2.68934 5.4375 3 5.4375H3.01025ZM21 5.4375C21.3107 5.4375 21.5625 5.68934 21.5625 6C21.5625 6.31066 21.3107 6.5625 21 6.5625H8.00024C7.68958 6.5625 7.43774 6.31066 7.43774 6C7.43774 5.68934 7.68958 5.4375 8.00024 5.4375H21Z"/>
</svg>