<svg xmlns="http://www.w3.org/2000/svg" width="24" height="24" fill="currentcolor" class="icon-loader" viewBox="0 0 24 24">
  <path d="M11.4373 22.0002V17.9998C11.4374 17.6893 11.6893 17.4374 11.9998 17.4373C12.3103 17.4373 12.5621 17.6892 12.5623 17.9998V22.0002C12.5621 22.3108 12.3103 22.5627 11.9998 22.5627C11.6893 22.5626 11.4374 22.3107 11.4373 22.0002ZM7.36206 15.842C7.58165 15.6225 7.93778 15.6226 8.15747 15.842C8.37714 16.0617 8.37713 16.4178 8.15747 16.6375L5.32739 19.4675C5.10772 19.6871 4.75163 19.6872 4.53198 19.4675C4.31258 19.2479 4.31246 18.8917 4.53198 18.6721L7.36206 15.842ZM15.842 15.842C16.0616 15.6225 16.4178 15.6226 16.6375 15.842L19.4675 18.6721C19.6872 18.8918 19.6872 19.2479 19.4675 19.4675C19.2479 19.6872 18.8918 19.6872 18.6721 19.4675L15.842 16.6375C15.6226 16.4178 15.6225 16.0616 15.842 15.842ZM5.99976 11.4373C6.31033 11.4373 6.56212 11.6892 6.56226 11.9998C6.56226 12.3104 6.31042 12.5623 5.99976 12.5623H2C1.68934 12.5623 1.4375 12.3104 1.4375 11.9998C1.43763 11.6892 1.68942 11.4373 2 11.4373H5.99976ZM22.0002 11.4373C22.3107 11.4374 22.5626 11.6893 22.5627 11.9998C22.5627 12.3103 22.3108 12.5621 22.0002 12.5623H17.9998C17.6892 12.5621 17.4373 12.3103 17.4373 11.9998C17.4374 11.6893 17.6893 11.4374 17.9998 11.4373H22.0002ZM4.53198 4.53198C4.75155 4.31242 5.1077 4.31262 5.32739 4.53198L8.15747 7.36206C8.37714 7.58173 8.37714 7.9378 8.15747 8.15747C7.9378 8.37714 7.58173 8.37714 7.36206 8.15747L4.53198 5.32739C4.31262 5.1077 4.31242 4.75155 4.53198 4.53198ZM18.6721 4.53198C18.8917 4.31246 19.2479 4.31258 19.4675 4.53198C19.6872 4.75163 19.6871 5.10772 19.4675 5.32739L16.6375 8.15747C16.4178 8.37713 16.0617 8.37714 15.842 8.15747C15.6226 7.93778 15.6225 7.58165 15.842 7.36206L18.6721 4.53198ZM11.4373 5.99976V2C11.4373 1.68942 11.6892 1.43763 11.9998 1.4375C12.3104 1.4375 12.5623 1.68934 12.5623 2V5.99976C12.5623 6.31042 12.3104 6.56226 11.9998 6.56226C11.6892 6.56212 11.4373 6.31033 11.4373 5.99976Z"/>
</svg>