<svg xmlns="http://www.w3.org/2000/svg" width="24" height="24" fill="currentcolor" class="icon-location" viewBox="0 0 24 24">
  <path d="M11.9999 1.4375C12.2355 1.4375 12.4464 1.58422 12.528 1.80518L19.5277 20.8057C19.6095 21.0275 19.5441 21.277 19.3637 21.4297C19.1833 21.5823 18.9266 21.6055 18.7214 21.4883L11.9999 17.6475L5.27921 21.4883C5.07402 21.6055 4.81734 21.5823 4.63688 21.4297C4.45646 21.277 4.39046 21.0275 4.47208 20.8057L11.4726 1.80518L11.5085 1.72607C11.6066 1.54988 11.7938 1.43759 11.9999 1.4375ZM6.06144 19.7451L11.7209 16.5115C11.8937 16.4127 12.1061 16.4128 12.279 16.5115L17.9384 19.7451L11.9999 3.62671L6.06144 19.7451Z"/>
</svg>