<svg xmlns="http://www.w3.org/2000/svg" width="24" height="24" fill="currentcolor" class="icon-location" viewBox="0 0 24 24">
  <path d="M11.9997 1.4375C12.2353 1.4375 12.4463 1.58422 12.5278 1.80518L19.5276 20.8057C19.6093 21.0275 19.544 21.277 19.3635 21.4297C19.1831 21.5823 18.9264 21.6055 18.7212 21.4883L11.9997 17.6475L5.27903 21.4883C5.07384 21.6055 4.81716 21.5823 4.6367 21.4297C4.45628 21.277 4.39028 21.0275 4.4719 20.8057L11.4724 1.80518L11.5083 1.72607C11.6064 1.54988 11.7936 1.43759 11.9997 1.4375ZM6.06126 19.7451L11.7207 16.5115C11.8935 16.4127 12.1059 16.4128 12.2788 16.5115L17.9382 19.7451L11.9997 3.62671L6.06126 19.7451Z"/>
</svg>