<svg xmlns="http://www.w3.org/2000/svg" width="24" height="24" fill="currentcolor" class="icon-lock" viewBox="0 0 24 24">
  <path d="M20.4375 13.0002C20.4375 12.2063 19.7937 11.5625 18.9998 11.5625H5.00024C4.20633 11.5625 3.5625 12.2063 3.5625 13.0002V20C3.5625 20.7939 4.20633 21.4377 5.00024 21.4377H18.9998C19.7937 21.4377 20.4375 20.7939 20.4375 20V13.0002ZM16.4377 7.00024C16.4377 5.8234 15.9698 4.69473 15.1377 3.86255C14.3055 3.03036 13.1769 2.5625 12 2.5625C10.8231 2.5625 9.6945 3.03036 8.8623 3.86255C8.03019 4.69473 7.56226 5.8234 7.56226 7.00024V10.4375H16.4377V7.00024ZM17.5627 10.4375H18.9998C20.415 10.4375 21.5625 11.585 21.5625 13.0002V20C21.5625 21.4152 20.415 22.5627 18.9998 22.5627H5.00024C3.58501 22.5627 2.4375 21.4152 2.4375 20V13.0002C2.4375 11.585 3.58501 10.4375 5.00024 10.4375H6.43726V7.00024C6.43726 5.52498 7.02372 4.10958 8.06689 3.06641C9.11004 2.02339 10.5248 1.4375 12 1.4375C13.4752 1.4375 14.89 2.02339 15.9331 3.06641C16.9763 4.10958 17.5627 5.52498 17.5627 7.00024V10.4375Z"/>
</svg>