<svg xmlns="http://www.w3.org/2000/svg" width="24" height="24" fill="currentcolor" class="icon-log-in" viewBox="0 0 24 24">
  <path d="M20.4375 18.9998V5.00024C20.4375 4.619 20.2859 4.25323 20.0164 3.98364C19.7804 3.74771 19.471 3.60246 19.1418 3.56982L18.9998 3.5625H15C14.6893 3.5625 14.4375 3.31066 14.4375 3C14.4375 2.68934 14.6893 2.4375 15 2.4375H18.9998L19.1272 2.44043C19.7605 2.47188 20.3613 2.73773 20.8118 3.18823C21.2923 3.66879 21.5625 4.32063 21.5625 5.00024V18.9998C21.5625 19.6794 21.2923 20.3312 20.8118 20.8118C20.3312 21.2923 19.6794 21.5625 18.9998 21.5625H15C14.6893 21.5625 14.4375 21.3107 14.4375 21C14.4375 20.6893 14.6893 20.4375 15 20.4375H18.9998C19.381 20.4375 19.7468 20.2859 20.0164 20.0164C20.2859 19.7468 20.4375 19.381 20.4375 18.9998ZM9.60205 6.60205C9.82164 6.38246 10.1778 6.38263 10.3975 6.60205L15.3977 11.6023C15.6174 11.822 15.6174 12.178 15.3977 12.3977L10.3975 17.3979C10.1778 17.6174 9.82164 17.6175 9.60205 17.3979C9.38246 17.1784 9.38262 16.8222 9.60205 16.6025L13.6421 12.5625H3C2.68934 12.5625 2.4375 12.3107 2.4375 12C2.4375 11.6893 2.68934 11.4375 3 11.4375H13.6421L9.60205 7.39746C9.38263 7.17777 9.38246 6.82164 9.60205 6.60205Z"/>
</svg>