<svg xmlns="http://www.w3.org/2000/svg" width="24" height="24" fill="currentcolor" class="icon-log-out" viewBox="0 0 24 24">
  <path d="M2.4375 18.9998V5.00024C2.4375 4.32063 2.70767 3.66879 3.18823 3.18823C3.66879 2.70767 4.32063 2.4375 5.00024 2.4375H9L9.05786 2.44043C9.34134 2.4694 9.5625 2.70888 9.5625 3C9.5625 3.29112 9.34134 3.5306 9.05786 3.55957L9 3.5625H5.00024C4.619 3.5625 4.25323 3.71406 3.98364 3.98364C3.71406 4.25323 3.5625 4.619 3.5625 5.00024V18.9998C3.5625 19.381 3.71406 19.7468 3.98364 20.0164C4.25323 20.2859 4.619 20.4375 5.00024 20.4375H9C9.31066 20.4375 9.5625 20.6893 9.5625 21C9.5625 21.3107 9.31066 21.5625 9 21.5625H5.00024C4.32063 21.5625 3.66879 21.2923 3.18823 20.8118C2.70767 20.3312 2.4375 19.6794 2.4375 18.9998ZM15.6021 6.60205C15.8216 6.38246 16.1778 6.38263 16.3975 6.60205L21.3977 11.6023C21.6174 11.822 21.6174 12.178 21.3977 12.3977L16.3975 17.3979C16.1778 17.6174 15.8216 17.6175 15.6021 17.3979C15.3825 17.1784 15.3826 16.8222 15.6021 16.6025L19.6421 12.5625H9C8.68934 12.5625 8.4375 12.3107 8.4375 12C8.4375 11.6893 8.68934 11.4375 9 11.4375H19.6421L15.6021 7.39746C15.3826 7.17777 15.3825 6.82164 15.6021 6.60205Z"/>
</svg>