<svg xmlns="http://www.w3.org/2000/svg" width="24" height="24" fill="currentcolor" class="icon-mail" viewBox="0 0 24 24">
  <path d="M21.4377 7.07983L12.3228 13.4607C12.1291 13.5963 11.8712 13.5963 11.6775 13.4607L2.5625 7.07983V18.0002C2.56263 18.7895 3.21099 19.4373 4.00024 19.4373H20C20.7893 19.4373 21.4376 18.7895 21.4377 18.0002V7.07983ZM4.00024 4.5625C3.30464 4.5625 2.71822 5.06583 2.58887 5.72559L11.9998 12.313L21.4099 5.72485C21.2802 5.06555 20.6953 4.5625 20 4.5625H4.00024ZM22.5627 18.0002C22.5626 19.4108 21.4106 20.5623 20 20.5623H4.00024C2.58967 20.5623 1.43763 19.4108 1.4375 18.0002V6.00024C1.4375 4.58958 2.58958 3.4375 4.00024 3.4375H20C21.4107 3.4375 22.5627 4.58958 22.5627 6.00024V18.0002Z"/>
</svg>