<svg xmlns="http://www.w3.org/2000/svg" width="24" height="24" fill="currentcolor" class="icon-map-pin" viewBox="0 0 24 24">
  <path d="M20.4375 10C20.4375 7.76224 19.5486 5.61603 17.9663 4.03369C16.384 2.45135 14.2378 1.5625 12 1.5625C9.76224 1.5625 7.61603 2.45135 6.03369 4.03369C4.45135 5.61603 3.5625 7.76224 3.5625 10C3.5625 13.2739 5.68107 16.3864 7.90869 18.7378C9.01089 19.9012 10.1146 20.8526 10.9438 21.5129C11.358 21.8428 11.703 22.0993 11.9429 22.2725C11.9625 22.2866 11.9818 22.2997 12 22.3127C12.0182 22.2997 12.0375 22.2866 12.0571 22.2725C12.297 22.0993 12.642 21.8428 13.0562 21.5129C13.8854 20.8526 14.9891 19.9012 16.0913 18.7378C18.3189 16.3864 20.4375 13.2739 20.4375 10ZM14.4375 10C14.4375 8.65381 13.3462 7.5625 12 7.5625C10.6538 7.5625 9.5625 8.65381 9.5625 10C9.5625 11.3462 10.6538 12.4375 12 12.4375C13.3462 12.4375 14.4375 11.3462 14.4375 10ZM15.5625 10C15.5625 11.9675 13.9675 13.5625 12 13.5625C10.0325 13.5625 8.4375 11.9675 8.4375 10C8.4375 8.03249 10.0325 6.4375 12 6.4375C13.9675 6.4375 15.5625 8.03249 15.5625 10ZM21.5625 10C21.5625 13.726 19.181 17.1133 16.9087 19.512C15.761 20.7234 14.6146 21.7099 13.7563 22.3933C13.327 22.7352 12.9686 23.0021 12.7163 23.1843C12.5901 23.2755 12.4899 23.3454 12.4211 23.3931C12.3868 23.4169 12.3604 23.4355 12.342 23.448C12.3329 23.4542 12.3258 23.4593 12.3208 23.4626C12.3184 23.4643 12.3163 23.4654 12.3149 23.4663C12.3142 23.4668 12.3132 23.4675 12.3127 23.4678H12.312C12.1231 23.5937 11.8769 23.5937 11.688 23.4678H11.6873C11.6868 23.4675 11.6858 23.4668 11.6851 23.4663C11.6837 23.4654 11.6816 23.4643 11.6792 23.4626C11.6742 23.4593 11.6671 23.4542 11.658 23.448C11.6396 23.4355 11.6132 23.4169 11.5789 23.3931C11.5101 23.3454 11.4099 23.2755 11.2837 23.1843C11.0314 23.0021 10.673 22.7352 10.2437 22.3933C9.38542 21.7099 8.239 20.7234 7.09131 19.512C4.81896 17.1133 2.4375 13.726 2.4375 10C2.4375 7.46387 3.44496 5.0316 5.23828 3.23828C7.0316 1.44496 9.46387 0.4375 12 0.4375C14.5361 0.4375 16.9684 1.44496 18.7617 3.23828C20.555 5.0316 21.5625 7.46387 21.5625 10Z"/>
</svg>