<svg xmlns="http://www.w3.org/2000/svg" width="24" height="24" fill="currentcolor" class="icon-map" viewBox="0 0 24 24">
  <path d="M22.7207 1.51152C22.8948 1.41203 23.109 1.41307 23.2825 1.51371C23.4558 1.61438 23.5623 1.7996 23.5623 2.00004V17.9998C23.5623 18.2017 23.4541 18.3882 23.2788 18.4883L16.2791 22.4881C16.1159 22.5813 15.9169 22.5874 15.7488 22.5035L8.01733 18.637L1.27905 22.4881C1.10505 22.5875 0.891393 22.5871 0.718018 22.4866C0.544661 22.386 0.437586 22.2007 0.4375 22.0003V5.9998L0.442627 5.92509C0.465754 5.75292 0.567707 5.59963 0.720947 5.512L7.7207 1.51152L7.78369 1.48075C7.9335 1.41833 8.10452 1.42327 8.25171 1.49687L15.9824 5.36186L22.7207 1.51152ZM8.56226 17.6519L15.4375 21.0899V6.34697L8.56226 2.90971V17.6519ZM1.5625 6.32573V21.0306L7.43726 17.6739V2.96904L1.5625 6.32573ZM16.5625 6.32573V21.0306L22.4373 17.6739V2.96904L16.5625 6.32573Z"/>
</svg>