<svg xmlns="http://www.w3.org/2000/svg" width="24" height="24" fill="currentcolor" class="icon-map" viewBox="0 0 24 24">
  <path d="M22.7207 1.51146C22.8948 1.41197 23.109 1.41301 23.2825 1.51365C23.4558 1.61432 23.5623 1.79954 23.5623 1.99998V17.9997C23.5623 18.2016 23.4541 18.3881 23.2788 18.4883L16.2791 22.488C16.1159 22.5813 15.9169 22.5873 15.7488 22.5034L8.01733 18.6369L1.27905 22.488C1.10505 22.5874 0.891393 22.587 0.718018 22.4866C0.544661 22.3859 0.437586 22.2006 0.4375 22.0002V5.99974L0.442627 5.92503C0.465754 5.75286 0.567707 5.59956 0.720947 5.51194L7.7207 1.51146L7.78369 1.48069C7.9335 1.41827 8.10452 1.42321 8.25171 1.49681L15.9824 5.3618L22.7207 1.51146ZM8.56226 17.6518L15.4375 21.0898V6.3469L8.56226 2.90965V17.6518ZM1.5625 6.32566V21.0305L7.43726 17.6738V2.96897L1.5625 6.32566ZM16.5625 6.32566V21.0305L22.4373 17.6738V2.96897L16.5625 6.32566Z"/>
</svg>