<svg xmlns="http://www.w3.org/2000/svg" width="24" height="24" fill="currentcolor" class="icon-maximize-2" viewBox="0 0 24 24">
  <path d="M9.60205 13.6025C9.82172 13.3829 10.1778 13.3829 10.3975 13.6025C10.6171 13.8222 10.6171 14.1783 10.3975 14.3979L4.35791 20.4375H9C9.31066 20.4375 9.5625 20.6893 9.5625 21C9.5625 21.3107 9.31066 21.5625 9 21.5625H3C2.68934 21.5625 2.4375 21.3107 2.4375 21V15C2.4375 14.6893 2.68934 14.4375 3 14.4375C3.31066 14.4375 3.5625 14.6893 3.5625 15V19.6421L9.60205 13.6025ZM21.5625 9C21.5625 9.31066 21.3107 9.5625 21 9.5625C20.6893 9.5625 20.4375 9.31066 20.4375 9V4.35791L14.3979 10.3975C14.1783 10.6171 13.8222 10.6171 13.6025 10.3975C13.3829 10.1778 13.3829 9.82172 13.6025 9.60205L19.6421 3.5625H15C14.6893 3.5625 14.4375 3.31066 14.4375 3C14.4375 2.68934 14.6893 2.4375 15 2.4375H21C21.3107 2.4375 21.5625 2.68934 21.5625 3V9Z"/>
</svg>