<svg xmlns="http://www.w3.org/2000/svg" width="24" height="24" fill="currentcolor" class="icon-maximize" viewBox="0 0 24 24">
  <path d="M2.4375 18.9998V15.9998C2.43763 15.6892 2.68942 15.4373 3 15.4373C3.31058 15.4373 3.56237 15.6892 3.5625 15.9998V18.9998C3.5625 19.381 3.71406 19.7468 3.98364 20.0164C4.25323 20.2859 4.619 20.4375 5.00024 20.4375H8.00024C8.31079 20.4376 8.56274 20.6894 8.56274 21C8.56274 21.3106 8.31079 21.5624 8.00024 21.5625H5.00024C4.32063 21.5625 3.66879 21.2923 3.18823 20.8118C2.70767 20.3312 2.4375 19.6794 2.4375 18.9998ZM20.4375 18.9998V15.9998C20.4376 15.6892 20.6894 15.4373 21 15.4373C21.3106 15.4373 21.5624 15.6892 21.5625 15.9998V18.9998C21.5625 19.6794 21.2923 20.3312 20.8118 20.8118C20.3312 21.2923 19.6794 21.5625 18.9998 21.5625H15.9998C15.6892 21.5624 15.4373 21.3106 15.4373 21C15.4373 20.6894 15.6892 20.4376 15.9998 20.4375H18.9998C19.381 20.4375 19.7468 20.2859 20.0164 20.0164C20.2859 19.7468 20.4375 19.381 20.4375 18.9998ZM2.4375 8.00024V5.00024C2.4375 4.32063 2.70767 3.66879 3.18823 3.18823C3.66879 2.70767 4.32063 2.4375 5.00024 2.4375H8.00024C8.31079 2.43763 8.56274 2.68942 8.56274 3C8.56274 3.31058 8.31079 3.56237 8.00024 3.5625H5.00024C4.619 3.5625 4.25323 3.71406 3.98364 3.98364C3.71406 4.25323 3.5625 4.619 3.5625 5.00024V8.00024C3.56237 8.31079 3.31058 8.56274 3 8.56274C2.68942 8.56274 2.43763 8.31079 2.4375 8.00024ZM20.4375 8.00024V5.00024C20.4375 4.619 20.2859 4.25323 20.0164 3.98364C19.7468 3.71406 19.381 3.5625 18.9998 3.5625H15.9998C15.6892 3.56237 15.4373 3.31058 15.4373 3C15.4373 2.68942 15.6892 2.43763 15.9998 2.4375H18.9998C19.6794 2.4375 20.3312 2.70767 20.8118 3.18823C21.2923 3.66879 21.5625 4.32063 21.5625 5.00024V8.00024C21.5624 8.31079 21.3106 8.56274 21 8.56274C20.6894 8.56274 20.4376 8.31079 20.4375 8.00024Z"/>
</svg>