<svg xmlns="http://www.w3.org/2000/svg" width="24" height="24" fill="currentcolor" class="icon-megaphone" viewBox="0 0 24 24">
  <path d="M15.1065 1.90766C16.5586 0.622559 18.8601 1.31057 19.3633 3.18501L22.6592 15.4643C23.1623 17.34 21.5124 19.0836 19.6123 18.6957L16.8916 18.1401C14.9994 17.7536 13.0656 17.6576 11.1553 17.8471L12.2247 21.8041C12.3325 22.2038 12.0959 22.6159 11.6963 22.7241C11.2966 22.8321 10.8846 22.5954 10.7764 22.1957L9.65727 18.0541C9.13232 18.1484 8.61008 18.2644 8.09282 18.4028C5.1941 19.1778 2.21323 17.453 1.43657 14.56C0.66004 11.6666 2.37822 8.68402 5.27739 7.90864C8.14974 7.14042 10.8036 5.71548 13.0284 3.74653L15.1065 1.90766ZM17.9141 3.57368C17.7005 2.77815 16.7197 2.48196 16.0997 3.03071L14.0225 4.86958C12.3986 6.30669 10.5622 7.47357 8.585 8.3354L10.7588 16.3803C12.899 16.1416 15.0702 16.2369 17.1924 16.6704L19.9122 17.226C20.7249 17.392 21.4237 16.6467 21.211 15.853L17.9141 3.57368ZM7.17973 8.88715C6.68153 9.06228 6.1762 9.22091 5.6641 9.35786C3.56682 9.91904 2.32389 12.0778 2.88578 14.1713C3.44812 16.2656 5.60792 17.5157 7.7061 16.9545C8.22176 16.8166 8.74184 16.7003 9.26469 16.603L7.17973 8.88715Z"/>
</svg>