<svg xmlns="http://www.w3.org/2000/svg" width="24" height="24" fill="currentcolor" class="icon-megaphone" viewBox="0 0 24 24">
  <path d="M15.1064 1.9079C16.5586 0.622795 18.8601 1.31081 19.3633 3.18524L22.6592 15.4645C23.1623 17.3402 21.5124 19.0838 19.6123 18.696L16.8916 18.1403C14.9994 17.7538 13.0655 17.6578 11.1553 17.8474L12.2246 21.8044C12.3324 22.204 12.0958 22.6161 11.6963 22.7243C11.2965 22.8323 10.8846 22.5956 10.7764 22.196L9.65723 18.0544C9.13227 18.1487 8.61004 18.2647 8.09277 18.403C5.19405 19.1781 2.21319 17.4532 1.43652 14.5602C0.659998 11.6668 2.37818 8.68426 5.27734 7.90887C8.1497 7.14066 10.8035 5.71572 13.0283 3.74677L15.1064 1.9079ZM17.9141 3.57391C17.7004 2.77839 16.7196 2.4822 16.0996 3.03094L14.0225 4.86981C12.3986 6.30693 10.5622 7.47381 8.58496 8.33563L10.7588 16.3806C12.899 16.1419 15.0701 16.2371 17.1924 16.6706L19.9121 17.2263C20.7249 17.3922 21.4237 16.647 21.2109 15.8532L17.9141 3.57391ZM7.17969 8.88739C6.68148 9.06252 6.17615 9.22114 5.66406 9.35809C3.56677 9.91927 2.32385 12.078 2.88574 14.1716C3.44808 16.2658 5.60787 17.5159 7.70605 16.9548C8.22172 16.8169 8.7418 16.7006 9.26465 16.6032L7.17969 8.88739Z"/>
</svg>