<svg xmlns="http://www.w3.org/2000/svg" width="24" height="24" fill="currentcolor" class="icon-megaphone" viewBox="0 0 24 24">
  <path d="M15.1064 1.9079C16.5585 0.622795 18.86 1.31081 19.3632 3.18524L22.6591 15.4645C23.1622 17.3402 21.5123 19.0838 19.6122 18.696L16.8915 18.1403C14.9993 17.7538 13.0655 17.6578 11.1552 17.8474L12.2245 21.8044C12.3324 22.204 12.0958 22.6161 11.6962 22.7243C11.2965 22.8323 10.8845 22.5956 10.7763 22.196L9.65717 18.0544C9.13221 18.1487 8.60998 18.2647 8.09271 18.403C5.19399 19.1781 2.21313 17.4532 1.43646 14.5602C0.659937 11.6668 2.37812 8.68426 5.27728 7.90887C8.14964 7.14066 10.8035 5.71572 13.0283 3.74677L15.1064 1.9079ZM17.914 3.57391C17.7004 2.77839 16.7196 2.4822 16.0995 3.03094L14.0224 4.86981C12.3985 6.30693 10.5621 7.47381 8.5849 8.33563L10.7587 16.3806C12.8989 16.1419 15.0701 16.2371 17.1923 16.6706L19.912 17.2263C20.7248 17.3922 21.4236 16.647 21.2109 15.8532L17.914 3.57391ZM7.17963 8.88739C6.68142 9.06252 6.17609 9.22114 5.664 9.35809C3.56671 9.91927 2.32379 12.078 2.88568 14.1716C3.44802 16.2658 5.60781 17.5159 7.70599 16.9548C8.22166 16.8169 8.74174 16.7006 9.26459 16.6032L7.17963 8.88739Z"/>
</svg>