<svg xmlns="http://www.w3.org/2000/svg" width="24" height="24" fill="currentcolor" class="icon-meh" viewBox="0 0 24 24">
  <path d="M21.4377 11.9998C21.4376 6.78768 17.2119 2.5625 11.9998 2.5625C6.78776 2.56263 2.56263 6.78776 2.5625 11.9998C2.5625 17.2119 6.78768 21.4376 11.9998 21.4377C17.2119 21.4377 21.4377 17.2119 21.4377 11.9998ZM16.0002 14.4373C16.3107 14.4374 16.5626 14.6893 16.5627 14.9998C16.5627 15.3103 16.3108 15.5621 16.0002 15.5623H8C7.68934 15.5623 7.4375 15.3104 7.4375 14.9998C7.43763 14.6892 7.68942 14.4373 8 14.4373H16.0002ZM9.01001 8.43726C9.32058 8.43726 9.57238 8.68921 9.57251 8.99976C9.57251 9.31041 9.32067 9.56225 9.01001 9.56226H8.99976C8.68921 9.56212 8.43726 9.31033 8.43726 8.99976C8.43739 8.68929 8.68929 8.43739 8.99976 8.43726H9.01001ZM15.01 8.43726C15.3206 8.43726 15.5724 8.68921 15.5725 8.99976C15.5725 9.31041 15.3207 9.56225 15.01 9.56226H14.9998C14.6892 9.56212 14.4373 9.31033 14.4373 8.99976C14.4374 8.68929 14.6893 8.43739 14.9998 8.43726H15.01ZM22.5627 11.9998C22.5627 17.8333 17.8333 22.5627 11.9998 22.5627C6.16636 22.5626 1.4375 17.8332 1.4375 11.9998C1.43763 6.16644 6.16644 1.43763 11.9998 1.4375C17.8332 1.4375 22.5626 6.16636 22.5627 11.9998Z"/>
</svg>