<svg xmlns="http://www.w3.org/2000/svg" width="24" height="24" fill="currentcolor" class="icon-menu" viewBox="0 0 24 24">
  <path d="M21 17.4375C21.3107 17.4375 21.5625 17.6893 21.5625 18C21.5625 18.3107 21.3107 18.5625 21 18.5625H3C2.68934 18.5625 2.4375 18.3107 2.4375 18C2.4375 17.6893 2.68934 17.4375 3 17.4375H21ZM21 11.4375C21.3107 11.4375 21.5625 11.6893 21.5625 12C21.5625 12.3107 21.3107 12.5625 21 12.5625H3C2.68934 12.5625 2.4375 12.3107 2.4375 12C2.4375 11.6893 2.68934 11.4375 3 11.4375H21ZM21 5.4375C21.3107 5.4375 21.5625 5.68934 21.5625 6C21.5625 6.31066 21.3107 6.5625 21 6.5625H3C2.68934 6.5625 2.4375 6.31066 2.4375 6C2.4375 5.68934 2.68934 5.4375 3 5.4375H21Z"/>
</svg>