<svg xmlns="http://www.w3.org/2000/svg" width="24" height="24" fill="currentcolor" class="icon-message-circle" viewBox="0 0 24 24">
  <path d="M12.9995 2.4375L13.031 2.43823C15.2535 2.56091 17.3531 3.49954 18.927 5.07349C20.5007 6.64739 21.4388 8.74641 21.5615 10.9688C21.5621 10.9791 21.5623 10.9899 21.5623 11.0002V11.4983L21.5593 11.7627C21.5238 13.0804 21.1973 14.3752 20.6021 15.5537L20.6013 15.553C19.849 17.0573 18.6935 18.3231 17.2629 19.2078C15.8321 20.0926 14.1831 20.5612 12.5007 20.562C11.1715 20.5654 9.85935 20.2726 8.65918 19.7058L3.17773 21.5339C2.97561 21.6013 2.75271 21.5484 2.60205 21.3977C2.45141 21.247 2.39845 21.0241 2.46582 20.822L4.29321 15.3398C3.72661 14.1398 3.43355 12.8274 3.43701 11.4983C3.43794 9.81617 3.90726 8.16749 4.79199 6.73682C5.67662 5.30636 6.94181 4.14999 8.44605 3.39771C9.70287 2.76288 11.092 2.43475 12.5 2.43823V2.4375H12.9995ZM12.4985 3.5625C11.2674 3.55929 10.0526 3.84683 8.95361 4.40186L8.95142 4.40332C7.6331 5.0622 6.52371 6.07514 5.74854 7.32861C4.97348 8.58202 4.56258 10.0268 4.56201 11.5005V11.5012C4.5588 12.7324 4.84701 13.9471 5.4021 15.0461C5.46972 15.18 5.48102 15.336 5.43359 15.4783L3.88892 20.1101L8.52222 18.5662L8.63062 18.542C8.74057 18.5284 8.85324 18.547 8.95361 18.5977C10.0526 19.1528 11.2673 19.441 12.4985 19.4377H12.4993C13.973 19.4372 15.4177 19.0263 16.6711 18.2512C17.9246 17.476 18.9376 16.3667 19.5964 15.0483L19.5979 15.0461C20.1529 13.9472 20.4405 12.7324 20.4373 11.5012V11.0215C20.3277 9.07893 19.5068 7.24483 18.1309 5.8689C16.7549 4.49297 14.9208 3.67201 12.9783 3.5625H12.4985Z"/>
</svg>