<svg xmlns="http://www.w3.org/2000/svg" width="24" height="24" fill="currentcolor" class="icon-message-circle" viewBox="0 0 24 24">
  <path d="M12.9998 2.4375L13.0313 2.43823C15.2538 2.56091 17.3533 3.49954 18.9272 5.07349C20.501 6.64739 21.4391 8.74641 21.5618 10.9688C21.5623 10.9791 21.5625 10.9899 21.5625 11.0002V11.4983L21.5596 11.7627C21.5241 13.0804 21.1976 14.3752 20.6023 15.5537L20.6016 15.553C19.8493 17.0573 18.6937 18.3231 17.2632 19.2078C15.8323 20.0926 14.1834 20.5612 12.501 20.562C11.1717 20.5654 9.85959 20.2726 8.65942 19.7058L3.17798 21.5339C2.97585 21.6013 2.75295 21.5484 2.6023 21.3977C2.45165 21.247 2.39869 21.0241 2.46606 20.822L4.29346 15.3398C3.72685 14.1398 3.43379 12.8274 3.43726 11.4983C3.43819 9.81617 3.9075 8.16749 4.79224 6.73682C5.67686 5.30636 6.94205 4.14999 8.44629 3.39771C9.70312 2.76288 11.0922 2.43475 12.5002 2.43823V2.4375H12.9998ZM12.4988 3.5625C11.2676 3.55929 10.0528 3.84683 8.95386 4.40186L8.95166 4.40332C7.63334 5.0622 6.52395 6.07514 5.74878 7.32861C4.97372 8.58202 4.56283 10.0268 4.56226 11.5005V11.5012C4.55905 12.7324 4.84726 13.9471 5.40234 15.0461C5.46996 15.18 5.48127 15.336 5.43384 15.4783L3.88916 20.1101L8.52246 18.5662L8.63086 18.542C8.74082 18.5284 8.85348 18.547 8.95386 18.5977C10.0529 19.1528 11.2675 19.441 12.4988 19.4377H12.4995C13.9732 19.4372 15.418 19.0263 16.6714 18.2512C17.9249 17.476 18.9378 16.3667 19.5967 15.0483L19.5981 15.0461C20.1532 13.9472 20.4407 12.7324 20.4375 11.5012V11.0215C20.328 9.07893 19.507 7.24483 18.1311 5.8689C16.7552 4.49297 14.9211 3.67201 12.9785 3.5625H12.4988Z"/>
</svg>