<svg xmlns="http://www.w3.org/2000/svg" width="24" height="24" fill="currentcolor" class="icon-message-square" viewBox="0 0 24 24">
  <path d="M20.4375 5.00024C20.4375 4.619 20.2859 4.25323 20.0164 3.98364C19.7468 3.71406 19.381 3.5625 18.9998 3.5625H5.00024C4.619 3.5625 4.25323 3.71406 3.98364 3.98364C3.71406 4.25323 3.5625 4.619 3.5625 5.00024V19.6421L6.60205 16.6025L6.68774 16.5322C6.77946 16.471 6.88786 16.4378 6.99976 16.4377H18.9998C19.3809 16.4377 19.7468 16.2861 20.0164 16.0166C20.2859 15.747 20.4375 15.3812 20.4375 15V5.00024ZM21.5625 15C21.5625 15.6796 21.2923 16.3315 20.8118 16.812C20.3312 17.2925 19.6793 17.5627 18.9998 17.5627H7.23267L3.39771 21.3977C3.23685 21.5586 2.99485 21.6071 2.78467 21.52C2.57448 21.433 2.4375 21.2275 2.4375 21V5.00024C2.4375 4.32063 2.70767 3.66879 3.18823 3.18823C3.66879 2.70767 4.32063 2.4375 5.00024 2.4375H18.9998C19.6794 2.4375 20.3312 2.70767 20.8118 3.18823C21.2923 3.66879 21.5625 4.32063 21.5625 5.00024V15Z"/>
</svg>