<svg xmlns="http://www.w3.org/2000/svg" width="24" height="24" fill="currentcolor" class="icon-message-circle" viewBox="0 0 24 24">
  <path d="M13 2.4375L13.0315 2.43823C15.254 2.56091 17.3535 3.49954 18.9275 5.07349C20.5012 6.64739 21.4393 8.74641 21.562 10.9688C21.5626 10.9791 21.5627 10.9899 21.5627 11.0002V11.4983L21.5598 11.7627C21.5243 13.0804 21.1978 14.3752 20.6025 15.5537L20.6018 15.553C19.8495 17.0573 18.694 18.3231 17.2634 19.2078C15.8325 20.0926 14.1836 20.5612 12.5012 20.562C11.172 20.5654 9.85984 20.2726 8.65967 19.7058L3.17822 21.5339C2.9761 21.6013 2.75319 21.5484 2.60254 21.3977C2.45189 21.247 2.39894 21.0241 2.46631 20.822L4.2937 15.3398C3.7271 14.1398 3.43404 12.8274 3.4375 11.4983C3.43843 9.81617 3.90775 8.16749 4.79248 6.73682C5.6771 5.30636 6.9423 4.14999 8.44653 3.39771C9.70336 2.76288 11.0924 2.43475 12.5005 2.43823V2.4375H13ZM12.499 3.5625C11.2679 3.55929 10.0531 3.84683 8.9541 4.40186L8.9519 4.40332C7.63358 5.0622 6.5242 6.07514 5.74902 7.32861C4.97396 8.58202 4.56307 10.0268 4.5625 11.5005V11.5012C4.55929 12.7324 4.8475 13.9471 5.40259 15.0461C5.47021 15.18 5.48151 15.336 5.43408 15.4783L3.8894 20.1101L8.52271 18.5662L8.6311 18.542C8.74106 18.5284 8.85373 18.547 8.9541 18.5977C10.0531 19.1528 11.2678 19.441 12.499 19.4377H12.4998C13.9734 19.4372 15.4182 19.0263 16.6716 18.2512C17.9251 17.476 18.938 16.3667 19.5969 15.0483L19.5984 15.0461C20.1534 13.9472 20.441 12.7324 20.4377 11.5012V11.0215C20.3282 9.07893 19.5073 7.24483 18.1313 5.8689C16.7554 4.49297 14.9213 3.67201 12.9788 3.5625H12.499Z"/>
</svg>