<svg xmlns="http://www.w3.org/2000/svg" width="24" height="24" fill="currentcolor" class="icon-mic-off" viewBox="0 0 24 24">
  <g clip-path="url(#a)">
    <path d="M0.60229 0.602187C0.821949 0.382579 1.17804 0.382579 1.3977 0.602187L17.2385 16.443C17.2941 16.4692 17.3474 16.5031 17.3938 16.5485C17.4431 16.5968 17.4796 16.6528 17.5073 16.7118L23.3975 22.6019C23.6171 22.8216 23.6171 23.1784 23.3975 23.3981C23.1778 23.6174 22.8216 23.6176 22.602 23.3981L16.9609 17.757C15.9813 18.6088 14.7969 19.1978 13.5185 19.4599C13.202 19.5248 12.8826 19.5671 12.5627 19.591V22.4371H16C16.3105 22.4371 16.5623 22.6891 16.5625 22.9996C16.5625 23.3103 16.3107 23.5621 16 23.5621H7.99975C7.6892 23.562 7.43725 23.3102 7.43725 22.9996C7.43743 22.6892 7.68931 22.4373 7.99975 22.4371H11.4377V19.591C10.6439 19.5318 9.85991 19.3493 9.11596 19.0424C7.7228 18.4677 6.53281 17.4898 5.69921 16.2343C4.86569 14.9788 4.42623 13.5027 4.43725 11.9957V9.99989C4.4373 9.68936 4.68923 9.43752 4.99975 9.43739C5.31038 9.43739 5.5622 9.68927 5.56225 9.99989V12.0038C5.55287 13.2865 5.92723 14.543 6.63671 15.6117C7.3463 16.6804 8.35925 17.5131 9.54516 18.0023C10.2581 18.2964 11.0142 18.4571 11.7769 18.4835C11.8453 18.4539 11.921 18.4374 12.0002 18.4374C12.0796 18.4374 12.1552 18.4539 12.2236 18.4835C12.5813 18.4711 12.9392 18.4301 13.293 18.3576C14.3554 18.1397 15.3411 17.6562 16.1633 16.9586L14.0869 14.8829C13.6733 15.1821 13.1988 15.3913 12.6938 15.4916C12.0033 15.6287 11.2877 15.558 10.6372 15.2887C9.98675 15.0194 9.43054 14.5635 9.03906 13.9784C8.64756 13.3931 8.43836 12.7043 8.43774 12.0001V9.23305L0.60229 1.3976C0.382667 1.17792 0.382636 0.821842 0.60229 0.602187ZM9.56274 11.9994L9.56933 12.1796C9.60069 12.5979 9.73926 13.0025 9.97363 13.3529C10.2414 13.7532 10.6222 14.0651 11.0671 14.2494C11.5123 14.4337 12.0023 14.4817 12.4748 14.3878C12.7602 14.3311 13.0308 14.223 13.2761 14.0722L9.56274 10.358V11.9994ZM18.4375 9.99989C18.4375 9.68927 18.6894 9.43739 19 9.43739C19.3106 9.43739 19.5624 9.68927 19.5625 9.99989V12.0001L19.5552 12.3341C19.5401 12.6678 19.5029 13.0004 19.4438 13.3295C19.3889 13.6352 19.0963 13.8384 18.7905 13.7836C18.4849 13.7287 18.2818 13.4366 18.3364 13.131C18.4034 12.7579 18.4371 12.3792 18.4375 12.0001V9.99989ZM14.4377 9.33998V3.99916C14.4383 3.39478 14.2137 2.81146 13.8086 2.36293C13.4035 1.91452 12.8461 1.63265 12.2449 1.57191C11.6435 1.51119 11.0411 1.67631 10.5544 2.0348C10.0678 2.39332 9.73136 2.91975 9.61108 3.5121C9.54918 3.81635 9.25253 4.01321 8.94824 3.95155C8.64379 3.88973 8.44696 3.59243 8.50878 3.28798C8.6846 2.42221 9.17592 1.65276 9.8872 1.1288C10.5984 0.604893 11.4788 0.364081 12.3577 0.452773C13.2366 0.541557 14.0514 0.953668 14.6435 1.60927C15.2356 2.26475 15.5635 3.11666 15.5627 3.99989V9.33998C15.5627 9.65056 15.3108 9.90235 15.0002 9.90248C14.6896 9.90248 14.4377 9.65064 14.4377 9.33998Z"/>
  </g>
  <defs>
    <clipPath id="a">
      <path d="M0 0H24V24H0z"/>
    </clipPath>
  </defs>
</svg>