<svg xmlns="http://www.w3.org/2000/svg" width="24" height="24" fill="currentcolor" class="icon-mic-off" viewBox="0 0 24 24">
  <g clip-path="url(#a)">
    <path d="M0.602229 0.602248C0.821888 0.38264 1.17798 0.38264 1.39764 0.602248L17.2385 16.4431C17.294 16.4692 17.3474 16.5031 17.3937 16.5485C17.443 16.5969 17.4796 16.6529 17.5073 16.7119L23.3974 22.602C23.6171 22.8217 23.6171 23.1785 23.3974 23.3981C23.1777 23.6175 22.8216 23.6176 22.602 23.3981L16.9609 17.757C15.9812 18.6088 14.7969 19.1978 13.5185 19.4599C13.2019 19.5248 12.8825 19.5671 12.5627 19.591V22.4372H15.9999C16.3105 22.4372 16.5623 22.6892 16.5624 22.9997C16.5624 23.3104 16.3106 23.5622 15.9999 23.5622H7.99969C7.68914 23.5621 7.43719 23.3103 7.43719 22.9997C7.43737 22.6893 7.68925 22.4373 7.99969 22.4372H11.4377V19.591C10.6439 19.5318 9.85985 19.3493 9.1159 19.0424C7.72274 18.4678 6.53275 17.4898 5.69915 16.2343C4.86563 14.9789 4.42617 13.5027 4.43719 11.9958V9.99995C4.43724 9.68942 4.68917 9.43758 4.99969 9.43745C5.31032 9.43745 5.56214 9.68934 5.56219 9.99995V12.0039C5.55281 13.2866 5.92717 14.5431 6.63665 15.6118C7.34624 16.6805 8.35919 17.5132 9.5451 18.0024C10.2581 18.2965 11.0141 18.4572 11.7768 18.4836C11.8452 18.454 11.9209 18.4375 12.0002 18.4375C12.0795 18.4375 12.1551 18.4539 12.2236 18.4836C12.5812 18.4712 12.9392 18.4301 13.2929 18.3576C14.3553 18.1398 15.3411 17.6563 16.1633 16.9587L14.0868 14.883C13.6732 15.1821 13.1988 15.3913 12.6938 15.4917C12.0032 15.6288 11.2876 15.5581 10.6371 15.2888C9.98669 15.0194 9.43048 14.5636 9.039 13.9785C8.6475 13.3932 8.4383 12.7043 8.43768 12.0002V9.23311L0.602229 1.39766C0.382606 1.17798 0.382575 0.821903 0.602229 0.602248ZM9.56268 11.9995L9.56927 12.1796C9.60063 12.598 9.7392 13.0026 9.97357 13.353C10.2414 13.7533 10.6221 14.0651 11.0671 14.2495C11.5122 14.4338 12.0023 14.4818 12.4748 14.3879C12.7602 14.3312 13.0308 14.2231 13.2761 14.0722L9.56268 10.3581V11.9995ZM18.4374 9.99995C18.4375 9.68934 18.6893 9.43745 18.9999 9.43745C19.3106 9.43745 19.5624 9.68934 19.5624 9.99995V12.0002L19.5551 12.3342C19.5401 12.6679 19.5028 13.0005 19.4438 13.3295C19.3889 13.6352 19.0962 13.8385 18.7905 13.7836C18.4849 13.7287 18.2817 13.4367 18.3364 13.1311C18.4033 12.7579 18.4371 12.3793 18.4374 12.0002V9.99995ZM14.4377 9.34004V3.99922C14.4382 3.39484 14.2136 2.81152 13.8085 2.36299C13.4034 1.91458 12.8461 1.63271 12.2448 1.57197C11.6434 1.51125 11.041 1.67637 10.5544 2.03487C10.0677 2.39338 9.7313 2.91981 9.61102 3.51216C9.54912 3.81641 9.25247 4.01327 8.94818 3.95161C8.64373 3.88979 8.4469 3.59249 8.50872 3.28804C8.68454 2.42227 9.17586 1.65282 9.88714 1.12886C10.5984 0.604954 11.4787 0.364142 12.3576 0.452834C13.2366 0.541618 14.0513 0.953729 14.6435 1.60933C15.2355 2.26481 15.5634 3.11672 15.5627 3.99995V9.34004C15.5627 9.65062 15.3107 9.90241 15.0002 9.90254C14.6895 9.90254 14.4377 9.6507 14.4377 9.34004Z"/>
  </g>
  <defs>
    <clipPath id="a">
      <path d="M0 0H24V24H0z"/>
    </clipPath>
  </defs>
</svg>