<svg xmlns="http://www.w3.org/2000/svg" width="24" height="24" fill="currentcolor" class="icon-mic-off" viewBox="0 0 24 24">
  <g clip-path="url(#a)">
    <path d="M0.602229 0.602187C0.821888 0.382579 1.17798 0.382579 1.39764 0.602187L17.2385 16.443C17.294 16.4692 17.3474 16.5031 17.3937 16.5485C17.443 16.5968 17.4796 16.6528 17.5073 16.7118L23.3974 22.6019C23.6171 22.8216 23.6171 23.1784 23.3974 23.3981C23.1777 23.6174 22.8216 23.6176 22.602 23.3981L16.9609 17.757C15.9812 18.6088 14.7969 19.1978 13.5185 19.4599C13.2019 19.5248 12.8825 19.5671 12.5627 19.591V22.4371H15.9999C16.3105 22.4371 16.5623 22.6891 16.5624 22.9996C16.5624 23.3103 16.3106 23.5621 15.9999 23.5621H7.99969C7.68914 23.562 7.43719 23.3102 7.43719 22.9996C7.43737 22.6892 7.68925 22.4373 7.99969 22.4371H11.4377V19.591C10.6439 19.5318 9.85985 19.3493 9.1159 19.0424C7.72274 18.4677 6.53275 17.4898 5.69915 16.2343C4.86563 14.9788 4.42617 13.5027 4.43719 11.9957V9.99989C4.43724 9.68936 4.68917 9.43752 4.99969 9.43739C5.31032 9.43739 5.56214 9.68927 5.56219 9.99989V12.0038C5.55281 13.2865 5.92717 14.543 6.63665 15.6117C7.34624 16.6804 8.35919 17.5131 9.5451 18.0023C10.2581 18.2964 11.0141 18.4571 11.7768 18.4835C11.8452 18.4539 11.9209 18.4374 12.0002 18.4374C12.0795 18.4374 12.1551 18.4539 12.2236 18.4835C12.5812 18.4711 12.9392 18.4301 13.2929 18.3576C14.3553 18.1397 15.3411 17.6562 16.1633 16.9586L14.0868 14.8829C13.6732 15.1821 13.1988 15.3913 12.6938 15.4916C12.0032 15.6287 11.2876 15.558 10.6371 15.2887C9.98669 15.0194 9.43048 14.5635 9.039 13.9784C8.6475 13.3931 8.4383 12.7043 8.43768 12.0001V9.23305L0.602229 1.3976C0.382606 1.17792 0.382575 0.821842 0.602229 0.602187ZM9.56268 11.9994L9.56927 12.1796C9.60063 12.5979 9.7392 13.0025 9.97357 13.3529C10.2414 13.7532 10.6221 14.0651 11.0671 14.2494C11.5122 14.4337 12.0023 14.4817 12.4748 14.3878C12.7602 14.3311 13.0308 14.223 13.2761 14.0722L9.56268 10.358V11.9994ZM18.4374 9.99989C18.4375 9.68927 18.6893 9.43739 18.9999 9.43739C19.3106 9.43739 19.5624 9.68927 19.5624 9.99989V12.0001L19.5551 12.3341C19.5401 12.6678 19.5028 13.0004 19.4438 13.3295C19.3889 13.6352 19.0962 13.8384 18.7905 13.7836C18.4849 13.7287 18.2817 13.4366 18.3364 13.131C18.4033 12.7579 18.4371 12.3792 18.4374 12.0001V9.99989ZM14.4377 9.33998V3.99916C14.4382 3.39478 14.2136 2.81146 13.8085 2.36293C13.4034 1.91452 12.8461 1.63265 12.2448 1.57191C11.6434 1.51119 11.041 1.67631 10.5544 2.0348C10.0677 2.39332 9.7313 2.91975 9.61102 3.5121C9.54912 3.81635 9.25247 4.01321 8.94818 3.95155C8.64373 3.88973 8.4469 3.59243 8.50872 3.28798C8.68454 2.42221 9.17586 1.65276 9.88714 1.1288C10.5984 0.604893 11.4787 0.364081 12.3576 0.452773C13.2366 0.541557 14.0513 0.953668 14.6435 1.60927C15.2355 2.26475 15.5634 3.11666 15.5627 3.99989V9.33998C15.5627 9.65056 15.3107 9.90235 15.0002 9.90248C14.6895 9.90248 14.4377 9.65064 14.4377 9.33998Z"/>
  </g>
  <defs>
    <clipPath id="a">
      <path d="M0 0H24V24H0z"/>
    </clipPath>
  </defs>
</svg>