<svg xmlns="http://www.w3.org/2000/svg" width="24" height="24" fill="currentcolor" class="icon-mic" viewBox="0 0 24 24">
  <path d="M4.4375 12.0002V10C4.4375 9.68934 4.68934 9.4375 5 9.4375C5.31066 9.4375 5.5625 9.68934 5.5625 10V12.0002L5.57056 12.3196C5.64958 13.9106 6.31603 15.4205 7.44775 16.5522C8.65496 17.7595 10.2925 18.4374 11.9998 18.4375C13.707 18.4375 15.3445 17.7594 16.5518 16.5522C17.759 15.345 18.4377 13.7075 18.4377 12.0002V10C18.4377 9.68934 18.6896 9.4375 19.0002 9.4375C19.3108 9.43763 19.5627 9.68942 19.5627 10V12.0002C19.5627 14.0059 18.7654 15.9295 17.3472 17.3477C16.0621 18.6326 14.3621 19.4042 12.5623 19.5383V22.4373H16.0002C16.3107 22.4374 16.5626 22.6893 16.5627 22.9998C16.5627 23.3103 16.3108 23.5621 16.0002 23.5623H8C7.68934 23.5623 7.4375 23.3104 7.4375 22.9998C7.43763 22.6892 7.68942 22.4373 8 22.4373H11.4373V19.5383C9.63744 19.404 7.9373 18.6326 6.65234 17.3477C5.3228 16.0181 4.53981 14.2443 4.44702 12.3752L4.4375 12.0002ZM14.4373 4C14.4373 3.35365 14.1808 2.73371 13.7239 2.27661C13.2668 1.81949 12.6462 1.5625 11.9998 1.5625C11.3534 1.56256 10.7334 1.81955 10.2764 2.27661C9.81932 2.73372 9.56226 3.35359 9.56226 4V12.0002C9.56232 12.6466 9.81931 13.2666 10.2764 13.7236C10.7334 14.1807 11.3534 14.4377 11.9998 14.4377C12.6462 14.4377 13.2668 14.1808 13.7239 13.7236C14.1809 13.2666 14.4372 12.6466 14.4373 12.0002V4ZM15.5623 12.0002C15.5622 12.9449 15.1873 13.851 14.5193 14.519C13.8512 15.1871 12.9446 15.5627 11.9998 15.5627C11.055 15.5627 10.149 15.1871 9.48096 14.519C8.81292 13.851 8.43732 12.945 8.43726 12.0002V4C8.43726 3.05522 8.81293 2.14929 9.48096 1.4812C10.149 0.81316 11.055 0.437565 11.9998 0.4375C12.9446 0.4375 13.8512 0.813103 14.5193 1.4812C15.1872 2.14928 15.5623 3.05528 15.5623 4V12.0002Z"/>
</svg>