<svg xmlns="http://www.w3.org/2000/svg" width="24" height="24" fill="currentcolor" class="icon-minimize-2" viewBox="0 0 24 24">
  <path d="M20.6023 2.60231C20.822 2.38264 21.178 2.38264 21.3977 2.60231C21.6174 2.82198 21.6174 3.17805 21.3977 3.39772L15.3581 9.43727H20.0002C20.3107 9.43741 20.5626 9.68931 20.5627 9.99977C20.5627 10.3104 20.3108 10.5621 20.0002 10.5623H14.0002C13.6896 10.5623 13.4377 10.3104 13.4377 9.99977V3.99977C13.4379 3.68923 13.6897 3.43727 14.0002 3.43727C14.3107 3.43741 14.5626 3.68931 14.5627 3.99977V8.64186L20.6023 2.60231ZM10.5622 20.0003C10.5621 20.3108 10.3103 20.5628 9.99974 20.5628C9.68928 20.5626 9.43738 20.3107 9.43724 20.0003V15.3582L3.39769 21.3977C3.17802 21.6174 2.82195 21.6174 2.60228 21.3977C2.38261 21.1781 2.38261 20.822 2.60228 20.6023L8.64183 14.5628H3.99974C3.68928 14.5626 3.43738 14.3107 3.43724 14.0003C3.43724 13.6897 3.6892 13.4379 3.99974 13.4378H9.99974C10.3104 13.4378 10.5622 13.6896 10.5622 14.0003V20.0003Z"/>
</svg>