<svg xmlns="http://www.w3.org/2000/svg" width="24" height="24" fill="currentcolor" class="icon-minimize-2" viewBox="0 0 24 24">
  <path d="M20.6023 2.60231C20.8219 2.38264 21.178 2.38264 21.3977 2.60231C21.6173 2.82198 21.6173 3.17805 21.3977 3.39772L15.3581 9.43727H20.0002C20.3107 9.43741 20.5626 9.68931 20.5627 9.99977C20.5627 10.3104 20.3107 10.5621 20.0002 10.5623H14.0002C13.6895 10.5623 13.4377 10.3104 13.4377 9.99977V3.99977C13.4378 3.68923 13.6896 3.43727 14.0002 3.43727C14.3107 3.43741 14.5626 3.68931 14.5627 3.99977V8.64186L20.6023 2.60231ZM10.5622 20.0003C10.5621 20.3108 10.3103 20.5628 9.99971 20.5628C9.68925 20.5626 9.43735 20.3107 9.43721 20.0003V15.3582L3.39766 21.3977C3.17799 21.6174 2.82192 21.6174 2.60225 21.3977C2.38258 21.1781 2.38258 20.822 2.60225 20.6023L8.6418 14.5628H3.99971C3.68925 14.5626 3.43735 14.3107 3.43721 14.0003C3.43721 13.6897 3.68917 13.4379 3.99971 13.4378H9.99971C10.3104 13.4378 10.5622 13.6896 10.5622 14.0003V20.0003Z"/>
</svg>