<svg xmlns="http://www.w3.org/2000/svg" width="24" height="24" fill="currentcolor" class="icon-minimize" viewBox="0 0 24 24">
  <path d="M7.43774 21V18C7.43774 17.6188 7.28619 17.253 7.0166 16.9834C6.74702 16.7138 6.38125 16.5623 6 16.5623H3C2.68934 16.5623 2.4375 16.3104 2.4375 15.9998C2.43763 15.6892 2.68942 15.4373 3 15.4373H6C6.67962 15.4373 7.33145 15.7074 7.81201 16.188C8.29257 16.6686 8.56274 17.3204 8.56274 18V21C8.56274 21.3106 8.31079 21.5624 8.00024 21.5625C7.68958 21.5625 7.43774 21.3107 7.43774 21ZM15.4373 21V18C15.4373 17.3204 15.7074 16.6685 16.188 16.188C16.6685 15.7074 17.3204 15.4373 18 15.4373H21C21.3106 15.4373 21.5624 15.6892 21.5625 15.9998C21.5625 16.3104 21.3107 16.5623 21 16.5623H18C17.6188 16.5623 17.253 16.7138 16.9834 16.9834C16.7138 17.253 16.5623 17.6188 16.5623 18V21C16.5623 21.3107 16.3104 21.5625 15.9998 21.5625C15.6892 21.5624 15.4373 21.3106 15.4373 21ZM7.43774 6V3C7.43774 2.68934 7.68958 2.4375 8.00024 2.4375C8.31079 2.43763 8.56274 2.68942 8.56274 3V6C8.56274 6.67962 8.29257 7.33145 7.81201 7.81201C7.33145 8.29257 6.67962 8.56274 6 8.56274H3C2.68942 8.56274 2.43763 8.31079 2.4375 8.00024C2.4375 7.68958 2.68934 7.43774 3 7.43774H6C6.38125 7.43774 6.74702 7.28619 7.0166 7.0166C7.28619 6.74702 7.43774 6.38125 7.43774 6ZM15.4373 6V3C15.4373 2.68942 15.6892 2.43763 15.9998 2.4375C16.3104 2.4375 16.5623 2.68934 16.5623 3V6C16.5623 6.38125 16.7138 6.74702 16.9834 7.0166C17.253 7.28619 17.6188 7.43774 18 7.43774H21C21.3107 7.43774 21.5625 7.68958 21.5625 8.00024C21.5624 8.31079 21.3106 8.56274 21 8.56274H18C17.3204 8.56274 16.6686 8.29257 16.188 7.81201C15.7074 7.33145 15.4373 6.67962 15.4373 6Z"/>
</svg>