<svg xmlns="http://www.w3.org/2000/svg" width="24" height="24" fill="currentcolor" class="icon-money-bills" viewBox="0 0 24 24">
  <path d="M0.616211 8.82013C0.892353 8.82013 1.11621 9.04399 1.11621 9.32013V19.1815C1.11643 19.2855 1.20012 19.3699 1.30273 19.3699H20.1982C20.4742 19.3701 20.6982 19.5939 20.6982 19.8699V20.0027C20.6981 20.2786 20.4741 20.5025 20.1982 20.5027H1.30273C0.583619 20.5027 0.000221164 19.9111 0 19.1815V9.32013C0 9.04399 0.223858 8.82013 0.5 8.82013H0.616211ZM21.6982 5.49982C22.4172 5.50004 22.9998 6.09159 23 6.82111V16.1824C23 16.9121 22.4173 17.5035 21.6982 17.5037H4.30273C3.58348 17.5037 3 16.9123 3 16.1824V6.82111C3.00017 6.09145 3.58358 5.49982 4.30273 5.49982H21.6982ZM4.30273 6.63263C4.20009 6.63263 4.11638 6.717 4.11621 6.82111V16.1824C4.11621 16.2867 4.19998 16.3709 4.30273 16.3709H21.6982C21.8008 16.3707 21.8838 16.2866 21.8838 16.1824V6.82111C21.8836 6.71713 21.8007 6.63285 21.6982 6.63263H4.30273ZM13.001 8.49982C14.6574 8.5002 16.0009 9.84329 16.001 11.4998C16.001 13.1564 14.6575 14.4994 13.001 14.4998C11.3441 14.4998 10.001 13.1567 10.001 11.4998C10.0011 9.84305 11.3442 8.49982 13.001 8.49982ZM13.001 9.49982C11.8965 9.49982 11.0011 10.3953 11.001 11.4998C11.001 12.6044 11.8964 13.4998 13.001 13.4998C14.1052 13.4994 15.001 12.6041 15.001 11.4998C15.0009 10.3956 14.1052 9.5002 13.001 9.49982ZM6.29004 10.7899C6.67642 10.4037 7.30302 10.4037 7.68945 10.7899L7.70996 10.8104C8.09625 11.1965 8.09752 11.8232 7.71191 12.2098C7.32577 12.5962 6.69913 12.5965 6.3125 12.2108L6.29004 12.1893C5.90376 11.803 5.90404 11.1764 6.29004 10.7899ZM18.29 10.7899C18.6763 10.4038 19.3023 10.4037 19.6885 10.7899L19.7109 10.8104C20.0967 11.1965 20.0966 11.8236 19.7109 12.2098C19.3247 12.596 18.6968 12.596 18.3105 12.2098L18.29 12.1883C17.9038 11.8021 17.9039 11.1762 18.29 10.7899Z"/>
</svg>