<svg xmlns="http://www.w3.org/2000/svg" width="24" height="24" fill="currentcolor" class="icon-monitor" viewBox="0 0 24 24">
  <path d="M21.4377 5.00024C21.4377 4.25603 20.872 3.64354 20.1472 3.56982L20 3.5625H4.00024C3.20633 3.5625 2.5625 4.20633 2.5625 5.00024V15C2.5625 15.7939 3.20633 16.4377 4.00024 16.4377H20C20.7939 16.4377 21.4377 15.7939 21.4377 15V5.00024ZM22.5627 15C22.5627 16.4152 21.4152 17.5627 20 17.5627H12.5623V20.4375H16.0002C16.3108 20.4376 16.5627 20.6894 16.5627 21C16.5627 21.3106 16.3108 21.5624 16.0002 21.5625H8C7.68934 21.5625 7.4375 21.3107 7.4375 21C7.4375 20.6893 7.68934 20.4375 8 20.4375H11.4373V17.5627H4.00024C2.58501 17.5627 1.4375 16.4152 1.4375 15V5.00024C1.4375 3.58501 2.58501 2.4375 4.00024 2.4375H20L20.1318 2.44116C21.4858 2.50979 22.5627 3.62924 22.5627 5.00024V15Z"/>
</svg>