<svg xmlns="http://www.w3.org/2000/svg" width="24" height="24" fill="currentcolor" class="icon-moon" viewBox="0 0 24 24">
  <path d="M11.1586 2.43968C11.3792 2.41942 11.591 2.53084 11.6998 2.72386C11.8087 2.91701 11.7943 3.1564 11.6625 3.3347C10.7461 4.57459 10.3049 6.10234 10.4196 7.63987C10.5343 9.17737 11.197 10.6227 12.2872 11.7129C13.3775 12.8031 14.8227 13.4658 16.3602 13.5805C17.8978 13.6952 19.4255 13.254 20.6654 12.3376C20.8437 12.2058 21.0831 12.1914 21.2763 12.3003C21.4692 12.4091 21.5807 12.6209 21.5604 12.8415C21.3933 14.6501 20.7144 16.3741 19.6034 17.811C18.4924 19.2479 16.9948 20.3383 15.2865 20.9553C13.5784 21.5722 11.73 21.6903 9.95741 21.2951C8.18467 20.8999 6.56081 20.0079 5.2765 18.7236C3.99218 17.4393 3.10025 15.8155 2.70496 14.0427C2.30973 12.27 2.42779 10.4211 3.04481 8.71287C3.66187 7.00478 4.75232 5.50759 6.1891 4.39671C7.626 3.28575 9.34999 2.60682 11.1586 2.43968ZM10.0892 3.75218C8.92614 4.0283 7.83047 4.54991 6.87757 5.2866C5.60975 6.26684 4.64688 7.58795 4.10243 9.0952C3.55798 10.6025 3.45409 12.2339 3.80286 13.7981C4.15164 15.3623 4.93869 16.795 6.07191 17.9282C7.20512 19.0614 8.63785 19.8485 10.202 20.1972C11.7662 20.546 13.3977 20.4421 14.9049 19.8977C16.4121 19.3532 17.7333 18.3903 18.7135 17.1225C19.4503 16.1695 19.9711 15.0734 20.2472 13.9101C19.0271 14.5262 17.6556 14.8054 16.2767 14.7026C14.4705 14.5679 12.7726 13.7891 11.4918 12.5083C10.2111 11.2275 9.43222 9.52964 9.29749 7.72337C9.19466 6.34438 9.47307 4.97236 10.0892 3.75218Z"/>
</svg>