<svg xmlns="http://www.w3.org/2000/svg" width="24" height="24" fill="currentcolor" class="icon-moon" viewBox="0 0 24 24">
  <path d="M11.1588 2.43974C11.3794 2.41948 11.5912 2.5309 11.7 2.72392C11.8089 2.91707 11.7945 3.15646 11.6627 3.33476C10.7463 4.57465 10.3051 6.1024 10.4197 7.63994C10.5345 9.17743 11.1972 10.6227 12.2874 11.7129C13.3776 12.8031 14.8229 13.4659 16.3604 13.5806C17.898 13.6953 19.4257 13.2541 20.6656 12.3377C20.8439 12.2059 21.0833 12.1915 21.2764 12.3003C21.4694 12.4092 21.5809 12.621 21.5606 12.8416C21.3935 14.6502 20.7145 16.3742 19.6036 17.8111C18.4926 19.248 16.9949 20.3383 15.2867 20.9554C13.5786 21.5723 11.7302 21.6904 9.95759 21.2952C8.18485 20.8999 6.56099 20.008 5.27668 18.7237C3.99236 17.4394 3.10043 15.8155 2.70515 14.0428C2.30991 12.2701 2.42797 10.4212 3.04499 8.71293C3.66205 7.00484 4.7525 5.50765 6.18928 4.39677C7.62618 3.28581 9.35017 2.60688 11.1588 2.43974ZM10.0894 3.75224C8.92632 4.02837 7.83065 4.54997 6.87775 5.28666C5.60993 6.2669 4.64706 7.58801 4.10261 9.09526C3.55816 10.6026 3.45427 12.2339 3.80305 13.7981C4.15183 15.3623 4.93887 16.795 6.07209 17.9283C7.2053 19.0615 8.63804 19.8485 10.2022 20.1973C11.7664 20.5461 13.3978 20.4422 14.9051 19.8977C16.4123 19.3533 17.7335 18.3904 18.7137 17.1226C19.4505 16.1696 19.9713 15.0735 20.2474 13.9102C19.0273 14.5263 17.6558 14.8055 16.2769 14.7027C14.4706 14.568 12.7728 13.7891 11.492 12.5083C10.2112 11.2276 9.43241 9.5297 9.29768 7.72343C9.19484 6.34444 9.47325 4.97242 10.0894 3.75224Z"/>
</svg>