<svg xmlns="http://www.w3.org/2000/svg" width="24" height="24" fill="currentcolor" class="icon-moon" viewBox="0 0 24 24">
  <path d="M11.1583 2.43974C11.3789 2.41948 11.5907 2.5309 11.6995 2.72392C11.8084 2.91707 11.794 3.15646 11.6622 3.33476C10.7458 4.57465 10.3046 6.1024 10.4193 7.63994C10.534 9.17743 11.1967 10.6227 12.2869 11.7129C13.3772 12.8031 14.8224 13.4659 16.3599 13.5806C17.8975 13.6953 19.4252 13.2541 20.6651 12.3377C20.8434 12.2059 21.0828 12.1915 21.2759 12.3003C21.4689 12.4092 21.5804 12.621 21.5601 12.8416C21.393 14.6502 20.7141 16.3742 19.6031 17.8111C18.4921 19.248 16.9945 20.3383 15.2862 20.9554C13.5781 21.5723 11.7297 21.6904 9.9571 21.2952C8.18436 20.8999 6.5605 20.008 5.27619 18.7237C3.99188 17.4394 3.09994 15.8155 2.70466 14.0428C2.30942 12.2701 2.42748 10.4212 3.0445 8.71293C3.66156 7.00484 4.75202 5.50765 6.18879 4.39677C7.6257 3.28581 9.34968 2.60688 11.1583 2.43974ZM10.0889 3.75224C8.92583 4.02837 7.83016 4.54997 6.87727 5.28666C5.60944 6.2669 4.64658 7.58801 4.10212 9.09526C3.55767 10.6026 3.45378 12.2339 3.80256 13.7981C4.15134 15.3623 4.93838 16.795 6.0716 17.9283C7.20482 19.0615 8.63755 19.8485 10.2017 20.1973C11.7659 20.5461 13.3973 20.4422 14.9046 19.8977C16.4118 19.3533 17.733 18.3904 18.7132 17.1226C19.45 16.1696 19.9708 15.0735 20.2469 13.9102C19.0268 14.5263 17.6553 14.8055 16.2764 14.7027C14.4702 14.568 12.7723 13.7891 11.4915 12.5083C10.2107 11.2276 9.43192 9.5297 9.29719 7.72343C9.19435 6.34444 9.47277 4.97242 10.0889 3.75224Z"/>
</svg>