<svg xmlns="http://www.w3.org/2000/svg" width="24" height="24" fill="currentcolor" class="icon-more-vertical" viewBox="0 0 24 24">
  <g clip-path="url(#a)">
    <path d="M11.8125 20.0625C11.1912 20.0625 10.6875 19.5588 10.6875 18.9375C10.6875 18.3162 11.1912 17.8125 11.8125 17.8125C12.4338 17.8125 12.9375 18.3162 12.9375 18.9375C12.9375 19.5588 12.4338 20.0625 11.8125 20.0625ZM11.8125 13.0627C11.1913 13.0627 10.6876 12.559 10.6875 11.9377C10.6875 11.3164 11.1912 10.8127 11.8125 10.8127C12.4338 10.8127 12.9375 11.3164 12.9375 11.9377C12.9374 12.559 12.4337 13.0627 11.8125 13.0627ZM11.8125 6.06226C11.1912 6.06226 10.6875 5.55858 10.6875 4.93726C10.6876 4.31605 11.1913 3.81226 11.8125 3.81226C12.4337 3.81226 12.9374 4.31605 12.9375 4.93726C12.9375 5.55858 12.4338 6.06226 11.8125 6.06226Z"/>
    <path d="M0 0H24V24H0z"/>
  </g>
  <defs>
    <clipPath id="a">
      <path d="M0 0H24V24H0z"/>
    </clipPath>
  </defs>
</svg>