<svg xmlns="http://www.w3.org/2000/svg" width="24" height="24" fill="currentcolor" class="icon-more-horizontal" viewBox="0 0 24 24">
  <g clip-path="url(#a)">
    <path d="M3.4375 11.5625C3.4375 10.9412 3.94118 10.4375 4.5625 10.4375C5.18382 10.4375 5.6875 10.9412 5.6875 11.5625C5.6875 12.1838 5.18382 12.6875 4.5625 12.6875C3.94118 12.6875 3.4375 12.1838 3.4375 11.5625ZM10.4373 11.5625C10.4373 10.9413 10.941 10.4376 11.5623 10.4375C12.1836 10.4375 12.6873 10.9412 12.6873 11.5625C12.6873 12.1838 12.1836 12.6875 11.5623 12.6875C10.941 12.6874 10.4373 12.1837 10.4373 11.5625ZM17.4377 11.5625C17.4377 10.9412 17.9414 10.4375 18.5627 10.4375C19.184 10.4376 19.6877 10.9413 19.6877 11.5625C19.6877 12.1837 19.184 12.6874 18.5627 12.6875C17.9414 12.6875 17.4377 12.1838 17.4377 11.5625Z"/>
    <path d="M0 0H24V24H0z"/>
  </g>
  <defs>
    <clipPath id="a">
      <path d="M0 0H24V24H0z"/>
    </clipPath>
  </defs>
</svg>