<svg xmlns="http://www.w3.org/2000/svg" width="24" height="24" fill="currentcolor" class="icon-more-vertical" viewBox="0 0 24 24">
  <path d="M12.3751 11.9375C12.3751 11.6268 12.1232 11.375 11.8126 11.375 11.5019 11.375 11.2501 11.6268 11.2501 11.9375 11.2501 12.2482 11.5019 12.5 11.8126 12.5 12.1232 12.5 12.3751 12.2482 12.3751 11.9375ZM12.3751 4.9375C12.3751 4.62684 12.1232 4.375 11.8126 4.375 11.5019 4.375 11.2501 4.62684 11.2501 4.9375 11.2501 5.24816 11.5019 5.5 11.8126 5.5 12.1232 5.5 12.3751 5.24816 12.3751 4.9375ZM12.3751 18.9375C12.3751 18.6268 12.1232 18.375 11.8126 18.375 11.5019 18.375 11.2501 18.6268 11.2501 18.9375 11.2501 19.2482 11.5019 19.5 11.8126 19.5 12.1232 19.5 12.3751 19.2482 12.3751 18.9375Z"/>
  <path d="M11.8126 20.0625C11.1912 20.0625 10.6876 19.5588 10.6876 18.9375C10.6876 18.3162 11.1912 17.8125 11.8126 17.8125C12.4339 17.8125 12.9376 18.3162 12.9376 18.9375C12.9376 19.5588 12.4339 20.0625 11.8126 20.0625ZM11.8126 13.0627C11.1913 13.0627 10.6877 12.559 10.6876 11.9377C10.6876 11.3164 11.1912 10.8127 11.8126 10.8127C12.4339 10.8127 12.9376 11.3164 12.9376 11.9377C12.9374 12.559 12.4338 13.0627 11.8126 13.0627ZM11.8126 6.06226C11.1912 6.06226 10.6876 5.55858 10.6876 4.93726C10.6877 4.31605 11.1913 3.81226 11.8126 3.81226C12.4338 3.81226 12.9374 4.31605 12.9376 4.93726C12.9376 5.55858 12.4339 6.06226 11.8126 6.06226Z"/>
</svg>