<svg xmlns="http://www.w3.org/2000/svg" width="24" height="24" fill="currentcolor" class="icon-mouse-pointer" viewBox="0 0 24 24">
  <path d="M2.60226 2.60226C2.76337 2.44115 3.00569 2.39316 3.21603 2.48068L20.1862 9.55075C20.4022 9.64074 20.5398 9.85521 20.5319 10.0891C20.524 10.3228 20.3725 10.5272 20.1511 10.6025L13.6164 12.821L19.3974 18.602C19.6171 18.8217 19.6171 19.1778 19.3974 19.3974C19.1778 19.6171 18.8217 19.6171 18.602 19.3974L12.821 13.6164L10.6025 20.1511C10.5272 20.3725 10.3228 20.524 10.0891 20.5319C9.85521 20.5398 9.64074 20.4022 9.55075 20.1862L2.48068 3.21603C2.39316 3.00569 2.44115 2.76337 2.60226 2.60226ZM10.0166 18.3786L12.0476 12.3991L12.0717 12.3391C12.1365 12.2024 12.2542 12.0968 12.3991 12.0476L18.3786 10.0166L4.0444 4.0444L10.0166 18.3786Z"/>
</svg>