<svg xmlns="http://www.w3.org/2000/svg" width="24" height="24" fill="currentcolor" class="icon-mouse-pointer" viewBox="0 0 24 24">
  <path d="M2.60232 2.60232C2.76343 2.44121 3.00575 2.39322 3.21609 2.48074L20.1863 9.55081C20.4023 9.6408 20.5399 9.85527 20.532 10.0891C20.5241 10.3228 20.3725 10.5273 20.1512 10.6026L13.6165 12.8211L19.3975 18.6021C19.6172 18.8217 19.6172 19.1778 19.3975 19.3975C19.1778 19.6172 18.8217 19.6172 18.6021 19.3975L12.8211 13.6165L10.6026 20.1512C10.5273 20.3725 10.3228 20.5241 10.0891 20.532C9.85527 20.5399 9.6408 20.4023 9.55081 20.1863L2.48074 3.21609C2.39322 3.00575 2.44121 2.76343 2.60232 2.60232ZM10.0166 18.3787L12.0476 12.3992L12.0718 12.3391C12.1366 12.2025 12.2543 12.0969 12.3992 12.0476L18.3787 10.0166L4.04446 4.04446L10.0166 18.3787Z"/>
</svg>