<svg xmlns="http://www.w3.org/2000/svg" width="24" height="24" fill="currentcolor" class="icon-move" viewBox="0 0 24 24">
  <path d="M11.6021 1.60231C11.8217 1.38268 12.1778 1.38277 12.3975 1.60231L15.3975 4.60231C15.6171 4.82198 15.6171 5.17805 15.3975 5.39772C15.1778 5.61727 14.8217 5.61735 14.6021 5.39772L12.5623 3.35793V11.4373H20.6424L18.6026 9.39748C18.3829 9.17781 18.3829 8.82174 18.6026 8.60207C18.8222 8.38264 19.1784 8.38248 19.398 8.60207L22.398 11.6021C22.6176 11.8217 22.6174 12.1778 22.398 12.3975L19.398 15.3975C19.1783 15.6171 18.8222 15.6171 18.6026 15.3975C18.3829 15.1778 18.3829 14.8217 18.6026 14.6021L20.6424 12.5623H12.5623V20.6424L14.6021 18.6026C14.8217 18.3829 15.1778 18.3829 15.3975 18.6026C15.6171 18.8222 15.6171 19.1783 15.3975 19.398L12.3975 22.398C12.1778 22.6174 11.8217 22.6176 11.6021 22.398L8.60207 19.398C8.38248 19.1784 8.38264 18.8222 8.60207 18.6026C8.82174 18.3829 9.17781 18.3829 9.39748 18.6026L11.4373 20.6424V12.5623H3.35793L5.39772 14.6021C5.61735 14.8217 5.61727 15.1778 5.39772 15.3975C5.17805 15.6171 4.82198 15.6171 4.60231 15.3975L1.60231 12.3975C1.38277 12.1778 1.38268 11.8217 1.60231 11.6021L4.60231 8.60207C4.82195 8.38256 5.17808 8.38256 5.39772 8.60207C5.61735 8.8217 5.61727 9.1778 5.39772 9.39748L3.35793 11.4373H11.4373V3.35793L9.39748 5.39772C9.1778 5.61727 8.8217 5.61735 8.60207 5.39772C8.38256 5.17808 8.38256 4.82195 8.60207 4.60231L11.6021 1.60231Z"/>
</svg>