<svg xmlns="http://www.w3.org/2000/svg" width="24" height="24" fill="currentcolor" class="icon-move" viewBox="0 0 24 24">
  <path d="M11.6019 1.60231C11.8216 1.38268 12.1777 1.38277 12.3974 1.60231L15.3974 4.60231C15.617 4.82198 15.617 5.17805 15.3974 5.39772C15.1777 5.61727 14.8216 5.61735 14.6019 5.39772L12.5622 3.35793V11.4373H20.6422L18.6024 9.39748C18.3828 9.17781 18.3828 8.82174 18.6024 8.60207C18.8221 8.38264 19.1783 8.38248 19.3978 8.60207L22.3978 11.6021C22.6174 11.8217 22.6173 12.1778 22.3978 12.3975L19.3978 15.3975C19.1782 15.6171 18.8221 15.6171 18.6024 15.3975C18.3828 15.1778 18.3828 14.8217 18.6024 14.6021L20.6422 12.5623H12.5622V20.6424L14.6019 18.6026C14.8216 18.3829 15.1777 18.3829 15.3974 18.6026C15.617 18.8222 15.617 19.1783 15.3974 19.398L12.3974 22.398C12.1777 22.6174 11.8215 22.6176 11.6019 22.398L8.60195 19.398C8.38236 19.1784 8.38252 18.8222 8.60195 18.6026C8.82162 18.3829 9.17769 18.3829 9.39736 18.6026L11.4372 20.6424V12.5623H3.35781L5.3976 14.6021C5.61723 14.8217 5.61715 15.1778 5.3976 15.3975C5.17793 15.6171 4.82186 15.6171 4.60219 15.3975L1.60219 12.3975C1.38264 12.1778 1.38256 11.8217 1.60219 11.6021L4.60219 8.60207C4.82183 8.38256 5.17796 8.38256 5.3976 8.60207C5.61723 8.8217 5.61715 9.1778 5.3976 9.39748L3.35781 11.4373H11.4372V3.35793L9.39736 5.39772C9.17768 5.61727 8.82158 5.61735 8.60195 5.39772C8.38244 5.17808 8.38244 4.82195 8.60195 4.60231L11.6019 1.60231Z"/>
</svg>