<svg xmlns="http://www.w3.org/2000/svg" width="24" height="24" fill="currentcolor" class="icon-music" viewBox="0 0 24 24">
  <path d="M8.4375 18C8.4375 16.6538 7.34619 15.5625 6 15.5625C4.65381 15.5625 3.5625 16.6538 3.5625 18C3.5625 19.3462 4.65381 20.4375 6 20.4375C7.34619 20.4375 8.4375 19.3462 8.4375 18ZM20.4375 15.9998C20.4374 14.6537 19.3461 13.5623 18 13.5623C16.6539 13.5623 15.5626 14.6537 15.5625 15.9998C15.5625 17.346 16.6538 18.4373 18 18.4373C19.3462 18.4373 20.4375 17.346 20.4375 15.9998ZM21.5625 15.9998C21.5625 17.9673 19.9675 19.5623 18 19.5623C16.0325 19.5623 14.4375 17.9673 14.4375 15.9998C14.4376 14.0324 16.0326 12.4373 18 12.4373C18.9433 12.4373 19.8002 12.8048 20.4375 13.4033V3.66358L9.5625 5.47633V18C9.5625 19.9675 7.96751 21.5625 6 21.5625C4.03249 21.5625 2.4375 19.9675 2.4375 18C2.4375 16.0325 4.03249 14.4375 6 14.4375C6.94332 14.4375 7.80017 14.805 8.4375 15.4036V5.00025C8.4375 4.72528 8.63648 4.49028 8.90771 4.44508L20.9077 2.44483C21.0707 2.41775 21.2372 2.46409 21.3633 2.57081C21.4894 2.67769 21.5625 2.83466 21.5625 3.00001V15.9998Z"/>
</svg>