<svg xmlns="http://www.w3.org/2000/svg" width="24" height="24" fill="currentcolor" class="icon-navigation" viewBox="0 0 24 24">
  <path d="M21.7595 1.49167C21.9743 1.39008 22.2294 1.43434 22.3975 1.60227C22.5656 1.77036 22.6098 2.0261 22.5081 2.24094L13.5081 21.2407C13.4064 21.4553 13.1811 21.5833 12.9448 21.56C12.7085 21.5366 12.5118 21.3671 12.4541 21.1367L10.5359 13.4638L2.86378 11.5456C2.63337 11.488 2.46395 11.292 2.44044 11.0556C2.41703 10.8193 2.54442 10.5934 2.75904 10.4917L21.7595 1.49167ZM4.66041 10.8352L11.1365 12.4546L11.2097 12.478C11.3755 12.5446 11.5018 12.687 11.5459 12.8633L13.1638 19.3386L20.8169 3.1821L4.66041 10.8352Z"/>
</svg>