<svg xmlns="http://www.w3.org/2000/svg" width="24" height="24" fill="currentcolor" class="icon-navigation" viewBox="0 0 24 24">
  <path d="M21.7593 1.49167C21.9741 1.39008 22.2293 1.43434 22.3973 1.60227C22.5654 1.77036 22.6096 2.0261 22.5079 2.24094L13.5079 21.2407C13.4062 21.4553 13.181 21.5833 12.9446 21.56C12.7083 21.5366 12.5116 21.3671 12.4539 21.1367L10.5357 13.4638L2.86359 11.5456C2.63319 11.488 2.46376 11.292 2.44026 11.0556C2.41685 10.8193 2.54424 10.5934 2.75886 10.4917L21.7593 1.49167ZM4.66023 10.8352L11.1363 12.4546L11.2095 12.478C11.3753 12.5446 11.5016 12.687 11.5457 12.8633L13.1636 19.3386L20.8167 3.1821L4.66023 10.8352Z"/>
</svg>