<svg xmlns="http://www.w3.org/2000/svg" width="24" height="24" fill="currentcolor" class="icon-octagon" viewBox="0 0 24 24">
  <path d="M16.1401 1.4375L16.25 1.44849C16.3582 1.47007 16.4587 1.52312 16.5378 1.60229L22.3979 7.4624C22.5033 7.56787 22.5627 7.71101 22.5627 7.86011V16.1401C22.5627 16.2892 22.5034 16.4324 22.3979 16.5378L16.5378 22.3979C16.4324 22.5034 16.2892 22.5627 16.1401 22.5627H7.86011C7.71101 22.5627 7.56787 22.5033 7.4624 22.3979L1.60229 16.5378C1.49684 16.4324 1.43754 16.2893 1.4375 16.1401V7.86011C1.4375 7.71095 1.49684 7.56789 1.60229 7.4624L7.4624 1.60229L7.5481 1.53198C7.6398 1.47087 7.74827 1.4375 7.86011 1.4375H16.1401ZM2.5625 8.09302V15.9072L8.09302 21.4377H15.9072L21.4377 15.9072V8.09302L15.9072 2.5625H8.09302L2.5625 8.09302Z"/>
</svg>