<svg xmlns="http://www.w3.org/2000/svg" width="24" height="24" fill="currentcolor" class="icon-paperclip" viewBox="0 0 24 24">
  <path d="M19.2192 5.38977C19.2192 4.4777 18.857 3.60312 18.2122 2.95813C17.5671 2.31306 16.6921 1.95032 15.7798 1.95032C14.8675 1.95032 13.9925 2.31306 13.3474 2.95813L4.15772 12.1478C3.13736 13.1682 2.56396 14.5522 2.56396 15.9952C2.56402 17.4382 3.13741 18.8223 4.15772 19.8427C5.17804 20.8628 6.56225 21.4357 8.00513 21.4357C9.44787 21.4356 10.8316 20.8627 11.8518 19.8427L21.0422 10.6522C21.2619 10.4327 21.618 10.4326 21.8376 10.6522C22.0573 10.8719 22.0572 11.228 21.8376 11.4476L12.6472 20.6381C11.416 21.8691 9.74624 22.5606 8.00513 22.5607C6.26388 22.5607 4.59361 21.8692 3.3623 20.6381C2.13102 19.4068 1.43902 17.7365 1.43896 15.9952C1.43896 14.2539 2.13097 12.5838 3.3623 11.3524L12.552 2.16199C13.408 1.30602 14.5692 0.825322 15.7798 0.825317C16.9904 0.825317 18.1515 1.30603 19.0076 2.16199C19.8636 3.01798 20.3442 4.17923 20.3442 5.38977C20.3442 6.60035 19.8635 7.76151 19.0076 8.61755V8.61829L9.80762 17.808C9.32687 18.2887 8.67473 18.5587 7.99487 18.5587C7.31502 18.5587 6.66289 18.2887 6.18213 17.808C5.70141 17.3273 5.43145 16.6751 5.4314 15.9952C5.4314 15.3154 5.7014 14.6633 6.18213 14.1825V14.1818L14.6724 5.70178C14.8922 5.48242 15.2483 5.48279 15.4678 5.70251C15.6873 5.92231 15.6868 6.27838 15.467 6.49792L6.97754 14.9779C6.70779 15.2477 6.5564 15.6137 6.5564 15.9952C6.55645 16.3767 6.70779 16.7428 6.97754 17.0126C7.24732 17.2823 7.61339 17.4337 7.99487 17.4337C8.37636 17.4337 8.74244 17.2823 9.01221 17.0126V17.0118L18.2122 7.82214L18.3293 7.69836C18.9007 7.06738 19.2192 6.24502 19.2192 5.38977Z"/>
</svg>