<svg xmlns="http://www.w3.org/2000/svg" width="24" height="24" fill="currentcolor" class="icon-paperclip" viewBox="0 0 24 24">
  <path d="M19.2195 5.38977C19.2194 4.4777 18.8572 3.60312 18.2124 2.95813C17.5673 2.31306 16.6923 1.95032 15.78 1.95032C14.8677 1.95032 13.9927 2.31306 13.3476 2.95813L4.15793 12.1478C3.13757 13.1682 2.56418 14.5522 2.56418 15.9952C2.56423 17.4382 3.13762 18.8223 4.15793 19.8427C5.17826 20.8628 6.56246 21.4357 8.00534 21.4357C9.44808 21.4356 10.8318 20.8627 11.852 19.8427L21.0425 10.6522C21.2621 10.4327 21.6182 10.4326 21.8379 10.6522C22.0575 10.8719 22.0574 11.228 21.8379 11.4476L12.6474 20.6381C11.4162 21.8691 9.74645 22.5606 8.00534 22.5607C6.2641 22.5607 4.59383 21.8692 3.36252 20.6381C2.13123 19.4068 1.43923 17.7365 1.43918 15.9952C1.43918 14.2539 2.13119 12.5838 3.36252 11.3524L12.5522 2.16199C13.4083 1.30602 14.5694 0.825322 15.78 0.825317C16.9906 0.825317 18.1517 1.30603 19.0078 2.16199C19.8638 3.01798 20.3444 4.17923 20.3445 5.38977C20.3445 6.60035 19.8638 7.76151 19.0078 8.61755V8.61829L9.80783 17.808C9.32708 18.2887 8.67494 18.5587 7.99509 18.5587C7.31524 18.5587 6.6631 18.2887 6.18234 17.808C5.70162 17.3273 5.43166 16.6751 5.43161 15.9952C5.43161 15.3154 5.70161 14.6633 6.18234 14.1825V14.1818L14.6726 5.70178C14.8924 5.48242 15.2485 5.48279 15.468 5.70251C15.6875 5.92231 15.6871 6.27838 15.4673 6.49792L6.97775 14.9779C6.708 15.2477 6.55661 15.6137 6.55661 15.9952C6.55666 16.3767 6.70801 16.7428 6.97775 17.0126C7.24753 17.2823 7.61361 17.4337 7.99509 17.4337C8.37657 17.4337 8.74265 17.2823 9.01242 17.0126V17.0118L18.2124 7.82214L18.3296 7.69836C18.9009 7.06738 19.2195 6.24502 19.2195 5.38977Z"/>
</svg>