<svg xmlns="http://www.w3.org/2000/svg" width="24" height="24" fill="currentcolor" class="icon-paperclip" viewBox="0 0 24 24">
  <path d="M19.2197 5.38977C19.2197 4.4777 18.8575 3.60312 18.2126 2.95813C17.5676 2.31306 16.6925 1.95032 15.7803 1.95032C14.868 1.95032 13.993 2.31306 13.3479 2.95813L4.1582 12.1478C3.13785 13.1682 2.56445 14.5522 2.56445 15.9952C2.56451 17.4382 3.13789 18.8223 4.1582 19.8427C5.17853 20.8628 6.56274 21.4357 8.00562 21.4357C9.44836 21.4356 10.832 20.8627 11.8523 19.8427L21.0427 10.6522C21.2624 10.4327 21.6185 10.4326 21.8381 10.6522C22.0578 10.8719 22.0577 11.228 21.8381 11.4476L12.6477 20.6381C11.4165 21.8691 9.74672 22.5606 8.00562 22.5607C6.26437 22.5607 4.5941 21.8692 3.36279 20.6381C2.13151 19.4068 1.43951 17.7365 1.43945 15.9952C1.43945 14.2539 2.13146 12.5838 3.36279 11.3524L12.5525 2.16199C13.4085 1.30602 14.5697 0.825322 15.7803 0.825317C16.9908 0.825317 18.152 1.30603 19.0081 2.16199C19.864 3.01798 20.3447 4.17923 20.3447 5.38977C20.3447 6.60035 19.864 7.76151 19.0081 8.61755V8.61829L9.80811 17.808C9.32736 18.2887 8.67522 18.5587 7.99536 18.5587C7.31551 18.5587 6.66337 18.2887 6.18262 17.808C5.70189 17.3273 5.43194 16.6751 5.43189 15.9952C5.43189 15.3154 5.70189 14.6633 6.18262 14.1825V14.1818L14.6729 5.70178C14.8927 5.48242 15.2488 5.48279 15.4683 5.70251C15.6878 5.92231 15.6873 6.27838 15.4675 6.49792L6.97803 14.9779C6.70827 15.2477 6.55689 15.6137 6.55689 15.9952C6.55694 16.3767 6.70828 16.7428 6.97803 17.0126C7.24781 17.2823 7.61388 17.4337 7.99536 17.4337C8.37685 17.4337 8.74293 17.2823 9.0127 17.0126V17.0118L18.2126 7.82214L18.3298 7.69836C18.9012 7.06738 19.2197 6.24502 19.2197 5.38977Z"/>
</svg>