<svg xmlns="http://www.w3.org/2000/svg" width="24" height="24" fill="currentcolor" class="icon-pause" viewBox="0 0 24 24">
  <path d="M9.99976 3.4375C10.3104 3.4375 10.5623 3.68934 10.5623 4V19.9998C10.5623 20.3104 10.3104 20.5623 9.99976 20.5623H6C5.68934 20.5623 5.4375 20.3104 5.4375 19.9998V4C5.4375 3.68934 5.68934 3.4375 6 3.4375H9.99976ZM18 3.4375C18.3107 3.4375 18.5625 3.68934 18.5625 4V19.9998C18.5625 20.3104 18.3107 20.5623 18 20.5623H14.0002C13.6896 20.5623 13.4377 20.3104 13.4377 19.9998V4C13.4377 3.68934 13.6896 3.4375 14.0002 3.4375H18ZM14.5627 19.4373H17.4375V4.5625H14.5627V19.4373ZM6.5625 19.4373H9.43726V4.5625H6.5625V19.4373Z"/>
</svg>