<svg xmlns="http://www.w3.org/2000/svg" width="24" height="24" fill="currentcolor" class="icon-pause-circle" viewBox="0 0 24 24">
  <path d="M21.4377 11.9998C21.4376 6.78768 17.2119 2.5625 11.9998 2.5625C6.78776 2.56263 2.56263 6.78776 2.5625 11.9998C2.5625 17.2119 6.78768 21.4376 11.9998 21.4377C17.2119 21.4377 21.4377 17.2119 21.4377 11.9998ZM9.43774 14.9998V8.99976C9.43788 8.68921 9.68967 8.43726 10.0002 8.43726C10.3107 8.43739 10.5626 8.68929 10.5627 8.99976V14.9998C10.5627 15.3103 10.3108 15.5621 10.0002 15.5623C9.68958 15.5623 9.43774 15.3104 9.43774 14.9998ZM13.4375 14.9998V8.99976C13.4376 8.68921 13.6894 8.43726 14 8.43726C14.3106 8.43726 14.5624 8.68921 14.5625 8.99976V14.9998C14.5625 15.3104 14.3107 15.5623 14 15.5623C13.6893 15.5623 13.4375 15.3104 13.4375 14.9998ZM22.5627 11.9998C22.5627 17.8333 17.8333 22.5627 11.9998 22.5627C6.16636 22.5626 1.4375 17.8332 1.4375 11.9998C1.43763 6.16644 6.16644 1.43763 11.9998 1.4375C17.8332 1.4375 22.5626 6.16636 22.5627 11.9998Z"/>
</svg>