<svg xmlns="http://www.w3.org/2000/svg" width="24" height="24" fill="currentcolor" class="icon-pen-tool" viewBox="0 0 24 24">
  <path d="M1.60254 1.60229C1.74105 1.46378 1.94166 1.40699 2.13208 1.45288L16.6326 4.95312L16.7095 4.97802C16.884 5.04796 17.0139 5.20173 17.0515 5.38964L18.345 11.8591L18.6028 11.602L18.6453 11.564C18.8662 11.3837 19.1922 11.3961 19.3982 11.602L22.3982 14.602C22.6178 14.8216 22.6176 15.1778 22.3982 15.3975L15.3977 22.3979C15.178 22.6174 14.8219 22.6175 14.6023 22.3979L11.6023 19.3979C11.3827 19.1784 11.3829 18.8222 11.6023 18.6025L11.8594 18.3447L5.38989 17.0513C5.17526 17.0083 5.00484 16.8451 4.95337 16.6323L1.45312 2.13183C1.40724 1.94141 1.46403 1.7408 1.60254 1.60229ZM12.7954 19.0002L15 21.2048L21.2051 14.9998L19.0005 12.7952L12.7954 19.0002ZM12.438 11C12.438 10.2061 11.7942 9.56225 11.0002 9.56225C10.2063 9.56225 9.5625 10.2061 9.5625 11C9.5625 11.7939 10.2063 12.4377 11.0002 12.4377C11.7942 12.4377 12.438 11.7939 12.438 11ZM13.563 11C13.563 12.4152 12.4155 13.5627 11.0002 13.5627C9.58501 13.5627 8.4375 12.4152 8.4375 11C8.4375 10.496 8.58318 10.026 8.83447 9.62964L3.01611 3.81128L5.96191 16.0186L12.8152 17.3889L17.3892 12.8149L16.0188 5.96167L3.81152 3.01587L9.62988 8.83423C10.0262 8.58294 10.4962 8.43725 11.0002 8.43725C12.4155 8.43725 13.563 9.58477 13.563 11Z"/>
</svg>