<svg xmlns="http://www.w3.org/2000/svg" width="24" height="24" fill="currentcolor" class="icon-pen-tool" viewBox="0 0 24 24">
  <path d="M1.60229 1.60229C1.7408 1.46378 1.94141 1.40699 2.13183 1.45288L16.6323 4.95312L16.7092 4.97802C16.8838 5.04796 17.0136 5.20173 17.0513 5.38964L18.3447 11.8591L18.6025 11.602L18.645 11.564C18.866 11.3837 19.192 11.3961 19.3979 11.602L22.3979 14.602C22.6175 14.8216 22.6174 15.1778 22.3979 15.3975L15.3975 22.3979C15.1778 22.6174 14.8216 22.6175 14.602 22.3979L11.602 19.3979C11.3825 19.1784 11.3826 18.8222 11.602 18.6025L11.8591 18.3447L5.38964 17.0513C5.17501 17.0083 5.0046 16.8451 4.95312 16.6323L1.45288 2.13183C1.40699 1.94141 1.46378 1.7408 1.60229 1.60229ZM12.7952 19.0002L14.9998 21.2048L21.2048 14.9998L19.0002 12.7952L12.7952 19.0002ZM12.4377 11C12.4377 10.2061 11.7939 9.56225 11 9.56225C10.2061 9.56225 9.56225 10.2061 9.56225 11C9.56225 11.7939 10.2061 12.4377 11 12.4377C11.7939 12.4377 12.4377 11.7939 12.4377 11ZM13.5627 11C13.5627 12.4152 12.4152 13.5627 11 13.5627C9.58477 13.5627 8.43725 12.4152 8.43725 11C8.43725 10.496 8.58294 10.026 8.83423 9.62964L3.01587 3.81128L5.96167 16.0186L12.8149 17.3889L17.3889 12.8149L16.0186 5.96167L3.81128 3.01587L9.62964 8.83423C10.026 8.58294 10.496 8.43725 11 8.43725C12.4152 8.43725 13.5627 9.58477 13.5627 11Z"/>
</svg>