<svg xmlns="http://www.w3.org/2000/svg" width="24" height="24" fill="currentcolor" class="icon-percent" viewBox="0 0 24 24">
  <path d="M19.4373 17.5C19.4373 16.4299 18.5701 15.5627 17.5 15.5627C16.4299 15.5627 15.5627 16.4299 15.5627 17.5C15.5627 18.5701 16.4299 19.4373 17.5 19.4373C18.5701 19.4373 19.4373 18.5701 19.4373 17.5ZM18.6023 4.60205C18.8219 4.38254 19.1781 4.38254 19.3977 4.60205C19.6173 4.82168 19.6173 5.17778 19.3977 5.39746L5.39746 19.3977C5.17778 19.6173 4.82168 19.6173 4.60205 19.3977C4.38254 19.1781 4.38254 18.8219 4.60205 18.6023L18.6023 4.60205ZM8.43774 6.49976C8.43761 5.42982 7.56973 4.5625 6.49976 4.5625C5.4299 4.56263 4.56263 5.4299 4.5625 6.49976C4.5625 7.56973 5.42982 8.43761 6.49976 8.43774C7.56981 8.43774 8.43774 7.56981 8.43774 6.49976ZM20.5623 17.5C20.5623 19.1914 19.1914 20.5623 17.5 20.5623C15.8086 20.5623 14.4377 19.1914 14.4377 17.5C14.4377 15.8086 15.8086 14.4377 17.5 14.4377C19.1914 14.4377 20.5623 15.8086 20.5623 17.5ZM9.56274 6.49976C9.56274 8.19113 8.19113 9.56274 6.49976 9.56274C4.8085 9.56261 3.4375 8.19105 3.4375 6.49976C3.43763 4.80858 4.80858 3.43763 6.49976 3.4375C8.19105 3.4375 9.56261 4.8085 9.56274 6.49976Z"/>
</svg>