<svg xmlns="http://www.w3.org/2000/svg" width="24" height="24" fill="currentcolor" class="icon-person-walking" viewBox="0 0 24 24">
  <path d="M10.8438 3.42188C10.8438 2.19141 11.8691 1.125 13.1406 1.125C14.3711 1.125 15.4375 2.19141 15.4375 3.42188C15.4375 4.69336 14.3711 5.71875 13.1406 5.71875C11.8691 5.71875 10.8438 4.69336 10.8438 3.42188ZM13.1406 4.40625C13.6738 4.40625 14.125 3.99609 14.125 3.42188C14.125 2.88867 13.6738 2.4375 13.1406 2.4375C12.5664 2.4375 12.1562 2.88867 12.1562 3.42188C12.1562 3.99609 12.5664 4.40625 13.1406 4.40625ZM9.90039 8.13867C9.85938 8.13867 9.77734 8.17969 9.73633 8.2207L8.71094 8.75391C7.89062 9.20508 7.31641 9.94336 7.11133 10.8457L6.86523 11.7891C6.7832 12.1582 6.41406 12.3633 6.08594 12.2812C5.7168 12.1992 5.51172 11.8301 5.59375 11.502L5.83984 10.5176C6.12695 9.28711 6.94727 8.2207 8.0957 7.60547L9.08008 7.07227C9.90039 6.62109 10.8027 6.375 11.7461 6.375C13.2227 6.375 14.5762 7.35938 15.0684 8.75391L15.9707 11.2148L17.7344 12.4043C18.0625 12.6094 18.1445 13.0195 17.9395 13.3066C17.7344 13.6348 17.3242 13.7168 17.0371 13.5117L15.2324 12.3223C14.9863 12.1582 14.8223 11.9121 14.7402 11.666L14.166 10.1484L12.6074 14.7012L14.3711 16.2598C14.5762 16.4238 14.6992 16.6699 14.7812 16.916L16.0527 21.3047C16.1348 21.6738 15.9297 22.002 15.6016 22.125C15.2324 22.207 14.9043 22.002 14.7812 21.6738L13.5098 17.2441L9.4082 13.6758C8.79297 13.1836 8.58789 12.3633 8.79297 11.625L9.90039 8.13867ZM11.418 7.72852L10.0645 11.9941C9.98242 12.2402 10.0645 12.5273 10.2695 12.6914L11.541 13.7988L13.3867 8.42578C12.9766 7.97461 12.3613 7.6875 11.7461 7.6875C11.623 7.6875 11.5 7.72852 11.418 7.72852ZM8.83398 19.0488C8.75195 19.1719 8.66992 19.2949 8.58789 19.418L6.04492 21.9609C5.79883 22.207 5.34766 22.207 5.10156 21.9609C4.85547 21.7148 4.85547 21.2637 5.10156 21.0176L7.64453 18.4746L8.91602 15.9316C9.08008 15.6035 9.49023 15.4805 9.81836 15.6445C10.1465 15.8086 10.2695 16.2188 10.1055 16.5469L8.83398 19.0488Z"/>
</svg>