<svg xmlns="http://www.w3.org/2000/svg" width="24" height="24" fill="currentcolor" class="icon-phone-incoming" viewBox="0 0 24 24">
  <path d="M7.10993 1.43729C7.72971 1.43251 8.33031 1.65275 8.80036 2.05692C9.27178 2.46234 9.57976 3.02551 9.66682 3.64115L9.66755 3.64628C9.78856 4.56379 10.0128 5.46497 10.3362 6.33207C10.5086 6.79066 10.5461 7.2892 10.4439 7.76835C10.3417 8.24744 10.1043 8.68711 9.75983 9.03544L8.79597 9.99857C10.0857 12.1279 11.8706 13.9139 13.9998 15.2039L14.9644 14.24C15.3127 13.8956 15.7525 13.6582 16.2315 13.5559C16.7099 13.4539 17.2076 13.4912 17.6656 13.6629C18.4247 13.9461 19.2107 14.1533 20.0101 14.2818L20.3536 14.3323L20.3587 14.333L20.5894 14.3763C21.1207 14.5017 21.5999 14.7946 21.9554 15.2141C22.3587 15.6901 22.5746 16.2965 22.5626 16.92V19.9178L22.5596 20.0511C22.5447 20.3623 22.4731 20.6687 22.348 20.9549C22.205 21.2818 21.9949 21.575 21.732 21.8162C21.4691 22.0574 21.1588 22.241 20.8209 22.3553C20.4828 22.4696 20.1245 22.5126 19.7691 22.4805L19.7596 22.479C16.5951 22.1352 13.5549 21.0542 10.8841 19.3223C8.40017 17.743 6.29359 15.636 4.71491 13.1516C2.97871 10.4699 1.89775 7.41644 1.56037 4.23954L1.55964 4.23075C1.52762 3.87644 1.56987 3.51906 1.68342 3.18192C1.79697 2.84484 1.97975 2.53495 2.21955 2.27225C2.45933 2.00964 2.7512 1.79999 3.07648 1.65629C3.40182 1.51258 3.75354 1.43766 4.1092 1.43729H7.10993ZM3.96125 2.57035C3.81311 2.58596 3.66813 2.62492 3.53132 2.68534C3.34877 2.76597 3.18466 2.88365 3.05012 3.03104C2.91563 3.17841 2.8135 3.35247 2.74982 3.54154C2.68663 3.72928 2.66226 3.92797 2.67951 4.12528C2.979 6.93905 3.89608 9.64954 5.36164 12.0647L5.66193 12.5445L5.66486 12.5481C7.06274 14.748 8.89873 16.6339 11.0562 18.0896L11.492 18.3753L11.4964 18.3782C14.0182 20.0135 16.8882 21.0345 19.876 21.3599C20.0736 21.377 20.2726 21.3531 20.4605 21.2896C20.6501 21.2255 20.8243 21.1224 20.9717 20.9871C21.1192 20.8518 21.2373 20.6871 21.3175 20.5037C21.3975 20.3204 21.4384 20.1222 21.4376 19.9222V16.906C21.4463 16.5537 21.3255 16.2104 21.0977 15.9414C20.8698 15.6724 20.5504 15.4963 20.2012 15.4471C19.2009 15.3147 18.2184 15.0696 17.273 14.7168C17.0158 14.6202 16.7353 14.5988 16.4666 14.656C16.1979 14.7134 15.9509 14.8466 15.7554 15.0398L14.4876 16.3077C14.3087 16.4866 14.0324 16.5241 13.8123 16.3992C11.2209 14.9257 9.07498 12.7797 7.60139 10.1883C7.47622 9.96815 7.51316 9.69129 7.69221 9.51224L8.96223 8.24222C9.15427 8.04716 9.28671 7.80099 9.34382 7.53324C9.40102 7.2647 9.38029 6.98534 9.28376 6.72831L9.28303 6.72684C8.93023 5.7814 8.68513 4.79901 8.5528 3.79862C8.50396 3.45337 8.33153 3.13759 8.06721 2.91019C7.80279 2.6828 7.46451 2.55892 7.11579 2.56229H4.11066L3.96125 2.57035ZM22.6021 0.60233C22.8218 0.38269 23.1779 0.382749 23.3975 0.60233C23.6172 0.822 23.6172 1.17807 23.3975 1.39774L17.358 7.43729H22.0001C22.3106 7.43733 22.5624 7.68926 22.5626 7.99979C22.5626 8.31043 22.3107 8.56225 22.0001 8.56229H16.0001C15.6894 8.56229 15.4376 8.31045 15.4376 7.99979V1.99979C15.4377 1.68924 15.6895 1.43729 16.0001 1.43729C16.3106 1.43733 16.5624 1.68926 16.5626 1.99979V6.64188L22.6021 0.60233Z"/>
</svg>