<svg xmlns="http://www.w3.org/2000/svg" width="24" height="24" fill="currentcolor" class="icon-phone-call" viewBox="0 0 24 24">
  <path d="M7.24769 1.68758C7.86751 1.6828 8.46805 1.903 8.93812 2.30721C9.40957 2.71265 9.71754 3.27574 9.80457 3.89143L9.8053 3.89656C9.92632 4.81412 10.1505 5.71522 10.474 6.58235L10.5326 6.75594C10.6538 7.16511 10.6711 7.59937 10.5817 8.01863C10.4795 8.49767 10.242 8.93743 9.89759 9.28572L8.93372 10.2489C10.2236 12.3782 12.009 14.1635 14.1383 15.4534L15.1022 14.4903C15.4505 14.1459 15.8902 13.9084 16.3693 13.8062C16.8476 13.7042 17.3454 13.7415 17.8034 13.9132C18.5624 14.1964 19.3485 14.4035 20.1478 14.5321L20.4913 14.5826L20.4965 14.5833C21.1186 14.6711 21.6869 14.9844 22.0931 15.4637C22.4965 15.9397 22.7124 16.5468 22.7003 17.1702V20.168L22.6974 20.3013C22.6824 20.6125 22.6108 20.919 22.4857 21.2052C22.3428 21.532 22.1326 21.8253 21.8698 22.0665C21.6069 22.3076 21.2966 22.4913 20.9586 22.6055C20.6206 22.7199 20.2622 22.7622 19.9069 22.7301L19.8973 22.7293C16.7345 22.3857 13.696 21.3051 11.0263 19.5748L10.5641 19.2723C8.27864 17.7301 6.33348 15.7323 4.85267 13.4019C3.11645 10.7202 2.03553 7.66672 1.69813 4.48982L1.69739 4.48103C1.66538 4.12672 1.70762 3.76935 1.82117 3.43221C1.93473 3.09508 2.11747 2.78527 2.35731 2.52254C2.59713 2.25985 2.88887 2.04956 3.21424 1.90584C3.53955 1.76216 3.89133 1.68795 4.24696 1.68758H7.24769ZM4.09901 2.82063C3.95095 2.83623 3.80582 2.87453 3.66907 2.93489C3.48652 3.01553 3.32242 3.13393 3.18787 3.28133C3.05349 3.4286 2.95126 3.60217 2.88758 3.79109C2.82439 3.97872 2.80011 4.17763 2.81727 4.37483C3.13665 7.3764 4.15855 10.2606 5.79969 12.794L5.80262 12.7984C7.20051 14.9983 9.03646 16.8842 11.194 18.3399L11.6298 18.6256L11.6342 18.6285C14.1557 20.2636 17.0255 21.2847 20.0131 21.6102C20.2109 21.6274 20.4101 21.6035 20.5983 21.5399C20.7879 21.4757 20.962 21.3727 21.1095 21.2374C21.257 21.1021 21.375 20.9374 21.4552 20.754C21.5353 20.5707 21.5761 20.3725 21.5753 20.1724V17.1563C21.5841 16.8038 21.4634 16.46 21.2355 16.191C21.0075 15.922 20.6881 15.7466 20.339 15.6973C19.3387 15.565 18.3561 15.3199 17.4108 14.9671L17.41 14.9664C17.1528 14.8697 16.8731 14.849 16.6044 14.9063C16.3356 14.9637 16.0886 15.0969 15.8932 15.2901L14.6254 16.5579C14.4464 16.7368 14.1701 16.7744 13.9501 16.6495C11.3587 15.176 9.21274 13.0299 7.73914 10.4386C7.614 10.2185 7.65098 9.94158 7.82996 9.76253L9.09998 8.49251C9.29206 8.29743 9.42446 8.05131 9.48157 7.78352C9.53884 7.5148 9.51819 7.23505 9.42152 6.97786L9.42078 6.97713C9.06801 6.03173 8.82289 5.04925 8.69056 4.0489L8.66639 3.92073C8.597 3.62597 8.43618 3.35942 8.20496 3.16048C7.94055 2.93308 7.60227 2.80921 7.25355 2.81258H4.24842L4.09901 2.82063Z"/>
</svg>