<svg xmlns="http://www.w3.org/2000/svg" width="24" height="24" fill="currentcolor" class="icon-phone-forwarded" viewBox="0 0 24 24">
  <path d="M7.10999 1.4372C7.72978 1.43242 8.33037 1.65266 8.80042 2.05683C9.27184 2.46224 9.57982 3.02542 9.66688 3.64105L9.66761 3.64618C9.78862 4.56369 10.0129 5.46488 10.3363 6.33197C10.5087 6.79056 10.5462 7.28911 10.444 7.76825C10.3418 8.24735 10.1043 8.68701 9.7599 9.03534L8.79603 9.99848C10.0858 12.1278 11.8707 13.9138 13.9999 15.2038L14.9645 14.2399C15.3128 13.8955 15.7525 13.6581 16.2316 13.5558C16.7099 13.4538 17.2077 13.4911 17.6657 13.6628C18.4247 13.946 19.2108 14.1532 20.0101 14.2817L20.3536 14.3322L20.3588 14.3329L20.5895 14.3762C21.1207 14.5016 21.6 14.7945 21.9555 15.2141C22.3588 15.69 22.5747 16.2964 22.5626 16.9199V19.9177L22.5597 20.051C22.5448 20.3622 22.4732 20.6686 22.348 20.9548C22.2051 21.2817 21.995 21.5749 21.7321 21.8161C21.4691 22.0573 21.1589 22.2409 20.8209 22.3552C20.4829 22.4695 20.1246 22.5125 19.7692 22.4804L19.7597 22.4789C16.5951 22.1351 13.5549 21.0541 10.8842 19.3222C8.40023 17.7429 6.29365 15.6359 4.71497 13.1516C2.97877 10.4698 1.89781 7.41635 1.56043 4.23944L1.5597 4.23065C1.52768 3.87635 1.56993 3.51897 1.68348 3.18183C1.79703 2.84475 1.97981 2.53486 2.21961 2.27216C2.45939 2.00954 2.75126 1.79989 3.07655 1.65619C3.40188 1.51249 3.7536 1.43757 4.10926 1.4372H7.10999ZM3.96131 2.57025C3.81317 2.58586 3.66819 2.62483 3.53138 2.68524C3.34883 2.76588 3.18472 2.88355 3.05018 3.03095C2.91569 3.17831 2.81357 3.35237 2.74988 3.54144C2.68669 3.72919 2.66232 3.92787 2.67957 4.12519C2.97906 6.93895 3.89614 9.64945 5.3617 12.0646L5.66199 12.5444L5.66492 12.548C7.0628 14.7479 8.89879 16.6338 11.0563 18.0895L11.4921 18.3752L11.4965 18.3781C14.0182 20.0134 16.8882 21.0344 19.8761 21.3598C20.0737 21.3769 20.2727 21.353 20.4606 21.2895C20.6502 21.2254 20.8243 21.1223 20.9718 20.987C21.1193 20.8517 21.2373 20.687 21.3175 20.5036C21.3976 20.3203 21.4384 20.1221 21.4376 19.9221V16.9059C21.4464 16.5536 21.3255 16.2103 21.0978 15.9413C20.8698 15.6723 20.5504 15.4962 20.2013 15.447C19.201 15.3146 18.2184 15.0695 17.2731 14.7167C17.0159 14.6201 16.7354 14.5987 16.4667 14.6559C16.1979 14.7133 15.9509 14.8465 15.7555 15.0397L14.4877 16.3076C14.3087 16.4865 14.0324 16.524 13.8124 16.3991C11.2209 14.9256 9.07505 12.7796 7.60145 10.1882C7.47628 9.96805 7.51322 9.6912 7.69227 9.51215L8.96229 8.24213C9.15433 8.04707 9.28678 7.8009 9.34388 7.53314C9.40108 7.2646 9.38035 6.98525 9.28382 6.72821L9.28309 6.72675C8.9303 5.78131 8.68519 4.79892 8.55286 3.79852C8.50402 3.45328 8.33159 3.1375 8.06727 2.9101C7.80285 2.6827 7.46458 2.55883 7.11585 2.5622H4.11072L3.96131 2.57025ZM18.6024 0.602236C18.8221 0.382599 19.1782 0.382577 19.3978 0.602236L23.3976 4.60199C23.503 4.70742 23.5623 4.8506 23.5624 4.9997C23.5624 5.14887 23.5031 5.29192 23.3976 5.3974L19.3978 9.39789C19.1782 9.61742 18.8221 9.61737 18.6024 9.39789C18.3828 9.17825 18.3828 8.82216 18.6024 8.60248L21.642 5.5622H15.0004C14.6897 5.5622 14.4379 5.31036 14.4379 4.9997C14.438 4.68915 14.6898 4.4372 15.0004 4.4372H21.642L18.6024 1.39765C18.3828 1.17798 18.3828 0.821906 18.6024 0.602236Z"/>
</svg>