<svg xmlns="http://www.w3.org/2000/svg" width="24" height="24" fill="currentcolor" class="icon-phone" viewBox="0 0 24 24">
  <path d="M7.1095 1.43745C7.72932 1.43267 8.32987 1.65287 8.79993 2.05708C9.27139 2.46253 9.57936 3.02562 9.66639 3.64131L9.66712 3.64644C9.78814 4.564 10.0124 5.46509 10.3358 6.33223L10.3944 6.50581C10.5157 6.91499 10.5329 7.34925 10.4435 7.76851C10.3413 8.24755 10.1038 8.68731 9.75941 9.0356L8.79554 9.99873C10.0854 12.1281 11.8708 13.9134 14.0001 15.2033L14.964 14.2402C15.3123 13.8958 15.7521 13.6583 16.2311 13.5561C16.7095 13.4541 17.2072 13.4914 17.6652 13.663C18.4242 13.9463 19.2103 14.1534 20.0097 14.2819L20.3532 14.3325L20.3583 14.3332C20.9805 14.421 21.5487 14.7343 21.955 15.2136C22.3583 15.6896 22.5742 16.2966 22.5621 16.9201V19.9179L22.5592 20.0512C22.5443 20.3624 22.4726 20.6689 22.3475 20.955C22.2046 21.2819 21.9945 21.5752 21.7316 21.8164C21.4687 22.0575 21.1584 22.2411 20.8204 22.3554C20.4824 22.4697 20.1241 22.5121 19.7687 22.4799L19.7592 22.4792C16.5963 22.1355 13.5578 21.055 10.8881 19.3247L10.4259 19.0222C8.14045 17.48 6.1953 15.4822 4.71448 13.1518C2.97827 10.4701 1.89734 7.4166 1.55994 4.2397L1.55921 4.23091C1.52719 3.8766 1.56944 3.51923 1.68299 3.18208C1.79654 2.84496 1.97929 2.53515 2.21912 2.27242C2.45895 2.00973 2.75069 1.79943 3.07606 1.65572C3.40137 1.51204 3.75315 1.43783 4.10877 1.43745H7.1095ZM3.96082 2.57051C3.81277 2.58611 3.66764 2.62441 3.53089 2.68477C3.34834 2.7654 3.18424 2.88381 3.04969 3.0312C2.91531 3.17847 2.81307 3.35205 2.7494 3.54097C2.6862 3.7286 2.66192 3.92751 2.67908 4.12471C2.99847 7.12628 4.02037 10.0105 5.66151 12.5439L5.66444 12.5483C7.06232 14.7482 8.89827 16.634 11.0558 18.0898L11.4916 18.3754L11.496 18.3784C14.0175 20.0135 16.8873 21.0346 19.8749 21.3601C20.0727 21.3773 20.2719 21.3534 20.4601 21.2897C20.6497 21.2256 20.8238 21.1226 20.9713 20.9873C21.1188 20.8519 21.2368 20.6872 21.317 20.5039C21.3971 20.3205 21.438 20.1224 21.4371 19.9223V16.9062C21.4459 16.5537 21.3252 16.2099 21.0973 15.9409C20.8694 15.6719 20.55 15.4965 20.2008 15.4472C19.2005 15.3149 18.2179 15.0698 17.2726 14.717L17.2719 14.7163C17.0147 14.6196 16.7349 14.5989 16.4662 14.6562C16.1974 14.7135 15.9504 14.8467 15.755 15.04L14.4872 16.3078C14.3082 16.4867 14.0319 16.5242 13.8119 16.3994C11.2205 14.9258 9.07455 12.7798 7.60096 10.1884C7.47581 9.96834 7.51279 9.69146 7.69178 9.51241L8.9618 8.24239C9.15388 8.04731 9.28628 7.80119 9.34339 7.5334C9.40066 7.26468 9.38001 6.98493 9.28333 6.72774L9.2826 6.727C8.92982 5.78161 8.6847 4.79913 8.55237 3.79878L8.5282 3.67061C8.45882 3.37585 8.298 3.1093 8.06678 2.91035C7.80236 2.68296 7.46409 2.55908 7.11536 2.56245H4.11024L3.96082 2.57051Z"/>
</svg>