<svg xmlns="http://www.w3.org/2000/svg" width="24" height="24" fill="currentcolor" class="icon-phone-call" viewBox="0 0 24 24">
  <path d="M7.2472 1.68758C7.86702 1.6828 8.46756 1.903 8.93763 2.30721C9.40908 2.71265 9.71705 3.27574 9.80408 3.89143L9.80482 3.89656C9.92583 4.81412 10.1501 5.71522 10.4735 6.58235L10.5321 6.75594C10.6533 7.16511 10.6706 7.59937 10.5812 8.01863C10.479 8.49767 10.2415 8.93743 9.8971 9.28572L8.93323 10.2489C10.2231 12.3782 12.0085 14.1635 14.1378 15.4534L15.1017 14.4903C15.45 14.1459 15.8897 13.9084 16.3688 13.8062C16.8472 13.7042 17.3449 13.7415 17.8029 13.9132C18.5619 14.1964 19.348 14.4035 20.1473 14.5321L20.4909 14.5826L20.496 14.5833C21.1182 14.6711 21.6864 14.9844 22.0927 15.4637C22.496 15.9397 22.7119 16.5468 22.6998 17.1702V20.168L22.6969 20.3013C22.6819 20.6125 22.6103 20.919 22.4852 21.2052C22.3423 21.532 22.1322 21.8253 21.8693 22.0665C21.6064 22.3076 21.2961 22.4913 20.9581 22.6055C20.6201 22.7199 20.2618 22.7622 19.9064 22.7301L19.8969 22.7293C16.734 22.3857 13.6955 21.3051 11.0258 19.5748L10.5636 19.2723C8.27815 17.7301 6.33299 15.7323 4.85218 13.4019C3.11596 10.7202 2.03504 7.66672 1.69764 4.48982L1.69691 4.48103C1.66489 4.12672 1.70713 3.76935 1.82069 3.43221C1.93424 3.09508 2.11698 2.78527 2.35682 2.52254C2.59664 2.25985 2.88838 2.04956 3.21375 1.90584C3.53906 1.76216 3.89084 1.68795 4.24647 1.68758H7.2472ZM4.09852 2.82063C3.95046 2.83623 3.80533 2.87453 3.66859 2.93489C3.48603 3.01553 3.32193 3.13393 3.18738 3.28133C3.053 3.4286 2.95077 3.60217 2.88709 3.79109C2.8239 3.97872 2.79962 4.17763 2.81678 4.37483C3.13617 7.3764 4.15806 10.2606 5.7992 12.794L5.80213 12.7984C7.20002 14.9983 9.03597 16.8842 11.1935 18.3399L11.6293 18.6256L11.6337 18.6285C14.1552 20.2636 17.025 21.2847 20.0126 21.6102C20.2104 21.6274 20.4096 21.6035 20.5978 21.5399C20.7874 21.4757 20.9615 21.3727 21.109 21.2374C21.2565 21.1021 21.3745 20.9374 21.4547 20.754C21.5348 20.5707 21.5756 20.3725 21.5748 20.1724V17.1563C21.5836 16.8038 21.4629 16.46 21.235 16.191C21.0071 15.922 20.6877 15.7466 20.3385 15.6973C19.3382 15.565 18.3556 15.3199 17.4103 14.9671L17.4096 14.9664C17.1524 14.8697 16.8726 14.849 16.6039 14.9063C16.3351 14.9637 16.0881 15.0969 15.8927 15.2901L14.6249 16.5579C14.4459 16.7368 14.1696 16.7744 13.9496 16.6495C11.3582 15.176 9.21225 13.0299 7.73865 10.4386C7.61351 10.2185 7.65049 9.94158 7.82947 9.76253L9.09949 8.49251C9.29157 8.29743 9.42397 8.05131 9.48109 7.78352C9.53836 7.5148 9.51771 7.23505 9.42103 6.97786L9.42029 6.97713C9.06752 6.03173 8.8224 5.04925 8.69007 4.0489L8.6659 3.92073C8.59651 3.62597 8.43569 3.35942 8.20447 3.16048C7.94006 2.93308 7.60178 2.80921 7.25306 2.81258H4.24793L4.09852 2.82063Z"/>
</svg>