<svg xmlns="http://www.w3.org/2000/svg" width="24" height="24" fill="currentcolor" class="icon-phone-incoming" viewBox="0 0 24 24">
  <path d="M7.1095 1.43729C7.72929 1.43251 8.32988 1.65275 8.79993 2.05692C9.27135 2.46234 9.57933 3.02551 9.66639 3.64115L9.66712 3.64628C9.78813 4.56379 10.0124 5.46497 10.3358 6.33207C10.5082 6.79066 10.5457 7.2892 10.4435 7.76835C10.3413 8.24744 10.1039 8.68711 9.75941 9.03544L8.79554 9.99857C10.0853 12.1279 11.8702 13.9139 13.9994 15.2039L14.964 14.24C15.3123 13.8956 15.752 13.6582 16.2311 13.5559C16.7094 13.4539 17.2072 13.4912 17.6652 13.6629C18.4242 13.9461 19.2103 14.1533 20.0097 14.2818L20.3532 14.3323L20.3583 14.333L20.589 14.3763C21.1202 14.5017 21.5995 14.7946 21.955 15.2141C22.3583 15.6901 22.5742 16.2965 22.5621 16.92V19.9178L22.5592 20.0511C22.5443 20.3623 22.4727 20.6687 22.3475 20.9549C22.2046 21.2818 21.9945 21.575 21.7316 21.8162C21.4687 22.0574 21.1584 22.241 20.8204 22.3553C20.4824 22.4696 20.1241 22.5126 19.7687 22.4805L19.7592 22.479C16.5946 22.1352 13.5544 21.0542 10.8837 19.3223C8.39975 17.743 6.29316 15.636 4.71448 13.1516C2.97828 10.4699 1.89732 7.41644 1.55994 4.23954L1.55921 4.23075C1.52719 3.87644 1.56944 3.51906 1.68299 3.18192C1.79655 2.84484 1.97932 2.53495 2.21912 2.27225C2.4589 2.00964 2.75077 1.79999 3.07606 1.65629C3.40139 1.51258 3.75311 1.43766 4.10877 1.43729H7.1095ZM3.96082 2.57035C3.81269 2.58596 3.66771 2.62492 3.53089 2.68534C3.34834 2.76597 3.18424 2.88365 3.04969 3.03104C2.9152 3.17841 2.81308 3.35247 2.7494 3.54154C2.6862 3.72928 2.66183 3.92797 2.67908 4.12528C2.97857 6.93905 3.89565 9.64954 5.36121 12.0647L5.66151 12.5445L5.66444 12.5481C7.06231 14.748 8.8983 16.6339 11.0558 18.0896L11.4916 18.3753L11.496 18.3782C14.0177 20.0135 16.8877 21.0345 19.8756 21.3599C20.0732 21.377 20.2722 21.3531 20.4601 21.2896C20.6497 21.2255 20.8238 21.1224 20.9713 20.9871C21.1188 20.8518 21.2369 20.6871 21.317 20.5037C21.3971 20.3204 21.438 20.1222 21.4371 19.9222V16.906C21.4459 16.5537 21.325 16.2104 21.0973 15.9414C20.8694 15.6724 20.55 15.4963 20.2008 15.4471C19.2005 15.3147 18.2179 15.0696 17.2726 14.7168C17.0154 14.6202 16.7349 14.5988 16.4662 14.656C16.1974 14.7134 15.9504 14.8466 15.755 15.0398L14.4872 16.3077C14.3082 16.4866 14.032 16.5241 13.8119 16.3992C11.2204 14.9257 9.07456 12.7797 7.60096 10.1883C7.4758 9.96815 7.51273 9.69129 7.69178 9.51224L8.9618 8.24222C9.15384 8.04716 9.28629 7.80099 9.34339 7.53324C9.40059 7.2647 9.37986 6.98534 9.28333 6.72831L9.2826 6.72684C8.92981 5.7814 8.6847 4.79901 8.55237 3.79862C8.50354 3.45337 8.3311 3.13759 8.06678 2.91019C7.80237 2.6828 7.46409 2.55892 7.11536 2.56229H4.11024L3.96082 2.57035ZM22.6017 0.60233C22.8213 0.38269 23.1774 0.382749 23.3971 0.60233C23.6168 0.822 23.6168 1.17807 23.3971 1.39774L17.3576 7.43729H21.9996C22.3102 7.43733 22.562 7.68926 22.5621 7.99979C22.5621 8.31043 22.3103 8.56225 21.9996 8.56229H15.9996C15.689 8.56229 15.4371 8.31045 15.4371 7.99979V1.99979C15.4373 1.68924 15.6891 1.43729 15.9996 1.43729C16.3102 1.43733 16.562 1.68926 16.5621 1.99979V6.64188L22.6017 0.60233Z"/>
</svg>