<svg xmlns="http://www.w3.org/2000/svg" width="24" height="24" fill="currentcolor" class="icon-phone" viewBox="0 0 24 24">
  <path d="M7.10993 1.43745C7.72975 1.43267 8.3303 1.65287 8.80036 2.05708C9.27181 2.46253 9.57978 3.02562 9.66682 3.64131L9.66755 3.64644C9.78856 4.564 10.0128 5.46509 10.3362 6.33223L10.3948 6.50581C10.5161 6.91499 10.5333 7.34925 10.4439 7.76851C10.3417 8.24755 10.1043 8.68731 9.75983 9.0356L8.79597 9.99873C10.0858 12.1281 11.8713 13.9134 14.0006 15.2033L14.9644 14.2402C15.3127 13.8958 15.7525 13.6583 16.2315 13.5561C16.7099 13.4541 17.2076 13.4914 17.6656 13.663C18.4247 13.9463 19.2107 14.1534 20.0101 14.2819L20.3536 14.3325L20.3587 14.3332C20.9809 14.421 21.5491 14.7343 21.9554 15.2136C22.3587 15.6896 22.5747 16.2966 22.5626 16.9201V19.9179L22.5596 20.0512C22.5447 20.3624 22.4731 20.6689 22.348 20.955C22.205 21.2819 21.9949 21.5752 21.732 21.8164C21.4691 22.0575 21.1588 22.2411 20.8209 22.3554C20.4828 22.4697 20.1245 22.5121 19.7691 22.4799L19.7596 22.4792C16.5967 22.1355 13.5582 21.055 10.8885 19.3247L10.4263 19.0222C8.14088 17.48 6.19573 15.4822 4.71491 13.1518C2.97869 10.4701 1.89777 7.4166 1.56037 4.2397L1.55964 4.23091C1.52762 3.8766 1.56987 3.51923 1.68342 3.18208C1.79697 2.84496 1.97972 2.53515 2.21955 2.27242C2.45937 2.00973 2.75112 1.79943 3.07648 1.65572C3.4018 1.51204 3.75357 1.43783 4.1092 1.43745H7.10993ZM3.96125 2.57051C3.8132 2.58611 3.66806 2.62441 3.53132 2.68477C3.34877 2.7654 3.18466 2.88381 3.05012 3.0312C2.91573 3.17847 2.8135 3.35205 2.74982 3.54097C2.68663 3.7286 2.66235 3.92751 2.67951 4.12471C2.9989 7.12628 4.0208 10.0105 5.66193 12.5439L5.66486 12.5483C7.06275 14.7482 8.8987 16.634 11.0562 18.0898L11.492 18.3754L11.4964 18.3784C14.018 20.0135 16.8877 21.0346 19.8753 21.3601C20.0731 21.3773 20.2724 21.3534 20.4605 21.2897C20.6501 21.2256 20.8242 21.1226 20.9717 20.9873C21.1192 20.8519 21.2373 20.6872 21.3175 20.5039C21.3976 20.3205 21.4384 20.1224 21.4376 19.9223V16.9062C21.4463 16.5537 21.3257 16.2099 21.0977 15.9409C20.8698 15.6719 20.5504 15.4965 20.2012 15.4472C19.2009 15.3149 18.2184 15.0698 17.273 14.717L17.2723 14.7163C17.0151 14.6196 16.7354 14.5989 16.4666 14.6562C16.1978 14.7135 15.9509 14.8467 15.7554 15.04L14.4876 16.3078C14.3087 16.4867 14.0323 16.5242 13.8123 16.3994C11.2209 14.9258 9.07498 12.7798 7.60139 10.1884C7.47624 9.96834 7.51322 9.69146 7.69221 9.51241L8.96223 8.24239C9.15431 8.04731 9.28671 7.80119 9.34382 7.5334C9.40109 7.26468 9.38044 6.98493 9.28376 6.72774L9.28303 6.727C8.93025 5.78161 8.68513 4.79913 8.5528 3.79878L8.52863 3.67061C8.45925 3.37585 8.29843 3.1093 8.06721 2.91035C7.80279 2.68296 7.46451 2.55908 7.11579 2.56245H4.11066L3.96125 2.57051Z"/>
</svg>