<svg xmlns="http://www.w3.org/2000/svg" width="24" height="24" fill="currentcolor" class="icon-phone-forwarded" viewBox="0 0 24 24">
  <path d="M7.10993 1.4372C7.72972 1.43242 8.33031 1.65266 8.80036 2.05683C9.27178 2.46224 9.57976 3.02542 9.66682 3.64105L9.66755 3.64618C9.78856 4.56369 10.0128 5.46488 10.3363 6.33197C10.5086 6.79056 10.5461 7.28911 10.4439 7.76825C10.3417 8.24735 10.1043 8.68701 9.75983 9.03534L8.79597 9.99848C10.0857 12.1278 11.8706 13.9138 13.9998 15.2038L14.9644 14.2399C15.3127 13.8955 15.7525 13.6581 16.2315 13.5558C16.7099 13.4538 17.2076 13.4911 17.6656 13.6628C18.4247 13.946 19.2107 14.1532 20.0101 14.2817L20.3536 14.3322L20.3587 14.3329L20.5894 14.3762C21.1207 14.5016 21.5999 14.7945 21.9554 15.2141C22.3587 15.69 22.5746 16.2964 22.5626 16.9199V19.9177L22.5596 20.051C22.5447 20.3622 22.4731 20.6686 22.348 20.9548C22.205 21.2817 21.9949 21.5749 21.732 21.8161C21.4691 22.0573 21.1588 22.2409 20.8209 22.3552C20.4828 22.4695 20.1245 22.5125 19.7691 22.4804L19.7596 22.4789C16.5951 22.1351 13.5549 21.0541 10.8841 19.3222C8.40017 17.7429 6.29359 15.6359 4.71491 13.1516C2.97871 10.4698 1.89775 7.41635 1.56037 4.23944L1.55964 4.23065C1.52762 3.87635 1.56987 3.51897 1.68342 3.18183C1.79697 2.84475 1.97975 2.53486 2.21955 2.27216C2.45933 2.00954 2.7512 1.79989 3.07648 1.65619C3.40182 1.51249 3.75354 1.43757 4.1092 1.4372H7.10993ZM3.96125 2.57025C3.81311 2.58586 3.66813 2.62483 3.53132 2.68524C3.34877 2.76588 3.18466 2.88355 3.05012 3.03095C2.91563 3.17831 2.81351 3.35237 2.74982 3.54144C2.68663 3.72919 2.66226 3.92787 2.67951 4.12519C2.979 6.93895 3.89608 9.64945 5.36164 12.0646L5.66193 12.5444L5.66486 12.548C7.06274 14.7479 8.89873 16.6338 11.0562 18.0895L11.492 18.3752L11.4964 18.3781C14.0182 20.0134 16.8882 21.0344 19.876 21.3598C20.0736 21.3769 20.2726 21.353 20.4605 21.2895C20.6501 21.2254 20.8243 21.1223 20.9717 20.987C21.1192 20.8517 21.2373 20.687 21.3175 20.5036C21.3975 20.3203 21.4384 20.1221 21.4376 19.9221V16.9059C21.4463 16.5536 21.3255 16.2103 21.0977 15.9413C20.8698 15.6723 20.5504 15.4962 20.2012 15.447C19.2009 15.3146 18.2184 15.0695 17.273 14.7167C17.0158 14.6201 16.7353 14.5987 16.4666 14.6559C16.1979 14.7133 15.9509 14.8465 15.7554 15.0397L14.4876 16.3076C14.3087 16.4865 14.0324 16.524 13.8123 16.3991C11.2209 14.9256 9.07498 12.7796 7.60139 10.1882C7.47622 9.96805 7.51316 9.6912 7.69221 9.51215L8.96223 8.24213C9.15427 8.04707 9.28671 7.8009 9.34382 7.53314C9.40102 7.2646 9.38029 6.98525 9.28376 6.72821L9.28303 6.72675C8.93023 5.78131 8.68513 4.79892 8.5528 3.79852C8.50396 3.45328 8.33153 3.1375 8.06721 2.9101C7.80279 2.6827 7.46451 2.55883 7.11579 2.5622H4.11066L3.96125 2.57025ZM18.6024 0.602236C18.822 0.382599 19.1781 0.382577 19.3978 0.602236L23.3975 4.60199C23.503 4.70742 23.5623 4.8506 23.5623 4.9997C23.5623 5.14887 23.503 5.29192 23.3975 5.3974L19.3978 9.39789C19.1781 9.61742 18.822 9.61737 18.6024 9.39789C18.3827 9.17825 18.3828 8.82216 18.6024 8.60248L21.6419 5.5622H15.0003C14.6897 5.5622 14.4378 5.31036 14.4378 4.9997C14.4379 4.68915 14.6897 4.4372 15.0003 4.4372H21.6419L18.6024 1.39765C18.3827 1.17798 18.3827 0.821906 18.6024 0.602236Z"/>
</svg>