<svg xmlns="http://www.w3.org/2000/svg" width="24" height="24" fill="currentcolor" class="icon-phone-off" viewBox="0 0 24 24">
  <g clip-path="url(#a)">
    <path d="M22.6019 0.602314C22.8216 0.382684 23.1777 0.382765 23.3974 0.602314C23.617 0.821984 23.617 1.17805 23.3974 1.39772L11.4874 13.3069C12.2579 14.0233 13.1004 14.6579 14.0004 15.2031L14.9643 14.24C15.3125 13.8956 15.7523 13.6582 16.2313 13.5559C16.7099 13.4539 17.208 13.491 17.6662 13.6629C18.5337 13.9866 19.4354 14.2112 20.3534 14.3323L20.3585 14.333C20.9742 14.4201 21.5373 14.728 21.9428 15.1995C22.347 15.6695 22.5671 16.2701 22.5624 16.8899V19.8877L22.5595 20.021C22.5445 20.3322 22.4729 20.6386 22.3478 20.9248C22.2049 21.2516 21.9953 21.545 21.7326 21.7862C21.4696 22.0274 21.1587 22.2109 20.8207 22.3252C20.4827 22.4395 20.1243 22.4826 19.7689 22.4505L19.7594 22.449C16.5966 22.1053 13.558 21.0254 10.8883 19.2952L10.4276 18.9934C9.51646 18.379 8.65772 17.6902 7.85976 16.9346L1.3976 23.3975C1.17793 23.6172 0.821862 23.6172 0.602192 23.3975C0.382643 23.1778 0.382562 22.8217 0.602192 22.6021L8.87197 14.3323L10.2804 12.9136C10.2979 12.896 10.3182 12.8817 10.3375 12.8667L22.6019 0.602314ZM9.66884 15.1262L8.65957 16.1421C9.40532 16.8456 10.2067 17.4879 11.0568 18.0611L11.4911 18.3452L11.4962 18.3482C14.0182 19.9836 16.8885 21.0045 19.8766 21.3299C20.074 21.3469 20.2726 21.323 20.4603 21.2595C20.65 21.1954 20.8241 21.0924 20.9716 20.9571C21.119 20.8218 21.2371 20.6577 21.3173 20.4744C21.3975 20.291 21.4382 20.0923 21.4374 19.8921V16.8848L21.433 16.7544C21.4086 16.4525 21.2891 16.1648 21.0902 15.9334C20.8628 15.6689 20.5465 15.4959 20.2011 15.447C19.2009 15.3147 18.2188 15.0695 17.2736 14.7168H17.2721C17.0149 14.6201 16.7352 14.5987 16.4665 14.656C16.1977 14.7133 15.9507 14.8466 15.7553 15.0398L14.4874 16.3076C14.3085 16.4866 14.0322 16.5241 13.8122 16.3992C12.6851 15.7583 11.6377 14.9873 10.6913 14.103L9.66884 15.1262ZM7.10976 1.43727C7.72955 1.43248 8.33013 1.65274 8.80019 2.0569C9.2716 2.46232 9.57958 3.0255 9.66665 3.64113L9.66738 3.64626C9.78839 4.56376 10.0126 5.46496 10.3361 6.33205C10.5085 6.79064 10.5459 7.28919 10.4437 7.76833C10.3415 8.24742 10.1041 8.6871 9.75966 9.03542L8.48745 10.3076C8.26777 10.5273 7.91169 10.5273 7.69204 10.3076C7.4725 10.088 7.47244 9.73186 7.69204 9.51223L8.96206 8.24221C9.15411 8.04714 9.28654 7.80099 9.34365 7.53322C9.40086 7.26467 9.38013 6.98534 9.28359 6.72829L9.28286 6.72683C8.93006 5.78138 8.68496 4.799 8.55263 3.7986C8.50379 3.45334 8.33138 3.13758 8.06704 2.91018C7.80261 2.68277 7.46437 2.55889 7.11562 2.56227H4.11049L3.96108 2.57033C3.81294 2.58595 3.66796 2.6249 3.53115 2.68532C3.34859 2.76596 3.18449 2.88363 3.04995 3.03102C2.91547 3.17838 2.81333 3.35246 2.74965 3.54152C2.68708 3.72741 2.66306 3.92401 2.67934 4.1194L2.74819 4.67824C3.13408 7.46648 4.12773 10.1386 5.66176 12.5042C5.83066 12.7647 5.7567 13.113 5.49623 13.282C5.23558 13.451 4.8867 13.3764 4.71767 13.1157C2.98584 10.4451 1.90481 7.40539 1.56093 4.24099L1.55947 4.23073C1.52745 3.87642 1.5697 3.51905 1.68325 3.1819C1.7968 2.84482 1.97957 2.53494 2.21938 2.27224C2.45915 2.00962 2.75104 1.79998 3.07631 1.65627C3.40163 1.51257 3.75339 1.43766 4.10903 1.43727H7.10976Z"/>
  </g>
  <defs>
    <clipPath id="a">
      <path d="M0 0H24V24H0z"/>
    </clipPath>
  </defs>
</svg>