<svg xmlns="http://www.w3.org/2000/svg" width="24" height="24" fill="currentcolor" class="icon-phone-outgoing" viewBox="0 0 24 24">
  <path d="M7.10999 1.43726C7.72978 1.43248 8.33037 1.65272 8.80042 2.05688C9.27184 2.4623 9.57982 3.02548 9.66688 3.64111L9.66761 3.64624C9.78862 4.56375 10.0129 5.46493 10.3363 6.33203C10.5087 6.79062 10.5462 7.28917 10.444 7.76831C10.3418 8.24741 10.1043 8.68707 9.7599 9.0354L8.79603 9.99853C10.0858 12.1279 11.8707 13.9139 13.9999 15.2039L14.9645 14.24C15.3128 13.8956 15.7525 13.6581 16.2316 13.5559C16.7099 13.4539 17.2077 13.4912 17.6657 13.6628C18.4247 13.9461 19.2108 14.1532 20.0101 14.2817L20.3536 14.3323L20.3588 14.333L20.5895 14.3762C21.1207 14.5016 21.6 14.7945 21.9555 15.2141C22.3588 15.6901 22.5747 16.2965 22.5626 16.9199V19.9177L22.5597 20.051C22.5448 20.3622 22.4732 20.6687 22.348 20.9548C22.2051 21.2817 21.995 21.575 21.7321 21.8162C21.4691 22.0573 21.1589 22.2409 20.8209 22.3552C20.4829 22.4695 20.1246 22.5126 19.7692 22.4805L19.7597 22.479C16.5951 22.1352 13.5549 21.0542 10.8842 19.3223C8.40023 17.743 6.29365 15.636 4.71497 13.1516C2.97877 10.4699 1.89781 7.41641 1.56043 4.2395L1.5597 4.23071C1.52768 3.8764 1.56993 3.51903 1.68348 3.18188C1.79703 2.84481 1.97981 2.53491 2.21961 2.27222C2.45939 2.0096 2.75126 1.79995 3.07655 1.65625C3.40188 1.51255 3.7536 1.43763 4.10926 1.43726H7.10999ZM3.96131 2.57031C3.81317 2.58592 3.66819 2.62489 3.53138 2.6853C3.34883 2.76594 3.18472 2.88361 3.05018 3.03101C2.91569 3.17837 2.81357 3.35243 2.74988 3.5415C2.68669 3.72925 2.66232 3.92793 2.67957 4.12524C2.97906 6.93901 3.89614 9.64951 5.3617 12.0647L5.66199 12.5444L5.66492 12.5481C7.0628 14.7479 8.89879 16.6339 11.0563 18.0896L11.4921 18.3752L11.4965 18.3782C14.0182 20.0135 16.8882 21.0345 19.8761 21.3599C20.0737 21.377 20.2727 21.3531 20.4606 21.2895C20.6502 21.2254 20.8243 21.1224 20.9718 20.9871C21.1193 20.8518 21.2373 20.687 21.3175 20.5037C21.3976 20.3204 21.4384 20.1221 21.4376 19.9221V16.906C21.4464 16.5537 21.3255 16.2104 21.0978 15.9414C20.8698 15.6724 20.5504 15.4963 20.2013 15.447C19.201 15.3147 18.2184 15.0696 17.2731 14.7168C17.0159 14.6201 16.7354 14.5987 16.4667 14.656C16.1979 14.7133 15.9509 14.8466 15.7555 15.0398L14.4877 16.3076C14.3087 16.4866 14.0324 16.5241 13.8124 16.3992C11.2209 14.9256 9.07505 12.7797 7.60145 10.1882C7.47628 9.96811 7.51322 9.69126 7.69227 9.51221L8.96229 8.24219C9.15433 8.04713 9.28678 7.80096 9.34388 7.5332C9.40108 7.26466 9.38035 6.98531 9.28382 6.72827L9.28309 6.72681C8.9303 5.78136 8.68519 4.79898 8.55286 3.79858C8.50402 3.45334 8.33159 3.13756 8.06727 2.91016C7.80285 2.68276 7.46458 2.55889 7.11585 2.56226H4.11072L3.96131 2.57031ZM23.5624 7C23.5624 7.31066 23.3105 7.5625 22.9999 7.5625C22.6893 7.5624 22.4374 7.3106 22.4374 7V2.35791L16.3978 8.39746C16.1782 8.61713 15.8221 8.61713 15.6024 8.39746C15.3828 8.17778 15.3828 7.82169 15.6024 7.60205L21.642 1.5625H16.9999C16.6893 1.5624 16.4374 1.3106 16.4374 1C16.4374 0.689399 16.6893 0.437596 16.9999 0.4375H22.9999C23.3105 0.4375 23.5624 0.68934 23.5624 1V7Z"/>
</svg>