<svg xmlns="http://www.w3.org/2000/svg" width="24" height="24" fill="currentcolor" class="icon-phone-outgoing" viewBox="0 0 24 24">
  <path d="M7.10993 1.43726C7.72972 1.43248 8.33031 1.65272 8.80036 2.05688C9.27178 2.4623 9.57976 3.02548 9.66682 3.64111L9.66755 3.64624C9.78856 4.56375 10.0128 5.46493 10.3363 6.33203C10.5086 6.79062 10.5461 7.28917 10.4439 7.76831C10.3417 8.24741 10.1043 8.68707 9.75983 9.0354L8.79597 9.99853C10.0857 12.1279 11.8706 13.9139 13.9998 15.2039L14.9644 14.24C15.3127 13.8956 15.7525 13.6581 16.2315 13.5559C16.7099 13.4539 17.2076 13.4912 17.6656 13.6628C18.4247 13.9461 19.2107 14.1532 20.0101 14.2817L20.3536 14.3323L20.3587 14.333L20.5894 14.3762C21.1207 14.5016 21.5999 14.7945 21.9554 15.2141C22.3587 15.6901 22.5746 16.2965 22.5626 16.9199V19.9177L22.5596 20.051C22.5447 20.3622 22.4731 20.6687 22.348 20.9548C22.205 21.2817 21.9949 21.575 21.732 21.8162C21.4691 22.0573 21.1588 22.2409 20.8209 22.3552C20.4828 22.4695 20.1245 22.5126 19.7691 22.4805L19.7596 22.479C16.5951 22.1352 13.5549 21.0542 10.8841 19.3223C8.40017 17.743 6.29359 15.636 4.71491 13.1516C2.97871 10.4699 1.89775 7.41641 1.56037 4.2395L1.55964 4.23071C1.52762 3.8764 1.56987 3.51903 1.68342 3.18188C1.79697 2.84481 1.97975 2.53491 2.21955 2.27222C2.45933 2.0096 2.7512 1.79995 3.07648 1.65625C3.40182 1.51255 3.75354 1.43763 4.1092 1.43726H7.10993ZM3.96125 2.57031C3.81311 2.58592 3.66813 2.62489 3.53132 2.6853C3.34877 2.76594 3.18466 2.88361 3.05012 3.03101C2.91563 3.17837 2.81351 3.35243 2.74982 3.5415C2.68663 3.72925 2.66226 3.92793 2.67951 4.12524C2.979 6.93901 3.89608 9.64951 5.36164 12.0647L5.66193 12.5444L5.66486 12.5481C7.06274 14.7479 8.89873 16.6339 11.0562 18.0896L11.492 18.3752L11.4964 18.3782C14.0182 20.0135 16.8882 21.0345 19.876 21.3599C20.0736 21.377 20.2726 21.3531 20.4605 21.2895C20.6501 21.2254 20.8243 21.1224 20.9717 20.9871C21.1192 20.8518 21.2373 20.687 21.3175 20.5037C21.3975 20.3204 21.4384 20.1221 21.4376 19.9221V16.906C21.4463 16.5537 21.3255 16.2104 21.0977 15.9414C20.8698 15.6724 20.5504 15.4963 20.2012 15.447C19.2009 15.3147 18.2184 15.0696 17.273 14.7168C17.0158 14.6201 16.7353 14.5987 16.4666 14.656C16.1979 14.7133 15.9509 14.8466 15.7554 15.0398L14.4876 16.3076C14.3087 16.4866 14.0324 16.5241 13.8123 16.3992C11.2209 14.9256 9.07498 12.7797 7.60139 10.1882C7.47622 9.96811 7.51316 9.69126 7.69221 9.51221L8.96223 8.24219C9.15427 8.04713 9.28671 7.80096 9.34382 7.5332C9.40102 7.26466 9.38029 6.98531 9.28376 6.72827L9.28303 6.72681C8.93023 5.78136 8.68513 4.79898 8.5528 3.79858C8.50396 3.45334 8.33153 3.13756 8.06721 2.91016C7.80279 2.68276 7.46451 2.55889 7.11579 2.56226H4.11066L3.96125 2.57031ZM23.5623 7C23.5623 7.31066 23.3105 7.5625 22.9998 7.5625C22.6892 7.5624 22.4373 7.3106 22.4373 7V2.35791L16.3978 8.39746C16.1781 8.61713 15.822 8.61713 15.6024 8.39746C15.3828 8.17778 15.3827 7.82169 15.6024 7.60205L21.6419 1.5625H16.9998C16.6892 1.5624 16.4373 1.3106 16.4373 1C16.4373 0.689399 16.6892 0.437596 16.9998 0.4375H22.9998C23.3105 0.4375 23.5623 0.68934 23.5623 1V7Z"/>
</svg>