<svg xmlns="http://www.w3.org/2000/svg" width="24" height="24" fill="currentcolor" class="icon-phone-outgoing" viewBox="0 0 24 24">
  <path d="M7.1095 1.43726C7.72929 1.43248 8.32988 1.65272 8.79993 2.05688C9.27135 2.4623 9.57933 3.02548 9.66639 3.64111L9.66712 3.64624C9.78813 4.56375 10.0124 5.46493 10.3358 6.33203C10.5082 6.79062 10.5457 7.28917 10.4435 7.76831C10.3413 8.24741 10.1039 8.68707 9.75941 9.0354L8.79554 9.99853C10.0853 12.1279 11.8702 13.9139 13.9994 15.2039L14.964 14.24C15.3123 13.8956 15.752 13.6581 16.2311 13.5559C16.7094 13.4539 17.2072 13.4912 17.6652 13.6628C18.4242 13.9461 19.2103 14.1532 20.0097 14.2817L20.3532 14.3323L20.3583 14.333L20.589 14.3762C21.1202 14.5016 21.5995 14.7945 21.955 15.2141C22.3583 15.6901 22.5742 16.2965 22.5621 16.9199V19.9177L22.5592 20.051C22.5443 20.3622 22.4727 20.6687 22.3475 20.9548C22.2046 21.2817 21.9945 21.575 21.7316 21.8162C21.4687 22.0573 21.1584 22.2409 20.8204 22.3552C20.4824 22.4695 20.1241 22.5126 19.7687 22.4805L19.7592 22.479C16.5946 22.1352 13.5544 21.0542 10.8837 19.3223C8.39975 17.743 6.29316 15.636 4.71448 13.1516C2.97828 10.4699 1.89732 7.41641 1.55994 4.2395L1.55921 4.23071C1.52719 3.8764 1.56944 3.51903 1.68299 3.18188C1.79655 2.84481 1.97932 2.53491 2.21912 2.27222C2.4589 2.0096 2.75077 1.79995 3.07606 1.65625C3.40139 1.51255 3.75311 1.43763 4.10877 1.43726H7.1095ZM3.96082 2.57031C3.81269 2.58592 3.66771 2.62489 3.53089 2.6853C3.34834 2.76594 3.18424 2.88361 3.04969 3.03101C2.9152 3.17837 2.81308 3.35243 2.7494 3.5415C2.6862 3.72925 2.66183 3.92793 2.67908 4.12524C2.97857 6.93901 3.89565 9.64951 5.36121 12.0647L5.66151 12.5444L5.66444 12.5481C7.06231 14.7479 8.8983 16.6339 11.0558 18.0896L11.4916 18.3752L11.496 18.3782C14.0178 20.0135 16.8877 21.0345 19.8756 21.3599C20.0732 21.377 20.2722 21.3531 20.4601 21.2895C20.6497 21.2254 20.8238 21.1224 20.9713 20.9871C21.1188 20.8518 21.2369 20.687 21.317 20.5037C21.3971 20.3204 21.438 20.1221 21.4371 19.9221V16.906C21.4459 16.5537 21.325 16.2104 21.0973 15.9414C20.8694 15.6724 20.55 15.4963 20.2008 15.447C19.2005 15.3147 18.2179 15.0696 17.2726 14.7168C17.0154 14.6201 16.7349 14.5987 16.4662 14.656C16.1974 14.7133 15.9504 14.8466 15.755 15.0398L14.4872 16.3076C14.3082 16.4866 14.032 16.5241 13.8119 16.3992C11.2204 14.9256 9.07456 12.7797 7.60096 10.1882C7.4758 9.96811 7.51273 9.69126 7.69178 9.51221L8.9618 8.24219C9.15384 8.04713 9.28629 7.80096 9.34339 7.5332C9.40059 7.26466 9.37987 6.98531 9.28333 6.72827L9.2826 6.72681C8.92981 5.78136 8.6847 4.79898 8.55238 3.79858C8.50354 3.45334 8.3311 3.13756 8.06678 2.91016C7.80237 2.68276 7.46409 2.55889 7.11536 2.56226H4.11024L3.96082 2.57031ZM23.5619 7C23.5619 7.31066 23.3101 7.5625 22.9994 7.5625C22.6888 7.5624 22.4369 7.3106 22.4369 7V2.35791L16.3973 8.39746C16.1777 8.61713 15.8216 8.61713 15.6019 8.39746C15.3824 8.17778 15.3823 7.82169 15.6019 7.60205L21.6415 1.5625H16.9994C16.6888 1.5624 16.4369 1.3106 16.4369 1C16.4369 0.689399 16.6888 0.437596 16.9994 0.4375H22.9994C23.3101 0.4375 23.5619 0.68934 23.5619 1V7Z"/>
</svg>