<svg xmlns="http://www.w3.org/2000/svg" width="24" height="24" fill="currentcolor" class="icon-phone-forwarded" viewBox="0 0 24 24">
  <path d="M7.1095 1.4372C7.72929 1.43242 8.32988 1.65266 8.79993 2.05683C9.27135 2.46224 9.57933 3.02542 9.66639 3.64105L9.66712 3.64618C9.78813 4.56369 10.0124 5.46488 10.3358 6.33197C10.5082 6.79056 10.5457 7.28911 10.4435 7.76825C10.3413 8.24735 10.1039 8.68701 9.75941 9.03534L8.79554 9.99848C10.0853 12.1278 11.8702 13.9138 13.9994 15.2038L14.964 14.2399C15.3123 13.8955 15.752 13.6581 16.2311 13.5558C16.7094 13.4538 17.2072 13.4911 17.6652 13.6628C18.4242 13.946 19.2103 14.1532 20.0097 14.2817L20.3532 14.3322L20.3583 14.3329L20.589 14.3762C21.1202 14.5016 21.5995 14.7945 21.955 15.2141C22.3583 15.69 22.5742 16.2964 22.5621 16.9199V19.9177L22.5592 20.051C22.5443 20.3622 22.4727 20.6686 22.3475 20.9548C22.2046 21.2817 21.9945 21.5749 21.7316 21.8161C21.4687 22.0573 21.1584 22.2409 20.8204 22.3552C20.4824 22.4695 20.1241 22.5125 19.7687 22.4804L19.7592 22.4789C16.5946 22.1351 13.5544 21.0541 10.8837 19.3222C8.39975 17.7429 6.29316 15.6359 4.71448 13.1516C2.97828 10.4698 1.89732 7.41635 1.55994 4.23944L1.55921 4.23065C1.52719 3.87635 1.56944 3.51897 1.68299 3.18183C1.79655 2.84475 1.97932 2.53486 2.21912 2.27216C2.4589 2.00954 2.75077 1.79989 3.07606 1.65619C3.40139 1.51249 3.75311 1.43757 4.10877 1.4372H7.1095ZM3.96082 2.57025C3.81269 2.58586 3.66771 2.62483 3.53089 2.68524C3.34834 2.76588 3.18424 2.88355 3.04969 3.03095C2.9152 3.17831 2.81308 3.35237 2.7494 3.54144C2.6862 3.72919 2.66183 3.92787 2.67908 4.12519C2.97857 6.93895 3.89565 9.64945 5.36121 12.0646L5.66151 12.5444L5.66444 12.548C7.06231 14.7479 8.8983 16.6338 11.0558 18.0895L11.4916 18.3752L11.496 18.3781C14.0178 20.0134 16.8877 21.0344 19.8756 21.3598C20.0732 21.3769 20.2722 21.353 20.4601 21.2895C20.6497 21.2254 20.8238 21.1223 20.9713 20.987C21.1188 20.8517 21.2369 20.687 21.317 20.5036C21.3971 20.3203 21.438 20.1221 21.4371 19.9221V16.9059C21.4459 16.5536 21.325 16.2103 21.0973 15.9413C20.8694 15.6723 20.55 15.4962 20.2008 15.447C19.2005 15.3146 18.2179 15.0695 17.2726 14.7167C17.0154 14.6201 16.7349 14.5987 16.4662 14.6559C16.1974 14.7133 15.9504 14.8465 15.755 15.0397L14.4872 16.3076C14.3082 16.4865 14.032 16.524 13.8119 16.3991C11.2204 14.9256 9.07456 12.7796 7.60096 10.1882C7.4758 9.96805 7.51273 9.6912 7.69178 9.51215L8.9618 8.24213C9.15384 8.04707 9.28629 7.8009 9.34339 7.53314C9.40059 7.2646 9.37987 6.98525 9.28333 6.72821L9.2826 6.72675C8.92981 5.78131 8.6847 4.79892 8.55238 3.79852C8.50354 3.45328 8.3311 3.1375 8.06678 2.9101C7.80237 2.6827 7.46409 2.55883 7.11536 2.5622H4.11024L3.96082 2.57025ZM18.6019 0.602236C18.8216 0.382599 19.1777 0.382577 19.3973 0.602236L23.3971 4.60199C23.5025 4.70742 23.5618 4.8506 23.5619 4.9997C23.5619 5.14887 23.5026 5.29192 23.3971 5.3974L19.3973 9.39789C19.1777 9.61742 18.8216 9.61737 18.6019 9.39789C18.3823 9.17825 18.3824 8.82216 18.6019 8.60248L21.6415 5.5622H14.9999C14.6892 5.5622 14.4374 5.31036 14.4374 4.9997C14.4375 4.68915 14.6893 4.4372 14.9999 4.4372H21.6415L18.6019 1.39765C18.3823 1.17798 18.3823 0.821906 18.6019 0.602236Z"/>
</svg>