<svg xmlns="http://www.w3.org/2000/svg" width="24" height="24" fill="currentcolor" class="icon-phone" viewBox="0 0 24 24">
  <path d="M7.10999 1.43745C7.72981 1.43267 8.33036 1.65287 8.80042 2.05708C9.27187 2.46253 9.57984 3.02562 9.66688 3.64131L9.66761 3.64644C9.78863 4.564 10.0128 5.46509 10.3363 6.33223L10.3949 6.50581C10.5161 6.91499 10.5334 7.34925 10.444 7.76851C10.3418 8.24755 10.1043 8.68731 9.75989 9.0356L8.79603 9.99873C10.0859 12.1281 11.8713 13.9134 14.0006 15.2033L14.9645 14.2402C15.3128 13.8958 15.7525 13.6583 16.2316 13.5561C16.71 13.4541 17.2077 13.4914 17.6657 13.663C18.4247 13.9463 19.2108 14.1534 20.0101 14.2819L20.3536 14.3325L20.3588 14.3332C20.9809 14.421 21.5492 14.7343 21.9555 15.2136C22.3588 15.6896 22.5747 16.2966 22.5626 16.9201V19.9179L22.5597 20.0512C22.5447 20.3624 22.4731 20.6689 22.348 20.955C22.2051 21.2819 21.9949 21.5752 21.7321 21.8164C21.4692 22.0575 21.1589 22.2411 20.8209 22.3554C20.4829 22.4697 20.1245 22.5121 19.7692 22.4799L19.7597 22.4792C16.5968 22.1355 13.5583 21.055 10.8886 19.3247L10.4264 19.0222C8.14094 17.48 6.19579 15.4822 4.71497 13.1518C2.97875 10.4701 1.89783 7.4166 1.56043 4.2397L1.5597 4.23091C1.52768 3.8766 1.56993 3.51923 1.68348 3.18208C1.79703 2.84496 1.97978 2.53515 2.21961 2.27242C2.45943 2.00973 2.75118 1.79943 3.07654 1.65572C3.40186 1.51204 3.75363 1.43783 4.10926 1.43745H7.10999ZM3.96131 2.57051C3.81326 2.58611 3.66813 2.62441 3.53138 2.68477C3.34883 2.7654 3.18472 2.88381 3.05018 3.0312C2.9158 3.17847 2.81356 3.35205 2.74988 3.54097C2.68669 3.7286 2.66241 3.92751 2.67957 4.12471C2.99896 7.12628 4.02086 10.0105 5.66199 12.5439L5.66492 12.5483C7.06281 14.7482 8.89876 16.634 11.0563 18.0898L11.4921 18.3754L11.4965 18.3784C14.018 20.0135 16.8878 21.0346 19.8754 21.3601C20.0732 21.3773 20.2724 21.3534 20.4606 21.2897C20.6502 21.2256 20.8243 21.1226 20.9718 20.9873C21.1193 20.8519 21.2373 20.6872 21.3175 20.5039C21.3976 20.3205 21.4384 20.1224 21.4376 19.9223V16.9062C21.4464 16.5537 21.3257 16.2099 21.0978 15.9409C20.8698 15.6719 20.5504 15.4965 20.2013 15.4472C19.201 15.3149 18.2184 15.0698 17.2731 14.717L17.2723 14.7163C17.0151 14.6196 16.7354 14.5989 16.4667 14.6562C16.1979 14.7135 15.9509 14.8467 15.7555 15.04L14.4877 16.3078C14.3087 16.4867 14.0324 16.5242 13.8124 16.3994C11.221 14.9258 9.07504 12.7798 7.60145 10.1884C7.4763 9.96834 7.51328 9.69146 7.69227 9.51241L8.96229 8.24239C9.15437 8.04731 9.28677 7.80119 9.34388 7.5334C9.40115 7.26468 9.3805 6.98493 9.28382 6.72774L9.28309 6.727C8.93031 5.78161 8.68519 4.79913 8.55286 3.79878L8.52869 3.67061C8.45931 3.37585 8.29849 3.1093 8.06727 2.91035C7.80285 2.68296 7.46458 2.55908 7.11585 2.56245H4.11072L3.96131 2.57051Z"/>
</svg>