<svg xmlns="http://www.w3.org/2000/svg" width="24" height="24" fill="currentcolor" class="icon-phone-off" viewBox="0 0 24 24">
  <g clip-path="url(#a)">
    <path d="M22.602 0.602314C22.8217 0.382684 23.1778 0.382765 23.3975 0.602314C23.6171 0.821984 23.6171 1.17805 23.3975 1.39772L11.4875 13.3069C12.258 14.0233 13.1005 14.6579 14.0005 15.2031L14.9643 14.24C15.3126 13.8956 15.7524 13.6582 16.2314 13.5559C16.71 13.4539 17.2081 13.491 17.6662 13.6629C18.5338 13.9866 19.4355 14.2112 20.3535 14.3323L20.3586 14.333C20.9743 14.4201 21.5374 14.728 21.9429 15.1995C22.3471 15.6695 22.5672 16.2701 22.5625 16.8899V19.8877L22.5596 20.021C22.5446 20.3322 22.473 20.6386 22.3479 20.9248C22.205 21.2516 21.9954 21.545 21.7327 21.7862C21.4697 22.0274 21.1588 22.2109 20.8208 22.3252C20.4828 22.4395 20.1244 22.4826 19.769 22.4505L19.7595 22.449C16.5967 22.1053 13.5581 21.0254 10.8884 19.2952L10.4277 18.9934C9.51655 18.379 8.65781 17.6902 7.85985 16.9346L1.39769 23.3975C1.17802 23.6172 0.821953 23.6172 0.602283 23.3975C0.382735 23.1778 0.382654 22.8217 0.602283 22.6021L8.87206 14.3323L10.2805 12.9136C10.298 12.896 10.3182 12.8817 10.3376 12.8667L22.602 0.602314ZM9.66893 15.1262L8.65966 16.1421C9.40541 16.8456 10.2068 17.4879 11.0569 18.0611L11.4912 18.3452L11.4963 18.3482C14.0183 19.9836 16.8886 21.0045 19.8767 21.3299C20.0741 21.3469 20.2727 21.323 20.4604 21.2595C20.6501 21.1954 20.8242 21.0924 20.9717 20.9571C21.1191 20.8218 21.2372 20.6577 21.3174 20.4744C21.3976 20.291 21.4383 20.0923 21.4375 19.8921V16.8848L21.4331 16.7544C21.4087 16.4525 21.2892 16.1648 21.0903 15.9334C20.8629 15.6689 20.5466 15.4959 20.2012 15.447C19.201 15.3147 18.2189 15.0695 17.2737 14.7168H17.2722C17.015 14.6201 16.7353 14.5987 16.4665 14.656C16.1978 14.7133 15.9508 14.8466 15.7554 15.0398L14.4875 16.3076C14.3086 16.4866 14.0323 16.5241 13.8122 16.3992C12.6852 15.7583 11.6378 14.9873 10.6914 14.103L9.66893 15.1262ZM7.10985 1.43727C7.72964 1.43248 8.33022 1.65274 8.80028 2.0569C9.2717 2.46232 9.57967 3.0255 9.66674 3.64113L9.66747 3.64626C9.78848 4.56376 10.0127 5.46496 10.3362 6.33205C10.5086 6.79064 10.546 7.28919 10.4438 7.76833C10.3416 8.24742 10.1042 8.6871 9.75975 9.03542L8.48754 10.3076C8.26787 10.5273 7.91179 10.5273 7.69213 10.3076C7.47259 10.088 7.47253 9.73186 7.69213 9.51223L8.96215 8.24221C9.15421 8.04714 9.28663 7.80099 9.34374 7.53322C9.40095 7.26467 9.38022 6.98534 9.28368 6.72829L9.28295 6.72683C8.93015 5.78138 8.68505 4.799 8.55272 3.7986C8.50388 3.45334 8.33147 3.13758 8.06713 2.91018C7.8027 2.68277 7.46446 2.55889 7.11571 2.56227H4.11058L3.96117 2.57033C3.81304 2.58595 3.66805 2.6249 3.53124 2.68532C3.34869 2.76596 3.18458 2.88363 3.05004 3.03102C2.91556 3.17838 2.81342 3.35246 2.74974 3.54152C2.68717 3.72741 2.66315 3.92401 2.67943 4.1194L2.74828 4.67824C3.13417 7.46648 4.12782 10.1386 5.66185 12.5042C5.83075 12.7647 5.75679 13.113 5.49633 13.282C5.23568 13.451 4.88679 13.3764 4.71776 13.1157C2.98593 10.4451 1.9049 7.40539 1.56102 4.24099L1.55956 4.23073C1.52754 3.87642 1.56979 3.51905 1.68334 3.1819C1.79689 2.84482 1.97966 2.53494 2.21947 2.27224C2.45924 2.00962 2.75113 1.79998 3.0764 1.65627C3.40172 1.51257 3.75348 1.43766 4.10912 1.43727H7.10985Z"/>
  </g>
  <defs>
    <clipPath id="a">
      <path d="M0 0H24V24H0z"/>
    </clipPath>
  </defs>
</svg>