<svg xmlns="http://www.w3.org/2000/svg" width="24" height="24" fill="currentcolor" class="icon-phone-missed" viewBox="0 0 24 24">
  <path d="M7.10999 1.43729C7.72978 1.43251 8.33037 1.65275 8.80042 2.05692C9.27184 2.46234 9.57982 3.02551 9.66688 3.64115L9.66761 3.64628C9.78862 4.56379 10.0129 5.46497 10.3363 6.33207C10.5087 6.79066 10.5462 7.2892 10.444 7.76835C10.3418 8.24744 10.1043 8.68711 9.75989 9.03544L8.79603 9.99857C10.0858 12.1279 11.8707 13.9139 13.9999 15.2039L14.9645 14.24C15.3128 13.8956 15.7525 13.6582 16.2316 13.5559C16.7099 13.4539 17.2077 13.4912 17.6657 13.6629C18.4247 13.9461 19.2108 14.1533 20.0101 14.2818L20.3536 14.3323L20.3588 14.333L20.5895 14.3763C21.1207 14.5017 21.5999 14.7946 21.9555 15.2141C22.3588 15.6901 22.5747 16.2965 22.5626 16.92V19.9178L22.5597 20.0511C22.5448 20.3623 22.4732 20.6687 22.348 20.9549C22.2051 21.2818 21.995 21.575 21.7321 21.8162C21.4691 22.0574 21.1589 22.241 20.8209 22.3553C20.4829 22.4696 20.1246 22.5126 19.7692 22.4805L19.7597 22.479C16.5951 22.1352 13.5549 21.0542 10.8842 19.3223C8.40023 17.743 6.29365 15.636 4.71497 13.1516C2.97877 10.4699 1.89781 7.41644 1.56043 4.23954L1.5597 4.23075C1.52768 3.87644 1.56993 3.51906 1.68348 3.18192C1.79703 2.84484 1.97981 2.53495 2.21961 2.27225C2.45939 2.00964 2.75126 1.79999 3.07654 1.65629C3.40188 1.51258 3.7536 1.43766 4.10926 1.43729H7.10999ZM3.96131 2.57035C3.81317 2.58596 3.66819 2.62492 3.53138 2.68534C3.34883 2.76597 3.18472 2.88365 3.05018 3.03104C2.91569 3.17841 2.81357 3.35247 2.74988 3.54154C2.68669 3.72928 2.66232 3.92797 2.67957 4.12528C2.97906 6.93905 3.89614 9.64954 5.3617 12.0647L5.66199 12.5445L5.66492 12.5481C7.0628 14.748 8.89879 16.6339 11.0563 18.0896L11.4921 18.3753L11.4965 18.3782C14.0182 20.0135 16.8882 21.0345 19.8761 21.3599C20.0737 21.377 20.2727 21.3531 20.4606 21.2896C20.6502 21.2255 20.8243 21.1224 20.9718 20.9871C21.1193 20.8518 21.2373 20.6871 21.3175 20.5037C21.3976 20.3204 21.4384 20.1222 21.4376 19.9222V16.906C21.4464 16.5537 21.3255 16.2104 21.0978 15.9414C20.8698 15.6724 20.5504 15.4963 20.2013 15.4471C19.201 15.3147 18.2184 15.0696 17.2731 14.7168C17.0159 14.6202 16.7354 14.5988 16.4667 14.656C16.1979 14.7134 15.9509 14.8466 15.7555 15.0398L14.4877 16.3077C14.3087 16.4866 14.0324 16.5241 13.8124 16.3992C11.2209 14.9257 9.07504 12.7797 7.60145 10.1883C7.47628 9.96815 7.51322 9.69129 7.69227 9.51224L8.96229 8.24222C9.15433 8.04716 9.28678 7.80099 9.34388 7.53324C9.40108 7.2647 9.38035 6.98534 9.28382 6.72831L9.28309 6.72684C8.93029 5.7814 8.68519 4.79901 8.55286 3.79862C8.50402 3.45337 8.33159 3.13759 8.06727 2.91019C7.80285 2.6828 7.46458 2.55892 7.11585 2.56229H4.11072L3.96131 2.57035ZM22.6022 0.60233C22.8218 0.38269 23.1779 0.382749 23.3976 0.60233C23.6173 0.822 23.6173 1.17807 23.3976 1.39774L20.7953 4.00004L23.3976 6.60233C23.6173 6.822 23.6173 7.17807 23.3976 7.39774C23.1779 7.61732 22.8218 7.61738 22.6022 7.39774L19.9999 4.79545L17.3976 7.39774C17.1779 7.61732 16.8218 7.61738 16.6022 7.39774C16.3826 7.17809 16.3826 6.82198 16.6022 6.60233L19.2045 4.00004L16.6022 1.39774C16.3826 1.17809 16.3826 0.821978 16.6022 0.60233C16.8218 0.38269 17.1779 0.382749 17.3976 0.60233L19.9999 3.20463L22.6022 0.60233Z"/>
</svg>