<svg xmlns="http://www.w3.org/2000/svg" width="24" height="24" fill="currentcolor" class="icon-phone-call" viewBox="0 0 24 24">
  <path d="M7.24763 1.68758C7.86744 1.6828 8.46799 1.903 8.93806 2.30721C9.40951 2.71265 9.71748 3.27574 9.80451 3.89143L9.80524 3.89656C9.92626 4.81412 10.1505 5.71522 10.4739 6.58235L10.5325 6.75594C10.6538 7.16511 10.671 7.59937 10.5816 8.01863C10.4794 8.49767 10.2419 8.93743 9.89753 9.28572L8.93366 10.2489C10.2235 12.3782 12.009 14.1635 14.1383 15.4534L15.1021 14.4903C15.4504 14.1459 15.8902 13.9084 16.3692 13.8062C16.8476 13.7042 17.3453 13.7415 17.8033 13.9132C18.5624 14.1964 19.3484 14.4035 20.1478 14.5321L20.4913 14.5826L20.4964 14.5833C21.1186 14.6711 21.6868 14.9844 22.0931 15.4637C22.4964 15.9397 22.7124 16.5468 22.7003 17.1702V20.168L22.6973 20.3013C22.6824 20.6125 22.6108 20.919 22.4857 21.2052C22.3427 21.532 22.1326 21.8253 21.8697 22.0665C21.6068 22.3076 21.2965 22.4913 20.9586 22.6055C20.6205 22.7199 20.2622 22.7622 19.9068 22.7301L19.8973 22.7293C16.7344 22.3857 13.6959 21.3051 11.0262 19.5748L10.564 19.2723C8.27858 17.7301 6.33342 15.7323 4.85261 13.4019C3.11639 10.7202 2.03547 7.66672 1.69807 4.48982L1.69733 4.48103C1.66532 4.12672 1.70756 3.76935 1.82111 3.43221C1.93467 3.09508 2.11741 2.78527 2.35725 2.52254C2.59707 2.25985 2.88881 2.04956 3.21418 1.90584C3.53949 1.76216 3.89127 1.68795 4.24689 1.68758H7.24763ZM4.09894 2.82063C3.95089 2.83623 3.80576 2.87453 3.66901 2.93489C3.48646 3.01553 3.32236 3.13393 3.18781 3.28133C3.05343 3.4286 2.9512 3.60217 2.88752 3.79109C2.82433 3.97872 2.80004 4.17763 2.81721 4.37483C3.13659 7.3764 4.15849 10.2606 5.79963 12.794L5.80256 12.7984C7.20045 14.9983 9.0364 16.8842 11.1939 18.3399L11.6297 18.6256L11.6341 18.6285C14.1557 20.2636 17.0254 21.2847 20.013 21.6102C20.2108 21.6274 20.4101 21.6035 20.5982 21.5399C20.7878 21.4757 20.9619 21.3727 21.1094 21.2374C21.2569 21.1021 21.375 20.9374 21.4551 20.754C21.5353 20.5707 21.5761 20.3725 21.5753 20.1724V17.1563C21.584 16.8038 21.4634 16.46 21.2354 16.191C21.0075 15.922 20.6881 15.7466 20.3389 15.6973C19.3386 15.565 18.3561 15.3199 17.4107 14.9671L17.41 14.9664C17.1528 14.8697 16.873 14.849 16.6043 14.9063C16.3355 14.9637 16.0886 15.0969 15.8931 15.2901L14.6253 16.5579C14.4464 16.7368 14.17 16.7744 13.95 16.6495C11.3586 15.176 9.21268 13.0299 7.73908 10.4386C7.61394 10.2185 7.65091 9.94158 7.8299 9.76253L9.09992 8.49251C9.292 8.29743 9.4244 8.05131 9.48151 7.78352C9.53878 7.5148 9.51813 7.23505 9.42145 6.97786L9.42072 6.97713C9.06795 6.03173 8.82283 5.04925 8.6905 4.0489L8.66633 3.92073C8.59694 3.62597 8.43612 3.35942 8.2049 3.16048C7.94049 2.93308 7.60221 2.80921 7.25349 2.81258H4.24836L4.09894 2.82063Z"/>
</svg>