<svg xmlns="http://www.w3.org/2000/svg" width="24" height="24" fill="currentcolor" class="icon-pie-chart" viewBox="0 0 24 24">
  <path d="M7.77472 2.31421C8.0594 2.18998 8.39089 2.32036 8.5152 2.60498C8.63942 2.88964 8.50975 3.22114 8.22516 3.34546C6.81225 3.96203 5.57149 4.91539 4.61212 6.12207C3.6528 7.32871 3.00396 8.75211 2.72174 10.2676C2.43953 11.7831 2.53275 13.3448 2.99347 14.8159C3.45418 16.2869 4.26814 17.6228 5.36432 18.7065C6.46058 19.7904 7.80576 20.5896 9.28204 21.0334C10.7583 21.4773 12.3211 21.5527 13.8333 21.2532C15.3454 20.9537 16.7613 20.2882 17.9568 19.3152C19.1525 18.3421 20.0913 17.0905 20.6917 15.6707C20.8128 15.3846 21.1432 15.2509 21.4293 15.3718C21.7153 15.4929 21.8491 15.8233 21.7281 16.1094C21.0561 17.6984 20.0047 19.0985 18.6666 20.1875C17.3284 21.2765 15.744 22.021 14.0516 22.3562C12.3591 22.6914 10.6106 22.6069 8.95831 22.1101C7.30605 21.6133 5.80025 20.7194 4.5733 19.5063C3.3465 18.2934 2.43534 16.7985 1.91974 15.1521C1.40411 13.5056 1.29994 11.7579 1.61578 10.0618C1.93164 8.36558 2.65802 6.77239 3.73175 5.42187C4.80544 4.07143 6.19348 3.00427 7.77472 2.31421ZM12.0001 1.4375C13.3871 1.43751 14.7608 1.71089 16.0423 2.2417C17.3237 2.7725 18.4878 3.55053 19.4686 4.53125C20.4494 5.51207 21.2273 6.67675 21.7581 7.95825C22.2889 9.23963 22.5623 10.6128 22.5623 11.9998C22.5623 12.3104 22.3105 12.5623 21.9998 12.5623H12.0001C11.6894 12.5623 11.4376 12.3104 11.4376 11.9998V2C11.4376 1.85082 11.4969 1.70778 11.6024 1.60229C11.7078 1.49683 11.8509 1.4375 12.0001 1.4375ZM12.5626 11.4373H21.4197C21.3572 10.3904 21.1212 9.35954 20.7188 8.38818C20.2445 7.24329 19.5494 6.20294 18.6732 5.32666C17.7968 4.45037 16.7566 3.75527 15.6116 3.28101C14.6402 2.87863 13.6095 2.6426 12.5626 2.58008V11.4373Z"/>
</svg>