<svg xmlns="http://www.w3.org/2000/svg" width="24" height="24" fill="currentcolor" class="icon-pie-chart" viewBox="0 0 24 24">
  <path d="M7.77502 2.31421C8.0597 2.18998 8.3912 2.32036 8.5155 2.60498C8.63973 2.88964 8.51005 3.22114 8.22546 3.34546C6.81256 3.96203 5.5718 4.91539 4.61243 6.12207C3.65311 7.32871 3.00426 8.75211 2.72205 10.2676C2.43983 11.7831 2.53306 13.3448 2.99377 14.8159C3.45448 16.2869 4.26844 17.6228 5.36462 18.7065C6.46089 19.7904 7.80606 20.5896 9.28235 21.0334C10.7586 21.4773 12.3214 21.5527 13.8336 21.2532C15.3457 20.9537 16.7616 20.2882 17.9572 19.3152C19.1528 18.3421 20.0916 17.0905 20.692 15.6707C20.8131 15.3846 21.1435 15.2509 21.4296 15.3718C21.7156 15.4929 21.8494 15.8233 21.7284 16.1094C21.0564 17.6984 20.005 19.0985 18.6669 20.1875C17.3287 21.2765 15.7443 22.021 14.0519 22.3562C12.3594 22.6914 10.6109 22.6069 8.95862 22.1101C7.30635 21.6133 5.80056 20.7194 4.57361 19.5063C3.3468 18.2934 2.43565 16.7985 1.92004 15.1521C1.40441 13.5056 1.30025 11.7579 1.61609 10.0618C1.93195 8.36558 2.65833 6.77239 3.73206 5.42187C4.80575 4.07143 6.19378 3.00427 7.77502 2.31421ZM12.0004 1.4375C13.3874 1.43751 14.7611 1.71089 16.0426 2.2417C17.324 2.7725 18.4881 3.55053 19.4689 4.53125C20.4497 5.51207 21.2276 6.67675 21.7584 7.95825C22.2892 9.23963 22.5626 10.6128 22.5626 11.9998C22.5626 12.3104 22.3108 12.5623 22.0001 12.5623H12.0004C11.6897 12.5623 11.4379 12.3104 11.4379 11.9998V2C11.4379 1.85082 11.4972 1.70778 11.6027 1.60229C11.7081 1.49683 11.8512 1.4375 12.0004 1.4375ZM12.5629 11.4373H21.42C21.3575 10.3904 21.1215 9.35954 20.7191 8.38818C20.2448 7.24329 19.5497 6.20294 18.6735 5.32666C17.7972 4.45037 16.7569 3.75527 15.6119 3.28101C14.6405 2.87863 13.6098 2.6426 12.5629 2.58008V11.4373Z"/>
</svg>