<svg xmlns="http://www.w3.org/2000/svg" width="24" height="24" fill="currentcolor" class="icon-pie-chart" viewBox="0 0 24 24">
  <path d="M7.77454 2.31421C8.05921 2.18998 8.39071 2.32036 8.51502 2.60498C8.63924 2.88964 8.50956 3.22114 8.22498 3.34546C6.81207 3.96203 5.57131 4.91539 4.61194 6.12207C3.65262 7.32871 3.00377 8.75211 2.72156 10.2676C2.43934 11.7831 2.53257 13.3448 2.99329 14.8159C3.45399 16.2869 4.26796 17.6228 5.36414 18.7065C6.4604 19.7904 7.80557 20.5896 9.28186 21.0334C10.7581 21.4773 12.3209 21.5527 13.8331 21.2532C15.3453 20.9537 16.7611 20.2882 17.9567 19.3152C19.1523 18.3421 20.0911 17.0905 20.6915 15.6707C20.8126 15.3846 21.143 15.2509 21.4291 15.3718C21.7151 15.4929 21.8489 15.8233 21.7279 16.1094C21.0559 17.6984 20.0045 19.0985 18.6664 20.1875C17.3282 21.2765 15.7438 22.021 14.0514 22.3562C12.359 22.6914 10.6104 22.6069 8.95813 22.1101C7.30586 21.6133 5.80007 20.7194 4.57312 19.5063C3.34632 18.2934 2.43516 16.7985 1.91956 15.1521C1.40392 13.5056 1.29976 11.7579 1.6156 10.0618C1.93146 8.36558 2.65784 6.77239 3.73157 5.42187C4.80526 4.07143 6.19329 3.00427 7.77454 2.31421ZM11.9999 1.4375C13.3869 1.43751 14.7606 1.71089 16.0421 2.2417C17.3235 2.7725 18.4876 3.55053 19.4684 4.53125C20.4492 5.51207 21.2271 6.67675 21.7579 7.95825C22.2887 9.23963 22.5621 10.6128 22.5621 11.9998C22.5621 12.3104 22.3103 12.5623 21.9996 12.5623H11.9999C11.6892 12.5623 11.4374 12.3104 11.4374 11.9998V2C11.4374 1.85082 11.4967 1.70778 11.6022 1.60229C11.7077 1.49683 11.8507 1.4375 11.9999 1.4375ZM12.5624 11.4373H21.4196C21.357 10.3904 21.121 9.35954 20.7186 8.38818C20.2444 7.24329 19.5492 6.20294 18.673 5.32666C17.7967 4.45037 16.7564 3.75527 15.6115 3.28101C14.64 2.87863 13.6093 2.6426 12.5624 2.58008V11.4373Z"/>
</svg>