<svg xmlns="http://www.w3.org/2000/svg" width="24" height="24" fill="currentcolor" class="icon-play-circle" viewBox="0 0 24 24">
  <path d="M21.4377 11.9998C21.4376 6.78768 17.2119 2.5625 11.9998 2.5625C6.78776 2.56263 2.56263 6.78776 2.5625 11.9998C2.5625 17.2119 6.78768 21.4376 11.9998 21.4377C17.2119 21.4377 21.4377 17.2119 21.4377 11.9998ZM9.73438 7.50415C9.91728 7.40626 10.1396 7.41691 10.3123 7.53198L16.3123 11.5317C16.4686 11.636 16.5627 11.8118 16.5627 11.9998C16.5627 12.1877 16.4686 12.3634 16.3123 12.4678L10.3123 16.4683C10.1396 16.5833 9.91728 16.594 9.73438 16.4961C9.5516 16.3982 9.43783 16.2076 9.43774 16.0002V8C9.43774 7.79263 9.55159 7.60207 9.73438 7.50415ZM10.5627 14.9485L14.9858 11.9998L10.5627 9.05029V14.9485ZM22.5627 11.9998C22.5627 17.8333 17.8333 22.5627 11.9998 22.5627C6.16636 22.5626 1.4375 17.8332 1.4375 11.9998C1.43763 6.16644 6.16644 1.43763 11.9998 1.4375C17.8332 1.4375 22.5626 6.16636 22.5627 11.9998Z"/>
</svg>