<svg xmlns="http://www.w3.org/2000/svg" width="24" height="24" fill="currentcolor" class="icon-plus" viewBox="0 0 24 24">
  <path d="M11.4373 19.0002V12.5623H5C4.68934 12.5623 4.4375 12.3104 4.4375 11.9998C4.43763 11.6892 4.68942 11.4373 5 11.4373H11.4373V5C11.4373 4.68942 11.6892 4.43763 11.9998 4.4375C12.3104 4.4375 12.5623 4.68934 12.5623 5V11.4373H19.0002C19.3107 11.4374 19.5626 11.6893 19.5627 11.9998C19.5627 12.3103 19.3108 12.5621 19.0002 12.5623H12.5623V19.0002C12.5621 19.3108 12.3103 19.5627 11.9998 19.5627C11.6893 19.5626 11.4374 19.3107 11.4373 19.0002Z"/>
</svg>