<svg xmlns="http://www.w3.org/2000/svg" width="24" height="24" fill="currentcolor" class="icon-plus-square" viewBox="0 0 24 24">
  <path d="M20.4375 5.00024C20.4375 4.20633 19.7937 3.5625 18.9998 3.5625H5.00024C4.20633 3.5625 3.5625 4.20633 3.5625 5.00024V18.9998C3.5625 19.7937 4.20633 20.4375 5.00024 20.4375H18.9998C19.7937 20.4375 20.4375 19.7937 20.4375 18.9998V5.00024ZM11.4375 15.9998V12.5625H8.00024C7.68958 12.5625 7.43774 12.3107 7.43774 12C7.43774 11.6893 7.68958 11.4375 8.00024 11.4375H11.4375V8.00024C11.4375 7.68958 11.6893 7.43774 12 7.43774C12.3107 7.43774 12.5625 7.68958 12.5625 8.00024V11.4375H15.9998C16.3104 11.4375 16.5623 11.6893 16.5623 12C16.5623 12.3107 16.3104 12.5625 15.9998 12.5625H12.5625V15.9998C12.5625 16.3104 12.3107 16.5623 12 16.5623C11.6893 16.5623 11.4375 16.3104 11.4375 15.9998ZM21.5625 18.9998C21.5625 20.415 20.415 21.5625 18.9998 21.5625H5.00024C3.58501 21.5625 2.4375 20.415 2.4375 18.9998V5.00024C2.4375 3.58501 3.58501 2.4375 5.00024 2.4375H18.9998C20.415 2.4375 21.5625 3.58501 21.5625 5.00024V18.9998Z"/>
</svg>