<svg xmlns="http://www.w3.org/2000/svg" width="24" height="24" fill="currentcolor" class="icon-plus-circle" viewBox="0 0 24 24">
  <path d="M21.4377 11.9998C21.4376 6.78768 17.2119 2.5625 11.9998 2.5625C6.78776 2.56263 2.56263 6.78776 2.5625 11.9998C2.5625 17.2119 6.78768 21.4376 11.9998 21.4377C17.2119 21.4377 21.4377 17.2119 21.4377 11.9998ZM11.4373 16.0002V12.5623H8C7.68934 12.5623 7.4375 12.3104 7.4375 11.9998C7.43763 11.6892 7.68942 11.4373 8 11.4373H11.4373V8C11.4373 7.68942 11.6892 7.43763 11.9998 7.4375C12.3104 7.4375 12.5623 7.68934 12.5623 8V11.4373H16.0002C16.3107 11.4374 16.5626 11.6893 16.5627 11.9998C16.5627 12.3103 16.3108 12.5621 16.0002 12.5623H12.5623V16.0002C12.5621 16.3108 12.3103 16.5627 11.9998 16.5627C11.6893 16.5626 11.4374 16.3107 11.4373 16.0002ZM22.5627 11.9998C22.5627 17.8333 17.8333 22.5627 11.9998 22.5627C6.16636 22.5626 1.4375 17.8332 1.4375 11.9998C1.43763 6.16644 6.16644 1.43763 11.9998 1.4375C17.8332 1.4375 22.5626 6.16636 22.5627 11.9998Z"/>
</svg>