<svg xmlns="http://www.w3.org/2000/svg" width="24" height="24" fill="currentcolor" class="icon-pocket" viewBox="0 0 24 24">
  <path d="M21.4377 5.00024C21.4377 4.61905 21.2861 4.25321 21.0166 3.98364C20.7807 3.74777 20.4712 3.60251 20.1421 3.56982L20 3.5625H4.00024C3.619 3.5625 3.25323 3.71406 2.98364 3.98364C2.71406 4.25323 2.5625 4.619 2.5625 5.00024V11.0002C2.56256 13.5031 3.55684 15.9035 5.32666 17.6733C6.20295 18.5496 7.24327 19.2447 8.38818 19.719C9.53312 20.1932 10.7605 20.4375 11.9998 20.4375C14.5027 20.4375 16.9037 19.4432 18.6736 17.6733C20.4433 15.9035 21.4377 13.5031 21.4377 11.0002V5.00024ZM15.6025 9.60205C15.8222 9.38262 16.1784 9.38246 16.3979 9.60205C16.6175 9.82164 16.6174 10.1778 16.3979 10.3975L12.3975 14.3979C12.1778 14.6174 11.8216 14.6175 11.6021 14.3979L7.60229 10.3975C7.38275 10.1778 7.38267 9.82168 7.60229 9.60205C7.82193 9.38254 8.17807 9.38254 8.39771 9.60205L11.9998 13.2041L15.6025 9.60205ZM22.5627 11.0002C22.5627 13.8014 21.4497 16.488 19.469 18.4688C17.4881 20.4496 14.8011 21.5625 11.9998 21.5625C10.6128 21.5625 9.23961 21.289 7.95825 20.7583C6.67675 20.2275 5.51207 19.4496 4.53125 18.4688C2.55045 16.488 1.43756 13.8015 1.4375 11.0002V5.00024C1.4375 4.32063 1.70767 3.66879 2.18823 3.18823C2.66879 2.70767 3.32063 2.4375 4.00024 2.4375H20L20.1267 2.44043C20.7602 2.47177 21.3614 2.73762 21.812 3.18823C22.2925 3.66878 22.5627 4.32068 22.5627 5.00024V11.0002Z"/>
</svg>