<svg xmlns="http://www.w3.org/2000/svg" width="24" height="24" fill="currentcolor" class="icon-power" viewBox="0 0 24 24">
  <path d="M17.962 6.24219C18.1816 6.02264 18.5377 6.02273 18.7574 6.24219C20.0944 7.57961 21.0048 9.28363 21.3736 11.1384C21.7423 12.9933 21.5532 14.916 20.8294 16.6631C20.1055 18.4102 18.8797 19.9037 17.3072 20.9543C15.7347 22.0049 13.886 22.5657 11.9949 22.5657C10.1038 22.5657 8.25511 22.0049 6.68267 20.9543C5.11019 19.9037 3.8843 18.4102 3.16045 16.6631C2.43661 14.916 2.24754 12.9933 2.61626 11.1384C2.985 9.28363 3.89548 7.57962 5.23247 6.24219C5.45212 6.02273 5.80826 6.02263 6.02788 6.24219C6.24741 6.46179 6.24735 6.81793 6.02788 7.0376C4.84815 8.21771 4.04463 9.72151 3.71929 11.3582C3.39403 12.9947 3.56113 14.6909 4.19975 16.2324C4.83841 17.7739 5.92007 19.0913 7.30742 20.0183C8.6949 20.9453 10.3263 21.4407 11.9949 21.4407C13.6636 21.4407 15.2949 20.9453 16.6824 20.0183C18.0698 19.0913 19.1514 17.7739 19.7901 16.2324C20.4287 14.6909 20.5958 12.9947 20.2706 11.3582C19.9452 9.72151 19.1417 8.21771 17.962 7.0376C17.7425 6.81793 17.7424 6.46179 17.962 6.24219ZM11.4375 11.9998V2C11.4375 1.68934 11.6894 1.4375 12 1.4375C12.3107 1.43757 12.5625 1.68938 12.5625 2V11.9998C12.5625 12.3104 12.3107 12.5622 12 12.5623C11.6894 12.5623 11.4375 12.3104 11.4375 11.9998Z"/>
</svg>