<svg xmlns="http://www.w3.org/2000/svg" width="24" height="24" fill="currentcolor" class="icon-power" viewBox="0 0 24 24">
  <path d="M17.962 6.24219C18.1816 6.02264 18.5378 6.02273 18.7574 6.24219C20.0944 7.57961 21.0049 9.28363 21.3736 11.1384C21.7424 12.9933 21.5533 14.916 20.8295 16.6631C20.1056 18.4102 18.8797 19.9037 17.3072 20.9543C15.7348 22.0049 13.8861 22.5657 11.995 22.5657C10.1039 22.5657 8.25517 22.0049 6.68273 20.9543C5.11025 19.9037 3.88436 18.4102 3.16051 16.6631C2.43667 14.916 2.2476 12.9933 2.61632 11.1384C2.98506 9.28363 3.89554 7.57962 5.23253 6.24219C5.45218 6.02273 5.80832 6.02263 6.02794 6.24219C6.24747 6.46179 6.24742 6.81793 6.02794 7.0376C4.84821 8.21771 4.04469 9.72151 3.71935 11.3582C3.39409 12.9947 3.56119 14.6909 4.19982 16.2324C4.83847 17.7739 5.92013 19.0913 7.30748 20.0183C8.69496 20.9453 10.3263 21.4407 11.995 21.4407C13.6636 21.4407 15.295 20.9453 16.6825 20.0183C18.0698 19.0913 19.1515 17.7739 19.7901 16.2324C20.4288 14.6909 20.5959 12.9947 20.2706 11.3582C19.9453 9.72151 19.1418 8.21771 17.962 7.0376C17.7426 6.81793 17.7425 6.46179 17.962 6.24219ZM11.4376 11.9998V2C11.4376 1.68934 11.6894 1.4375 12.0001 1.4375C12.3107 1.43757 12.5626 1.68938 12.5626 2V11.9998C12.5626 12.3104 12.3107 12.5622 12.0001 12.5623C11.6894 12.5623 11.4376 12.3104 11.4376 11.9998Z"/>
</svg>