<svg xmlns="http://www.w3.org/2000/svg" width="24" height="24" fill="currentcolor" class="icon-printer" viewBox="0 0 24 24">
  <path d="M17.9998 13.4375C18.3104 13.4375 18.5623 13.6893 18.5623 14V17.4373H20C20.3812 17.4373 20.747 17.2857 21.0166 17.0161C21.286 16.7466 21.4377 16.3813 21.4377 16.0002V11C21.4377 10.6188 21.2862 10.253 21.0166 9.9834C20.747 9.71381 20.3812 9.56226 20 9.56226H4.00024C3.61905 9.56226 3.25321 9.71389 2.98364 9.9834C2.71406 10.253 2.5625 10.6188 2.5625 11V16.0002C2.56256 16.3813 2.71419 16.7466 2.98364 17.0161C3.25323 17.2857 3.619 17.4373 4.00024 17.4373H5.43726V14C5.43726 13.6894 5.68921 13.4376 5.99976 13.4375H17.9998ZM6.56226 21.4377H17.4373V14.5625H6.56226V21.4377ZM6.56226 8.43726H17.4373V2.5625H6.56226V8.43726ZM22.5627 16.0002C22.5627 16.6798 22.2925 17.3318 21.812 17.8123C21.3315 18.2927 20.6796 18.5623 20 18.5623H18.5623V22.0002C18.5621 22.3108 18.3103 22.5627 17.9998 22.5627H5.99976C5.68929 22.5626 5.43739 22.3107 5.43726 22.0002V18.5623H4.00024C3.32074 18.5623 2.66877 18.2927 2.18823 17.8123C1.70773 17.3318 1.43756 16.6798 1.4375 16.0002V11C1.4375 10.3204 1.70767 9.66855 2.18823 9.18799C2.66878 8.7075 3.32068 8.43726 4.00024 8.43726H5.43726V2C5.43726 1.68942 5.68921 1.43763 5.99976 1.4375H17.9998C18.3104 1.4375 18.5623 1.68934 18.5623 2V8.43726H20C20.6796 8.43726 21.3315 8.70743 21.812 9.18799C22.2926 9.66855 22.5627 10.3204 22.5627 11V16.0002Z"/>
</svg>