<svg xmlns="http://www.w3.org/2000/svg" width="24" height="24" fill="currentcolor" class="icon-radio" viewBox="0 0 24 24">
  <path d="M1.43945 12C1.43945 9.19928 2.55165 6.51299 4.53174 4.53224C4.75133 4.31258 5.10744 4.31273 5.32715 4.53224C5.54681 4.75184 5.5474 5.10794 5.32788 5.32765C3.55862 7.09745 2.56445 9.49753 2.56445 12C2.56447 14.5025 3.55864 16.9026 5.32788 18.6724C5.54733 18.8921 5.54679 19.2482 5.32715 19.4678C5.10743 19.6872 4.75131 19.6874 4.53174 19.4678C2.55163 17.487 1.43947 14.8008 1.43945 12ZM21.4353 12C21.4353 9.49753 20.4411 7.09745 18.6719 5.32765C18.4524 5.108 18.4524 4.75187 18.6719 4.53224C18.8915 4.31267 19.2476 4.31272 19.4673 4.53224C21.4474 6.513 22.5603 9.19922 22.5603 12C22.5603 14.8008 21.4474 17.487 19.4673 19.4678C19.2476 19.6872 18.8915 19.6873 18.6719 19.4678C18.4523 19.2482 18.4524 18.8921 18.6719 18.6724C20.4411 16.9026 21.4353 14.5025 21.4353 12ZM17.437 12.0051C17.437 11.2906 17.2961 10.5829 17.0225 9.92287C16.7488 9.26278 16.3481 8.66272 15.8425 8.15773C15.6227 7.93818 15.6222 7.58211 15.8418 7.36232C16.0613 7.14255 16.4174 7.14278 16.6372 7.36232C17.2473 7.97178 17.7315 8.69557 18.0618 9.4922C18.392 10.2888 18.562 11.1428 18.562 12.0051C18.562 12.8675 18.392 13.7215 18.0618 14.5181C17.7315 15.3147 17.2473 16.0385 16.6372 16.648C16.4174 16.8674 16.0613 16.867 15.8418 16.6472C15.6224 16.4274 15.6228 16.0713 15.8425 15.8518C16.3479 15.3469 16.7489 14.7473 17.0225 14.0874C17.2961 13.4274 17.437 12.7196 17.437 12.0051ZM5.43774 11.9949C5.43775 11.1325 5.60774 10.2786 5.93799 9.48195C6.26824 8.68528 6.75239 7.96154 7.36255 7.35207C7.58232 7.13263 7.93843 7.13239 8.15796 7.35207C8.37751 7.57186 8.37702 7.92866 8.15723 8.14821C7.6518 8.65312 7.25089 9.25266 6.97729 9.91261C6.70366 10.5727 6.56275 11.2803 6.56274 11.9949C6.56274 12.7095 6.70366 13.4171 6.97729 14.0772C7.25093 14.7372 7.65168 15.3373 8.15723 15.8423C8.37692 16.0619 8.37747 16.418 8.15796 16.6377C7.93842 16.8575 7.58233 16.8572 7.36255 16.6377C6.75239 16.0282 6.26824 15.3045 5.93799 14.5078C5.60776 13.7112 5.43774 12.8573 5.43774 11.9949ZM13.4373 12C13.4373 11.2061 12.7934 10.5623 11.9995 10.5623C11.2057 10.5624 10.5625 11.2062 10.5625 12C10.5625 12.7938 11.2058 13.4376 11.9995 13.4378C12.7934 13.4378 13.4372 12.7939 13.4373 12ZM14.5623 12C14.5622 13.4152 13.4147 14.5628 11.9995 14.5628C10.5844 14.5626 9.43754 13.4151 9.4375 12C9.4375 10.5849 10.5844 9.43744 11.9995 9.43727C13.4147 9.43727 14.5623 10.5848 14.5623 12Z"/>
</svg>