<svg xmlns="http://www.w3.org/2000/svg" width="24" height="24" fill="currentcolor" class="icon-radio" viewBox="0 0 24 24">
  <path d="M1.43964 12C1.43964 9.19928 2.55184 6.51299 4.53192 4.53224C4.75152 4.31258 5.10762 4.31273 5.32733 4.53224C5.54699 4.75184 5.54758 5.10794 5.32806 5.32765C3.55881 7.09745 2.56464 9.49753 2.56464 12C2.56465 14.5025 3.55882 16.9026 5.32806 18.6724C5.54751 18.8921 5.54697 19.2482 5.32733 19.4678C5.10761 19.6872 4.75149 19.6874 4.53192 19.4678C2.55181 17.487 1.43965 14.8008 1.43964 12ZM21.4355 12C21.4355 9.49753 20.4413 7.09745 18.6721 5.32765C18.4525 5.108 18.4526 4.75187 18.6721 4.53224C18.8917 4.31267 19.2478 4.31272 19.4675 4.53224C21.4476 6.513 22.5605 9.19922 22.5605 12C22.5605 14.8008 21.4476 17.487 19.4675 19.4678C19.2478 19.6872 18.8917 19.6873 18.6721 19.4678C18.4525 19.2482 18.4526 18.8921 18.6721 18.6724C20.4413 16.9026 21.4355 14.5025 21.4355 12ZM17.4372 12.0051C17.4372 11.2906 17.2963 10.5829 17.0226 9.92287C16.749 9.26278 16.3483 8.66272 15.8427 8.15773C15.6229 7.93818 15.6224 7.58211 15.842 7.36232C16.0615 7.14255 16.4176 7.14278 16.6374 7.36232C17.2475 7.97178 17.7317 8.69557 18.062 9.4922C18.3921 10.2888 18.5622 11.1428 18.5622 12.0051C18.5622 12.8675 18.3922 13.7215 18.062 14.5181C17.7317 15.3147 17.2475 16.0385 16.6374 16.648C16.4176 16.8674 16.0615 16.867 15.842 16.6472C15.6226 16.4274 15.623 16.0713 15.8427 15.8518C16.3481 15.3469 16.749 14.7473 17.0226 14.0874C17.2963 13.4274 17.4372 12.7196 17.4372 12.0051ZM5.43793 11.9949C5.43793 11.1325 5.60793 10.2786 5.93817 9.48195C6.26842 8.68528 6.75258 7.96154 7.36273 7.35207C7.5825 7.13263 7.93862 7.13239 8.15814 7.35207C8.37769 7.57186 8.3772 7.92866 8.15741 8.14821C7.65199 8.65312 7.25108 9.25266 6.97748 9.91261C6.70385 10.5727 6.56293 11.2803 6.56293 11.9949C6.56293 12.7095 6.70384 13.4171 6.97748 14.0772C7.25112 14.7372 7.65186 15.3373 8.15741 15.8423C8.3771 16.0619 8.37766 16.418 8.15814 16.6377C7.9386 16.8575 7.58252 16.8572 7.36273 16.6377C6.75257 16.0282 6.26842 15.3045 5.93817 14.5078C5.60794 13.7112 5.43793 12.8573 5.43793 11.9949ZM13.4374 12C13.4374 11.2061 12.7936 10.5623 11.9997 10.5623C11.2059 10.5624 10.5627 11.2062 10.5627 12C10.5627 12.7938 11.2059 13.4376 11.9997 13.4378C12.7936 13.4378 13.4374 12.7939 13.4374 12ZM14.5624 12C14.5624 13.4152 13.4149 14.5628 11.9997 14.5628C10.5846 14.5626 9.43772 13.4151 9.43768 12C9.43768 10.5849 10.5846 9.43744 11.9997 9.43727C13.4149 9.43727 14.5624 10.5848 14.5624 12Z"/>
</svg>