<svg xmlns="http://www.w3.org/2000/svg" width="24" height="24" fill="currentcolor" class="icon-refresh-ccw" viewBox="0 0 24 24">
  <path d="M9.34888 2.81636C10.9005 2.36762 12.5408 2.31928 14.1162 2.67573C15.6915 3.03223 17.1511 3.78169 18.3584 4.85469C19.5658 5.92779 20.4812 7.2899 21.02 8.81269C21.1235 9.10542 20.9706 9.42676 20.678 9.53047C20.3851 9.6341 20.0631 9.48056 19.9595 9.18769C19.484 7.8441 18.6759 6.64308 17.6106 5.69624C16.5454 4.74945 15.2579 4.08747 13.8679 3.7729C12.4778 3.45836 11.03 3.50138 9.66089 3.89741C8.29184 4.29346 7.04511 5.02953 6.0376 6.03755C6.03346 6.04168 6.02941 6.04599 6.02515 6.05L2.42017 9.43745H7C7.31064 9.43745 7.56246 9.68932 7.5625 9.99995C7.5625 10.3106 7.31066 10.5624 7 10.5624H1C0.68934 10.5624 0.4375 10.3106 0.4375 9.99995V3.99995C0.437541 3.68932 0.689365 3.43745 1 3.43745C1.31064 3.43745 1.56246 3.68932 1.5625 3.99995V8.69917L5.25464 5.23042C6.39441 4.09419 7.8027 3.26359 9.34888 2.81636ZM23.5623 19.9997C23.5623 20.3104 23.3104 20.5622 22.9998 20.5622C22.6892 20.5621 22.4373 20.3103 22.4373 19.9997V15.2998L18.7451 18.77C17.6054 19.906 16.1976 20.7361 14.6516 21.1833C13.1 21.6321 11.4597 21.6811 9.88428 21.3247C8.30884 20.9682 6.84942 20.218 5.64209 19.145C4.43474 18.0719 3.5186 16.7105 2.97974 15.1877C2.8761 14.8948 3.02965 14.5736 3.32251 14.4699C3.61535 14.3663 3.93666 14.5199 4.04028 14.8127C4.51577 16.1562 5.32393 17.3574 6.38916 18.3041C7.45447 19.251 8.74242 19.9129 10.1326 20.2275C11.5226 20.542 12.9698 20.499 14.3389 20.103C15.708 19.7069 16.9546 18.9702 17.9622 17.9621L21.5803 14.5622H16.9998C16.6892 14.5621 16.4373 14.3103 16.4373 13.9997C16.4374 13.6893 16.6893 13.4373 16.9998 13.4372H22.9998C23.3103 13.4372 23.5621 13.6892 23.5623 13.9997V19.9997Z"/>
</svg>