<svg xmlns="http://www.w3.org/2000/svg" width="24" height="24" fill="currentcolor" class="icon-refresh-cw" viewBox="0 0 24 24">
  <path d="M0.4375 19.9997V13.9997C0.437672 13.6892 0.689446 13.4372 1 13.4372H7C7.31055 13.4372 7.56233 13.6892 7.5625 13.9997C7.5625 14.3104 7.31066 14.5622 7 14.5622H2.41943L6.0376 17.9621C7.04513 18.9702 8.2918 19.707 9.66089 20.103C11.03 20.499 12.4778 20.5421 13.8679 20.2275C15.2579 19.913 16.5454 19.2509 17.6106 18.3042C18.6758 17.3574 19.484 16.1562 19.9595 14.8127C20.0631 14.5199 20.3851 14.3663 20.678 14.4699C20.9706 14.5737 21.1236 14.895 21.02 15.1877C20.4812 16.7104 19.5657 18.0719 18.3584 19.145C17.1511 20.218 15.6916 20.9682 14.1162 21.3247C12.5408 21.6811 10.9005 21.6321 9.34888 21.1833C7.80261 20.7361 6.39444 19.9056 5.25464 18.7693L1.5625 15.2998V19.9997C1.5625 20.3104 1.31066 20.5622 1 20.5622C0.68934 20.5622 0.4375 20.3104 0.4375 19.9997ZM9.88428 2.67576C11.4597 2.31931 13.0999 2.36756 14.6516 2.81638C16.1977 3.26361 17.6054 4.09431 18.7451 5.23045L22.4373 8.6992V3.99998C22.4373 3.68943 22.6892 3.43761 22.9998 3.43748C23.3104 3.43748 23.5622 3.68935 23.5623 3.99998V9.99998C23.5623 10.3106 23.3104 10.5625 22.9998 10.5625H16.9998C16.6892 10.5623 16.4373 10.3106 16.4373 9.99998C16.4373 9.68943 16.6892 9.43761 16.9998 9.43748H21.5796L17.9746 6.05003C17.9704 6.04603 17.9663 6.04171 17.9622 6.03758C16.9546 5.02954 15.708 4.29347 14.3389 3.89744C12.9698 3.50142 11.5227 3.45843 10.1326 3.77293C8.74242 4.08747 7.45447 4.74941 6.38916 5.69627C5.32393 6.6431 4.51573 7.84416 4.04028 9.18772C3.93666 9.48051 3.61532 9.63399 3.32251 9.5305C3.02974 9.42689 2.8763 9.10551 2.97974 8.81272C3.5186 7.28993 4.43474 5.92782 5.64209 4.85471C6.84938 3.78176 8.30893 3.0322 9.88428 2.67576Z"/>
</svg>