<svg xmlns="http://www.w3.org/2000/svg" width="24" height="24" fill="currentcolor" class="icon-repeat" viewBox="0 0 24 24">
  <path d="M6.60205 14.6026C6.82172 14.3829 7.17779 14.3829 7.39746 14.6026C7.61713 14.8222 7.61713 15.1783 7.39746 15.398L4.35791 18.4375H17.0002C17.9118 18.4375 18.7858 18.075 19.4304 17.4304C20.075 16.7858 20.4374 15.9119 20.4375 15.0003V13C20.4375 12.6894 20.6893 12.4375 21 12.4375C21.3107 12.4375 21.5625 12.6894 21.5625 13V15.0003C21.5624 16.2102 21.0814 17.3703 20.2258 18.2259C19.3703 19.0814 18.2102 19.5625 17.0002 19.5625H4.35791L7.39746 22.6021C7.61713 22.8217 7.61713 23.1778 7.39746 23.3975C7.17779 23.6172 6.82172 23.6172 6.60205 23.3975L2.60229 19.3977C2.49681 19.2922 2.4375 19.1492 2.4375 19C2.4375 18.8508 2.49681 18.7078 2.60229 18.6023L6.60205 14.6026ZM2.4375 10.9998V9.00026C2.4375 7.79021 2.91854 6.62958 3.77417 5.77394C4.62974 4.91844 5.78985 4.43734 6.99976 4.43727H19.6421L16.6025 1.39772C16.3829 1.17805 16.3829 0.821984 16.6025 0.602314C16.8222 0.382766 17.1783 0.382684 17.3979 0.602314L21.3977 4.60207C21.5031 4.7075 21.5624 4.85068 21.5625 4.99977C21.5625 5.1489 21.5031 5.292 21.3977 5.39748L17.3979 9.39797C17.1784 9.61756 16.8222 9.61739 16.6025 9.39797C16.3829 9.1783 16.3829 8.82223 16.6025 8.60256L19.6421 5.56227H6.99976C6.08822 5.56234 5.21417 5.92483 4.56958 6.56935C3.92492 7.21401 3.5625 8.08858 3.5625 9.00026V10.9998C3.5625 11.3104 3.31066 11.5623 3 11.5623C2.68934 11.5623 2.4375 11.3104 2.4375 10.9998Z"/>
</svg>