<svg xmlns="http://www.w3.org/2000/svg" width="24" height="24" fill="currentcolor" class="icon-rewind" viewBox="0 0 24 24">
  <path d="M10.6543 4.55612C10.8238 4.42428 11.0539 4.40036 11.2468 4.49459C11.4398 4.58898 11.5625 4.78513 11.5625 4.99996V19.0002C11.5624 19.215 11.4397 19.4112 11.2468 19.5056C11.0539 19.5998 10.8238 19.5759 10.6543 19.4441L1.6543 12.4443C1.51732 12.3377 1.4375 12.1733 1.4375 11.9997C1.43758 11.8263 1.51746 11.6624 1.6543 11.5559L10.6543 4.55612ZM21.6545 4.55612C21.8241 4.42424 22.0541 4.40025 22.2471 4.49459C22.4401 4.58898 22.5627 4.78513 22.5627 4.99996V19.0002C22.5627 19.215 22.44 19.4112 22.2471 19.5056C22.0541 19.5999 21.8241 19.5759 21.6545 19.4441L12.6545 12.4443C12.5175 12.3377 12.4377 12.1733 12.4377 11.9997C12.4378 11.8262 12.5176 11.6624 12.6545 11.5559L21.6545 4.55612ZM13.9158 11.9997L21.4377 17.8496V6.14913L13.9158 11.9997ZM2.91626 11.9997L10.4375 17.8488V6.14987L2.91626 11.9997Z"/>
</svg>