<svg xmlns="http://www.w3.org/2000/svg" width="24" height="24" fill="currentcolor" class="icon-rocket-outline" viewBox="0 0 24 24">
  <path d="M17.96 7.6095C17.96 8.50794 17.2568 9.172 16.3975 9.172C15.499 9.172 14.835 8.50794 14.835 7.6095C14.835 6.75012 15.499 6.047 16.3975 6.047C17.2568 6.047 17.96 6.75012 17.96 7.6095ZM2.9209 13.2345C2.6084 13.2345 2.2959 13.0782 2.13965 12.7657C1.94434 12.4923 1.94434 12.1407 2.13965 11.8282L4.1709 8.39075C4.67871 7.53137 5.61621 6.9845 6.59277 6.9845H9.7959C9.91309 6.82825 9.99121 6.71106 10.1084 6.55481C13.3115 1.82825 18.0771 1.672 20.8896 2.21887C21.3584 2.297 21.71 2.64856 21.7881 3.11731C22.335 5.92981 22.1787 10.6954 17.4521 13.8986C17.2959 14.0157 17.1396 14.0939 17.0225 14.2111V17.4142C17.0225 18.3907 16.4756 19.3282 15.6162 19.8361L12.1787 21.8673C11.8662 22.0236 11.5146 22.0626 11.2412 21.8673C10.9287 21.7111 10.7334 21.3986 10.7334 21.047V17.297C10.4209 17.4532 10.1084 17.5704 9.83496 17.6876C9.40527 17.8829 8.8584 17.7657 8.50684 17.4142L6.51465 15.4611C6.16309 15.0704 6.0459 14.5626 6.28027 14.0939C6.3584 13.8595 6.47559 13.547 6.63184 13.2345H2.9209ZM20.0303 3.97669C17.5693 3.62512 14.0928 4.01575 11.6318 7.6095C10.46 9.36731 8.97559 12.6095 8.15527 14.4454L9.52246 15.8126C11.3584 15.0314 14.6396 13.547 16.3975 12.3361C19.9912 9.91418 20.3818 6.43762 20.0303 3.97669Z"/>
</svg>