<svg xmlns="http://www.w3.org/2000/svg" width="24" height="24" fill="currentcolor" class="icon-rotate-cw" viewBox="0 0 24 24">
  <path d="M7.38641 3.62818C9.20202 2.62707 11.2941 2.24277 13.3469 2.53394C15.3939 2.82436 17.2912 3.77109 18.7551 5.23072L22.4369 8.69727V4.00025C22.4369 3.68963 22.6888 3.43782 22.9994 3.43775C23.3101 3.43775 23.5619 3.68959 23.5619 4.00025V10.0002C23.5618 10.3108 23.31 10.5627 22.9994 10.5627H16.9994C16.6889 10.5627 16.4371 10.3108 16.4369 10.0002C16.4369 9.68963 16.6888 9.43782 16.9994 9.43775H21.5822L17.9838 6.04956C17.9797 6.04568 17.9754 6.04185 17.9714 6.03784C16.6782 4.74391 14.9999 3.90488 13.1887 3.64795C11.3775 3.39105 9.53182 3.73005 7.92986 4.61328C6.32785 5.49662 5.056 6.8768 4.30657 8.54566C3.55719 10.2145 3.37073 12.0818 3.77483 13.866C4.17898 15.6501 5.15173 17.2547 6.54705 18.4377C7.94238 19.6208 9.68447 20.3179 11.5107 20.4248C13.337 20.5316 15.149 20.0426 16.6728 19.0303C18.1965 18.018 19.3497 16.5377 19.9592 14.813C20.0626 14.5201 20.384 14.366 20.6769 14.4695C20.9698 14.573 21.1232 14.8944 21.0197 15.1873C20.3291 17.1421 19.0222 18.8198 17.2953 19.967C15.5685 21.1142 13.5152 21.6693 11.4455 21.5483C9.3757 21.4273 7.40118 20.6362 5.81976 19.2954C4.23836 17.9546 3.13566 16.1364 2.67767 14.1143C2.21968 12.0922 2.43118 9.97629 3.28045 8.08496C4.1298 6.19359 5.57079 4.62929 7.38641 3.62818Z"/>
</svg>