<svg xmlns="http://www.w3.org/2000/svg" width="24" height="24" fill="currentcolor" class="icon-rotate-ccw" viewBox="0 0 24 24">
  <path d="M10.6665 2.53984C12.7194 2.25106 14.8104 2.63771 16.6248 3.64067C18.4392 4.6437 19.879 6.20896 20.7263 8.10112C21.5736 9.99327 21.7825 12.1096 21.3225 14.1311C20.8625 16.1527 19.7579 17.9702 18.1753 19.3094C16.5927 20.6484 14.6178 21.4366 12.5481 21.5557C10.4783 21.6748 8.42555 21.1181 6.69971 19.9693C4.97404 18.8205 3.66861 17.1418 2.97974 15.1866C2.87666 14.8936 3.03031 14.5727 3.32324 14.4695C3.61618 14.3664 3.93702 14.5201 4.04028 14.813C4.64813 16.5383 5.80029 18.0196 7.323 19.0332C8.8458 20.0469 10.6574 20.538 12.4836 20.4329C14.3098 20.3277 16.0523 19.6318 17.4487 18.4502C18.8452 17.2686 19.8202 15.6651 20.2261 13.8814C20.6319 12.0978 20.447 10.2305 19.6995 8.56108C18.9518 6.89153 17.6815 5.51007 16.0806 4.62505C14.4797 3.7401 12.6346 3.39906 10.8232 3.65386C9.01187 3.90871 7.33218 4.74558 6.0376 6.03789C6.03363 6.04185 6.02924 6.04576 6.02515 6.04961L2.41943 9.43779H7C7.31066 9.43779 7.5625 9.68963 7.5625 10.0003C7.56234 10.3108 7.31056 10.5628 7 10.5628H1C0.689438 10.5628 0.437659 10.3108 0.4375 10.0003V4.00029C0.4375 3.68963 0.68934 3.43779 1 3.43779C1.31066 3.43779 1.5625 3.68963 1.5625 4.00029V8.69951L5.25464 5.23003C6.72023 3.77208 8.6191 2.8279 10.6665 2.53984Z"/>
</svg>