<svg xmlns="http://www.w3.org/2000/svg" width="24" height="24" fill="currentcolor" class="icon-rotate-cw" viewBox="0 0 24 24">
  <path d="M7.3869 3.62818C9.20251 2.62707 11.2946 2.24277 13.3473 2.53394C15.3944 2.82436 17.2916 3.77109 18.7555 5.23072L22.4374 8.69727V4.00025C22.4374 3.68963 22.6893 3.43782 22.9999 3.43775C23.3106 3.43775 23.5624 3.68959 23.5624 4.00025V10.0002C23.5623 10.3108 23.3105 10.5627 22.9999 10.5627H16.9999C16.6894 10.5627 16.4376 10.3108 16.4374 10.0002C16.4374 9.68963 16.6893 9.43782 16.9999 9.43775H21.5827L17.9843 6.04956C17.9802 6.04568 17.9759 6.04185 17.9719 6.03784C16.6787 4.74391 15.0004 3.90488 13.1891 3.64795C11.378 3.39105 9.53231 3.73005 7.93035 4.61328C6.32834 5.49662 5.05648 6.8768 4.30706 8.54566C3.55768 10.2145 3.37122 12.0818 3.77532 13.866C4.17947 15.6501 5.15222 17.2547 6.54754 18.4377C7.94286 19.6208 9.68495 20.3179 11.5112 20.4248C13.3374 20.5316 15.1495 20.0426 16.6733 19.0303C18.1969 18.018 19.3502 16.5377 19.9596 14.813C20.0631 14.5201 20.3845 14.366 20.6774 14.4695C20.9703 14.573 21.1236 14.8944 21.0202 15.1873C20.3296 17.1421 19.0227 18.8198 17.2958 19.967C15.5689 21.1142 13.5156 21.6693 11.446 21.5483C9.37619 21.4273 7.40167 20.6362 5.82024 19.2954C4.23884 17.9546 3.13615 16.1364 2.67816 14.1143C2.22017 12.0922 2.43167 9.97629 3.28094 8.08496C4.13029 6.19359 5.57128 4.62929 7.3869 3.62818Z"/>
</svg>