<svg xmlns="http://www.w3.org/2000/svg" width="24" height="24" fill="currentcolor" class="icon-rss" viewBox="0 0 24 24">
  <path d="M5.43774 19C5.43774 18.7584 5.24138 18.5627 4.99976 18.5627C4.75824 18.5629 4.5625 18.7585 4.5625 19C4.5625 19.2415 4.75824 19.4371 4.99976 19.4373C5.24138 19.4373 5.43774 19.2416 5.43774 19ZM12.4375 19.9998C12.4374 17.7621 11.5486 15.6157 9.96631 14.0334C8.38398 12.4512 6.23771 11.5623 4 11.5623C3.68934 11.5623 3.4375 11.3104 3.4375 10.9998C3.43763 10.6892 3.68942 10.4373 4 10.4373C6.53607 10.4373 8.96841 11.4448 10.7617 13.238C12.555 15.0313 13.5624 17.4637 13.5625 19.9998C13.5625 20.3104 13.3107 20.5623 13 20.5623C12.6893 20.5623 12.4375 20.3104 12.4375 19.9998ZM19.4373 19.9998C19.4372 15.9056 17.8111 11.9788 14.916 9.08374C12.0209 6.18872 8.09422 4.5625 4 4.5625C3.68934 4.5625 3.4375 4.31066 3.4375 4C3.4375 3.68934 3.68934 3.4375 4 3.4375C8.39259 3.4375 12.6054 5.18234 15.7114 8.28833C18.8174 11.3943 20.5622 15.6072 20.5623 19.9998C20.5623 20.3104 20.3104 20.5623 19.9998 20.5623C19.6892 20.5621 19.4373 20.3103 19.4373 19.9998ZM6.56274 19C6.56274 19.8629 5.8627 20.5623 4.99976 20.5623C4.13692 20.5621 3.4375 19.8629 3.4375 19C3.4375 18.1371 4.13692 17.4379 4.99976 17.4377C5.8627 17.4377 6.56274 18.1371 6.56274 19Z"/>
</svg>