<svg xmlns="http://www.w3.org/2000/svg" width="24" height="24" fill="currentcolor" class="icon-save" viewBox="0 0 24 24">
  <path d="M2.4375 5.00024C2.4375 4.32063 2.70767 3.66879 3.18823 3.18823C3.66879 2.70767 4.32063 2.4375 5.00024 2.4375H15.9998C16.1489 2.4375 16.292 2.49688 16.3975 2.60229L21.3977 7.60254C21.5031 7.70802 21.5625 7.85112 21.5625 8.00024V18.9998C21.5625 19.6794 21.2923 20.3312 20.8118 20.8118C20.3312 21.2923 19.6794 21.5625 18.9998 21.5625H5.00024C4.32063 21.5625 3.66879 21.2923 3.18823 20.8118C2.70767 20.3312 2.4375 19.6794 2.4375 18.9998V5.00024ZM7.56226 20.4375H16.4377V13.5623H7.56226V20.4375ZM3.5625 18.9998C3.5625 19.381 3.71406 19.7468 3.98364 20.0164C4.25323 20.2859 4.619 20.4375 5.00024 20.4375H6.43726V12.9998C6.43739 12.6893 6.68929 12.4374 6.99976 12.4373H17.0002C17.3107 12.4374 17.5626 12.6893 17.5627 12.9998V20.4375H18.9998C19.381 20.4375 19.7468 20.2859 20.0164 20.0164C20.2859 19.7468 20.4375 19.381 20.4375 18.9998V8.23315L15.7668 3.5625H7.56226V7.43774H15C15.3107 7.43774 15.5625 7.68958 15.5625 8.00024C15.5624 8.31079 15.3106 8.56274 15 8.56274H6.99976C6.68929 8.56261 6.43739 8.31071 6.43726 8.00024V3.5625H5.00024C4.619 3.5625 4.25323 3.71406 3.98364 3.98364C3.71406 4.25323 3.5625 4.619 3.5625 5.00024V18.9998Z"/>
</svg>