<svg xmlns="http://www.w3.org/2000/svg" width="24" height="24" fill="currentcolor" class="icon-scissors" viewBox="0 0 24 24">
  <path d="M8.4375 18C8.4375 17.3336 8.16921 16.7305 7.73584 16.2905C7.73132 16.2863 7.72634 16.2825 7.72192 16.2781C7.71726 16.2734 7.7132 16.2682 7.70874 16.2634C7.26879 15.8305 6.66601 15.5625 6 15.5625C4.65381 15.5625 3.5625 16.6538 3.5625 18C3.5625 19.3462 4.65381 20.4375 6 20.4375C7.34619 20.4375 8.4375 19.3462 8.4375 18ZM14.072 14.0823C14.2915 13.8627 14.6476 13.8623 14.8674 14.0815L20.3972 19.6018C20.6171 19.8213 20.6174 20.1773 20.3979 20.3972C20.1785 20.6171 19.8224 20.6174 19.6025 20.3979L14.0728 14.8784C13.8529 14.6589 13.8526 14.3021 14.072 14.0823ZM8.4375 6C8.4375 4.65381 7.34619 3.5625 6 3.5625C4.65381 3.5625 3.5625 4.65381 3.5625 6C3.5625 7.34619 4.65381 8.4375 6 8.4375C6.6662 8.4375 7.26876 8.169 7.70874 7.73584C7.71309 7.73119 7.71739 7.72646 7.72192 7.72192C7.72646 7.71739 7.73119 7.71309 7.73584 7.70874C8.169 7.26876 8.4375 6.6662 8.4375 6ZM9.5625 6C9.5625 6.78054 9.31073 7.50191 8.88501 8.08887L11.9993 11.2039L19.6025 3.60205C19.8222 3.38263 20.1784 3.38246 20.3979 3.60205C20.6175 3.82164 20.6174 4.17777 20.3979 4.39746L8.88501 15.9104C9.31094 16.4974 9.5625 17.2192 9.5625 18C9.5625 19.9675 7.96751 21.5625 6 21.5625C4.03249 21.5625 2.4375 19.9675 2.4375 18C2.4375 16.0325 4.03249 14.4375 6 14.4375C6.78039 14.4375 7.50197 14.6887 8.08887 15.1143L11.2039 11.9993L8.08887 8.88501C7.50191 9.31073 6.78054 9.5625 6 9.5625C4.03249 9.5625 2.4375 7.96751 2.4375 6C2.4375 4.03249 4.03249 2.4375 6 2.4375C7.96751 2.4375 9.5625 4.03249 9.5625 6Z"/>
</svg>