<svg xmlns="http://www.w3.org/2000/svg" width="24" height="24" fill="currentcolor" class="icon-search" viewBox="0 0 24 24">
  <path d="M18.4373 11.0002C18.4373 6.89271 15.1077 3.56263 11.0002 3.5625C6.89263 3.5625 3.5625 6.89263 3.5625 11.0002C3.56263 15.1077 6.89271 18.4373 11.0002 18.4373C13.0221 18.4372 14.854 17.6291 16.1946 16.3198C16.2117 16.2962 16.2311 16.2737 16.2524 16.2524C16.2738 16.2311 16.2962 16.2118 16.3198 16.1946C17.6291 14.854 18.4372 13.0221 18.4373 11.0002ZM19.5623 11.0002C19.5622 13.1621 18.7592 15.1352 17.4375 16.6421L21.3977 20.6023C21.6174 20.822 21.6173 21.178 21.3977 21.3977C21.178 21.6174 20.822 21.6174 20.6023 21.3977L16.6421 17.4375C15.1352 18.7592 13.1621 19.5622 11.0002 19.5623C6.27139 19.5623 2.43763 15.7291 2.4375 11.0002C2.4375 6.27131 6.27131 2.4375 11.0002 2.4375C15.7291 2.43763 19.5623 6.27139 19.5623 11.0002Z"/>
</svg>