<svg xmlns="http://www.w3.org/2000/svg" width="24" height="24" fill="currentcolor" class="icon-send" viewBox="0 0 24 24">
  <path d="M21.8139 1.46905C22.0179 1.3977 22.2449 1.44957 22.3977 1.60235C22.5504 1.75515 22.6024 1.98219 22.531 2.18609L15.5305 22.1856C15.4543 22.4032 15.2533 22.5526 15.0229 22.5621C14.7926 22.5715 14.5798 22.4394 14.4861 22.2288L10.5727 13.4251L1.77122 9.51398C1.56052 9.42029 1.42857 9.20752 1.43797 8.97711C1.44738 8.74671 1.59607 8.54502 1.8137 8.46881L21.8139 1.46905ZM11.6706 13.1241L14.9372 20.4747L20.6538 4.14093L11.6706 13.1241ZM3.52391 9.06207L10.8752 12.3287L19.8591 3.34479L3.52391 9.06207Z"/>
</svg>