<svg xmlns="http://www.w3.org/2000/svg" width="24" height="24" fill="currentcolor" class="icon-send" viewBox="0 0 24 24">
  <path d="M21.8142 1.46905C22.0181 1.3977 22.2451 1.44957 22.3979 1.60235C22.5506 1.75515 22.6026 1.98219 22.5312 2.18609L15.5307 22.1856C15.4546 22.4032 15.2535 22.5526 15.0232 22.5621C14.7929 22.5715 14.5801 22.4394 14.4863 22.2288L10.573 13.4251L1.77147 9.51398C1.56076 9.42029 1.42882 9.20752 1.43822 8.97711C1.44763 8.74671 1.59632 8.54502 1.81395 8.46881L21.8142 1.46905ZM11.6709 13.1241L14.9375 20.4747L20.654 4.14093L11.6709 13.1241ZM3.52415 9.06207L10.8755 12.3287L19.8594 3.34479L3.52415 9.06207Z"/>
</svg>