<svg xmlns="http://www.w3.org/2000/svg" width="24" height="24" fill="currentcolor" class="icon-send" viewBox="0 0 24 24">
  <path d="M21.8144 1.46905C22.0184 1.3977 22.2454 1.44957 22.3982 1.60235C22.5509 1.75515 22.6028 1.98219 22.5315 2.18609L15.531 22.1856C15.4548 22.4032 15.2538 22.5526 15.0234 22.5621C14.7931 22.5715 14.5803 22.4394 14.4866 22.2288L10.5732 13.4251L1.77171 9.51398C1.56101 9.42029 1.42906 9.20752 1.43846 8.97711C1.44787 8.74671 1.59656 8.54502 1.81419 8.46881L21.8144 1.46905ZM11.6711 13.1241L14.9377 20.4747L20.6543 4.14093L11.6711 13.1241ZM3.5244 9.06207L10.8757 12.3287L19.8596 3.34479L3.5244 9.06207Z"/>
</svg>