<svg xmlns="http://www.w3.org/2000/svg" width="24" height="24" fill="currentcolor" class="icon-server" viewBox="0 0 24 24">
  <path d="M21.4377 16.0002C21.4377 15.2063 20.7939 14.5625 20 14.5625H4.00024C3.20633 14.5625 2.5625 15.2063 2.5625 16.0002V20L2.56982 20.1472C2.64354 20.872 3.25603 21.4377 4.00024 21.4377H20C20.7939 21.4377 21.4377 20.7939 21.4377 20V16.0002ZM6.01001 17.4373C6.32058 17.4373 6.57238 17.6892 6.57251 17.9998C6.57251 18.3104 6.32067 18.5623 6.01001 18.5623H5.99976C5.68921 18.5621 5.43726 18.3103 5.43726 17.9998C5.43739 17.6893 5.68929 17.4374 5.99976 17.4373H6.01001ZM21.4377 4.00024C21.4377 3.25603 20.872 2.64354 20.1472 2.56982L20 2.5625H4.00024C3.20633 2.5625 2.5625 3.20633 2.5625 4.00024V8L2.56982 8.14722C2.64354 8.87198 3.25603 9.43774 4.00024 9.43774H20C20.7939 9.43774 21.4377 8.79391 21.4377 8V4.00024ZM6.01001 5.43726C6.32058 5.43726 6.57238 5.68921 6.57251 5.99976C6.57251 6.31041 6.32067 6.56225 6.01001 6.56226H5.99976C5.68921 6.56212 5.43726 6.31033 5.43726 5.99976C5.43739 5.68929 5.68929 5.43739 5.99976 5.43726H6.01001ZM22.5627 20C22.5627 21.4152 21.4152 22.5627 20 22.5627H4.00024C2.62924 22.5627 1.50979 21.4858 1.44116 20.1318L1.4375 20V16.0002C1.4375 14.585 2.58501 13.4375 4.00024 13.4375H20C21.4152 13.4375 22.5627 14.585 22.5627 16.0002V20ZM22.5627 8C22.5627 9.41523 21.4152 10.5627 20 10.5627H4.00024C2.62924 10.5627 1.50979 9.48579 1.44116 8.13184L1.4375 8V4.00024C1.4375 2.58501 2.58501 1.4375 4.00024 1.4375H20L20.1318 1.44116C21.4858 1.50979 22.5627 2.62924 22.5627 4.00024V8Z"/>
</svg>