<svg xmlns="http://www.w3.org/2000/svg" width="24" height="24" fill="currentcolor" class="icon-settings" viewBox="0 0 24 24">
  <g clip-path="url(#a)">
    <path d="M13.4373 3.00024C13.4373 2.619 13.2857 2.25323 13.0161 1.98364C12.7466 1.71419 12.3813 1.56256 12.0002 1.5625C11.619 1.5625 11.2532 1.71406 10.9836 1.98364C10.7141 2.25323 10.5625 2.619 10.5625 3.00024V3.17236C10.5608 3.60381 10.433 4.02553 10.1948 4.38525C9.95658 4.74497 9.61801 5.02681 9.22144 5.19678C9.16097 5.22269 9.09653 5.23636 9.03101 5.23999C8.65763 5.38022 8.25309 5.41907 7.85913 5.34766C7.42415 5.26879 7.02232 5.06133 6.7063 4.7522L6.7019 4.7478L6.64258 4.68774H6.64185C6.50834 4.55409 6.3498 4.44807 6.17529 4.37573C6.00088 4.30344 5.81404 4.2659 5.62524 4.26587C5.43633 4.26587 5.24897 4.30339 5.07446 4.37573C4.90001 4.44807 4.74138 4.55412 4.60791 4.68774H4.60718C4.47357 4.82122 4.3675 4.97984 4.29517 5.1543C4.22282 5.32881 4.18604 5.51617 4.18604 5.70508C4.18605 5.89381 4.22295 6.08076 4.29517 6.25513C4.36744 6.42948 4.47369 6.58825 4.60718 6.72168L4.67236 6.78687C4.98136 7.10285 5.18897 7.5041 5.26782 7.93896C5.34669 8.37395 5.29324 8.82286 5.11475 9.22729L5.11401 9.22656C4.95857 9.6293 4.68992 9.97855 4.33838 10.23C3.97739 10.4881 3.54719 10.6319 3.10352 10.6423H3.00024C2.61904 10.6423 2.25322 10.7939 1.98364 11.0635C1.71406 11.3331 1.5625 11.6988 1.5625 12.0801C1.56252 12.4613 1.71408 12.8271 1.98364 13.0967C2.25321 13.3662 2.61907 13.5178 3.00024 13.5178H3.17236C3.60381 13.5196 4.02554 13.6473 4.38525 13.8855C4.74326 14.1226 5.02439 14.4589 5.19458 14.853L5.25537 15.0068C5.38396 15.3694 5.41657 15.7602 5.34766 16.1406C5.26879 16.5756 5.06133 16.9774 4.7522 17.2935L4.68774 17.3579C4.55412 17.4914 4.44807 17.65 4.37573 17.8245C4.30339 17.999 4.26587 18.1863 4.26587 18.3752C4.2659 18.564 4.30344 18.7509 4.37573 18.9253C4.42996 19.0561 4.50299 19.1781 4.59253 19.2871L4.68774 19.3918V19.3926C4.82121 19.5262 4.97985 19.6322 5.1543 19.7046C5.32881 19.7769 5.51617 19.8137 5.70508 19.8137C5.89384 19.8137 6.08074 19.7768 6.25513 19.7046C6.42964 19.6322 6.58891 19.5262 6.72241 19.3926L6.78687 19.3281C7.10286 19.019 7.50403 18.8116 7.93896 18.7327C8.36208 18.6559 8.79789 18.7049 9.1936 18.8718C9.61024 19.0251 9.97172 19.3003 10.23 19.6614C10.4883 20.0225 10.632 20.4531 10.6423 20.897V21.0002C10.6424 21.3813 10.7941 21.7466 11.0635 22.0161C11.3331 22.2857 11.6988 22.4373 12.0801 22.4373C12.4613 22.4372 12.8271 22.2857 13.0967 22.0161C13.366 21.7466 13.5178 21.3813 13.5178 21.0002V20.8274C13.5196 20.3961 13.6474 19.9749 13.8855 19.6152C14.1232 19.2564 14.4599 18.9738 14.8552 18.8037C15.2589 18.6262 15.7066 18.5742 16.1406 18.6528C16.5213 18.7219 16.8766 18.889 17.1711 19.137L17.2935 19.2476L17.3579 19.312V19.3127C17.4914 19.4463 17.65 19.5524 17.8245 19.6248C17.999 19.6971 18.1863 19.7339 18.3752 19.7339C18.564 19.7339 18.7509 19.697 18.9253 19.6248C19.0998 19.5524 19.2591 19.4457 19.3926 19.312C19.5262 19.1785 19.6323 19.0199 19.7046 18.8455C19.7769 18.671 19.8137 18.4836 19.8137 18.2947C19.8137 18.1059 19.7769 17.919 19.7046 17.7446C19.6323 17.5702 19.5262 17.4116 19.3926 17.2781L19.3281 17.2136C19.019 16.8976 18.8115 16.4958 18.7327 16.0608C18.6542 15.6277 18.7069 15.1814 18.8835 14.7783H18.8828C19.0528 14.3818 19.3354 14.0439 19.6951 13.8057C20.0548 13.5674 20.4765 13.439 20.908 13.4373H21.0002C21.3814 13.4372 21.7466 13.2856 22.0161 13.0161C22.2856 12.7466 22.4372 12.3814 22.4373 12.0002C22.4373 11.619 22.2857 11.2532 22.0161 10.9836C21.7466 10.7142 21.3813 10.5626 21.0002 10.5625H20.8274C20.3961 10.5607 19.9748 10.4329 19.6152 10.1948C19.2555 9.95658 18.973 9.61804 18.803 9.22144C18.7771 9.16098 18.7627 9.09651 18.759 9.03101C18.6189 8.65769 18.5814 8.25301 18.6528 7.85913C18.7317 7.42415 18.9384 7.02232 19.2476 6.7063L19.252 6.7019L19.312 6.64258L19.3127 6.64185C19.4463 6.50839 19.5525 6.3497 19.6248 6.17529C19.697 6.00093 19.7339 5.81398 19.7339 5.62524C19.7339 5.43635 19.6971 5.24896 19.6248 5.07446C19.5524 4.9 19.4463 4.74139 19.3127 4.60791L19.312 4.60718C19.1785 4.47361 19.0199 4.36747 18.8455 4.29517C18.671 4.22286 18.4835 4.18604 18.2947 4.18604C18.106 4.18608 17.919 4.22292 17.7446 4.29517C17.5702 4.36747 17.4115 4.47363 17.2781 4.60718V4.60791L17.2136 4.67236C16.8976 4.98149 16.4958 5.18895 16.0608 5.26782C15.6277 5.3463 15.1814 5.29286 14.7783 5.11621V5.11694C14.7775 5.1166 14.7769 5.11582 14.7761 5.11548C14.7752 5.11508 14.7741 5.11515 14.7732 5.11475V5.11401C14.379 4.94379 14.0428 4.66278 13.8057 4.30469C13.5675 3.94504 13.439 3.52388 13.4373 3.09253V3.00024ZM14.4377 12.0002C14.4377 10.6541 13.3463 9.56288 12.0002 9.56274C10.6541 9.56274 9.56274 10.6541 9.56274 12.0002C9.56288 13.3463 10.6541 14.4377 12.0002 14.4377C13.3462 14.4376 14.4376 13.3462 14.4377 12.0002ZM15.5627 12.0002C15.5626 13.9676 13.9676 15.5626 12.0002 15.5627C10.0328 15.5627 8.43788 13.9676 8.43774 12.0002C8.43774 10.0327 10.0327 8.43774 12.0002 8.43774C13.9676 8.43788 15.5627 10.0328 15.5627 12.0002ZM14.5623 3.0874C14.5631 3.29939 14.6262 3.50682 14.7432 3.68359C14.8602 3.86036 15.0266 3.99921 15.2214 4.08276L15.2273 4.08569C15.426 4.17332 15.6464 4.19912 15.8601 4.1604C16.0739 4.12163 16.2717 4.02011 16.427 3.86816L16.4819 3.8125C16.7199 3.57425 17.0029 3.38555 17.314 3.25659C17.6249 3.1277 17.9581 3.06108 18.2947 3.06104C18.6314 3.06104 18.965 3.12764 19.2761 3.25659C19.5869 3.38543 19.8696 3.57381 20.1074 3.81177C20.3457 4.04975 20.5351 4.33272 20.6641 4.6438C20.793 4.95483 20.8589 5.28856 20.8589 5.62524C20.8589 5.96177 20.7929 6.29506 20.6641 6.60596C20.5351 6.91704 20.3457 7.2 20.1074 7.43799L20.0481 7.49805C19.8985 7.65269 19.7979 7.84803 19.7595 8.05981C19.7208 8.27358 19.7473 8.49387 19.835 8.69263C19.8592 8.74749 19.8738 8.80603 19.8796 8.86548C19.9644 9.02278 20.0865 9.15739 20.2363 9.25659C20.4131 9.37366 20.6205 9.43665 20.8325 9.4375H21.0002C21.6798 9.43757 22.3318 9.70773 22.8123 10.1882C23.2927 10.6688 23.5623 11.3207 23.5623 12.0002C23.5622 12.6798 23.2928 13.3318 22.8123 13.8123C22.3318 14.2928 21.6798 14.5622 21.0002 14.5623H20.9124L20.8333 14.5659C20.649 14.5801 20.4709 14.6407 20.3162 14.7432C20.1394 14.8602 20.0005 15.0265 19.917 15.2214L19.9148 15.2273C19.8271 15.426 19.8006 15.6464 19.8394 15.8601C19.8781 16.0737 19.9799 16.271 20.1316 16.4263L20.188 16.4819H20.1873C20.4255 16.7199 20.6149 17.0029 20.7439 17.314C20.8727 17.6249 20.9387 17.9581 20.9387 18.2947C20.9387 18.6314 20.8728 18.9651 20.7439 19.2761C20.615 19.587 20.426 19.8695 20.188 20.1074C19.95 20.3457 19.667 20.5351 19.356 20.6641C19.0451 20.7929 18.7118 20.8589 18.3752 20.8589C18.0386 20.8589 17.7048 20.793 17.3938 20.6641C17.0827 20.5351 16.7998 20.3457 16.5618 20.1074V20.1067L16.5024 20.0481V20.0474C16.3478 19.8979 16.1517 19.7979 15.9399 19.7595C15.7262 19.7208 15.5058 19.7473 15.3071 19.835L15.3013 19.8372C15.1065 19.9207 14.94 20.0596 14.823 20.2363C14.706 20.4131 14.6437 20.6205 14.6428 20.8325V21.0002C14.6428 21.6798 14.3726 22.3318 13.8921 22.8123C13.4116 23.2927 12.7596 23.5622 12.0801 23.5623C11.4005 23.5623 10.7486 23.2927 10.2681 22.8123C9.78756 22.3318 9.5174 21.6798 9.51733 21.0002V20.9233L9.51294 20.842C9.49433 20.6529 9.42623 20.4715 9.31519 20.3162C9.1883 20.1388 9.01083 20.0033 8.80615 19.928C8.79514 19.9239 8.78393 19.9195 8.77319 19.9148C8.5744 19.8271 8.35346 19.8006 8.13965 19.8394C7.92588 19.8781 7.7288 19.9804 7.57349 20.1323L7.51782 20.188L7.51709 20.1873C7.2792 20.4253 6.99741 20.615 6.68652 20.7439C6.37547 20.8728 6.0418 20.9387 5.70508 20.9387C5.36833 20.9387 5.03472 20.8729 4.72363 20.7439C4.41256 20.6149 4.13031 20.4255 3.89233 20.1873C3.65428 19.9494 3.4653 19.6669 3.33643 19.356C3.20756 19.045 3.1409 18.7118 3.14087 18.3752C3.14087 18.0385 3.20747 17.7049 3.33643 17.3938C3.46538 17.0827 3.65408 16.7998 3.89233 16.5618L3.948 16.5068C4.09994 16.3515 4.20147 16.1537 4.24023 15.9399C4.27894 15.7262 4.25321 15.5058 4.16553 15.3071L4.1626 15.3013V15.3005C4.07901 15.1061 3.94065 14.9399 3.76416 14.823C3.60945 14.7205 3.43121 14.66 3.24707 14.6458L3.16797 14.6428H3.00024C2.3207 14.6428 1.66878 14.3725 1.18823 13.8921C0.707689 13.4115 0.437521 12.7597 0.4375 12.0801C0.4375 11.4005 0.707671 10.7486 1.18823 10.2681C1.66879 9.78756 2.32067 9.51733 3.00024 9.51733H3.07715C3.29519 9.51217 3.50692 9.44207 3.68433 9.31519C3.86167 9.18832 3.99644 9.01077 4.07178 8.80615L4.08569 8.77319C4.17343 8.5744 4.19917 8.35345 4.1604 8.13965C4.12646 7.9526 4.04418 7.77827 3.92236 7.63354L3.86816 7.57349L3.8125 7.51782C3.57436 7.27993 3.38553 6.99745 3.25659 6.68652C3.12765 6.37547 3.06105 6.0418 3.06104 5.70508C3.06104 5.36833 3.12764 5.03472 3.25659 4.72363C3.38545 4.41284 3.5738 4.13017 3.81177 3.89233C4.04975 3.65408 4.33272 3.46538 4.6438 3.33643C4.95488 3.20747 5.2885 3.14087 5.62524 3.14087C5.96183 3.1409 6.29501 3.20756 6.60596 3.33643C6.91701 3.46537 7.20001 3.65411 7.43799 3.89233L7.49365 3.948L7.55371 4.0022C7.69846 4.12404 7.87272 4.20631 8.05981 4.24023C8.27353 4.27898 8.4939 4.25317 8.69263 4.16553L8.74756 4.14429C8.78539 4.13211 8.82447 4.12407 8.86401 4.12012C9.02167 4.03541 9.15719 3.91417 9.25659 3.76416C9.37325 3.588 9.43619 3.38141 9.4375 3.17017V3.00024C9.4375 2.32063 9.70767 1.66879 10.1882 1.18823C10.6688 0.707671 11.3206 0.4375 12.0002 0.4375C12.6798 0.437565 13.3318 0.707728 13.8123 1.18823C14.2927 1.66877 14.5623 2.32074 14.5623 3.00024V3.0874Z"/>
  </g>
  <defs>
    <clipPath id="a">
      <path d="M0 0H24V24H0z"/>
    </clipPath>
  </defs>
</svg>