<svg xmlns="http://www.w3.org/2000/svg" width="24" height="24" fill="currentcolor" class="icon-share" viewBox="0 0 24 24">
  <path d="M3.4375 20V11.9998C3.43763 11.6892 3.68942 11.4373 4 11.4373C4.31058 11.4373 4.56237 11.6892 4.5625 11.9998V20L4.56982 20.1421C4.60251 20.4712 4.74777 20.7807 4.98364 21.0166C5.25321 21.2861 5.61905 21.4377 6.00024 21.4377H18.0002C18.3813 21.4377 18.7466 21.286 19.0161 21.0166C19.2857 20.747 19.4373 20.3812 19.4373 20V11.9998C19.4374 11.6893 19.6893 11.4374 19.9998 11.4373C20.3103 11.4373 20.5621 11.6892 20.5623 11.9998V20C20.5623 20.6796 20.2927 21.3315 19.8123 21.812C19.3318 22.2925 18.6798 22.5627 18.0002 22.5627H6.00024C5.32068 22.5627 4.66878 22.2925 4.18823 21.812C3.73762 21.3614 3.47177 20.7602 3.44043 20.1267L3.4375 20ZM11.4377 14.9998V3.35718L8.39746 6.39746C8.17779 6.61713 7.82172 6.61713 7.60205 6.39746C7.38262 6.17777 7.38246 5.82164 7.60205 5.60205L11.6025 1.60229L11.6882 1.53198C11.7799 1.47091 11.8884 1.4375 12.0002 1.4375C12.1493 1.43756 12.2925 1.49686 12.3979 1.60229L16.3977 5.60205C16.6173 5.82168 16.6173 6.17778 16.3977 6.39746C16.178 6.61713 15.822 6.61713 15.6023 6.39746L12.5627 3.35791V14.9998C12.5627 15.3103 12.3108 15.5621 12.0002 15.5623C11.6896 15.5623 11.4377 15.3104 11.4377 14.9998Z"/>
</svg>