<svg xmlns="http://www.w3.org/2000/svg" width="24" height="24" fill="currentcolor" class="icon-share-2" viewBox="0 0 24 24">
  <path d="M20.4375 19.0002C20.4375 17.654 19.3462 16.5627 18 16.5627C17.1361 16.5627 16.3777 17.0122 15.9448 17.6899C15.934 17.7182 15.9217 17.7465 15.906 17.7734C15.889 17.8026 15.8692 17.8291 15.8481 17.854C15.6658 18.1956 15.5625 18.586 15.5625 19.0002C15.5626 20.3463 16.6539 21.4377 18 21.4377C19.3461 21.4377 20.4374 20.3463 20.4375 19.0002ZM8.4375 11.9998C8.43746 11.5617 8.32126 11.1509 8.1189 10.7957C8.11413 10.7883 8.10871 10.7813 8.10425 10.7737C8.09885 10.7644 8.09441 10.7545 8.0896 10.7451C7.66322 10.0366 6.88713 9.56226 6 9.56226C4.65389 9.56226 3.56263 10.6537 3.5625 11.9998C3.5625 13.3459 4.65381 14.4373 6 14.4373C6.88728 14.4373 7.66326 13.9631 8.0896 13.2544C8.0943 13.2452 8.09899 13.2356 8.10425 13.2266C8.10881 13.2187 8.11402 13.2114 8.1189 13.2039C8.32116 12.8486 8.4375 12.4378 8.4375 11.9998ZM20.4375 5C20.4375 3.65381 19.3462 2.5625 18 2.5625C16.6538 2.5625 15.5625 3.65381 15.5625 5C15.5625 5.43927 15.6792 5.8511 15.8826 6.20703C15.8868 6.21361 15.8918 6.22 15.8958 6.22681C15.9017 6.23708 15.9066 6.24782 15.9119 6.2583C16.3387 6.96503 17.1142 7.4375 18 7.4375C19.3462 7.4375 20.4375 6.34619 20.4375 5ZM21.5625 5C21.5625 6.96751 19.9675 8.5625 18 8.5625C16.8894 8.5625 15.898 8.05388 15.2446 7.25732L9.32227 10.7136C9.47687 11.1126 9.56247 11.5461 9.5625 11.9998C9.5625 12.4531 9.47664 12.8864 9.32227 13.2852L15.2476 16.7378C15.9009 15.9437 16.8914 15.4377 18 15.4377C19.9675 15.4377 21.5625 17.0327 21.5625 19.0002C21.5624 20.9676 19.9674 22.5627 18 22.5627C16.0326 22.5627 14.4376 20.9676 14.4375 19.0002C14.4375 18.5448 14.5234 18.1093 14.6792 17.709L8.75537 14.2571C8.10203 15.0537 7.11068 15.5623 6 15.5623C4.03249 15.5623 2.4375 13.9673 2.4375 11.9998C2.43763 10.0324 4.03257 8.43726 6 8.43726C7.11017 8.43726 8.10129 8.94569 8.75464 9.7417L14.677 6.2854C14.5226 5.88661 14.4375 5.45328 14.4375 5C14.4375 3.03249 16.0325 1.4375 18 1.4375C19.9675 1.4375 21.5625 3.03249 21.5625 5Z"/>
</svg>