<svg xmlns="http://www.w3.org/2000/svg" width="24" height="24" fill="currentcolor" class="icon-shield-off" viewBox="0 0 24 24">
  <g clip-path="url(#a)">
    <path d="M0.602313 0.602252C0.821983 0.382583 1.17805 0.382583 1.39772 0.602252L23.3975 22.602C23.6171 22.8217 23.6171 23.1777 23.3975 23.3974C23.1778 23.6171 22.8217 23.6171 22.6021 23.3974L17.6348 18.4301C16.0769 20.067 14.2633 21.4415 12.2625 22.4973C12.1221 22.5713 11.9581 22.5823 11.8106 22.5295L11.7483 22.5031L11.7476 22.5024L11.7403 22.4987C11.7356 22.4964 11.7288 22.4935 11.7205 22.4892C11.7037 22.4806 11.6796 22.4681 11.6487 22.4519C11.5866 22.4193 11.4968 22.371 11.3836 22.3083C11.1572 22.183 10.8362 21.9984 10.4519 21.7583C9.68424 21.2785 8.65851 20.5731 7.6299 19.6731C5.59634 17.8937 3.43763 15.2512 3.43752 12.0002V4.99971C3.43761 4.79687 3.5466 4.61268 3.71804 4.51339L0.602313 1.39766C0.382644 1.17799 0.382644 0.821922 0.602313 0.602252ZM11.9007 1.446C11.9995 1.42827 12.1021 1.43745 12.1973 1.4731L20.1975 4.4731C20.417 4.5554 20.5622 4.76534 20.5623 4.99971V12.0039C20.5574 12.7373 20.445 13.4662 20.2276 14.1667C20.1355 14.4634 19.8197 14.6294 19.523 14.5373C19.2265 14.4451 19.0611 14.13 19.1531 13.8335C19.3374 13.2397 19.4328 12.6219 19.4373 12.0002V5.38863L11.9995 2.6003L9.03688 3.70699C8.74585 3.81566 8.42193 3.66769 8.31325 3.37667C8.20457 3.08564 8.35254 2.76171 8.64357 2.65303L11.8032 1.4731L11.9007 1.446ZM4.56252 12.0002C4.56263 14.7489 6.40411 17.1058 8.37038 18.8264C9.34169 19.6763 10.3158 20.3462 11.0481 20.8039C11.4135 21.0323 11.7173 21.207 11.9285 21.3239C11.9525 21.3372 11.9758 21.3495 11.9973 21.3613C13.7955 20.3777 15.4291 19.1207 16.8394 17.6347L4.58669 5.38204L4.56252 5.39156V12.0002Z"/>
  </g>
  <defs>
    <clipPath id="a">
      <path d="M0 0H24V24H0z"/>
    </clipPath>
  </defs>
</svg>