<svg xmlns="http://www.w3.org/2000/svg" width="24" height="24" fill="currentcolor" class="icon-shield" viewBox="0 0 24 24">
  <path d="M12.2515 22.5034C12.0931 22.5825 11.9066 22.5826 11.7483 22.5034L12.0002 22.0003L12.2515 22.5034ZM19.4373 5.38893L11.9995 2.6006L4.5625 5.38966V11.9998C4.5625 14.7486 6.40398 17.1061 8.37036 18.8267C9.34172 19.6766 10.3158 20.3465 11.0481 20.8042C11.4136 21.0326 11.7173 21.2073 11.9285 21.3242C11.9532 21.3379 11.9773 21.3502 11.9995 21.3623C12.0219 21.3501 12.0462 21.3381 12.0713 21.3242C12.2824 21.2074 12.5862 21.0327 12.9517 20.8042C13.6839 20.3465 14.6581 19.6766 15.6294 18.8267C17.5958 17.1061 19.4373 14.7486 19.4373 11.9998V5.38893ZM20.5623 11.9998C20.5623 15.2508 18.4042 17.8939 16.3706 19.6734C15.342 20.5734 14.3155 21.2787 13.5479 21.7586C13.1636 21.9987 12.8425 22.1833 12.6162 22.3086C12.503 22.3713 12.4131 22.4189 12.3511 22.4514C12.3201 22.4677 12.2961 22.4802 12.2793 22.4888C12.2709 22.4931 12.2642 22.4967 12.2595 22.499C12.2573 22.5001 12.2557 22.5013 12.2544 22.502L12.2522 22.5027L12.0002 22.0003L11.7483 22.5027H11.7476L11.7402 22.499C11.7356 22.4967 11.7288 22.4931 11.7205 22.4888C11.7037 22.4802 11.6796 22.4676 11.6487 22.4514C11.5866 22.4189 11.4967 22.3712 11.3835 22.3086C11.1572 22.1833 10.8362 21.9987 10.4519 21.7586C9.68425 21.2788 8.65845 20.5733 7.62988 19.6734C5.59627 17.8939 3.4375 15.2509 3.4375 11.9998V5.00001L3.44409 4.91359C3.47487 4.71522 3.61022 4.54551 3.80225 4.4734L11.8025 1.4734C11.9298 1.42567 12.07 1.42572 12.1973 1.4734L20.1975 4.4734C20.417 4.55574 20.5623 4.76555 20.5623 5.00001V11.9998Z"/>
</svg>