<svg xmlns="http://www.w3.org/2000/svg" width="24" height="24" fill="currentcolor" class="icon-shield-off" viewBox="0 0 24 24">
  <g clip-path="url(#a)">
    <path d="M0.602252 0.602252C0.821922 0.382583 1.17799 0.382583 1.39766 0.602252L23.3974 22.602C23.6171 22.8217 23.6171 23.1777 23.3974 23.3974C23.1777 23.6171 22.8217 23.6171 22.602 23.3974L17.6347 18.4301C16.0768 20.067 14.2633 21.4415 12.2624 22.4973C12.122 22.5713 11.958 22.5823 11.8105 22.5295L11.7482 22.5031L11.7475 22.5024L11.7402 22.4987C11.7355 22.4964 11.7287 22.4935 11.7204 22.4892C11.7037 22.4806 11.6796 22.4681 11.6486 22.4519C11.5866 22.4193 11.4967 22.371 11.3835 22.3083C11.1572 22.183 10.8361 21.9984 10.4519 21.7583C9.68418 21.2785 8.65844 20.5731 7.62984 19.6731C5.59628 17.8937 3.43757 15.2512 3.43746 12.0002V4.99971C3.43754 4.79687 3.54654 4.61268 3.71798 4.51339L0.602252 1.39766C0.382583 1.17799 0.382583 0.821922 0.602252 0.602252ZM11.9006 1.446C11.9995 1.42827 12.102 1.43745 12.1972 1.4731L20.1975 4.4731C20.4169 4.5554 20.5621 4.76534 20.5622 4.99971V12.0039C20.5574 12.7373 20.4449 13.4662 20.2275 14.1667C20.1354 14.4634 19.8196 14.6294 19.5229 14.5373C19.2264 14.4451 19.0611 14.13 19.153 13.8335C19.3373 13.2397 19.4327 12.6219 19.4372 12.0002V5.38863L11.9995 2.6003L9.03682 3.70699C8.74579 3.81566 8.42187 3.66769 8.31319 3.37667C8.20451 3.08564 8.35248 2.76171 8.64351 2.65303L11.8032 1.4731L11.9006 1.446ZM4.56246 12.0002C4.56257 14.7489 6.40404 17.1058 8.37032 18.8264C9.34163 19.6763 10.3158 20.3462 11.0481 20.8039C11.4135 21.0323 11.7173 21.207 11.9284 21.3239C11.9524 21.3372 11.9757 21.3495 11.9973 21.3613C13.7955 20.3777 15.429 19.1207 16.8393 17.6347L4.58663 5.38204L4.56246 5.39156V12.0002Z"/>
  </g>
  <defs>
    <clipPath id="a">
      <path d="M0 0H24V24H0z"/>
    </clipPath>
  </defs>
</svg>