<svg xmlns="http://www.w3.org/2000/svg" width="24" height="24" fill="currentcolor" class="icon-shopping-bag" viewBox="0 0 24 24">
  <path d="M20.4375 6.56238H3.5625V20.0001C3.5625 20.3814 3.71406 20.7471 3.98364 21.0167C4.25321 21.2862 4.61905 21.4379 5.00024 21.4379H18.9998C19.3809 21.4379 19.7468 21.2862 20.0164 21.0167C20.2859 20.7471 20.4375 20.3814 20.4375 20.0001V6.56238ZM7.43774 10.0004C7.43774 9.68971 7.68958 9.43787 8.00024 9.43787C8.31082 9.43797 8.56274 9.68977 8.56274 10.0004C8.56282 10.9118 8.92466 11.786 9.56909 12.4305C10.2137 13.0752 11.0883 13.4376 12 13.4376C12.9117 13.4376 13.7863 13.0752 14.4309 12.4305C15.0754 11.786 15.4372 10.9119 15.4373 10.0004C15.4373 9.68981 15.6892 9.43803 15.9998 9.43787C16.3104 9.43787 16.5623 9.68971 16.5623 10.0004C16.5622 11.2102 16.0818 12.3704 15.2263 13.226C14.3707 14.0816 13.2101 14.5626 12 14.5626C10.79 14.5626 9.6293 14.0816 8.77368 13.226C7.91827 12.3704 7.43782 11.2102 7.43774 10.0004ZM4.125 5.43738H19.875L17.7188 2.56262H6.28125L4.125 5.43738ZM21.5625 20.0001C21.5625 20.6797 21.2923 21.3316 20.8118 21.8121C20.3312 22.2926 19.6793 22.5629 18.9998 22.5629H5.00024C4.32068 22.5629 3.66878 22.2926 3.18823 21.8121C2.70767 21.3316 2.4375 20.6797 2.4375 20.0001V5.99988C2.43755 5.87829 2.47735 5.76025 2.55029 5.66296L5.55029 1.66248L5.59277 1.61194C5.69825 1.50127 5.84521 1.43762 6 1.43762H18C18.177 1.43762 18.3435 1.52098 18.4497 1.66248L21.4497 5.66296C21.5226 5.76025 21.5624 5.87829 21.5625 5.99988V20.0001Z"/>
</svg>