<svg xmlns="http://www.w3.org/2000/svg" width="24" height="24" fill="currentcolor" class="icon-shopping-cart" viewBox="0 0 24 24">
  <path d="M9.4375 21.0002C9.4375 20.7587 9.24176 20.5624 9.00024 20.5623C8.75862 20.5623 8.56226 20.7586 8.56226 21.0002C8.56239 21.2418 8.7587 21.4375 9.00024 21.4375C9.24167 21.4374 9.43737 21.2417 9.4375 21.0002ZM20.4377 21.0002C20.4377 20.7586 20.2414 20.5623 19.9998 20.5623C19.7582 20.5624 19.5625 20.7587 19.5625 21.0002C19.5626 21.2417 19.7583 21.4374 19.9998 21.4375C20.2413 21.4375 20.4376 21.2418 20.4377 21.0002ZM4.99976 0.4375C5.26777 0.4375 5.49856 0.626645 5.55127 0.889404L6.46167 5.43774H22.9998C23.1674 5.43774 23.3265 5.51224 23.4333 5.64136C23.5402 5.77052 23.5841 5.94104 23.5527 6.10571L21.9524 14.4956L21.9517 14.4993C21.8345 15.0891 21.5134 15.6192 21.0449 15.9963C20.5792 16.3712 19.9974 16.5707 19.3999 16.5618V16.5625H9.67993V16.5618C9.08243 16.5707 8.50057 16.3712 8.03491 15.9963C7.56673 15.6194 7.24551 15.0902 7.12817 14.5007L5.4502 6.1189C5.44884 6.11259 5.44768 6.10624 5.44653 6.09985L4.53833 1.5625H1C0.68934 1.5625 0.4375 1.31066 0.4375 1C0.4375 0.68934 0.68934 0.4375 1 0.4375H4.99976ZM8.2312 14.2795L8.23193 14.2803C8.29766 14.6112 8.47743 14.9088 8.74023 15.1204C9.00295 15.3318 9.33177 15.4439 9.66895 15.4375H19.4109C19.7481 15.4439 20.0769 15.3318 20.3396 15.1204C20.6013 14.9097 20.7807 14.6139 20.8472 14.2847L22.3201 6.56274H6.68652L8.2312 14.2795ZM10.5625 21.0002C10.5624 21.863 9.863 22.5624 9.00024 22.5625C8.13738 22.5625 7.43739 21.8631 7.43726 21.0002C7.43726 20.1373 8.1373 19.4373 9.00024 19.4373C9.86308 19.4374 10.5625 20.1374 10.5625 21.0002ZM21.5627 21.0002C21.5626 21.8631 20.8626 22.5625 19.9998 22.5625C19.137 22.5624 18.4376 21.863 18.4375 21.0002C18.4375 20.1374 19.1369 19.4374 19.9998 19.4373C20.8627 19.4373 21.5627 20.1373 21.5627 21.0002Z"/>
</svg>