<svg xmlns="http://www.w3.org/2000/svg" width="24" height="24" fill="currentcolor" class="icon-shuffle" viewBox="0 0 24 24">
  <path d="M14.6024 14.6023C14.8221 14.3827 15.1782 14.3827 15.3978 14.6023L20.4376 19.6421V15.9998C20.4378 15.6892 20.6896 15.4373 21.0001 15.4373C21.3106 15.4374 21.5625 15.6893 21.5626 15.9998V21C21.5626 21.3106 21.3107 21.5624 21.0001 21.5625H15.9999C15.6892 21.5625 15.4374 21.3107 15.4374 21C15.4374 20.6893 15.6892 20.4375 15.9999 20.4375H19.6422L14.6024 15.3977C14.3828 15.178 14.3828 14.822 14.6024 14.6023ZM3.60219 3.60205C3.82183 3.38254 4.17796 3.38254 4.3976 3.60205L9.39785 8.60229C9.61735 8.82193 9.61735 9.17807 9.39785 9.39771C9.17822 9.61733 8.82212 9.61725 8.60244 9.39771L3.60219 4.39746C3.38264 4.17778 3.38256 3.82168 3.60219 3.60205ZM21.5626 8.00024C21.5625 8.31071 21.3106 8.56261 21.0001 8.56274C20.6896 8.56274 20.4378 8.31079 20.4376 8.00024V4.35791L4.3976 20.3979C4.17796 20.6175 3.82183 20.6175 3.60219 20.3979C3.38256 20.1783 3.38264 19.8222 3.60219 19.6025L19.6422 3.5625H15.9999C15.6892 3.5625 15.4374 3.31066 15.4374 3C15.4374 2.68934 15.6892 2.4375 15.9999 2.4375H21.0001C21.3107 2.43763 21.5626 2.68942 21.5626 3V8.00024Z"/>
</svg>