<svg xmlns="http://www.w3.org/2000/svg" width="24" height="24" fill="currentcolor" class="icon-shuffle" viewBox="0 0 24 24">
  <path d="M14.6026 14.6023C14.8222 14.3827 15.1783 14.3827 15.398 14.6023L20.4378 19.6421V15.9998C20.4379 15.6892 20.6897 15.4373 21.0003 15.4373C21.3107 15.4374 21.5626 15.6893 21.5628 15.9998V21C21.5628 21.3106 21.3108 21.5624 21.0003 21.5625H16C15.6894 21.5625 15.4375 21.3107 15.4375 21C15.4375 20.6893 15.6894 20.4375 16 20.4375H19.6424L14.6026 15.3977C14.3829 15.178 14.3829 14.822 14.6026 14.6023ZM3.60231 3.60205C3.82195 3.38254 4.17808 3.38254 4.39772 3.60205L9.39797 8.60229C9.61748 8.82193 9.61747 9.17807 9.39797 9.39771C9.17834 9.61733 8.82224 9.61725 8.60256 9.39771L3.60231 4.39746C3.38277 4.17778 3.38268 3.82168 3.60231 3.60205ZM21.5628 8.00024C21.5626 8.31071 21.3107 8.56261 21.0003 8.56274C20.6897 8.56274 20.4379 8.31079 20.4378 8.00024V4.35791L4.39772 20.3979C4.17808 20.6175 3.82195 20.6175 3.60231 20.3979C3.38268 20.1783 3.38277 19.8222 3.60231 19.6025L19.6424 3.5625H16C15.6894 3.5625 15.4375 3.31066 15.4375 3C15.4375 2.68934 15.6894 2.4375 16 2.4375H21.0003C21.3108 2.43763 21.5628 2.68942 21.5628 3V8.00024Z"/>
</svg>