<svg xmlns="http://www.w3.org/2000/svg" width="24" height="24" fill="currentcolor" class="icon-skip-back" viewBox="0 0 24 24">
  <path d="M18.6487 3.56056C18.8175 3.42563 19.0486 3.39963 19.2434 3.49318C19.4383 3.58685 19.5627 3.78379 19.5627 4.00002V19.9998C19.5627 20.216 19.4383 20.4137 19.2434 20.5073C19.0486 20.6008 18.8174 20.5742 18.6487 20.4392L8.64893 12.439C8.51556 12.3323 8.43733 12.171 8.43726 12.0003C8.43726 11.8294 8.51549 11.6676 8.64893 11.5608L18.6487 3.56056ZM4.4375 19V4.99977C4.43763 4.68922 4.68942 4.43727 5 4.43727C5.31058 4.43727 5.56237 4.68922 5.5625 4.99977V19C5.5625 19.3107 5.31066 19.5625 5 19.5625C4.68934 19.5625 4.4375 19.3107 4.4375 19ZM9.8999 11.9995L18.4377 18.8301V5.16969L9.8999 11.9995Z"/>
</svg>