<svg xmlns="http://www.w3.org/2000/svg" width="24" height="24" fill="currentcolor" class="icon-skip-forward" viewBox="0 0 24 24">
  <path d="M4.7561 3.49315C4.95099 3.39948 5.18272 3.42545 5.35156 3.56053L15.3513 11.5608C15.4848 11.6675 15.5623 11.8294 15.5623 12.0002C15.5622 12.171 15.4846 12.3323 15.3513 12.4389L5.35156 20.4392C5.18272 20.5743 4.95099 20.601 4.7561 20.5073C4.56125 20.4136 4.4375 20.2159 4.4375 19.9997V3.99998C4.4375 3.78385 4.56136 3.58686 4.7561 3.49315ZM18.4377 19V4.99974C18.4379 4.68919 18.6897 4.43724 19.0002 4.43724C19.3107 4.43737 19.5626 4.68927 19.5627 4.99974V19C19.5627 19.3106 19.3108 19.5624 19.0002 19.5625C18.6896 19.5625 18.4377 19.3106 18.4377 19ZM5.5625 18.8293L14.0996 11.9995L5.5625 5.17039V18.8293Z"/>
</svg>