<svg xmlns="http://www.w3.org/2000/svg" width="24" height="24" fill="currentcolor" class="icon-slack" viewBox="0 0 24 24">
  <path d="M10.4375 15.5C10.4375 14.9807 10.0193 14.5625 9.5 14.5625C8.98066 14.5625 8.5625 14.9807 8.5625 15.5V20.5002C8.56263 21.0195 8.98074 21.4377 9.5 21.4377C10.0193 21.4377 10.4374 21.0195 10.4375 20.5002V15.5ZM16.4375 20.5002C16.4375 19.9809 16.0193 19.5627 15.5 19.5627H14.5625V20.5002C14.5626 21.0195 14.9807 21.4377 15.5 21.4377C16.0193 21.4377 16.4374 21.0195 16.4375 20.5002ZM4.4375 14.5625H3.5C2.98066 14.5625 2.5625 14.9807 2.5625 15.5C2.5625 16.0193 2.98066 16.4375 3.5 16.4375C4.01934 16.4375 4.4375 16.0193 4.4375 15.5V14.5625ZM21.4377 14.5002C21.4377 13.981 21.0195 13.5629 20.5002 13.5627H15.5C14.9807 13.5627 14.5625 13.9809 14.5625 14.5002C14.5626 15.0195 14.9807 15.4377 15.5 15.4377H20.5002C21.0194 15.4376 21.4376 15.0194 21.4377 14.5002ZM9.43774 9.5C9.43774 8.98074 9.01947 8.56263 8.50024 8.5625H3.5C2.98066 8.5625 2.5625 8.98066 2.5625 9.5C2.5625 10.0193 2.98066 10.4375 3.5 10.4375H8.50024C9.01947 10.4374 9.43774 10.0193 9.43774 9.5ZM15.4377 3.5C15.4377 2.98074 15.0195 2.56263 14.5002 2.5625C13.9809 2.5625 13.5627 2.98066 13.5627 3.5V8.50024C13.5629 9.01947 13.981 9.43774 14.5002 9.43774C15.0194 9.43761 15.4376 9.01939 15.4377 8.50024V3.5ZM21.4377 8.50024C21.4377 7.98099 21.0195 7.56287 20.5002 7.56274C19.9809 7.56274 19.5627 7.9809 19.5627 8.50024V9.43774H20.5002C21.0194 9.43761 21.4376 9.01939 21.4377 8.50024ZM9.43774 3.5C9.43774 2.98074 9.01947 2.56263 8.50024 2.5625C7.9809 2.5625 7.56274 2.98066 7.56274 3.5C7.56274 4.01934 7.9809 4.4375 8.50024 4.4375H9.43774V3.5ZM17.5625 20.5002C17.5624 21.6408 16.6406 22.5627 15.5 22.5627C14.3594 22.5627 13.4376 21.6408 13.4375 20.5002V19.0002C13.4375 18.6896 13.6893 18.4377 14 18.4377H15.5C16.6407 18.4377 17.5625 19.3596 17.5625 20.5002ZM5.5625 15.5C5.5625 16.6407 4.64066 17.5625 3.5 17.5625C2.35934 17.5625 1.4375 16.6407 1.4375 15.5C1.4375 14.3593 2.35934 13.4375 3.5 13.4375H5C5.31066 13.4375 5.5625 13.6893 5.5625 14V15.5ZM11.5625 20.5002C11.5624 21.6408 10.6406 22.5627 9.5 22.5627C8.35942 22.5627 7.43763 21.6408 7.4375 20.5002V15.5C7.4375 14.3593 8.35934 13.4375 9.5 13.4375C10.6407 13.4375 11.5625 14.3593 11.5625 15.5V20.5002ZM22.5627 14.5002C22.5626 15.6407 21.6407 16.5626 20.5002 16.5627H15.5C14.3594 16.5627 13.4376 15.6408 13.4375 14.5002C13.4375 13.3596 14.3593 12.4377 15.5 12.4377H20.5002C21.6408 12.4379 22.5627 13.3597 22.5627 14.5002ZM10.5627 9.5C10.5627 10.6406 9.64079 11.5624 8.50024 11.5625H3.5C2.35934 11.5625 1.4375 10.6407 1.4375 9.5C1.4375 8.35934 2.35934 7.4375 3.5 7.4375H8.50024C9.64079 7.43763 10.5627 8.35942 10.5627 9.5ZM22.5627 8.50024C22.5626 9.64071 21.6407 10.5626 20.5002 10.5627H19.0002C18.6897 10.5627 18.4379 10.3108 18.4377 10.0002V8.50024C18.4377 7.35958 19.3596 6.43774 20.5002 6.43774C21.6408 6.43788 22.5627 7.35967 22.5627 8.50024ZM10.5627 5C10.5627 5.31058 10.3108 5.56237 10.0002 5.5625H8.50024C7.35958 5.5625 6.43774 4.64066 6.43774 3.5C6.43774 2.35934 7.35958 1.4375 8.50024 1.4375C9.64079 1.43763 10.5627 2.35942 10.5627 3.5V5ZM16.5627 8.50024C16.5626 9.64071 15.6407 10.5626 14.5002 10.5627C13.3597 10.5627 12.4379 9.64079 12.4377 8.50024V3.5C12.4377 2.35934 13.3596 1.4375 14.5002 1.4375C15.6408 1.43763 16.5627 2.35942 16.5627 3.5V8.50024Z"/>
</svg>