<svg xmlns="http://www.w3.org/2000/svg" width="24" height="24" fill="currentcolor" class="icon-slash" viewBox="0 0 24 24">
  <path d="M21.4377 11.9998C21.4376 6.78768 17.2119 2.5625 11.9998 2.5625C9.59619 2.56256 7.40379 3.4626 5.73755 4.94214L19.0574 18.262C20.5369 16.5957 21.4377 14.4034 21.4377 11.9998ZM2.5625 11.9998C2.5625 17.2119 6.78768 21.4376 11.9998 21.4377C14.4034 21.4377 16.5957 20.5369 18.262 19.0574L4.94214 5.73755C3.4626 7.40379 2.56256 9.59619 2.5625 11.9998ZM22.5627 11.9998C22.5627 17.8333 17.8333 22.5627 11.9998 22.5627C6.16636 22.5626 1.4375 17.8332 1.4375 11.9998C1.43763 6.16644 6.16644 1.43763 11.9998 1.4375C17.8332 1.4375 22.5626 6.16636 22.5627 11.9998Z"/>
</svg>