<svg xmlns="http://www.w3.org/2000/svg" width="24" height="24" fill="currentcolor" class="icon-sliders" viewBox="0 0 24 24">
  <path d="M3.4375 21V14.5627H1C0.689421 14.5627 0.437632 14.3108 0.4375 14.0002C0.4375 13.6896 0.68934 13.4377 1 13.4377H7C7.31066 13.4377 7.5625 13.6896 7.5625 14.0002C7.56237 14.3108 7.31058 14.5627 7 14.5627H4.5625V21C4.5625 21.3107 4.31066 21.5625 4 21.5625C3.68934 21.5625 3.4375 21.3107 3.4375 21ZM11.4377 21V12C11.4377 11.6893 11.6896 11.4375 12.0002 11.4375C12.3108 11.4376 12.5627 11.6894 12.5627 12V21C12.5627 21.3106 12.3108 21.5624 12.0002 21.5625C11.6896 21.5625 11.4377 21.3107 11.4377 21ZM19.4373 21V16.5623H16.9998C16.6892 16.5621 16.4373 16.3103 16.4373 15.9998C16.4374 15.6893 16.6893 15.4374 16.9998 15.4373H22.9998C23.3103 15.4373 23.5621 15.6892 23.5623 15.9998C23.5623 16.3104 23.3104 16.5623 22.9998 16.5623H20.5623V21C20.5623 21.3107 20.3104 21.5625 19.9998 21.5625C19.6892 21.5624 19.4373 21.3106 19.4373 21ZM19.4373 12V3C19.4373 2.68942 19.6892 2.43763 19.9998 2.4375C20.3104 2.4375 20.5623 2.68934 20.5623 3V12C20.5623 12.3107 20.3104 12.5625 19.9998 12.5625C19.6892 12.5624 19.4373 12.3106 19.4373 12ZM3.4375 9.99976V3C3.4375 2.68934 3.68934 2.4375 4 2.4375C4.31066 2.4375 4.5625 2.68934 4.5625 3V9.99976C4.5625 10.3104 4.31066 10.5623 4 10.5623C3.68934 10.5623 3.4375 10.3104 3.4375 9.99976ZM11.4377 3C11.4377 2.68934 11.6896 2.4375 12.0002 2.4375C12.3108 2.43763 12.5627 2.68942 12.5627 3V7.43774H15.0002C15.3108 7.43788 15.5627 7.68967 15.5627 8.00024C15.5626 8.31071 15.3107 8.56261 15.0002 8.56274H9.00024C8.68967 8.56274 8.43788 8.31079 8.43774 8.00024C8.43774 7.68958 8.68958 7.43774 9.00024 7.43774H11.4377V3Z"/>
</svg>