<svg xmlns="http://www.w3.org/2000/svg" width="24" height="24" fill="currentcolor" class="icon-smartphone" viewBox="0 0 24 24">
  <path d="M18.4377 4.00024C18.4377 3.20633 17.7939 2.5625 17 2.5625H7.00024C6.20633 2.5625 5.5625 3.20633 5.5625 4.00024V20L5.56982 20.1472C5.64354 20.872 6.25603 21.4377 7.00024 21.4377H17C17.7939 21.4377 18.4377 20.7939 18.4377 20V4.00024ZM12.01 17.4373C12.3206 17.4373 12.5724 17.6892 12.5725 17.9998C12.5725 18.3104 12.3207 18.5623 12.01 18.5623H11.9998C11.6892 18.5621 11.4373 18.3103 11.4373 17.9998C11.4374 17.6893 11.6893 17.4374 11.9998 17.4373H12.01ZM19.5627 20C19.5627 21.4152 18.4152 22.5627 17 22.5627H7.00024C5.62924 22.5627 4.50979 21.4858 4.44116 20.1318L4.4375 20V4.00024C4.4375 2.58501 5.58501 1.4375 7.00024 1.4375H17C18.4152 1.4375 19.5627 2.58501 19.5627 4.00024V20Z"/>
</svg>