<svg xmlns="http://www.w3.org/2000/svg" width="24" height="24" fill="currentcolor" class="icon-smile" viewBox="0 0 24 24">
  <path d="M21.4377 11.9998C21.4376 6.78768 17.2119 2.5625 11.9998 2.5625C6.78776 2.56263 2.56263 6.78776 2.5625 11.9998C2.5625 17.2119 6.78768 21.4376 11.9998 21.4377C17.2119 21.4377 21.4377 17.2119 21.4377 11.9998ZM8.44897 13.6616V13.6609C8.44898 13.6609 8.44913 13.6616 8.44971 13.6624C8.45113 13.6642 8.45429 13.668 8.4585 13.6733C8.46692 13.684 8.48091 13.7016 8.50024 13.7246C8.53897 13.7707 8.59932 13.8392 8.67969 13.9231C8.84111 14.0915 9.08159 14.3184 9.39307 14.5449C10.0184 14.9997 10.9049 15.4377 11.9998 15.4377C13.0947 15.4377 13.9811 14.9997 14.6064 14.5449C14.9181 14.3183 15.1591 14.0916 15.3206 13.9231C15.4009 13.8392 15.4613 13.7707 15.5 13.7246C15.5193 13.7016 15.5333 13.684 15.5417 13.6733C15.5459 13.6681 15.5484 13.6642 15.5498 13.6624C15.7362 13.4139 16.0886 13.364 16.3372 13.5503C16.5702 13.7251 16.6295 14.0458 16.4822 14.29L16.45 14.3376L16.4485 14.3391C16.4479 14.3398 16.4477 14.3411 16.447 14.342C16.4456 14.3439 16.4433 14.3459 16.4412 14.3486C16.4368 14.3543 16.4309 14.3621 16.4236 14.3713C16.4088 14.39 16.3879 14.4159 16.3613 14.4475C16.3083 14.5107 16.2319 14.5982 16.1328 14.7017C15.935 14.9081 15.6443 15.1813 15.2686 15.4546C14.5189 15.9998 13.4047 16.5627 11.9998 16.5627C10.5949 16.5627 9.48127 15.9997 8.73169 15.4546C8.35588 15.1813 8.06531 14.9081 7.86743 14.7017C7.76825 14.5982 7.69125 14.5107 7.63818 14.4475C7.6117 14.416 7.59141 14.39 7.57666 14.3713C7.56929 14.362 7.56348 14.3543 7.55908 14.3486C7.55695 14.3459 7.55465 14.3439 7.55322 14.342C7.5525 14.3411 7.55157 14.3398 7.55103 14.3391L7.55029 14.3384V14.3376C7.36396 14.0892 7.41403 13.7367 7.66235 13.5503C7.89537 13.3755 8.21986 13.4087 8.41309 13.6184L8.44897 13.6616ZM9.01001 8.43726C9.32058 8.43726 9.57238 8.68921 9.57251 8.99976C9.57251 9.31041 9.32067 9.56225 9.01001 9.56226H8.99976C8.68921 9.56212 8.43726 9.31033 8.43726 8.99976C8.43739 8.68929 8.68929 8.43739 8.99976 8.43726H9.01001ZM15.01 8.43726C15.3206 8.43726 15.5724 8.68921 15.5725 8.99976C15.5725 9.31041 15.3207 9.56225 15.01 9.56226H14.9998C14.6892 9.56212 14.4373 9.31033 14.4373 8.99976C14.4374 8.68929 14.6893 8.43739 14.9998 8.43726H15.01ZM22.5627 11.9998C22.5627 17.8333 17.8333 22.5627 11.9998 22.5627C6.16636 22.5626 1.4375 17.8332 1.4375 11.9998C1.43763 6.16644 6.16644 1.43763 11.9998 1.4375C17.8332 1.4375 22.5626 6.16636 22.5627 11.9998Z"/>
</svg>