<svg xmlns="http://www.w3.org/2000/svg" width="24" height="24" fill="currentcolor" class="icon-sparkles" viewBox="0 0 24 24">
  <path d="M19.2188 2.4375C19.5469 2.4375 19.875 2.76562 19.875 3.09375V5.0625H21.8438C22.1719 5.0625 22.5 5.39062 22.5 5.71875C22.5 6.08789 22.1719 6.375 21.8438 6.375H19.875V8.34375C19.875 8.71289 19.5469 9 19.2188 9C18.8496 9 18.5625 8.71289 18.5625 8.34375V6.375H16.5938C16.2246 6.375 15.9375 6.08789 15.9375 5.71875C15.9375 5.39062 16.2246 5.0625 16.5938 5.0625H18.5625V3.09375C18.5625 2.76562 18.8496 2.4375 19.2188 2.4375ZM19.2188 14.25C19.5469 14.25 19.875 14.5781 19.875 14.9062V16.875H21.8438C22.1719 16.875 22.5 17.2031 22.5 17.5312C22.5 17.9004 22.1719 18.1875 21.8438 18.1875H19.875V20.1562C19.875 20.5254 19.5469 20.8125 19.2188 20.8125C18.8496 20.8125 18.5625 20.5254 18.5625 20.1562V18.1875H16.5938C16.2246 18.1875 15.9375 17.9004 15.9375 17.5312C15.9375 17.2031 16.2246 16.875 16.5938 16.875H18.5625V14.9062C18.5625 14.5781 18.8496 14.25 19.2188 14.25ZM6.54492 14.332L1.86914 12.1992C1.62305 12.0762 1.5 11.8301 1.5 11.584C1.5 11.3379 1.62305 11.0918 1.86914 10.9688L6.54492 8.83594L8.71875 4.16016C8.80078 3.91406 9.04688 3.75 9.29297 3.75C9.53906 3.75 9.78516 3.91406 9.9082 4.16016L12.041 8.83594L16.7168 10.9688C16.9629 11.0918 17.127 11.3379 17.127 11.584C17.127 11.8301 16.9629 12.0762 16.7168 12.1992L12.041 14.332L9.9082 19.0078C9.78516 19.2539 9.53906 19.418 9.29297 19.418C9.04688 19.418 8.80078 19.2539 8.71875 19.0078L6.54492 14.332ZM3.71484 11.584L7.07812 13.1426C7.36523 13.2656 7.61133 13.5117 7.73438 13.7988L9.29297 17.1621L10.8516 13.7988C10.9746 13.5117 11.2207 13.2656 11.5078 13.1426L14.8711 11.584L11.5078 10.0254C11.2207 9.90234 10.9746 9.65625 10.8516 9.36914L9.29297 6.00586L7.73438 9.36914C7.61133 9.65625 7.36523 9.90234 7.07812 10.0254L3.71484 11.584Z"/>
</svg>