<svg xmlns="http://www.w3.org/2000/svg" width="24" height="24" fill="currentcolor" class="icon-speaker" viewBox="0 0 24 24">
  <path d="M19.4373 4.00024C19.4373 3.20642 18.794 2.56263 18.0002 2.5625H6.00024C5.20633 2.5625 4.5625 3.20633 4.5625 4.00024V20L4.56982 20.1472C4.64354 20.872 5.25603 21.4377 6.00024 21.4377H18.0002C18.794 21.4376 19.4373 20.7938 19.4373 20V4.00024ZM15.4375 14C15.4375 12.1016 13.8986 10.5629 12.0002 10.5627C10.1018 10.5627 8.56226 12.1015 8.56226 14C8.56226 15.8985 10.1018 17.4373 12.0002 17.4373C13.8986 17.4371 15.4375 15.8984 15.4375 14ZM12.0098 5.43726C12.3203 5.43726 12.5721 5.68921 12.5723 5.99976C12.5723 6.31042 12.3204 6.56226 12.0098 6.56226H12.0002C11.6896 6.56226 11.4377 6.31042 11.4377 5.99976C11.4379 5.68921 11.6897 5.43726 12.0002 5.43726H12.0098ZM16.5625 14C16.5625 16.5197 14.5199 18.5621 12.0002 18.5623C9.48044 18.5623 7.43726 16.5198 7.43726 14C7.43726 11.4802 9.48045 9.43774 12.0002 9.43774C14.5199 9.43788 16.5625 11.4803 16.5625 14ZM20.5623 20C20.5623 21.4151 19.4154 22.5626 18.0002 22.5627H6.00024C4.62924 22.5627 3.50979 21.4858 3.44116 20.1318L3.4375 20V4.00024C3.4375 2.58501 4.58501 1.4375 6.00024 1.4375H18.0002C19.4154 1.43763 20.5623 2.5851 20.5623 4.00024V20Z"/>
</svg>