<svg xmlns="http://www.w3.org/2000/svg" width="24" height="24" fill="currentcolor" class="icon-square" viewBox="0 0 24 24">
  <path d="M20.4375 5.00024C20.4375 4.20633 19.7937 3.5625 18.9998 3.5625H5.00024C4.20633 3.5625 3.5625 4.20633 3.5625 5.00024V18.9998C3.5625 19.7937 4.20633 20.4375 5.00024 20.4375H18.9998C19.7937 20.4375 20.4375 19.7937 20.4375 18.9998V5.00024ZM21.5625 18.9998C21.5625 20.415 20.415 21.5625 18.9998 21.5625H5.00024C3.58501 21.5625 2.4375 20.415 2.4375 18.9998V5.00024C2.4375 3.58501 3.58501 2.4375 5.00024 2.4375H18.9998C20.415 2.4375 21.5625 3.58501 21.5625 5.00024V18.9998Z"/>
</svg>