<svg xmlns="http://www.w3.org/2000/svg" width="24" height="24" fill="currentcolor" class="icon-star" viewBox="0 0 24 24">
  <path d="M11.9995 1.4375C12.2136 1.4375 12.4094 1.55902 12.5042 1.75098L15.4632 7.74585L22.0813 8.71338C22.293 8.74439 22.4687 8.89292 22.5347 9.09644C22.6007 9.29996 22.5458 9.52349 22.3926 9.67285L17.604 14.3362L18.7342 20.925C18.7703 21.136 18.6832 21.3493 18.51 21.4751C18.3369 21.6008 18.1077 21.6171 17.9182 21.5176L11.9995 18.4048L6.08157 21.5176C5.89206 21.6172 5.66228 21.6009 5.48904 21.4751C5.31589 21.3493 5.2295 21.136 5.26565 20.925L6.39505 14.3362L1.6072 9.67285C1.45394 9.5235 1.39839 9.30001 1.46438 9.09644C1.53041 8.89281 1.70667 8.74434 1.91848 8.71338L8.53592 7.74585L11.4956 1.75098L11.5352 1.68213C11.639 1.53036 11.8123 1.43758 11.9995 1.4375ZM9.41409 8.50903C9.33226 8.67474 9.17432 8.78982 8.99148 8.81665L3.20828 9.66187L7.39261 13.7371C7.52515 13.8663 7.58575 14.0527 7.55447 14.2351L6.56717 19.9912L11.7381 17.2725L11.8011 17.2439C11.9505 17.1874 12.1184 17.1971 12.2617 17.2725L17.4319 19.9912L16.4453 14.2351C16.414 14.0526 16.4746 13.8663 16.6072 13.7371L20.7908 9.66187L15.0083 8.81665C14.8254 8.78989 14.6676 8.67476 14.5857 8.50903L11.9995 3.27002L9.41409 8.50903Z"/>
</svg>