<svg xmlns="http://www.w3.org/2000/svg" width="24" height="24" fill="currentcolor" class="icon-star" viewBox="0 0 24 24">
  <path d="M12 1.4375C12.2141 1.4375 12.4099 1.55902 12.5047 1.75098L15.4637 7.74585L22.0818 8.71338C22.2935 8.74439 22.4691 8.89292 22.5352 9.09644C22.6012 9.29996 22.5463 9.52349 22.3931 9.67285L17.6045 14.3362L18.7346 20.925C18.7708 21.136 18.6837 21.3493 18.5105 21.4751C18.3373 21.6008 18.1081 21.6171 17.9187 21.5176L12 18.4048L6.08206 21.5176C5.89254 21.6172 5.66277 21.6009 5.48953 21.4751C5.31638 21.3493 5.22999 21.136 5.26614 20.925L6.39554 14.3362L1.60769 9.67285C1.45443 9.5235 1.39888 9.30001 1.46487 9.09644C1.5309 8.89281 1.70716 8.74434 1.91897 8.71338L8.5364 7.74585L11.4961 1.75098L11.5357 1.68213C11.6395 1.53036 11.8128 1.43758 12 1.4375ZM9.41458 8.50903C9.33275 8.67474 9.17481 8.78982 8.99197 8.81665L3.20877 9.66187L7.39309 13.7371C7.52564 13.8663 7.58624 14.0527 7.55496 14.2351L6.56765 19.9912L11.7386 17.2725L11.8015 17.2439C11.951 17.1874 12.1189 17.1971 12.2622 17.2725L17.4324 19.9912L16.4458 14.2351C16.4145 14.0526 16.4751 13.8663 16.6077 13.7371L20.7913 9.66187L15.0088 8.81665C14.8259 8.78989 14.6681 8.67476 14.5862 8.50903L12 3.27002L9.41458 8.50903Z"/>
</svg>