<svg xmlns="http://www.w3.org/2000/svg" width="24" height="24" fill="currentcolor" class="icon-star" viewBox="0 0 24 24">
  <path d="M11.9998 1.4375C12.2139 1.4375 12.4097 1.55902 12.5044 1.75098L15.4634 7.74585L22.0816 8.71338C22.2933 8.74439 22.4689 8.89292 22.5349 9.09644C22.6009 9.29996 22.546 9.52349 22.3929 9.67285L17.6043 14.3362L18.7344 20.925C18.7705 21.136 18.6835 21.3493 18.5103 21.4751C18.3371 21.6008 18.1079 21.6171 17.9185 21.5176L11.9998 18.4048L6.08181 21.5176C5.8923 21.6172 5.66252 21.6009 5.48929 21.4751C5.31613 21.3493 5.22974 21.136 5.2659 20.925L6.39529 14.3362L1.60745 9.67285C1.45419 9.5235 1.39863 9.30001 1.46463 9.09644C1.53065 8.89281 1.70691 8.74434 1.91873 8.71338L8.53616 7.74585L11.4959 1.75098L11.5354 1.68213C11.6392 1.53036 11.8126 1.43758 11.9998 1.4375ZM9.41433 8.50903C9.33251 8.67474 9.17457 8.78982 8.99173 8.81665L3.20852 9.66187L7.39285 13.7371C7.52539 13.8663 7.586 14.0527 7.55471 14.2351L6.56741 19.9912L11.7383 17.2725L11.8013 17.2439C11.9508 17.1874 12.1186 17.1971 12.262 17.2725L17.4322 19.9912L16.4456 14.2351C16.4143 14.0526 16.4748 13.8663 16.6074 13.7371L20.791 9.66187L15.0086 8.81665C14.8257 8.78989 14.6678 8.67476 14.586 8.50903L11.9998 3.27002L9.41433 8.50903Z"/>
</svg>