<svg xmlns="http://www.w3.org/2000/svg" width="24" height="24" fill="currentcolor" class="icon-stop-circle" viewBox="0 0 24 24">
  <path d="M21.4377 11.9998C21.4376 6.78768 17.2119 2.5625 11.9998 2.5625C6.78776 2.56263 2.56263 6.78776 2.5625 11.9998C2.5625 17.2119 6.78768 21.4376 11.9998 21.4377C17.2119 21.4377 21.4377 17.2119 21.4377 11.9998ZM14.9998 8.43726C15.3103 8.43726 15.5621 8.68921 15.5623 8.99976V14.9998C15.5623 15.3104 15.3104 15.5623 14.9998 15.5623H8.99976C8.68921 15.5621 8.43726 15.3103 8.43726 14.9998V8.99976C8.43739 8.68929 8.68929 8.43739 8.99976 8.43726H14.9998ZM9.56226 14.4373H14.4373V9.56226H9.56226V14.4373ZM22.5627 11.9998C22.5627 17.8333 17.8333 22.5627 11.9998 22.5627C6.16636 22.5626 1.4375 17.8332 1.4375 11.9998C1.43763 6.16644 6.16644 1.43763 11.9998 1.4375C17.8332 1.4375 22.5626 6.16636 22.5627 11.9998Z"/>
</svg>