<svg xmlns="http://www.w3.org/2000/svg" width="24" height="24" fill="currentcolor" class="icon-street-view" viewBox="0 0 24 24">
  <path d="M9.375 3.75C9.375 2.31445 10.5234 1.125 12 1.125C13.4355 1.125 14.625 2.31445 14.625 3.75C14.625 5.22656 13.4355 6.375 12 6.375C10.5234 6.375 9.375 5.22656 9.375 3.75ZM12 5.0625C12.6973 5.0625 13.3125 4.48828 13.3125 3.75C13.3125 3.05273 12.6973 2.4375 12 2.4375C11.2617 2.4375 10.6875 3.05273 10.6875 3.75C10.6875 4.48828 11.2617 5.0625 12 5.0625ZM8.0625 10.3125C8.0625 8.87695 9.21094 7.6875 10.6875 7.6875H13.3125C14.748 7.6875 15.9375 8.87695 15.9375 10.3125V12.6094C15.9375 13.3066 15.4453 13.8398 14.7891 13.9219L14.4199 17.4082C14.3379 18.2285 13.6406 18.8438 12.7793 18.8438H11.1797C10.3184 18.8438 9.62109 18.2285 9.53906 17.4082L9.16992 13.9219C8.51367 13.8398 8.0625 13.3066 8.0625 12.6094V10.3125ZM10.3594 12.7734L10.8516 17.2441C10.8516 17.4082 10.9746 17.5312 11.1797 17.5312H12.7793C12.9844 17.5312 13.1074 17.4082 13.1074 17.2441L13.5996 12.7734L14.584 12.6094L14.625 10.3125C14.625 9.61523 14.0098 9 13.3125 9H10.6875C9.94922 9 9.375 9.61523 9.375 10.3125V12.6094L10.3594 12.7734ZM3.63281 17.8184C3.30469 18.0234 3.05859 18.1875 2.93555 18.3516C2.8125 18.4746 2.8125 18.5977 2.8125 18.6387C2.8125 18.6797 2.85352 18.8848 3.26367 19.2129C3.71484 19.5 4.33008 19.7871 5.19141 20.0332C6.91406 20.5254 9.29297 20.8125 12 20.8125C14.666 20.8125 17.0449 20.5254 18.7676 20.0332C19.6289 19.7871 20.2441 19.5 20.6953 19.2129C21.1055 18.8848 21.1875 18.6797 21.1875 18.6387C21.1875 18.5977 21.1465 18.4746 21.0234 18.3516C20.9004 18.1875 20.6543 18.0234 20.3262 17.8184C19.6289 17.4492 18.6035 17.1211 17.291 16.875C16.9219 16.793 16.7168 16.4648 16.7578 16.0957C16.8398 15.7676 17.168 15.5215 17.5371 15.6035C18.8906 15.8496 20.0801 16.2188 20.9414 16.6699C21.3516 16.875 21.7207 17.1621 22.0078 17.4492C22.2949 17.7773 22.5 18.1875 22.5 18.6387C22.5 19.3359 21.9668 19.9102 21.4336 20.2793C20.8594 20.6895 20.0391 21.0176 19.1367 21.2637C17.25 21.8379 14.748 22.125 12 22.125C9.21094 22.125 6.70898 21.8379 4.82227 21.2637C3.91992 21.0176 3.09961 20.6895 2.52539 20.2793C1.99219 19.9102 1.5 19.3359 1.5 18.6387C1.5 18.1875 1.66406 17.7773 1.95117 17.4492C2.23828 17.1621 2.60742 16.875 3.01758 16.6699C3.87891 16.2188 5.06836 15.8496 6.42188 15.6035C6.79102 15.5215 7.11914 15.7676 7.20117 16.0957C7.24219 16.4648 7.03711 16.793 6.66797 16.875C5.35547 17.1211 4.33008 17.4492 3.63281 17.8184Z"/>
</svg>