<svg xmlns="http://www.w3.org/2000/svg" width="24" height="24" fill="currentcolor" class="icon-sun" viewBox="0 0 24 24">
  <g clip-path="url(#a)">
    <path d="M11.4377 22.9998V21.0002C11.4377 20.6896 11.6896 20.4377 12.0002 20.4377C12.3108 20.4379 12.5627 20.6897 12.5627 21.0002V22.9998C12.5627 23.3103 12.3108 23.5621 12.0002 23.5623C11.6896 23.5623 11.4377 23.3104 11.4377 22.9998ZM5.24219 17.9622C5.46182 17.7425 5.81792 17.7426 6.0376 17.9622C6.25726 18.1818 6.25725 18.5379 6.0376 18.7576L4.61743 20.1777C4.39775 20.3973 4.04164 20.3974 3.82202 20.1777C3.60252 19.9581 3.60254 19.602 3.82202 19.3823L5.24219 17.9622ZM17.9622 17.9622C18.1818 17.7425 18.5379 17.7426 18.7576 17.9622L20.1777 19.3823C20.3974 19.602 20.3974 19.9581 20.1777 20.1777C19.9581 20.3974 19.602 20.3974 19.3823 20.1777L17.9622 18.7576C17.7426 18.5379 17.7425 18.1818 17.9622 17.9622ZM16.4373 12.0002C16.4373 9.54956 14.4509 7.56263 12.0002 7.5625C9.54948 7.5625 7.5625 9.54948 7.5625 12.0002C7.56263 14.4509 9.54956 16.4373 12.0002 16.4373C14.4508 16.4371 16.4371 14.4508 16.4373 12.0002ZM3.00024 11.4377C3.31079 11.4379 3.56274 11.6897 3.56274 12.0002C3.56261 12.3107 3.31071 12.5626 3.00024 12.5627H1C0.689421 12.5627 0.437632 12.3108 0.4375 12.0002C0.4375 11.6896 0.68934 11.4377 1 11.4377H3.00024ZM22.9998 11.4377C23.3104 11.4377 23.5623 11.6896 23.5623 12.0002C23.5621 12.3108 23.3103 12.5627 22.9998 12.5627H21.0002C20.6897 12.5627 20.4379 12.3108 20.4377 12.0002C20.4377 11.6896 20.6896 11.4377 21.0002 11.4377H22.9998ZM3.82202 3.82202C4.0416 3.60244 4.39774 3.60262 4.61743 3.82202L6.0376 5.24219C6.25727 5.46186 6.25727 5.81793 6.0376 6.0376C5.81793 6.25727 5.46186 6.25727 5.24219 6.0376L3.82202 4.61743C3.60262 4.39774 3.60244 4.0416 3.82202 3.82202ZM19.3823 3.82202C19.602 3.60254 19.9581 3.60252 20.1777 3.82202C20.3974 4.04164 20.3973 4.39775 20.1777 4.61743L18.7576 6.0376C18.5379 6.25725 18.1818 6.25726 17.9622 6.0376C17.7426 5.81792 17.7425 5.46182 17.9622 5.24219L19.3823 3.82202ZM11.4377 3.00024V1C11.4377 0.68934 11.6896 0.4375 12.0002 0.4375C12.3108 0.437632 12.5627 0.689421 12.5627 1V3.00024C12.5626 3.31071 12.3107 3.56261 12.0002 3.56274C11.6897 3.56274 11.4379 3.31079 11.4377 3.00024ZM17.5623 12.0002C17.5621 15.0721 15.0721 17.5621 12.0002 17.5623C8.92824 17.5623 6.43763 15.0722 6.4375 12.0002C6.4375 8.92816 8.92816 6.4375 12.0002 6.4375C15.0722 6.43763 17.5623 8.92824 17.5623 12.0002Z"/>
  </g>
  <defs>
    <clipPath id="a">
      <path d="M0 0H24V24H0z"/>
    </clipPath>
  </defs>
</svg>