<svg xmlns="http://www.w3.org/2000/svg" width="24" height="24" fill="currentcolor" class="icon-sunrise" viewBox="0 0 24 24">
  <path d="M22.9998 21.4377C23.3104 21.4377 23.5623 21.6896 23.5623 22.0002C23.5621 22.3108 23.3103 22.5627 22.9998 22.5627H1C0.689421 22.5627 0.437632 22.3108 0.4375 22.0002C0.4375 21.6896 0.68934 21.4377 1 21.4377H22.9998ZM3.00024 17.4373C3.31071 17.4374 3.56261 17.6893 3.56274 17.9998C3.56274 18.3103 3.31079 18.5621 3.00024 18.5623H1C0.68934 18.5623 0.4375 18.3104 0.4375 17.9998C0.437632 17.6892 0.689421 17.4373 1 17.4373H3.00024ZM16.4373 17.9998C16.4372 16.8229 15.9701 15.6942 15.1379 14.8621C14.3058 14.0299 13.1771 13.5628 12.0002 13.5627C10.8235 13.5627 9.69472 14.03 8.86255 14.8621C8.03041 15.6942 7.56256 16.8229 7.5625 17.9998C7.5625 18.3104 7.31066 18.5623 7 18.5623C6.68934 18.5623 6.4375 18.3104 6.4375 17.9998C6.43756 16.5246 7.02337 15.1098 8.06641 14.0667C9.10958 13.0235 10.525 12.4377 12.0002 12.4377C13.4754 12.4378 14.8902 13.0235 15.9333 14.0667C16.9765 15.1098 17.5622 16.5246 17.5623 17.9998C17.5623 18.3104 17.3104 18.5623 16.9998 18.5623C16.6892 18.5621 16.4373 18.3103 16.4373 17.9998ZM22.9998 17.4373C23.3103 17.4373 23.5621 17.6892 23.5623 17.9998C23.5623 18.3104 23.3104 18.5623 22.9998 18.5623H21.0002C20.6896 18.5623 20.4377 18.3104 20.4377 17.9998C20.4379 17.6892 20.6897 17.4373 21.0002 17.4373H22.9998ZM3.82202 9.82227C4.04164 9.60265 4.39775 9.60275 4.61743 9.82227L6.0376 11.2424C6.25725 11.4621 6.25726 11.8182 6.0376 12.0378C5.81792 12.2574 5.46182 12.2575 5.24219 12.0378L3.82202 10.6177C3.60254 10.398 3.60252 10.0419 3.82202 9.82227ZM19.3823 9.82227C19.602 9.60263 19.9581 9.60261 20.1777 9.82227C20.3974 10.0419 20.3974 10.398 20.1777 10.6177L18.7576 12.0378C18.5379 12.2574 18.1818 12.2575 17.9622 12.0378C17.7425 11.8182 17.7426 11.4621 17.9622 11.2424L19.3823 9.82227ZM11.4377 8.99976V3.35718L8.39746 6.39746C8.17779 6.61713 7.82172 6.61713 7.60205 6.39746C7.38262 6.17777 7.38246 5.82164 7.60205 5.60205L11.6025 1.60229L11.6882 1.53198C11.7799 1.47091 11.8884 1.4375 12.0002 1.4375C12.1493 1.43756 12.2925 1.49686 12.3979 1.60229L16.3977 5.60205C16.6173 5.82168 16.6173 6.17778 16.3977 6.39746C16.178 6.61713 15.822 6.61713 15.6023 6.39746L12.5627 3.35791V8.99976C12.5627 9.31033 12.3108 9.56212 12.0002 9.56226C11.6896 9.56226 11.4377 9.31042 11.4377 8.99976Z"/>
</svg>