<svg xmlns="http://www.w3.org/2000/svg" width="24" height="24" fill="currentcolor" class="icon-tablet" viewBox="0 0 24 24">
  <path d="M19.4373 4.00024C19.4373 3.20642 18.794 2.56263 18.0002 2.5625H6.00024C5.20633 2.5625 4.5625 3.20633 4.5625 4.00024V20L4.56982 20.1472C4.64354 20.872 5.25603 21.4377 6.00024 21.4377H18.0002C18.794 21.4376 19.4373 20.7938 19.4373 20V4.00024ZM12.0098 17.4373C12.3203 17.4373 12.5721 17.6892 12.5723 17.9998C12.5723 18.3104 12.3204 18.5623 12.0098 18.5623H12.0002C11.6896 18.5623 11.4377 18.3104 11.4377 17.9998C11.4379 17.6892 11.6897 17.4373 12.0002 17.4373H12.0098ZM20.5623 20C20.5623 21.4151 19.4154 22.5626 18.0002 22.5627H6.00024C4.62924 22.5627 3.50979 21.4858 3.44116 20.1318L3.4375 20V4.00024C3.4375 2.58501 4.58501 1.4375 6.00024 1.4375H18.0002C19.4154 1.43763 20.5623 2.5851 20.5623 4.00024V20Z"/>
</svg>