<svg xmlns="http://www.w3.org/2000/svg" width="24" height="24" fill="currentcolor" class="icon-tag" viewBox="0 0 24 24">
  <path d="M20.6094 11.9998C20.6093 11.6205 20.459 11.2567 20.1919 10.9875L11.7668 2.5625H2.5625V11.7661L10.9875 20.1824H10.9883C11.1218 20.316 11.2804 20.4221 11.4548 20.4944C11.6292 20.5666 11.8161 20.6042 12.0049 20.6042C12.1938 20.6042 12.3812 20.5667 12.5557 20.4944C12.7301 20.422 12.8888 20.316 13.0222 20.1824L20.1919 13.012C20.4589 12.7427 20.6094 12.379 20.6094 11.9998ZM7.00977 6.43774C7.32043 6.43774 7.57227 6.68958 7.57227 7.00024C7.57213 7.31079 7.32034 7.56274 7.00977 7.56274H7.00024C6.68967 7.56274 6.43788 7.31079 6.43774 7.00024C6.43774 6.68958 6.68958 6.43774 7.00024 6.43774H7.00977ZM21.7344 11.9998C21.7344 12.6767 21.466 13.3265 20.9888 13.8066L20.988 13.8081L13.8176 20.9778C13.5797 21.2159 13.2973 21.4048 12.9863 21.5337C12.6752 21.6626 12.3416 21.7292 12.0049 21.7292C11.6682 21.7292 11.3345 21.6626 11.0234 21.5337C10.7514 21.4209 10.5014 21.2617 10.2837 21.0642L10.1921 20.9778L1.60229 12.3982C1.49666 12.2927 1.4375 12.1491 1.4375 11.9998V2C1.4375 1.68934 1.68934 1.4375 2 1.4375H11.9998C12.1489 1.4375 12.292 1.49688 12.3975 1.60229L20.988 10.1921L20.9888 10.1936C21.466 10.6737 21.7343 11.3229 21.7344 11.9998Z"/>
</svg>