<svg xmlns="http://www.w3.org/2000/svg" width="24" height="24" fill="currentcolor" class="icon-target" viewBox="0 0 24 24">
  <path d="M21.4377 11.9998C21.4376 6.78768 17.2119 2.5625 11.9998 2.5625C6.78776 2.56263 2.56263 6.78776 2.5625 11.9998C2.5625 17.2119 6.78768 21.4376 11.9998 21.4377C17.2119 21.4377 21.4377 17.2119 21.4377 11.9998ZM17.4373 11.9998C17.4371 8.99682 15.0027 6.56226 11.9998 6.56226C8.9969 6.56239 6.56239 8.9969 6.56226 11.9998C6.56226 15.0027 8.99682 17.4371 11.9998 17.4373C15.0028 17.4373 17.4373 15.0028 17.4373 11.9998ZM13.4375 11.9998C13.4374 11.206 12.7936 10.5627 11.9998 10.5627C11.206 10.5629 10.5629 11.206 10.5627 11.9998C10.5627 12.7936 11.206 13.4374 11.9998 13.4375C12.7937 13.4375 13.4375 12.7937 13.4375 11.9998ZM14.5625 11.9998C14.5625 13.415 13.415 14.5625 11.9998 14.5625C10.5846 14.5624 9.43774 13.4149 9.43774 11.9998C9.43788 10.5847 10.5847 9.43788 11.9998 9.43774C13.4149 9.43774 14.5624 10.5846 14.5625 11.9998ZM18.5623 11.9998C18.5623 15.6241 15.6241 18.5623 11.9998 18.5623C8.3755 18.5621 5.43726 15.624 5.43726 11.9998C5.43739 8.37558 8.37558 5.43739 11.9998 5.43726C15.624 5.43726 18.5621 8.3755 18.5623 11.9998ZM22.5627 11.9998C22.5627 17.8333 17.8333 22.5627 11.9998 22.5627C6.16636 22.5626 1.4375 17.8332 1.4375 11.9998C1.43763 6.16644 6.16644 1.43763 11.9998 1.4375C17.8332 1.4375 22.5626 6.16636 22.5627 11.9998Z"/>
</svg>