<svg xmlns="http://www.w3.org/2000/svg" width="24" height="24" fill="currentcolor" class="icon-terminal" viewBox="0 0 24 24">
  <path d="M19.9997 18.4377C20.3104 18.4377 20.5622 18.6895 20.5622 19.0002C20.5621 19.3107 20.3103 19.5627 19.9997 19.5627H12.0002C11.6897 19.5627 11.4379 19.3107 11.4377 19.0002C11.4377 18.6895 11.6896 18.4377 12.0002 18.4377H19.9997ZM3.60228 4.60225C3.82195 4.38258 4.17802 4.38258 4.39769 4.60225L10.3977 10.6023C10.6174 10.8219 10.6174 11.178 10.3977 11.3977L4.39769 17.3977C4.17802 17.6173 3.82195 17.6173 3.60228 17.3977C3.38261 17.178 3.38261 16.8219 3.60228 16.6023L9.20458 11L3.60228 5.39766C3.38261 5.17799 3.38261 4.82192 3.60228 4.60225Z"/>
</svg>