<svg xmlns="http://www.w3.org/2000/svg" width="24" height="24" fill="currentcolor" class="icon-thermometer" viewBox="0 0 24 24">
  <path d="M13.4371 3.49976C13.437 2.9861 13.2334 2.4934 12.8702 2.13013C12.5069 1.76678 12.0137 1.5625 11.4999 1.5625C10.986 1.5625 10.4928 1.76678 10.1295 2.13013C9.76635 2.4934 9.56266 2.9861 9.5626 3.49976V14.76C9.5626 14.9479 9.46832 15.1237 9.31211 15.228C8.60995 15.6973 8.07691 16.3797 7.79234 17.1748C7.50776 17.9701 7.48639 18.8362 7.73155 19.6445C7.97675 20.4529 8.47614 21.1613 9.15464 21.6646C9.83307 22.1676 10.6553 22.4395 11.4999 22.4395C12.3446 22.4395 13.1673 22.1678 13.8458 21.6646C14.5242 21.1613 15.023 20.4529 15.2682 19.6445C15.5133 18.8362 15.4919 17.9701 15.2074 17.1748C14.9228 16.3797 14.3898 15.6973 13.6876 15.228C13.5314 15.1237 13.4371 14.9479 13.4371 14.76V3.49976ZM14.5621 14.4714C15.3416 15.0637 15.9352 15.8703 16.2665 16.7961C16.6323 17.8187 16.6594 18.9319 16.3441 19.9712C16.0288 21.0105 15.3876 21.9207 14.5152 22.5676C13.6429 23.2146 12.5859 23.5645 11.4999 23.5645C10.4138 23.5645 9.35681 23.2146 8.48448 22.5676C7.61215 21.9207 6.97089 21.0105 6.65562 19.9712C6.34036 18.9319 6.36737 17.8187 6.73325 16.7961C7.06456 15.8703 7.6581 15.0637 8.4376 14.4714V3.49976C8.43766 2.68773 8.75996 1.90897 9.33408 1.33472C9.90841 0.760387 10.6876 0.4375 11.4999 0.4375C12.3121 0.4375 13.0913 0.760387 13.6656 1.33472C14.2397 1.90897 14.562 2.68773 14.5621 3.49976V14.4714Z"/>
</svg>