<svg xmlns="http://www.w3.org/2000/svg" width="24" height="24" fill="currentcolor" class="icon-thermometer" viewBox="0 0 24 24">
  <path d="M13.4372 3.49976C13.4372 2.9861 13.2335 2.4934 12.8703 2.13013C12.507 1.76678 12.0138 1.5625 11.5 1.5625C10.9861 1.5625 10.493 1.76678 10.1296 2.13013C9.76648 2.4934 9.56279 2.9861 9.56272 3.49976V14.76C9.56272 14.9479 9.46844 15.1237 9.31223 15.228C8.61007 15.6973 8.07703 16.3797 7.79246 17.1748C7.50789 17.9701 7.48652 18.8362 7.73167 19.6445C7.97688 20.4529 8.47627 21.1613 9.15476 21.6646C9.83319 22.1676 10.6554 22.4395 11.5 22.4395C12.3447 22.4395 13.1674 22.1678 13.8459 21.6646C14.5244 21.1613 15.0231 20.4529 15.2683 19.6445C15.5134 18.8362 15.4921 17.9701 15.2075 17.1748C14.9229 16.3797 14.3899 15.6973 13.6877 15.228C13.5315 15.1237 13.4372 14.9479 13.4372 14.76V3.49976ZM14.5622 14.4714C15.3417 15.0637 15.9353 15.8703 16.2666 16.7961C16.6325 17.8187 16.6595 18.9319 16.3442 19.9712C16.0289 21.0105 15.3877 21.9207 14.5154 22.5676C13.643 23.2146 12.586 23.5645 11.5 23.5645C10.4139 23.5645 9.35693 23.2146 8.4846 22.5676C7.61227 21.9207 6.97102 21.0105 6.65574 19.9712C6.34048 18.9319 6.36749 17.8187 6.73338 16.7961C7.06468 15.8703 7.65822 15.0637 8.43772 14.4714V3.49976C8.43779 2.68773 8.76009 1.90897 9.33421 1.33472C9.90854 0.760387 10.6878 0.4375 11.5 0.4375C12.3122 0.4375 13.0914 0.760387 13.6657 1.33472C14.2399 1.90897 14.5622 2.68773 14.5622 3.49976V14.4714Z"/>
</svg>