<svg xmlns="http://www.w3.org/2000/svg" width="24" height="24" fill="currentcolor" class="icon-thumbs-up" viewBox="0 0 24 24">
  <path d="M13.4375 5C13.4375 4.35353 13.1805 3.73373 12.7234 3.27661C12.3505 2.9037 11.8694 2.66376 11.3538 2.58813L7.56274 11.1179V21.4377H18.2861C18.6328 21.4417 18.9697 21.3202 19.2339 21.0957C19.498 20.8712 19.6719 20.5581 19.7239 20.2153V20.2146L21.1038 11.2146C21.1348 11.009 21.1214 10.7991 21.0635 10.5994C21.0054 10.3993 20.9043 10.2139 20.7676 10.0566C20.6308 9.89939 20.4611 9.77356 20.271 9.68823C20.081 9.60299 19.8743 9.5599 19.666 9.56226H14C13.6893 9.56226 13.4375 9.31042 13.4375 8.99976V5ZM2.5625 20C2.5625 20.3812 2.71406 20.747 2.98364 21.0166C3.25321 21.2861 3.61905 21.4377 4.00024 21.4377H6.43774V11.5625H4.00024C3.619 11.5625 3.25323 11.7141 2.98364 11.9836C2.71406 12.2532 2.5625 12.619 2.5625 13.0002V20ZM14.5625 8.43726H19.6602C20.0293 8.43402 20.3948 8.51094 20.7317 8.66211C21.0706 8.81421 21.3727 9.03805 21.6165 9.31836C21.8602 9.59862 22.0402 9.9285 22.1438 10.2852C22.2474 10.6419 22.2721 11.0173 22.2163 11.3845V11.3853L20.8357 20.3838C20.743 20.9948 20.4328 21.5524 19.9619 21.9526C19.4927 22.3514 18.8958 22.5674 18.2803 22.562V22.5627H4.00024C3.32068 22.5627 2.66878 22.2925 2.18823 21.812C1.70767 21.3314 1.4375 20.6796 1.4375 20V13.0002C1.4375 12.3206 1.70767 11.6688 2.18823 11.1882C2.66879 10.7077 3.32063 10.4375 4.00024 10.4375H6.63477L10.4858 1.77148L10.5247 1.69897C10.6267 1.53773 10.8054 1.4375 11 1.4375C11.9448 1.4375 12.8507 1.8131 13.5188 2.4812C14.1869 3.1493 14.5625 4.05517 14.5625 5V8.43726Z"/>
</svg>