<svg xmlns="http://www.w3.org/2000/svg" width="24" height="24" fill="currentcolor" class="icon-thumbs-down" viewBox="0 0 24 24">
  <path d="M19.6697 1.43713V1.4386C20.3699 1.42861 21.0497 1.67376 21.5813 2.13C22.1153 2.58842 22.4625 3.22698 22.5569 3.92444C22.5602 3.94939 22.562 3.9747 22.562 3.99988V10.9996C22.562 11.0248 22.5602 11.0502 22.5569 11.0751C22.4625 11.7726 22.1154 12.4118 21.5813 12.8702C21.0497 13.3264 20.3699 13.5716 19.6697 13.5616V13.5624H17.3655L13.5137 22.2284C13.4234 22.4315 13.2218 22.5624 12.9995 22.5624C12.0548 22.5623 11.1487 22.1873 10.4807 21.5194C9.8126 20.8513 9.437 19.9447 9.437 18.9999V15.5626H4.34008V15.5619C3.97069 15.5652 3.60487 15.489 3.26781 15.3378C2.92901 15.1857 2.62748 14.9617 2.38378 14.6815C2.14007 14.4013 1.96001 14.0714 1.85643 13.7147C1.75286 13.358 1.72818 12.9826 1.78392 12.6154V12.6146L3.16381 3.61462C3.25666 3.00399 3.56696 2.44728 4.03759 2.04724C4.5069 1.64836 5.10419 1.43312 5.71996 1.4386V1.43713H19.6697ZM17.5625 12.4374H19.6799C20.108 12.4449 20.524 12.2951 20.8489 12.0162C21.1665 11.7436 21.3742 11.366 21.437 10.9528V4.04675C21.3741 3.63366 21.1664 3.25586 20.8489 2.98328C20.524 2.7045 20.1079 2.55461 19.6799 2.56213L19.6697 2.56287V2.56213H17.5625V12.4374ZM10.562 18.9999C10.562 19.6463 10.8191 20.2662 11.2761 20.7233C11.6489 21.0961 12.1302 21.3361 12.6457 21.4117L16.4375 12.8798V2.56213H5.71337C5.36671 2.55823 5.03049 2.68038 4.76635 2.90491C4.50222 3.12944 4.3276 3.4418 4.27562 3.78455V3.78528L2.89574 12.7853C2.86464 12.991 2.87874 13.2014 2.93676 13.4012C2.99487 13.6012 3.09599 13.7861 3.23265 13.9432C3.36938 14.1005 3.53841 14.2263 3.7285 14.3116C3.91862 14.397 4.12511 14.44 4.33348 14.4376H9.9995C10.3102 14.4376 10.562 14.6895 10.562 15.0001V18.9999Z"/>
</svg>