<svg xmlns="http://www.w3.org/2000/svg" width="24" height="24" fill="currentcolor" class="icon-thumbs-down" viewBox="0 0 24 24">
  <path d="M19.6699 1.43713V1.4386C20.3702 1.42861 21.0499 1.67376 21.5815 2.13C22.1156 2.58842 22.4627 3.22698 22.5571 3.92444C22.5605 3.94939 22.5622 3.9747 22.5622 3.99988V10.9996C22.5622 11.0248 22.5605 11.0502 22.5571 11.0751C22.4628 11.7726 22.1156 12.4118 21.5815 12.8702C21.05 13.3264 20.3701 13.5716 19.6699 13.5616V13.5624H17.3657L13.5139 22.2284C13.4236 22.4315 13.222 22.5624 12.9997 22.5624C12.0551 22.5623 11.149 22.1873 10.4809 21.5194C9.81285 20.8513 9.43724 19.9447 9.43724 18.9999V15.5626H4.34032V15.5619C3.97094 15.5652 3.60511 15.489 3.26805 15.3378C2.92926 15.1857 2.62772 14.9617 2.38402 14.6815C2.14031 14.4013 1.96026 14.0714 1.85668 13.7147C1.75311 13.358 1.72842 12.9826 1.78417 12.6154V12.6146L3.16405 3.61462C3.25691 3.00399 3.5672 2.44728 4.03783 2.04724C4.50715 1.64836 5.10444 1.43312 5.7202 1.4386V1.43713H19.6699ZM17.5627 12.4374H19.6802C20.1082 12.4449 20.5242 12.2951 20.8491 12.0162C21.1667 11.7436 21.3744 11.366 21.4372 10.9528V4.04675C21.3743 3.63366 21.1667 3.25586 20.8491 2.98328C20.5243 2.7045 20.1082 2.55461 19.6802 2.56213L19.6699 2.56287V2.56213H17.5627V12.4374ZM10.5622 18.9999C10.5622 19.6463 10.8194 20.2662 11.2764 20.7233C11.6492 21.0961 12.1305 21.3361 12.646 21.4117L16.4377 12.8798V2.56213H5.71361C5.36696 2.55823 5.03074 2.68038 4.76659 2.90491C4.50246 3.12944 4.32785 3.4418 4.27587 3.78455V3.78528L2.89598 12.7853C2.86489 12.991 2.87898 13.2014 2.937 13.4012C2.99512 13.6012 3.09624 13.7861 3.2329 13.9432C3.36963 14.1005 3.53865 14.2263 3.72875 14.3116C3.91886 14.397 4.12536 14.44 4.33373 14.4376H9.99974C10.3104 14.4376 10.5622 14.6895 10.5622 15.0001V18.9999Z"/>
</svg>