<svg xmlns="http://www.w3.org/2000/svg" width="24" height="24" fill="currentcolor" class="icon-thumbs-down" viewBox="0 0 24 24">
  <path d="M19.6697 1.43726V1.43872C20.3699 1.42873 21.0497 1.67388 21.5813 2.13013C22.1153 2.58854 22.4625 3.2271 22.5569 3.92456C22.5602 3.94951 22.562 3.97482 22.562 4V10.9998C22.562 11.0249 22.5602 11.0503 22.5569 11.0752C22.4625 11.7727 22.1154 12.4119 21.5813 12.8704C21.0497 13.3265 20.3699 13.5718 19.6697 13.5618V13.5625H17.3655L13.5137 22.2285C13.4234 22.4316 13.2218 22.5625 12.9995 22.5625C12.0548 22.5624 11.1487 22.1875 10.4807 21.5195C9.8126 20.8514 9.437 19.9448 9.437 19V15.5627H4.34008V15.562C3.97069 15.5653 3.60487 15.4892 3.26781 15.3379C2.92901 15.1858 2.62748 14.9619 2.38378 14.6816C2.14007 14.4014 1.96001 14.0715 1.85643 13.7148C1.75286 13.3581 1.72818 12.9827 1.78392 12.6155V12.6147L3.16381 3.61475C3.25666 3.00412 3.56696 2.4474 4.03759 2.04736C4.5069 1.64848 5.10419 1.43324 5.71996 1.43872V1.43726H19.6697ZM17.5625 12.4375H19.6799C20.108 12.445 20.524 12.2952 20.8489 12.0164C21.1665 11.7437 21.3742 11.3661 21.437 10.9529V4.04688C21.3741 3.63378 21.1664 3.25598 20.8489 2.9834C20.524 2.70462 20.1079 2.55474 19.6799 2.56226L19.6697 2.56299V2.56226H17.5625V12.4375ZM10.562 19C10.562 19.6464 10.8191 20.2663 11.2761 20.7234C11.6489 21.0962 12.1302 21.3362 12.6457 21.4119L16.4375 12.8799V2.56226H5.71337C5.36671 2.55835 5.03049 2.6805 4.76635 2.90503C4.50222 3.12956 4.3276 3.44192 4.27562 3.78467V3.7854L2.89574 12.7854C2.86464 12.9911 2.87874 13.2015 2.93676 13.4014C2.99487 13.6014 3.09599 13.7862 3.23265 13.9434C3.36938 14.1006 3.53841 14.2265 3.7285 14.3118C3.91862 14.3971 4.12511 14.4401 4.33348 14.4377H9.9995C10.3102 14.4377 10.562 14.6896 10.562 15.0002V19Z"/>
</svg>