<svg xmlns="http://www.w3.org/2000/svg" width="24" height="24" fill="currentcolor" class="icon-toggle-left" viewBox="0 0 24 24">
  <path d="M22.4373 11.9998C22.4371 8.44454 19.5553 5.5625 16 5.5625H7.99976C4.44462 5.56263 1.56263 8.44462 1.5625 11.9998C1.5625 15.555 4.44454 18.4376 7.99976 18.4377H16C19.5553 18.4377 22.4373 15.5551 22.4373 11.9998ZM10.4373 11.9998C10.4371 10.6537 9.34587 9.56226 7.99976 9.56226C6.65376 9.56239 5.56239 10.6538 5.56226 11.9998C5.56226 13.3459 6.65367 14.4371 7.99976 14.4373C9.34595 14.4373 10.4373 13.3459 10.4373 11.9998ZM11.5623 11.9998C11.5623 13.9673 9.96727 15.5623 7.99976 15.5623C6.03235 15.5621 4.43726 13.9672 4.43726 11.9998C4.43739 10.0324 6.03243 8.43739 7.99976 8.43726C9.96719 8.43726 11.5621 10.0324 11.5623 11.9998ZM23.5623 11.9998C23.5623 16.1764 20.1767 19.5627 16 19.5627H7.99976C3.82321 19.5626 0.4375 16.1763 0.4375 11.9998C0.437632 7.8233 3.8233 4.43763 7.99976 4.4375H16C20.1766 4.4375 23.5621 7.82321 23.5623 11.9998Z"/>
</svg>