<svg xmlns="http://www.w3.org/2000/svg" width="24" height="24" fill="currentcolor" class="icon-toggle-right" viewBox="0 0 24 24">
  <path d="M22.4373 11.9998C22.4371 8.44454 19.5553 5.5625 16 5.5625H7.99976C4.44462 5.56263 1.56263 8.44462 1.5625 11.9998C1.5625 15.555 4.44454 18.4376 7.99976 18.4377H16C19.5553 18.4377 22.4373 15.5551 22.4373 11.9998ZM18.4375 11.9998C18.4374 10.6537 17.3461 9.56226 16 9.56226C14.6539 9.56226 13.5626 10.6537 13.5625 11.9998C13.5625 13.3459 14.6538 14.4373 16 14.4373C17.3462 14.4373 18.4375 13.3459 18.4375 11.9998ZM19.5625 11.9998C19.5625 13.9673 17.9675 15.5623 16 15.5623C14.0325 15.5623 12.4375 13.9673 12.4375 11.9998C12.4376 10.0324 14.0326 8.43726 16 8.43726C17.9674 8.43726 19.5624 10.0324 19.5625 11.9998ZM23.5623 11.9998C23.5623 16.1764 20.1767 19.5627 16 19.5627H7.99976C3.82321 19.5626 0.4375 16.1763 0.4375 11.9998C0.437632 7.8233 3.8233 4.43763 7.99976 4.4375H16C20.1766 4.4375 23.5621 7.82321 23.5623 11.9998Z"/>
</svg>