<svg xmlns="http://www.w3.org/2000/svg" width="24" height="24" fill="currentcolor" class="icon-tool" viewBox="0 0 24 24">
  <path d="M13.8516 7.0003C13.8516 6.59131 14.012 6.19813 14.2983 5.90606L17.4478 2.75591C16.6611 2.53802 15.8314 2.49917 15.0212 2.64678C13.9341 2.84492 12.9331 3.36983 12.1516 4.15118C11.3701 4.93273 10.8446 5.93416 10.6465 7.02154C10.4484 8.10896 10.5863 9.23132 11.042 10.2383C11.1384 10.4515 11.0931 10.7019 10.9277 10.8675L4.01733 17.7779C3.72512 18.0702 3.56104 18.4668 3.56104 18.8802C3.56107 19.2935 3.72506 19.6902 4.01733 19.9825C4.30962 20.2748 4.70629 20.4387 5.11963 20.4388C5.53297 20.4388 5.92961 20.2747 6.22192 19.9825L13.1323 13.0721L13.1982 13.0157C13.36 12.8975 13.575 12.8735 13.7615 12.9578C14.7685 13.4135 15.8909 13.5515 16.9783 13.3533C18.0656 13.1552 19.0671 12.6305 19.8486 11.8489C20.6302 11.0674 21.1549 10.0659 21.353 8.97857C21.5007 8.16833 21.4611 7.33881 21.2432 6.55206L18.0938 9.70147C17.8017 9.98776 17.4085 10.1482 16.9995 10.1482C16.5906 10.1482 16.198 9.98768 15.906 9.70147L14.2983 8.0938C14.0121 7.80179 13.8516 7.40919 13.8516 7.0003ZM14.9766 7.0003C14.9766 7.11472 15.0217 7.22473 15.1018 7.30645L16.6934 8.898C16.7751 8.97808 16.8851 9.02316 16.9995 9.02325C17.114 9.02325 17.2246 8.97816 17.3064 8.898L21.0718 5.13262L21.1238 5.08648C21.2493 4.9885 21.4118 4.94772 21.5706 4.97662C21.7522 5.00971 21.906 5.12994 21.9822 5.29815C22.5322 6.5135 22.6988 7.86759 22.4597 9.17998C22.2206 10.4924 21.5873 11.7011 20.644 12.6443C19.7008 13.5876 18.4921 14.2209 17.1797 14.46C15.9967 14.6755 14.7804 14.56 13.6619 14.1326L7.01733 20.7779C6.51404 21.2811 5.83133 21.5638 5.11963 21.5638C4.40792 21.5637 3.72518 21.2811 3.22192 20.7779C2.71867 20.2746 2.43607 19.5919 2.43604 18.8802C2.43604 18.1685 2.71873 17.4858 3.22192 16.9825L9.86646 10.3372C9.43939 9.2189 9.32434 8.00274 9.53979 6.82012C9.77891 5.50775 10.4122 4.29905 11.3555 3.35577C12.2987 2.41249 13.5074 1.77922 14.8198 1.54009C16.1322 1.30097 17.4863 1.46768 18.7017 2.01763C18.8699 2.09376 18.9901 2.24759 19.0232 2.42925C19.0563 2.61089 18.9985 2.79747 18.8679 2.92803L15.1077 6.68755L15.1011 6.69341C15.0209 6.77519 14.9766 6.88581 14.9766 7.0003Z"/>
</svg>