<svg xmlns="http://www.w3.org/2000/svg" width="24" height="24" fill="currentcolor" class="icon-tool" viewBox="0 0 24 24">
  <path d="M13.8521 7.0003C13.8521 6.59131 14.0125 6.19813 14.2988 5.90606L17.4482 2.75591C16.6616 2.53802 15.8319 2.49917 15.0217 2.64678C13.9346 2.84492 12.9336 3.36983 12.1521 4.15118C11.3705 4.93273 10.8451 5.93416 10.647 7.02154C10.4488 8.10896 10.5868 9.23132 11.0425 10.2383C11.1389 10.4515 11.0936 10.7019 10.9282 10.8675L4.01782 17.7779C3.7256 18.0702 3.56152 18.4668 3.56152 18.8802C3.56156 19.2935 3.72555 19.6902 4.01782 19.9825C4.3101 20.2748 4.70677 20.4387 5.12012 20.4388C5.53345 20.4388 5.93009 20.2747 6.22241 19.9825L13.1328 13.0721L13.1987 13.0157C13.3605 12.8975 13.5755 12.8735 13.762 12.9578C14.769 13.4135 15.8913 13.5515 16.9788 13.3533C18.0661 13.1552 19.0676 12.6305 19.8491 11.8489C20.6307 11.0674 21.1554 10.0659 21.3535 8.97857C21.5011 8.16833 21.4616 7.33881 21.2437 6.55206L18.0942 9.70147C17.8022 9.98776 17.409 10.1482 17 10.1482C16.5911 10.1482 16.1985 9.98768 15.9065 9.70147L14.2988 8.0938C14.0126 7.80179 13.8521 7.40919 13.8521 7.0003ZM14.9771 7.0003C14.9771 7.11472 15.0222 7.22473 15.1023 7.30645L16.6938 8.898C16.7755 8.97808 16.8856 9.02316 17 9.02325C17.1145 9.02325 17.2251 8.97816 17.3069 8.898L21.0723 5.13262L21.1243 5.08648C21.2498 4.9885 21.4122 4.94772 21.571 4.97662C21.7527 5.00971 21.9065 5.12994 21.9827 5.29815C22.5326 6.5135 22.6993 7.86759 22.4602 9.17998C22.2211 10.4924 21.5878 11.7011 20.6445 12.6443C19.7013 13.5876 18.4926 14.2209 17.1802 14.46C15.9972 14.6755 14.7809 14.56 13.6624 14.1326L7.01782 20.7779C6.51453 21.2811 5.83182 21.5638 5.12012 21.5638C4.40841 21.5637 3.72567 21.2811 3.22241 20.7779C2.71916 20.2746 2.43656 19.5919 2.43652 18.8802C2.43652 18.1685 2.71922 17.4858 3.22241 16.9825L9.86694 10.3372C9.43987 9.2189 9.32483 8.00274 9.54028 6.82012C9.7794 5.50775 10.4127 4.29905 11.356 3.35577C12.2992 2.41249 13.5079 1.77922 14.8203 1.54009C16.1327 1.30097 17.4868 1.46768 18.7021 2.01763C18.8704 2.09376 18.9906 2.24759 19.0237 2.42925C19.0568 2.61089 18.9989 2.79747 18.8684 2.92803L15.1082 6.68755L15.1016 6.69341C15.0214 6.77519 14.9771 6.88581 14.9771 7.0003Z"/>
</svg>