<svg xmlns="http://www.w3.org/2000/svg" width="24" height="24" fill="currentcolor" class="icon-tool" viewBox="0 0 24 24">
  <path d="M13.8517 7.0003C13.8517 6.59131 14.0122 6.19813 14.2985 5.90606L17.4479 2.75591C16.6612 2.53802 15.8315 2.49917 15.0214 2.64678C13.9342 2.84492 12.9332 3.36983 12.1517 4.15118C11.3702 4.93273 10.8448 5.93416 10.6466 7.02154C10.4485 8.10896 10.5864 9.23132 11.0421 10.2383C11.1386 10.4515 11.0932 10.7019 10.9279 10.8675L4.01746 17.7779C3.72524 18.0702 3.56116 18.4668 3.56116 18.8802C3.5612 19.2935 3.72518 19.6902 4.01746 19.9825C4.30974 20.2748 4.70641 20.4387 5.11975 20.4388C5.53309 20.4388 5.92973 20.2747 6.22205 19.9825L13.1324 13.0721L13.1984 13.0157C13.3601 12.8975 13.5751 12.8735 13.7616 12.9578C14.7686 13.4135 15.891 13.5515 16.9784 13.3533C18.0658 13.1552 19.0672 12.6305 19.8488 11.8489C20.6303 11.0674 21.155 10.0659 21.3531 8.97857C21.5008 8.16833 21.4612 7.33881 21.2433 6.55206L18.0939 9.70147C17.8018 9.98776 17.4086 10.1482 16.9996 10.1482C16.5908 10.1482 16.1981 9.98768 15.9061 9.70147L14.2985 8.0938C14.0122 7.80179 13.8518 7.40919 13.8517 7.0003ZM14.9767 7.0003C14.9768 7.11472 15.0218 7.22473 15.1019 7.30645L16.6935 8.898C16.7752 8.97808 16.8852 9.02316 16.9996 9.02325C17.1142 9.02325 17.2247 8.97816 17.3065 8.898L21.0719 5.13262L21.1239 5.08648C21.2495 4.9885 21.4119 4.94772 21.5707 4.97662C21.7523 5.00971 21.9062 5.12994 21.9823 5.29815C22.5323 6.5135 22.699 7.86759 22.4598 9.17998C22.2207 10.4924 21.5875 11.7011 20.6442 12.6443C19.7009 13.5876 18.4922 14.2209 17.1798 14.46C15.9969 14.6755 14.7805 14.56 13.662 14.1326L7.01746 20.7779C6.51416 21.2811 5.83146 21.5638 5.11975 21.5638C4.40804 21.5637 3.72531 21.2811 3.22205 20.7779C2.71879 20.2746 2.4362 19.5919 2.43616 18.8802C2.43616 18.1685 2.71885 17.4858 3.22205 16.9825L9.86658 10.3372C9.43951 9.2189 9.32446 8.00274 9.53992 6.82012C9.77903 5.50775 10.4123 4.29905 11.3556 3.35577C12.2989 2.41249 13.5076 1.77922 14.8199 1.54009C16.1323 1.30097 17.4864 1.46768 18.7018 2.01763C18.87 2.09376 18.9902 2.24759 19.0233 2.42925C19.0564 2.61089 18.9986 2.79747 18.868 2.92803L15.1078 6.68755L15.1012 6.69341C15.0211 6.77519 14.9767 6.88581 14.9767 7.0003Z"/>
</svg>