<svg xmlns="http://www.w3.org/2000/svg" width="24" height="24" fill="currentcolor" class="icon-transfer-internal" viewBox="0 0 24 24">
  <path d="M20.6982 8.50022C21.4173 8.50044 21.9999 9.0919 22 9.82151V19.1828C21.9999 19.9124 21.4173 20.5039 20.6982 20.5041H3.30273C2.58354 20.5041 2.00009 19.9126 2 19.1828V9.82151C2.00006 9.09176 2.58351 8.50022 3.30273 8.50022H20.6982ZM3.30273 9.63304C3.20002 9.63304 3.11627 9.71731 3.11621 9.82151V19.1828C3.1163 19.287 3.20004 19.3713 3.30273 19.3713H20.6982C20.8008 19.3711 20.8837 19.2869 20.8838 19.1828V9.82151C20.8837 9.71744 20.8008 9.63326 20.6982 9.63304H3.30273ZM12 11.5002C13.6567 11.5003 15 12.8434 15 14.5002C15 16.157 13.6567 17.5001 12 17.5002C10.3433 17.5001 9.00002 16.157 9 14.5002C9 12.8435 10.3433 11.5004 12 11.5002ZM12 12.5002C10.8956 12.5004 10 13.3957 10 14.5002C10 15.6047 10.8956 16.5001 12 16.5002C13.1045 16.5001 14 15.6047 14 14.5002C14 13.3957 13.1045 12.5003 12 12.5002ZM5.28906 13.7903C5.67537 13.404 6.30195 13.4042 6.68848 13.7903L6.70996 13.8108C7.09608 14.197 7.09675 14.8237 6.71094 15.2102C6.32473 15.5964 5.69808 15.597 5.31152 15.2112L5.28906 15.1897C4.90304 14.8035 4.90337 14.1768 5.28906 13.7903ZM17.2891 13.7903C17.6753 13.404 18.3022 13.4041 18.6885 13.7903L18.71 13.8108C19.096 14.197 19.096 14.8239 18.71 15.2102C18.3237 15.5963 17.6958 15.5964 17.3096 15.2102L17.2891 15.1887C16.9031 14.8025 16.9033 14.1765 17.2891 13.7903ZM12.251 1.93382C12.4594 1.70343 12.812 1.68723 13.0391 1.89866L15.3535 4.05784C15.4686 4.16516 15.5352 4.31715 15.5352 4.47581C15.535 4.63429 15.4685 4.78559 15.3535 4.8928L13.0391 7.05101C12.8122 7.26253 12.4595 7.24781 12.251 7.0178C12.0425 6.78732 12.0572 6.42872 12.2842 6.21702L13.5439 5.04222H9.02344C8.71534 5.04222 8.4651 4.78855 8.46484 4.47581C8.46484 4.16285 8.71519 3.90843 9.02344 3.90843H13.5449L12.2842 2.7346C12.0572 2.52292 12.0425 2.16433 12.251 1.93382Z"/>
</svg>