<svg xmlns="http://www.w3.org/2000/svg" width="24" height="24" fill="currentcolor" class="icon-transfer-internal" viewBox="0 0 24 24">
  <path d="M20.6982 8.5C21.4173 8.50022 21.9999 9.09168 22 9.82129V19.1826C21.9999 19.9122 21.4173 20.5037 20.6982 20.5039H3.30273C2.58354 20.5039 2.00009 19.9124 2 19.1826V9.82129C2.00006 9.09154 2.58351 8.5 3.30273 8.5H20.6982ZM3.30273 9.63281C3.20002 9.63281 3.11627 9.71709 3.11621 9.82129V19.1826C3.1163 19.2868 3.20004 19.3711 3.30273 19.3711H20.6982C20.8008 19.3709 20.8837 19.2867 20.8838 19.1826V9.82129C20.8837 9.71721 20.8008 9.63303 20.6982 9.63281H3.30273ZM12 11.5C13.6567 11.5001 15 12.8432 15 14.5C15 16.1568 13.6567 17.4999 12 17.5C10.3433 17.4999 9.00002 16.1568 9 14.5C9 12.8432 10.3433 11.5001 12 11.5ZM12 12.5C10.8956 12.5001 10 13.3955 10 14.5C10 15.6045 10.8956 16.4999 12 16.5C13.1045 16.4999 14 15.6045 14 14.5C14 13.3955 13.1045 12.5001 12 12.5ZM5.28906 13.79C5.67537 13.4037 6.30195 13.4039 6.68848 13.79L6.70996 13.8105C7.09608 14.1968 7.09675 14.8235 6.71094 15.21C6.32473 15.5962 5.69808 15.5968 5.31152 15.2109L5.28906 15.1895C4.90304 14.8033 4.90337 14.1765 5.28906 13.79ZM17.2891 13.79C17.6753 13.4038 18.3022 13.4039 18.6885 13.79L18.71 13.8105C19.096 14.1968 19.096 14.8237 18.71 15.21C18.3237 15.5961 17.6958 15.5962 17.3096 15.21L17.2891 15.1885C16.9031 14.8023 16.9033 14.1763 17.2891 13.79ZM12.251 1.93359C12.4594 1.70321 12.812 1.68701 13.0391 1.89844L15.3535 4.05762C15.4686 4.16493 15.5352 4.31693 15.5352 4.47559C15.535 4.63407 15.4685 4.78537 15.3535 4.89258L13.0391 7.05078C12.8122 7.26231 12.4595 7.24758 12.251 7.01758C12.0425 6.7871 12.0572 6.42849 12.2842 6.2168L13.5439 5.04199H9.02344C8.71534 5.04199 8.4651 4.78833 8.46484 4.47559C8.46484 4.16262 8.71519 3.9082 9.02344 3.9082H13.5449L12.2842 2.73438C12.0572 2.5227 12.0425 2.1641 12.251 1.93359Z"/>
</svg>