<svg xmlns="http://www.w3.org/2000/svg" width="24" height="24" fill="currentcolor" class="icon-transfer-outbound" viewBox="0 0 24 24">
  <path d="M20.6973 8.5C21.4165 8.5 21.9999 9.09156 22 9.82129V19.1826C21.9999 19.9124 21.4165 20.5039 20.6973 20.5039H3.30176C2.5826 20.5039 2.00008 19.9123 2 19.1826V9.82129C2.00008 9.09158 2.58259 8.50005 3.30176 8.5H20.6973ZM3.30176 9.63281C3.1991 9.63286 3.11629 9.71713 3.11621 9.82129V19.1826C3.11629 19.2868 3.19909 19.371 3.30176 19.3711H20.6973C20.8 19.3711 20.8837 19.2868 20.8838 19.1826V9.82129C20.8837 9.71709 20.8 9.63281 20.6973 9.63281H3.30176ZM12 11.5C13.6567 11.5001 15 12.8432 15 14.5C15 16.1568 13.6567 17.4999 12 17.5C10.3433 17.4999 9 16.1568 9 14.5C9 12.8432 10.3433 11.5001 12 11.5ZM12 12.5C10.8956 12.5001 10 13.3955 10 14.5C10 15.6045 10.8956 16.4999 12 16.5C13.1045 16.4999 14 15.6045 14 14.5C14 13.3955 13.1045 12.5001 12 12.5ZM5.28906 13.79C5.67536 13.4037 6.30195 13.4039 6.68848 13.79L6.70996 13.8105C7.09608 14.1968 7.09675 14.8235 6.71094 15.21C6.32473 15.5962 5.69809 15.5968 5.31152 15.2109L5.28906 15.1895C4.90305 14.8032 4.90336 14.1765 5.28906 13.79ZM17.2891 13.79C17.6753 13.4038 18.3022 13.4039 18.6885 13.79L18.71 13.8105C19.096 14.1968 19.096 14.8237 18.71 15.21C18.3237 15.5961 17.6958 15.5962 17.3096 15.21L17.2891 15.1885C16.9031 14.8023 16.9033 14.1763 17.2891 13.79ZM11.8936 0.25C12.0497 0.250059 12.199 0.316859 12.3047 0.433594L14.4307 2.78223C14.6391 3.01247 14.6241 3.37043 14.3975 3.58203C14.1706 3.79345 13.8179 3.77876 13.6094 3.54883L12.4521 2.26953V6.85742C12.452 7.17 12.2016 7.42371 11.8936 7.42383C11.5855 7.42367 11.3361 7.16997 11.3359 6.85742V2.26855L10.1787 3.54883C9.97021 3.77893 9.61758 3.79344 9.39062 3.58203C9.16359 3.37047 9.14795 3.01259 9.35645 2.78223L11.4824 0.433594C11.5881 0.316878 11.7374 0.250081 11.8936 0.25Z"/>
</svg>