<svg xmlns="http://www.w3.org/2000/svg" width="24" height="24" fill="currentcolor" class="icon-transfer-inbound" viewBox="0 0 24 24">
  <path d="M20.6982 8.5C21.4173 8.50022 21.9999 9.09169 22 9.82129V19.1826C21.9999 19.9122 21.4173 20.5037 20.6982 20.5039H3.30273C2.58353 20.5039 2.00008 19.9124 2 19.1826V9.82129C2.00008 9.09155 2.58352 8.5 3.30273 8.5H20.6982ZM3.30273 9.63281C3.20003 9.63281 3.11629 9.7171 3.11621 9.82129V19.1826C3.11629 19.2868 3.20003 19.3711 3.30273 19.3711H20.6982C20.8008 19.3709 20.8837 19.2867 20.8838 19.1826V9.82129C20.8837 9.71723 20.8008 9.63303 20.6982 9.63281H3.30273ZM12 11.5C13.6566 11.5002 15 12.8433 15 14.5C15 16.1567 13.6566 17.4998 12 17.5C10.3434 17.4998 9 16.1567 9 14.5C9 12.8433 10.3434 11.5002 12 11.5ZM12 12.5C10.8956 12.5002 10 13.3956 10 14.5C10 15.6044 10.8956 16.4998 12 16.5C13.1044 16.4998 14 15.6044 14 14.5C14 13.3956 13.1044 12.5002 12 12.5ZM5.28906 13.79C5.67535 13.4037 6.30195 13.404 6.68848 13.79L6.70898 13.8105C7.0954 14.1967 7.09679 14.8233 6.71094 15.21C6.32476 15.5961 5.69808 15.5966 5.31152 15.2109L5.28906 15.1895C4.90308 14.8032 4.90335 14.1765 5.28906 13.79ZM17.2891 13.79C17.6753 13.4038 18.3012 13.404 18.6875 13.79L18.71 13.8105C19.0959 14.1967 19.0958 14.8237 18.71 15.21C18.3237 15.596 17.6958 15.5961 17.3096 15.21L17.2891 15.1885C16.9031 14.8023 16.9033 14.1763 17.2891 13.79ZM11.8945 0C12.183 0.000340675 12.4204 0.22275 12.4492 0.507812L12.4521 0.566406V5.15332L13.6094 3.875C13.8178 3.64486 14.1705 3.62961 14.3975 3.84082C14.6243 4.05239 14.64 4.4113 14.4316 4.6416L12.3145 6.97852C12.3079 6.98617 12.301 6.99361 12.2939 7.00098C12.2905 7.00462 12.2868 7.00817 12.2832 7.01172C12.2793 7.01558 12.2755 7.02062 12.2715 7.02441C12.2701 7.02571 12.268 7.02704 12.2666 7.02832C12.261 7.03341 12.2548 7.03814 12.249 7.04297C12.2363 7.05368 12.2234 7.06387 12.21 7.07324C12.2072 7.07519 12.204 7.07721 12.2012 7.0791C12.186 7.08929 12.1692 7.09695 12.1533 7.10547C12.1416 7.11176 12.1302 7.11961 12.1182 7.125C12.1099 7.12866 12.1013 7.13148 12.0928 7.13477C12.0806 7.13947 12.068 7.14269 12.0557 7.14648C12.0417 7.15079 12.0279 7.15599 12.0137 7.15918C12.0034 7.16145 11.9928 7.16333 11.9824 7.16504C11.979 7.16559 11.9751 7.16651 11.9717 7.16699C11.9556 7.16927 11.9393 7.17005 11.9229 7.1709C11.9194 7.17108 11.9155 7.17176 11.9121 7.17188C11.9063 7.17208 11.9004 7.17377 11.8945 7.17383C11.888 7.17383 11.8805 7.1721 11.874 7.17188C11.8708 7.17173 11.8675 7.17107 11.8643 7.1709C11.8476 7.17001 11.8307 7.16933 11.8145 7.16699C11.8112 7.16652 11.8079 7.16557 11.8047 7.16504C11.7942 7.16332 11.7838 7.16149 11.7734 7.15918C11.7595 7.15606 11.7461 7.15071 11.7324 7.14648C11.7195 7.14251 11.706 7.13972 11.6934 7.13477C11.6852 7.13156 11.6769 7.12857 11.6689 7.125L11.5898 7.08105C11.5847 7.07768 11.5792 7.07483 11.5742 7.07129C11.5555 7.05795 11.5369 7.04327 11.5195 7.02734C11.5185 7.02644 11.5176 7.02534 11.5166 7.02441C11.501 7.0099 11.4862 6.99432 11.4727 6.97852L9.35645 4.6416C9.14794 4.41123 9.16359 4.05238 9.39062 3.84082C9.61762 3.62961 9.97028 3.64489 10.1787 3.875L11.3359 5.1543V0.566406C11.3359 0.253632 11.5863 0 11.8945 0Z"/>
</svg>