<svg xmlns="http://www.w3.org/2000/svg" width="24" height="24" fill="currentcolor" class="icon-trash" viewBox="0 0 24 24">
  <path d="M18.4373 6.56226H5.56274V20C5.56274 20.3812 5.7143 20.747 5.98389 21.0166C6.25339 21.286 6.61871 21.4377 6.99976 21.4377H17.0002C17.3813 21.4377 17.7466 21.286 18.0161 21.0166C18.2857 20.747 18.4373 20.3812 18.4373 20V6.56226ZM15.4373 4.00024C15.4373 3.619 15.2857 3.25323 15.0161 2.98364C14.7803 2.7479 14.4712 2.60255 14.1423 2.56982L14.0002 2.5625H9.99976C9.61865 2.56256 9.2534 2.71419 8.98389 2.98364C8.7143 3.25323 8.56274 3.619 8.56274 4.00024V5.43726H15.4373V4.00024ZM16.5623 5.43726H21C21.3106 5.43726 21.5624 5.68921 21.5625 5.99976C21.5625 6.31042 21.3107 6.56226 21 6.56226H19.5623V20C19.5623 20.6796 19.2927 21.3315 18.8123 21.812C18.3318 22.2925 17.6798 22.5627 17.0002 22.5627H6.99976C6.32023 22.5627 5.66825 22.2925 5.18774 21.812C4.70726 21.3315 4.43774 20.6796 4.43774 20V6.56226H3C2.68934 6.56226 2.4375 6.31042 2.4375 5.99976C2.43763 5.68921 2.68942 5.43726 3 5.43726H7.43774V4.00024C7.43774 3.32074 7.70734 2.66877 8.18774 2.18823C8.66825 1.70773 9.32023 1.43756 9.99976 1.4375H14.0002L14.127 1.44043C14.7604 1.47182 15.3617 1.73768 15.8123 2.18823C16.2927 2.66877 16.5623 3.32074 16.5623 4.00024V5.43726Z"/>
</svg>