<svg xmlns="http://www.w3.org/2000/svg" width="24" height="24" fill="currentcolor" class="icon-trello" viewBox="0 0 24 24">
  <path d="M20.4375 5.00024C20.4375 4.20633 19.7937 3.5625 18.9998 3.5625H5.00024C4.20633 3.5625 3.5625 4.20633 3.5625 5.00024V18.9998C3.5625 19.7937 4.20633 20.4375 5.00024 20.4375H18.9998C19.7937 20.4375 20.4375 19.7937 20.4375 18.9998V5.00024ZM9.99976 6.43726C10.3103 6.43726 10.5621 6.68921 10.5623 6.99976V15.9998C10.5623 16.3104 10.3104 16.5623 9.99976 16.5623H6.99976C6.68921 16.5621 6.43726 16.3103 6.43726 15.9998V6.99976C6.43739 6.68929 6.68929 6.43739 6.99976 6.43726H9.99976ZM7.56226 15.4373H9.43726V7.56226H7.56226V15.4373ZM17.0002 6.43726C17.3107 6.43739 17.5626 6.68929 17.5627 6.99976V12C17.5627 12.3106 17.3108 12.5624 17.0002 12.5625H14.0002C13.6896 12.5625 13.4377 12.3107 13.4377 12V6.99976C13.4379 6.68921 13.6897 6.43726 14.0002 6.43726H17.0002ZM14.5627 11.4375H16.4377V7.56226H14.5627V11.4375ZM21.5625 18.9998C21.5625 20.415 20.415 21.5625 18.9998 21.5625H5.00024C3.58501 21.5625 2.4375 20.415 2.4375 18.9998V5.00024C2.4375 3.58501 3.58501 2.4375 5.00024 2.4375H18.9998C20.415 2.4375 21.5625 3.58501 21.5625 5.00024V18.9998Z"/>
</svg>