<svg xmlns="http://www.w3.org/2000/svg" width="24" height="24" fill="currentcolor" class="icon-trending-up" viewBox="0 0 24 24">
  <path d="M23.5623 12C23.5623 12.3107 23.3104 12.5625 22.9998 12.5625C22.6892 12.5624 22.4373 12.3106 22.4373 12V7.35791L13.898 15.8979C13.7925 16.0034 13.6494 16.0627 13.5003 16.0627C13.3512 16.0627 13.208 16.0033 13.1026 15.8979L8.50002 11.2954L1.39772 18.3977C1.17805 18.6174 0.821983 18.6174 0.602313 18.3977C0.382644 18.178 0.382644 17.822 0.602313 17.6023L8.10231 10.1023L8.18801 10.032C8.27973 9.97083 8.38815 9.9375 8.50002 9.9375C8.6492 9.9375 8.79223 9.99681 8.89772 10.1023L13.4995 14.7041L21.6419 6.5625H16.9998C16.6892 6.56237 16.4373 6.31058 16.4373 6C16.4373 5.68942 16.6892 5.43763 16.9998 5.4375H22.9998C23.3104 5.4375 23.5623 5.68934 23.5623 6V12Z"/>
</svg>