<svg xmlns="http://www.w3.org/2000/svg" width="24" height="24" fill="currentcolor" class="icon-trending-up" viewBox="0 0 24 24">
  <path d="M23.5622 12C23.5622 12.3107 23.3104 12.5625 22.9997 12.5625C22.6892 12.5624 22.4372 12.3106 22.4372 12V7.35791L13.8979 15.8979C13.7925 16.0034 13.6493 16.0627 13.5002 16.0627C13.3511 16.0627 13.208 16.0033 13.1025 15.8979L8.49996 11.2954L1.39766 18.3977C1.17799 18.6174 0.821922 18.6174 0.602252 18.3977C0.382583 18.178 0.382582 17.822 0.602252 17.6023L8.10225 10.1023L8.18795 10.032C8.27967 9.97083 8.38809 9.9375 8.49996 9.9375C8.64914 9.9375 8.79217 9.99681 8.89766 10.1023L13.4995 14.7041L21.6418 6.5625H16.9997C16.6892 6.56237 16.4372 6.31058 16.4372 6C16.4372 5.68942 16.6892 5.43763 16.9997 5.4375H22.9997C23.3104 5.4375 23.5622 5.68934 23.5622 6V12Z"/>
</svg>