<svg xmlns="http://www.w3.org/2000/svg" width="24" height="24" fill="currentcolor" class="icon-trending-down" viewBox="0 0 24 24">
  <path d="M0.602252 5.60225C0.821922 5.38258 1.17799 5.38258 1.39766 5.60225L8.49996 12.7045L13.1025 8.10201L13.1882 8.0317C13.2799 7.97067 13.3885 7.93721 13.5002 7.93721C13.6493 7.93728 13.7925 7.99658 13.8979 8.10201L22.4372 16.6413V12C22.4372 11.6894 22.6892 11.4376 22.9997 11.4375C23.3104 11.4375 23.5622 11.6893 23.5622 12V18C23.5622 18.3106 23.3104 18.5625 22.9997 18.5625H16.9997C16.6892 18.5623 16.4372 18.3105 16.4372 18C16.4372 17.6894 16.6892 17.4376 16.9997 17.4375H21.6418L13.4995 9.29512L8.89766 13.8977C8.79217 14.0032 8.64914 14.0625 8.49996 14.0625C8.35077 14.0625 8.20774 14.0032 8.10225 13.8977L0.602252 6.39766C0.382583 6.17799 0.382583 5.82192 0.602252 5.60225Z"/>
</svg>