<svg xmlns="http://www.w3.org/2000/svg" width="24" height="24" fill="currentcolor" class="icon-trending-down" viewBox="0 0 24 24">
  <path d="M0.602313 5.60225C0.821983 5.38258 1.17805 5.38258 1.39772 5.60225L8.50002 12.7045L13.1026 8.10201L13.1883 8.0317C13.2799 7.97067 13.3885 7.93721 13.5003 7.93721C13.6494 7.93728 13.7925 7.99658 13.898 8.10201L22.4373 16.6413V12C22.4373 11.6894 22.6892 11.4376 22.9998 11.4375C23.3104 11.4375 23.5623 11.6893 23.5623 12V18C23.5623 18.3106 23.3104 18.5625 22.9998 18.5625H16.9998C16.6892 18.5623 16.4373 18.3105 16.4373 18C16.4373 17.6894 16.6892 17.4376 16.9998 17.4375H21.6419L13.4995 9.29512L8.89772 13.8977C8.79224 14.0032 8.6492 14.0625 8.50002 14.0625C8.35084 14.0625 8.2078 14.0032 8.10231 13.8977L0.602313 6.39766C0.382644 6.17799 0.382644 5.82192 0.602313 5.60225Z"/>
</svg>