<svg xmlns="http://www.w3.org/2000/svg" width="24" height="24" fill="currentcolor" class="icon-triangle" viewBox="0 0 24 24">
  <path d="M12 2.33472C12.4403 2.33472 12.8731 2.44833 13.2568 2.66431C13.6405 2.88033 13.9623 3.19166 14.1907 3.56812L14.1929 3.57104L22.667 17.7185C22.8907 18.106 23.0093 18.5455 23.0105 18.9929C23.0118 19.4403 22.8958 19.8801 22.6743 20.2688C22.4528 20.6575 22.1333 20.9816 21.7478 21.2085C21.3622 21.4354 20.9237 21.5573 20.4763 21.5623H3.52369C3.07633 21.5573 2.63779 21.4354 2.25221 21.2085C1.86668 20.9816 1.54722 20.6574 1.32569 20.2688C1.1042 19.8801 0.988262 19.4403 0.989512 18.9929C0.990765 18.5455 1.10927 18.106 1.33302 17.7185L9.80714 3.57104L9.80934 3.56812C10.0377 3.19165 10.3595 2.88033 10.7432 2.66431C11.1269 2.44833 11.5597 2.33472 12 2.33472ZM12 3.45972C11.753 3.45972 11.51 3.5231 11.2947 3.64429C11.0794 3.76549 10.8991 3.94062 10.771 4.15186L2.30274 18.2891C2.18015 18.5045 2.11524 18.7479 2.11451 18.9958C2.11381 19.2469 2.17918 19.4941 2.30348 19.7122C2.42771 19.93 2.60666 20.1115 2.82276 20.2388C3.03908 20.3661 3.28518 20.4345 3.53614 20.4373H20.4639C20.7149 20.4345 20.9609 20.3661 21.1773 20.2388C21.3935 20.1115 21.573 19.9301 21.6973 19.7122C21.8216 19.4941 21.8862 19.2469 21.8855 18.9958C21.8848 18.7479 21.8199 18.5045 21.6973 18.2891L13.229 4.15186L13.1785 4.07422C13.0552 3.89765 12.8937 3.75033 12.7053 3.64429C12.4901 3.52311 12.247 3.45972 12 3.45972Z"/>
</svg>