<svg xmlns="http://www.w3.org/2000/svg" width="24" height="24" fill="currentcolor" class="icon-triangle" viewBox="0 0 24 24">
  <path d="M11.9998 2.33472C12.4401 2.33472 12.8729 2.44833 13.2566 2.66431C13.6403 2.88033 13.962 3.19166 14.1904 3.56812L14.1926 3.57104L22.6668 17.7185C22.8905 18.106 23.009 18.5455 23.0103 18.9929C23.0115 19.4403 22.8956 19.8801 22.6741 20.2688C22.4525 20.6575 22.1331 20.9816 21.7476 21.2085C21.362 21.4354 20.9235 21.5573 20.4761 21.5623H3.52345C3.07609 21.5573 2.63755 21.4354 2.25196 21.2085C1.86644 20.9816 1.54698 20.6574 1.32545 20.2688C1.10396 19.8801 0.988017 19.4403 0.989268 18.9929C0.990521 18.5455 1.10903 18.106 1.33277 17.7185L9.80689 3.57104L9.80909 3.56812C10.0375 3.19165 10.3592 2.88033 10.7429 2.66431C11.1266 2.44833 11.5594 2.33472 11.9998 2.33472ZM11.9998 3.45972C11.7527 3.45972 11.5097 3.5231 11.2944 3.64429C11.0792 3.76549 10.8989 3.94062 10.7708 4.15186L2.3025 18.2891C2.17991 18.5045 2.115 18.7479 2.11427 18.9958C2.11356 19.2469 2.17894 19.4941 2.30323 19.7122C2.42747 19.93 2.60642 20.1115 2.82252 20.2388C3.03883 20.3661 3.28494 20.4345 3.5359 20.4373H20.4636C20.7146 20.4345 20.9607 20.3661 21.177 20.2388C21.3932 20.1115 21.5728 19.9301 21.697 19.7122C21.8213 19.4941 21.886 19.2469 21.8853 18.9958C21.8845 18.7479 21.8196 18.5045 21.697 18.2891L13.2288 4.15186L13.1782 4.07422C13.0549 3.89765 12.8934 3.75033 12.7051 3.64429C12.4898 3.52311 12.2468 3.45972 11.9998 3.45972Z"/>
</svg>