<svg xmlns="http://www.w3.org/2000/svg" width="24" height="24" fill="currentcolor" class="icon-truck" viewBox="0 0 24 24">
  <path d="M7.43726 18.5002C7.43726 17.4302 6.57005 16.5623 5.5 16.5623C4.42995 16.5623 3.56274 17.4302 3.56274 18.5002C3.56288 19.5702 4.43003 20.4375 5.5 20.4375C6.56997 20.4375 7.43712 19.5702 7.43726 18.5002ZM20.4377 18.5002C20.4377 17.4302 19.5698 16.5623 18.4998 16.5623C17.4298 16.5624 16.5625 17.4303 16.5625 18.5002C16.5626 19.5701 17.4299 20.4374 18.4998 20.4375C19.5697 20.4375 20.4376 19.5702 20.4377 18.5002ZM16.5625 15.4373H22.4373V11.2332L19.7668 8.56274H16.5625V15.4373ZM1.5625 15.4373H15.4375V3.5625H1.5625V15.4373ZM21.5627 18.5002C21.5626 20.1915 20.191 21.5625 18.4998 21.5625C16.8086 21.5624 15.4376 20.1914 15.4375 18.5002C15.4375 17.7649 15.697 17.0902 16.1289 16.5623H7.87158C8.30341 17.0901 8.56226 17.765 8.56226 18.5002C8.56212 20.1915 7.19129 21.5625 5.5 21.5625C3.80871 21.5625 2.43788 20.1915 2.43774 18.5002C2.43774 17.765 2.69659 17.0901 3.12842 16.5623H1C0.68934 16.5623 0.4375 16.3104 0.4375 15.9998V3C0.4375 2.68934 0.68934 2.4375 1 2.4375H16C16.3107 2.4375 16.5625 2.68934 16.5625 3V7.43774H19.9998L20.1104 7.44873C20.2184 7.47036 20.3184 7.52346 20.3975 7.60254L23.3975 10.6025C23.5029 10.708 23.5623 10.8511 23.5623 11.0002V15.9998C23.5623 16.3104 23.3104 16.5623 22.9998 16.5623H20.8713C21.3032 17.0901 21.5627 17.765 21.5627 18.5002Z"/>
</svg>