<svg xmlns="http://www.w3.org/2000/svg" width="24" height="24" fill="currentcolor" class="icon-turkish-lira" viewBox="0 0 24 24">
  <path d="M10.6853 3V20.7572L9.58973 20.9653V3H10.6853ZM16.1544 13.3353H17.25C17.25 15.0289 16.9841 16.4451 16.4524 17.5838C15.9265 18.7168 15.1465 19.5694 14.1123 20.1416C13.0839 20.7081 11.8218 20.9942 10.326 21C10.1974 21 10.063 20.9971 9.92279 20.9913C9.78255 20.9855 9.67154 20.9769 9.58973 20.9653L10.2997 19.9595C11.5442 19.9595 12.6018 19.7312 13.4725 19.2746C14.3431 18.8121 15.0063 18.0925 15.462 17.1156C15.9236 16.1387 16.1544 14.8786 16.1544 13.3353ZM13.9019 6.32081V7.43064L6.75 10.6647V9.55491L13.9019 6.32081ZM13.9019 10.1445V11.2543L6.75 14.4884V13.3786L13.9019 10.1445Z"/>
</svg>