<svg xmlns="http://www.w3.org/2000/svg" width="24" height="24" fill="currentcolor" class="icon-turkish-lira-2" viewBox="0 0 24 24">
  <path d="M6.90627 2.4375C7.2344 2.4375 7.56252 2.76562 7.56252 3.09375V6.29297L13.9199 4.44727C14.2891 4.36523 14.6172 4.57031 14.7403 4.89844C14.8223 5.26758 14.6172 5.5957 14.2891 5.71875L7.56252 7.64648V10.2305L13.9199 8.38477C14.2891 8.30273 14.6172 8.50781 14.7403 8.83594C14.8223 9.20508 14.6172 9.5332 14.2891 9.65625L7.56252 11.584V19.5H11.459C14.9453 19.5 17.8574 16.752 18.0215 13.2246L18.0625 12.2812C18.0625 11.9121 18.3496 11.625 18.7188 11.625C19.0879 11.666 19.375 11.9531 19.334 12.3223V13.2656C19.1289 17.4902 15.6836 20.8125 11.459 20.8125H6.90627C6.53713 20.8125 6.25002 20.5254 6.25002 20.1562V11.9531L5.10158 12.2812C4.73244 12.3633 4.40432 12.1582 4.28127 11.8301C4.19924 11.4609 4.40432 11.0918 4.73244 11.0098L6.25002 10.5996V8.01562L5.10158 8.34375C4.73244 8.42578 4.40432 8.2207 4.28127 7.89258C4.19924 7.52344 4.40432 7.1543 4.73244 7.07227L6.25002 6.66211V3.09375C6.25002 2.76562 6.53713 2.4375 6.90627 2.4375Z"/>
</svg>