<svg xmlns="http://www.w3.org/2000/svg" width="24" height="24" fill="currentcolor" class="icon-tv" viewBox="0 0 24 24">
  <path d="M21.4377 8.99971C21.4376 8.20592 20.7938 7.5627 20 7.5627H4.00024C3.20642 7.5627 2.56263 8.20592 2.5625 8.99971V20C2.5625 20.7939 3.20633 21.4377 4.00024 21.4377H20C20.7939 21.4377 21.4377 20.7939 21.4377 20V8.99971ZM22.5627 20C22.5627 21.4152 21.4152 22.5627 20 22.5627H4.00024C2.58501 22.5627 1.4375 21.4152 1.4375 20V8.99971C1.43763 7.5846 2.5851 6.4377 4.00024 6.4377H10.6418L6.60254 2.39766C6.38287 2.17799 6.38287 1.82192 6.60254 1.60225C6.82222 1.3827 7.17832 1.38262 7.39795 1.60225L11.9998 6.20406L16.6023 1.60225C16.822 1.38258 17.178 1.38258 17.3977 1.60225C17.6174 1.82192 17.6174 2.17799 17.3977 2.39766L13.3577 6.4377H20C21.4151 6.4377 22.5626 7.5846 22.5627 8.99971V20Z"/>
</svg>