<svg xmlns="http://www.w3.org/2000/svg" width="24" height="24" fill="currentcolor" class="icon-twitter" viewBox="0 0 24 24">
  <path d="M14.6813 2.75912C15.6464 2.39078 16.7012 2.32748 17.7033 2.57821C18.5826 2.79824 19.3839 3.25068 20.0251 3.88485C20.968 3.56628 21.8614 3.11452 22.6757 2.54013C22.8673 2.40513 23.1229 2.40311 23.3166 2.535C23.5101 2.66691 23.6018 2.90508 23.5466 3.13265C23.2057 4.53218 22.5055 5.81691 21.5185 6.86141C21.546 7.07243 21.5617 7.28489 21.5624 7.49789V7.50009C21.5624 13.4468 18.7069 17.7684 14.6389 19.9337C10.5845 22.0917 5.38205 22.0777 0.726511 19.4913C0.498941 19.3648 0.388194 19.0989 0.458445 18.8482C0.528785 18.5974 0.762129 18.4277 1.02241 18.4381C3.05601 18.5189 5.06468 18.0354 6.83344 17.0545C5.01406 16.0818 3.7686 14.8802 2.94648 13.5821C1.99236 12.0756 1.62886 10.4752 1.56294 9.02572C1.49716 7.57865 1.72717 6.27013 1.9709 5.32772C2.09306 4.85537 2.21972 4.47143 2.3166 4.20346C2.36508 4.06936 2.40639 3.96376 2.43598 3.89071C2.45076 3.85425 2.46264 3.82574 2.47114 3.80575C2.4753 3.79596 2.47819 3.788 2.48066 3.78231C2.48191 3.77945 2.48354 3.77676 2.48432 3.77499C2.48468 3.77418 2.48481 3.77336 2.48506 3.77279V3.77206L2.48579 3.77133C2.56808 3.58629 2.74347 3.45997 2.94502 3.44027C3.14671 3.42064 3.34345 3.51101 3.45991 3.67684C4.4169 5.03951 5.69619 6.14427 7.18354 6.89291C8.5076 7.55935 9.96017 7.92406 11.4374 7.96591V7.53012C11.4251 6.49977 11.7288 5.49042 12.3076 4.63778C12.8877 3.78315 13.7163 3.12746 14.6813 2.75912ZM17.4301 3.66952C16.6517 3.47476 15.8324 3.52406 15.0827 3.81015C14.333 4.09631 13.6885 4.60588 13.2377 5.26986C12.7872 5.93368 12.5518 6.71987 12.5624 7.52206V8.52987C12.5624 8.83475 12.3193 9.08431 12.0146 9.09237C10.1646 9.14034 8.33122 8.72977 6.67817 7.89779C5.34047 7.22448 4.15424 6.29166 3.18672 5.1578C3.14534 5.29571 3.10213 5.44683 3.06001 5.60971C2.835 6.47978 2.62725 7.67162 2.68647 8.97445C2.74559 10.2748 3.06951 11.6743 3.89643 12.9801C4.72122 14.2824 6.06794 15.5261 8.22798 16.4862C8.41459 16.5691 8.54157 16.7464 8.55976 16.9498C8.57793 17.1532 8.48479 17.3507 8.31587 17.4654C6.79366 18.4987 5.06552 19.1659 3.26509 19.4349C7.04014 20.8717 10.972 20.6107 14.1101 18.9405C17.7916 16.981 20.4369 13.0538 20.4374 7.50155L20.4323 7.31918C20.4233 7.1368 20.4014 6.95522 20.3671 6.77572C20.3319 6.59138 20.391 6.40145 20.5246 6.26962C21.1084 5.69385 21.5854 5.02413 21.9396 4.29281C21.3256 4.60723 20.6848 4.86888 20.0222 5.06845C19.8104 5.13221 19.5807 5.06602 19.4355 4.89926C18.9089 4.29371 18.2086 3.86432 17.4301 3.66952Z"/>
</svg>