<svg xmlns="http://www.w3.org/2000/svg" width="24" height="24" fill="currentcolor" class="icon-twitter" viewBox="0 0 24 24">
  <path d="M14.6818 2.75924C15.6469 2.3909 16.7017 2.3276 17.7038 2.57833C18.5831 2.79836 19.3844 3.2508 20.0256 3.88497C20.9685 3.5664 21.8619 3.11464 22.6762 2.54025C22.8678 2.40525 23.1233 2.40323 23.3171 2.53512C23.5106 2.66703 23.6023 2.9052 23.5471 3.13278C23.2062 4.5323 22.506 5.81703 21.519 6.86154C21.5465 7.07255 21.5622 7.28501 21.5629 7.49801V7.50021C21.5629 13.4469 18.7074 17.7685 14.6394 19.9338C10.585 22.0918 5.38254 22.0778 0.727 19.4914C0.49943 19.3649 0.388682 19.0991 0.458933 18.8484C0.529273 18.5975 0.762617 18.4278 1.0229 18.4382C3.0565 18.519 5.06517 18.0355 6.83393 17.0547C5.01455 16.0819 3.76909 14.8803 2.94697 13.5822C1.99284 12.0757 1.62935 10.4753 1.56343 9.02584C1.49765 7.57877 1.72766 6.27025 1.97138 5.32785C2.09355 4.8555 2.22021 4.47155 2.31709 4.20358C2.36557 4.06948 2.40688 3.96388 2.43647 3.89083C2.45124 3.85437 2.46313 3.82587 2.47163 3.80587C2.47579 3.79608 2.47868 3.78812 2.48115 3.78244C2.4824 3.77957 2.48403 3.77688 2.48481 3.77511C2.48517 3.77431 2.48529 3.77348 2.48554 3.77291V3.77218L2.48628 3.77145C2.56857 3.58641 2.74396 3.46009 2.94551 3.44039C3.1472 3.42077 3.34394 3.51113 3.4604 3.67697C4.41739 5.03963 5.69668 6.14439 7.18403 6.89303C8.50809 7.55947 9.96066 7.92418 11.4379 7.96603V7.53024C11.4256 6.49989 11.7292 5.49054 12.3081 4.6379C12.8882 3.78328 13.7168 3.12758 14.6818 2.75924ZM17.4306 3.66964C16.6522 3.47488 15.8329 3.52418 15.0832 3.81027C14.3334 4.09643 13.689 4.60601 13.2382 5.26998C12.7877 5.9338 12.5522 6.71999 12.5629 7.52218V8.52999C12.5629 8.83487 12.3198 9.08443 12.0151 9.09249C10.1651 9.14046 8.33171 8.72989 6.67866 7.89791C5.34096 7.2246 4.15473 6.29178 3.1872 5.15792C3.14582 5.29583 3.10262 5.44695 3.0605 5.60983C2.83549 6.4799 2.62774 7.67174 2.68696 8.97457C2.74608 10.2749 3.06999 11.6744 3.89692 12.9802C4.72171 14.2825 6.06843 15.5263 8.22846 16.4863C8.41508 16.5692 8.54206 16.7465 8.56025 16.9499C8.57841 17.1533 8.48527 17.3508 8.31635 17.4655C6.79415 18.4988 5.06601 19.166 3.26557 19.435C7.04063 20.8718 10.9724 20.6109 14.1105 18.9406C17.7921 16.9811 20.4374 13.054 20.4379 7.50167L20.4328 7.3193C20.4237 7.13692 20.4019 6.95534 20.3676 6.77584C20.3324 6.5915 20.3915 6.40157 20.5251 6.26974C21.1089 5.69398 21.5859 5.02425 21.9401 4.29293C21.3261 4.60735 20.6853 4.869 20.0227 5.06857C19.8109 5.13233 19.5812 5.06614 19.436 4.89938C18.9093 4.29384 18.2091 3.86444 17.4306 3.66964Z"/>
</svg>