<svg xmlns="http://www.w3.org/2000/svg" width="24" height="24" fill="currentcolor" class="icon-twitch" viewBox="0 0 24 24">
  <path d="M21 1.4375C21.3107 1.4375 21.5625 1.68934 21.5625 2V14C21.5625 14.1492 21.5032 14.2922 21.3977 14.3977L17.3979 18.3975C17.2925 18.5029 17.1493 18.5622 17.0002 18.5623H12.2329L8.39795 22.3979C8.2371 22.5588 7.99508 22.6065 7.78491 22.5195C7.5748 22.4325 7.43784 22.2277 7.43774 22.0002V18.5623H3C2.68934 18.5623 2.4375 18.3104 2.4375 17.9998V2L2.44043 1.94214C2.4694 1.65866 2.70888 1.4375 3 1.4375H21ZM3.5625 17.4373H8.00024C8.31071 17.4374 8.56261 17.6893 8.56274 17.9998V20.6416L11.6023 17.6021L11.688 17.5317C11.7797 17.4706 11.8882 17.4373 12 17.4373H16.7673L20.4375 13.7671V2.5625H3.5625V17.4373ZM10.4377 11V7.00024C10.4377 6.68958 10.6896 6.43774 11.0002 6.43774C11.3108 6.43788 11.5627 6.68967 11.5627 7.00024V11C11.5627 11.3106 11.3108 11.5624 11.0002 11.5625C10.6896 11.5625 10.4377 11.3107 10.4377 11ZM15.4373 11V7.00024C15.4373 6.68967 15.6892 6.43788 15.9998 6.43774C16.3104 6.43774 16.5623 6.68958 16.5623 7.00024V11C16.5623 11.3107 16.3104 11.5625 15.9998 11.5625C15.6892 11.5624 15.4373 11.3106 15.4373 11Z"/>
</svg>