<svg xmlns="http://www.w3.org/2000/svg" width="24" height="24" fill="currentcolor" class="icon-twitter" viewBox="0 0 24 24">
  <path d="M14.6817 2.75924C15.6467 2.3909 16.7015 2.3276 17.7036 2.57833C18.5829 2.79836 19.3842 3.2508 20.0254 3.88497C20.9683 3.5664 21.8617 3.11464 22.676 2.54025C22.8676 2.40525 23.1232 2.40323 23.3169 2.53512C23.5104 2.66703 23.6021 2.9052 23.5469 3.13278C23.2061 4.5323 22.5058 5.81703 21.5188 6.86154C21.5463 7.07255 21.562 7.28501 21.5628 7.49801V7.50021C21.5627 13.4469 18.7072 17.7685 14.6392 19.9338C10.5848 22.0918 5.38236 22.0778 0.726816 19.4914C0.499247 19.3649 0.388499 19.0991 0.45875 18.8484C0.52909 18.5975 0.762434 18.4278 1.02271 18.4382C3.05632 18.519 5.06499 18.0355 6.83375 17.0547C5.01437 16.0819 3.7689 14.8803 2.94679 13.5822C1.99266 12.0757 1.62917 10.4753 1.56324 9.02584C1.49747 7.57877 1.72748 6.27025 1.9712 5.32785C2.09336 4.8555 2.22003 4.47155 2.3169 4.20358C2.36538 4.06948 2.4067 3.96388 2.43629 3.89083C2.45106 3.85437 2.46294 3.82587 2.47145 3.80587C2.47561 3.79608 2.47849 3.78812 2.48097 3.78244C2.48221 3.77957 2.48385 3.77688 2.48463 3.77511C2.48498 3.77431 2.48511 3.77348 2.48536 3.77291V3.77218L2.48609 3.77145C2.56839 3.58641 2.74377 3.46009 2.94532 3.44039C3.14701 3.42077 3.34375 3.51113 3.46021 3.67697C4.4172 5.03963 5.6965 6.14439 7.18385 6.89303C8.5079 7.55947 9.96048 7.92418 11.4378 7.96603V7.53024C11.4254 6.49989 11.7291 5.49054 12.3079 4.6379C12.888 3.78328 13.7166 3.12758 14.6817 2.75924ZM17.4304 3.66964C16.652 3.47488 15.8327 3.52418 15.083 3.81027C14.3333 4.09643 13.6888 4.60601 13.238 5.26998C12.7875 5.9338 12.5521 6.71999 12.5628 7.52218V8.52999C12.5628 8.83487 12.3196 9.08443 12.0149 9.09249C10.1649 9.14046 8.33153 8.72989 6.67848 7.89791C5.34077 7.2246 4.15454 6.29178 3.18702 5.15792C3.14564 5.29583 3.10244 5.44695 3.06031 5.60983C2.83531 6.4799 2.62756 7.67174 2.68678 8.97457C2.7459 10.2749 3.06981 11.6744 3.89674 12.9802C4.72153 14.2825 6.06825 15.5263 8.22828 16.4863C8.4149 16.5692 8.54188 16.7465 8.56007 16.9499C8.57823 17.1533 8.48509 17.3508 8.31617 17.4655C6.79396 18.4988 5.06583 19.166 3.26539 19.435C7.04045 20.8718 10.9723 20.6109 14.1104 18.9406C17.7919 16.9811 20.4372 13.054 20.4378 7.50167L20.4326 7.3193C20.4236 7.13692 20.4017 6.95534 20.3674 6.77584C20.3322 6.5915 20.3914 6.40157 20.5249 6.26974C21.1087 5.69398 21.5857 5.02425 21.94 4.29293C21.3259 4.60735 20.6852 4.869 20.0225 5.06857C19.8107 5.13233 19.581 5.06614 19.4358 4.89938C18.9092 4.29384 18.2089 3.86444 17.4304 3.66964Z"/>
</svg>