<svg xmlns="http://www.w3.org/2000/svg" width="24" height="24" fill="currentcolor" class="icon-type" viewBox="0 0 24 24">
  <path d="M19.4373 7V4.5625H12.5627V19.4373H15.0002C15.3107 19.4374 15.5626 19.6893 15.5627 19.9998C15.5627 20.3103 15.3108 20.5621 15.0002 20.5623H9.00024C8.68958 20.5623 8.43774 20.3104 8.43774 19.9998C8.43788 19.6892 8.68967 19.4373 9.00024 19.4373H11.4377V4.5625H4.5625V7C4.5625 7.31066 4.31066 7.5625 4 7.5625C3.68934 7.5625 3.4375 7.31066 3.4375 7V4C3.4375 3.68934 3.68934 3.4375 4 3.4375H19.9998C20.3104 3.4375 20.5623 3.68934 20.5623 4V7C20.5623 7.31066 20.3104 7.5625 19.9998 7.5625C19.6892 7.56237 19.4373 7.31058 19.4373 7Z"/>
</svg>