<svg xmlns="http://www.w3.org/2000/svg" width="24" height="24" fill="currentcolor" class="icon-umbrella" viewBox="0 0 24 24">
  <path d="M11.4381 19.0002V12.5623H1.00033C0.841904 12.5623 0.690915 12.4956 0.584315 12.3784C0.477709 12.2612 0.424969 12.1041 0.440028 11.9463C0.714573 9.0707 2.05115 6.40043 4.18856 4.45728C6.3261 2.51406 9.11178 1.4375 12.0006 1.4375C14.8893 1.43756 17.6744 2.51413 19.8119 4.45728C21.9493 6.40043 23.2858 9.07066 23.5604 11.9463C23.5754 12.104 23.5234 12.2612 23.4168 12.3784C23.3102 12.4957 23.1586 12.5623 23.0001 12.5623H12.5631V19.0002C12.5631 19.6466 12.8195 20.2666 13.2765 20.7236C13.7336 21.1808 14.3541 21.4377 15.0006 21.4377C15.647 21.4377 16.2669 21.1807 16.724 20.7236C17.181 20.2666 17.438 19.6466 17.4381 19.0002C17.4381 18.6896 17.6899 18.4377 18.0006 18.4377C18.3111 18.4379 18.5631 18.6897 18.5631 19.0002C18.563 19.945 18.1874 20.851 17.5194 21.519C16.8513 22.1871 15.9453 22.5627 15.0006 22.5627C14.0557 22.5627 13.1491 22.1871 12.481 21.519C11.8131 20.851 11.4381 19.9449 11.4381 19.0002ZM12.0006 2.5625C9.39166 2.5625 6.87634 3.5351 4.94589 5.29004C3.16907 6.90533 2.00559 9.07676 1.63827 11.4373H22.3621C21.9948 9.07687 20.8319 6.9053 19.0553 5.29004C17.1249 3.53514 14.6094 2.56256 12.0006 2.5625Z"/>
</svg>