<svg xmlns="http://www.w3.org/2000/svg" width="24" height="24" fill="currentcolor" class="icon-umbrella" viewBox="0 0 24 24">
  <path d="M11.4376 19.0002V12.5623H0.999843C0.841416 12.5623 0.690427 12.4956 0.583827 12.3784C0.477221 12.2612 0.42448 12.1041 0.43954 11.9463C0.714084 9.0707 2.05066 6.40043 4.18807 4.45728C6.32561 2.51406 9.11129 1.4375 12.0001 1.4375C14.8888 1.43756 17.6739 2.51413 19.8114 4.45728C21.9488 6.40043 23.2853 9.07066 23.5599 11.9463C23.575 12.104 23.5229 12.2612 23.4163 12.3784C23.3097 12.4957 23.1581 12.5623 22.9996 12.5623H12.5626V19.0002C12.5626 19.6466 12.819 20.2666 13.276 20.7236C13.7331 21.1808 14.3536 21.4377 15.0001 21.4377C15.6465 21.4377 16.2664 21.1807 16.7235 20.7236C17.1805 20.2666 17.4375 19.6466 17.4376 19.0002C17.4376 18.6896 17.6894 18.4377 18.0001 18.4377C18.3106 18.4379 18.5626 18.6897 18.5626 19.0002C18.5625 19.945 18.1869 20.851 17.5189 21.519C16.8508 22.1871 15.9448 22.5627 15.0001 22.5627C14.0553 22.5627 13.1487 22.1871 12.4806 21.519C11.8126 20.851 11.4377 19.9449 11.4376 19.0002ZM12.0001 2.5625C9.39117 2.5625 6.87585 3.5351 4.9454 5.29004C3.16858 6.90533 2.0051 9.07676 1.63778 11.4373H22.3617C21.9944 9.07687 20.8315 6.9053 19.0548 5.29004C17.1244 3.53514 14.6089 2.56256 12.0001 2.5625Z"/>
</svg>