<svg xmlns="http://www.w3.org/2000/svg" width="24" height="24" fill="currentcolor" class="icon-umbrella" viewBox="0 0 24 24">
  <path d="M11.4377 19.0002V12.5623H0.999995C0.841568 12.5623 0.69058 12.4956 0.58398 12.3784C0.477373 12.2612 0.424633 12.1041 0.439692 11.9463C0.714237 9.0707 2.05081 6.40043 4.18823 4.45728C6.32576 2.51406 9.11144 1.4375 12.0002 1.4375C14.8889 1.43756 17.674 2.51413 19.8115 4.45728C21.949 6.40043 23.2855 9.07066 23.5601 11.9463C23.5751 12.104 23.523 12.2612 23.4165 12.3784C23.3099 12.4957 23.1582 12.5623 22.9997 12.5623H12.5627V19.0002C12.5628 19.6466 12.8191 20.2666 13.2761 20.7236C13.7332 21.1808 14.3538 21.4377 15.0002 21.4377C15.6466 21.4377 16.2666 21.1807 16.7236 20.7236C17.1807 20.2666 17.4377 19.6466 17.4377 19.0002C17.4377 18.6896 17.6896 18.4377 18.0002 18.4377C18.3108 18.4379 18.5627 18.6897 18.5627 19.0002C18.5627 19.945 18.1871 20.851 17.519 21.519C16.851 22.1871 15.945 22.5627 15.0002 22.5627C14.0554 22.5627 13.1488 22.1871 12.4807 21.519C11.8127 20.851 11.4378 19.9449 11.4377 19.0002ZM12.0002 2.5625C9.39132 2.5625 6.876 3.5351 4.94555 5.29004C3.16873 6.90533 2.00525 9.07676 1.63793 11.4373H22.3618C21.9945 9.07687 20.8316 6.9053 19.0549 5.29004C17.1245 3.53514 14.6091 2.56256 12.0002 2.5625Z"/>
</svg>