<svg xmlns="http://www.w3.org/2000/svg" width="24" height="24" fill="currentcolor" class="icon-underline" viewBox="0 0 24 24">
  <path d="M19.9998 20.4375C20.3104 20.4375 20.5623 20.6893 20.5623 21C20.5623 21.3107 20.3104 21.5625 19.9998 21.5625H4C3.68934 21.5625 3.4375 21.3107 3.4375 21C3.4375 20.6893 3.68934 20.4375 4 20.4375H19.9998ZM5.43774 9.99976V3C5.43774 2.68934 5.68958 2.4375 6.00024 2.4375C6.31079 2.43763 6.56274 2.68942 6.56274 3V9.99976C6.56274 11.4419 7.1353 12.8252 8.15503 13.845C9.17476 14.8647 10.5581 15.4373 12.0002 15.4373C13.4422 15.4372 14.8251 14.8646 15.8447 13.845C16.8645 12.8252 17.4377 11.4419 17.4377 9.99976V3C17.4377 2.68934 17.6896 2.4375 18.0002 2.4375C18.3108 2.43763 18.5627 2.68942 18.5627 3V9.99976C18.5627 11.7402 17.8708 13.4097 16.6401 14.6404C15.4095 15.871 13.7406 16.5622 12.0002 16.5623C10.2598 16.5623 8.59033 15.8711 7.35962 14.6404C6.12891 13.4097 5.43774 11.7402 5.43774 9.99976Z"/>
</svg>