<svg xmlns="http://www.w3.org/2000/svg" width="24" height="24" fill="currentcolor" class="icon-unlock" viewBox="0 0 24 24">
  <path d="M20.4375 13.0003C20.4375 12.2064 19.7937 11.5626 18.9998 11.5626H5.00024C4.20633 11.5626 3.5625 12.2064 3.5625 13.0003V20.0001C3.56255 20.7939 4.20636 21.4378 5.00024 21.4378H18.9998C19.7936 21.4378 20.4375 20.7939 20.4375 20.0001V13.0003ZM21.5625 20.0001C21.5625 21.4152 20.415 22.5628 18.9998 22.5628H5.00024C3.58504 22.5628 2.43755 21.4152 2.4375 20.0001V13.0003C2.4375 11.5851 3.58501 10.4376 5.00024 10.4376H6.43726V7.0003C6.43593 5.62093 6.94753 4.29008 7.87207 3.26641C8.79665 2.24279 10.0688 1.59888 11.4412 1.46026C12.8135 1.32169 14.1883 1.69839 15.2988 2.51641C16.4094 3.33451 17.1769 4.53599 17.4514 5.88775C17.5132 6.19219 17.3164 6.4895 17.012 6.55132C16.7075 6.61314 16.4102 6.41632 16.3484 6.11187C16.1294 5.03346 15.5176 4.07507 14.6316 3.42242C13.7456 2.76977 12.6488 2.46954 11.554 2.58013C10.4591 2.69075 9.4446 3.20417 8.70703 4.02081C7.96944 4.83748 7.56115 5.89911 7.56226 6.99956V10.4376H18.9998C20.415 10.4376 21.5625 11.5851 21.5625 13.0003V20.0001Z"/>
</svg>