<svg xmlns="http://www.w3.org/2000/svg" width="24" height="24" fill="currentcolor" class="icon-upload-cloud" viewBox="0 0 24 24">
  <path d="M11.4374 21.0003V13.3582L8.39782 16.3978C8.1782 16.6174 7.82209 16.6173 7.60241 16.3978C7.38274 16.1781 7.38274 15.822 7.60241 15.6024L11.6022 11.6026L11.6446 11.5638C11.8656 11.3835 12.1916 11.3966 12.3976 11.6026L16.3973 15.6024C16.617 15.822 16.617 16.1781 16.3973 16.3978C16.1777 16.6173 15.8216 16.6174 15.6019 16.3978L12.5624 13.3582V21.0003C12.5622 21.3108 12.3104 21.5628 11.9999 21.5628C11.6893 21.5628 11.4375 21.3109 11.4374 21.0003ZM8.67907 2.44587C9.97243 2.39822 11.2599 2.64437 12.4445 3.16584C13.629 3.68734 14.6801 4.47073 15.5184 5.45686C16.2619 6.33143 16.8205 7.34549 17.1634 8.43781H17.9999L18.2313 8.44221C19.3851 8.49093 20.4977 8.89828 21.4122 9.60969C22.3875 10.3685 23.082 11.4305 23.3868 12.628C23.6917 13.8256 23.5893 15.0907 23.0953 16.2235C22.6014 17.3562 21.7442 18.2921 20.6593 18.8836C20.3866 19.0323 20.0449 18.9321 19.8961 18.6595C19.7475 18.3868 19.8477 18.0451 20.1202 17.8963C20.9858 17.4244 21.67 16.6775 22.0641 15.7738C22.4581 14.8701 22.5401 13.861 22.297 12.9056C22.0538 11.9502 21.499 11.1027 20.7208 10.4974C19.9913 9.92995 19.1041 9.60532 18.1837 9.56648L17.9991 9.56281H16.7401C16.4837 9.56281 16.2594 9.38917 16.1952 9.14094C15.9138 8.05262 15.3895 7.04211 14.6615 6.18562C13.9334 5.32906 13.02 4.64861 11.9911 4.19563C10.9622 3.7427 9.84419 3.52877 8.72082 3.57014C7.59735 3.61153 6.49756 3.90692 5.50476 4.4344C4.51201 4.96186 3.652 5.70777 2.98889 6.61555C2.32579 7.52332 1.87695 8.56948 1.67639 9.67561C1.47584 10.7818 1.52868 11.9194 1.83093 13.0023C2.13317 14.085 2.67668 15.0852 3.42102 15.9276C3.62667 16.1603 3.60525 16.5158 3.37268 16.7215C3.13989 16.9272 2.78371 16.9052 2.578 16.6724C1.72106 15.7027 1.09489 14.5512 0.746943 13.3048C0.398976 12.0581 0.33882 10.7484 0.569697 9.47492C0.80058 8.20158 1.31665 6.99699 2.07995 5.95197C2.84339 4.90684 3.83444 4.04849 4.97741 3.44123C6.1203 2.83405 7.38578 2.49355 8.67907 2.44587Z"/>
</svg>