<svg xmlns="http://www.w3.org/2000/svg" width="24" height="24" fill="currentcolor" class="icon-upload-cloud" viewBox="0 0 24 24">
  <path d="M11.4376 21.0003V13.3582L8.39801 16.3978C8.17839 16.6174 7.82228 16.6173 7.60259 16.3978C7.38292 16.1781 7.38292 15.822 7.60259 15.6024L11.6024 11.6026L11.6448 11.5638C11.8658 11.3835 12.1918 11.3966 12.3978 11.6026L16.3975 15.6024C16.6172 15.822 16.6172 16.1781 16.3975 16.3978C16.1778 16.6173 15.8217 16.6174 15.6021 16.3978L12.5626 13.3582V21.0003C12.5624 21.3108 12.3106 21.5628 12.0001 21.5628C11.6895 21.5628 11.4377 21.3109 11.4376 21.0003ZM8.67926 2.44587C9.97262 2.39822 11.2601 2.64437 12.4446 3.16584C13.6292 3.68734 14.6803 4.47073 15.5186 5.45686C16.262 6.33143 16.8207 7.34549 17.1636 8.43781H18.0001L18.2315 8.44221C19.3853 8.49093 20.4979 8.89828 21.4124 9.60969C22.3877 10.3685 23.0822 11.4305 23.387 12.628C23.6918 13.8256 23.5895 15.0907 23.0955 16.2235C22.6016 17.3562 21.7444 18.2921 20.6595 18.8836C20.3868 19.0323 20.0451 18.9321 19.8963 18.6595C19.7477 18.3868 19.8479 18.0451 20.1204 17.8963C20.986 17.4244 21.6702 16.6775 22.0643 15.7738C22.4583 14.8701 22.5403 13.861 22.2972 12.9056C22.054 11.9502 21.4992 11.1027 20.721 10.4974C19.9914 9.92995 19.1043 9.60532 18.1839 9.56648L17.9993 9.56281H16.7403C16.4839 9.56281 16.2596 9.38917 16.1954 9.14094C15.914 8.05262 15.3897 7.04211 14.6617 6.18562C13.9335 5.32906 13.0202 4.64861 11.9913 4.19563C10.9624 3.7427 9.84437 3.52877 8.721 3.57014C7.59754 3.61153 6.49774 3.90692 5.50494 4.4344C4.51219 4.96186 3.65218 5.70777 2.98907 6.61555C2.32597 7.52332 1.87713 8.56948 1.67657 9.67561C1.47603 10.7818 1.52886 11.9194 1.83111 13.0023C2.13335 14.085 2.67686 15.0852 3.4212 15.9276C3.62685 16.1603 3.60544 16.5158 3.37286 16.7215C3.14007 16.9272 2.7839 16.9052 2.57818 16.6724C1.72125 15.7027 1.09507 14.5512 0.747126 13.3048C0.399159 12.0581 0.339003 10.7484 0.56988 9.47492C0.800763 8.20158 1.31683 6.99699 2.08013 5.95197C2.84358 4.90684 3.83462 4.04849 4.9776 3.44123C6.12048 2.83405 7.38597 2.49355 8.67926 2.44587Z"/>
</svg>