<svg xmlns="http://www.w3.org/2000/svg" width="24" height="24" fill="currentcolor" class="icon-upload" viewBox="0 0 24 24">
  <path d="M2.4375 18.9997V15C2.4375 14.6893 2.68934 14.4375 3 14.4375C3.31066 14.4375 3.5625 14.6893 3.5625 15V18.9997L3.56982 19.1418C3.60246 19.471 3.74771 19.7804 3.98364 20.0163C4.25323 20.2859 4.619 20.4375 5.00024 20.4375H18.9998C19.381 20.4375 19.7468 20.2859 20.0164 20.0163C20.2859 19.7467 20.4375 19.381 20.4375 18.9997V15C20.4375 14.6893 20.6893 14.4375 21 14.4375C21.3107 14.4375 21.5625 14.6893 21.5625 15V18.9997C21.5625 19.6793 21.2923 20.3312 20.8118 20.8117C20.3312 21.2923 19.6794 21.5625 18.9998 21.5625H5.00024C4.32063 21.5625 3.66879 21.2923 3.18823 20.8117C2.73773 20.3612 2.47188 19.7605 2.44043 19.1272L2.4375 18.9997ZM11.4375 15V4.35788L7.39746 8.39791C7.17777 8.61734 6.82164 8.6175 6.60205 8.39791C6.38246 8.17833 6.38263 7.82219 6.60205 7.6025L11.6023 2.60226L11.6448 2.56344C11.8657 2.38321 12.1918 2.39631 12.3977 2.60226L17.3979 7.6025C17.6174 7.82219 17.6175 8.17833 17.3979 8.39791C17.1784 8.6175 16.8222 8.61734 16.6025 8.39791L12.5625 4.35788V15C12.5625 15.3106 12.3107 15.5625 12 15.5625C11.6893 15.5625 11.4375 15.3106 11.4375 15Z"/>
</svg>