<svg xmlns="http://www.w3.org/2000/svg" width="24" height="24" fill="currentcolor" class="icon-upload-cloud" viewBox="0 0 24 24">
  <path d="M11.4379 21.0002V13.3581L8.39831 16.3977C8.17869 16.6173 7.82258 16.6172 7.6029 16.3977C7.38323 16.178 7.38323 15.8219 7.6029 15.6022L11.6027 11.6025L11.6451 11.5637C11.8661 11.3833 12.1921 11.3965 12.3981 11.6025L16.3978 15.6022C16.6175 15.8219 16.6175 16.178 16.3978 16.3977C16.1781 16.6172 15.822 16.6173 15.6024 16.3977L12.5629 13.3581V21.0002C12.5627 21.3107 12.3109 21.5627 12.0004 21.5627C11.6898 21.5627 11.438 21.3107 11.4379 21.0002ZM8.67956 2.44575C9.97292 2.3981 11.2604 2.64425 12.4449 3.16572C13.6295 3.68722 14.6806 4.47061 15.5189 5.45673C16.2623 6.33131 16.821 7.34537 17.1639 8.43769H18.0004L18.2318 8.44209C19.3856 8.49081 20.4982 8.89816 21.4127 9.60957C22.388 10.3683 23.0825 11.4304 23.3873 12.6279C23.6922 13.8255 23.5898 15.0905 23.0958 16.2233C22.6019 17.356 21.7447 18.2919 20.6598 18.8835C20.3871 19.0322 20.0454 18.932 19.8966 18.6594C19.748 18.3867 19.8482 18.045 20.1207 17.8962C20.9863 17.4243 21.6705 16.6773 22.0646 15.7736C22.4586 14.87 22.5406 13.8608 22.2975 12.9055C22.0543 11.95 21.4995 11.1026 20.7213 10.4973C19.9918 9.92983 19.1046 9.6052 18.1842 9.56635L17.9996 9.56269H16.7406C16.4842 9.56269 16.2599 9.38905 16.1957 9.14082C15.9143 8.0525 15.39 7.04199 14.662 6.18549C13.9338 5.32893 13.0205 4.64849 11.9916 4.1955C10.9627 3.74258 9.84468 3.52865 8.72131 3.57002C7.59784 3.61141 6.49805 3.9068 5.50524 4.43427C4.51249 4.96174 3.65249 5.70765 2.98937 6.61543C2.32628 7.52319 1.87744 8.56936 1.67687 9.67548C1.47633 10.7817 1.52917 11.9193 1.83142 13.0021C2.13366 14.0848 2.67717 15.0851 3.4215 15.9274C3.62715 16.1602 3.60574 16.5156 3.37316 16.7214C3.14038 16.9271 2.7842 16.9051 2.57849 16.6723C1.72155 15.7025 1.09538 14.5511 0.747432 13.3046C0.399464 12.058 0.339308 10.7483 0.570185 9.4748C0.801068 8.20146 1.31713 6.99687 2.08044 5.95185C2.84388 4.90671 3.83492 4.04837 4.9779 3.44111C6.12079 2.83393 7.38627 2.49342 8.67956 2.44575Z"/>
</svg>