<svg xmlns="http://www.w3.org/2000/svg" width="24" height="24" fill="currentcolor" class="icon-upload" viewBox="0 0 24 24">
  <path d="M2.4375 18.9998V15.0001C2.4375 14.6894 2.68934 14.4376 3 14.4376C3.31066 14.4376 3.5625 14.6894 3.5625 15.0001V18.9998L3.56982 19.1419C3.60246 19.4711 3.74771 19.7805 3.98364 20.0164C4.25323 20.286 4.619 20.4376 5.00024 20.4376H18.9998C19.381 20.4376 19.7468 20.286 20.0164 20.0164C20.2859 19.7469 20.4375 19.3811 20.4375 18.9998V15.0001C20.4375 14.6894 20.6893 14.4376 21 14.4376C21.3107 14.4376 21.5625 14.6894 21.5625 15.0001V18.9998C21.5625 19.6795 21.2923 20.3313 20.8118 20.8119C20.3312 21.2924 19.6794 21.5626 18.9998 21.5626H5.00024C4.32063 21.5626 3.66879 21.2924 3.18823 20.8119C2.73773 20.3614 2.47188 19.7606 2.44043 19.1273L2.4375 18.9998ZM11.4375 15.0001V4.358L7.39746 8.39804C7.17777 8.61746 6.82164 8.61763 6.60205 8.39804C6.38246 8.17845 6.38263 7.82232 6.60205 7.60263L11.6023 2.60238L11.6448 2.56356C11.8657 2.38333 12.1918 2.39643 12.3977 2.60238L17.3979 7.60263C17.6174 7.82232 17.6175 8.17845 17.3979 8.39804C17.1784 8.61763 16.8222 8.61746 16.6025 8.39804L12.5625 4.358V15.0001C12.5625 15.3107 12.3107 15.5626 12 15.5626C11.6893 15.5626 11.4375 15.3107 11.4375 15.0001Z"/>
</svg>