<svg xmlns="http://www.w3.org/2000/svg" width="24" height="24" fill="currentcolor" class="icon-user-check" viewBox="0 0 24 24">
  <path d="M15.4375 21V18.9998C15.4374 18.0882 15.075 17.2142 14.4304 16.5696C13.7858 15.925 12.9118 15.5626 12.0002 15.5625H4.99976C4.08816 15.5626 3.21418 15.925 2.56958 16.5696C1.92498 17.2142 1.56256 18.0882 1.5625 18.9998V21L1.55957 21.0579C1.5306 21.3413 1.29113 21.5625 1 21.5625C0.708875 21.5625 0.469396 21.3413 0.44043 21.0579L0.4375 21V18.9998C0.437565 17.7898 0.918593 16.6297 1.77417 15.7742C2.62975 14.9186 3.78979 14.4376 4.99976 14.4375H12.0002C13.2102 14.4376 14.3703 14.9186 15.2258 15.7742C16.0814 16.6297 16.5624 17.7898 16.5625 18.9998V21C16.5625 21.3107 16.3107 21.5625 16 21.5625C15.6893 21.5625 15.4375 21.3107 15.4375 21ZM22.6021 8.60229C22.8217 8.38267 23.1778 8.38275 23.3975 8.60229C23.6171 8.82196 23.6171 9.17804 23.3975 9.39771L19.3977 13.3975C19.2922 13.5029 19.1492 13.5623 19 13.5623C18.8508 13.5623 18.7078 13.503 18.6023 13.3975L16.6021 11.3979C16.3825 11.1784 16.3826 10.8222 16.6021 10.6025C16.8217 10.3829 17.1778 10.3829 17.3975 10.6025L18.9993 12.2043L22.6021 8.60229ZM11.9373 6.99976C11.9371 5.10139 10.3984 3.5625 8.5 3.5625C6.6016 3.5625 5.06288 5.10139 5.06274 6.99976C5.06274 8.89823 6.60152 10.4377 8.5 10.4377C10.3985 10.4377 11.9373 8.89823 11.9373 6.99976ZM13.0623 6.99976C13.0623 9.51955 11.0198 11.5627 8.5 11.5627C5.9802 11.5627 3.93774 9.51955 3.93774 6.99976C3.93788 4.48007 5.98028 2.4375 8.5 2.4375C11.0197 2.4375 13.0621 4.48007 13.0623 6.99976Z"/>
</svg>