<svg xmlns="http://www.w3.org/2000/svg" width="24" height="24" fill="currentcolor" class="icon-users" viewBox="0 0 24 24">
  <path d="M16.4373 21V18.9998C16.4372 18.0883 16.0754 17.2142 15.4309 16.5696C14.7863 15.9249 13.9117 15.5625 13 15.5625H4.99976C4.08816 15.5626 3.21418 15.925 2.56958 16.5696C1.92498 17.2142 1.56256 18.0882 1.5625 18.9998V21L1.55957 21.0579C1.5306 21.3413 1.29112 21.5625 1 21.5625C0.708875 21.5625 0.469396 21.3413 0.44043 21.0579L0.4375 21V18.9998C0.437565 17.7898 0.918593 16.6297 1.77417 15.7742C2.62975 14.9186 3.78979 14.4376 4.99976 14.4375H13C14.2101 14.4375 15.3707 14.9185 16.2263 15.7742C17.0817 16.6297 17.5622 17.7899 17.5623 18.9998V21C17.5623 21.3107 17.3104 21.5625 16.9998 21.5625C16.6892 21.5624 16.4373 21.3106 16.4373 21ZM22.4373 21V19.0005L22.4343 18.8577C22.4043 18.1467 22.154 17.4612 21.7166 16.897C21.2499 16.2951 20.5965 15.865 19.8591 15.6746C19.5585 15.5968 19.3779 15.2897 19.4556 14.989C19.5334 14.6885 19.8398 14.508 20.1404 14.5854C21.1192 14.8382 21.9864 15.4088 22.6057 16.2078C23.2251 17.0067 23.5615 17.9889 23.5623 18.9998V21C23.5623 21.3107 23.3104 21.5625 22.9998 21.5625C22.6892 21.5624 22.4373 21.3106 22.4373 21ZM12.4375 6.99976C12.4374 5.10147 10.8985 3.56263 9.00024 3.5625C7.10185 3.5625 5.56239 5.10139 5.56226 6.99976C5.56226 8.89823 7.10177 10.4377 9.00024 10.4377C10.8986 10.4376 12.4375 8.89815 12.4375 6.99976ZM18.4456 7.00488C18.4455 6.24165 18.1914 5.49989 17.7234 4.89697C17.2554 4.29415 16.6001 3.8639 15.8608 3.67456C15.5599 3.5975 15.378 3.29143 15.4551 2.99048C15.5321 2.68967 15.8383 2.50794 16.1392 2.58472C17.1206 2.836 17.9906 3.40749 18.6118 4.20776C19.2329 5.00798 19.5705 5.99192 19.5706 7.00488C19.5706 8.01795 19.233 9.00246 18.6118 9.80273C17.9906 10.6029 17.1205 11.1738 16.1392 11.425C15.8383 11.5019 15.5321 11.3201 15.4551 11.0193C15.3782 10.7184 15.56 10.4122 15.8608 10.3352C16.6001 10.1458 17.2554 9.71565 17.7234 9.11279C18.1914 8.50985 18.4456 7.76814 18.4456 7.00488ZM13.5625 6.99976C13.5625 9.51947 11.5199 11.5626 9.00024 11.5627C6.48044 11.5627 4.43726 9.51955 4.43726 6.99976C4.43739 4.48007 6.48053 2.4375 9.00024 2.4375C11.5198 2.43763 13.5624 4.48015 13.5625 6.99976Z"/>
</svg>