<svg xmlns="http://www.w3.org/2000/svg" width="24" height="24" fill="currentcolor" class="icon-user" viewBox="0 0 24 24">
  <path d="M19.4373 18.9998C19.4372 18.0883 19.0754 17.2142 18.4309 16.5696C17.8266 15.9653 17.0202 15.6091 16.1707 15.5669L16 15.5625H7.99976C7.08816 15.5626 6.21418 15.925 5.56958 16.5696C4.92498 17.2142 4.56256 18.0882 4.5625 18.9998V20.4375H19.4373V18.9998ZM15.4375 6.99976C15.4374 5.10147 13.8985 3.56263 12.0002 3.5625C10.1018 3.5625 8.56239 5.10139 8.56226 6.99976C8.56226 8.89824 10.1018 10.4377 12.0002 10.4377C13.8986 10.4376 15.4375 8.89815 15.4375 6.99976ZM20.5623 21C20.5623 21.3107 20.3104 21.5625 19.9998 21.5625H4C3.68934 21.5625 3.4375 21.3107 3.4375 21V18.9998C3.43756 17.7898 3.91859 16.6297 4.77417 15.7742C5.62975 14.9186 6.78979 14.4376 7.99976 14.4375H16C17.2101 14.4375 18.3707 14.9185 19.2263 15.7742C20.0817 16.6297 20.5622 17.7899 20.5623 18.9998V21ZM16.5625 6.99976C16.5625 9.51947 14.5199 11.5626 12.0002 11.5627C9.48044 11.5627 7.43726 9.51956 7.43726 6.99976C7.43739 4.48007 9.48053 2.4375 12.0002 2.4375C14.5198 2.43763 16.5624 4.48015 16.5625 6.99976Z"/>
</svg>