<svg xmlns="http://www.w3.org/2000/svg" width="24" height="24" fill="currentcolor" class="icon-vault" viewBox="0 0 24 24">
  <path d="M9.25 11.4938C9.25 10.0582 10.3984 8.86877 11.875 8.86877C13.3105 8.86877 14.5 10.0582 14.5 11.4938C14.5 12.9703 13.3105 14.1188 11.875 14.1188C10.3984 14.1188 9.25 12.9703 9.25 11.4938ZM11.875 12.8063C12.5723 12.8063 13.1875 12.2321 13.1875 11.4938C13.1875 10.7965 12.5723 10.1813 11.875 10.1813C11.1367 10.1813 10.5625 10.7965 10.5625 11.4938C10.5625 12.2321 11.1367 12.8063 11.875 12.8063ZM18.4375 11.4938C18.4375 15.1442 15.4844 18.0563 11.875 18.0563C8.22461 18.0563 5.3125 15.1442 5.3125 11.4938C5.3125 7.8844 8.22461 4.93127 11.875 4.93127C15.4844 4.93127 18.4375 7.8844 18.4375 11.4938ZM11.875 6.24377C8.96289 6.24377 6.625 8.62268 6.625 11.4938C6.625 14.4059 8.96289 16.7438 11.875 16.7438C14.7461 16.7438 17.125 14.4059 17.125 11.4938C17.125 8.62268 14.7461 6.24377 11.875 6.24377ZM0.6875 4.27502C0.6875 2.83948 1.83594 1.65002 3.3125 1.65002H20.6875C22.123 1.65002 23.3125 2.83948 23.3125 4.27502V18.7125C23.3125 20.1891 22.123 21.3375 20.6875 21.3375V21.9938C20.6875 22.3629 20.3594 22.65 20.0312 22.65C19.6621 22.65 19.375 22.3629 19.375 21.9938V21.3375H4.625V21.9938C4.625 22.3629 4.29688 22.65 3.96875 22.65C3.59961 22.65 3.3125 22.3629 3.3125 21.9938V21.3375C1.83594 21.3375 0.6875 20.1891 0.6875 18.7125V4.27502ZM2 4.27502V18.7125C2 19.4508 2.57422 20.025 3.3125 20.025H20.6875C21.3848 20.025 22 19.4508 22 18.7125V4.27502C22 3.57776 21.3848 2.96252 20.6875 2.96252H3.3125C2.57422 2.96252 2 3.57776 2 4.27502Z"/>
</svg>