<svg xmlns="http://www.w3.org/2000/svg" width="24" height="24" fill="currentcolor" class="icon-vault" viewBox="0 0 24 24">
  <path d="M2.558 1C1.14668 1 0 2.12677 0 3.51358V19.4324C0 20.6519 0.888895 21.6667 2.06425 21.8938C2.20855 23.0112 3.16586 23.8778 4.33051 23.8778C5.47806 23.8778 6.42449 23.0379 6.59175 21.946H17.3927C17.5047 23.0963 18.4798 24 19.6695 24C20.8778 24 21.8653 23.0674 21.9513 21.8908C23.1194 21.6579 24 20.646 24 19.4324V3.51358C24 2.12677 22.8533 1 21.442 1H2.558ZM2.558 1.88564H21.442C22.3574 1.88564 23.0987 2.61409 23.0987 3.51358V19.4324C23.0987 20.3319 22.3574 21.0604 21.442 21.0604H2.558C1.6426 21.0604 0.901291 20.3319 0.901291 19.4324V3.51358C0.901291 2.61407 1.64262 1.88564 2.558 1.88564ZM2.9886 21.946H5.67242C5.52035 22.5471 4.97887 22.9922 4.33051 22.9922C3.68329 22.9922 3.14148 22.5471 2.9886 21.946ZM18.3045 21.946H21.034C20.9284 22.6086 20.3605 23.1144 19.6695 23.1144C18.9785 23.1144 18.4108 22.6087 18.3045 21.946Z"/>
  <path d="M12.1093 6.26852C9.33627 6.26852 7.084 8.50971 7.084 11.2637C7.084 14.0176 9.33635 16.2588 12.1093 16.2588C14.8823 16.2588 17.1345 14.0177 17.1345 11.2637C17.1335 8.50981 14.8822 6.26852 12.1093 6.26852ZM12.1093 7.15317C14.3837 7.15317 16.2333 8.99347 16.2333 11.2627C16.2323 13.5319 14.3826 15.3722 12.1093 15.3722C9.83486 15.3722 7.98529 13.532 7.98529 11.2627C7.98529 8.99339 9.83491 7.15317 12.1093 7.15317Z"/>
  <path d="M3.8172 3.32099C3.11412 3.32099 2.54847 3.90208 2.54847 4.60708V5.54493L2.47779 5.54544C1.93038 5.54544 1.48577 5.9823 1.48577 6.52023V9.86083C1.48577 10.3987 1.93035 10.8356 2.47779 10.8356H2.54847V12.272H2.43869C1.8902 12.272 1.44567 12.7098 1.44567 13.2477V16.4248C1.44567 16.9638 1.89126 17.4006 2.43869 17.4006H2.54847V18.3399C2.54847 19.0432 3.11455 19.6221 3.8172 19.6221H20.1838C20.8864 19.6221 21.4525 19.0432 21.4525 18.3399V4.60659C21.4514 3.90199 20.8869 3.32099 20.1838 3.32099H3.8172ZM3.8172 4.20761H20.1838C20.3796 4.20761 20.5512 4.37875 20.5512 4.60807L20.5502 18.3389C20.5502 18.5661 20.3808 18.7354 20.1828 18.7354H3.81619C3.6186 18.7354 3.44876 18.5648 3.44876 18.3389V17.3996H3.52345C4.07165 17.3996 4.51748 16.9627 4.51748 16.4238L4.51848 13.2477C4.51848 12.7088 4.07265 12.2719 3.52445 12.2719H3.44976V10.8356H3.56054C4.10796 10.8356 4.55256 10.3988 4.55256 9.86082V6.52022C4.55256 5.98231 4.10798 5.54543 3.56054 5.54543H3.44976V4.60807C3.44976 4.37835 3.62 4.20761 3.8172 4.20761ZM2.47779 6.43107H2.99511C2.96297 6.43107 2.98248 6.43205 2.99912 6.43205C3.01581 6.43205 3.01878 6.43107 3.00313 6.43107H3.56055C3.61165 6.43107 3.65128 6.46916 3.65128 6.52022V9.86082C3.65128 9.91105 3.61251 9.94998 3.56055 9.94998H3.00614C3.02183 9.94998 3.01066 9.94899 2.99912 9.94899C2.97606 9.94899 2.97203 9.94998 2.9921 9.94998H2.4778C2.42751 9.94998 2.38706 9.91024 2.38706 9.86082V6.52022C2.38706 6.47 2.42583 6.43107 2.47779 6.43107ZM2.43969 13.1576H2.99711C2.98104 13.1576 2.98388 13.1586 3.00012 13.1586C3.01644 13.1586 3.01911 13.1576 3.00313 13.1576H3.52646C3.57841 13.1576 3.61919 13.1975 3.61919 13.2477V16.4248C3.61919 16.4758 3.58009 16.5149 3.52646 16.5149H2.4407C2.38707 16.5149 2.34796 16.4759 2.34796 16.4248V13.2477C2.34796 13.1967 2.38773 13.1576 2.43969 13.1576Z"/>
  <path d="M12.1093 9.69679C11.2067 9.69679 10.4656 10.3963 10.4656 11.2637C10.4656 12.131 11.2068 12.8305 12.1093 12.8305C13.0116 12.8305 13.753 12.1319 13.753 11.2637C13.753 10.3954 13.0116 9.69679 12.1093 9.69679ZM12.1093 10.5814C12.5259 10.5814 12.8517 10.8911 12.8517 11.2627C12.8517 11.6343 12.5259 11.9439 12.1093 11.9439C11.6927 11.9439 11.3669 11.6343 11.3669 11.2627C11.3669 10.8911 11.6927 10.5814 12.1093 10.5814Z"/>
</svg>