<svg xmlns="http://www.w3.org/2000/svg" width="24" height="24" fill="currentcolor" class="icon-video-off" viewBox="0 0 24 24">
  <g clip-path="url(#a)">
    <path d="M0.602295 0.602252C0.821965 0.382583 1.17804 0.382583 1.39771 0.602252L23.3975 22.602C23.6171 22.8217 23.6171 23.1777 23.3975 23.3974C23.1778 23.6171 22.8217 23.6171 22.6021 23.3974L16.5398 17.3352C16.4664 17.891 16.2126 18.4109 15.8118 18.8117C15.3312 19.2923 14.6794 19.5625 13.9998 19.5625H3.00024C2.32063 19.5625 1.66879 19.2923 1.18823 18.8117C0.707671 18.3312 0.4375 17.6793 0.4375 16.9997V6.99996C0.4375 6.32034 0.70767 5.66851 1.18823 5.18795C1.66878 4.70746 2.32068 4.43721 3.00024 4.43721H3.64185L0.602295 1.39766C0.382625 1.17799 0.382625 0.821922 0.602295 0.602252ZM22.4373 16.9997V8.10079L17.3293 11.7959C17.1056 11.9575 16.7973 11.9332 16.6021 11.738L15.6023 10.7375C15.4969 10.632 15.4375 10.4889 15.4375 10.3398V6.99996C15.4375 6.61871 15.2859 6.25294 15.0164 5.98336C14.7468 5.71385 14.3809 5.56221 13.9998 5.56221H10.6599C10.3493 5.56217 10.0974 5.31034 10.0974 4.99971C10.0975 4.68919 10.3494 4.43726 10.6599 4.43721H13.9998C14.6793 4.43721 15.3312 4.70746 15.8118 5.18795C16.2923 5.66851 16.5625 6.32034 16.5625 6.99996V10.1069L17.0583 10.6027L22.6702 6.54439C22.8414 6.42055 23.0679 6.40285 23.2561 6.49898C23.4442 6.59514 23.5623 6.7887 23.5623 6.99996V16.9997C23.5623 17.3104 23.3104 17.5622 22.9998 17.5622C22.6892 17.5621 22.4373 17.3103 22.4373 16.9997ZM1.5625 16.9997C1.5625 17.381 1.71406 17.7467 1.98364 18.0163C2.25323 18.2859 2.619 18.4375 3.00024 18.4375H13.9998C14.381 18.4375 14.7468 18.2859 15.0164 18.0163C15.2859 17.7467 15.4375 17.381 15.4375 16.9997V16.2329L4.76685 5.56221H3.00024C2.61905 5.56221 2.25321 5.71385 1.98364 5.98336C1.71406 6.25294 1.5625 6.61871 1.5625 6.99996V16.9997Z"/>
  </g>
  <defs>
    <clipPath id="a">
      <path d="M0 0H24V24H0z"/>
    </clipPath>
  </defs>
</svg>