<svg xmlns="http://www.w3.org/2000/svg" width="24" height="24" fill="currentcolor" class="icon-video" viewBox="0 0 24 24">
  <path d="M15.4375 7.00024C15.4375 6.20633 14.7937 5.5625 13.9998 5.5625H3.00024C2.20633 5.5625 1.5625 6.20633 1.5625 7.00024V17C1.5625 17.7939 2.20633 18.4377 3.00024 18.4377H13.9998C14.7937 18.4377 15.4375 17.7939 15.4375 17V7.00024ZM16.9675 11.9998L22.4373 15.9065V8.09302L16.9675 11.9998ZM16.5625 10.9062L22.6731 6.54248C22.8446 6.42001 23.0702 6.40359 23.2576 6.5C23.4448 6.59645 23.5623 6.78962 23.5623 7.00024V17C23.5623 17.2107 23.4449 17.4038 23.2576 17.5002C23.0702 17.5967 22.8445 17.5802 22.6731 17.4578L16.5625 13.0925V17C16.5625 18.4152 15.415 19.5627 13.9998 19.5627H3.00024C1.58501 19.5627 0.4375 18.4152 0.4375 17V7.00024C0.4375 5.58501 1.58501 4.4375 3.00024 4.4375H13.9998C15.415 4.4375 16.5625 5.58501 16.5625 7.00024V10.9062Z"/>
</svg>