<svg xmlns="http://www.w3.org/2000/svg" width="24" height="24" fill="currentcolor" class="icon-voicemail" viewBox="0 0 24 24">
  <path d="M9.4375 11.5C9.4375 9.32538 7.67462 7.5625 5.5 7.5625C3.32538 7.5625 1.5625 9.32538 1.5625 11.5C1.5625 13.6746 3.32538 15.4375 5.5 15.4375C7.67462 15.4375 9.4375 13.6746 9.4375 11.5ZM22.4373 11.5C22.4373 9.32538 20.6744 7.5625 18.4998 7.5625C16.3252 7.56263 14.5623 9.32546 14.5623 11.5C14.5623 13.6745 16.3252 15.4374 18.4998 15.4375C20.6744 15.4375 22.4373 13.6746 22.4373 11.5ZM23.5623 11.5C23.5623 14.2959 21.2957 16.5625 18.4998 16.5625H5.5C2.70406 16.5625 0.4375 14.2959 0.4375 11.5C0.4375 8.70406 2.70406 6.4375 5.5 6.4375C8.29594 6.4375 10.5625 8.70406 10.5625 11.5C10.5625 13.0905 9.82879 14.5094 8.68164 15.4375H15.3188C14.1715 14.5094 13.4373 13.0906 13.4373 11.5C13.4373 8.70414 15.7039 6.43763 18.4998 6.4375C21.2957 6.4375 23.5623 8.70406 23.5623 11.5Z"/>
</svg>