<svg xmlns="http://www.w3.org/2000/svg" width="24" height="24" fill="currentcolor" class="icon-volume-x" viewBox="0 0 24 24">
  <path d="M10.6484 4.56053C10.8173 4.42545 11.049 4.39948 11.2439 4.49315C11.4386 4.58686 11.5625 4.78385 11.5625 4.99998V19.0002C11.5624 19.2163 11.4386 19.4134 11.2439 19.5071C11.049 19.6007 10.8173 19.574 10.6484 19.4389L5.80273 15.5622H2C1.68934 15.5622 1.4375 15.3104 1.4375 14.9997V8.99974C1.43763 8.68919 1.68942 8.43724 2 8.43724H5.80347L10.6484 4.56053ZM6.35132 9.43919C6.25158 9.51897 6.12747 9.56224 5.99976 9.56224H2.5625V14.4372H5.99976C6.12748 14.4372 6.25158 14.4812 6.35132 14.561L10.4375 17.8291V6.17039L6.35132 9.43919ZM22.6023 8.60204C22.8219 8.38253 23.1781 8.38253 23.3977 8.60204C23.6173 8.82166 23.6173 9.17777 23.3977 9.39745L20.7954 11.9997L23.3977 14.602C23.6173 14.8217 23.6173 15.1778 23.3977 15.3974C23.178 15.6171 22.822 15.6171 22.6023 15.3974L20 12.7952L17.3977 15.3974C17.178 15.6171 16.822 15.6171 16.6023 15.3974C16.3827 15.1778 16.3827 14.8217 16.6023 14.602L19.2046 11.9997L16.6023 9.39745C16.3827 9.17777 16.3827 8.82166 16.6023 8.60204C16.8219 8.38253 17.1781 8.38253 17.3977 8.60204L20 11.2043L22.6023 8.60204Z"/>
</svg>