<svg xmlns="http://www.w3.org/2000/svg" width="24" height="24" fill="currentcolor" class="icon-volume-1" viewBox="0 0 24 24">
  <path d="M10.6484 4.56053C10.8173 4.42545 11.049 4.39948 11.2439 4.49315C11.4386 4.58686 11.5625 4.78385 11.5625 4.99998V19.0002C11.5624 19.2163 11.4386 19.4134 11.2439 19.5071C11.049 19.6007 10.8173 19.574 10.6484 19.4389L5.80273 15.5622H2C1.68934 15.5622 1.4375 15.3104 1.4375 14.9997V8.99974C1.43763 8.68919 1.68942 8.43724 2 8.43724H5.80347L10.6484 4.56053ZM6.35132 9.43919C6.25158 9.51897 6.12747 9.56224 5.99976 9.56224H2.5625V14.4372H5.99976C6.12748 14.4372 6.25158 14.4812 6.35132 14.561L10.4375 17.8291V6.17039L6.35132 9.43919ZM16.4412 11.9953C16.4412 10.8187 15.9737 9.6898 15.1418 8.85765C14.9224 8.63793 14.9229 8.28182 15.1426 8.06224C15.3623 7.8427 15.7184 7.84257 15.938 8.06224C16.9808 9.10536 17.5662 10.5204 17.5662 11.9953C17.5661 13.4702 16.9807 14.8847 15.938 15.9277C15.7184 16.1474 15.3623 16.1473 15.1426 15.9277C14.9229 15.7081 14.9224 15.352 15.1418 15.1323C15.9737 14.3002 16.4411 13.1719 16.4412 11.9953Z"/>
</svg>