<svg xmlns="http://www.w3.org/2000/svg" width="24" height="24" fill="currentcolor" class="icon-volume-2" viewBox="0 0 24 24">
  <path d="M21.4355 12.0001C21.4355 9.49764 20.4414 7.09756 18.6721 5.32776C18.4526 5.10811 18.4526 4.75199 18.6721 4.53235C18.8918 4.31277 19.2479 4.3128 19.4675 4.53235C21.4477 6.51312 22.5605 9.19933 22.5605 12.0001C22.5605 14.8009 21.4477 17.4872 19.4675 19.4679C19.2479 19.6874 18.8918 19.6875 18.6721 19.4679C18.4525 19.2483 18.4526 18.8922 18.6721 18.6725C20.4414 16.9027 21.4355 14.5026 21.4355 12.0001ZM10.6484 4.56092C10.8173 4.42584 11.049 4.39914 11.2439 4.4928C11.4387 4.58649 11.5625 4.78417 11.5625 5.00037V18.9999C11.5625 19.216 11.4386 19.413 11.2439 19.5067C11.049 19.6004 10.8173 19.5744 10.6484 19.4393L5.80273 15.5626H2C1.68936 15.5626 1.43754 15.3108 1.4375 15.0001V9.00013C1.4375 8.68947 1.68934 8.43763 2 8.43763H5.80273L10.6484 4.56092ZM6.35132 9.43958C6.25161 9.51928 6.12741 9.56263 5.99976 9.56263H2.5625V14.4376H5.99976L6.09497 14.4457C6.18826 14.4617 6.2766 14.5009 6.35132 14.5607L10.4375 17.8295V6.17005L6.35132 9.43958ZM16.4412 11.995C16.4411 10.8184 15.9737 9.69018 15.1418 8.85804C14.9222 8.63833 14.9229 8.28152 15.1426 8.0619C15.3623 7.84257 15.7185 7.84303 15.938 8.06263C16.9806 9.10572 17.5661 10.5201 17.5662 11.995C17.5662 13.47 16.9808 14.885 15.938 15.9281C15.7184 16.1476 15.3623 16.1475 15.1426 15.9281C14.923 15.7086 14.9225 15.3524 15.1418 15.1327C15.9737 14.3005 16.4412 13.1717 16.4412 11.995Z"/>
</svg>