<svg xmlns="http://www.w3.org/2000/svg" width="24" height="24" fill="currentcolor" class="icon-wallet" viewBox="0 0 24 24">
  <path d="M19.4375 6.28589C19.4375 5.26128 18.7255 4.5625 17.9998 4.5625H4.00024C3.27454 4.5625 2.5625 5.26129 2.5625 6.28589V17.7146C2.56264 18.7391 3.2746 19.4373 4.00024 19.4373H17.9998C18.7254 19.4373 19.4374 18.7391 19.4375 17.7146V14.8479H16.0002C14.5169 14.8479 13.4376 13.5003 13.4375 12.0002C13.4375 10.5001 14.5168 9.15186 16.0002 9.15186H19.4375V6.28589ZM20.5625 13.7229H21.4377V10.2769H20.5625V13.7229ZM14.5625 12.0002C14.5626 13.0247 15.2746 13.7229 16.0002 13.7229H19.4375V10.2769H16.0002C15.2745 10.2769 14.5625 10.9756 14.5625 12.0002ZM20.5625 9.15186H22.0002C22.3108 9.15199 22.5627 9.40378 22.5627 9.71436V14.2854C22.5627 14.596 22.3108 14.8478 22.0002 14.8479H20.5625V17.7146C20.5624 19.2146 19.4831 20.5623 17.9998 20.5623H4.00024C2.51692 20.5623 1.43764 19.2146 1.4375 17.7146V6.28589C1.4375 4.78577 2.51681 3.4375 4.00024 3.4375H17.9998C19.4832 3.4375 20.5625 4.78578 20.5625 6.28589V9.15186Z"/>
</svg>