<svg xmlns="http://www.w3.org/2000/svg" width="24" height="24" fill="currentcolor" class="icon-watch" viewBox="0 0 24 24">
  <path d="M18.4377 12.0002C18.4377 8.44491 15.5551 5.56226 11.9998 5.56226C10.4235 5.56231 8.97994 6.12969 7.86084 7.07031C7.85447 7.07593 7.84842 7.08183 7.8418 7.08716C6.44804 8.268 5.5625 10.0304 5.5625 12.0002C5.56262 15.5554 8.44461 18.4374 11.9998 18.4375C13.5762 18.4375 15.0195 17.8695 16.1387 16.9287C16.1454 16.9228 16.1521 16.9168 16.1592 16.9111C17.5521 15.7303 18.4377 13.9693 18.4377 12.0002ZM8.39038 21.1292L8.40869 21.2625C8.46573 21.5696 8.62185 21.8511 8.85474 22.063C9.1208 22.3051 9.46769 22.4386 9.82739 22.4373H14.1626C14.5223 22.4386 14.8692 22.3051 15.1353 22.063C15.4014 21.8208 15.5672 21.4876 15.5996 21.1292L15.8384 18.5151C14.713 19.1796 13.4013 19.5625 11.9998 19.5625C10.5938 19.5625 9.2786 19.1769 8.15088 18.5085L8.39038 21.1292ZM11.4373 9.00024C11.4373 8.68967 11.6892 8.43788 11.9998 8.43774C12.3104 8.43774 12.5623 8.68958 12.5623 9.00024V11.7673L13.8975 13.1025C14.1171 13.3222 14.1171 13.6783 13.8975 13.8979C13.6778 14.1174 13.3216 14.1175 13.1021 13.8979L11.6021 12.3979C11.4966 12.2925 11.4373 12.1493 11.4373 12.0002V9.00024ZM9.69702 1.56909C9.38708 1.5983 9.09362 1.72732 8.86206 1.93896C8.59743 2.18099 8.43218 2.51345 8.3999 2.87061V2.87134L8.1604 5.48462C9.28589 4.81993 10.598 4.4373 11.9998 4.43726C13.4099 4.43726 14.7296 4.8243 15.8596 5.49634L15.6201 2.87134V2.87061C15.5877 2.51223 15.4219 2.17896 15.1558 1.93677C14.8896 1.69459 14.5422 1.56106 14.1824 1.5625H9.83032L9.69702 1.56909ZM19.5627 12.0002C19.5627 14.2358 18.5913 16.2437 17.0491 17.6282L16.7202 21.231C16.6624 21.8697 16.3669 22.4633 15.8926 22.895C15.4186 23.3263 14.8005 23.5636 14.1597 23.5615V23.5623H9.83032V23.5615C9.18954 23.5636 8.57138 23.3263 8.09741 22.895C7.68221 22.5172 7.40436 22.0152 7.30273 21.4675L7.26978 21.231L6.93945 17.6187C5.40367 16.2345 4.43757 14.2305 4.4375 12.0002C4.4375 9.76444 5.40804 7.75536 6.95044 6.37085L7.28003 2.7688C7.3377 2.13235 7.63095 1.54043 8.10254 1.10913C8.57428 0.677695 9.19032 0.438102 9.82959 0.4375H14.1802V0.438232C14.8208 0.436246 15.4392 0.673538 15.9131 1.10474C16.3873 1.53634 16.6821 2.13021 16.74 2.7688L17.0703 6.38989C18.6006 7.77376 19.5627 9.77457 19.5627 12.0002Z"/>
</svg>