<svg xmlns="http://www.w3.org/2000/svg" width="24" height="24" fill="currentcolor" class="icon-wifi" viewBox="0 0 24 24">
  <path d="M12.0099 19.4373C12.3204 19.4373 12.5723 19.6893 12.5724 19.9998C12.5724 20.3104 12.3205 20.5622 12.0099 20.5623H11.9997C11.6891 20.5622 11.4372 20.3104 11.4372 19.9998C11.4373 19.6893 11.6892 19.4373 11.9997 19.4373H12.0099ZM12.0048 14.4385C13.3668 14.4385 14.695 14.8626 15.8053 15.6514C16.0585 15.8313 16.1184 16.1825 15.9386 16.4358C15.7587 16.689 15.4075 16.7483 15.1542 16.5684C14.2342 15.9147 13.1334 15.5635 12.0048 15.5635C10.8762 15.5635 9.7754 15.9147 8.85538 16.5684C8.60213 16.7482 8.25087 16.689 8.07096 16.4358C7.89118 16.1826 7.95106 15.8313 8.20426 15.6514C9.31458 14.8626 10.6428 14.4385 12.0048 14.4385ZM12.04 9.4397C14.7438 9.43972 17.362 10.3877 19.4396 12.1182C19.6782 12.317 19.7108 12.6712 19.5121 12.9099C19.3133 13.1486 18.9583 13.1812 18.7196 12.9824C16.8442 11.4203 14.4807 10.5647 12.04 10.5647C9.5991 10.5647 7.23502 11.4203 5.35953 12.9824C5.12083 13.181 4.76653 13.1485 4.56778 12.9099C4.36905 12.6713 4.40116 12.317 4.63956 12.1182C6.7172 10.3876 9.33601 9.4397 12.04 9.4397ZM11.9997 4.44019C16.0323 4.44019 19.9264 5.91177 22.9516 8.57837C23.1846 8.7838 23.2075 9.13928 23.0021 9.37231C22.7967 9.60526 22.4412 9.62733 22.2082 9.42212C19.3885 6.93665 15.7584 5.56519 11.9997 5.56519C8.24098 5.56523 4.61154 6.93669 1.7919 9.42212C1.55893 9.62748 1.20341 9.60515 0.997958 9.37231C0.792598 9.13934 0.814918 8.78382 1.04776 8.57837C4.07289 5.91181 7.96706 4.44023 11.9997 4.44019Z"/>
</svg>