<svg xmlns="http://www.w3.org/2000/svg" width="24" height="24" fill="currentcolor" class="icon-wifi" viewBox="0 0 24 24">
  <path d="M12.0101 19.4373C12.3206 19.4373 12.5724 19.6893 12.5726 19.9998C12.5726 20.3104 12.3207 20.5622 12.0101 20.5623H11.9998C11.6892 20.5622 11.4373 20.3104 11.4373 19.9998C11.4375 19.6893 11.6893 19.4373 11.9998 19.4373H12.0101ZM12.0049 14.4385C13.3669 14.4385 14.6952 14.8626 15.8055 15.6514C16.0587 15.8313 16.1186 16.1825 15.9388 16.4358C15.7589 16.689 15.4076 16.7483 15.1544 16.5684C14.2343 15.9147 13.1335 15.5635 12.0049 15.5635C10.8764 15.5635 9.77555 15.9147 8.85553 16.5684C8.60228 16.7482 8.25102 16.689 8.07111 16.4358C7.89133 16.1826 7.95121 15.8313 8.20441 15.6514C9.31474 14.8626 10.643 14.4385 12.0049 14.4385ZM12.0401 9.4397C14.744 9.43972 17.3622 10.3877 19.4398 12.1182C19.6784 12.317 19.711 12.6712 19.5123 12.9099C19.3134 13.1486 18.9585 13.1812 18.7198 12.9824C16.8443 11.4203 14.4809 10.5647 12.0401 10.5647C9.59925 10.5647 7.23517 11.4203 5.35968 12.9824C5.12098 13.181 4.76669 13.1485 4.56794 12.9099C4.3692 12.6713 4.40131 12.317 4.63971 12.1182C6.71735 10.3876 9.33617 9.4397 12.0401 9.4397ZM11.9998 4.44019C16.0325 4.44019 19.9266 5.91177 22.9517 8.57837C23.1847 8.7838 23.2077 9.13928 23.0023 9.37231C22.7969 9.60526 22.4414 9.62733 22.2083 9.42212C19.3886 6.93665 15.7586 5.56519 11.9998 5.56519C8.24114 5.56523 4.6117 6.93669 1.79206 9.42212C1.55909 9.62748 1.20357 9.60515 0.998111 9.37231C0.79275 9.13934 0.815071 8.78382 1.04792 8.57837C4.07304 5.91181 7.96722 4.44023 11.9998 4.44019Z"/>
</svg>