<svg xmlns="http://www.w3.org/2000/svg" width="24" height="24" fill="currentcolor" class="icon-wifi-off" viewBox="0 0 24 24">
  <g clip-path="url(#a)">
    <path d="M0.602252 0.602252C0.821922 0.382583 1.17799 0.382583 1.39766 0.602252L10.5002 9.70479C10.5431 9.7359 10.5795 9.77466 10.6123 9.81685L23.3974 22.602C23.6171 22.8217 23.6171 23.1777 23.3974 23.3974C23.1777 23.6171 22.8217 23.6171 22.602 23.3974L15.7854 16.5808C15.5976 16.7025 15.3475 16.7058 15.154 16.5683C14.234 15.9148 13.1331 15.5634 12.0046 15.5634C10.8762 15.5635 9.7758 15.9148 8.85591 16.5683C8.60268 16.7482 8.25143 16.689 8.07149 16.4357C7.89158 16.1825 7.95084 15.8313 8.20406 15.6513C9.31434 14.8625 10.6426 14.4385 12.0046 14.4384C12.6624 14.4384 13.3125 14.5381 13.9338 14.7292L9.97359 10.769C8.27698 11.1098 6.6908 11.8696 5.3608 12.9816C5.12247 13.1809 4.76757 13.1489 4.56832 12.9106C4.36918 12.6723 4.40108 12.3173 4.63936 12.1181C5.92529 11.043 7.42751 10.2656 9.03829 9.8337L5.98629 6.7817C4.45532 7.42819 3.03882 8.31964 1.79244 9.42134C1.55967 9.62709 1.20424 9.60504 0.998493 9.37227C0.792869 9.13951 0.814845 8.78403 1.04756 8.57833C2.27166 7.49634 3.64891 6.60393 5.13301 5.92842L0.602252 1.39766C0.382583 1.17799 0.382583 0.821922 0.602252 0.602252ZM12.0097 19.4372C12.3203 19.4372 12.5721 19.6892 12.5722 19.9997C12.5722 20.3104 12.3204 20.5622 12.0097 20.5622H12.0002C11.6895 20.5622 11.4377 20.3104 11.4377 19.9997C11.4378 19.6892 11.6896 19.4372 12.0002 19.4372H12.0097ZM16.2146 10.8129C16.3509 10.534 16.6877 10.4182 16.9668 10.5544C17.8279 10.9747 18.6333 11.501 19.364 12.1211C19.6007 12.322 19.6298 12.6767 19.4292 12.9135C19.2282 13.1504 18.8728 13.1797 18.6359 12.9787C17.9767 12.4194 17.25 11.9443 16.4731 11.5651C16.1941 11.4288 16.0783 11.0921 16.2146 10.8129ZM10.665 4.48922C12.8827 4.31055 15.1135 4.58067 17.2246 5.28316C19.3357 5.98567 21.2837 7.10641 22.9521 8.57833C23.185 8.78386 23.2074 9.13935 23.0019 9.37227C22.7965 9.60512 22.4409 9.62737 22.208 9.42208C20.6528 8.05014 18.837 7.0051 16.8693 6.3503C14.9017 5.69553 12.8221 5.44399 10.7551 5.61055C10.4454 5.63548 10.1743 5.40457 10.1494 5.09493C10.1245 4.78535 10.3554 4.51416 10.665 4.48922Z"/>
  </g>
  <defs>
    <clipPath id="a">
      <path d="M0 0H24V24H0z"/>
    </clipPath>
  </defs>
</svg>