<svg xmlns="http://www.w3.org/2000/svg" width="24" height="24" fill="currentcolor" class="icon-wind" viewBox="0 0 24 24">
  <path d="M14 15.4375C14.4214 15.4361 14.837 15.5389 15.2092 15.7363C15.5821 15.9341 15.9004 16.221 16.1358 16.5713C16.371 16.9217 16.5163 17.3247 16.5584 17.7446C16.6004 18.1647 16.538 18.5894 16.3767 18.9795C16.2154 19.3696 15.9597 19.7138 15.6333 19.9815C15.3069 20.2491 14.9195 20.4321 14.5054 20.5139C14.0913 20.5958 13.6632 20.5743 13.2595 20.4509C12.9024 20.3418 12.5742 20.1554 12.2971 19.9068L1.8279 16.5354C1.5643 16.4505 1.40122 16.1864 1.44411 15.9129C1.48707 15.6392 1.72304 15.4375 2.00002 15.4375H14ZM12.7622 18.8748L12.8252 18.8989C12.886 18.9269 12.9418 18.9655 12.9893 19.0132C13.1562 19.1811 13.3619 19.3058 13.5884 19.375C13.8148 19.4442 14.0549 19.4561 14.2871 19.4102C14.5195 19.3642 14.7368 19.2615 14.9199 19.1113C15.103 18.9612 15.2462 18.7683 15.3367 18.5496C15.4272 18.3307 15.4621 18.0924 15.4385 17.8567C15.4149 17.6211 15.3339 17.3948 15.2019 17.1983C15.0699 17.0017 14.8911 16.8412 14.6819 16.7302C14.4727 16.6193 14.239 16.5615 14.0022 16.5625H5.58156L12.7622 18.8748ZM18.6091 6.56862C19.0908 6.42296 19.601 6.39842 20.0945 6.49684C20.5879 6.59525 21.0496 6.8134 21.4385 7.13258C21.8274 7.45186 22.132 7.86231 22.3247 8.32716C22.5174 8.79193 22.5926 9.29714 22.5437 9.79787C22.4947 10.2987 22.3226 10.7803 22.0435 11.199C21.7643 11.6176 21.3861 11.9609 20.9426 12.1987C20.4993 12.4365 20.0043 12.5618 19.5012 12.5628H2.00002C1.68944 12.5628 1.43766 12.3108 1.43752 12.0003C1.43752 11.6896 1.68935 11.4378 2.00002 11.4378H19.499C19.8174 11.4372 20.1311 11.3582 20.4116 11.2078C20.6921 11.0573 20.9309 10.8397 21.1074 10.575C21.284 10.3101 21.3928 10.0056 21.4238 9.68873C21.4548 9.37187 21.4073 9.05193 21.2854 8.75783C21.1635 8.46391 20.971 8.20462 20.7251 8.0027C20.4791 7.80075 20.1869 7.66216 19.8748 7.59987C19.5627 7.53762 19.2397 7.55322 18.9351 7.64528C18.6304 7.73741 18.3526 7.90317 18.1272 8.12794C17.9073 8.34733 17.5512 8.34715 17.3318 8.12721C17.1125 7.90731 17.1127 7.5512 17.3325 7.3318C17.6888 6.97641 18.1275 6.71427 18.6091 6.56862ZM10.2595 3.54957C10.6633 3.42619 11.0912 3.40399 11.5054 3.48585C11.9196 3.56773 12.3069 3.75132 12.6333 4.01906C12.9597 4.28679 13.2154 4.63089 13.3767 5.02101C13.538 5.41109 13.6004 5.83514 13.5584 6.25514C13.5163 6.67509 13.371 7.0781 13.1358 7.42848C12.9004 7.77889 12.5822 8.06639 12.2092 8.26417C11.837 8.46159 11.4214 8.56292 11 8.56154V8.56227H2.00002C1.73478 8.56227 1.50555 8.37703 1.44997 8.11769C1.3945 7.85849 1.52756 7.59581 1.7693 7.48707L9.27296 4.115C9.55501 3.85534 9.89198 3.6619 10.2595 3.54957ZM11.2871 4.58961C11.0548 4.54371 10.8148 4.55631 10.5884 4.6255C10.362 4.6947 10.1562 4.8187 9.98927 4.98659C9.94081 5.03534 9.88351 5.07484 9.82082 5.10304L4.62575 7.43727H11.0022C11.239 7.43826 11.4727 7.3812 11.6819 7.27028C11.8911 7.15933 12.0699 6.99813 12.2019 6.80153C12.3339 6.60495 12.4149 6.37869 12.4385 6.14308C12.4621 5.90747 12.4271 5.66977 12.3367 5.45094C12.2462 5.23208 12.1031 5.03864 11.9199 4.88844C11.7368 4.7383 11.5194 4.63554 11.2871 4.58961Z"/>
</svg>