<svg xmlns="http://www.w3.org/2000/svg" width="24" height="24" fill="currentcolor" class="icon-wind" viewBox="0 0 24 24">
  <path d="M14.0002 15.4374C14.4216 15.436 14.8372 15.5388 15.2095 15.7362C15.5823 15.934 15.9007 16.2208 16.136 16.5712C16.3713 16.9215 16.5165 17.3246 16.5586 17.7445C16.6006 18.1646 16.5383 18.5892 16.3769 18.9794C16.2156 19.3694 15.9599 19.7136 15.6335 19.9813C15.3071 20.249 14.9197 20.4319 14.5056 20.5138C14.0915 20.5957 13.6635 20.5742 13.2598 20.4508C12.9026 20.3417 12.5744 20.1553 12.2973 19.9066L1.82811 16.5353C1.56452 16.4504 1.40144 16.1863 1.44432 15.9127C1.48729 15.6391 1.72326 15.4374 2.00023 15.4374H14.0002ZM12.7624 18.8746L12.8254 18.8988C12.8862 18.9268 12.942 18.9653 12.9895 19.0131C13.1564 19.181 13.3621 19.3057 13.5886 19.3749C13.815 19.4441 14.0551 19.456 14.2873 19.41C14.5197 19.3641 14.737 19.2614 14.9202 19.1112C15.1032 18.9611 15.2464 18.7682 15.3369 18.5495C15.4274 18.3306 15.4623 18.0922 15.4387 17.8566C15.4151 17.621 15.3341 17.3947 15.2021 17.1981C15.0701 17.0016 14.8913 16.8411 14.6821 16.7301C14.4729 16.6192 14.2393 16.5614 14.0024 16.5624H5.58177L12.7624 18.8746ZM18.6094 6.5685C19.0911 6.42284 19.6012 6.39829 20.0947 6.49672C20.5881 6.59512 21.0498 6.81328 21.4387 7.13246C21.8277 7.45174 22.1322 7.86219 22.3249 8.32704C22.5176 8.7918 22.5929 9.29702 22.5439 9.79774C22.4949 10.2986 22.3228 10.7802 22.0437 11.1989C21.7645 11.6175 21.3863 11.9608 20.9429 12.1986C20.4995 12.4364 20.0045 12.5617 19.5014 12.5626H2.00023C1.68966 12.5626 1.43787 12.3107 1.43773 12.0001C1.43773 11.6895 1.68957 11.4376 2.00023 11.4376H19.4993C19.8176 11.4371 20.1313 11.3581 20.4118 11.2077C20.6923 11.0572 20.9311 10.8396 21.1077 10.5748C21.2842 10.31 21.393 10.0054 21.4241 9.68861C21.4551 9.37175 21.4075 9.05181 21.2856 8.7577C21.1638 8.46379 20.9712 8.2045 20.7253 8.00258C20.4793 7.80063 20.1871 7.66204 19.875 7.59975C19.5629 7.5375 19.2399 7.5531 18.9353 7.64516C18.6306 7.73729 18.3528 7.90305 18.1274 8.12782C17.9075 8.34721 17.5514 8.34703 17.332 8.12709C17.1127 7.90719 17.1129 7.55108 17.3327 7.33168C17.689 6.97629 18.1277 6.71415 18.6094 6.5685ZM10.2598 3.54945C10.6635 3.42607 11.0915 3.40387 11.5056 3.48573C11.9198 3.56761 12.3071 3.7512 12.6335 4.01894C12.9599 4.28667 13.2156 4.63077 13.3769 5.02089C13.5382 5.41097 13.6006 5.83502 13.5586 6.25502C13.5166 6.67496 13.3712 7.07798 13.136 7.42836C12.9006 7.77877 12.5824 8.06627 12.2095 8.26405C11.8372 8.46147 11.4216 8.5628 11.0002 8.56142V8.56215H2.00023C1.735 8.56215 1.50576 8.37691 1.45018 8.11757C1.39472 7.85836 1.52778 7.59569 1.76952 7.48695L9.27318 4.11488C9.55522 3.85522 9.8922 3.66178 10.2598 3.54945ZM11.2873 4.58949C11.055 4.54359 10.8151 4.55618 10.5886 4.62538C10.3622 4.69458 10.1564 4.81858 9.98949 4.98646C9.94102 5.03522 9.88372 5.07472 9.82103 5.10292L4.62596 7.43715H11.0024C11.2392 7.43814 11.4729 7.38108 11.6821 7.27016C11.8914 7.1592 12.0701 6.99801 12.2021 6.80141C12.3341 6.60483 12.4151 6.37857 12.4387 6.14296C12.4623 5.90735 12.4274 5.66965 12.3369 5.45082C12.2464 5.23196 12.1033 5.03851 11.9202 4.88832C11.7371 4.73818 11.5196 4.63541 11.2873 4.58949Z"/>
</svg>