<svg xmlns="http://www.w3.org/2000/svg" width="24" height="24" fill="currentcolor" class="icon-wind" viewBox="0 0 24 24">
  <path d="M14.0002 15.4375C14.4216 15.4361 14.8372 15.5389 15.2095 15.7363C15.5823 15.9341 15.9007 16.221 16.136 16.5713C16.3713 16.9217 16.5165 17.3247 16.5586 17.7446C16.6006 18.1647 16.5383 18.5894 16.3769 18.9795C16.2156 19.3696 15.9599 19.7138 15.6335 19.9815C15.3071 20.2491 14.9197 20.4321 14.5056 20.5139C14.0915 20.5958 13.6635 20.5743 13.2598 20.4509C12.9026 20.3418 12.5744 20.1554 12.2973 19.9068L1.82811 16.5354C1.56452 16.4505 1.40144 16.1864 1.44432 15.9129C1.48729 15.6392 1.72326 15.4375 2.00023 15.4375H14.0002ZM12.7624 18.8748L12.8254 18.8989C12.8862 18.9269 12.942 18.9655 12.9895 19.0132C13.1564 19.1811 13.3621 19.3058 13.5886 19.375C13.815 19.4442 14.0551 19.4561 14.2873 19.4102C14.5197 19.3642 14.737 19.2615 14.9202 19.1113C15.1032 18.9612 15.2464 18.7683 15.3369 18.5496C15.4274 18.3307 15.4623 18.0924 15.4387 17.8567C15.4151 17.6211 15.3341 17.3948 15.2021 17.1983C15.0701 17.0017 14.8913 16.8412 14.6821 16.7302C14.4729 16.6193 14.2393 16.5615 14.0024 16.5625H5.58177L12.7624 18.8748ZM18.6094 6.56862C19.0911 6.42296 19.6012 6.39842 20.0947 6.49684C20.5881 6.59525 21.0498 6.8134 21.4387 7.13258C21.8277 7.45186 22.1322 7.86231 22.3249 8.32716C22.5176 8.79193 22.5929 9.29714 22.5439 9.79787C22.4949 10.2987 22.3228 10.7803 22.0437 11.199C21.7645 11.6176 21.3863 11.9609 20.9429 12.1987C20.4995 12.4365 20.0045 12.5618 19.5014 12.5628H2.00023C1.68966 12.5628 1.43787 12.3108 1.43773 12.0003C1.43773 11.6896 1.68957 11.4378 2.00023 11.4378H19.4993C19.8176 11.4372 20.1313 11.3582 20.4118 11.2078C20.6923 11.0573 20.9311 10.8397 21.1077 10.575C21.2842 10.3101 21.393 10.0056 21.4241 9.68873C21.4551 9.37187 21.4075 9.05193 21.2856 8.75783C21.1638 8.46391 20.9712 8.20462 20.7253 8.0027C20.4793 7.80075 20.1871 7.66216 19.875 7.59987C19.5629 7.53762 19.2399 7.55322 18.9353 7.64528C18.6306 7.73741 18.3528 7.90317 18.1274 8.12794C17.9075 8.34733 17.5514 8.34715 17.332 8.12721C17.1127 7.90731 17.1129 7.5512 17.3327 7.3318C17.689 6.97641 18.1277 6.71427 18.6094 6.56862ZM10.2598 3.54957C10.6635 3.42619 11.0915 3.40399 11.5056 3.48585C11.9198 3.56773 12.3071 3.75132 12.6335 4.01906C12.9599 4.28679 13.2156 4.63089 13.3769 5.02101C13.5382 5.41109 13.6006 5.83514 13.5586 6.25514C13.5166 6.67509 13.3712 7.0781 13.136 7.42848C12.9006 7.77889 12.5824 8.06639 12.2095 8.26417C11.8372 8.46159 11.4216 8.56292 11.0002 8.56154V8.56227H2.00023C1.735 8.56227 1.50576 8.37703 1.45018 8.11769C1.39472 7.85849 1.52778 7.59581 1.76952 7.48707L9.27318 4.115C9.55522 3.85534 9.8922 3.6619 10.2598 3.54957ZM11.2873 4.58961C11.055 4.54371 10.8151 4.55631 10.5886 4.6255C10.3622 4.6947 10.1564 4.8187 9.98949 4.98659C9.94102 5.03534 9.88372 5.07484 9.82103 5.10304L4.62596 7.43727H11.0024C11.2392 7.43826 11.4729 7.3812 11.6821 7.27028C11.8914 7.15933 12.0701 6.99813 12.2021 6.80153C12.3341 6.60495 12.4151 6.37869 12.4387 6.14308C12.4623 5.90747 12.4274 5.66977 12.3369 5.45094C12.2464 5.23208 12.1033 5.03864 11.9202 4.88844C11.7371 4.7383 11.5196 4.63554 11.2873 4.58961Z"/>
</svg>