<svg xmlns="http://www.w3.org/2000/svg" width="24" height="24" fill="currentcolor" class="icon-x-circle" viewBox="0 0 24 24">
  <path d="M21.4377 11.9998C21.4376 6.78768 17.2119 2.5625 11.9998 2.5625C6.78776 2.56263 2.56263 6.78776 2.5625 11.9998C2.5625 17.2119 6.78768 21.4376 11.9998 21.4377C17.2119 21.4377 21.4377 17.2119 21.4377 11.9998ZM14.6021 8.60205C14.8216 8.38246 15.1778 8.38263 15.3975 8.60205C15.6171 8.82172 15.6171 9.17779 15.3975 9.39746L12.7952 11.9998L15.3975 14.6021C15.6171 14.8217 15.6171 15.1778 15.3975 15.3975C15.1778 15.6171 14.8217 15.6171 14.6021 15.3975L11.9998 12.7952L9.39746 15.3975C9.17779 15.6171 8.82172 15.6171 8.60205 15.3975C8.38263 15.1778 8.38246 14.8216 8.60205 14.6021L11.2043 11.9998L8.60205 9.39746C8.38263 9.17777 8.38246 8.82164 8.60205 8.60205C8.82164 8.38246 9.17777 8.38263 9.39746 8.60205L11.9998 11.2043L14.6021 8.60205ZM22.5627 11.9998C22.5627 17.8333 17.8333 22.5627 11.9998 22.5627C6.16636 22.5626 1.4375 17.8332 1.4375 11.9998C1.43763 6.16644 6.16644 1.43763 11.9998 1.4375C17.8332 1.4375 22.5626 6.16636 22.5627 11.9998Z"/>
</svg>