<svg xmlns="http://www.w3.org/2000/svg" width="24" height="24" fill="currentcolor" class="icon-x-octagon" viewBox="0 0 24 24">
  <path d="M16.1401 1.4375L16.25 1.44849C16.3582 1.47007 16.4587 1.52312 16.5378 1.60229L22.3979 7.4624C22.5033 7.56787 22.5627 7.71101 22.5627 7.86011V16.1401C22.5627 16.2892 22.5034 16.4324 22.3979 16.5378L16.5378 22.3979C16.4324 22.5034 16.2892 22.5627 16.1401 22.5627H7.86011C7.71101 22.5627 7.56787 22.5033 7.4624 22.3979L1.60229 16.5378C1.49684 16.4324 1.43754 16.2893 1.4375 16.1401V7.86011C1.4375 7.71095 1.49684 7.56789 1.60229 7.4624L7.4624 1.60229L7.5481 1.53198C7.6398 1.47087 7.74827 1.4375 7.86011 1.4375H16.1401ZM2.5625 8.09302V15.9072L8.09302 21.4377H15.9072L21.4377 15.9072V8.09302L15.9072 2.5625H8.09302L2.5625 8.09302ZM14.6021 8.60205C14.8216 8.38246 15.1778 8.38263 15.3975 8.60205C15.6171 8.82172 15.6171 9.17779 15.3975 9.39746L12.7952 11.9998L15.3975 14.6021C15.6171 14.8217 15.6171 15.1778 15.3975 15.3975C15.1778 15.6171 14.8217 15.6171 14.6021 15.3975L11.9998 12.7952L9.39746 15.3975C9.17779 15.6171 8.82172 15.6171 8.60205 15.3975C8.38263 15.1778 8.38246 14.8216 8.60205 14.6021L11.2043 11.9998L8.60205 9.39746C8.38263 9.17777 8.38246 8.82164 8.60205 8.60205C8.82164 8.38246 9.17777 8.38263 9.39746 8.60205L11.9998 11.2043L14.6021 8.60205Z"/>
</svg>