<svg xmlns="http://www.w3.org/2000/svg" width="24" height="24" fill="currentcolor" class="icon-x-square" viewBox="0 0 24 24">
  <path d="M20.4375 5.00024C20.4375 4.20633 19.7937 3.5625 18.9998 3.5625H5.00024C4.20633 3.5625 3.5625 4.20633 3.5625 5.00024V18.9998C3.5625 19.7937 4.20633 20.4375 5.00024 20.4375H18.9998C19.7937 20.4375 20.4375 19.7937 20.4375 18.9998V5.00024ZM14.6023 8.60229C14.822 8.38263 15.178 8.38263 15.3977 8.60229C15.6174 8.82196 15.6174 9.17804 15.3977 9.39771L12.7954 12L15.3977 14.6023C15.6174 14.822 15.6174 15.178 15.3977 15.3977C15.178 15.6174 14.822 15.6174 14.6023 15.3977L12 12.7954L9.39771 15.3977C9.17804 15.6174 8.82196 15.6174 8.60229 15.3977C8.38263 15.178 8.38263 14.822 8.60229 14.6023L11.2046 12L8.60229 9.39771C8.38263 9.17804 8.38263 8.82196 8.60229 8.60229C8.82196 8.38263 9.17804 8.38263 9.39771 8.60229L12 11.2046L14.6023 8.60229ZM21.5625 18.9998C21.5625 20.415 20.415 21.5625 18.9998 21.5625H5.00024C3.58501 21.5625 2.4375 20.415 2.4375 18.9998V5.00024C2.4375 3.58501 3.58501 2.4375 5.00024 2.4375H18.9998C20.415 2.4375 21.5625 3.58501 21.5625 5.00024V18.9998Z"/>
</svg>