<svg xmlns="http://www.w3.org/2000/svg" width="24" height="24" fill="currentcolor" class="icon-youtube" viewBox="0 0 24 24">
  <path d="M11.9997 3.4375V4.5625H11.9235C11.8731 4.56261 11.7989 4.56279 11.7038 4.56323C11.5133 4.56413 11.2386 4.56624 10.904 4.56982C10.2344 4.57699 9.3245 4.59102 8.36173 4.61963C7.398 4.64827 6.38579 4.69128 5.51041 4.75513C4.62283 4.81987 3.92255 4.90306 3.54971 5.00195C3.17564 5.10842 2.8362 5.31166 2.56534 5.59082C2.29755 5.8669 2.10634 6.20812 2.01016 6.58032C1.70396 8.2854 1.55409 10.0152 1.56265 11.7476V11.7534C1.55171 13.4961 1.70111 15.2361 2.0087 16.9514C2.11494 17.3082 2.30936 17.6327 2.57413 17.8948C2.8449 18.1627 3.18017 18.3558 3.54752 18.4565C3.91974 18.5557 4.6209 18.64 5.51041 18.7048C6.38579 18.7687 7.39799 18.8117 8.36173 18.8403C9.3245 18.8689 10.2344 18.883 10.904 18.8901C11.2386 18.8937 11.5133 18.8958 11.7038 18.8967C11.7989 18.8972 11.8731 18.8973 11.9235 18.8975H11.9997V20.0225H11.9213C11.8701 20.0223 11.7947 20.0222 11.6986 20.0217C11.5062 20.0208 11.2294 20.0187 10.8922 20.0151C10.2181 20.0079 9.30016 19.9935 8.32803 19.9646C7.35688 19.9357 6.32664 19.8924 5.42838 19.8269C4.54579 19.7625 3.74284 19.674 3.25455 19.5435L3.25162 19.5427C2.69718 19.391 2.19096 19.0989 1.78238 18.6946C1.37379 18.2902 1.07631 17.787 0.918855 17.2341C0.913777 17.2163 0.909697 17.1982 0.906404 17.1799C0.583039 15.3872 0.426238 13.5684 0.437654 11.7468C0.429093 9.94072 0.585865 8.13732 0.906404 6.35986L0.91446 6.32324C1.05729 5.75275 1.34803 5.23001 1.75748 4.80786C2.16703 4.38564 2.68122 4.07883 3.24722 3.9187L3.25455 3.9165C3.74284 3.78591 4.54579 3.69743 5.42838 3.63306C6.32664 3.56754 7.35688 3.52422 8.32803 3.49536C9.30016 3.46647 10.2181 3.45204 10.8922 3.44482C11.2294 3.44122 11.5062 3.43914 11.6986 3.43823C11.7947 3.43778 11.8701 3.43761 11.9213 3.4375H11.9997ZM12.0788 3.4375C12.13 3.4376 12.2052 3.43782 12.3014 3.43823C12.4937 3.43906 12.7701 3.4408 13.1071 3.44409C13.7811 3.45067 14.6988 3.46387 15.6706 3.49023C16.6414 3.51658 17.6708 3.55646 18.568 3.61621C19.3404 3.66765 20.0484 3.73543 20.5375 3.83081L20.7331 3.87329L20.7528 3.87842C21.3188 4.03855 21.833 4.34536 22.2426 4.76758C22.601 5.1371 22.8686 5.58379 23.0255 6.07202L23.0856 6.28369L23.0937 6.32031C23.4167 8.11135 23.5735 9.9284 23.5624 11.7483L23.5573 12.4207C23.5272 13.9899 23.3723 15.5548 23.0937 17.1001C23.0914 17.1123 23.0886 17.1246 23.0856 17.1367C22.9428 17.7072 22.652 18.2299 22.2426 18.6521C21.833 19.0743 21.3188 19.3811 20.7528 19.5413L20.7455 19.5435C20.2572 19.674 19.4542 19.7625 18.5717 19.8269C17.6734 19.8924 16.6432 19.9357 15.672 19.9646C14.6999 19.9935 13.782 20.0079 13.1078 20.0151C12.7706 20.0187 12.4939 20.0208 12.3014 20.0217C12.2053 20.0222 12.13 20.0223 12.0788 20.0225H12.0004C12.0005 20.0212 11.9997 19.9953 11.9997 19.46L12.0004 18.8975H12.0766C12.1269 18.8973 12.2012 18.8972 12.2963 18.8967C12.4868 18.8958 12.7614 18.8937 13.0961 18.8901C13.7656 18.883 14.6756 18.8689 15.6383 18.8403C16.6021 18.8117 17.6143 18.7687 18.4897 18.7048C19.3769 18.6401 20.0767 18.5561 20.4496 18.4573C20.8239 18.3508 21.1638 18.1484 21.4347 17.8691C21.7027 17.5929 21.893 17.2513 21.9892 16.8789C22.2929 15.1869 22.4436 13.471 22.4374 11.752V11.7468C22.4484 10.0018 22.2984 8.2591 21.9899 6.5415C21.8938 6.16888 21.7028 5.82762 21.4347 5.55127C21.1665 5.27476 20.8311 5.07267 20.4613 4.96533C20.0839 4.87404 19.3802 4.79734 18.4933 4.73828C17.6169 4.67992 16.6039 4.64066 15.6398 4.6145C14.6765 4.58837 13.7659 4.57563 13.0961 4.56909C12.7614 4.56582 12.4868 4.56405 12.2963 4.56323C12.2012 4.56283 12.1269 4.5626 12.0766 4.5625H12.0004C12.0004 4.5625 11.9997 4.5625 11.9997 4C11.9997 3.4375 12.0003 3.4375 12.0004 3.4375H12.0788ZM9.46695 7.9939C9.64007 7.8932 9.85388 7.892 10.028 7.99097L15.7782 11.2612C15.9539 11.3612 16.0623 11.5477 16.0624 11.7498C16.0624 11.952 15.954 12.139 15.7782 12.239L10.028 15.5093C9.8539 15.6082 9.64003 15.607 9.46695 15.5063C9.29387 15.4056 9.18717 15.2203 9.18717 15.02V8.48022C9.18717 8.28 9.29393 8.09464 9.46695 7.9939ZM10.3122 14.0525L14.3617 11.7498L10.3122 9.44629V14.0525Z"/>
</svg>