<svg xmlns="http://www.w3.org/2000/svg" width="24" height="24" fill="currentcolor" class="icon-youtube" viewBox="0 0 24 24">
  <path d="M11.9996 3.4375V4.5625H11.9234C11.8731 4.56261 11.7989 4.56279 11.7037 4.56323C11.5132 4.56413 11.2386 4.56624 10.9039 4.56982C10.2344 4.57699 9.32444 4.59102 8.36166 4.61963C7.39793 4.64827 6.38572 4.69128 5.51035 4.75513C4.62276 4.81987 3.92249 4.90306 3.54965 5.00195C3.17558 5.10842 2.83614 5.31166 2.56528 5.59082C2.29749 5.8669 2.10628 6.20812 2.0101 6.58032C1.7039 8.2854 1.55403 10.0152 1.56259 11.7476V11.7534C1.55165 13.4961 1.70105 15.2361 2.00864 16.9514C2.11488 17.3082 2.3093 17.6327 2.57407 17.8948C2.84484 18.1627 3.18011 18.3558 3.54746 18.4565C3.91968 18.5557 4.62084 18.64 5.51035 18.7048C6.38573 18.7687 7.39793 18.8117 8.36166 18.8403C9.32444 18.8689 10.2344 18.883 10.9039 18.8901C11.2386 18.8937 11.5132 18.8958 11.7037 18.8967C11.7989 18.8972 11.8731 18.8973 11.9234 18.8975H11.9996V20.0225H11.9212C11.87 20.0223 11.7947 20.0222 11.6986 20.0217C11.5061 20.0208 11.2293 20.0187 10.8922 20.0151C10.218 20.0079 9.3001 19.9935 8.32797 19.9646C7.35682 19.9357 6.32658 19.8924 5.42832 19.8269C4.54573 19.7625 3.74278 19.674 3.25449 19.5435L3.25156 19.5427C2.69711 19.391 2.1909 19.0989 1.78232 18.6946C1.37372 18.2902 1.07625 17.787 0.918794 17.2341C0.913716 17.2163 0.909636 17.1982 0.906343 17.1799C0.582978 15.3872 0.426177 13.5684 0.437593 11.7468C0.429032 9.94072 0.585804 8.13732 0.906343 6.35986L0.914399 6.32324C1.05723 5.75275 1.34796 5.23001 1.75742 4.80786C2.16697 4.38564 2.68116 4.07883 3.24716 3.9187L3.25449 3.9165C3.74278 3.78591 4.54573 3.69743 5.42832 3.63306C6.32658 3.56754 7.35682 3.52422 8.32797 3.49536C9.3001 3.46647 10.218 3.45204 10.8922 3.44482C11.2293 3.44122 11.5061 3.43914 11.6986 3.43823C11.7947 3.43778 11.87 3.43761 11.9212 3.4375H11.9996ZM12.0787 3.4375C12.1299 3.4376 12.2052 3.43782 12.3014 3.43823C12.4937 3.43906 12.7701 3.4408 13.107 3.44409C13.781 3.45067 14.6988 3.46387 15.6705 3.49023C16.6413 3.51658 17.6707 3.55646 18.568 3.61621C19.3403 3.66765 20.0484 3.73543 20.5374 3.83081L20.733 3.87329L20.7528 3.87842C21.3188 4.03855 21.833 4.34536 22.2425 4.76758C22.601 5.1371 22.8685 5.58379 23.0255 6.07202L23.0855 6.28369L23.0936 6.32031C23.4167 8.11135 23.5735 9.9284 23.5623 11.7483L23.5572 12.4207C23.5271 13.9899 23.3722 15.5548 23.0936 17.1001C23.0914 17.1123 23.0886 17.1246 23.0855 17.1367C22.9427 17.7072 22.652 18.2299 22.2425 18.6521C21.833 19.0743 21.3188 19.3811 20.7528 19.5413L20.7455 19.5435C20.2572 19.674 19.4542 19.7625 18.5716 19.8269C17.6734 19.8924 16.6431 19.9357 15.672 19.9646C14.6998 19.9935 13.7819 20.0079 13.1078 20.0151C12.7706 20.0187 12.4938 20.0208 12.3014 20.0217C12.2052 20.0222 12.1299 20.0223 12.0787 20.0225H12.0003C12.0004 20.0212 11.9996 19.9953 11.9996 19.46L12.0003 18.8975H12.0765C12.1269 18.8973 12.2011 18.8972 12.2962 18.8967C12.4867 18.8958 12.7614 18.8937 13.096 18.8901C13.7656 18.883 14.6755 18.8689 15.6383 18.8403C16.602 18.8117 17.6142 18.7687 18.4896 18.7048C19.3768 18.6401 20.0766 18.5561 20.4496 18.4573C20.8238 18.3508 21.1637 18.1484 21.4347 17.8691C21.7026 17.5929 21.893 17.2513 21.9891 16.8789C22.2929 15.1869 22.4435 13.471 22.4373 11.752V11.7468C22.4483 10.0018 22.2983 8.2591 21.9898 6.5415C21.8938 6.16888 21.7027 5.82762 21.4347 5.55127C21.1664 5.27476 20.8311 5.07267 20.4613 4.96533C20.0838 4.87404 19.3801 4.79734 18.4933 4.73828C17.6169 4.67992 16.6038 4.64066 15.6397 4.6145C14.6765 4.58837 13.7658 4.57563 13.096 4.56909C12.7614 4.56582 12.4868 4.56405 12.2962 4.56323C12.2011 4.56283 12.1269 4.5626 12.0765 4.5625H12.0003C12.0003 4.5625 11.9996 4.5625 11.9996 4C11.9996 3.4375 12.0003 3.4375 12.0003 3.4375H12.0787ZM9.46689 7.9939C9.64 7.8932 9.85382 7.892 10.0279 7.99097L15.7782 11.2612C15.9538 11.3612 16.0623 11.5477 16.0623 11.7498C16.0623 11.952 15.9539 12.139 15.7782 12.239L10.0279 15.5093C9.85384 15.6082 9.63997 15.607 9.46689 15.5063C9.29381 15.4056 9.18711 15.2203 9.1871 15.02V8.48022C9.1871 8.28 9.29387 8.09464 9.46689 7.9939ZM10.3121 14.0525L14.3617 11.7498L10.3121 9.44629V14.0525Z"/>
</svg>