<svg xmlns="http://www.w3.org/2000/svg" width="24" height="24" fill="currentcolor" class="icon-youtube" viewBox="0 0 24 24">
  <path d="M12.0001 3.4375V4.5625H11.9239C11.8736 4.56261 11.7994 4.56279 11.7042 4.56323C11.5137 4.56413 11.2391 4.56624 10.9044 4.56982C10.2348 4.57699 9.32493 4.59102 8.36215 4.61963C7.39842 4.64827 6.38621 4.69128 5.51084 4.75513C4.62325 4.81987 3.92298 4.90306 3.55014 5.00195C3.17607 5.10842 2.83663 5.31166 2.56577 5.59082C2.29797 5.8669 2.10676 6.20812 2.01059 6.58032C1.70439 8.2854 1.55452 10.0152 1.56308 11.7476V11.7534C1.55214 13.4961 1.70154 15.2361 2.00913 16.9514C2.11537 17.3082 2.30979 17.6327 2.57456 17.8948C2.84533 18.1627 3.1806 18.3558 3.54794 18.4565C3.92017 18.5557 4.62132 18.64 5.51084 18.7048C6.38621 18.7687 7.39842 18.8117 8.36215 18.8403C9.32493 18.8689 10.2348 18.883 10.9044 18.8901C11.2391 18.8937 11.5137 18.8958 11.7042 18.8967C11.7994 18.8972 11.8736 18.8973 11.9239 18.8975H12.0001V20.0225H11.9217C11.8705 20.0223 11.7952 20.0222 11.6991 20.0217C11.5066 20.0208 11.2298 20.0187 10.8927 20.0151C10.2185 20.0079 9.30059 19.9935 8.32846 19.9646C7.35731 19.9357 6.32707 19.8924 5.4288 19.8269C4.54622 19.7625 3.74326 19.674 3.25498 19.5435L3.25205 19.5427C2.6976 19.391 2.19139 19.0989 1.78281 18.6946C1.37421 18.2902 1.07674 17.787 0.919282 17.2341C0.914205 17.2163 0.910124 17.1982 0.906831 17.1799C0.583467 15.3872 0.426666 13.5684 0.438081 11.7468C0.42952 9.94072 0.586292 8.13732 0.906831 6.35986L0.914888 6.32324C1.05772 5.75275 1.34845 5.23001 1.75791 4.80786C2.16746 4.38564 2.68165 4.07883 3.24765 3.9187L3.25498 3.9165C3.74326 3.78591 4.54622 3.69743 5.4288 3.63306C6.32707 3.56754 7.35731 3.52422 8.32846 3.49536C9.30059 3.46647 10.2185 3.45204 10.8927 3.44482C11.2298 3.44122 11.5066 3.43914 11.6991 3.43823C11.7952 3.43778 11.8705 3.43761 11.9217 3.4375H12.0001ZM12.0792 3.4375C12.1304 3.4376 12.2057 3.43782 12.3019 3.43823C12.4942 3.43906 12.7706 3.4408 13.1075 3.44409C13.7815 3.45067 14.6993 3.46387 15.671 3.49023C16.6418 3.51658 17.6712 3.55646 18.5685 3.61621C19.3408 3.66765 20.0488 3.73543 20.5379 3.83081L20.7335 3.87329L20.7533 3.87842C21.3193 4.03855 21.8335 4.34536 22.243 4.76758C22.6014 5.1371 22.869 5.58379 23.026 6.07202L23.086 6.28369L23.0941 6.32031C23.4171 8.11135 23.5739 9.9284 23.5628 11.7483L23.5577 12.4207C23.5276 13.9899 23.3727 15.5548 23.0941 17.1001C23.0919 17.1123 23.0891 17.1246 23.086 17.1367C22.9432 17.7072 22.6524 18.2299 22.243 18.6521C21.8335 19.0743 21.3193 19.3811 20.7533 19.5413L20.7459 19.5435C20.2577 19.674 19.4547 19.7625 18.5721 19.8269C17.6739 19.8924 16.6436 19.9357 15.6725 19.9646C14.7003 19.9935 13.7824 20.0079 13.1082 20.0151C12.7711 20.0187 12.4943 20.0208 12.3019 20.0217C12.2057 20.0222 12.1304 20.0223 12.0792 20.0225H12.0008C12.0009 20.0212 12.0001 19.9953 12.0001 19.46L12.0008 18.8975H12.077C12.1274 18.8973 12.2016 18.8972 12.2967 18.8967C12.4872 18.8958 12.7619 18.8937 13.0965 18.8901C13.7661 18.883 14.676 18.8689 15.6388 18.8403C16.6025 18.8117 17.6147 18.7687 18.4901 18.7048C19.3773 18.6401 20.0771 18.5561 20.45 18.4573C20.8243 18.3508 21.1642 18.1484 21.4352 17.8691C21.7031 17.5929 21.8935 17.2513 21.9896 16.8789C22.2933 15.1869 22.444 13.471 22.4378 11.752V11.7468C22.4488 10.0018 22.2988 8.2591 21.9903 6.5415C21.8943 6.16888 21.7032 5.82762 21.4352 5.55127C21.1669 5.27476 20.8316 5.07267 20.4618 4.96533C20.0843 4.87404 19.3806 4.79734 18.4937 4.73828C17.6174 4.67992 16.6043 4.64066 15.6402 4.6145C14.677 4.58837 13.7663 4.57563 13.0965 4.56909C12.7619 4.56582 12.4873 4.56405 12.2967 4.56323C12.2016 4.56283 12.1274 4.5626 12.077 4.5625H12.0008C12.0008 4.5625 12.0001 4.5625 12.0001 4C12.0001 3.4375 12.0008 3.4375 12.0008 3.4375H12.0792ZM9.46738 7.9939C9.64049 7.8932 9.85431 7.892 10.0284 7.99097L15.7787 11.2612C15.9543 11.3612 16.0627 11.5477 16.0628 11.7498C16.0628 11.952 15.9544 12.139 15.7787 12.239L10.0284 15.5093C9.85433 15.6082 9.64046 15.607 9.46738 15.5063C9.2943 15.4056 9.1876 15.2203 9.18759 15.02V8.48022C9.18759 8.28 9.29435 8.09464 9.46738 7.9939ZM10.3126 14.0525L14.3622 11.7498L10.3126 9.44629V14.0525Z"/>
</svg>