<svg xmlns="http://www.w3.org/2000/svg" width="24" height="24" fill="currentcolor" class="icon-zap-off" viewBox="0 0 24 24">
  <g clip-path="url(#a)">
    <path d="M0.602252 0.602252C0.821922 0.382583 1.17799 0.382583 1.39766 0.602252L23.3974 22.602C23.6171 22.8217 23.6171 23.1777 23.3974 23.3974C23.1777 23.6171 22.8217 23.6171 22.602 23.3974L16.0373 16.8327L11.4318 22.3603C11.272 22.5519 11.0052 22.6149 10.7763 22.5156C10.5473 22.4162 10.4107 22.1781 10.4416 21.9304L11.363 14.5622H3.0002C2.78194 14.5622 2.58301 14.4361 2.49044 14.2385C2.39792 14.0409 2.42839 13.8077 2.56807 13.6401L7.23873 8.03414L0.602252 1.39766C0.382583 1.17799 0.382583 0.821922 0.602252 0.602252ZM4.20137 13.4372H12.0002C12.1614 13.4373 12.3146 13.5069 12.4213 13.6276C12.5281 13.7486 12.5783 13.9099 12.5583 14.07L11.7959 20.1652L15.2382 16.0336L8.03707 8.83248L4.20137 13.4372ZM21.0002 9.43746C21.2185 9.43755 21.4167 9.5642 21.5092 9.76192C21.6017 9.95966 21.5715 10.1927 21.4316 10.3603L19.0014 13.2702C18.8024 13.5086 18.4481 13.5408 18.2097 13.342C17.9713 13.1429 17.939 12.788 18.1379 12.5495L19.7976 10.5625H15.6601C15.3495 10.5625 15.0976 10.3106 15.0976 9.99996C15.0976 9.6893 15.3495 9.43746 15.6601 9.43746H21.0002ZM12.5678 1.64009C12.7275 1.4483 12.9943 1.3849 13.2233 1.48409C13.4525 1.58335 13.5888 1.8215 13.5581 2.06929L12.9685 6.81905C12.9302 7.12728 12.649 7.3465 12.3408 7.30831C12.0325 7.27002 11.8132 6.9889 11.8515 6.68062L12.2045 3.8337L11.0026 5.2795C10.8039 5.51829 10.449 5.55073 10.2102 5.35201C9.97152 5.15328 9.93901 4.799 10.1377 4.56026L12.5678 1.64009Z"/>
  </g>
  <defs>
    <clipPath id="a">
      <path d="M0 0H24V24H0z"/>
    </clipPath>
  </defs>
</svg>