<svg xmlns="http://www.w3.org/2000/svg" width="24" height="24" fill="currentcolor" class="icon-zap-off" viewBox="0 0 24 24">
  <g clip-path="url(#a)">
    <path d="M0.602313 0.602252C0.821983 0.382583 1.17805 0.382583 1.39772 0.602252L23.3975 22.602C23.6171 22.8217 23.6171 23.1777 23.3975 23.3974C23.1778 23.6171 22.8217 23.6171 22.6021 23.3974L16.0374 16.8327L11.4319 22.3603C11.2721 22.5519 11.0053 22.6149 10.7764 22.5156C10.5474 22.4162 10.4108 22.1781 10.4417 21.9304L11.3631 14.5622H3.00026C2.782 14.5622 2.58307 14.4361 2.4905 14.2385C2.39798 14.0409 2.42845 13.8077 2.56813 13.6401L7.23879 8.03414L0.602313 1.39766C0.382644 1.17799 0.382644 0.821922 0.602313 0.602252ZM4.20143 13.4372H12.0003C12.1614 13.4373 12.3147 13.5069 12.4214 13.6276C12.5282 13.7486 12.5784 13.9099 12.5584 14.07L11.7959 20.1652L15.2383 16.0336L8.03713 8.83248L4.20143 13.4372ZM21.0003 9.43746C21.2185 9.43755 21.4168 9.5642 21.5093 9.76192C21.6017 9.95966 21.5715 10.1927 21.4317 10.3603L19.0015 13.2702C18.8024 13.5086 18.4482 13.5408 18.2097 13.342C17.9714 13.1429 17.939 12.788 18.138 12.5495L19.7976 10.5625H15.6602C15.3495 10.5625 15.0977 10.3106 15.0977 9.99996C15.0977 9.6893 15.3495 9.43746 15.6602 9.43746H21.0003ZM12.5679 1.64009C12.7276 1.4483 12.9944 1.3849 13.2234 1.48409C13.4525 1.58335 13.5889 1.8215 13.5581 2.06929L12.9685 6.81905C12.9302 7.12728 12.6491 7.3465 12.3408 7.30831C12.0326 7.27002 11.8133 6.9889 11.8516 6.68062L12.2046 3.8337L11.0027 5.2795C10.804 5.51829 10.449 5.55073 10.2102 5.35201C9.97158 5.15328 9.93907 4.799 10.1377 4.56026L12.5679 1.64009Z"/>
  </g>
  <defs>
    <clipPath id="a">
      <path d="M0 0H24V24H0z"/>
    </clipPath>
  </defs>
</svg>