<svg xmlns="http://www.w3.org/2000/svg" width="24" height="24" fill="currentcolor" class="icon-zap" viewBox="0 0 24 24">
  <path d="M12.5674 1.6397C12.7273 1.44789 12.9946 1.385 13.2236 1.48443C13.4526 1.58385 13.5885 1.82192 13.5576 2.06964L12.637 9.4378H20.9998C21.218 9.4378 21.4162 9.56393 21.5088 9.76153C21.6013 9.95913 21.5715 10.1923 21.4319 10.3599L11.4321 22.3599C11.2723 22.5517 11.0049 22.6153 10.7759 22.5159C10.5468 22.4165 10.4109 22.1778 10.4419 21.93L11.3626 14.5626H2.99977C2.78161 14.5626 2.58337 14.4363 2.49073 14.2388C2.39816 14.0412 2.42791 13.8074 2.56764 13.6397L12.5674 1.6397ZM4.20094 13.4376H11.9998C12.1611 13.4376 12.3149 13.507 12.4216 13.628C12.5283 13.7489 12.5778 13.9097 12.5579 14.0696L11.7954 20.1656L19.7986 10.5628H11.9998C11.8384 10.5628 11.6847 10.4933 11.5779 10.3724C11.4712 10.2514 11.4217 10.0901 11.4417 9.92999L12.2034 3.83404L4.20094 13.4376Z"/>
</svg>