<svg xmlns="http://www.w3.org/2000/svg" width="24" height="24" fill="currentcolor" class="icon-zap" viewBox="0 0 24 24">
  <path d="M12.5676 1.6397C12.7275 1.44789 12.9948 1.385 13.2239 1.48443C13.4529 1.58385 13.5888 1.82192 13.5579 2.06964L12.6372 9.4378H21C21.2182 9.4378 21.4165 9.56393 21.509 9.76153C21.6016 9.95913 21.5718 10.1923 21.4321 10.3599L11.4324 22.3599C11.2725 22.5517 11.0052 22.6153 10.7761 22.5159C10.5471 22.4165 10.4112 22.1778 10.4421 21.93L11.3628 14.5626H3.00001C2.78186 14.5626 2.58361 14.4363 2.49098 14.2388C2.3984 14.0412 2.42816 13.8074 2.56788 13.6397L12.5676 1.6397ZM4.20118 13.4376H12C12.1614 13.4376 12.3151 13.507 12.4219 13.628C12.5285 13.7489 12.5781 13.9097 12.5581 14.0696L11.7957 20.1656L19.7988 10.5628H12C11.8387 10.5628 11.6849 10.4933 11.5781 10.3724C11.4714 10.2514 11.4219 10.0901 11.4419 9.92999L12.2036 3.83404L4.20118 13.4376Z"/>
</svg>