<svg xmlns="http://www.w3.org/2000/svg" width="24" height="24" fill="currentcolor" class="icon-zoom-in" viewBox="0 0 24 24">
  <path d="M18.4373 11.0002C18.4373 6.89271 15.1078 3.56263 11.0002 3.5625C6.89263 3.5625 3.5625 6.89263 3.5625 11.0002C3.56263 15.1078 6.89271 18.4373 11.0002 18.4373C13.0221 18.4372 14.854 17.6291 16.1946 16.3198C16.2118 16.2962 16.2311 16.2738 16.2524 16.2524C16.2738 16.2311 16.2962 16.2118 16.3198 16.1946C17.6291 14.854 18.4372 13.0221 18.4373 11.0002ZM10.4377 14.0002V11.5627H8.00024C7.68967 11.5627 7.43788 11.3108 7.43774 11.0002C7.43774 10.6896 7.68958 10.4377 8.00024 10.4377H10.4377V8.00024C10.4377 7.68958 10.6896 7.43774 11.0002 7.43774C11.3108 7.43788 11.5627 7.68967 11.5627 8.00024V10.4377H14.0002C14.3108 10.4379 14.5627 10.6897 14.5627 11.0002C14.5626 11.3107 14.3107 11.5626 14.0002 11.5627H11.5627V14.0002C11.5626 14.3107 11.3107 14.5626 11.0002 14.5627C10.6897 14.5627 10.4379 14.3108 10.4377 14.0002ZM19.5623 11.0002C19.5622 13.1621 18.7592 15.1352 17.4375 16.6421L21.3977 20.6023C21.6174 20.822 21.6174 21.178 21.3977 21.3977C21.178 21.6174 20.822 21.6174 20.6023 21.3977L16.6421 17.4375C15.1352 18.7592 13.1621 19.5622 11.0002 19.5623C6.27139 19.5623 2.43763 15.7291 2.4375 11.0002C2.4375 6.27131 6.27131 2.4375 11.0002 2.4375C15.7291 2.43763 19.5623 6.27139 19.5623 11.0002Z"/>
</svg>