<svg xmlns="http://www.w3.org/2000/svg" width="24" height="24" fill="currentcolor" class="icon-arrow-up-from-square-solid" viewBox="0 0 24 24">
  <path d="M8.52344 7.25C7.85938 7.25 7.27344 6.70312 7.3125 6C7.3125 5.6875 7.42969 5.41406 7.66406 5.17969L11.0625 1.39062C11.2969 1.15625 11.6484 1 12 1C12.3125 1 12.6641 1.15625 12.9375 1.39062L16.3359 5.14062C16.5703 5.41406 16.6875 5.6875 16.6875 6C16.6875 6.70312 16.1016 7.25 15.4375 7.25C15.0859 7.25 14.7344 7.13281 14.5 6.85938L13.25 5.45312V13.5C13.25 14.2031 12.6641 14.7891 12 14.7891C11.2969 14.7891 10.75 14.2031 10.75 13.5V5.45312L9.46094 6.85938C9.22656 7.09375 8.875 7.25 8.52344 7.25ZM18.5 7.75C19.8672 7.75 21 8.88281 21 10.25V20.5C21 21.9062 19.8672 23 18.5 23H5.5C4.09375 23 3 21.9062 3 20.5V10.25C3 8.88281 4.09375 7.75 5.5 7.75H6.75V10.25H5.5V20.5H18.5V10.25H17.25V7.75H18.5Z"/>
</svg>