<svg xmlns="http://www.w3.org/2000/svg" width="24" height="24" fill="currentcolor" class="icon-arrow-up-from-bracket-solid" viewBox="0 0 24 24">
  <path d="M18.25 15.7451C18.25 15.0811 18.7969 14.4951 19.5 14.4951C20.1641 14.4951 20.75 15.0811 20.75 15.7451V18.2451C20.75 20.3545 19.0703 21.9951 17 21.9951H7C4.89062 21.9951 3.25 20.3545 3.25 18.2451V15.7451C3.25 15.0811 3.79688 14.4951 4.5 14.4951C5.16406 14.4951 5.75 15.0811 5.75 15.7451V18.2451C5.75 18.9482 6.29688 19.4951 7 19.4951H17C17.6641 19.4951 18.25 18.9482 18.25 18.2451V15.7451ZM11.1016 2.38574C11.5703 1.87793 12.3906 1.87793 12.8594 2.38574L17.8594 7.38574C18.3672 7.85449 18.3672 8.6748 17.8594 9.14355C17.3906 9.65137 16.5703 9.65137 16.1016 9.14355L13.25 6.29199V14.4951C13.25 15.1982 12.6641 15.7451 12 15.7451C11.2969 15.7451 10.75 15.1982 10.75 14.4951V6.29199L7.85938 9.14355C7.39062 9.65137 6.57031 9.65137 6.10156 9.14355C5.59375 8.6748 5.59375 7.85449 6.10156 7.38574L11.1016 2.38574Z"/>
</svg>