<svg xmlns="http://www.w3.org/2000/svg" width="24" height="24" fill="currentcolor" class="icon-github-brand" viewBox="0 0 24 24">
  <path d="M8.75781 17.7751C8.75781 17.697 8.67969 17.6189 8.5625 17.6189C8.44531 17.6189 8.36719 17.697 8.36719 17.7751C8.36719 17.8533 8.44531 17.9314 8.5625 17.8923C8.67969 17.8923 8.75781 17.8533 8.75781 17.7751ZM7.54688 17.5798C7.58594 17.5017 7.70312 17.4626 7.82031 17.5017C7.9375 17.5408 7.97656 17.6189 7.97656 17.697C7.9375 17.7751 7.82031 17.8142 7.74219 17.7751C7.625 17.7751 7.54688 17.6579 7.54688 17.5798ZM9.30469 17.5408C9.38281 17.5017 9.5 17.5798 9.5 17.6579C9.53906 17.7361 9.46094 17.7751 9.34375 17.8142C9.22656 17.8533 9.10938 17.8142 9.10938 17.7361C9.10938 17.6189 9.1875 17.5408 9.30469 17.5408ZM11.8438 2.54076C17.2734 2.54076 21.6875 6.68138 21.6875 12.072C21.6875 16.4079 19.0312 20.1189 15.125 21.4079C14.6172 21.5251 14.4219 21.2126 14.4219 20.9392C14.4219 20.6267 14.4609 18.9861 14.4609 17.697C14.4609 16.7595 14.1484 16.1736 13.7969 15.8611C15.9844 15.6267 18.2891 15.3142 18.2891 11.5642C18.2891 10.4704 17.8984 9.96263 17.2734 9.25951C17.3516 8.98607 17.7031 7.97044 17.1562 6.60326C16.3359 6.32982 14.4609 7.65794 14.4609 7.65794C13.6797 7.42357 12.8594 7.34544 12 7.34544C11.1797 7.34544 10.3594 7.42357 9.57812 7.65794C9.57812 7.65794 7.66406 6.36888 6.88281 6.60326C6.33594 7.97044 6.64844 8.98607 6.76562 9.25951C6.14062 9.96263 5.82812 10.4704 5.82812 11.5642C5.82812 15.3142 8.05469 15.6267 10.2422 15.8611C9.92969 16.1345 9.69531 16.5642 9.61719 17.1892C9.03125 17.4626 7.625 17.8923 6.76562 16.3689C6.21875 15.4314 5.24219 15.3533 5.24219 15.3533C4.30469 15.3533 5.20312 15.9783 5.20312 15.9783C5.82812 16.2517 6.25781 17.3845 6.25781 17.3845C6.84375 19.1423 9.57812 18.5564 9.57812 18.5564C9.57812 19.3767 9.57812 20.7048 9.57812 20.9783C9.57812 21.2126 9.42188 21.5251 8.91406 21.447C5.00781 20.1189 2.3125 16.4079 2.3125 12.072C2.3125 6.68138 6.45312 2.54076 11.8438 2.54076ZM6.10156 16.0173C6.14062 15.9783 6.21875 16.0173 6.29688 16.0564C6.375 16.1345 6.375 16.2517 6.33594 16.2908C6.25781 16.3298 6.17969 16.2908 6.10156 16.2517C6.0625 16.1736 6.02344 16.0564 6.10156 16.0173ZM5.67188 15.7048C5.71094 15.6658 5.75 15.6658 5.82812 15.7048C5.90625 15.7439 5.94531 15.7829 5.94531 15.822C5.90625 15.9001 5.82812 15.9001 5.75 15.8611C5.67188 15.822 5.63281 15.7829 5.67188 15.7048ZM6.92188 17.1111C7 17.0329 7.11719 17.072 7.19531 17.1501C7.27344 17.2283 7.27344 17.3454 7.23438 17.3845C7.19531 17.4626 7.07812 17.4236 7 17.3454C6.88281 17.2673 6.88281 17.1501 6.92188 17.1111ZM6.49219 16.5251C6.57031 16.4861 6.64844 16.5251 6.72656 16.6033C6.76562 16.6814 6.76562 16.7986 6.72656 16.8376C6.64844 16.8767 6.57031 16.8376 6.49219 16.7595C6.41406 16.6814 6.41406 16.5642 6.49219 16.5251Z"/>
</svg>