<svg xmlns="http://www.w3.org/2000/svg" width="24" height="24" fill="currentcolor" class="icon-rocket-solid" viewBox="0 0 24 24">
  <path d="M8.11621 17.0236L6.90527 15.8126C6.59277 15.5001 6.47559 15.0314 6.59277 14.5626C6.70996 14.2111 6.86621 13.7814 7.06152 13.2345H2.95996C2.6084 13.2345 2.2959 13.0782 2.13965 12.7657C1.94434 12.4923 1.94434 12.1407 2.13965 11.8282L4.1709 8.39075C4.67871 7.53137 5.61621 6.9845 6.59277 6.9845H9.83496C9.91309 6.82825 9.99121 6.71106 10.1084 6.55481C13.3115 1.82825 18.0771 1.672 20.8896 2.21887C21.3584 2.297 21.71 2.64856 21.7881 3.11731C22.335 5.92981 22.1787 10.6954 17.4521 13.8986C17.2959 14.0157 17.1396 14.0939 17.0225 14.172V17.4142C17.0225 18.3907 16.4756 19.3282 15.6162 19.8361L12.1787 21.8673C11.8662 22.0236 11.5146 22.0626 11.2412 21.8673C10.9287 21.7111 10.7725 21.3986 10.7725 21.047V16.8673C10.1865 17.0626 9.71777 17.2189 9.36621 17.3361C8.93652 17.4923 8.42871 17.3751 8.11621 17.0236ZM17.0225 8.547C17.8818 8.547 18.585 7.88294 18.585 6.9845C18.585 6.12512 17.8818 5.422 17.0225 5.422C16.124 5.422 15.46 6.12512 15.46 6.9845C15.46 7.88294 16.124 8.547 17.0225 8.547Z"/>
</svg>